G04 Layer_Color=16711935*
%FSLAX25Y25*%
%MOIN*%
G70*
G01*
G75*
%ADD46R,0.04737X0.04343*%
%ADD47R,0.06312X0.03162*%
%ADD48R,0.07887X0.03162*%
%ADD56C,0.24422*%
%ADD57R,0.07887X0.07887*%
%ADD58C,0.07887*%
%ADD59R,0.07887X0.07887*%
%ADD60C,0.05800*%
%ADD61C,0.07717*%
%ADD62R,0.07717X0.07717*%
%ADD63R,0.07717X0.07717*%
%ADD64C,0.07323*%
%ADD65R,0.07323X0.07323*%
%ADD66C,0.24252*%
%ADD67C,0.02598*%
G36*
X133320Y86815D02*
X133371Y86805D01*
X133421Y86788D01*
X133468Y86765D01*
X133512Y86735D01*
X133551Y86701D01*
X136110Y84142D01*
X136145Y84102D01*
X136174Y84059D01*
X136197Y84012D01*
X136214Y83962D01*
X136224Y83911D01*
X136228Y83858D01*
Y81496D01*
X136224Y81444D01*
X136214Y81392D01*
X136197Y81343D01*
X136174Y81296D01*
X136145Y81252D01*
X136110Y81213D01*
X133551Y78654D01*
X133512Y78619D01*
X133468Y78590D01*
X133421Y78567D01*
X133371Y78550D01*
X133320Y78540D01*
X133268Y78536D01*
X125787D01*
X125735Y78540D01*
X125684Y78550D01*
X125634Y78567D01*
X125587Y78590D01*
X125543Y78619D01*
X125504Y78654D01*
X122945Y81213D01*
X122910Y81252D01*
X122881Y81296D01*
X122858Y81343D01*
X122841Y81392D01*
X122831Y81444D01*
X122827Y81496D01*
Y83858D01*
X122831Y83911D01*
X122841Y83962D01*
X122858Y84012D01*
X122881Y84059D01*
X122910Y84102D01*
X122945Y84142D01*
X125504Y86701D01*
X125543Y86735D01*
X125587Y86765D01*
X125634Y86788D01*
X125684Y86805D01*
X125735Y86815D01*
X125787Y86818D01*
X133268D01*
X133320Y86815D01*
D02*
G37*
G36*
X54580Y114374D02*
X54631Y114364D01*
X54681Y114347D01*
X54728Y114324D01*
X54772Y114295D01*
X54811Y114260D01*
X57370Y111701D01*
X57405Y111661D01*
X57434Y111618D01*
X57457Y111571D01*
X57474Y111521D01*
X57484Y111470D01*
X57487Y111417D01*
Y109055D01*
X57484Y109003D01*
X57474Y108951D01*
X57457Y108902D01*
X57434Y108855D01*
X57405Y108811D01*
X57370Y108772D01*
X54811Y106213D01*
X54772Y106178D01*
X54728Y106149D01*
X54681Y106126D01*
X54631Y106109D01*
X54580Y106099D01*
X54528Y106095D01*
X47047D01*
X46995Y106099D01*
X46944Y106109D01*
X46894Y106126D01*
X46847Y106149D01*
X46803Y106178D01*
X46764Y106213D01*
X44205Y108772D01*
X44170Y108811D01*
X44141Y108855D01*
X44118Y108902D01*
X44101Y108951D01*
X44091Y109003D01*
X44087Y109055D01*
Y111417D01*
X44091Y111470D01*
X44101Y111521D01*
X44118Y111571D01*
X44141Y111618D01*
X44170Y111661D01*
X44205Y111701D01*
X46764Y114260D01*
X46803Y114295D01*
X46847Y114324D01*
X46894Y114347D01*
X46944Y114364D01*
X46995Y114374D01*
X47047Y114377D01*
X54528D01*
X54580Y114374D01*
D02*
G37*
G36*
Y86815D02*
X54631Y86805D01*
X54681Y86788D01*
X54728Y86765D01*
X54772Y86735D01*
X54811Y86701D01*
X57370Y84142D01*
X57405Y84102D01*
X57434Y84059D01*
X57457Y84012D01*
X57474Y83962D01*
X57484Y83911D01*
X57487Y83858D01*
Y81496D01*
X57484Y81444D01*
X57474Y81392D01*
X57457Y81343D01*
X57434Y81296D01*
X57405Y81252D01*
X57370Y81213D01*
X54811Y78654D01*
X54772Y78619D01*
X54728Y78590D01*
X54681Y78567D01*
X54631Y78550D01*
X54580Y78540D01*
X54528Y78536D01*
X47047D01*
X46995Y78540D01*
X46944Y78550D01*
X46894Y78567D01*
X46847Y78590D01*
X46803Y78619D01*
X46764Y78654D01*
X44205Y81213D01*
X44170Y81252D01*
X44141Y81296D01*
X44118Y81343D01*
X44101Y81392D01*
X44091Y81444D01*
X44087Y81496D01*
Y83858D01*
X44091Y83911D01*
X44101Y83962D01*
X44118Y84012D01*
X44141Y84059D01*
X44170Y84102D01*
X44205Y84142D01*
X46764Y86701D01*
X46803Y86735D01*
X46847Y86765D01*
X46894Y86788D01*
X46944Y86805D01*
X46995Y86815D01*
X47047Y86818D01*
X54528D01*
X54580Y86815D01*
D02*
G37*
G36*
X93950D02*
X94001Y86805D01*
X94051Y86788D01*
X94098Y86765D01*
X94142Y86735D01*
X94181Y86701D01*
X96740Y84142D01*
X96775Y84102D01*
X96804Y84059D01*
X96827Y84012D01*
X96844Y83962D01*
X96854Y83911D01*
X96858Y83858D01*
Y81496D01*
X96854Y81444D01*
X96844Y81392D01*
X96827Y81343D01*
X96804Y81296D01*
X96775Y81252D01*
X96740Y81213D01*
X94181Y78654D01*
X94142Y78619D01*
X94098Y78590D01*
X94051Y78567D01*
X94001Y78550D01*
X93950Y78540D01*
X93898Y78536D01*
X86417D01*
X86365Y78540D01*
X86314Y78550D01*
X86264Y78567D01*
X86217Y78590D01*
X86173Y78619D01*
X86134Y78654D01*
X83575Y81213D01*
X83540Y81252D01*
X83511Y81296D01*
X83488Y81343D01*
X83471Y81392D01*
X83461Y81444D01*
X83457Y81496D01*
Y83858D01*
X83461Y83911D01*
X83471Y83962D01*
X83488Y84012D01*
X83511Y84059D01*
X83540Y84102D01*
X83575Y84142D01*
X86134Y86701D01*
X86173Y86735D01*
X86217Y86765D01*
X86264Y86788D01*
X86314Y86805D01*
X86365Y86815D01*
X86417Y86818D01*
X93898D01*
X93950Y86815D01*
D02*
G37*
G36*
Y114374D02*
X94001Y114364D01*
X94051Y114347D01*
X94098Y114324D01*
X94142Y114295D01*
X94181Y114260D01*
X96740Y111701D01*
X96775Y111661D01*
X96804Y111618D01*
X96827Y111571D01*
X96844Y111521D01*
X96854Y111470D01*
X96858Y111417D01*
Y109055D01*
X96854Y109003D01*
X96844Y108951D01*
X96827Y108902D01*
X96804Y108855D01*
X96775Y108811D01*
X96740Y108772D01*
X94181Y106213D01*
X94142Y106178D01*
X94098Y106149D01*
X94051Y106126D01*
X94001Y106109D01*
X93950Y106099D01*
X93898Y106095D01*
X86417D01*
X86365Y106099D01*
X86314Y106109D01*
X86264Y106126D01*
X86217Y106149D01*
X86173Y106178D01*
X86134Y106213D01*
X83575Y108772D01*
X83540Y108811D01*
X83511Y108855D01*
X83488Y108902D01*
X83471Y108951D01*
X83461Y109003D01*
X83457Y109055D01*
Y111417D01*
X83461Y111470D01*
X83471Y111521D01*
X83488Y111571D01*
X83511Y111618D01*
X83540Y111661D01*
X83575Y111701D01*
X86134Y114260D01*
X86173Y114295D01*
X86217Y114324D01*
X86264Y114347D01*
X86314Y114364D01*
X86365Y114374D01*
X86417Y114377D01*
X93898D01*
X93950Y114374D01*
D02*
G37*
G36*
Y141933D02*
X94001Y141923D01*
X94051Y141906D01*
X94098Y141883D01*
X94142Y141853D01*
X94181Y141819D01*
X96740Y139260D01*
X96775Y139220D01*
X96804Y139177D01*
X96827Y139130D01*
X96844Y139080D01*
X96854Y139029D01*
X96858Y138976D01*
Y136614D01*
X96854Y136562D01*
X96844Y136511D01*
X96827Y136461D01*
X96804Y136414D01*
X96775Y136370D01*
X96740Y136331D01*
X94181Y133772D01*
X94142Y133737D01*
X94098Y133708D01*
X94051Y133685D01*
X94001Y133668D01*
X93950Y133658D01*
X93898Y133654D01*
X86417D01*
X86365Y133658D01*
X86314Y133668D01*
X86264Y133685D01*
X86217Y133708D01*
X86173Y133737D01*
X86134Y133772D01*
X83575Y136331D01*
X83540Y136370D01*
X83511Y136414D01*
X83488Y136461D01*
X83471Y136511D01*
X83461Y136562D01*
X83457Y136614D01*
Y138976D01*
X83461Y139029D01*
X83471Y139080D01*
X83488Y139130D01*
X83511Y139177D01*
X83540Y139220D01*
X83575Y139260D01*
X86134Y141819D01*
X86173Y141853D01*
X86217Y141883D01*
X86264Y141906D01*
X86314Y141923D01*
X86365Y141933D01*
X86417Y141936D01*
X93898D01*
X93950Y141933D01*
D02*
G37*
G36*
X133320D02*
X133371Y141923D01*
X133421Y141906D01*
X133468Y141883D01*
X133512Y141853D01*
X133551Y141819D01*
X136110Y139260D01*
X136145Y139220D01*
X136174Y139177D01*
X136197Y139130D01*
X136214Y139080D01*
X136224Y139029D01*
X136228Y138976D01*
Y136614D01*
X136224Y136562D01*
X136214Y136511D01*
X136197Y136461D01*
X136174Y136414D01*
X136145Y136370D01*
X136110Y136331D01*
X133551Y133772D01*
X133512Y133737D01*
X133468Y133708D01*
X133421Y133685D01*
X133371Y133668D01*
X133320Y133658D01*
X133268Y133654D01*
X125787D01*
X125735Y133658D01*
X125684Y133668D01*
X125634Y133685D01*
X125587Y133708D01*
X125543Y133737D01*
X125504Y133772D01*
X122945Y136331D01*
X122910Y136370D01*
X122881Y136414D01*
X122858Y136461D01*
X122841Y136511D01*
X122831Y136562D01*
X122827Y136614D01*
Y138976D01*
X122831Y139029D01*
X122841Y139080D01*
X122858Y139130D01*
X122881Y139177D01*
X122910Y139220D01*
X122945Y139260D01*
X125504Y141819D01*
X125543Y141853D01*
X125587Y141883D01*
X125634Y141906D01*
X125684Y141923D01*
X125735Y141933D01*
X125787Y141936D01*
X133268D01*
X133320Y141933D01*
D02*
G37*
G36*
X133362Y114374D02*
X133414Y114364D01*
X133464Y114347D01*
X133511Y114324D01*
X133554Y114295D01*
X133594Y114260D01*
X136153Y111701D01*
X136187Y111661D01*
X136216Y111618D01*
X136240Y111571D01*
X136256Y111521D01*
X136267Y111470D01*
X136270Y111417D01*
Y109055D01*
X136267Y109003D01*
X136256Y108951D01*
X136240Y108902D01*
X136216Y108855D01*
X136187Y108811D01*
X136153Y108772D01*
X133594Y106213D01*
X133554Y106178D01*
X133511Y106149D01*
X133464Y106126D01*
X133414Y106109D01*
X133362Y106099D01*
X133310Y106095D01*
X125830D01*
X125777Y106099D01*
X125726Y106109D01*
X125676Y106126D01*
X125629Y106149D01*
X125586Y106178D01*
X125546Y106213D01*
X122987Y108772D01*
X122953Y108811D01*
X122924Y108855D01*
X122900Y108902D01*
X122884Y108951D01*
X122873Y109003D01*
X122870Y109055D01*
Y111417D01*
X122873Y111470D01*
X122884Y111521D01*
X122900Y111571D01*
X122924Y111618D01*
X122953Y111661D01*
X122987Y111701D01*
X125546Y114260D01*
X125586Y114295D01*
X125629Y114324D01*
X125676Y114347D01*
X125726Y114364D01*
X125777Y114374D01*
X125830Y114377D01*
X133310D01*
X133362Y114374D01*
D02*
G37*
G36*
X54580Y141933D02*
X54631Y141923D01*
X54681Y141906D01*
X54728Y141883D01*
X54772Y141853D01*
X54811Y141819D01*
X57370Y139260D01*
X57405Y139220D01*
X57434Y139177D01*
X57457Y139130D01*
X57474Y139080D01*
X57484Y139029D01*
X57487Y138976D01*
Y136614D01*
X57484Y136562D01*
X57474Y136511D01*
X57457Y136461D01*
X57434Y136414D01*
X57405Y136370D01*
X57370Y136331D01*
X54811Y133772D01*
X54772Y133737D01*
X54728Y133708D01*
X54681Y133685D01*
X54631Y133668D01*
X54580Y133658D01*
X54528Y133654D01*
X47047D01*
X46995Y133658D01*
X46944Y133668D01*
X46894Y133685D01*
X46847Y133708D01*
X46803Y133737D01*
X46764Y133772D01*
X44205Y136331D01*
X44170Y136370D01*
X44141Y136414D01*
X44118Y136461D01*
X44101Y136511D01*
X44091Y136562D01*
X44087Y136614D01*
Y138976D01*
X44091Y139029D01*
X44101Y139080D01*
X44118Y139130D01*
X44141Y139177D01*
X44170Y139220D01*
X44205Y139260D01*
X46764Y141819D01*
X46803Y141853D01*
X46847Y141883D01*
X46894Y141906D01*
X46944Y141923D01*
X46995Y141933D01*
X47047Y141936D01*
X54528D01*
X54580Y141933D01*
D02*
G37*
G36*
X133320Y283665D02*
X133371Y283655D01*
X133421Y283638D01*
X133468Y283615D01*
X133512Y283586D01*
X133551Y283551D01*
X136110Y280992D01*
X136145Y280953D01*
X136174Y280909D01*
X136197Y280862D01*
X136214Y280813D01*
X136224Y280761D01*
X136228Y280709D01*
Y278346D01*
X136224Y278294D01*
X136214Y278243D01*
X136197Y278193D01*
X136174Y278146D01*
X136145Y278102D01*
X136110Y278063D01*
X133551Y275504D01*
X133512Y275469D01*
X133468Y275440D01*
X133421Y275417D01*
X133371Y275400D01*
X133320Y275390D01*
X133268Y275387D01*
X125787D01*
X125735Y275390D01*
X125684Y275400D01*
X125634Y275417D01*
X125587Y275440D01*
X125543Y275469D01*
X125504Y275504D01*
X122945Y278063D01*
X122910Y278102D01*
X122881Y278146D01*
X122858Y278193D01*
X122841Y278243D01*
X122831Y278294D01*
X122827Y278346D01*
Y280709D01*
X122831Y280761D01*
X122841Y280813D01*
X122858Y280862D01*
X122881Y280909D01*
X122910Y280953D01*
X122945Y280992D01*
X125504Y283551D01*
X125543Y283586D01*
X125587Y283615D01*
X125634Y283638D01*
X125684Y283655D01*
X125735Y283665D01*
X125787Y283669D01*
X133268D01*
X133320Y283665D01*
D02*
G37*
G36*
X54580Y311224D02*
X54631Y311214D01*
X54681Y311197D01*
X54728Y311174D01*
X54772Y311145D01*
X54811Y311110D01*
X57370Y308551D01*
X57405Y308512D01*
X57434Y308468D01*
X57457Y308421D01*
X57474Y308371D01*
X57484Y308320D01*
X57487Y308268D01*
Y305906D01*
X57484Y305853D01*
X57474Y305802D01*
X57457Y305752D01*
X57434Y305705D01*
X57405Y305662D01*
X57370Y305622D01*
X54811Y303063D01*
X54772Y303028D01*
X54728Y302999D01*
X54681Y302976D01*
X54631Y302959D01*
X54580Y302949D01*
X54528Y302946D01*
X47047D01*
X46995Y302949D01*
X46944Y302959D01*
X46894Y302976D01*
X46847Y302999D01*
X46803Y303028D01*
X46764Y303063D01*
X44205Y305622D01*
X44170Y305662D01*
X44141Y305705D01*
X44118Y305752D01*
X44101Y305802D01*
X44091Y305853D01*
X44087Y305906D01*
Y308268D01*
X44091Y308320D01*
X44101Y308371D01*
X44118Y308421D01*
X44141Y308468D01*
X44170Y308512D01*
X44205Y308551D01*
X46764Y311110D01*
X46803Y311145D01*
X46847Y311174D01*
X46894Y311197D01*
X46944Y311214D01*
X46995Y311224D01*
X47047Y311228D01*
X54528D01*
X54580Y311224D01*
D02*
G37*
G36*
Y283665D02*
X54631Y283655D01*
X54681Y283638D01*
X54728Y283615D01*
X54772Y283586D01*
X54811Y283551D01*
X57370Y280992D01*
X57405Y280953D01*
X57434Y280909D01*
X57457Y280862D01*
X57474Y280813D01*
X57484Y280761D01*
X57487Y280709D01*
Y278346D01*
X57484Y278294D01*
X57474Y278243D01*
X57457Y278193D01*
X57434Y278146D01*
X57405Y278102D01*
X57370Y278063D01*
X54811Y275504D01*
X54772Y275469D01*
X54728Y275440D01*
X54681Y275417D01*
X54631Y275400D01*
X54580Y275390D01*
X54528Y275387D01*
X47047D01*
X46995Y275390D01*
X46944Y275400D01*
X46894Y275417D01*
X46847Y275440D01*
X46803Y275469D01*
X46764Y275504D01*
X44205Y278063D01*
X44170Y278102D01*
X44141Y278146D01*
X44118Y278193D01*
X44101Y278243D01*
X44091Y278294D01*
X44087Y278346D01*
Y280709D01*
X44091Y280761D01*
X44101Y280813D01*
X44118Y280862D01*
X44141Y280909D01*
X44170Y280953D01*
X44205Y280992D01*
X46764Y283551D01*
X46803Y283586D01*
X46847Y283615D01*
X46894Y283638D01*
X46944Y283655D01*
X46995Y283665D01*
X47047Y283669D01*
X54528D01*
X54580Y283665D01*
D02*
G37*
G36*
X93950D02*
X94001Y283655D01*
X94051Y283638D01*
X94098Y283615D01*
X94142Y283586D01*
X94181Y283551D01*
X96740Y280992D01*
X96775Y280953D01*
X96804Y280909D01*
X96827Y280862D01*
X96844Y280813D01*
X96854Y280761D01*
X96858Y280709D01*
Y278346D01*
X96854Y278294D01*
X96844Y278243D01*
X96827Y278193D01*
X96804Y278146D01*
X96775Y278102D01*
X96740Y278063D01*
X94181Y275504D01*
X94142Y275469D01*
X94098Y275440D01*
X94051Y275417D01*
X94001Y275400D01*
X93950Y275390D01*
X93898Y275387D01*
X86417D01*
X86365Y275390D01*
X86314Y275400D01*
X86264Y275417D01*
X86217Y275440D01*
X86173Y275469D01*
X86134Y275504D01*
X83575Y278063D01*
X83540Y278102D01*
X83511Y278146D01*
X83488Y278193D01*
X83471Y278243D01*
X83461Y278294D01*
X83457Y278346D01*
Y280709D01*
X83461Y280761D01*
X83471Y280813D01*
X83488Y280862D01*
X83511Y280909D01*
X83540Y280953D01*
X83575Y280992D01*
X86134Y283551D01*
X86173Y283586D01*
X86217Y283615D01*
X86264Y283638D01*
X86314Y283655D01*
X86365Y283665D01*
X86417Y283669D01*
X93898D01*
X93950Y283665D01*
D02*
G37*
G36*
Y311224D02*
X94001Y311214D01*
X94051Y311197D01*
X94098Y311174D01*
X94142Y311145D01*
X94181Y311110D01*
X96740Y308551D01*
X96775Y308512D01*
X96804Y308468D01*
X96827Y308421D01*
X96844Y308371D01*
X96854Y308320D01*
X96858Y308268D01*
Y305906D01*
X96854Y305853D01*
X96844Y305802D01*
X96827Y305752D01*
X96804Y305705D01*
X96775Y305662D01*
X96740Y305622D01*
X94181Y303063D01*
X94142Y303028D01*
X94098Y302999D01*
X94051Y302976D01*
X94001Y302959D01*
X93950Y302949D01*
X93898Y302946D01*
X86417D01*
X86365Y302949D01*
X86314Y302959D01*
X86264Y302976D01*
X86217Y302999D01*
X86173Y303028D01*
X86134Y303063D01*
X83575Y305622D01*
X83540Y305662D01*
X83511Y305705D01*
X83488Y305752D01*
X83471Y305802D01*
X83461Y305853D01*
X83457Y305906D01*
Y308268D01*
X83461Y308320D01*
X83471Y308371D01*
X83488Y308421D01*
X83511Y308468D01*
X83540Y308512D01*
X83575Y308551D01*
X86134Y311110D01*
X86173Y311145D01*
X86217Y311174D01*
X86264Y311197D01*
X86314Y311214D01*
X86365Y311224D01*
X86417Y311228D01*
X93898D01*
X93950Y311224D01*
D02*
G37*
G36*
Y338783D02*
X94001Y338773D01*
X94051Y338756D01*
X94098Y338733D01*
X94142Y338704D01*
X94181Y338669D01*
X96740Y336110D01*
X96775Y336071D01*
X96804Y336027D01*
X96827Y335980D01*
X96844Y335931D01*
X96854Y335879D01*
X96858Y335827D01*
Y333465D01*
X96854Y333412D01*
X96844Y333361D01*
X96827Y333311D01*
X96804Y333264D01*
X96775Y333221D01*
X96740Y333181D01*
X94181Y330622D01*
X94142Y330588D01*
X94098Y330558D01*
X94051Y330535D01*
X94001Y330518D01*
X93950Y330508D01*
X93898Y330505D01*
X86417D01*
X86365Y330508D01*
X86314Y330518D01*
X86264Y330535D01*
X86217Y330558D01*
X86173Y330588D01*
X86134Y330622D01*
X83575Y333181D01*
X83540Y333221D01*
X83511Y333264D01*
X83488Y333311D01*
X83471Y333361D01*
X83461Y333412D01*
X83457Y333465D01*
Y335827D01*
X83461Y335879D01*
X83471Y335931D01*
X83488Y335980D01*
X83511Y336027D01*
X83540Y336071D01*
X83575Y336110D01*
X86134Y338669D01*
X86173Y338704D01*
X86217Y338733D01*
X86264Y338756D01*
X86314Y338773D01*
X86365Y338783D01*
X86417Y338787D01*
X93898D01*
X93950Y338783D01*
D02*
G37*
G36*
X133320D02*
X133371Y338773D01*
X133421Y338756D01*
X133468Y338733D01*
X133512Y338704D01*
X133551Y338669D01*
X136110Y336110D01*
X136145Y336071D01*
X136174Y336027D01*
X136197Y335980D01*
X136214Y335931D01*
X136224Y335879D01*
X136228Y335827D01*
Y333465D01*
X136224Y333412D01*
X136214Y333361D01*
X136197Y333311D01*
X136174Y333264D01*
X136145Y333221D01*
X136110Y333181D01*
X133551Y330622D01*
X133512Y330588D01*
X133468Y330558D01*
X133421Y330535D01*
X133371Y330518D01*
X133320Y330508D01*
X133268Y330505D01*
X125787D01*
X125735Y330508D01*
X125684Y330518D01*
X125634Y330535D01*
X125587Y330558D01*
X125543Y330588D01*
X125504Y330622D01*
X122945Y333181D01*
X122910Y333221D01*
X122881Y333264D01*
X122858Y333311D01*
X122841Y333361D01*
X122831Y333412D01*
X122827Y333465D01*
Y335827D01*
X122831Y335879D01*
X122841Y335931D01*
X122858Y335980D01*
X122881Y336027D01*
X122910Y336071D01*
X122945Y336110D01*
X125504Y338669D01*
X125543Y338704D01*
X125587Y338733D01*
X125634Y338756D01*
X125684Y338773D01*
X125735Y338783D01*
X125787Y338787D01*
X133268D01*
X133320Y338783D01*
D02*
G37*
G36*
X133362Y311224D02*
X133414Y311214D01*
X133464Y311197D01*
X133511Y311174D01*
X133554Y311145D01*
X133594Y311110D01*
X136153Y308551D01*
X136187Y308512D01*
X136216Y308468D01*
X136240Y308421D01*
X136256Y308371D01*
X136267Y308320D01*
X136270Y308268D01*
Y305906D01*
X136267Y305853D01*
X136256Y305802D01*
X136240Y305752D01*
X136216Y305705D01*
X136187Y305662D01*
X136153Y305622D01*
X133594Y303063D01*
X133554Y303028D01*
X133511Y302999D01*
X133464Y302976D01*
X133414Y302959D01*
X133362Y302949D01*
X133310Y302946D01*
X125830D01*
X125777Y302949D01*
X125726Y302959D01*
X125676Y302976D01*
X125629Y302999D01*
X125586Y303028D01*
X125546Y303063D01*
X122987Y305622D01*
X122953Y305662D01*
X122924Y305705D01*
X122900Y305752D01*
X122884Y305802D01*
X122873Y305853D01*
X122870Y305906D01*
Y308268D01*
X122873Y308320D01*
X122884Y308371D01*
X122900Y308421D01*
X122924Y308468D01*
X122953Y308512D01*
X122987Y308551D01*
X125546Y311110D01*
X125586Y311145D01*
X125629Y311174D01*
X125676Y311197D01*
X125726Y311214D01*
X125777Y311224D01*
X125830Y311228D01*
X133310D01*
X133362Y311224D01*
D02*
G37*
G36*
X54580Y338783D02*
X54631Y338773D01*
X54681Y338756D01*
X54728Y338733D01*
X54772Y338704D01*
X54811Y338669D01*
X57370Y336110D01*
X57405Y336071D01*
X57434Y336027D01*
X57457Y335980D01*
X57474Y335931D01*
X57484Y335879D01*
X57487Y335827D01*
Y333465D01*
X57484Y333412D01*
X57474Y333361D01*
X57457Y333311D01*
X57434Y333264D01*
X57405Y333221D01*
X57370Y333181D01*
X54811Y330622D01*
X54772Y330588D01*
X54728Y330558D01*
X54681Y330535D01*
X54631Y330518D01*
X54580Y330508D01*
X54528Y330505D01*
X47047D01*
X46995Y330508D01*
X46944Y330518D01*
X46894Y330535D01*
X46847Y330558D01*
X46803Y330588D01*
X46764Y330622D01*
X44205Y333181D01*
X44170Y333221D01*
X44141Y333264D01*
X44118Y333311D01*
X44101Y333361D01*
X44091Y333412D01*
X44087Y333465D01*
Y335827D01*
X44091Y335879D01*
X44101Y335931D01*
X44118Y335980D01*
X44141Y336027D01*
X44170Y336071D01*
X44205Y336110D01*
X46764Y338669D01*
X46803Y338704D01*
X46847Y338733D01*
X46894Y338756D01*
X46944Y338773D01*
X46995Y338783D01*
X47047Y338787D01*
X54528D01*
X54580Y338783D01*
D02*
G37*
D46*
X72441Y134646D02*
D03*
Y140945D02*
D03*
Y107087D02*
D03*
Y113386D02*
D03*
Y79528D02*
D03*
Y85827D02*
D03*
X111811Y134646D02*
D03*
Y140945D02*
D03*
Y107087D02*
D03*
Y113386D02*
D03*
Y79528D02*
D03*
Y85827D02*
D03*
X33071Y79528D02*
D03*
Y85827D02*
D03*
Y107087D02*
D03*
Y113386D02*
D03*
Y134646D02*
D03*
Y140945D02*
D03*
X72441Y331496D02*
D03*
Y337795D02*
D03*
Y303937D02*
D03*
Y310236D02*
D03*
Y276378D02*
D03*
Y282677D02*
D03*
X111811Y331496D02*
D03*
Y337795D02*
D03*
Y303937D02*
D03*
Y310236D02*
D03*
Y276378D02*
D03*
Y282677D02*
D03*
X33071Y276378D02*
D03*
Y282677D02*
D03*
Y303937D02*
D03*
Y310236D02*
D03*
Y331496D02*
D03*
Y337795D02*
D03*
D47*
X40157Y143701D02*
D03*
Y131890D02*
D03*
Y116142D02*
D03*
Y104331D02*
D03*
Y88583D02*
D03*
Y76772D02*
D03*
X79528Y88583D02*
D03*
Y76772D02*
D03*
Y116142D02*
D03*
Y104331D02*
D03*
Y143701D02*
D03*
Y131890D02*
D03*
X118898Y143701D02*
D03*
Y131890D02*
D03*
X118940Y116142D02*
D03*
Y104331D02*
D03*
X118898Y88583D02*
D03*
Y76772D02*
D03*
X40157Y340551D02*
D03*
Y328740D02*
D03*
Y312992D02*
D03*
Y301181D02*
D03*
Y285433D02*
D03*
Y273622D02*
D03*
X79528Y285433D02*
D03*
Y273622D02*
D03*
Y312992D02*
D03*
Y301181D02*
D03*
Y340551D02*
D03*
Y328740D02*
D03*
X118898Y340551D02*
D03*
Y328740D02*
D03*
X118940Y312992D02*
D03*
Y301181D02*
D03*
X118898Y285433D02*
D03*
Y273622D02*
D03*
D48*
X40945Y137795D02*
D03*
Y110236D02*
D03*
Y82677D02*
D03*
X80315D02*
D03*
Y110236D02*
D03*
Y137795D02*
D03*
X119685D02*
D03*
X119728Y110236D02*
D03*
X119685Y82677D02*
D03*
X40945Y334646D02*
D03*
Y307087D02*
D03*
Y279528D02*
D03*
X80315D02*
D03*
Y307087D02*
D03*
Y334646D02*
D03*
X119685D02*
D03*
X119728Y307087D02*
D03*
X119685Y279528D02*
D03*
D56*
X153543Y177165D02*
D03*
X19685Y43307D02*
D03*
Y177165D02*
D03*
X153543Y374016D02*
D03*
X19685Y240158D02*
D03*
Y374016D02*
D03*
D57*
X172165Y35236D02*
D03*
Y232087D02*
D03*
D58*
Y45236D02*
D03*
Y55236D02*
D03*
Y65236D02*
D03*
Y75236D02*
D03*
Y85236D02*
D03*
Y95236D02*
D03*
Y105236D02*
D03*
Y115236D02*
D03*
Y125236D02*
D03*
Y135236D02*
D03*
Y145236D02*
D03*
Y155236D02*
D03*
Y165236D02*
D03*
Y175236D02*
D03*
Y185236D02*
D03*
X182165Y35236D02*
D03*
Y45236D02*
D03*
Y55236D02*
D03*
Y65236D02*
D03*
Y75236D02*
D03*
Y85236D02*
D03*
Y95236D02*
D03*
Y105236D02*
D03*
Y115236D02*
D03*
Y125236D02*
D03*
Y135236D02*
D03*
Y145236D02*
D03*
Y155236D02*
D03*
Y165236D02*
D03*
Y175236D02*
D03*
Y185236D02*
D03*
X11614Y24685D02*
D03*
X21614D02*
D03*
X31614D02*
D03*
X41614D02*
D03*
X51614D02*
D03*
X61614D02*
D03*
X71614D02*
D03*
X81614D02*
D03*
X91614D02*
D03*
X101614D02*
D03*
X111614D02*
D03*
X121614D02*
D03*
X131614D02*
D03*
X141614D02*
D03*
X151614D02*
D03*
X161614Y14685D02*
D03*
X151614D02*
D03*
X141614D02*
D03*
X131614D02*
D03*
X121614D02*
D03*
X111614D02*
D03*
X101614D02*
D03*
X91614D02*
D03*
X81614D02*
D03*
X71614D02*
D03*
X61614D02*
D03*
X51614D02*
D03*
X41614D02*
D03*
X31614D02*
D03*
X21614D02*
D03*
X11614D02*
D03*
X172165Y242087D02*
D03*
Y252087D02*
D03*
Y262087D02*
D03*
Y272087D02*
D03*
Y282087D02*
D03*
Y292087D02*
D03*
Y302087D02*
D03*
Y312087D02*
D03*
Y322087D02*
D03*
Y332087D02*
D03*
Y342087D02*
D03*
Y352087D02*
D03*
Y362087D02*
D03*
Y372087D02*
D03*
Y382087D02*
D03*
X182165Y232087D02*
D03*
Y242087D02*
D03*
Y252087D02*
D03*
Y262087D02*
D03*
Y272087D02*
D03*
Y282087D02*
D03*
Y292087D02*
D03*
Y302087D02*
D03*
Y312087D02*
D03*
Y322087D02*
D03*
Y332087D02*
D03*
Y342087D02*
D03*
Y352087D02*
D03*
Y362087D02*
D03*
Y372087D02*
D03*
Y382087D02*
D03*
X11614Y221535D02*
D03*
X21614D02*
D03*
X31614D02*
D03*
X41614D02*
D03*
X51614D02*
D03*
X61614D02*
D03*
X71614D02*
D03*
X81614D02*
D03*
X91614D02*
D03*
X101614D02*
D03*
X111614D02*
D03*
X121614D02*
D03*
X131614D02*
D03*
X141614D02*
D03*
X151614D02*
D03*
X161614Y211536D02*
D03*
X151614D02*
D03*
X141614D02*
D03*
X131614D02*
D03*
X121614D02*
D03*
X111614D02*
D03*
X101614D02*
D03*
X91614D02*
D03*
X81614D02*
D03*
X71614D02*
D03*
X61614D02*
D03*
X51614D02*
D03*
X41614D02*
D03*
X31614D02*
D03*
X21614D02*
D03*
X11614D02*
D03*
D59*
X161614Y24685D02*
D03*
Y221535D02*
D03*
D60*
X179232Y16043D02*
D03*
X53150Y167717D02*
D03*
Y148819D02*
D03*
X86614Y146457D02*
D03*
X125591Y144882D02*
D03*
X162992Y116142D02*
D03*
X158661Y59449D02*
D03*
X160236Y78347D02*
D03*
X44094Y40157D02*
D03*
X20866Y81890D02*
D03*
X22047Y107480D02*
D03*
X21260Y137008D02*
D03*
X126378Y63386D02*
D03*
X87795Y40157D02*
D03*
X125984Y96457D02*
D03*
X86614D02*
D03*
X47244D02*
D03*
Y124016D02*
D03*
X86614D02*
D03*
X125984D02*
D03*
X162599Y96457D02*
D03*
X162205Y104331D02*
D03*
X86221Y69291D02*
D03*
X69882Y167717D02*
D03*
X120079D02*
D03*
X86614D02*
D03*
X103347Y167323D02*
D03*
X179232Y212894D02*
D03*
X53150Y364567D02*
D03*
Y345669D02*
D03*
X86614Y343307D02*
D03*
X125591Y341732D02*
D03*
X162992Y312992D02*
D03*
X158661Y256299D02*
D03*
X160236Y275197D02*
D03*
X44094Y237008D02*
D03*
X20866Y278740D02*
D03*
X22047Y304331D02*
D03*
X21260Y333858D02*
D03*
X126378Y260236D02*
D03*
X87795Y237008D02*
D03*
X125984Y293307D02*
D03*
X86614D02*
D03*
X47244D02*
D03*
Y320866D02*
D03*
X86614D02*
D03*
X125984D02*
D03*
X162599Y293307D02*
D03*
X162205Y301181D02*
D03*
X86221Y266142D02*
D03*
X69882Y364567D02*
D03*
X120079D02*
D03*
X86614D02*
D03*
X103347Y364173D02*
D03*
D61*
X211536Y185236D02*
D03*
Y175236D02*
D03*
Y165236D02*
D03*
Y155236D02*
D03*
Y145236D02*
D03*
Y135236D02*
D03*
Y125236D02*
D03*
Y115236D02*
D03*
Y105236D02*
D03*
Y95236D02*
D03*
Y85236D02*
D03*
Y75236D02*
D03*
Y65236D02*
D03*
Y55236D02*
D03*
Y45236D02*
D03*
Y35236D02*
D03*
X221535Y45236D02*
D03*
Y55236D02*
D03*
Y65236D02*
D03*
Y75236D02*
D03*
Y85236D02*
D03*
Y95236D02*
D03*
Y105236D02*
D03*
Y115236D02*
D03*
Y125236D02*
D03*
Y135236D02*
D03*
Y145236D02*
D03*
Y155236D02*
D03*
Y165236D02*
D03*
Y175236D02*
D03*
Y185236D02*
D03*
X261968Y20472D02*
D03*
X251969D02*
D03*
X211536Y382087D02*
D03*
Y372087D02*
D03*
Y362087D02*
D03*
Y352087D02*
D03*
Y342087D02*
D03*
Y332087D02*
D03*
Y322087D02*
D03*
Y312087D02*
D03*
Y302087D02*
D03*
Y292087D02*
D03*
Y282087D02*
D03*
Y272087D02*
D03*
Y262087D02*
D03*
Y252087D02*
D03*
Y242087D02*
D03*
Y232087D02*
D03*
X221535Y242087D02*
D03*
Y252087D02*
D03*
Y262087D02*
D03*
Y272087D02*
D03*
Y282087D02*
D03*
Y292087D02*
D03*
Y302087D02*
D03*
Y312087D02*
D03*
Y322087D02*
D03*
Y332087D02*
D03*
Y342087D02*
D03*
Y352087D02*
D03*
Y362087D02*
D03*
Y372087D02*
D03*
Y382087D02*
D03*
X261968Y217323D02*
D03*
X251969D02*
D03*
D62*
X221535Y35236D02*
D03*
Y232087D02*
D03*
D63*
X241968Y20472D02*
D03*
Y217323D02*
D03*
D64*
X303228Y19528D02*
D03*
Y29528D02*
D03*
X313228Y19528D02*
D03*
Y29528D02*
D03*
X323228Y19528D02*
D03*
X303228Y216378D02*
D03*
Y226378D02*
D03*
X313228Y216378D02*
D03*
Y226378D02*
D03*
X323228Y216378D02*
D03*
D65*
Y29528D02*
D03*
Y226378D02*
D03*
D66*
X350394Y43307D02*
D03*
Y177165D02*
D03*
Y240158D02*
D03*
Y374016D02*
D03*
D67*
X331398Y88189D02*
D03*
Y132480D02*
D03*
X257283Y33563D02*
D03*
X231890Y108563D02*
D03*
X227362Y101378D02*
D03*
X228150Y96358D02*
D03*
X233465Y146358D02*
D03*
X265945Y165748D02*
D03*
X222244Y20965D02*
D03*
X236221Y114665D02*
D03*
X239665Y175099D02*
D03*
X270866Y124508D02*
D03*
X267717Y124508D02*
D03*
X264567D02*
D03*
X292913D02*
D03*
X296063D02*
D03*
X295276Y98425D02*
D03*
X289764Y124508D02*
D03*
X286614D02*
D03*
X253445Y113386D02*
D03*
Y116535D02*
D03*
X236516Y131595D02*
D03*
X307087Y133858D02*
D03*
X263780Y82677D02*
D03*
X301969Y183465D02*
D03*
X288189Y150000D02*
D03*
X255906Y82677D02*
D03*
X316929Y130315D02*
D03*
X285039Y62599D02*
D03*
X269685Y62992D02*
D03*
X310039Y43307D02*
D03*
X283465Y82677D02*
D03*
X307185Y147047D02*
D03*
X284941Y141732D02*
D03*
X266142Y138287D02*
D03*
X331398Y285039D02*
D03*
Y329331D02*
D03*
X257283Y230414D02*
D03*
X231890Y305414D02*
D03*
X227362Y298228D02*
D03*
X228150Y293209D02*
D03*
X233465Y343209D02*
D03*
X265945Y362598D02*
D03*
X222244Y217815D02*
D03*
X236221Y311516D02*
D03*
X239665Y371949D02*
D03*
X270866Y321358D02*
D03*
X267717Y321358D02*
D03*
X264567D02*
D03*
X292913D02*
D03*
X296063D02*
D03*
X295276Y295276D02*
D03*
X289764Y321358D02*
D03*
X286614D02*
D03*
X253445Y310236D02*
D03*
Y313386D02*
D03*
X236516Y328445D02*
D03*
X307087Y330709D02*
D03*
X263780Y279528D02*
D03*
X301969Y380315D02*
D03*
X288189Y346850D02*
D03*
X255906Y279528D02*
D03*
X316929Y327165D02*
D03*
X285039Y259449D02*
D03*
X269685Y259843D02*
D03*
X310039Y240158D02*
D03*
X283465Y279528D02*
D03*
X307185Y343898D02*
D03*
X284941Y338583D02*
D03*
X266142Y335138D02*
D03*
M02*
