M48
;Layer_Color=9474304
;FILE_FORMAT=2:5
INCH,LZ
;TYPE=PLATED
T1F00S00C0.01181
T2F00S00C0.02799
T3F00S00C0.03150
T4F00S00C0.03543
;TYPE=NON_PLATED
T5F00S00C0.12598
%
T01
X0222244Y0020965
X0257283Y0033563
X0269685Y0062992
X0285039Y0062599
X0310039Y0043307
X0283465Y0082677
X026378
X0255906
X0253445Y0113386
Y0116535
X0264567Y0124508
X0267717
X0270866Y0124508
X0286614Y0124508
X0289764
X0292913
X0296063
X0307087Y0133858
X0307185Y0147047
X0288189Y015
X0284941Y0141732
X0266142Y0138287
X0265945Y0165748
X0239665Y0175099
X0233465Y0146358
X0236516Y0131595
X0236221Y0114665
X023189Y0108563
X0227362Y0101378
X022815Y0096358
X0295276Y0098425
X0331398Y0088189
Y013248
X0316929Y0130315
X0301969Y0183465
X0257283Y0230414
X0222244Y0217815
X022815Y0293209
X0227362Y0298228
X023189Y0305414
X0236221Y0311516
X0236516Y0328445
X0233465Y0343209
X0239665Y0371949
X0265945Y0362598
X0266142Y0335138
X0267717Y0321358
X0264567
X0270866Y0321358
X0286614Y0321358
X0289764
X0292913
X0296063
X0307087Y0330709
X0307185Y0343898
X0288189Y034685
X0284941Y0338583
X0316929Y0327165
X0331398Y0329331
Y0285039
X0295276Y0295276
X0283465Y0279528
X026378
X0255906
X0253445Y0310236
Y0313386
X0269685Y0259843
X0285039Y0259449
X0310039Y0240158
X0301969Y0380315
T02
X0044094Y0040157
X0087795
X0086221Y0069291
X0126378Y0063386
X0158661Y0059449
X0179232Y0016043
X0160236Y0078347
X0162599Y0096457
X0162205Y0104331
X0162992Y0116142
X0125984Y0124016
X0125591Y0144882
X0120079Y0167717
X0103347Y0167323
X0086614Y0167717
X0069882
X005315
Y0148819
X0047244Y0124016
Y0096457
X0086614
Y0124016
Y0146457
X0125984Y0096457
X0179232Y0212894
X002126Y0137008
X0022047Y010748
X0020866Y008189
Y027874
X0022047Y0304331
X002126Y0333858
X0047244Y0320866
Y0293307
X0086614
Y0320866
Y0343307
Y0364567
X0069882
X005315
Y0345669
X0103347Y0364173
X0120079Y0364567
X0125591Y0341732
X0125984Y0320866
Y0293307
X0126378Y0260236
X0158661Y0256299
X0160236Y0275197
X0162599Y0293307
X0162205Y0301181
X0162992Y0312992
X0086221Y0266142
X0087795Y0237008
X0044094
T03
X0011614Y0014685
Y0024685
X0021614
X0031614
Y0014685
X0021614
X0041614
Y0024685
X0051614
X0061614
X0071614
X0081614
X0091614
X0101614
X0111614
X0121614
X0131614
X0141614
X0151614
X0161614
Y0014685
X0151614
X0141614
X0131614
X0121614
X0111614
X0101614
X0091614
X0081614
X0071614
X0061614
X0051614
X0172165Y0035236
Y0045236
Y0055236
Y0065236
X0182165
Y0055236
Y0045236
Y0035236
X0211536Y0035236
Y0045236
Y0055236
Y0065236
X0221535
Y0055236
Y0045236
Y0035236
X0241968Y0020472
X0251969
X0261968
X0221535Y0075236
X0211536
Y0085236
Y0095236
Y0105236
Y0115236
Y0125236
Y0135236
Y0145236
Y0155236
Y0165236
Y0175236
Y0185236
X0221535
Y0175236
Y0165236
Y0155236
Y0145236
Y0135236
Y0125236
Y0115236
Y0105236
Y0095236
Y0085236
X0241968Y0217323
X0251969
X0261968
X0161614Y0221535
X0151614
X0141614
X0131614
X0121614
X0111614
X0101614
X0091614
X0081614
X0071614
X0061614
X0051614
X0041614
Y0211536
X0051614
X0061614
X0071614
X0081614
X0091614
X0101614
X0111614
X0121614
X0131614
X0141614
X0151614
X0161614
X0172165Y0185236
Y0175236
Y0165236
Y0155236
Y0145236
Y0135236
Y0125236
Y0115236
Y0105236
Y0095236
Y0085236
Y0075236
X0182165
Y0085236
Y0095236
Y0105236
Y0115236
Y0125236
Y0135236
Y0145236
Y0155236
Y0165236
Y0175236
Y0185236
X0031614Y0211536
Y0221535
X0021614
X0011614
Y0211536
X0021614
X0172165Y0232087
Y0242087
Y0252087
Y0262087
Y0272087
Y0282087
Y0292087
Y0302087
Y0312087
Y0322087
Y0332087
Y0342087
Y0352087
Y0362087
Y0372087
Y0382087
X0182165
Y0372087
Y0362087
Y0352087
Y0342087
Y0332087
Y0322087
Y0312087
Y0302087
Y0292087
Y0282087
Y0272087
Y0262087
Y0252087
Y0242087
Y0232087
X0211536Y0232087
Y0242087
Y0252087
Y0262087
Y0272087
Y0282087
Y0292087
Y0302087
Y0312087
Y0322087
Y0332087
Y0342087
Y0352087
Y0362087
Y0372087
Y0382087
X0221535
Y0372087
Y0362087
Y0352087
Y0342087
Y0332087
Y0322087
Y0312087
Y0302087
Y0292087
Y0282087
Y0272087
Y0262087
Y0252087
Y0242087
Y0232087
T04
X0303228Y0019528
Y0029528
X0313228
Y0019528
X0323228
Y0029528
Y0216378
X0313228
X0303228
Y0226378
X0313228
X0323228
T05
X0019685Y0043307
X0350394Y0043307
Y0177165
X0153543Y0177165
X0019685
Y0240158
Y0374016
X0153543
X0350394Y0374016
Y0240158
M30
