G04 Layer_Color=65535*
%FSLAX25Y25*%
%MOIN*%
G70*
G01*
G75*
%ADD24C,0.00787*%
%ADD25C,0.01575*%
%ADD26C,0.02362*%
%ADD35C,0.00984*%
%ADD36C,0.01000*%
D24*
X341634Y112205D02*
G03*
X320374Y112205I-10630J0D01*
G01*
X350197Y155118D02*
X350591D01*
X350197Y151969D02*
X350591D01*
X350197Y147244D02*
X350591D01*
X350197Y144095D02*
X350591D01*
X350197Y139370D02*
X350591D01*
X350197Y136221D02*
X350591D01*
X350197Y131496D02*
X350591D01*
X350197Y128347D02*
X350591D01*
X350197Y123622D02*
X350591D01*
X350197Y120473D02*
X350591D01*
X350197Y115748D02*
X350591D01*
X350197Y112599D02*
X350591D01*
X350197Y107874D02*
X350591D01*
X350197Y104725D02*
X350591D01*
X350197Y100000D02*
X350591D01*
X350197Y96851D02*
X350591D01*
X250591Y127362D02*
X300591D01*
X250591Y77362D02*
X300591D01*
X250591D02*
Y127362D01*
X300591Y77362D02*
Y127362D01*
X236063Y26378D02*
X267992D01*
X236063Y16988D02*
Y26378D01*
Y16988D02*
X238484Y14567D01*
X267992D01*
Y26378D01*
X286221Y178543D02*
X296457D01*
X286221Y152165D02*
X296457D01*
X286221D02*
Y178543D01*
X296457Y152165D02*
Y178543D01*
X242126Y161811D02*
X261811D01*
X242126Y168898D02*
X261811D01*
X242126Y161811D02*
Y168898D01*
X261811Y161811D02*
Y168898D01*
X279921Y33268D02*
Y33661D01*
X276772Y33268D02*
Y33661D01*
X332480Y85039D02*
X332874D01*
X332480Y81890D02*
X332874D01*
X332480Y77165D02*
X332874D01*
X332480Y74016D02*
X332874D01*
X332480Y69291D02*
X332874D01*
X332480Y66142D02*
X332874D01*
X348228Y81890D02*
X348622D01*
X348228Y85039D02*
X348622D01*
X354925Y81465D02*
Y85465D01*
X348228Y74016D02*
X348622D01*
X348228Y77165D02*
X348622D01*
X354925Y73591D02*
Y77591D01*
X348228Y66142D02*
X348622D01*
X348228Y69291D02*
X348622D01*
X354925Y65717D02*
Y69717D01*
X292717Y61417D02*
X293110D01*
X292717Y64567D02*
X293110D01*
X261221Y64567D02*
X261614D01*
X261221Y61417D02*
X261614D01*
X237795Y91142D02*
Y91536D01*
X234646Y91142D02*
Y91536D01*
X237795Y122638D02*
Y123032D01*
X234646Y122638D02*
Y123032D01*
X276969Y140158D02*
X277362D01*
X276969Y143307D02*
X277362D01*
X313386Y121358D02*
Y121752D01*
X316535Y121358D02*
Y121752D01*
X320669Y154331D02*
X325000D01*
X320669Y160630D02*
X325000D01*
X320669Y170079D02*
X325000D01*
X320669Y176378D02*
X325000D01*
X261811Y49016D02*
Y49409D01*
X264961Y49016D02*
Y49409D01*
X298819Y49016D02*
Y49409D01*
X301969Y49016D02*
Y49409D01*
X283858Y33268D02*
Y33661D01*
X287008Y33268D02*
Y33661D01*
X320374Y88189D02*
X341634D01*
Y112205D01*
X320374D02*
X341634D01*
X320374Y88189D02*
Y112205D01*
Y88189D02*
Y95965D01*
X341634D01*
X320374Y103937D02*
X341634D01*
X330709Y88189D02*
Y112205D01*
X320374Y103937D02*
Y109843D01*
X326772Y140256D02*
Y140650D01*
X323622Y140256D02*
Y140650D01*
X329724Y140256D02*
Y140650D01*
X332874Y140256D02*
Y140650D01*
X292618Y140158D02*
X293012D01*
X292618Y143307D02*
X293012D01*
X243209Y134448D02*
Y131168D01*
X243865Y130512D01*
X245177D01*
X245832Y131168D01*
Y134448D01*
X247144Y130512D02*
X248456D01*
X247800D01*
Y134448D01*
X247144Y133792D01*
X274902Y60826D02*
X277525Y56890D01*
Y60826D02*
X274902Y56890D01*
X278837D02*
X280149D01*
X279493D01*
Y60826D01*
X278837Y60170D01*
X288189Y184841D02*
Y181562D01*
X288845Y180906D01*
X290157D01*
X290813Y181562D01*
Y184841D01*
X292125Y184185D02*
X292781Y184841D01*
X294093D01*
X294749Y184185D01*
Y183529D01*
X294093Y182873D01*
X293437D01*
X294093D01*
X294749Y182218D01*
Y181562D01*
X294093Y180906D01*
X292781D01*
X292125Y181562D01*
X232677Y167322D02*
Y164042D01*
X233333Y163386D01*
X234645D01*
X235301Y164042D01*
Y167322D01*
X239237Y163386D02*
X236613D01*
X239237Y166010D01*
Y166666D01*
X238581Y167322D01*
X237269D01*
X236613Y166666D01*
X267421Y31693D02*
Y35629D01*
X269389D01*
X270045Y34973D01*
Y33661D01*
X269389Y33005D01*
X267421D01*
X268733D02*
X270045Y31693D01*
X273325D02*
Y35629D01*
X271357Y33661D01*
X273981D01*
X322244Y106004D02*
Y109940D01*
X324212D01*
X324868Y109284D01*
Y107972D01*
X324212Y107316D01*
X322244D01*
X323556D02*
X324868Y106004D01*
X326180Y109284D02*
X326836Y109940D01*
X328148D01*
X328804Y109284D01*
Y108628D01*
X328148Y107972D01*
X327492D01*
X328148D01*
X328804Y107316D01*
Y106660D01*
X328148Y106004D01*
X326836D01*
X326180Y106660D01*
X322244Y97933D02*
Y101869D01*
X324212D01*
X324868Y101213D01*
Y99901D01*
X324212Y99245D01*
X322244D01*
X323556D02*
X324868Y97933D01*
X328804D02*
X326180D01*
X328804Y100557D01*
Y101213D01*
X328148Y101869D01*
X326836D01*
X326180Y101213D01*
X322638Y90059D02*
Y93995D01*
X324606D01*
X325262Y93339D01*
Y92027D01*
X324606Y91371D01*
X322638D01*
X323950D02*
X325262Y90059D01*
X326574D02*
X327886D01*
X327229D01*
Y93995D01*
X326574Y93339D01*
X291502Y21160D02*
X290190D01*
X290846D01*
Y17880D01*
X290190Y17224D01*
X289534D01*
X288878Y17880D01*
X292814Y20504D02*
X293470Y21160D01*
X294782D01*
X295438Y20504D01*
Y19848D01*
X294782Y19192D01*
X294126D01*
X294782D01*
X295438Y18536D01*
Y17880D01*
X294782Y17224D01*
X293470D01*
X292814Y17880D01*
X215222Y25983D02*
X213910D01*
X214566D01*
Y22703D01*
X213910Y22047D01*
X213254D01*
X212598Y22703D01*
X219158Y22047D02*
X216534D01*
X219158Y24671D01*
Y25327D01*
X218502Y25983D01*
X217190D01*
X216534Y25327D01*
X231069Y22735D02*
X229757D01*
X230413D01*
Y19455D01*
X229757Y18799D01*
X229101D01*
X228445Y19455D01*
X232381Y18799D02*
X233693D01*
X233037D01*
Y22735D01*
X232381Y22079D01*
X332776Y109743D02*
Y105807D01*
X334743D01*
X335399Y106463D01*
Y109087D01*
X334743Y109743D01*
X332776D01*
X336711Y109087D02*
X337367Y109743D01*
X338679D01*
X339335Y109087D01*
Y108431D01*
X338679Y107775D01*
X338023D01*
X338679D01*
X339335Y107119D01*
Y106463D01*
X338679Y105807D01*
X337367D01*
X336711Y106463D01*
X332776Y101869D02*
Y97933D01*
X334743D01*
X335399Y98589D01*
Y101213D01*
X334743Y101869D01*
X332776D01*
X339335Y97933D02*
X336711D01*
X339335Y100557D01*
Y101213D01*
X338679Y101869D01*
X337367D01*
X336711Y101213D01*
X332973Y93995D02*
Y90059D01*
X334940D01*
X335596Y90715D01*
Y93339D01*
X334940Y93995D01*
X332973D01*
X336908Y90059D02*
X338220D01*
X337564D01*
Y93995D01*
X336908Y93339D01*
X303214Y64303D02*
X302558Y64959D01*
X301247D01*
X300591Y64303D01*
Y61680D01*
X301247Y61024D01*
X302558D01*
X303214Y61680D01*
X304526Y61024D02*
X305838D01*
X305182D01*
Y64959D01*
X304526Y64303D01*
X307806Y61024D02*
X309118D01*
X308462D01*
Y64959D01*
X307806Y64303D01*
X247112Y64107D02*
X246456Y64763D01*
X245144D01*
X244488Y64107D01*
Y61483D01*
X245144Y60827D01*
X246456D01*
X247112Y61483D01*
X248424Y60827D02*
X249736D01*
X249080D01*
Y64763D01*
X248424Y64107D01*
X251704D02*
X252360Y64763D01*
X253672D01*
X254328Y64107D01*
Y61483D01*
X253672Y60827D01*
X252360D01*
X251704Y61483D01*
Y64107D01*
X234907Y82020D02*
X234251Y82676D01*
X232939D01*
X232283Y82020D01*
Y79396D01*
X232939Y78740D01*
X234251D01*
X234907Y79396D01*
X236219D02*
X236875Y78740D01*
X238187D01*
X238843Y79396D01*
Y82020D01*
X238187Y82676D01*
X236875D01*
X236219Y82020D01*
Y81364D01*
X236875Y80708D01*
X238843D01*
X234907Y137138D02*
X234251Y137794D01*
X232939D01*
X232283Y137138D01*
Y134514D01*
X232939Y133858D01*
X234251D01*
X234907Y134514D01*
X236219Y137138D02*
X236875Y137794D01*
X238187D01*
X238843Y137138D01*
Y136482D01*
X238187Y135826D01*
X238843Y135170D01*
Y134514D01*
X238187Y133858D01*
X236875D01*
X236219Y134514D01*
Y135170D01*
X236875Y135826D01*
X236219Y136482D01*
Y137138D01*
X236875Y135826D02*
X238187D01*
X265911Y143339D02*
X265255Y143995D01*
X263943D01*
X263287Y143339D01*
Y140715D01*
X263943Y140059D01*
X265255D01*
X265911Y140715D01*
X267223Y143995D02*
X269847D01*
Y143339D01*
X267223Y140715D01*
Y140059D01*
X321915Y127591D02*
X321259Y128247D01*
X319947D01*
X319291Y127591D01*
Y124967D01*
X319947Y124311D01*
X321259D01*
X321915Y124967D01*
X325851Y128247D02*
X324539Y127591D01*
X323227Y126279D01*
Y124967D01*
X323883Y124311D01*
X325195D01*
X325851Y124967D01*
Y125623D01*
X325195Y126279D01*
X323227D01*
X322112Y166370D02*
X321456Y167026D01*
X320144D01*
X319488Y166370D01*
Y163747D01*
X320144Y163091D01*
X321456D01*
X322112Y163747D01*
X326048Y167026D02*
X323424D01*
Y165059D01*
X324736Y165714D01*
X325392D01*
X326048Y165059D01*
Y163747D01*
X325392Y163091D01*
X324080D01*
X323424Y163747D01*
X322309Y183300D02*
X321653Y183956D01*
X320341D01*
X319685Y183300D01*
Y180676D01*
X320341Y180020D01*
X321653D01*
X322309Y180676D01*
X325589Y180020D02*
Y183956D01*
X323621Y181988D01*
X326245D01*
X254986Y50622D02*
X254330Y51278D01*
X253018D01*
X252362Y50622D01*
Y47999D01*
X253018Y47343D01*
X254330D01*
X254986Y47999D01*
X256298Y50622D02*
X256954Y51278D01*
X258266D01*
X258922Y50622D01*
Y49966D01*
X258266Y49310D01*
X257610D01*
X258266D01*
X258922Y48654D01*
Y47999D01*
X258266Y47343D01*
X256954D01*
X256298Y47999D01*
X307742Y50524D02*
X307086Y51180D01*
X305774D01*
X305118Y50524D01*
Y47900D01*
X305774Y47244D01*
X307086D01*
X307742Y47900D01*
X311678Y47244D02*
X309054D01*
X311678Y49868D01*
Y50524D01*
X311022Y51180D01*
X309710D01*
X309054Y50524D01*
X292781Y35268D02*
X292125Y35924D01*
X290813D01*
X290158Y35268D01*
Y32644D01*
X290813Y31988D01*
X292125D01*
X292781Y32644D01*
X294093Y31988D02*
X295405D01*
X294749D01*
Y35924D01*
X294093Y35268D01*
X263057Y11744D02*
X262401Y12400D01*
X261089D01*
X260433Y11744D01*
Y9121D01*
X261089Y8465D01*
X262401D01*
X263057Y9121D01*
Y10432D01*
X261745D01*
X264369Y8465D02*
Y12400D01*
X266993Y8465D01*
Y12400D01*
X268305D02*
Y8465D01*
X270272D01*
X270928Y9121D01*
Y11744D01*
X270272Y12400D01*
X268305D01*
X248819D02*
X251443D01*
X250131D01*
Y8465D01*
X252755Y12400D02*
X255379Y8465D01*
Y12400D02*
X252755Y8465D01*
X236417D02*
Y12400D01*
X238385D01*
X239041Y11744D01*
Y10432D01*
X238385Y9777D01*
X236417D01*
X237729D02*
X239041Y8465D01*
X240353Y12400D02*
X242977Y8465D01*
Y12400D02*
X240353Y8465D01*
X341634Y309055D02*
G03*
X320374Y309055I-10630J0D01*
G01*
X350197Y351969D02*
X350591D01*
X350197Y348819D02*
X350591D01*
X350197Y344095D02*
X350591D01*
X350197Y340945D02*
X350591D01*
X350197Y336221D02*
X350591D01*
X350197Y333071D02*
X350591D01*
X350197Y328346D02*
X350591D01*
X350197Y325197D02*
X350591D01*
X350197Y320473D02*
X350591D01*
X350197Y317323D02*
X350591D01*
X350197Y312598D02*
X350591D01*
X350197Y309449D02*
X350591D01*
X350197Y304725D02*
X350591D01*
X350197Y301575D02*
X350591D01*
X350197Y296850D02*
X350591D01*
X350197Y293701D02*
X350591D01*
X250591Y324213D02*
X300591D01*
X250591Y274213D02*
X300591D01*
X250591D02*
Y324213D01*
X300591Y274213D02*
Y324213D01*
X236063Y223228D02*
X267992D01*
X236063Y213839D02*
Y223228D01*
Y213839D02*
X238484Y211417D01*
X267992D01*
Y223228D01*
X286221Y375394D02*
X296457D01*
X286221Y349016D02*
X296457D01*
X286221D02*
Y375394D01*
X296457Y349016D02*
Y375394D01*
X242126Y358662D02*
X261811D01*
X242126Y365748D02*
X261811D01*
X242126Y358662D02*
Y365748D01*
X261811Y358662D02*
Y365748D01*
X279921Y230118D02*
Y230512D01*
X276772Y230118D02*
Y230512D01*
X332480Y281890D02*
X332874D01*
X332480Y278740D02*
X332874D01*
X332480Y274016D02*
X332874D01*
X332480Y270866D02*
X332874D01*
X332480Y266142D02*
X332874D01*
X332480Y262992D02*
X332874D01*
X348228Y278740D02*
X348622D01*
X348228Y281890D02*
X348622D01*
X354925Y278315D02*
Y282315D01*
X348228Y270866D02*
X348622D01*
X348228Y274016D02*
X348622D01*
X354925Y270441D02*
Y274441D01*
X348228Y262992D02*
X348622D01*
X348228Y266142D02*
X348622D01*
X354925Y262567D02*
Y266567D01*
X292717Y258268D02*
X293110D01*
X292717Y261417D02*
X293110D01*
X261221Y261417D02*
X261614D01*
X261221Y258268D02*
X261614D01*
X237795Y287992D02*
Y288386D01*
X234646Y287992D02*
Y288386D01*
X237795Y319488D02*
Y319882D01*
X234646Y319488D02*
Y319882D01*
X276969Y337008D02*
X277362D01*
X276969Y340158D02*
X277362D01*
X313386Y318209D02*
Y318602D01*
X316535Y318209D02*
Y318602D01*
X320669Y351181D02*
X325000D01*
X320669Y357480D02*
X325000D01*
X320669Y366929D02*
X325000D01*
X320669Y373228D02*
X325000D01*
X261811Y245866D02*
Y246260D01*
X264961Y245866D02*
Y246260D01*
X298819Y245866D02*
Y246260D01*
X301969Y245866D02*
Y246260D01*
X283858Y230118D02*
Y230512D01*
X287008Y230118D02*
Y230512D01*
X320374Y285039D02*
X341634D01*
Y309055D01*
X320374D02*
X341634D01*
X320374Y285039D02*
Y309055D01*
Y285039D02*
Y292815D01*
X341634D01*
X320374Y300787D02*
X341634D01*
X330709Y285039D02*
Y309055D01*
X320374Y300787D02*
Y306693D01*
X326772Y337106D02*
Y337500D01*
X323622Y337106D02*
Y337500D01*
X329724Y337106D02*
Y337500D01*
X332874Y337106D02*
Y337500D01*
X292618Y337008D02*
X293012D01*
X292618Y340158D02*
X293012D01*
X243209Y331298D02*
Y328018D01*
X243865Y327362D01*
X245177D01*
X245832Y328018D01*
Y331298D01*
X247144Y327362D02*
X248456D01*
X247800D01*
Y331298D01*
X247144Y330642D01*
X274902Y257676D02*
X277525Y253740D01*
Y257676D02*
X274902Y253740D01*
X278837D02*
X280149D01*
X279493D01*
Y257676D01*
X278837Y257020D01*
X288189Y381692D02*
Y378412D01*
X288845Y377756D01*
X290157D01*
X290813Y378412D01*
Y381692D01*
X292125Y381036D02*
X292781Y381692D01*
X294093D01*
X294749Y381036D01*
Y380380D01*
X294093Y379724D01*
X293437D01*
X294093D01*
X294749Y379068D01*
Y378412D01*
X294093Y377756D01*
X292781D01*
X292125Y378412D01*
X232677Y364172D02*
Y360892D01*
X233333Y360236D01*
X234645D01*
X235301Y360892D01*
Y364172D01*
X239237Y360236D02*
X236613D01*
X239237Y362860D01*
Y363516D01*
X238581Y364172D01*
X237269D01*
X236613Y363516D01*
X267421Y228543D02*
Y232479D01*
X269389D01*
X270045Y231823D01*
Y230511D01*
X269389Y229855D01*
X267421D01*
X268733D02*
X270045Y228543D01*
X273325D02*
Y232479D01*
X271357Y230511D01*
X273981D01*
X322244Y302854D02*
Y306790D01*
X324212D01*
X324868Y306134D01*
Y304822D01*
X324212Y304166D01*
X322244D01*
X323556D02*
X324868Y302854D01*
X326180Y306134D02*
X326836Y306790D01*
X328148D01*
X328804Y306134D01*
Y305478D01*
X328148Y304822D01*
X327492D01*
X328148D01*
X328804Y304166D01*
Y303510D01*
X328148Y302854D01*
X326836D01*
X326180Y303510D01*
X322244Y294783D02*
Y298719D01*
X324212D01*
X324868Y298063D01*
Y296751D01*
X324212Y296095D01*
X322244D01*
X323556D02*
X324868Y294783D01*
X328804D02*
X326180D01*
X328804Y297407D01*
Y298063D01*
X328148Y298719D01*
X326836D01*
X326180Y298063D01*
X322638Y286910D02*
Y290845D01*
X324606D01*
X325262Y290189D01*
Y288877D01*
X324606Y288221D01*
X322638D01*
X323950D02*
X325262Y286910D01*
X326574D02*
X327886D01*
X327229D01*
Y290845D01*
X326574Y290189D01*
X291502Y218011D02*
X290190D01*
X290846D01*
Y214731D01*
X290190Y214075D01*
X289534D01*
X288878Y214731D01*
X292814Y217355D02*
X293470Y218011D01*
X294782D01*
X295438Y217355D01*
Y216699D01*
X294782Y216043D01*
X294126D01*
X294782D01*
X295438Y215387D01*
Y214731D01*
X294782Y214075D01*
X293470D01*
X292814Y214731D01*
X215222Y222833D02*
X213910D01*
X214566D01*
Y219554D01*
X213910Y218898D01*
X213254D01*
X212598Y219554D01*
X219158Y218898D02*
X216534D01*
X219158Y221521D01*
Y222178D01*
X218502Y222833D01*
X217190D01*
X216534Y222178D01*
X231069Y219585D02*
X229757D01*
X230413D01*
Y216306D01*
X229757Y215650D01*
X229101D01*
X228445Y216306D01*
X232381Y215650D02*
X233693D01*
X233037D01*
Y219585D01*
X232381Y218929D01*
X332776Y306593D02*
Y302658D01*
X334743D01*
X335399Y303313D01*
Y305937D01*
X334743Y306593D01*
X332776D01*
X336711Y305937D02*
X337367Y306593D01*
X338679D01*
X339335Y305937D01*
Y305281D01*
X338679Y304625D01*
X338023D01*
X338679D01*
X339335Y303970D01*
Y303313D01*
X338679Y302658D01*
X337367D01*
X336711Y303313D01*
X332776Y298719D02*
Y294783D01*
X334743D01*
X335399Y295440D01*
Y298063D01*
X334743Y298719D01*
X332776D01*
X339335Y294783D02*
X336711D01*
X339335Y297407D01*
Y298063D01*
X338679Y298719D01*
X337367D01*
X336711Y298063D01*
X332973Y290845D02*
Y286910D01*
X334940D01*
X335596Y287565D01*
Y290189D01*
X334940Y290845D01*
X332973D01*
X336908Y286910D02*
X338220D01*
X337564D01*
Y290845D01*
X336908Y290189D01*
X303214Y261154D02*
X302558Y261810D01*
X301247D01*
X300591Y261154D01*
Y258530D01*
X301247Y257874D01*
X302558D01*
X303214Y258530D01*
X304526Y257874D02*
X305838D01*
X305182D01*
Y261810D01*
X304526Y261154D01*
X307806Y257874D02*
X309118D01*
X308462D01*
Y261810D01*
X307806Y261154D01*
X247112Y260957D02*
X246456Y261613D01*
X245144D01*
X244488Y260957D01*
Y258333D01*
X245144Y257677D01*
X246456D01*
X247112Y258333D01*
X248424Y257677D02*
X249736D01*
X249080D01*
Y261613D01*
X248424Y260957D01*
X251704D02*
X252360Y261613D01*
X253672D01*
X254328Y260957D01*
Y258333D01*
X253672Y257677D01*
X252360D01*
X251704Y258333D01*
Y260957D01*
X234907Y278870D02*
X234251Y279526D01*
X232939D01*
X232283Y278870D01*
Y276247D01*
X232939Y275591D01*
X234251D01*
X234907Y276247D01*
X236219D02*
X236875Y275591D01*
X238187D01*
X238843Y276247D01*
Y278870D01*
X238187Y279526D01*
X236875D01*
X236219Y278870D01*
Y278214D01*
X236875Y277558D01*
X238843D01*
X234907Y333988D02*
X234251Y334645D01*
X232939D01*
X232283Y333988D01*
Y331365D01*
X232939Y330709D01*
X234251D01*
X234907Y331365D01*
X236219Y333988D02*
X236875Y334645D01*
X238187D01*
X238843Y333988D01*
Y333332D01*
X238187Y332677D01*
X238843Y332021D01*
Y331365D01*
X238187Y330709D01*
X236875D01*
X236219Y331365D01*
Y332021D01*
X236875Y332677D01*
X236219Y333332D01*
Y333988D01*
X236875Y332677D02*
X238187D01*
X265911Y340189D02*
X265255Y340845D01*
X263943D01*
X263287Y340189D01*
Y337565D01*
X263943Y336910D01*
X265255D01*
X265911Y337565D01*
X267223Y340845D02*
X269847D01*
Y340189D01*
X267223Y337565D01*
Y336910D01*
X321915Y324441D02*
X321259Y325097D01*
X319947D01*
X319291Y324441D01*
Y321817D01*
X319947Y321162D01*
X321259D01*
X321915Y321817D01*
X325851Y325097D02*
X324539Y324441D01*
X323227Y323129D01*
Y321817D01*
X323883Y321162D01*
X325195D01*
X325851Y321817D01*
Y322473D01*
X325195Y323129D01*
X323227D01*
X322112Y363221D02*
X321456Y363877D01*
X320144D01*
X319488Y363221D01*
Y360597D01*
X320144Y359941D01*
X321456D01*
X322112Y360597D01*
X326048Y363877D02*
X323424D01*
Y361909D01*
X324736Y362565D01*
X325392D01*
X326048Y361909D01*
Y360597D01*
X325392Y359941D01*
X324080D01*
X323424Y360597D01*
X322309Y380150D02*
X321653Y380806D01*
X320341D01*
X319685Y380150D01*
Y377526D01*
X320341Y376870D01*
X321653D01*
X322309Y377526D01*
X325589Y376870D02*
Y380806D01*
X323621Y378838D01*
X326245D01*
X254986Y247473D02*
X254330Y248129D01*
X253018D01*
X252362Y247473D01*
Y244849D01*
X253018Y244193D01*
X254330D01*
X254986Y244849D01*
X256298Y247473D02*
X256954Y248129D01*
X258266D01*
X258922Y247473D01*
Y246817D01*
X258266Y246161D01*
X257610D01*
X258266D01*
X258922Y245505D01*
Y244849D01*
X258266Y244193D01*
X256954D01*
X256298Y244849D01*
X307742Y247374D02*
X307086Y248030D01*
X305774D01*
X305118Y247374D01*
Y244750D01*
X305774Y244095D01*
X307086D01*
X307742Y244750D01*
X311678Y244095D02*
X309054D01*
X311678Y246718D01*
Y247374D01*
X311022Y248030D01*
X309710D01*
X309054Y247374D01*
X292781Y232118D02*
X292125Y232774D01*
X290813D01*
X290158Y232118D01*
Y229495D01*
X290813Y228839D01*
X292125D01*
X292781Y229495D01*
X294093Y228839D02*
X295405D01*
X294749D01*
Y232774D01*
X294093Y232118D01*
X263057Y208595D02*
X262401Y209251D01*
X261089D01*
X260433Y208595D01*
Y205971D01*
X261089Y205315D01*
X262401D01*
X263057Y205971D01*
Y207283D01*
X261745D01*
X264369Y205315D02*
Y209251D01*
X266993Y205315D01*
Y209251D01*
X268305D02*
Y205315D01*
X270272D01*
X270928Y205971D01*
Y208595D01*
X270272Y209251D01*
X268305D01*
X248819D02*
X251443D01*
X250131D01*
Y205315D01*
X252755Y209251D02*
X255379Y205315D01*
Y209251D02*
X252755Y205315D01*
X236417D02*
Y209251D01*
X238385D01*
X239041Y208595D01*
Y207283D01*
X238385Y206627D01*
X236417D01*
X237729D02*
X239041Y205315D01*
X240353Y209251D02*
X242977Y205315D01*
Y209251D02*
X240353Y205315D01*
X62992Y137599D02*
Y137992D01*
X59843Y137599D02*
Y137992D01*
X102362Y137599D02*
Y137992D01*
X99213Y137599D02*
Y137992D01*
X102362Y110039D02*
Y110433D01*
X99213Y110039D02*
Y110433D01*
X102362Y82480D02*
Y82874D01*
X99213Y82480D02*
Y82874D01*
X42037Y87992D02*
Y91732D01*
X52274D01*
X42037Y73622D02*
Y77362D01*
Y73622D02*
X52274D01*
X42037Y115551D02*
Y119291D01*
X52274D01*
X42037Y101181D02*
Y104921D01*
Y101181D02*
X52274D01*
X42037Y143110D02*
Y146851D01*
X52274D01*
X42037Y128740D02*
Y132480D01*
Y128740D02*
X52274D01*
X62992Y82480D02*
Y82874D01*
X59843Y82480D02*
Y82874D01*
X62992Y110039D02*
Y110433D01*
X59843Y110039D02*
Y110433D01*
X81407Y143110D02*
Y146851D01*
X91644D01*
X81407Y128740D02*
Y132480D01*
Y128740D02*
X91644D01*
X81407Y115551D02*
Y119291D01*
X91644D01*
X81407Y101181D02*
Y104921D01*
Y101181D02*
X91644D01*
X81407Y87992D02*
Y91732D01*
X91644D01*
X81407Y73622D02*
Y77362D01*
Y73622D02*
X91644D01*
X120778Y87992D02*
Y91732D01*
X131014D01*
X120778Y73622D02*
Y77362D01*
Y73622D02*
X131014D01*
X120778Y115551D02*
Y119291D01*
X131014D01*
X120778Y101181D02*
Y104921D01*
Y101181D02*
X131014D01*
X120778Y143110D02*
Y146851D01*
X131014D01*
X120778Y128740D02*
Y132480D01*
Y128740D02*
X131014D01*
X141732Y137599D02*
Y137992D01*
X138583Y137599D02*
Y137992D01*
X141732Y110039D02*
Y110433D01*
X138583Y110039D02*
Y110433D01*
X141732Y82480D02*
Y82874D01*
X138583Y82480D02*
Y82874D01*
X62992Y334449D02*
Y334843D01*
X59843Y334449D02*
Y334843D01*
X102362Y334449D02*
Y334843D01*
X99213Y334449D02*
Y334843D01*
X102362Y306890D02*
Y307283D01*
X99213Y306890D02*
Y307283D01*
X102362Y279331D02*
Y279725D01*
X99213Y279331D02*
Y279725D01*
X42037Y284843D02*
Y288583D01*
X52274D01*
X42037Y270473D02*
Y274213D01*
Y270473D02*
X52274D01*
X42037Y312402D02*
Y316142D01*
X52274D01*
X42037Y298031D02*
Y301772D01*
Y298031D02*
X52274D01*
X42037Y339961D02*
Y343701D01*
X52274D01*
X42037Y325591D02*
Y329331D01*
Y325591D02*
X52274D01*
X62992Y279331D02*
Y279725D01*
X59843Y279331D02*
Y279725D01*
X62992Y306890D02*
Y307283D01*
X59843Y306890D02*
Y307283D01*
X81407Y339961D02*
Y343701D01*
X91644D01*
X81407Y325591D02*
Y329331D01*
Y325591D02*
X91644D01*
X81407Y312402D02*
Y316142D01*
X91644D01*
X81407Y298031D02*
Y301772D01*
Y298031D02*
X91644D01*
X81407Y284843D02*
Y288583D01*
X91644D01*
X81407Y270473D02*
Y274213D01*
Y270473D02*
X91644D01*
X120778Y284843D02*
Y288583D01*
X131014D01*
X120778Y270473D02*
Y274213D01*
Y270473D02*
X131014D01*
X120778Y312402D02*
Y316142D01*
X131014D01*
X120778Y298031D02*
Y301772D01*
Y298031D02*
X131014D01*
X120778Y339961D02*
Y343701D01*
X131014D01*
X120778Y325591D02*
Y329331D01*
Y325591D02*
X131014D01*
X141732Y334449D02*
Y334843D01*
X138583Y334449D02*
Y334843D01*
X141732Y306890D02*
Y307283D01*
X138583Y306890D02*
Y307283D01*
X141732Y279331D02*
Y279725D01*
X138583Y279331D02*
Y279725D01*
D25*
X246063Y164961D02*
G03*
X246063Y164961I-787J0D01*
G01*
X351575Y93012D02*
G03*
X351575Y93012I-787J0D01*
G01*
X246063Y361811D02*
G03*
X246063Y361811I-787J0D01*
G01*
X351575Y289862D02*
G03*
X351575Y289862I-787J0D01*
G01*
D26*
X297835Y81299D02*
G03*
X297835Y81299I-1181J0D01*
G01*
Y278150D02*
G03*
X297835Y278150I-1181J0D01*
G01*
D35*
X306201Y75492D02*
G03*
X306201Y75492I-492J0D01*
G01*
X303248Y152264D02*
G03*
X303248Y152264I-492J0D01*
G01*
X241614Y155906D02*
G03*
X241614Y155906I-492J0D01*
G01*
X306201Y272343D02*
G03*
X306201Y272343I-492J0D01*
G01*
X303248Y349114D02*
G03*
X303248Y349114I-492J0D01*
G01*
X241614Y352756D02*
G03*
X241614Y352756I-492J0D01*
G01*
X55325Y73425D02*
G03*
X55325Y73425I-492J0D01*
G01*
Y100984D02*
G03*
X55325Y100984I-492J0D01*
G01*
Y128543D02*
G03*
X55325Y128543I-492J0D01*
G01*
X94695D02*
G03*
X94695Y128543I-492J0D01*
G01*
Y100984D02*
G03*
X94695Y100984I-492J0D01*
G01*
Y73425D02*
G03*
X94695Y73425I-492J0D01*
G01*
X134065D02*
G03*
X134065Y73425I-492J0D01*
G01*
Y100984D02*
G03*
X134065Y100984I-492J0D01*
G01*
Y128543D02*
G03*
X134065Y128543I-492J0D01*
G01*
X55325Y270276D02*
G03*
X55325Y270276I-492J0D01*
G01*
Y297835D02*
G03*
X55325Y297835I-492J0D01*
G01*
Y325394D02*
G03*
X55325Y325394I-492J0D01*
G01*
X94695D02*
G03*
X94695Y325394I-492J0D01*
G01*
Y297835D02*
G03*
X94695Y297835I-492J0D01*
G01*
Y270276D02*
G03*
X94695Y270276I-492J0D01*
G01*
X134065D02*
G03*
X134065Y270276I-492J0D01*
G01*
Y297835D02*
G03*
X134065Y297835I-492J0D01*
G01*
Y325394D02*
G03*
X134065Y325394I-492J0D01*
G01*
D36*
X329134Y13780D02*
Y35433D01*
X327953D02*
X329134D01*
X297638D02*
X327953D01*
X297638Y13780D02*
Y35433D01*
Y13780D02*
X329134D01*
X339173Y135532D02*
X335238D01*
Y137499D01*
X335894Y138155D01*
X337205D01*
X337861Y137499D01*
Y135532D01*
Y136844D02*
X339173Y138155D01*
Y139467D02*
Y140779D01*
Y140123D01*
X335238D01*
X335894Y139467D01*
X339173Y144715D02*
X335238D01*
X337205Y142747D01*
Y145371D01*
X321063Y135630D02*
X317127D01*
Y137598D01*
X317783Y138254D01*
X319095D01*
X319751Y137598D01*
Y135630D01*
Y136942D02*
X321063Y138254D01*
Y139566D02*
Y140878D01*
Y140222D01*
X317127D01*
X317783Y139566D01*
Y142845D02*
X317127Y143501D01*
Y144813D01*
X317783Y145469D01*
X318439D01*
X319095Y144813D01*
Y144157D01*
Y144813D01*
X319751Y145469D01*
X320407D01*
X321063Y144813D01*
Y143501D01*
X320407Y142845D01*
X300591Y139862D02*
Y143798D01*
X302558D01*
X303214Y143142D01*
Y141830D01*
X302558Y141174D01*
X300591D01*
X301903D02*
X303214Y139862D01*
X304526D02*
X305838D01*
X305182D01*
Y143798D01*
X304526Y143142D01*
X310430Y143798D02*
X307806D01*
Y141830D01*
X309118Y142486D01*
X309774D01*
X310430Y141830D01*
Y140518D01*
X309774Y139862D01*
X308462D01*
X307806Y140518D01*
X236122Y34349D02*
Y29429D01*
X237106Y28445D01*
X239074D01*
X240058Y29429D01*
Y34349D01*
X242026Y28445D02*
Y32381D01*
X243994Y34349D01*
X245961Y32381D01*
Y28445D01*
Y31397D01*
X242026D01*
X247929Y28445D02*
Y34349D01*
X250881D01*
X251865Y33365D01*
Y31397D01*
X250881Y30413D01*
X247929D01*
X249897D02*
X251865Y28445D01*
X253833Y34349D02*
X257769D01*
X255801D01*
Y28445D01*
X315354Y37894D02*
Y43797D01*
X318306D01*
X319290Y42813D01*
Y40846D01*
X318306Y39862D01*
X315354D01*
X321258Y43797D02*
Y37894D01*
X324210D01*
X325194Y38878D01*
Y42813D01*
X324210Y43797D01*
X321258D01*
X327162D02*
X329129D01*
X328146D01*
Y37894D01*
X327162D01*
X329129D01*
X329134Y210630D02*
Y232283D01*
X327953D02*
X329134D01*
X297638D02*
X327953D01*
X297638Y210630D02*
Y232283D01*
Y210630D02*
X329134D01*
X339173Y332382D02*
X335238D01*
Y334350D01*
X335894Y335006D01*
X337205D01*
X337861Y334350D01*
Y332382D01*
Y333694D02*
X339173Y335006D01*
Y336318D02*
Y337630D01*
Y336974D01*
X335238D01*
X335894Y336318D01*
X339173Y341565D02*
X335238D01*
X337205Y339598D01*
Y342221D01*
X321063Y332480D02*
X317127D01*
Y334448D01*
X317783Y335104D01*
X319095D01*
X319751Y334448D01*
Y332480D01*
Y333792D02*
X321063Y335104D01*
Y336416D02*
Y337728D01*
Y337072D01*
X317127D01*
X317783Y336416D01*
Y339696D02*
X317127Y340352D01*
Y341664D01*
X317783Y342320D01*
X318439D01*
X319095Y341664D01*
Y341008D01*
Y341664D01*
X319751Y342320D01*
X320407D01*
X321063Y341664D01*
Y340352D01*
X320407Y339696D01*
X300591Y336713D02*
Y340648D01*
X302558D01*
X303214Y339992D01*
Y338681D01*
X302558Y338025D01*
X300591D01*
X301903D02*
X303214Y336713D01*
X304526D02*
X305838D01*
X305182D01*
Y340648D01*
X304526Y339992D01*
X310430Y340648D02*
X307806D01*
Y338681D01*
X309118Y339336D01*
X309774D01*
X310430Y338681D01*
Y337369D01*
X309774Y336713D01*
X308462D01*
X307806Y337369D01*
X236122Y231199D02*
Y226279D01*
X237106Y225295D01*
X239074D01*
X240058Y226279D01*
Y231199D01*
X242026Y225295D02*
Y229231D01*
X243994Y231199D01*
X245961Y229231D01*
Y225295D01*
Y228247D01*
X242026D01*
X247929Y225295D02*
Y231199D01*
X250881D01*
X251865Y230215D01*
Y228247D01*
X250881Y227263D01*
X247929D01*
X249897D02*
X251865Y225295D01*
X253833Y231199D02*
X257769D01*
X255801D01*
Y225295D01*
X315354Y234744D02*
Y240648D01*
X318306D01*
X319290Y239664D01*
Y237696D01*
X318306Y236712D01*
X315354D01*
X321258Y240648D02*
Y234744D01*
X324210D01*
X325194Y235728D01*
Y239664D01*
X324210Y240648D01*
X321258D01*
X327162D02*
X329129D01*
X328146D01*
Y234744D01*
X327162D01*
X329129D01*
X152264Y130315D02*
X146266D01*
Y133314D01*
X147265Y134314D01*
X149265D01*
X150264Y133314D01*
Y130315D01*
Y132314D02*
X152264Y134314D01*
Y136313D02*
Y138312D01*
Y137313D01*
X146266D01*
X147265Y136313D01*
X152264Y145310D02*
Y141311D01*
X148265Y145310D01*
X147265D01*
X146266Y144310D01*
Y142311D01*
X147265Y141311D01*
X152264Y102461D02*
X146266D01*
Y105460D01*
X147265Y106459D01*
X149265D01*
X150264Y105460D01*
Y102461D01*
Y104460D02*
X152264Y106459D01*
Y108459D02*
Y110458D01*
Y109458D01*
X146266D01*
X147265Y108459D01*
X152264Y113457D02*
Y115456D01*
Y114457D01*
X146266D01*
X147265Y113457D01*
X152264Y75197D02*
X146266D01*
Y78196D01*
X147265Y79195D01*
X149265D01*
X150264Y78196D01*
Y75197D01*
Y77196D02*
X152264Y79195D01*
Y81195D02*
Y83194D01*
Y82195D01*
X146266D01*
X147265Y81195D01*
Y86193D02*
X146266Y87193D01*
Y89192D01*
X147265Y90192D01*
X151264D01*
X152264Y89192D01*
Y87193D01*
X151264Y86193D01*
X147265D01*
X33449Y132739D02*
X29450D01*
X28451Y131739D01*
Y129740D01*
X29450Y128740D01*
X33449D01*
X34449Y129740D01*
Y131739D01*
X32449Y130739D02*
X34449Y132739D01*
Y131739D02*
X33449Y132739D01*
X28451Y138737D02*
X29450Y136738D01*
X31450Y134738D01*
X33449D01*
X34449Y135738D01*
Y137737D01*
X33449Y138737D01*
X32449D01*
X31450Y137737D01*
Y134738D01*
Y140736D02*
Y144735D01*
X29450Y146734D02*
X28451Y147734D01*
Y149733D01*
X29450Y150733D01*
X30450D01*
X31450Y149733D01*
Y148734D01*
Y149733D01*
X32449Y150733D01*
X33449D01*
X34449Y149733D01*
Y147734D01*
X33449Y146734D01*
X33449Y104885D02*
X29450D01*
X28451Y103885D01*
Y101885D01*
X29450Y100886D01*
X33449D01*
X34449Y101885D01*
Y103885D01*
X32449Y102885D02*
X34449Y104885D01*
Y103885D02*
X33449Y104885D01*
X28451Y110882D02*
X29450Y108883D01*
X31450Y106884D01*
X33449D01*
X34449Y107884D01*
Y109883D01*
X33449Y110882D01*
X32449D01*
X31450Y109883D01*
Y106884D01*
Y112882D02*
Y116881D01*
X34449Y122879D02*
Y118880D01*
X30450Y122879D01*
X29450D01*
X28451Y121879D01*
Y119880D01*
X29450Y118880D01*
X33449Y77621D02*
X29450D01*
X28451Y76621D01*
Y74622D01*
X29450Y73622D01*
X33449D01*
X34449Y74622D01*
Y76621D01*
X32449Y75621D02*
X34449Y77621D01*
Y76621D02*
X33449Y77621D01*
X28451Y83619D02*
X29450Y81619D01*
X31450Y79620D01*
X33449D01*
X34449Y80620D01*
Y82619D01*
X33449Y83619D01*
X32449D01*
X31450Y82619D01*
Y79620D01*
Y85618D02*
Y89617D01*
X34449Y91616D02*
Y93616D01*
Y92616D01*
X28451D01*
X29450Y91616D01*
X72426Y132739D02*
X68427D01*
X67427Y131739D01*
Y129740D01*
X68427Y128740D01*
X72426D01*
X73425Y129740D01*
Y131739D01*
X71426Y130739D02*
X73425Y132739D01*
Y131739D02*
X72426Y132739D01*
X67427Y138737D02*
Y134738D01*
X70426D01*
X69426Y136738D01*
Y137737D01*
X70426Y138737D01*
X72426D01*
X73425Y137737D01*
Y135738D01*
X72426Y134738D01*
X70426Y140736D02*
Y144735D01*
X68427Y146734D02*
X67427Y147734D01*
Y149733D01*
X68427Y150733D01*
X69426D01*
X70426Y149733D01*
Y148734D01*
Y149733D01*
X71426Y150733D01*
X72426D01*
X73425Y149733D01*
Y147734D01*
X72426Y146734D01*
X72426Y104885D02*
X68427D01*
X67427Y103885D01*
Y101885D01*
X68427Y100886D01*
X72426D01*
X73425Y101885D01*
Y103885D01*
X71426Y102885D02*
X73425Y104885D01*
Y103885D02*
X72426Y104885D01*
X67427Y110882D02*
Y106884D01*
X70426D01*
X69426Y108883D01*
Y109883D01*
X70426Y110882D01*
X72426D01*
X73425Y109883D01*
Y107884D01*
X72426Y106884D01*
X70426Y112882D02*
Y116881D01*
X73425Y122879D02*
Y118880D01*
X69426Y122879D01*
X68427D01*
X67427Y121879D01*
Y119880D01*
X68427Y118880D01*
X72426Y77621D02*
X68427D01*
X67427Y76621D01*
Y74622D01*
X68427Y73622D01*
X72426D01*
X73425Y74622D01*
Y76621D01*
X71426Y75621D02*
X73425Y77621D01*
Y76621D02*
X72426Y77621D01*
X67427Y83619D02*
Y79620D01*
X70426D01*
X69426Y81619D01*
Y82619D01*
X70426Y83619D01*
X72426D01*
X73425Y82619D01*
Y80620D01*
X72426Y79620D01*
X70426Y85618D02*
Y89617D01*
X73425Y91616D02*
Y93616D01*
Y92616D01*
X67427D01*
X68427Y91616D01*
X111402Y132739D02*
X107403D01*
X106404Y131739D01*
Y129740D01*
X107403Y128740D01*
X111402D01*
X112401Y129740D01*
Y131739D01*
X110402Y130739D02*
X112401Y132739D01*
Y131739D02*
X111402Y132739D01*
X112401Y137737D02*
X106404D01*
X109403Y134738D01*
Y138737D01*
Y140736D02*
Y144735D01*
X107403Y146734D02*
X106404Y147734D01*
Y149733D01*
X107403Y150733D01*
X108403D01*
X109403Y149733D01*
Y148734D01*
Y149733D01*
X110402Y150733D01*
X111402D01*
X112401Y149733D01*
Y147734D01*
X111402Y146734D01*
Y104885D02*
X107403D01*
X106404Y103885D01*
Y101885D01*
X107403Y100886D01*
X111402D01*
X112401Y101885D01*
Y103885D01*
X110402Y102885D02*
X112401Y104885D01*
Y103885D02*
X111402Y104885D01*
X112401Y109883D02*
X106404D01*
X109403Y106884D01*
Y110883D01*
Y112882D02*
Y116881D01*
X112401Y122879D02*
Y118880D01*
X108403Y122879D01*
X107403D01*
X106404Y121879D01*
Y119880D01*
X107403Y118880D01*
X111402Y77621D02*
X107403D01*
X106404Y76621D01*
Y74622D01*
X107403Y73622D01*
X111402D01*
X112401Y74622D01*
Y76621D01*
X110402Y75621D02*
X112401Y77621D01*
Y76621D02*
X111402Y77621D01*
X112401Y82619D02*
X106404D01*
X109403Y79620D01*
Y83619D01*
Y85618D02*
Y89617D01*
X112401Y91616D02*
Y93616D01*
Y92616D01*
X106404D01*
X107403Y91616D01*
X101440Y38675D02*
X99440D01*
X100440D01*
Y33677D01*
X99440Y32677D01*
X98441D01*
X97441Y33677D01*
X107438Y32677D02*
X103439D01*
X107438Y36676D01*
Y37675D01*
X106438Y38675D01*
X104439D01*
X103439Y37675D01*
X158723Y51766D02*
X156724D01*
X157723D01*
Y46767D01*
X156724Y45768D01*
X155724D01*
X154724Y46767D01*
X160722Y45768D02*
X162722D01*
X161722D01*
Y51766D01*
X160722Y50766D01*
X43307Y179226D02*
Y173228D01*
X47306D01*
X49305Y179226D02*
Y178227D01*
X51305Y176227D01*
X53304Y178227D01*
Y179226D01*
X51305Y176227D02*
Y173228D01*
X59302Y178227D02*
X58302Y179226D01*
X56303D01*
X55303Y178227D01*
Y177227D01*
X56303Y176227D01*
X58302D01*
X59302Y175228D01*
Y174228D01*
X58302Y173228D01*
X56303D01*
X55303Y174228D01*
X61301Y173228D02*
Y179226D01*
X64300D01*
X65300Y178227D01*
Y176227D01*
X64300Y175228D01*
X61301D01*
X63301D02*
X65300Y173228D01*
X71298Y179226D02*
X67299D01*
Y173228D01*
X71298D01*
X67299Y176227D02*
X69299D01*
X73297Y179226D02*
Y173228D01*
Y175228D01*
X77296Y179226D01*
X74297Y176227D01*
X77296Y173228D01*
X79295Y179226D02*
Y173228D01*
X83294D01*
X85294D02*
Y177227D01*
X87293Y179226D01*
X89292Y177227D01*
Y173228D01*
Y176227D01*
X85294D01*
X91292Y173228D02*
Y179226D01*
X93291Y177227D01*
X95290Y179226D01*
Y173228D01*
X101288Y179226D02*
X97290D01*
Y173228D01*
X101288D01*
X97290Y176227D02*
X99289D01*
X103288Y173228D02*
Y179226D01*
X107286Y173228D01*
Y179226D01*
X43307Y188085D02*
Y182087D01*
X46306D01*
X47306Y183086D01*
Y187085D01*
X46306Y188085D01*
X43307D01*
X49305Y182087D02*
Y188085D01*
X52304D01*
X53304Y187085D01*
Y185086D01*
X52304Y184086D01*
X49305D01*
X51304D02*
X53304Y182087D01*
X55303Y188085D02*
X57302D01*
X56303D01*
Y182087D01*
X55303D01*
X57302D01*
X60302Y188085D02*
Y184086D01*
X62301Y182087D01*
X64300Y184086D01*
Y188085D01*
X70298D02*
X66300D01*
Y182087D01*
X70298D01*
X66300Y185086D02*
X68299D01*
X72298Y182087D02*
Y188085D01*
X75297D01*
X76296Y187085D01*
Y185086D01*
X75297Y184086D01*
X72298D01*
X74297D02*
X76296Y182087D01*
X78296Y188085D02*
Y182087D01*
Y184086D01*
X82294Y188085D01*
X79295Y185086D01*
X82294Y182087D01*
X87293Y188085D02*
X85294D01*
X84294Y187085D01*
Y183086D01*
X85294Y182087D01*
X87293D01*
X88292Y183086D01*
Y187085D01*
X87293Y188085D01*
X90292Y182087D02*
Y188085D01*
X93291D01*
X94291Y187085D01*
Y185086D01*
X93291Y184086D01*
X90292D01*
X92291D02*
X94291Y182087D01*
X96290Y188085D02*
X100289D01*
X98289D01*
Y182087D01*
X152264Y327165D02*
X146266D01*
Y330164D01*
X147265Y331164D01*
X149265D01*
X150264Y330164D01*
Y327165D01*
Y329165D02*
X152264Y331164D01*
Y333163D02*
Y335163D01*
Y334163D01*
X146266D01*
X147265Y333163D01*
X152264Y342160D02*
Y338162D01*
X148265Y342160D01*
X147265D01*
X146266Y341161D01*
Y339161D01*
X147265Y338162D01*
X152264Y299311D02*
X146266D01*
Y302310D01*
X147265Y303310D01*
X149265D01*
X150264Y302310D01*
Y299311D01*
Y301310D02*
X152264Y303310D01*
Y305309D02*
Y307308D01*
Y306309D01*
X146266D01*
X147265Y305309D01*
X152264Y310307D02*
Y312307D01*
Y311307D01*
X146266D01*
X147265Y310307D01*
X152264Y272047D02*
X146266D01*
Y275046D01*
X147265Y276046D01*
X149265D01*
X150264Y275046D01*
Y272047D01*
Y274046D02*
X152264Y276046D01*
Y278045D02*
Y280045D01*
Y279045D01*
X146266D01*
X147265Y278045D01*
Y283044D02*
X146266Y284043D01*
Y286043D01*
X147265Y287042D01*
X151264D01*
X152264Y286043D01*
Y284043D01*
X151264Y283044D01*
X147265D01*
X33449Y329589D02*
X29450D01*
X28451Y328590D01*
Y326590D01*
X29450Y325590D01*
X33449D01*
X34449Y326590D01*
Y328590D01*
X32449Y327590D02*
X34449Y329589D01*
Y328590D02*
X33449Y329589D01*
X28451Y335587D02*
X29450Y333588D01*
X31450Y331589D01*
X33449D01*
X34449Y332588D01*
Y334588D01*
X33449Y335587D01*
X32449D01*
X31450Y334588D01*
Y331589D01*
Y337587D02*
Y341585D01*
X29450Y343585D02*
X28451Y344584D01*
Y346584D01*
X29450Y347583D01*
X30450D01*
X31450Y346584D01*
Y345584D01*
Y346584D01*
X32449Y347583D01*
X33449D01*
X34449Y346584D01*
Y344584D01*
X33449Y343585D01*
X33449Y301735D02*
X29450D01*
X28451Y300735D01*
Y298736D01*
X29450Y297736D01*
X33449D01*
X34449Y298736D01*
Y300735D01*
X32449Y299735D02*
X34449Y301735D01*
Y300735D02*
X33449Y301735D01*
X28451Y307733D02*
X29450Y305734D01*
X31450Y303734D01*
X33449D01*
X34449Y304734D01*
Y306733D01*
X33449Y307733D01*
X32449D01*
X31450Y306733D01*
Y303734D01*
Y309732D02*
Y313731D01*
X34449Y319729D02*
Y315730D01*
X30450Y319729D01*
X29450D01*
X28451Y318729D01*
Y316730D01*
X29450Y315730D01*
X33449Y274471D02*
X29450D01*
X28451Y273471D01*
Y271472D01*
X29450Y270472D01*
X33449D01*
X34449Y271472D01*
Y273471D01*
X32449Y272472D02*
X34449Y274471D01*
Y273471D02*
X33449Y274471D01*
X28451Y280469D02*
X29450Y278470D01*
X31450Y276470D01*
X33449D01*
X34449Y277470D01*
Y279469D01*
X33449Y280469D01*
X32449D01*
X31450Y279469D01*
Y276470D01*
Y282469D02*
Y286467D01*
X34449Y288467D02*
Y290466D01*
Y289466D01*
X28451D01*
X29450Y288467D01*
X72426Y329589D02*
X68427D01*
X67427Y328590D01*
Y326590D01*
X68427Y325590D01*
X72426D01*
X73425Y326590D01*
Y328590D01*
X71426Y327590D02*
X73425Y329589D01*
Y328590D02*
X72426Y329589D01*
X67427Y335587D02*
Y331589D01*
X70426D01*
X69426Y333588D01*
Y334588D01*
X70426Y335587D01*
X72426D01*
X73425Y334588D01*
Y332588D01*
X72426Y331589D01*
X70426Y337587D02*
Y341585D01*
X68427Y343585D02*
X67427Y344584D01*
Y346584D01*
X68427Y347583D01*
X69426D01*
X70426Y346584D01*
Y345584D01*
Y346584D01*
X71426Y347583D01*
X72426D01*
X73425Y346584D01*
Y344584D01*
X72426Y343585D01*
X72426Y301735D02*
X68427D01*
X67427Y300735D01*
Y298736D01*
X68427Y297736D01*
X72426D01*
X73425Y298736D01*
Y300735D01*
X71426Y299735D02*
X73425Y301735D01*
Y300735D02*
X72426Y301735D01*
X67427Y307733D02*
Y303734D01*
X70426D01*
X69426Y305734D01*
Y306733D01*
X70426Y307733D01*
X72426D01*
X73425Y306733D01*
Y304734D01*
X72426Y303734D01*
X70426Y309732D02*
Y313731D01*
X73425Y319729D02*
Y315730D01*
X69426Y319729D01*
X68427D01*
X67427Y318729D01*
Y316730D01*
X68427Y315730D01*
X72426Y274471D02*
X68427D01*
X67427Y273471D01*
Y271472D01*
X68427Y270472D01*
X72426D01*
X73425Y271472D01*
Y273471D01*
X71426Y272472D02*
X73425Y274471D01*
Y273471D02*
X72426Y274471D01*
X67427Y280469D02*
Y276470D01*
X70426D01*
X69426Y278470D01*
Y279469D01*
X70426Y280469D01*
X72426D01*
X73425Y279469D01*
Y277470D01*
X72426Y276470D01*
X70426Y282469D02*
Y286467D01*
X73425Y288467D02*
Y290466D01*
Y289466D01*
X67427D01*
X68427Y288467D01*
X111402Y329589D02*
X107403D01*
X106404Y328590D01*
Y326590D01*
X107403Y325590D01*
X111402D01*
X112401Y326590D01*
Y328590D01*
X110402Y327590D02*
X112401Y329589D01*
Y328590D02*
X111402Y329589D01*
X112401Y334588D02*
X106404D01*
X109403Y331589D01*
Y335587D01*
Y337587D02*
Y341585D01*
X107403Y343585D02*
X106404Y344584D01*
Y346584D01*
X107403Y347583D01*
X108403D01*
X109403Y346584D01*
Y345584D01*
Y346584D01*
X110402Y347583D01*
X111402D01*
X112401Y346584D01*
Y344584D01*
X111402Y343585D01*
Y301735D02*
X107403D01*
X106404Y300735D01*
Y298736D01*
X107403Y297736D01*
X111402D01*
X112401Y298736D01*
Y300735D01*
X110402Y299735D02*
X112401Y301735D01*
Y300735D02*
X111402Y301735D01*
X112401Y306733D02*
X106404D01*
X109403Y303734D01*
Y307733D01*
Y309732D02*
Y313731D01*
X112401Y319729D02*
Y315730D01*
X108403Y319729D01*
X107403D01*
X106404Y318729D01*
Y316730D01*
X107403Y315730D01*
X111402Y274471D02*
X107403D01*
X106404Y273471D01*
Y271472D01*
X107403Y270472D01*
X111402D01*
X112401Y271472D01*
Y273471D01*
X110402Y272472D02*
X112401Y274471D01*
Y273471D02*
X111402Y274471D01*
X112401Y279469D02*
X106404D01*
X109403Y276470D01*
Y280469D01*
Y282469D02*
Y286467D01*
X112401Y288467D02*
Y290466D01*
Y289466D01*
X106404D01*
X107403Y288467D01*
X101440Y235526D02*
X99440D01*
X100440D01*
Y230527D01*
X99440Y229527D01*
X98441D01*
X97441Y230527D01*
X107438Y229527D02*
X103439D01*
X107438Y233526D01*
Y234526D01*
X106438Y235526D01*
X104439D01*
X103439Y234526D01*
X158723Y248616D02*
X156724D01*
X157723D01*
Y243618D01*
X156724Y242618D01*
X155724D01*
X154724Y243618D01*
X160722Y242618D02*
X162722D01*
X161722D01*
Y248616D01*
X160722Y247616D01*
X43307Y376077D02*
Y370079D01*
X47306D01*
X49305Y376077D02*
Y375077D01*
X51305Y373078D01*
X53304Y375077D01*
Y376077D01*
X51305Y373078D02*
Y370079D01*
X59302Y375077D02*
X58302Y376077D01*
X56303D01*
X55303Y375077D01*
Y374078D01*
X56303Y373078D01*
X58302D01*
X59302Y372078D01*
Y371078D01*
X58302Y370079D01*
X56303D01*
X55303Y371078D01*
X61301Y370079D02*
Y376077D01*
X64300D01*
X65300Y375077D01*
Y373078D01*
X64300Y372078D01*
X61301D01*
X63301D02*
X65300Y370079D01*
X71298Y376077D02*
X67299D01*
Y370079D01*
X71298D01*
X67299Y373078D02*
X69299D01*
X73297Y376077D02*
Y370079D01*
Y372078D01*
X77296Y376077D01*
X74297Y373078D01*
X77296Y370079D01*
X79295Y376077D02*
Y370079D01*
X83294D01*
X85294D02*
Y374078D01*
X87293Y376077D01*
X89292Y374078D01*
Y370079D01*
Y373078D01*
X85294D01*
X91292Y370079D02*
Y376077D01*
X93291Y374078D01*
X95290Y376077D01*
Y370079D01*
X101288Y376077D02*
X97290D01*
Y370079D01*
X101288D01*
X97290Y373078D02*
X99289D01*
X103288Y370079D02*
Y376077D01*
X107286Y370079D01*
Y376077D01*
X43307Y384935D02*
Y378937D01*
X46306D01*
X47306Y379937D01*
Y383935D01*
X46306Y384935D01*
X43307D01*
X49305Y378937D02*
Y384935D01*
X52304D01*
X53304Y383935D01*
Y381936D01*
X52304Y380936D01*
X49305D01*
X51304D02*
X53304Y378937D01*
X55303Y384935D02*
X57302D01*
X56303D01*
Y378937D01*
X55303D01*
X57302D01*
X60302Y384935D02*
Y380936D01*
X62301Y378937D01*
X64300Y380936D01*
Y384935D01*
X70298D02*
X66300D01*
Y378937D01*
X70298D01*
X66300Y381936D02*
X68299D01*
X72298Y378937D02*
Y384935D01*
X75297D01*
X76296Y383935D01*
Y381936D01*
X75297Y380936D01*
X72298D01*
X74297D02*
X76296Y378937D01*
X78296Y384935D02*
Y378937D01*
Y380936D01*
X82294Y384935D01*
X79295Y381936D01*
X82294Y378937D01*
X87293Y384935D02*
X85294D01*
X84294Y383935D01*
Y379937D01*
X85294Y378937D01*
X87293D01*
X88292Y379937D01*
Y383935D01*
X87293Y384935D01*
X90292Y378937D02*
Y384935D01*
X93291D01*
X94291Y383935D01*
Y381936D01*
X93291Y380936D01*
X90292D01*
X92291D02*
X94291Y378937D01*
X96290Y384935D02*
X100289D01*
X98289D01*
Y378937D01*
M02*
