G04 Layer_Color=8388736*
%FSLAX25Y25*%
%MOIN*%
G70*
G01*
G75*
%ADD24C,0.00787*%
%ADD36C,0.01000*%
D24*
X-0Y196850D02*
X370079D01*
X0Y0D02*
Y393701D01*
X370079D01*
Y0D02*
Y393701D01*
X0Y0D02*
X370079D01*
X196850D02*
X196850D01*
Y393701D01*
X370079Y0D02*
Y393701D01*
D36*
X-31496Y198818D02*
Y196194D01*
X-30184Y194882D01*
X-28872Y196194D01*
Y198818D01*
X-24937Y198162D02*
X-25592Y198818D01*
X-26904D01*
X-27560Y198162D01*
Y195538D01*
X-26904Y194882D01*
X-25592D01*
X-24937Y195538D01*
X-23625Y198818D02*
Y195538D01*
X-22969Y194882D01*
X-21657D01*
X-21001Y195538D01*
Y198818D01*
X-19689D02*
X-17065D01*
X-18377D01*
Y194882D01*
X-11817Y196850D02*
X-9194D01*
X-7882Y194882D02*
X-5914Y196850D01*
X-7882Y198818D01*
X198819Y401574D02*
X196851Y399606D01*
X194883Y401574D01*
X196851Y403542D02*
Y406166D01*
X194883Y411413D02*
X197507D01*
X198819Y412725D01*
X197507Y414037D01*
X194883D01*
X195539Y417973D02*
X194883Y417317D01*
Y416005D01*
X195539Y415349D01*
X198163D01*
X198819Y416005D01*
Y417317D01*
X198163Y417973D01*
X194883Y419285D02*
X198163D01*
X198819Y419941D01*
Y421253D01*
X198163Y421909D01*
X194883D01*
Y423221D02*
Y425845D01*
Y424533D01*
X198819D01*
X194883Y-31496D02*
X197507D01*
X198819Y-30184D01*
X197507Y-28872D01*
X194883D01*
X195539Y-24937D02*
X194883Y-25592D01*
Y-26904D01*
X195539Y-27560D01*
X198163D01*
X198819Y-26904D01*
Y-25592D01*
X198163Y-24937D01*
X194883Y-23625D02*
X198163D01*
X198819Y-22969D01*
Y-21657D01*
X198163Y-21001D01*
X194883D01*
Y-19689D02*
Y-17065D01*
Y-18377D01*
X198819D01*
X196851Y-11817D02*
Y-9194D01*
X198819Y-7882D02*
X196851Y-5914D01*
X194883Y-7882D01*
X377952Y194882D02*
X375984Y196850D01*
X377952Y198818D01*
X379920Y196850D02*
X382544D01*
X387791Y198818D02*
Y196194D01*
X389103Y194882D01*
X390415Y196194D01*
Y198818D01*
X394351Y198162D02*
X393695Y198818D01*
X392383D01*
X391727Y198162D01*
Y195538D01*
X392383Y194882D01*
X393695D01*
X394351Y195538D01*
X395663Y198818D02*
Y195538D01*
X396319Y194882D01*
X397631D01*
X398287Y195538D01*
Y198818D01*
X399599D02*
X402222D01*
X400911D01*
Y194882D01*
M02*
