M48
;Layer_Color=9474304
;FILE_FORMAT=2:5
INCH,LZ
;TYPE=PLATED
T1F00S00C0.03150
T2F00S00C0.03937
T3F00S00C0.12598
;TYPE=NON_PLATED
T4F00S00C0.03150
%
T01
X0007677Y0065866
X0017677
X0027677
X0037677
X0316772Y0011811
X0326772
X0340394
X0350394
X0037677Y0075866
X0027677
X0017677
X0007677
T02
X0036181Y0011811
X0046181
X0056181
X0066181
X0010827Y0038386
Y0050197
X0083425Y0011811
X0093425
X0103425
X0113425
X0130669
X0140669
X0150669
X0160669
X0177913
X0187913
X0197913
X0207913
X0225157
X0235157
X0245158
X0255157
X0272402
X0282402
X0292402
X0302402
X0378937Y003937
Y004937
T03
X0015748Y0015748
X0192913Y0074803
X0370079Y0015748
T04
X0047677Y0065866
X0057677
X0067677
X0077677
X0087677
X0097677
X0107677
X0117677
X0127677
X0137677
X0147677
X0157677
Y0075866
X0147677
X0137677
X0127677
X0117677
X0107677
X0097677
X0087677
X0077677
X0067677
X0057677
X0047677
M30
