G04 Layer_Color=65535*
%FSLAX25Y25*%
%MOIN*%
G70*
G01*
G75*
%ADD11C,0.00787*%
%ADD18C,0.01000*%
D11*
X35276Y21654D02*
X57087D01*
X35276Y12992D02*
Y21654D01*
Y12992D02*
X38425Y9843D01*
X57087D01*
Y21654D01*
X58898D02*
X80709D01*
X58898Y12992D02*
Y21654D01*
Y12992D02*
X62047Y9843D01*
X80709D01*
Y21654D01*
X322559Y63898D02*
Y85709D01*
X351339D01*
X354488Y82559D01*
Y63898D02*
Y82559D01*
X322559Y63898D02*
X354488D01*
X374016Y59055D02*
X385827D01*
Y40394D02*
Y59055D01*
X382677Y37244D02*
X385827Y40394D01*
X374016Y37244D02*
X382677D01*
X374016D02*
Y59055D01*
X7874D02*
X19685D01*
Y40394D02*
Y59055D01*
X16535Y37244D02*
X19685Y40394D01*
X7874Y37244D02*
X16535D01*
X7874D02*
Y59055D01*
X35276Y120079D02*
X57087D01*
X35276Y111417D02*
Y120079D01*
Y111417D02*
X38425Y108268D01*
X57087D01*
Y120079D01*
X58898D02*
X80709D01*
X58898Y111417D02*
Y120079D01*
Y111417D02*
X62047Y108268D01*
X80709D01*
Y120079D01*
X322559Y162323D02*
Y184134D01*
X351339D01*
X354488Y180984D01*
Y162323D02*
Y180984D01*
X322559Y162323D02*
X354488D01*
X374016Y157480D02*
X385827D01*
Y138819D02*
Y157480D01*
X382677Y135669D02*
X385827Y138819D01*
X374016Y135669D02*
X382677D01*
X374016D02*
Y157480D01*
X7874D02*
X19685D01*
Y138819D02*
Y157480D01*
X16535Y135669D02*
X19685Y138819D01*
X7874Y135669D02*
X16535D01*
X7874D02*
Y157480D01*
X35276Y218504D02*
X57087D01*
X35276Y209842D02*
Y218504D01*
Y209842D02*
X38425Y206693D01*
X57087D01*
Y218504D01*
X58898D02*
X80709D01*
X58898Y209842D02*
Y218504D01*
Y209842D02*
X62047Y206693D01*
X80709D01*
Y218504D01*
X322559Y260748D02*
Y282559D01*
X351339D01*
X354488Y279410D01*
Y260748D02*
Y279410D01*
X322559Y260748D02*
X354488D01*
X374016Y255906D02*
X385827D01*
Y237244D02*
Y255906D01*
X382677Y234095D02*
X385827Y237244D01*
X374016Y234095D02*
X382677D01*
X374016D02*
Y255906D01*
X7874D02*
X19685D01*
Y237244D02*
Y255906D01*
X16535Y234095D02*
X19685Y237244D01*
X7874Y234095D02*
X16535D01*
X7874D02*
Y255906D01*
X35276Y316929D02*
X57087D01*
X35276Y308268D02*
Y316929D01*
Y308268D02*
X38425Y305118D01*
X57087D01*
Y316929D01*
X58898D02*
X80709D01*
X58898Y308268D02*
Y316929D01*
Y308268D02*
X62047Y305118D01*
X80709D01*
Y316929D01*
X322559Y359173D02*
Y380984D01*
X351339D01*
X354488Y377835D01*
Y359173D02*
Y377835D01*
X322559Y359173D02*
X354488D01*
X374016Y354331D02*
X385827D01*
Y335669D02*
Y354331D01*
X382677Y332520D02*
X385827Y335669D01*
X374016Y332520D02*
X382677D01*
X374016D02*
Y354331D01*
X7874D02*
X19685D01*
Y335669D02*
Y354331D01*
X16535Y332520D02*
X19685Y335669D01*
X7874Y332520D02*
X16535D01*
X7874D02*
Y354331D01*
D18*
X362266Y76864D02*
X360267D01*
X361267D01*
Y71866D01*
X360267Y70866D01*
X359267D01*
X358268Y71866D01*
X364266Y70866D02*
X366265D01*
X365265D01*
Y76864D01*
X364266Y75864D01*
X369264D02*
X370264Y76864D01*
X372263D01*
X373263Y75864D01*
Y71866D01*
X372263Y70866D01*
X370264D01*
X369264Y71866D01*
Y75864D01*
X47640Y23622D02*
X53150D01*
Y26377D01*
X52231Y27295D01*
X48558D01*
X47640Y26377D01*
Y23622D01*
X53150Y29132D02*
X47640D01*
X49476Y30969D01*
X47640Y32805D01*
X53150D01*
X47640Y34642D02*
X53150Y38315D01*
X47640D02*
X53150Y34642D01*
X54068Y40152D02*
Y43826D01*
X47640Y45662D02*
Y47499D01*
Y46580D01*
X53150D01*
Y45662D01*
Y47499D01*
Y50254D02*
X47640D01*
X53150Y53927D01*
X47640D01*
X71262Y23622D02*
X76772D01*
Y26377D01*
X75853Y27295D01*
X72180D01*
X71262Y26377D01*
Y23622D01*
X76772Y29132D02*
X71262D01*
X73098Y30969D01*
X71262Y32805D01*
X76772D01*
X71262Y34642D02*
X76772Y38315D01*
X71262D02*
X76772Y34642D01*
X77690Y40152D02*
Y43826D01*
X71262Y48417D02*
Y46580D01*
X72180Y45662D01*
X75853D01*
X76772Y46580D01*
Y48417D01*
X75853Y49336D01*
X72180D01*
X71262Y48417D01*
Y51172D02*
X75853D01*
X76772Y52091D01*
Y53927D01*
X75853Y54846D01*
X71262D01*
Y56682D02*
Y60356D01*
Y58519D01*
X76772D01*
X316929Y37006D02*
Y31496D01*
Y33333D01*
X320602Y37006D01*
X317847Y34251D01*
X320602Y31496D01*
X322439D02*
Y35169D01*
X324276Y37006D01*
X326113Y35169D01*
Y31496D01*
Y34251D01*
X322439D01*
X327949Y31496D02*
Y37006D01*
X331623Y31496D01*
Y37006D01*
X333459Y31496D02*
Y35169D01*
X335296Y37006D01*
X337133Y35169D01*
Y31496D01*
Y34251D01*
X333459D01*
X338969Y37006D02*
Y31496D01*
X342643D01*
X344479Y30578D02*
X348153D01*
X349989Y31496D02*
X351826D01*
X350908D01*
Y37006D01*
X349989Y36088D01*
X271654Y37006D02*
Y31496D01*
Y33333D01*
X275327Y37006D01*
X272572Y34251D01*
X275327Y31496D01*
X277164D02*
Y35169D01*
X279000Y37006D01*
X280837Y35169D01*
Y31496D01*
Y34251D01*
X277164D01*
X282674Y31496D02*
Y37006D01*
X286347Y31496D01*
Y37006D01*
X288184Y31496D02*
Y35169D01*
X290020Y37006D01*
X291857Y35169D01*
Y31496D01*
Y34251D01*
X288184D01*
X293694Y37006D02*
Y31496D01*
X297367D01*
X299204Y30578D02*
X302877D01*
X308387Y31496D02*
X304714D01*
X308387Y35169D01*
Y36088D01*
X307469Y37006D01*
X305632D01*
X304714Y36088D01*
X226378Y37006D02*
Y31496D01*
Y33333D01*
X230051Y37006D01*
X227296Y34251D01*
X230051Y31496D01*
X231888D02*
Y35169D01*
X233725Y37006D01*
X235561Y35169D01*
Y31496D01*
Y34251D01*
X231888D01*
X237398Y31496D02*
Y37006D01*
X241071Y31496D01*
Y37006D01*
X242908Y31496D02*
Y35169D01*
X244745Y37006D01*
X246581Y35169D01*
Y31496D01*
Y34251D01*
X242908D01*
X248418Y37006D02*
Y31496D01*
X252091D01*
X253928Y30578D02*
X257601D01*
X259438Y36088D02*
X260356Y37006D01*
X262193D01*
X263111Y36088D01*
Y35169D01*
X262193Y34251D01*
X261275D01*
X262193D01*
X263111Y33333D01*
Y32414D01*
X262193Y31496D01*
X260356D01*
X259438Y32414D01*
X181102Y37006D02*
Y31496D01*
Y33333D01*
X184776Y37006D01*
X182021Y34251D01*
X184776Y31496D01*
X186612D02*
Y35169D01*
X188449Y37006D01*
X190286Y35169D01*
Y31496D01*
Y34251D01*
X186612D01*
X192122Y31496D02*
Y37006D01*
X195796Y31496D01*
Y37006D01*
X197633Y31496D02*
Y35169D01*
X199469Y37006D01*
X201306Y35169D01*
Y31496D01*
Y34251D01*
X197633D01*
X203142Y37006D02*
Y31496D01*
X206816D01*
X208652Y30578D02*
X212326D01*
X216918Y31496D02*
Y37006D01*
X214163Y34251D01*
X217836D01*
X135827Y37006D02*
Y31496D01*
Y33333D01*
X139500Y37006D01*
X136745Y34251D01*
X139500Y31496D01*
X141337D02*
Y35169D01*
X143174Y37006D01*
X145010Y35169D01*
Y31496D01*
Y34251D01*
X141337D01*
X146847Y31496D02*
Y37006D01*
X150520Y31496D01*
Y37006D01*
X152357Y31496D02*
Y35169D01*
X154194Y37006D01*
X156030Y35169D01*
Y31496D01*
Y34251D01*
X152357D01*
X157867Y37006D02*
Y31496D01*
X161540D01*
X163377Y30578D02*
X167050D01*
X172560Y37006D02*
X168887D01*
Y34251D01*
X170724Y35169D01*
X171642D01*
X172560Y34251D01*
Y32414D01*
X171642Y31496D01*
X169805D01*
X168887Y32414D01*
X90551Y37006D02*
Y31496D01*
Y33333D01*
X94225Y37006D01*
X91470Y34251D01*
X94225Y31496D01*
X96061D02*
Y35169D01*
X97898Y37006D01*
X99735Y35169D01*
Y31496D01*
Y34251D01*
X96061D01*
X101571Y31496D02*
Y37006D01*
X105245Y31496D01*
Y37006D01*
X107081Y31496D02*
Y35169D01*
X108918Y37006D01*
X110755Y35169D01*
Y31496D01*
Y34251D01*
X107081D01*
X112591Y37006D02*
Y31496D01*
X116265D01*
X118101Y30578D02*
X121775D01*
X127285Y37006D02*
X125448Y36088D01*
X123611Y34251D01*
Y32414D01*
X124530Y31496D01*
X126366D01*
X127285Y32414D01*
Y33333D01*
X126366Y34251D01*
X123611D01*
X169291Y51274D02*
Y45276D01*
X172290D01*
X173290Y46275D01*
Y47275D01*
X172290Y48275D01*
X169291D01*
X172290D01*
X173290Y49274D01*
Y50274D01*
X172290Y51274D01*
X169291D01*
X178288D02*
X176289D01*
X175289Y50274D01*
Y46275D01*
X176289Y45276D01*
X178288D01*
X179288Y46275D01*
Y50274D01*
X178288Y51274D01*
X181288D02*
Y45276D01*
Y47275D01*
X185286Y51274D01*
X182287Y48275D01*
X185286Y45276D01*
X191284Y50274D02*
X190285Y51274D01*
X188285D01*
X187285Y50274D01*
Y49274D01*
X188285Y48275D01*
X190285D01*
X191284Y47275D01*
Y46275D01*
X190285Y45276D01*
X188285D01*
X187285Y46275D01*
X193284Y51274D02*
Y45276D01*
Y47275D01*
X197282Y51274D01*
X194283Y48275D01*
X197282Y45276D01*
X202281Y51274D02*
X200281D01*
X199282Y50274D01*
Y46275D01*
X200281Y45276D01*
X202281D01*
X203280Y46275D01*
Y50274D01*
X202281Y51274D01*
X205280Y45276D02*
Y51274D01*
X208279D01*
X209278Y50274D01*
Y48275D01*
X208279Y47275D01*
X205280D01*
X207279D02*
X209278Y45276D01*
X211278Y51274D02*
X215277D01*
X213277D01*
Y45276D01*
X223274D02*
Y49274D01*
X224274D01*
X225273Y48275D01*
Y45276D01*
Y48275D01*
X226273Y49274D01*
X227273Y48275D01*
Y45276D01*
X229272D02*
X231271D01*
X230272D01*
Y49274D01*
X229272D01*
X234270Y45276D02*
Y49274D01*
X237269D01*
X238269Y48275D01*
Y45276D01*
X240268D02*
X242268D01*
X241268D01*
Y49274D01*
X240268D01*
X245267Y48275D02*
X249266D01*
X251265Y51274D02*
Y45276D01*
X255263D01*
X257263Y51274D02*
Y50274D01*
X259262Y48275D01*
X261262Y50274D01*
Y51274D01*
X259262Y48275D02*
Y45276D01*
X267260Y50274D02*
X266260Y51274D01*
X264261D01*
X263261Y50274D01*
Y49274D01*
X264261Y48275D01*
X266260D01*
X267260Y47275D01*
Y46275D01*
X266260Y45276D01*
X264261D01*
X263261Y46275D01*
X269259Y45276D02*
Y51274D01*
X272258D01*
X273258Y50274D01*
Y48275D01*
X272258Y47275D01*
X269259D01*
X271258D02*
X273258Y45276D01*
X279256Y51274D02*
X275257D01*
Y45276D01*
X279256D01*
X275257Y48275D02*
X277256D01*
X281255Y51274D02*
Y45276D01*
Y47275D01*
X285254Y51274D01*
X282255Y48275D01*
X285254Y45276D01*
X287253Y51274D02*
Y45276D01*
X291252D01*
X293251D02*
Y49274D01*
X295251Y51274D01*
X297250Y49274D01*
Y45276D01*
Y48275D01*
X293251D01*
X299249Y45276D02*
Y51274D01*
X301249Y49274D01*
X303248Y51274D01*
Y45276D01*
X309246Y51274D02*
X305247D01*
Y45276D01*
X309246D01*
X305247Y48275D02*
X307247D01*
X311245Y45276D02*
Y51274D01*
X315244Y45276D01*
Y51274D01*
X23622Y45368D02*
Y41370D01*
X25621Y39370D01*
X27621Y41370D01*
Y45368D01*
X29620Y39370D02*
Y43369D01*
X31620Y45368D01*
X33619Y43369D01*
Y39370D01*
Y42369D01*
X29620D01*
X35618Y39370D02*
Y43369D01*
X37618Y45368D01*
X39617Y43369D01*
Y39370D01*
Y42369D01*
X35618D01*
X27621Y56179D02*
X26621Y57179D01*
X24622D01*
X23622Y56179D01*
Y52181D01*
X24622Y51181D01*
X26621D01*
X27621Y52181D01*
Y54180D01*
X25621D01*
X29620Y51181D02*
Y57179D01*
X33619Y51181D01*
Y57179D01*
X35618D02*
Y51181D01*
X38617D01*
X39617Y52181D01*
Y56179D01*
X38617Y57179D01*
X35618D01*
X358330Y56179D02*
X357330Y57179D01*
X355330D01*
X354331Y56179D01*
Y52181D01*
X355330Y51181D01*
X357330D01*
X358330Y52181D01*
Y54180D01*
X356330D01*
X360329Y51181D02*
Y57179D01*
X364328Y51181D01*
Y57179D01*
X366327D02*
Y51181D01*
X369326D01*
X370326Y52181D01*
Y56179D01*
X369326Y57179D01*
X366327D01*
X354331Y45368D02*
Y41370D01*
X356330Y39370D01*
X358330Y41370D01*
Y45368D01*
X360329Y39370D02*
Y43369D01*
X362328Y45368D01*
X364328Y43369D01*
Y39370D01*
Y42369D01*
X360329D01*
X366327Y39370D02*
Y43369D01*
X368326Y45368D01*
X370326Y43369D01*
Y39370D01*
Y42369D01*
X366327D01*
X271654Y76770D02*
X272966D01*
X272309D01*
Y72835D01*
X271654D01*
X272966D01*
X274933Y76770D02*
Y72835D01*
X276901D01*
X277557Y73491D01*
Y76114D01*
X276901Y76770D01*
X274933D01*
X285429Y76114D02*
X284773Y76770D01*
X283461D01*
X282805Y76114D01*
Y73491D01*
X283461Y72835D01*
X284773D01*
X285429Y73491D01*
X288708Y76770D02*
X287397D01*
X286740Y76114D01*
Y73491D01*
X287397Y72835D01*
X288708D01*
X289364Y73491D01*
Y76114D01*
X288708Y76770D01*
X290676Y72835D02*
Y76770D01*
X293300Y72835D01*
Y76770D01*
X294612Y72835D02*
Y76770D01*
X297236Y72835D01*
Y76770D01*
X301172D02*
X298548D01*
Y72835D01*
X301172D01*
X298548Y74803D02*
X299860D01*
X305107Y76114D02*
X304451Y76770D01*
X303139D01*
X302484Y76114D01*
Y73491D01*
X303139Y72835D01*
X304451D01*
X305107Y73491D01*
X306419Y76770D02*
X309043D01*
X307731D01*
Y72835D01*
X312323Y76770D02*
X311011D01*
X310355Y76114D01*
Y73491D01*
X311011Y72835D01*
X312323D01*
X312979Y73491D01*
Y76114D01*
X312323Y76770D01*
X314291Y72835D02*
Y76770D01*
X316259D01*
X316915Y76114D01*
Y74803D01*
X316259Y74147D01*
X314291D01*
X315603D02*
X316915Y72835D01*
X362266Y175289D02*
X360267D01*
X361267D01*
Y170291D01*
X360267Y169291D01*
X359267D01*
X358268Y170291D01*
X364266Y169291D02*
X366265D01*
X365265D01*
Y175289D01*
X364266Y174290D01*
X369264D02*
X370264Y175289D01*
X372263D01*
X373263Y174290D01*
Y170291D01*
X372263Y169291D01*
X370264D01*
X369264Y170291D01*
Y174290D01*
X47640Y122047D02*
X53150D01*
Y124802D01*
X52231Y125721D01*
X48558D01*
X47640Y124802D01*
Y122047D01*
X53150Y127557D02*
X47640D01*
X49476Y129394D01*
X47640Y131231D01*
X53150D01*
X47640Y133067D02*
X53150Y136741D01*
X47640D02*
X53150Y133067D01*
X54068Y138577D02*
Y142251D01*
X47640Y144087D02*
Y145924D01*
Y145006D01*
X53150D01*
Y144087D01*
Y145924D01*
Y148679D02*
X47640D01*
X53150Y152352D01*
X47640D01*
X71262Y122047D02*
X76772D01*
Y124802D01*
X75853Y125721D01*
X72180D01*
X71262Y124802D01*
Y122047D01*
X76772Y127557D02*
X71262D01*
X73098Y129394D01*
X71262Y131231D01*
X76772D01*
X71262Y133067D02*
X76772Y136741D01*
X71262D02*
X76772Y133067D01*
X77690Y138577D02*
Y142251D01*
X71262Y146842D02*
Y145006D01*
X72180Y144087D01*
X75853D01*
X76772Y145006D01*
Y146842D01*
X75853Y147761D01*
X72180D01*
X71262Y146842D01*
Y149597D02*
X75853D01*
X76772Y150516D01*
Y152352D01*
X75853Y153271D01*
X71262D01*
Y155107D02*
Y158781D01*
Y156944D01*
X76772D01*
X316929Y135431D02*
Y129921D01*
Y131758D01*
X320602Y135431D01*
X317847Y132676D01*
X320602Y129921D01*
X322439D02*
Y133595D01*
X324276Y135431D01*
X326113Y133595D01*
Y129921D01*
Y132676D01*
X322439D01*
X327949Y129921D02*
Y135431D01*
X331623Y129921D01*
Y135431D01*
X333459Y129921D02*
Y133595D01*
X335296Y135431D01*
X337133Y133595D01*
Y129921D01*
Y132676D01*
X333459D01*
X338969Y135431D02*
Y129921D01*
X342643D01*
X344479Y129003D02*
X348153D01*
X349989Y129921D02*
X351826D01*
X350908D01*
Y135431D01*
X349989Y134513D01*
X271654Y135431D02*
Y129921D01*
Y131758D01*
X275327Y135431D01*
X272572Y132676D01*
X275327Y129921D01*
X277164D02*
Y133595D01*
X279000Y135431D01*
X280837Y133595D01*
Y129921D01*
Y132676D01*
X277164D01*
X282674Y129921D02*
Y135431D01*
X286347Y129921D01*
Y135431D01*
X288184Y129921D02*
Y133595D01*
X290020Y135431D01*
X291857Y133595D01*
Y129921D01*
Y132676D01*
X288184D01*
X293694Y135431D02*
Y129921D01*
X297367D01*
X299204Y129003D02*
X302877D01*
X308387Y129921D02*
X304714D01*
X308387Y133595D01*
Y134513D01*
X307469Y135431D01*
X305632D01*
X304714Y134513D01*
X226378Y135431D02*
Y129921D01*
Y131758D01*
X230051Y135431D01*
X227296Y132676D01*
X230051Y129921D01*
X231888D02*
Y133595D01*
X233725Y135431D01*
X235561Y133595D01*
Y129921D01*
Y132676D01*
X231888D01*
X237398Y129921D02*
Y135431D01*
X241071Y129921D01*
Y135431D01*
X242908Y129921D02*
Y133595D01*
X244745Y135431D01*
X246581Y133595D01*
Y129921D01*
Y132676D01*
X242908D01*
X248418Y135431D02*
Y129921D01*
X252091D01*
X253928Y129003D02*
X257601D01*
X259438Y134513D02*
X260356Y135431D01*
X262193D01*
X263111Y134513D01*
Y133595D01*
X262193Y132676D01*
X261275D01*
X262193D01*
X263111Y131758D01*
Y130840D01*
X262193Y129921D01*
X260356D01*
X259438Y130840D01*
X181102Y135431D02*
Y129921D01*
Y131758D01*
X184776Y135431D01*
X182021Y132676D01*
X184776Y129921D01*
X186612D02*
Y133595D01*
X188449Y135431D01*
X190286Y133595D01*
Y129921D01*
Y132676D01*
X186612D01*
X192122Y129921D02*
Y135431D01*
X195796Y129921D01*
Y135431D01*
X197633Y129921D02*
Y133595D01*
X199469Y135431D01*
X201306Y133595D01*
Y129921D01*
Y132676D01*
X197633D01*
X203142Y135431D02*
Y129921D01*
X206816D01*
X208652Y129003D02*
X212326D01*
X216918Y129921D02*
Y135431D01*
X214163Y132676D01*
X217836D01*
X135827Y135431D02*
Y129921D01*
Y131758D01*
X139500Y135431D01*
X136745Y132676D01*
X139500Y129921D01*
X141337D02*
Y133595D01*
X143174Y135431D01*
X145010Y133595D01*
Y129921D01*
Y132676D01*
X141337D01*
X146847Y129921D02*
Y135431D01*
X150520Y129921D01*
Y135431D01*
X152357Y129921D02*
Y133595D01*
X154194Y135431D01*
X156030Y133595D01*
Y129921D01*
Y132676D01*
X152357D01*
X157867Y135431D02*
Y129921D01*
X161540D01*
X163377Y129003D02*
X167050D01*
X172560Y135431D02*
X168887D01*
Y132676D01*
X170724Y133595D01*
X171642D01*
X172560Y132676D01*
Y130840D01*
X171642Y129921D01*
X169805D01*
X168887Y130840D01*
X90551Y135431D02*
Y129921D01*
Y131758D01*
X94225Y135431D01*
X91470Y132676D01*
X94225Y129921D01*
X96061D02*
Y133595D01*
X97898Y135431D01*
X99735Y133595D01*
Y129921D01*
Y132676D01*
X96061D01*
X101571Y129921D02*
Y135431D01*
X105245Y129921D01*
Y135431D01*
X107081Y129921D02*
Y133595D01*
X108918Y135431D01*
X110755Y133595D01*
Y129921D01*
Y132676D01*
X107081D01*
X112591Y135431D02*
Y129921D01*
X116265D01*
X118101Y129003D02*
X121775D01*
X127285Y135431D02*
X125448Y134513D01*
X123611Y132676D01*
Y130840D01*
X124530Y129921D01*
X126366D01*
X127285Y130840D01*
Y131758D01*
X126366Y132676D01*
X123611D01*
X169291Y149699D02*
Y143701D01*
X172290D01*
X173290Y144701D01*
Y145700D01*
X172290Y146700D01*
X169291D01*
X172290D01*
X173290Y147699D01*
Y148699D01*
X172290Y149699D01*
X169291D01*
X178288D02*
X176289D01*
X175289Y148699D01*
Y144701D01*
X176289Y143701D01*
X178288D01*
X179288Y144701D01*
Y148699D01*
X178288Y149699D01*
X181288D02*
Y143701D01*
Y145700D01*
X185286Y149699D01*
X182287Y146700D01*
X185286Y143701D01*
X191284Y148699D02*
X190285Y149699D01*
X188285D01*
X187285Y148699D01*
Y147699D01*
X188285Y146700D01*
X190285D01*
X191284Y145700D01*
Y144701D01*
X190285Y143701D01*
X188285D01*
X187285Y144701D01*
X193284Y149699D02*
Y143701D01*
Y145700D01*
X197282Y149699D01*
X194283Y146700D01*
X197282Y143701D01*
X202281Y149699D02*
X200281D01*
X199282Y148699D01*
Y144701D01*
X200281Y143701D01*
X202281D01*
X203280Y144701D01*
Y148699D01*
X202281Y149699D01*
X205280Y143701D02*
Y149699D01*
X208279D01*
X209278Y148699D01*
Y146700D01*
X208279Y145700D01*
X205280D01*
X207279D02*
X209278Y143701D01*
X211278Y149699D02*
X215277D01*
X213277D01*
Y143701D01*
X223274D02*
Y147699D01*
X224274D01*
X225273Y146700D01*
Y143701D01*
Y146700D01*
X226273Y147699D01*
X227273Y146700D01*
Y143701D01*
X229272D02*
X231271D01*
X230272D01*
Y147699D01*
X229272D01*
X234270Y143701D02*
Y147699D01*
X237269D01*
X238269Y146700D01*
Y143701D01*
X240268D02*
X242268D01*
X241268D01*
Y147699D01*
X240268D01*
X245267Y146700D02*
X249266D01*
X251265Y149699D02*
Y143701D01*
X255263D01*
X257263Y149699D02*
Y148699D01*
X259262Y146700D01*
X261262Y148699D01*
Y149699D01*
X259262Y146700D02*
Y143701D01*
X267260Y148699D02*
X266260Y149699D01*
X264261D01*
X263261Y148699D01*
Y147699D01*
X264261Y146700D01*
X266260D01*
X267260Y145700D01*
Y144701D01*
X266260Y143701D01*
X264261D01*
X263261Y144701D01*
X269259Y143701D02*
Y149699D01*
X272258D01*
X273258Y148699D01*
Y146700D01*
X272258Y145700D01*
X269259D01*
X271258D02*
X273258Y143701D01*
X279256Y149699D02*
X275257D01*
Y143701D01*
X279256D01*
X275257Y146700D02*
X277256D01*
X281255Y149699D02*
Y143701D01*
Y145700D01*
X285254Y149699D01*
X282255Y146700D01*
X285254Y143701D01*
X287253Y149699D02*
Y143701D01*
X291252D01*
X293251D02*
Y147699D01*
X295251Y149699D01*
X297250Y147699D01*
Y143701D01*
Y146700D01*
X293251D01*
X299249Y143701D02*
Y149699D01*
X301249Y147699D01*
X303248Y149699D01*
Y143701D01*
X309246Y149699D02*
X305247D01*
Y143701D01*
X309246D01*
X305247Y146700D02*
X307247D01*
X311245Y143701D02*
Y149699D01*
X315244Y143701D01*
Y149699D01*
X23622Y143793D02*
Y139795D01*
X25621Y137795D01*
X27621Y139795D01*
Y143793D01*
X29620Y137795D02*
Y141794D01*
X31620Y143793D01*
X33619Y141794D01*
Y137795D01*
Y140794D01*
X29620D01*
X35618Y137795D02*
Y141794D01*
X37618Y143793D01*
X39617Y141794D01*
Y137795D01*
Y140794D01*
X35618D01*
X27621Y154605D02*
X26621Y155604D01*
X24622D01*
X23622Y154605D01*
Y150606D01*
X24622Y149606D01*
X26621D01*
X27621Y150606D01*
Y152605D01*
X25621D01*
X29620Y149606D02*
Y155604D01*
X33619Y149606D01*
Y155604D01*
X35618D02*
Y149606D01*
X38617D01*
X39617Y150606D01*
Y154605D01*
X38617Y155604D01*
X35618D01*
X358330Y154605D02*
X357330Y155604D01*
X355330D01*
X354331Y154605D01*
Y150606D01*
X355330Y149606D01*
X357330D01*
X358330Y150606D01*
Y152605D01*
X356330D01*
X360329Y149606D02*
Y155604D01*
X364328Y149606D01*
Y155604D01*
X366327D02*
Y149606D01*
X369326D01*
X370326Y150606D01*
Y154605D01*
X369326Y155604D01*
X366327D01*
X354331Y143793D02*
Y139795D01*
X356330Y137795D01*
X358330Y139795D01*
Y143793D01*
X360329Y137795D02*
Y141794D01*
X362328Y143793D01*
X364328Y141794D01*
Y137795D01*
Y140794D01*
X360329D01*
X366327Y137795D02*
Y141794D01*
X368326Y143793D01*
X370326Y141794D01*
Y137795D01*
Y140794D01*
X366327D01*
X271654Y175196D02*
X272966D01*
X272309D01*
Y171260D01*
X271654D01*
X272966D01*
X274933Y175196D02*
Y171260D01*
X276901D01*
X277557Y171916D01*
Y174540D01*
X276901Y175196D01*
X274933D01*
X285429Y174540D02*
X284773Y175196D01*
X283461D01*
X282805Y174540D01*
Y171916D01*
X283461Y171260D01*
X284773D01*
X285429Y171916D01*
X288708Y175196D02*
X287397D01*
X286740Y174540D01*
Y171916D01*
X287397Y171260D01*
X288708D01*
X289364Y171916D01*
Y174540D01*
X288708Y175196D01*
X290676Y171260D02*
Y175196D01*
X293300Y171260D01*
Y175196D01*
X294612Y171260D02*
Y175196D01*
X297236Y171260D01*
Y175196D01*
X301172D02*
X298548D01*
Y171260D01*
X301172D01*
X298548Y173228D02*
X299860D01*
X305107Y174540D02*
X304451Y175196D01*
X303139D01*
X302484Y174540D01*
Y171916D01*
X303139Y171260D01*
X304451D01*
X305107Y171916D01*
X306419Y175196D02*
X309043D01*
X307731D01*
Y171260D01*
X312323Y175196D02*
X311011D01*
X310355Y174540D01*
Y171916D01*
X311011Y171260D01*
X312323D01*
X312979Y171916D01*
Y174540D01*
X312323Y175196D01*
X314291Y171260D02*
Y175196D01*
X316259D01*
X316915Y174540D01*
Y173228D01*
X316259Y172572D01*
X314291D01*
X315603D02*
X316915Y171260D01*
X362266Y273715D02*
X360267D01*
X361267D01*
Y268716D01*
X360267Y267717D01*
X359267D01*
X358268Y268716D01*
X364266Y267717D02*
X366265D01*
X365265D01*
Y273715D01*
X364266Y272715D01*
X369264D02*
X370264Y273715D01*
X372263D01*
X373263Y272715D01*
Y268716D01*
X372263Y267717D01*
X370264D01*
X369264Y268716D01*
Y272715D01*
X47640Y220473D02*
X53150D01*
Y223228D01*
X52231Y224146D01*
X48558D01*
X47640Y223228D01*
Y220473D01*
X53150Y225982D02*
X47640D01*
X49476Y227819D01*
X47640Y229656D01*
X53150D01*
X47640Y231492D02*
X53150Y235166D01*
X47640D02*
X53150Y231492D01*
X54068Y237003D02*
Y240676D01*
X47640Y242513D02*
Y244349D01*
Y243431D01*
X53150D01*
Y242513D01*
Y244349D01*
Y247104D02*
X47640D01*
X53150Y250778D01*
X47640D01*
X71262Y220473D02*
X76772D01*
Y223228D01*
X75853Y224146D01*
X72180D01*
X71262Y223228D01*
Y220473D01*
X76772Y225982D02*
X71262D01*
X73098Y227819D01*
X71262Y229656D01*
X76772D01*
X71262Y231492D02*
X76772Y235166D01*
X71262D02*
X76772Y231492D01*
X77690Y237003D02*
Y240676D01*
X71262Y245268D02*
Y243431D01*
X72180Y242513D01*
X75853D01*
X76772Y243431D01*
Y245268D01*
X75853Y246186D01*
X72180D01*
X71262Y245268D01*
Y248023D02*
X75853D01*
X76772Y248941D01*
Y250778D01*
X75853Y251696D01*
X71262D01*
Y253533D02*
Y257206D01*
Y255369D01*
X76772D01*
X316929Y233857D02*
Y228346D01*
Y230183D01*
X320602Y233857D01*
X317847Y231101D01*
X320602Y228346D01*
X322439D02*
Y232020D01*
X324276Y233857D01*
X326113Y232020D01*
Y228346D01*
Y231101D01*
X322439D01*
X327949Y228346D02*
Y233857D01*
X331623Y228346D01*
Y233857D01*
X333459Y228346D02*
Y232020D01*
X335296Y233857D01*
X337133Y232020D01*
Y228346D01*
Y231101D01*
X333459D01*
X338969Y233857D02*
Y228346D01*
X342643D01*
X344479Y227428D02*
X348153D01*
X349989Y228346D02*
X351826D01*
X350908D01*
Y233857D01*
X349989Y232938D01*
X271654Y233857D02*
Y228346D01*
Y230183D01*
X275327Y233857D01*
X272572Y231101D01*
X275327Y228346D01*
X277164D02*
Y232020D01*
X279000Y233857D01*
X280837Y232020D01*
Y228346D01*
Y231101D01*
X277164D01*
X282674Y228346D02*
Y233857D01*
X286347Y228346D01*
Y233857D01*
X288184Y228346D02*
Y232020D01*
X290020Y233857D01*
X291857Y232020D01*
Y228346D01*
Y231101D01*
X288184D01*
X293694Y233857D02*
Y228346D01*
X297367D01*
X299204Y227428D02*
X302877D01*
X308387Y228346D02*
X304714D01*
X308387Y232020D01*
Y232938D01*
X307469Y233857D01*
X305632D01*
X304714Y232938D01*
X226378Y233857D02*
Y228346D01*
Y230183D01*
X230051Y233857D01*
X227296Y231101D01*
X230051Y228346D01*
X231888D02*
Y232020D01*
X233725Y233857D01*
X235561Y232020D01*
Y228346D01*
Y231101D01*
X231888D01*
X237398Y228346D02*
Y233857D01*
X241071Y228346D01*
Y233857D01*
X242908Y228346D02*
Y232020D01*
X244745Y233857D01*
X246581Y232020D01*
Y228346D01*
Y231101D01*
X242908D01*
X248418Y233857D02*
Y228346D01*
X252091D01*
X253928Y227428D02*
X257601D01*
X259438Y232938D02*
X260356Y233857D01*
X262193D01*
X263111Y232938D01*
Y232020D01*
X262193Y231101D01*
X261275D01*
X262193D01*
X263111Y230183D01*
Y229265D01*
X262193Y228346D01*
X260356D01*
X259438Y229265D01*
X181102Y233857D02*
Y228346D01*
Y230183D01*
X184776Y233857D01*
X182021Y231101D01*
X184776Y228346D01*
X186612D02*
Y232020D01*
X188449Y233857D01*
X190286Y232020D01*
Y228346D01*
Y231101D01*
X186612D01*
X192122Y228346D02*
Y233857D01*
X195796Y228346D01*
Y233857D01*
X197633Y228346D02*
Y232020D01*
X199469Y233857D01*
X201306Y232020D01*
Y228346D01*
Y231101D01*
X197633D01*
X203142Y233857D02*
Y228346D01*
X206816D01*
X208652Y227428D02*
X212326D01*
X216918Y228346D02*
Y233857D01*
X214163Y231101D01*
X217836D01*
X135827Y233857D02*
Y228346D01*
Y230183D01*
X139500Y233857D01*
X136745Y231101D01*
X139500Y228346D01*
X141337D02*
Y232020D01*
X143174Y233857D01*
X145010Y232020D01*
Y228346D01*
Y231101D01*
X141337D01*
X146847Y228346D02*
Y233857D01*
X150520Y228346D01*
Y233857D01*
X152357Y228346D02*
Y232020D01*
X154194Y233857D01*
X156030Y232020D01*
Y228346D01*
Y231101D01*
X152357D01*
X157867Y233857D02*
Y228346D01*
X161540D01*
X163377Y227428D02*
X167050D01*
X172560Y233857D02*
X168887D01*
Y231101D01*
X170724Y232020D01*
X171642D01*
X172560Y231101D01*
Y229265D01*
X171642Y228346D01*
X169805D01*
X168887Y229265D01*
X90551Y233857D02*
Y228346D01*
Y230183D01*
X94225Y233857D01*
X91470Y231101D01*
X94225Y228346D01*
X96061D02*
Y232020D01*
X97898Y233857D01*
X99735Y232020D01*
Y228346D01*
Y231101D01*
X96061D01*
X101571Y228346D02*
Y233857D01*
X105245Y228346D01*
Y233857D01*
X107081Y228346D02*
Y232020D01*
X108918Y233857D01*
X110755Y232020D01*
Y228346D01*
Y231101D01*
X107081D01*
X112591Y233857D02*
Y228346D01*
X116265D01*
X118101Y227428D02*
X121775D01*
X127285Y233857D02*
X125448Y232938D01*
X123611Y231101D01*
Y229265D01*
X124530Y228346D01*
X126366D01*
X127285Y229265D01*
Y230183D01*
X126366Y231101D01*
X123611D01*
X169291Y248124D02*
Y242126D01*
X172290D01*
X173290Y243126D01*
Y244125D01*
X172290Y245125D01*
X169291D01*
X172290D01*
X173290Y246125D01*
Y247124D01*
X172290Y248124D01*
X169291D01*
X178288D02*
X176289D01*
X175289Y247124D01*
Y243126D01*
X176289Y242126D01*
X178288D01*
X179288Y243126D01*
Y247124D01*
X178288Y248124D01*
X181288D02*
Y242126D01*
Y244125D01*
X185286Y248124D01*
X182287Y245125D01*
X185286Y242126D01*
X191284Y247124D02*
X190285Y248124D01*
X188285D01*
X187285Y247124D01*
Y246125D01*
X188285Y245125D01*
X190285D01*
X191284Y244125D01*
Y243126D01*
X190285Y242126D01*
X188285D01*
X187285Y243126D01*
X193284Y248124D02*
Y242126D01*
Y244125D01*
X197282Y248124D01*
X194283Y245125D01*
X197282Y242126D01*
X202281Y248124D02*
X200281D01*
X199282Y247124D01*
Y243126D01*
X200281Y242126D01*
X202281D01*
X203280Y243126D01*
Y247124D01*
X202281Y248124D01*
X205280Y242126D02*
Y248124D01*
X208279D01*
X209278Y247124D01*
Y245125D01*
X208279Y244125D01*
X205280D01*
X207279D02*
X209278Y242126D01*
X211278Y248124D02*
X215277D01*
X213277D01*
Y242126D01*
X223274D02*
Y246125D01*
X224274D01*
X225273Y245125D01*
Y242126D01*
Y245125D01*
X226273Y246125D01*
X227273Y245125D01*
Y242126D01*
X229272D02*
X231271D01*
X230272D01*
Y246125D01*
X229272D01*
X234270Y242126D02*
Y246125D01*
X237269D01*
X238269Y245125D01*
Y242126D01*
X240268D02*
X242268D01*
X241268D01*
Y246125D01*
X240268D01*
X245267Y245125D02*
X249266D01*
X251265Y248124D02*
Y242126D01*
X255263D01*
X257263Y248124D02*
Y247124D01*
X259262Y245125D01*
X261262Y247124D01*
Y248124D01*
X259262Y245125D02*
Y242126D01*
X267260Y247124D02*
X266260Y248124D01*
X264261D01*
X263261Y247124D01*
Y246125D01*
X264261Y245125D01*
X266260D01*
X267260Y244125D01*
Y243126D01*
X266260Y242126D01*
X264261D01*
X263261Y243126D01*
X269259Y242126D02*
Y248124D01*
X272258D01*
X273258Y247124D01*
Y245125D01*
X272258Y244125D01*
X269259D01*
X271258D02*
X273258Y242126D01*
X279256Y248124D02*
X275257D01*
Y242126D01*
X279256D01*
X275257Y245125D02*
X277256D01*
X281255Y248124D02*
Y242126D01*
Y244125D01*
X285254Y248124D01*
X282255Y245125D01*
X285254Y242126D01*
X287253Y248124D02*
Y242126D01*
X291252D01*
X293251D02*
Y246125D01*
X295251Y248124D01*
X297250Y246125D01*
Y242126D01*
Y245125D01*
X293251D01*
X299249Y242126D02*
Y248124D01*
X301249Y246125D01*
X303248Y248124D01*
Y242126D01*
X309246Y248124D02*
X305247D01*
Y242126D01*
X309246D01*
X305247Y245125D02*
X307247D01*
X311245Y242126D02*
Y248124D01*
X315244Y242126D01*
Y248124D01*
X23622Y242219D02*
Y238220D01*
X25621Y236221D01*
X27621Y238220D01*
Y242219D01*
X29620Y236221D02*
Y240219D01*
X31620Y242219D01*
X33619Y240219D01*
Y236221D01*
Y239220D01*
X29620D01*
X35618Y236221D02*
Y240219D01*
X37618Y242219D01*
X39617Y240219D01*
Y236221D01*
Y239220D01*
X35618D01*
X27621Y253030D02*
X26621Y254030D01*
X24622D01*
X23622Y253030D01*
Y249031D01*
X24622Y248032D01*
X26621D01*
X27621Y249031D01*
Y251031D01*
X25621D01*
X29620Y248032D02*
Y254030D01*
X33619Y248032D01*
Y254030D01*
X35618D02*
Y248032D01*
X38617D01*
X39617Y249031D01*
Y253030D01*
X38617Y254030D01*
X35618D01*
X358330Y253030D02*
X357330Y254030D01*
X355330D01*
X354331Y253030D01*
Y249031D01*
X355330Y248032D01*
X357330D01*
X358330Y249031D01*
Y251031D01*
X356330D01*
X360329Y248032D02*
Y254030D01*
X364328Y248032D01*
Y254030D01*
X366327D02*
Y248032D01*
X369326D01*
X370326Y249031D01*
Y253030D01*
X369326Y254030D01*
X366327D01*
X354331Y242219D02*
Y238220D01*
X356330Y236221D01*
X358330Y238220D01*
Y242219D01*
X360329Y236221D02*
Y240219D01*
X362328Y242219D01*
X364328Y240219D01*
Y236221D01*
Y239220D01*
X360329D01*
X366327Y236221D02*
Y240219D01*
X368326Y242219D01*
X370326Y240219D01*
Y236221D01*
Y239220D01*
X366327D01*
X271654Y273621D02*
X272966D01*
X272309D01*
Y269685D01*
X271654D01*
X272966D01*
X274933Y273621D02*
Y269685D01*
X276901D01*
X277557Y270341D01*
Y272965D01*
X276901Y273621D01*
X274933D01*
X285429Y272965D02*
X284773Y273621D01*
X283461D01*
X282805Y272965D01*
Y270341D01*
X283461Y269685D01*
X284773D01*
X285429Y270341D01*
X288708Y273621D02*
X287397D01*
X286740Y272965D01*
Y270341D01*
X287397Y269685D01*
X288708D01*
X289364Y270341D01*
Y272965D01*
X288708Y273621D01*
X290676Y269685D02*
Y273621D01*
X293300Y269685D01*
Y273621D01*
X294612Y269685D02*
Y273621D01*
X297236Y269685D01*
Y273621D01*
X301172D02*
X298548D01*
Y269685D01*
X301172D01*
X298548Y271653D02*
X299860D01*
X305107Y272965D02*
X304451Y273621D01*
X303139D01*
X302484Y272965D01*
Y270341D01*
X303139Y269685D01*
X304451D01*
X305107Y270341D01*
X306419Y273621D02*
X309043D01*
X307731D01*
Y269685D01*
X312323Y273621D02*
X311011D01*
X310355Y272965D01*
Y270341D01*
X311011Y269685D01*
X312323D01*
X312979Y270341D01*
Y272965D01*
X312323Y273621D01*
X314291Y269685D02*
Y273621D01*
X316259D01*
X316915Y272965D01*
Y271653D01*
X316259Y270997D01*
X314291D01*
X315603D02*
X316915Y269685D01*
X362266Y372140D02*
X360267D01*
X361267D01*
Y367141D01*
X360267Y366142D01*
X359267D01*
X358268Y367141D01*
X364266Y366142D02*
X366265D01*
X365265D01*
Y372140D01*
X364266Y371140D01*
X369264D02*
X370264Y372140D01*
X372263D01*
X373263Y371140D01*
Y367141D01*
X372263Y366142D01*
X370264D01*
X369264Y367141D01*
Y371140D01*
X47640Y318898D02*
X53150D01*
Y321653D01*
X52231Y322571D01*
X48558D01*
X47640Y321653D01*
Y318898D01*
X53150Y324408D02*
X47640D01*
X49476Y326244D01*
X47640Y328081D01*
X53150D01*
X47640Y329918D02*
X53150Y333591D01*
X47640D02*
X53150Y329918D01*
X54068Y335428D02*
Y339101D01*
X47640Y340938D02*
Y342775D01*
Y341856D01*
X53150D01*
Y340938D01*
Y342775D01*
Y345530D02*
X47640D01*
X53150Y349203D01*
X47640D01*
X71262Y318898D02*
X76772D01*
Y321653D01*
X75853Y322571D01*
X72180D01*
X71262Y321653D01*
Y318898D01*
X76772Y324408D02*
X71262D01*
X73098Y326244D01*
X71262Y328081D01*
X76772D01*
X71262Y329918D02*
X76772Y333591D01*
X71262D02*
X76772Y329918D01*
X77690Y335428D02*
Y339101D01*
X71262Y343693D02*
Y341856D01*
X72180Y340938D01*
X75853D01*
X76772Y341856D01*
Y343693D01*
X75853Y344611D01*
X72180D01*
X71262Y343693D01*
Y346448D02*
X75853D01*
X76772Y347366D01*
Y349203D01*
X75853Y350121D01*
X71262D01*
Y351958D02*
Y355631D01*
Y353795D01*
X76772D01*
X316929Y332282D02*
Y326772D01*
Y328608D01*
X320602Y332282D01*
X317847Y329527D01*
X320602Y326772D01*
X322439D02*
Y330445D01*
X324276Y332282D01*
X326113Y330445D01*
Y326772D01*
Y329527D01*
X322439D01*
X327949Y326772D02*
Y332282D01*
X331623Y326772D01*
Y332282D01*
X333459Y326772D02*
Y330445D01*
X335296Y332282D01*
X337133Y330445D01*
Y326772D01*
Y329527D01*
X333459D01*
X338969Y332282D02*
Y326772D01*
X342643D01*
X344479Y325853D02*
X348153D01*
X349989Y326772D02*
X351826D01*
X350908D01*
Y332282D01*
X349989Y331363D01*
X271654Y332282D02*
Y326772D01*
Y328608D01*
X275327Y332282D01*
X272572Y329527D01*
X275327Y326772D01*
X277164D02*
Y330445D01*
X279000Y332282D01*
X280837Y330445D01*
Y326772D01*
Y329527D01*
X277164D01*
X282674Y326772D02*
Y332282D01*
X286347Y326772D01*
Y332282D01*
X288184Y326772D02*
Y330445D01*
X290020Y332282D01*
X291857Y330445D01*
Y326772D01*
Y329527D01*
X288184D01*
X293694Y332282D02*
Y326772D01*
X297367D01*
X299204Y325853D02*
X302877D01*
X308387Y326772D02*
X304714D01*
X308387Y330445D01*
Y331363D01*
X307469Y332282D01*
X305632D01*
X304714Y331363D01*
X226378Y332282D02*
Y326772D01*
Y328608D01*
X230051Y332282D01*
X227296Y329527D01*
X230051Y326772D01*
X231888D02*
Y330445D01*
X233725Y332282D01*
X235561Y330445D01*
Y326772D01*
Y329527D01*
X231888D01*
X237398Y326772D02*
Y332282D01*
X241071Y326772D01*
Y332282D01*
X242908Y326772D02*
Y330445D01*
X244745Y332282D01*
X246581Y330445D01*
Y326772D01*
Y329527D01*
X242908D01*
X248418Y332282D02*
Y326772D01*
X252091D01*
X253928Y325853D02*
X257601D01*
X259438Y331363D02*
X260356Y332282D01*
X262193D01*
X263111Y331363D01*
Y330445D01*
X262193Y329527D01*
X261275D01*
X262193D01*
X263111Y328608D01*
Y327690D01*
X262193Y326772D01*
X260356D01*
X259438Y327690D01*
X181102Y332282D02*
Y326772D01*
Y328608D01*
X184776Y332282D01*
X182021Y329527D01*
X184776Y326772D01*
X186612D02*
Y330445D01*
X188449Y332282D01*
X190286Y330445D01*
Y326772D01*
Y329527D01*
X186612D01*
X192122Y326772D02*
Y332282D01*
X195796Y326772D01*
Y332282D01*
X197633Y326772D02*
Y330445D01*
X199469Y332282D01*
X201306Y330445D01*
Y326772D01*
Y329527D01*
X197633D01*
X203142Y332282D02*
Y326772D01*
X206816D01*
X208652Y325853D02*
X212326D01*
X216918Y326772D02*
Y332282D01*
X214163Y329527D01*
X217836D01*
X135827Y332282D02*
Y326772D01*
Y328608D01*
X139500Y332282D01*
X136745Y329527D01*
X139500Y326772D01*
X141337D02*
Y330445D01*
X143174Y332282D01*
X145010Y330445D01*
Y326772D01*
Y329527D01*
X141337D01*
X146847Y326772D02*
Y332282D01*
X150520Y326772D01*
Y332282D01*
X152357Y326772D02*
Y330445D01*
X154194Y332282D01*
X156030Y330445D01*
Y326772D01*
Y329527D01*
X152357D01*
X157867Y332282D02*
Y326772D01*
X161540D01*
X163377Y325853D02*
X167050D01*
X172560Y332282D02*
X168887D01*
Y329527D01*
X170724Y330445D01*
X171642D01*
X172560Y329527D01*
Y327690D01*
X171642Y326772D01*
X169805D01*
X168887Y327690D01*
X90551Y332282D02*
Y326772D01*
Y328608D01*
X94225Y332282D01*
X91470Y329527D01*
X94225Y326772D01*
X96061D02*
Y330445D01*
X97898Y332282D01*
X99735Y330445D01*
Y326772D01*
Y329527D01*
X96061D01*
X101571Y326772D02*
Y332282D01*
X105245Y326772D01*
Y332282D01*
X107081Y326772D02*
Y330445D01*
X108918Y332282D01*
X110755Y330445D01*
Y326772D01*
Y329527D01*
X107081D01*
X112591Y332282D02*
Y326772D01*
X116265D01*
X118101Y325853D02*
X121775D01*
X127285Y332282D02*
X125448Y331363D01*
X123611Y329527D01*
Y327690D01*
X124530Y326772D01*
X126366D01*
X127285Y327690D01*
Y328608D01*
X126366Y329527D01*
X123611D01*
X169291Y346549D02*
Y340551D01*
X172290D01*
X173290Y341551D01*
Y342550D01*
X172290Y343550D01*
X169291D01*
X172290D01*
X173290Y344550D01*
Y345550D01*
X172290Y346549D01*
X169291D01*
X178288D02*
X176289D01*
X175289Y345550D01*
Y341551D01*
X176289Y340551D01*
X178288D01*
X179288Y341551D01*
Y345550D01*
X178288Y346549D01*
X181288D02*
Y340551D01*
Y342550D01*
X185286Y346549D01*
X182287Y343550D01*
X185286Y340551D01*
X191284Y345550D02*
X190285Y346549D01*
X188285D01*
X187285Y345550D01*
Y344550D01*
X188285Y343550D01*
X190285D01*
X191284Y342550D01*
Y341551D01*
X190285Y340551D01*
X188285D01*
X187285Y341551D01*
X193284Y346549D02*
Y340551D01*
Y342550D01*
X197282Y346549D01*
X194283Y343550D01*
X197282Y340551D01*
X202281Y346549D02*
X200281D01*
X199282Y345550D01*
Y341551D01*
X200281Y340551D01*
X202281D01*
X203280Y341551D01*
Y345550D01*
X202281Y346549D01*
X205280Y340551D02*
Y346549D01*
X208279D01*
X209278Y345550D01*
Y343550D01*
X208279Y342550D01*
X205280D01*
X207279D02*
X209278Y340551D01*
X211278Y346549D02*
X215277D01*
X213277D01*
Y340551D01*
X223274D02*
Y344550D01*
X224274D01*
X225273Y343550D01*
Y340551D01*
Y343550D01*
X226273Y344550D01*
X227273Y343550D01*
Y340551D01*
X229272D02*
X231271D01*
X230272D01*
Y344550D01*
X229272D01*
X234270Y340551D02*
Y344550D01*
X237269D01*
X238269Y343550D01*
Y340551D01*
X240268D02*
X242268D01*
X241268D01*
Y344550D01*
X240268D01*
X245267Y343550D02*
X249266D01*
X251265Y346549D02*
Y340551D01*
X255263D01*
X257263Y346549D02*
Y345550D01*
X259262Y343550D01*
X261262Y345550D01*
Y346549D01*
X259262Y343550D02*
Y340551D01*
X267260Y345550D02*
X266260Y346549D01*
X264261D01*
X263261Y345550D01*
Y344550D01*
X264261Y343550D01*
X266260D01*
X267260Y342550D01*
Y341551D01*
X266260Y340551D01*
X264261D01*
X263261Y341551D01*
X269259Y340551D02*
Y346549D01*
X272258D01*
X273258Y345550D01*
Y343550D01*
X272258Y342550D01*
X269259D01*
X271258D02*
X273258Y340551D01*
X279256Y346549D02*
X275257D01*
Y340551D01*
X279256D01*
X275257Y343550D02*
X277256D01*
X281255Y346549D02*
Y340551D01*
Y342550D01*
X285254Y346549D01*
X282255Y343550D01*
X285254Y340551D01*
X287253Y346549D02*
Y340551D01*
X291252D01*
X293251D02*
Y344550D01*
X295251Y346549D01*
X297250Y344550D01*
Y340551D01*
Y343550D01*
X293251D01*
X299249Y340551D02*
Y346549D01*
X301249Y344550D01*
X303248Y346549D01*
Y340551D01*
X309246Y346549D02*
X305247D01*
Y340551D01*
X309246D01*
X305247Y343550D02*
X307247D01*
X311245Y340551D02*
Y346549D01*
X315244Y340551D01*
Y346549D01*
X23622Y340644D02*
Y336645D01*
X25621Y334646D01*
X27621Y336645D01*
Y340644D01*
X29620Y334646D02*
Y338644D01*
X31620Y340644D01*
X33619Y338644D01*
Y334646D01*
Y337645D01*
X29620D01*
X35618Y334646D02*
Y338644D01*
X37618Y340644D01*
X39617Y338644D01*
Y334646D01*
Y337645D01*
X35618D01*
X27621Y351455D02*
X26621Y352455D01*
X24622D01*
X23622Y351455D01*
Y347456D01*
X24622Y346457D01*
X26621D01*
X27621Y347456D01*
Y349456D01*
X25621D01*
X29620Y346457D02*
Y352455D01*
X33619Y346457D01*
Y352455D01*
X35618D02*
Y346457D01*
X38617D01*
X39617Y347456D01*
Y351455D01*
X38617Y352455D01*
X35618D01*
X358330Y351455D02*
X357330Y352455D01*
X355330D01*
X354331Y351455D01*
Y347456D01*
X355330Y346457D01*
X357330D01*
X358330Y347456D01*
Y349456D01*
X356330D01*
X360329Y346457D02*
Y352455D01*
X364328Y346457D01*
Y352455D01*
X366327D02*
Y346457D01*
X369326D01*
X370326Y347456D01*
Y351455D01*
X369326Y352455D01*
X366327D01*
X354331Y340644D02*
Y336645D01*
X356330Y334646D01*
X358330Y336645D01*
Y340644D01*
X360329Y334646D02*
Y338644D01*
X362328Y340644D01*
X364328Y338644D01*
Y334646D01*
Y337645D01*
X360329D01*
X366327Y334646D02*
Y338644D01*
X368326Y340644D01*
X370326Y338644D01*
Y334646D01*
Y337645D01*
X366327D01*
X271654Y372046D02*
X272966D01*
X272309D01*
Y368110D01*
X271654D01*
X272966D01*
X274933Y372046D02*
Y368110D01*
X276901D01*
X277557Y368766D01*
Y371390D01*
X276901Y372046D01*
X274933D01*
X285429Y371390D02*
X284773Y372046D01*
X283461D01*
X282805Y371390D01*
Y368766D01*
X283461Y368110D01*
X284773D01*
X285429Y368766D01*
X288708Y372046D02*
X287397D01*
X286740Y371390D01*
Y368766D01*
X287397Y368110D01*
X288708D01*
X289364Y368766D01*
Y371390D01*
X288708Y372046D01*
X290676Y368110D02*
Y372046D01*
X293300Y368110D01*
Y372046D01*
X294612Y368110D02*
Y372046D01*
X297236Y368110D01*
Y372046D01*
X301172D02*
X298548D01*
Y368110D01*
X301172D01*
X298548Y370078D02*
X299860D01*
X305107Y371390D02*
X304451Y372046D01*
X303139D01*
X302484Y371390D01*
Y368766D01*
X303139Y368110D01*
X304451D01*
X305107Y368766D01*
X306419Y372046D02*
X309043D01*
X307731D01*
Y368110D01*
X312323Y372046D02*
X311011D01*
X310355Y371390D01*
Y368766D01*
X311011Y368110D01*
X312323D01*
X312979Y368766D01*
Y371390D01*
X312323Y372046D01*
X314291Y368110D02*
Y372046D01*
X316259D01*
X316915Y371390D01*
Y370078D01*
X316259Y369422D01*
X314291D01*
X315603D02*
X316915Y368110D01*
M02*
