G04 Layer_Color=16711935*
%FSLAX25Y25*%
%MOIN*%
G70*
G01*
G75*
%ADD19C,0.06312*%
%ADD20R,0.06312X0.06312*%
%ADD21C,0.24422*%
%ADD22C,0.07887*%
%ADD23R,0.07887X0.07887*%
%ADD24R,0.07887X0.07887*%
D19*
X322835Y15748D02*
D03*
X330709D02*
D03*
X338583D02*
D03*
X277165D02*
D03*
X285039D02*
D03*
X292913D02*
D03*
X231496D02*
D03*
X239370D02*
D03*
X247244D02*
D03*
X185827D02*
D03*
X193701D02*
D03*
X201575D02*
D03*
X140157D02*
D03*
X148031D02*
D03*
X155905D02*
D03*
X94488D02*
D03*
X102362D02*
D03*
X110236D02*
D03*
X322835Y114173D02*
D03*
X330709D02*
D03*
X338583D02*
D03*
X277165D02*
D03*
X285039D02*
D03*
X292913D02*
D03*
X231496D02*
D03*
X239370D02*
D03*
X247244D02*
D03*
X185827D02*
D03*
X193701D02*
D03*
X201575D02*
D03*
X140157D02*
D03*
X148031D02*
D03*
X155905D02*
D03*
X94488D02*
D03*
X102362D02*
D03*
X110236D02*
D03*
X322835Y212598D02*
D03*
X330709D02*
D03*
X338583D02*
D03*
X277165D02*
D03*
X285039D02*
D03*
X292913D02*
D03*
X231496D02*
D03*
X239370D02*
D03*
X247244D02*
D03*
X185827D02*
D03*
X193701D02*
D03*
X201575D02*
D03*
X140157D02*
D03*
X148031D02*
D03*
X155905D02*
D03*
X94488D02*
D03*
X102362D02*
D03*
X110236D02*
D03*
X322835Y311024D02*
D03*
X330709D02*
D03*
X338583D02*
D03*
X277165D02*
D03*
X285039D02*
D03*
X292913D02*
D03*
X231496D02*
D03*
X239370D02*
D03*
X247244D02*
D03*
X185827D02*
D03*
X193701D02*
D03*
X201575D02*
D03*
X140157D02*
D03*
X148031D02*
D03*
X155905D02*
D03*
X94488D02*
D03*
X102362D02*
D03*
X110236D02*
D03*
D20*
X346457Y15748D02*
D03*
X300787D02*
D03*
X255118D02*
D03*
X209449D02*
D03*
X163779D02*
D03*
X118110D02*
D03*
X346457Y114173D02*
D03*
X300787D02*
D03*
X255118D02*
D03*
X209449D02*
D03*
X163779D02*
D03*
X118110D02*
D03*
X346457Y212598D02*
D03*
X300787D02*
D03*
X255118D02*
D03*
X209449D02*
D03*
X163779D02*
D03*
X118110D02*
D03*
X346457Y311024D02*
D03*
X300787D02*
D03*
X255118D02*
D03*
X209449D02*
D03*
X163779D02*
D03*
X118110D02*
D03*
D21*
X196850Y78740D02*
D03*
X374016Y19685D02*
D03*
X19685D02*
D03*
X196850Y177165D02*
D03*
X374016Y118110D02*
D03*
X19685D02*
D03*
X196850Y275591D02*
D03*
X374016Y216535D02*
D03*
X19685D02*
D03*
X196850Y374016D02*
D03*
X374016Y314961D02*
D03*
X19685D02*
D03*
D22*
X51181Y15748D02*
D03*
X74803D02*
D03*
X151614Y69803D02*
D03*
X141614D02*
D03*
X131614D02*
D03*
X121614D02*
D03*
X111614D02*
D03*
X101614D02*
D03*
X91614D02*
D03*
X81614D02*
D03*
X71614D02*
D03*
X61614D02*
D03*
X51614D02*
D03*
X41614D02*
D03*
X31614D02*
D03*
X21614D02*
D03*
X11614D02*
D03*
X161614Y79803D02*
D03*
X151614D02*
D03*
X141614D02*
D03*
X131614D02*
D03*
X121614D02*
D03*
X111614D02*
D03*
X101614D02*
D03*
X91614D02*
D03*
X81614D02*
D03*
X71614D02*
D03*
X61614D02*
D03*
X51614D02*
D03*
X41614D02*
D03*
X31614D02*
D03*
X21614D02*
D03*
X11614D02*
D03*
X328583Y69803D02*
D03*
Y79803D02*
D03*
X338583Y69803D02*
D03*
X348583D02*
D03*
X338583Y79803D02*
D03*
X379921Y53150D02*
D03*
X13780D02*
D03*
X51181Y114173D02*
D03*
X74803D02*
D03*
X151614Y168228D02*
D03*
X141614D02*
D03*
X131614D02*
D03*
X121614D02*
D03*
X111614D02*
D03*
X101614D02*
D03*
X91614D02*
D03*
X81614D02*
D03*
X71614D02*
D03*
X61614D02*
D03*
X51614D02*
D03*
X41614D02*
D03*
X31614D02*
D03*
X21614D02*
D03*
X11614D02*
D03*
X161614Y178228D02*
D03*
X151614D02*
D03*
X141614D02*
D03*
X131614D02*
D03*
X121614D02*
D03*
X111614D02*
D03*
X101614D02*
D03*
X91614D02*
D03*
X81614D02*
D03*
X71614D02*
D03*
X61614D02*
D03*
X51614D02*
D03*
X41614D02*
D03*
X31614D02*
D03*
X21614D02*
D03*
X11614D02*
D03*
X328583Y168228D02*
D03*
Y178228D02*
D03*
X338583Y168228D02*
D03*
X348583D02*
D03*
X338583Y178228D02*
D03*
X379921Y151575D02*
D03*
X13780D02*
D03*
X51181Y212598D02*
D03*
X74803D02*
D03*
X151614Y266654D02*
D03*
X141614D02*
D03*
X131614D02*
D03*
X121614D02*
D03*
X111614D02*
D03*
X101614D02*
D03*
X91614D02*
D03*
X81614D02*
D03*
X71614D02*
D03*
X61614D02*
D03*
X51614D02*
D03*
X41614D02*
D03*
X31614D02*
D03*
X21614D02*
D03*
X11614D02*
D03*
X161614Y276654D02*
D03*
X151614D02*
D03*
X141614D02*
D03*
X131614D02*
D03*
X121614D02*
D03*
X111614D02*
D03*
X101614D02*
D03*
X91614D02*
D03*
X81614D02*
D03*
X71614D02*
D03*
X61614D02*
D03*
X51614D02*
D03*
X41614D02*
D03*
X31614D02*
D03*
X21614D02*
D03*
X11614D02*
D03*
X328583Y266653D02*
D03*
Y276654D02*
D03*
X338583Y266653D02*
D03*
X348583D02*
D03*
X338583Y276654D02*
D03*
X379921Y250000D02*
D03*
X13780D02*
D03*
X51181Y311024D02*
D03*
X74803D02*
D03*
X151614Y365079D02*
D03*
X141614D02*
D03*
X131614D02*
D03*
X121614D02*
D03*
X111614D02*
D03*
X101614D02*
D03*
X91614D02*
D03*
X81614D02*
D03*
X71614D02*
D03*
X61614D02*
D03*
X51614D02*
D03*
X41614D02*
D03*
X31614D02*
D03*
X21614D02*
D03*
X11614D02*
D03*
X161614Y375079D02*
D03*
X151614D02*
D03*
X141614D02*
D03*
X131614D02*
D03*
X121614D02*
D03*
X111614D02*
D03*
X101614D02*
D03*
X91614D02*
D03*
X81614D02*
D03*
X71614D02*
D03*
X61614D02*
D03*
X51614D02*
D03*
X41614D02*
D03*
X31614D02*
D03*
X21614D02*
D03*
X11614D02*
D03*
X328583Y365079D02*
D03*
Y375079D02*
D03*
X338583Y365079D02*
D03*
X348583D02*
D03*
X338583Y375079D02*
D03*
X379921Y348425D02*
D03*
X13780D02*
D03*
D23*
X41181Y15748D02*
D03*
X64803D02*
D03*
X161614Y69803D02*
D03*
X348583Y79803D02*
D03*
X41181Y114173D02*
D03*
X64803D02*
D03*
X161614Y168228D02*
D03*
X348583Y178228D02*
D03*
X41181Y212598D02*
D03*
X64803D02*
D03*
X161614Y266654D02*
D03*
X348583Y276654D02*
D03*
X41181Y311024D02*
D03*
X64803D02*
D03*
X161614Y365079D02*
D03*
X348583Y375079D02*
D03*
D24*
X379921Y43150D02*
D03*
X13780D02*
D03*
X379921Y141575D02*
D03*
X13780D02*
D03*
X379921Y240000D02*
D03*
X13780D02*
D03*
X379921Y338425D02*
D03*
X13780D02*
D03*
M02*
