G04 Layer_Color=8388736*
%FSLAX25Y25*%
%MOIN*%
G70*
G01*
G75*
%ADD11C,0.00787*%
%ADD18C,0.01000*%
D11*
X0Y0D02*
X393701D01*
Y393701D01*
X0D02*
X393701D01*
X0Y0D02*
Y393701D01*
Y98425D02*
X393701D01*
X-0Y196850D02*
X393701D01*
X0Y295276D02*
X393701D01*
D18*
X401574Y96457D02*
X399606Y98425D01*
X401574Y100392D01*
X403542Y98425D02*
X406166D01*
X411413Y100392D02*
Y97769D01*
X412725Y96457D01*
X414037Y97769D01*
Y100392D01*
X417973Y99736D02*
X417317Y100392D01*
X416005D01*
X415349Y99736D01*
Y97113D01*
X416005Y96457D01*
X417317D01*
X417973Y97113D01*
X419285Y100392D02*
Y97113D01*
X419941Y96457D01*
X421253D01*
X421909Y97113D01*
Y100392D01*
X423221D02*
X425845D01*
X424533D01*
Y96457D01*
X401574Y194882D02*
X399606Y196850D01*
X401574Y198818D01*
X403542Y196850D02*
X406166D01*
X411413Y198818D02*
Y196194D01*
X412725Y194882D01*
X414037Y196194D01*
Y198818D01*
X417973Y198162D02*
X417317Y198818D01*
X416005D01*
X415349Y198162D01*
Y195538D01*
X416005Y194882D01*
X417317D01*
X417973Y195538D01*
X419285Y198818D02*
Y195538D01*
X419941Y194882D01*
X421253D01*
X421909Y195538D01*
Y198818D01*
X423221D02*
X425845D01*
X424533D01*
Y194882D01*
X399606Y293307D02*
X397638Y295275D01*
X399606Y297243D01*
X401574Y295275D02*
X404197D01*
X409445Y297243D02*
Y294619D01*
X410757Y293307D01*
X412069Y294619D01*
Y297243D01*
X416005Y296587D02*
X415349Y297243D01*
X414037D01*
X413381Y296587D01*
Y293963D01*
X414037Y293307D01*
X415349D01*
X416005Y293963D01*
X417316Y297243D02*
Y293963D01*
X417973Y293307D01*
X419284D01*
X419940Y293963D01*
Y297243D01*
X421252D02*
X423876D01*
X422564D01*
Y293307D01*
X-33465Y297243D02*
Y294619D01*
X-32153Y293307D01*
X-30841Y294619D01*
Y297243D01*
X-26905Y296587D02*
X-27561Y297243D01*
X-28873D01*
X-29529Y296587D01*
Y293963D01*
X-28873Y293307D01*
X-27561D01*
X-26905Y293963D01*
X-25593Y297243D02*
Y293963D01*
X-24937Y293307D01*
X-23625D01*
X-22969Y293963D01*
Y297243D01*
X-21657D02*
X-19034D01*
X-20345D01*
Y293307D01*
X-13786Y295275D02*
X-11162D01*
X-9850Y293307D02*
X-7882Y295275D01*
X-9850Y297243D01*
X-31496Y198818D02*
Y196194D01*
X-30184Y194882D01*
X-28872Y196194D01*
Y198818D01*
X-24937Y198162D02*
X-25592Y198818D01*
X-26904D01*
X-27560Y198162D01*
Y195538D01*
X-26904Y194882D01*
X-25592D01*
X-24937Y195538D01*
X-23625Y198818D02*
Y195538D01*
X-22969Y194882D01*
X-21657D01*
X-21001Y195538D01*
Y198818D01*
X-19689D02*
X-17065D01*
X-18377D01*
Y194882D01*
X-11817Y196850D02*
X-9194D01*
X-7882Y194882D02*
X-5914Y196850D01*
X-7882Y198818D01*
X-31496Y100392D02*
Y97769D01*
X-30184Y96457D01*
X-28872Y97769D01*
Y100392D01*
X-24937Y99736D02*
X-25592Y100392D01*
X-26904D01*
X-27560Y99736D01*
Y97113D01*
X-26904Y96457D01*
X-25592D01*
X-24937Y97113D01*
X-23625Y100392D02*
Y97113D01*
X-22969Y96457D01*
X-21657D01*
X-21001Y97113D01*
Y100392D01*
X-19689D02*
X-17065D01*
X-18377D01*
Y96457D01*
X-11817Y98425D02*
X-9194D01*
X-7882Y96457D02*
X-5914Y98425D01*
X-7882Y100392D01*
M02*
