G04 Layer_Color=16711935*
%FSLAX25Y25*%
%MOIN*%
G70*
G01*
G75*
%ADD50C,0.07717*%
%ADD51R,0.07717X0.07717*%
%ADD52R,0.07717X0.07717*%
%ADD53C,0.07323*%
%ADD54R,0.07323X0.07323*%
%ADD55C,0.24252*%
%ADD56C,0.02598*%
D50*
X10748Y181299D02*
D03*
Y171299D02*
D03*
Y161299D02*
D03*
Y151299D02*
D03*
Y141299D02*
D03*
Y131299D02*
D03*
Y121299D02*
D03*
Y111299D02*
D03*
Y101299D02*
D03*
Y91299D02*
D03*
Y81299D02*
D03*
Y71299D02*
D03*
Y61299D02*
D03*
Y51299D02*
D03*
Y41299D02*
D03*
Y31299D02*
D03*
X20748Y41299D02*
D03*
Y51299D02*
D03*
Y61299D02*
D03*
Y71299D02*
D03*
Y81299D02*
D03*
Y91299D02*
D03*
Y101299D02*
D03*
Y111299D02*
D03*
Y121299D02*
D03*
Y131299D02*
D03*
Y141299D02*
D03*
Y151299D02*
D03*
Y161299D02*
D03*
Y171299D02*
D03*
Y181299D02*
D03*
X61181Y16535D02*
D03*
X51181D02*
D03*
D51*
X20748Y31299D02*
D03*
D52*
X41181Y16535D02*
D03*
D53*
X102441Y15590D02*
D03*
Y25591D02*
D03*
X112441Y15590D02*
D03*
Y25591D02*
D03*
X122441Y15590D02*
D03*
D54*
Y25591D02*
D03*
D55*
X149606Y39370D02*
D03*
Y173228D02*
D03*
D56*
X130610Y84252D02*
D03*
Y128543D02*
D03*
X56496Y29626D02*
D03*
X31102Y104626D02*
D03*
X26575Y97441D02*
D03*
X27362Y92421D02*
D03*
X32677Y142421D02*
D03*
X21457Y17028D02*
D03*
X35433Y110728D02*
D03*
X70079Y120571D02*
D03*
X66929Y120571D02*
D03*
X63779D02*
D03*
X92126D02*
D03*
X95276D02*
D03*
X94488Y94488D02*
D03*
X88976Y120571D02*
D03*
X85827D02*
D03*
X52658Y109449D02*
D03*
Y112598D02*
D03*
X35728Y127657D02*
D03*
X106299Y129921D02*
D03*
X62992Y78740D02*
D03*
X101181Y179528D02*
D03*
X87402Y146063D02*
D03*
X55118Y78740D02*
D03*
X116142Y126378D02*
D03*
X84252Y58661D02*
D03*
X68898Y59055D02*
D03*
X109252Y39370D02*
D03*
X82677Y78740D02*
D03*
X106398Y143110D02*
D03*
X84153Y137795D02*
D03*
X65354Y134350D02*
D03*
X43681Y178465D02*
D03*
X63858D02*
D03*
M02*
