G04 Layer_Physical_Order=2*
G04 Layer_Color=16711680*
%FSLAX25Y25*%
%MOIN*%
G70*
G01*
G75*
%ADD19C,0.01969*%
%ADD20C,0.01181*%
%ADD21C,0.03937*%
%ADD22C,0.23622*%
%ADD23R,0.06693X0.06693*%
%ADD24C,0.06693*%
%ADD25R,0.07087X0.07087*%
%ADD26C,0.07087*%
%ADD27R,0.07087X0.07087*%
%ADD28C,0.05000*%
G36*
X188976Y0D02*
X0D01*
Y188976D01*
X188976D01*
Y0D01*
D02*
G37*
%LPC*%
G36*
X126063Y29760D02*
X124984Y29618D01*
X123978Y29201D01*
X123115Y28539D01*
X122452Y27675D01*
X122036Y26670D01*
X121894Y25591D01*
X122036Y24511D01*
X122452Y23506D01*
X123115Y22642D01*
X123978Y21980D01*
X124984Y21563D01*
X125524Y21492D01*
X125524Y20492D01*
X126602D01*
X126602Y21492D01*
X127142Y21563D01*
X128148Y21980D01*
X129011Y22642D01*
X129674Y23506D01*
X130090Y24511D01*
X130233Y25591D01*
X130090Y26670D01*
X129674Y27675D01*
X129011Y28539D01*
X128148Y29201D01*
X127142Y29618D01*
X126063Y29760D01*
D02*
G37*
G36*
X136063D02*
X134984Y29618D01*
X133978Y29201D01*
X133115Y28539D01*
X132452Y27675D01*
X132036Y26670D01*
X131894Y25591D01*
X132036Y24511D01*
X132452Y23506D01*
X133115Y22642D01*
X133978Y21980D01*
X134984Y21563D01*
X136063Y21421D01*
X137142Y21563D01*
X138148Y21980D01*
X139011Y22642D01*
X139674Y23506D01*
X140090Y24511D01*
X140233Y25591D01*
X140090Y26670D01*
X139674Y27675D01*
X139011Y28539D01*
X138148Y29201D01*
X137142Y29618D01*
X136063Y29760D01*
D02*
G37*
G36*
X150197Y29724D02*
X141929D01*
Y21457D01*
X150197D01*
Y29724D01*
D02*
G37*
G36*
X85394Y21040D02*
Y17126D01*
X89308D01*
X89230Y17721D01*
X88772Y18827D01*
X88043Y19776D01*
X87094Y20504D01*
X85989Y20962D01*
X85394Y21040D01*
D02*
G37*
G36*
X89308Y15945D02*
X85394D01*
Y12031D01*
X85989Y12109D01*
X87094Y12567D01*
X88043Y13295D01*
X88772Y14244D01*
X89230Y15349D01*
X89308Y15945D01*
D02*
G37*
G36*
X125472Y19897D02*
X124928Y19825D01*
X123871Y19387D01*
X122963Y18690D01*
X122266Y17783D01*
X121828Y16725D01*
X121757Y16181D01*
X125472D01*
Y19897D01*
D02*
G37*
G36*
X126654D02*
Y16181D01*
X130369D01*
X130298Y16725D01*
X129860Y17783D01*
X129163Y18690D01*
X128255Y19387D01*
X127198Y19825D01*
X126654Y19897D01*
D02*
G37*
G36*
X109752Y78150D02*
X106890D01*
Y75288D01*
X107213Y75330D01*
X108064Y75683D01*
X108795Y76244D01*
X109356Y76975D01*
X109709Y77826D01*
X109752Y78150D01*
D02*
G37*
G36*
X105709D02*
X102847D01*
X102889Y77826D01*
X103242Y76975D01*
X103803Y76244D01*
X104534Y75683D01*
X105385Y75330D01*
X105709Y75288D01*
Y78150D01*
D02*
G37*
G36*
X133465Y42823D02*
Y39961D01*
X136327D01*
X136284Y40284D01*
X135931Y41135D01*
X135370Y41866D01*
X134639Y42427D01*
X133788Y42780D01*
X133465Y42823D01*
D02*
G37*
G36*
X132283D02*
X131960Y42780D01*
X131109Y42427D01*
X130378Y41866D01*
X129817Y41135D01*
X129464Y40284D01*
X129422Y39961D01*
X132283D01*
Y42823D01*
D02*
G37*
G36*
X173228Y52008D02*
X171251Y51852D01*
X169323Y51389D01*
X167491Y50630D01*
X165800Y49594D01*
X164292Y48306D01*
X163005Y46798D01*
X161968Y45107D01*
X161209Y43275D01*
X160747Y41347D01*
X160591Y39370D01*
X160747Y37393D01*
X161209Y35465D01*
X161968Y33633D01*
X163005Y31942D01*
X164292Y30434D01*
X165800Y29146D01*
X167491Y28110D01*
X169323Y27351D01*
X171251Y26888D01*
X173228Y26733D01*
X175205Y26888D01*
X177134Y27351D01*
X178966Y28110D01*
X180656Y29146D01*
X182164Y30434D01*
X183452Y31942D01*
X184488Y33633D01*
X185247Y35465D01*
X185710Y37393D01*
X185866Y39370D01*
X185710Y41347D01*
X185247Y43275D01*
X184488Y45107D01*
X183452Y46798D01*
X182164Y48306D01*
X180656Y49594D01*
X178966Y50630D01*
X177134Y51389D01*
X175205Y51852D01*
X173228Y52008D01*
D02*
G37*
G36*
X132283Y38780D02*
X129422D01*
X129464Y38456D01*
X129817Y37605D01*
X130378Y36874D01*
X131109Y36313D01*
X131960Y35960D01*
X132283Y35918D01*
Y38780D01*
D02*
G37*
G36*
X136327D02*
X133465D01*
Y35918D01*
X133788Y35960D01*
X134639Y36313D01*
X135370Y36874D01*
X135931Y37605D01*
X136284Y38456D01*
X136327Y38780D01*
D02*
G37*
G36*
X146063Y19760D02*
X144984Y19618D01*
X143978Y19202D01*
X143115Y18539D01*
X142452Y17675D01*
X142035Y16670D01*
X141893Y15590D01*
X142035Y14511D01*
X142452Y13506D01*
X143115Y12642D01*
X143978Y11980D01*
X144984Y11563D01*
X146063Y11421D01*
X147142Y11563D01*
X148148Y11980D01*
X149011Y12642D01*
X149674Y13506D01*
X150090Y14511D01*
X150233Y15590D01*
X150090Y16670D01*
X149674Y17675D01*
X149011Y18539D01*
X148148Y19202D01*
X147142Y19618D01*
X146063Y19760D01*
D02*
G37*
G36*
X173228Y185866D02*
X171251Y185710D01*
X169323Y185247D01*
X167491Y184488D01*
X165800Y183452D01*
X164292Y182164D01*
X163005Y180656D01*
X161968Y178966D01*
X161209Y177134D01*
X160747Y175205D01*
X160591Y173228D01*
X160747Y171251D01*
X161209Y169323D01*
X161968Y167491D01*
X163005Y165800D01*
X164292Y164292D01*
X165800Y163005D01*
X167491Y161968D01*
X169323Y161209D01*
X171251Y160747D01*
X173228Y160591D01*
X175205Y160747D01*
X177134Y161209D01*
X178966Y161968D01*
X180656Y163005D01*
X182164Y164292D01*
X183452Y165800D01*
X184488Y167491D01*
X185247Y169323D01*
X185710Y171251D01*
X185866Y173228D01*
X185710Y175205D01*
X185247Y177134D01*
X184488Y178966D01*
X183452Y180656D01*
X182164Y182164D01*
X180656Y183452D01*
X178966Y184488D01*
X177134Y185247D01*
X175205Y185710D01*
X173228Y185866D01*
D02*
G37*
G36*
X63090Y174614D02*
Y171752D01*
X65952D01*
X65910Y172075D01*
X65557Y172926D01*
X64996Y173658D01*
X64265Y174219D01*
X63414Y174571D01*
X63090Y174614D01*
D02*
G37*
G36*
X20748Y185667D02*
X19617Y185518D01*
X18564Y185082D01*
X17659Y184388D01*
X16965Y183483D01*
X16529Y182430D01*
X14967D01*
X14531Y183483D01*
X13837Y184388D01*
X12932Y185082D01*
X11879Y185518D01*
X10748Y185667D01*
X9618Y185518D01*
X8564Y185082D01*
X7659Y184388D01*
X6965Y183483D01*
X6529Y182430D01*
X6380Y181299D01*
X6529Y180169D01*
X6965Y179115D01*
X7659Y178210D01*
X8564Y177516D01*
X9618Y177080D01*
Y175518D01*
X8564Y175082D01*
X7659Y174388D01*
X6965Y173483D01*
X6529Y172430D01*
X6380Y171299D01*
X6529Y170169D01*
X6965Y169115D01*
X7659Y168210D01*
X8564Y167516D01*
X9257Y167229D01*
X9359Y166727D01*
X9328Y165863D01*
X9266Y165603D01*
X8457Y165268D01*
X7508Y164540D01*
X6780Y163591D01*
X6322Y162485D01*
X6243Y161890D01*
X10748D01*
Y160709D01*
X6243D01*
X6322Y160113D01*
X6780Y159008D01*
X7508Y158059D01*
X8457Y157331D01*
X8889Y157151D01*
Y155447D01*
X8457Y155268D01*
X7508Y154540D01*
X6780Y153591D01*
X6322Y152485D01*
X6243Y151890D01*
X10748D01*
Y150709D01*
X6243D01*
X6322Y150113D01*
X6780Y149008D01*
X7508Y148059D01*
X8457Y147331D01*
X8889Y147152D01*
Y145447D01*
X8457Y145268D01*
X7508Y144539D01*
X6780Y143590D01*
X6322Y142485D01*
X6243Y141890D01*
X10748D01*
Y140709D01*
X6243D01*
X6322Y140113D01*
X6780Y139008D01*
X7508Y138059D01*
X8457Y137331D01*
X9266Y136995D01*
X9328Y136735D01*
X9359Y135871D01*
X9257Y135369D01*
X8564Y135082D01*
X7659Y134388D01*
X6965Y133483D01*
X6529Y132430D01*
X6380Y131299D01*
X6529Y130169D01*
X6965Y129115D01*
X7659Y128210D01*
X8564Y127516D01*
X9257Y127229D01*
X9359Y126727D01*
X9328Y125863D01*
X9266Y125603D01*
X8457Y125268D01*
X7508Y124539D01*
X6780Y123591D01*
X6322Y122485D01*
X6243Y121890D01*
X10748D01*
Y120709D01*
X6243D01*
X6322Y120113D01*
X6780Y119008D01*
X7508Y118059D01*
X8457Y117331D01*
X9266Y116996D01*
X9328Y116735D01*
X9359Y115871D01*
X9257Y115369D01*
X8564Y115082D01*
X7659Y114388D01*
X6965Y113483D01*
X6529Y112430D01*
X6380Y111299D01*
X6529Y110169D01*
X6965Y109115D01*
X7659Y108211D01*
X8564Y107516D01*
X9257Y107229D01*
X9359Y106728D01*
X9328Y105863D01*
X9266Y105603D01*
X8457Y105268D01*
X7508Y104540D01*
X6780Y103591D01*
X6322Y102485D01*
X6243Y101890D01*
X10748D01*
Y100709D01*
X6243D01*
X6322Y100113D01*
X6780Y99008D01*
X7508Y98059D01*
X8457Y97331D01*
X9266Y96996D01*
X9328Y96736D01*
X9359Y95871D01*
X9257Y95369D01*
X8564Y95082D01*
X7659Y94388D01*
X6965Y93483D01*
X6529Y92430D01*
X6380Y91299D01*
X6529Y90169D01*
X6965Y89115D01*
X7659Y88210D01*
X8564Y87516D01*
X9257Y87229D01*
X9359Y86727D01*
X9328Y85863D01*
X9266Y85603D01*
X8457Y85268D01*
X7508Y84540D01*
X6780Y83591D01*
X6322Y82485D01*
X6243Y81890D01*
X10748D01*
Y80709D01*
X6243D01*
X6322Y80113D01*
X6780Y79008D01*
X7508Y78059D01*
X8457Y77331D01*
X9266Y76995D01*
X9328Y76736D01*
X9359Y75871D01*
X9257Y75369D01*
X8564Y75082D01*
X7659Y74388D01*
X6965Y73483D01*
X6529Y72430D01*
X6380Y71299D01*
X6529Y70169D01*
X6965Y69115D01*
X7659Y68211D01*
X8564Y67516D01*
X9257Y67229D01*
X9359Y66728D01*
X9328Y65863D01*
X9266Y65603D01*
X8457Y65268D01*
X7508Y64539D01*
X6780Y63591D01*
X6322Y62485D01*
X6243Y61890D01*
X10748D01*
Y60709D01*
X6243D01*
X6322Y60113D01*
X6780Y59008D01*
X7508Y58059D01*
X8457Y57331D01*
X9266Y56995D01*
X9328Y56735D01*
X9359Y55871D01*
X9257Y55369D01*
X8564Y55082D01*
X7659Y54388D01*
X6965Y53483D01*
X6529Y52430D01*
X6380Y51299D01*
X6529Y50169D01*
X6965Y49115D01*
X7659Y48210D01*
X8564Y47516D01*
X9257Y47229D01*
X9359Y46727D01*
X9328Y45863D01*
X9266Y45603D01*
X8457Y45268D01*
X7508Y44539D01*
X6780Y43591D01*
X6322Y42485D01*
X6243Y41890D01*
X10748D01*
Y40709D01*
X6243D01*
X6322Y40113D01*
X6780Y39008D01*
X7508Y38059D01*
X8457Y37331D01*
X9266Y36996D01*
X9328Y36735D01*
X9359Y35871D01*
X9257Y35369D01*
X8564Y35082D01*
X7659Y34388D01*
X6965Y33483D01*
X6529Y32430D01*
X6380Y31299D01*
X6529Y30169D01*
X6965Y29115D01*
X7659Y28210D01*
X8564Y27516D01*
X9618Y27080D01*
X10748Y26931D01*
X11879Y27080D01*
X12658Y27403D01*
X19400Y20660D01*
X19856Y20356D01*
X20394Y20249D01*
X48031D01*
X48569Y20356D01*
X49025Y20660D01*
X60049Y31684D01*
X60353Y32140D01*
X60460Y32677D01*
Y74587D01*
X67728Y81854D01*
X70551D01*
X70807Y81804D01*
X74962D01*
X75558Y80879D01*
X75799Y80229D01*
X75537Y79598D01*
X75424Y78740D01*
X75537Y77882D01*
X75642Y77629D01*
X73810Y75797D01*
X73505Y75341D01*
X73398Y74803D01*
Y27117D01*
X67147Y20866D01*
X60473D01*
Y12205D01*
X69134D01*
Y14791D01*
X70709Y15104D01*
X71020Y14351D01*
X71715Y13447D01*
X72619Y12753D01*
X73673Y12316D01*
X74803Y12167D01*
X75934Y12316D01*
X76987Y12753D01*
X77892Y13447D01*
X78586Y14351D01*
X78873Y15044D01*
X79375Y15146D01*
X80239Y15115D01*
X80499Y15053D01*
X80835Y14244D01*
X81563Y13295D01*
X82512Y12567D01*
X83617Y12109D01*
X84213Y12031D01*
Y16535D01*
Y21040D01*
X83617Y20962D01*
X83321Y20839D01*
X82429Y22174D01*
X87608Y27353D01*
X87912Y27809D01*
X88019Y28346D01*
Y57215D01*
X89594Y57528D01*
X89648Y57397D01*
X90175Y56710D01*
X90862Y56184D01*
X91662Y55852D01*
X92520Y55739D01*
X93378Y55852D01*
X94178Y56184D01*
X94864Y56710D01*
X95277Y57249D01*
X104901D01*
X105002Y57003D01*
X105529Y56317D01*
X106216Y55790D01*
X107016Y55459D01*
X107874Y55346D01*
X108732Y55459D01*
X109532Y55790D01*
X110219Y56317D01*
X110746Y57003D01*
X111077Y57803D01*
X111190Y58661D01*
X111077Y59520D01*
X110746Y60319D01*
X110219Y61006D01*
X109680Y61419D01*
Y66181D01*
X141041Y97542D01*
X141433Y98128D01*
X141570Y98819D01*
Y123620D01*
X142108Y124033D01*
X142635Y124720D01*
X142967Y125520D01*
X143079Y126378D01*
X142967Y127236D01*
X142635Y128036D01*
X142108Y128723D01*
X141422Y129250D01*
X140622Y129581D01*
X139764Y129694D01*
X138906Y129581D01*
X138106Y129250D01*
X137419Y128723D01*
X136892Y128036D01*
X136561Y127236D01*
X136448Y126378D01*
X136561Y125520D01*
X136892Y124720D01*
X137419Y124033D01*
X137957Y123620D01*
Y99567D01*
X106597Y68206D01*
X106205Y67620D01*
X106068Y66929D01*
Y61419D01*
X105529Y61006D01*
X105419Y60861D01*
X95277D01*
X94864Y61400D01*
X94178Y61927D01*
X93378Y62258D01*
X92520Y62371D01*
X91662Y62258D01*
X90862Y61927D01*
X90175Y61400D01*
X89648Y60713D01*
X89594Y60582D01*
X88019Y60895D01*
Y75764D01*
X88272Y75869D01*
X88959Y76396D01*
X89486Y77082D01*
X89817Y77882D01*
X89930Y78740D01*
X89817Y79598D01*
X89556Y80229D01*
X89796Y80879D01*
X90392Y81804D01*
X102253D01*
X102750Y81152D01*
X103128Y80229D01*
X102889Y79654D01*
X102847Y79331D01*
X109752D01*
X109709Y79654D01*
X109356Y80505D01*
X108795Y81236D01*
X108064Y81797D01*
X107213Y82150D01*
X106790Y83794D01*
X115179Y92182D01*
X115766Y92144D01*
X116452Y91617D01*
X117252Y91285D01*
X118110Y91172D01*
X118968Y91285D01*
X119768Y91617D01*
X120455Y92144D01*
X120982Y92830D01*
X121313Y93630D01*
X121426Y94488D01*
X121313Y95346D01*
X120982Y96146D01*
X120720Y97313D01*
X121224Y98228D01*
X130915Y107918D01*
X131219Y108374D01*
X131326Y108912D01*
Y126945D01*
X131579Y127050D01*
X132266Y127577D01*
X132793Y128263D01*
X133124Y129063D01*
X133237Y129921D01*
X133124Y130779D01*
X132793Y131579D01*
X132266Y132266D01*
X131579Y132793D01*
X130779Y133124D01*
X129921Y133237D01*
X129063Y133124D01*
X128263Y132793D01*
X127577Y132266D01*
X127050Y131579D01*
X126718Y130779D01*
X126605Y129921D01*
X126718Y129063D01*
X127050Y128263D01*
X127577Y127577D01*
X128263Y127050D01*
X128516Y126945D01*
Y109494D01*
X122768Y103745D01*
X121036Y104012D01*
X120910Y104114D01*
X120455Y104707D01*
X119768Y105234D01*
X118968Y105565D01*
X118110Y105678D01*
X117252Y105565D01*
X116452Y105234D01*
X115766Y104707D01*
X115239Y104020D01*
X115134Y103767D01*
X111918D01*
X111377Y104626D01*
X111231Y105307D01*
X113062Y107138D01*
X113315Y107033D01*
X114173Y106921D01*
X115031Y107033D01*
X115831Y107365D01*
X116518Y107892D01*
X117045Y108578D01*
X117376Y109378D01*
X117489Y110236D01*
X117376Y111094D01*
X117045Y111894D01*
X116518Y112581D01*
X115831Y113108D01*
X115245Y113351D01*
X115076Y114173D01*
X115245Y114996D01*
X115831Y115239D01*
X116518Y115766D01*
X117045Y116452D01*
X117376Y117252D01*
X117489Y118110D01*
X117376Y118968D01*
X117045Y119768D01*
X116518Y120455D01*
X115831Y120982D01*
X115031Y121313D01*
X114173Y121426D01*
X113315Y121313D01*
X112515Y120982D01*
X111829Y120455D01*
X111302Y119768D01*
X111059Y119182D01*
X110236Y119013D01*
X109414Y119182D01*
X109171Y119768D01*
X108644Y120455D01*
X107957Y120982D01*
X107157Y121313D01*
X106299Y121426D01*
X105441Y121313D01*
X104641Y120982D01*
X103955Y120455D01*
X103428Y119768D01*
X103185Y119182D01*
X102362Y119013D01*
X101540Y119182D01*
X101297Y119768D01*
X100770Y120455D01*
X100083Y120982D01*
X99283Y121313D01*
X98425Y121426D01*
X97567Y121313D01*
X96767Y120982D01*
X96081Y120455D01*
X95554Y119768D01*
X95311Y119182D01*
X94488Y119013D01*
X93666Y119182D01*
X93423Y119768D01*
X92896Y120455D01*
X92209Y120982D01*
X91409Y121313D01*
X90551Y121426D01*
X89693Y121313D01*
X88893Y120982D01*
X88207Y120455D01*
X87680Y119768D01*
X87437Y119182D01*
X86614Y119013D01*
X85792Y119182D01*
X85549Y119768D01*
X85022Y120455D01*
X84335Y120982D01*
X83535Y121313D01*
X82677Y121426D01*
X81819Y121313D01*
X81019Y120982D01*
X80333Y120455D01*
X79806Y119768D01*
X79474Y118968D01*
X79361Y118110D01*
X79474Y117252D01*
X79806Y116452D01*
X80333Y115766D01*
X81019Y115239D01*
X81819Y114907D01*
X82346Y114838D01*
X82247Y113263D01*
X81688Y112935D01*
X80879Y112739D01*
X80398Y113108D01*
X79598Y113439D01*
X78740Y113552D01*
X77882Y113439D01*
X77082Y113108D01*
X76396Y112581D01*
X75869Y111894D01*
X75764Y111641D01*
X58850D01*
X54576Y115915D01*
X54120Y116219D01*
X53583Y116326D01*
X49496D01*
X33530Y132293D01*
X33074Y132597D01*
X32536Y132704D01*
X24854D01*
X24531Y133483D01*
X23837Y134388D01*
X22932Y135082D01*
X21879Y135518D01*
Y137080D01*
X22932Y137516D01*
X23837Y138210D01*
X24531Y139115D01*
X24967Y140169D01*
X25116Y141299D01*
X24967Y142430D01*
X24531Y143483D01*
X23837Y144388D01*
X22932Y145082D01*
X21879Y145518D01*
Y147080D01*
X22932Y147516D01*
X23837Y148211D01*
X24074Y148520D01*
X75714D01*
X75726Y148504D01*
X76280Y146945D01*
X59094Y129759D01*
X54923D01*
X54510Y130297D01*
X53823Y130824D01*
X53023Y131156D01*
X52165Y131269D01*
X51307Y131156D01*
X50507Y130824D01*
X49821Y130297D01*
X49294Y129611D01*
X48963Y128811D01*
X48850Y127953D01*
X48963Y127095D01*
X49294Y126295D01*
X49821Y125608D01*
X50507Y125081D01*
X51307Y124750D01*
X52165Y124637D01*
X53023Y124750D01*
X53823Y125081D01*
X54510Y125608D01*
X54923Y126146D01*
X59842D01*
X60534Y126284D01*
X61120Y126675D01*
X78701Y144257D01*
X108266D01*
X108679Y143718D01*
X109366Y143192D01*
X110165Y142860D01*
X111024Y142747D01*
X111882Y142860D01*
X112681Y143192D01*
X113368Y143718D01*
X113895Y144405D01*
X114226Y145205D01*
X114339Y146063D01*
X114226Y146921D01*
X113895Y147721D01*
X113368Y148408D01*
X112681Y148934D01*
X111882Y149266D01*
X111024Y149379D01*
X110165Y149266D01*
X109366Y148934D01*
X108679Y148408D01*
X108266Y147869D01*
X99219D01*
X98695Y149000D01*
X98651Y149444D01*
X125512Y176305D01*
X125661Y176325D01*
X126461Y176656D01*
X127148Y177183D01*
X127675Y177870D01*
X128006Y178669D01*
X128119Y179528D01*
X128006Y180386D01*
X127675Y181185D01*
X127148Y181872D01*
X126461Y182399D01*
X125661Y182730D01*
X124803Y182843D01*
X123945Y182730D01*
X123145Y182399D01*
X122459Y181872D01*
X121932Y181185D01*
X121600Y180386D01*
X121581Y180236D01*
X95423Y154079D01*
X24074D01*
X23837Y154388D01*
X23528Y154625D01*
Y157973D01*
X23837Y158211D01*
X24531Y159115D01*
X24967Y160169D01*
X25116Y161299D01*
X24967Y162430D01*
X24531Y163483D01*
X23837Y164388D01*
X22932Y165082D01*
X21879Y165518D01*
Y167080D01*
X22932Y167516D01*
X23837Y168210D01*
X24531Y169115D01*
X24967Y170169D01*
X25116Y171299D01*
X24967Y172430D01*
X24531Y173483D01*
X23837Y174388D01*
X22932Y175082D01*
X21879Y175518D01*
Y177080D01*
X22932Y177516D01*
X23837Y178210D01*
X24531Y179115D01*
X24967Y180169D01*
X25116Y181299D01*
X24967Y182430D01*
X24531Y183483D01*
X23837Y184388D01*
X22932Y185082D01*
X21879Y185518D01*
X20748Y185667D01*
D02*
G37*
G36*
X125472Y15000D02*
X121757D01*
X121828Y14456D01*
X122266Y13399D01*
X122963Y12491D01*
X123871Y11794D01*
X124928Y11356D01*
X125472Y11284D01*
Y15000D01*
D02*
G37*
G36*
X61910Y174614D02*
X61586Y174571D01*
X60735Y174219D01*
X60004Y173658D01*
X59443Y172926D01*
X59090Y172075D01*
X59048Y171752D01*
X61910D01*
Y174614D01*
D02*
G37*
G36*
X65952Y170571D02*
X63090D01*
Y167709D01*
X63414Y167752D01*
X64265Y168104D01*
X64996Y168665D01*
X65557Y169396D01*
X65910Y170248D01*
X65952Y170571D01*
D02*
G37*
G36*
X61910D02*
X59048D01*
X59090Y170248D01*
X59443Y169396D01*
X60004Y168665D01*
X60735Y168104D01*
X61586Y167752D01*
X61910Y167709D01*
Y170571D01*
D02*
G37*
G36*
X129429Y142520D02*
X126567D01*
X126610Y142197D01*
X126962Y141345D01*
X127524Y140614D01*
X128255Y140053D01*
X129106Y139700D01*
X129429Y139658D01*
Y142520D01*
D02*
G37*
G36*
X130369Y15000D02*
X126654D01*
Y11284D01*
X127198Y11356D01*
X128255Y11794D01*
X129163Y12491D01*
X129860Y13399D01*
X130298Y14456D01*
X130369Y15000D01*
D02*
G37*
G36*
X136063Y19760D02*
X134984Y19618D01*
X133978Y19202D01*
X133115Y18539D01*
X132452Y17675D01*
X132036Y16670D01*
X131964Y16129D01*
X130965Y16129D01*
Y15052D01*
X131964Y15052D01*
X132036Y14511D01*
X132452Y13506D01*
X133115Y12642D01*
X133978Y11980D01*
X134984Y11563D01*
X136063Y11421D01*
X137142Y11563D01*
X138148Y11980D01*
X139011Y12642D01*
X139674Y13506D01*
X140090Y14511D01*
X140233Y15590D01*
X140090Y16670D01*
X139674Y17675D01*
X139011Y18539D01*
X138148Y19202D01*
X137142Y19618D01*
X136063Y19760D01*
D02*
G37*
G36*
X133472Y142520D02*
X130610D01*
Y139658D01*
X130933Y139700D01*
X131785Y140053D01*
X132516Y140614D01*
X133077Y141345D01*
X133430Y142197D01*
X133472Y142520D01*
D02*
G37*
G36*
X39370Y185866D02*
X37393Y185710D01*
X35465Y185247D01*
X33633Y184488D01*
X31942Y183452D01*
X30434Y182164D01*
X29146Y180656D01*
X28110Y178966D01*
X27351Y177134D01*
X26888Y175205D01*
X26733Y173228D01*
X26888Y171251D01*
X27351Y169323D01*
X28110Y167491D01*
X29146Y165800D01*
X30434Y164292D01*
X31942Y163005D01*
X33633Y161968D01*
X35465Y161209D01*
X37393Y160747D01*
X39370Y160591D01*
X41347Y160747D01*
X43275Y161209D01*
X45107Y161968D01*
X46798Y163005D01*
X48306Y164292D01*
X49594Y165800D01*
X50630Y167491D01*
X51389Y169323D01*
X51852Y171251D01*
X52008Y173228D01*
X51852Y175205D01*
X51389Y177134D01*
X50630Y178966D01*
X49594Y180656D01*
X48306Y182164D01*
X46798Y183452D01*
X45107Y184488D01*
X43275Y185247D01*
X41347Y185710D01*
X39370Y185866D01*
D02*
G37*
G36*
X130610Y146563D02*
Y143701D01*
X133472D01*
X133430Y144024D01*
X133077Y144875D01*
X132516Y145607D01*
X131785Y146168D01*
X130933Y146520D01*
X130610Y146563D01*
D02*
G37*
G36*
X129429D02*
X129106Y146520D01*
X128255Y146168D01*
X127524Y145607D01*
X126962Y144875D01*
X126610Y144024D01*
X126567Y143701D01*
X129429D01*
Y146563D01*
D02*
G37*
%LPD*%
G36*
X27643Y43981D02*
X27351Y43275D01*
X26888Y41347D01*
X26733Y39370D01*
X26888Y37393D01*
X27351Y35465D01*
X28110Y33633D01*
X29146Y31942D01*
X30434Y30434D01*
X31942Y29146D01*
X33633Y28110D01*
X35465Y27351D01*
X36947Y26996D01*
X36760Y25421D01*
X28613D01*
X25079Y28955D01*
Y35630D01*
X22493D01*
X22180Y37205D01*
X22932Y37516D01*
X23837Y38210D01*
X24531Y39115D01*
X24967Y40169D01*
X25116Y41299D01*
X24967Y42430D01*
X24645Y43209D01*
X26308Y44873D01*
X27643Y43981D01*
D02*
G37*
G36*
X63452Y84337D02*
X55699Y76584D01*
X55395Y76128D01*
X55288Y75590D01*
Y34047D01*
X46662Y25421D01*
X41980D01*
X41794Y26996D01*
X43275Y27351D01*
X45107Y28110D01*
X46798Y29146D01*
X48306Y30434D01*
X49594Y31942D01*
X50630Y33633D01*
X51389Y35465D01*
X51852Y37393D01*
X52008Y39370D01*
X51852Y41347D01*
X51389Y43275D01*
X50630Y45107D01*
X49594Y46798D01*
X48306Y48306D01*
X46798Y49594D01*
X45107Y50630D01*
X43275Y51389D01*
X41347Y51852D01*
X39370Y52008D01*
X37393Y51852D01*
X35465Y51389D01*
X33633Y50630D01*
X31942Y49594D01*
X30539Y48395D01*
X30119Y48457D01*
X28964Y49010D01*
Y55001D01*
X32568Y58605D01*
X32873Y59061D01*
X32980Y59598D01*
Y69464D01*
X49308Y85791D01*
X62849D01*
X63452Y84337D01*
D02*
G37*
G36*
X16965Y49115D02*
X17659Y48210D01*
X18564Y47516D01*
X19617Y47080D01*
Y45518D01*
X18564Y45082D01*
X17659Y44388D01*
X16965Y43483D01*
X16678Y42790D01*
X16176Y42689D01*
X15312Y42719D01*
X15052Y42781D01*
X14717Y43591D01*
X13988Y44539D01*
X13039Y45268D01*
X12230Y45603D01*
X12168Y45863D01*
X12137Y46727D01*
X12239Y47229D01*
X12932Y47516D01*
X13837Y48210D01*
X14531Y49115D01*
X14967Y50169D01*
X16529D01*
X16965Y49115D01*
D02*
G37*
G36*
X49264Y107017D02*
X49159Y106764D01*
X49046Y105905D01*
X49159Y105047D01*
X49491Y104248D01*
X50018Y103561D01*
X50704Y103034D01*
X51504Y102703D01*
X52362Y102590D01*
X53220Y102703D01*
X54020Y103034D01*
X54707Y103561D01*
X55234Y104248D01*
X55261Y104313D01*
X56945Y104760D01*
X57065Y104735D01*
X59765Y102036D01*
X59738Y101624D01*
X59536Y100935D01*
X59251Y100461D01*
X43516D01*
X42979Y100354D01*
X42523Y100049D01*
X37132Y94658D01*
X36235Y94906D01*
X35568Y95322D01*
X35486Y95940D01*
X35155Y96740D01*
X34628Y97427D01*
X34090Y97840D01*
Y100039D01*
X41060Y107009D01*
X41732Y106921D01*
X42590Y107033D01*
X43390Y107365D01*
X44077Y107892D01*
X44604Y108578D01*
X44859Y109195D01*
X45532Y109501D01*
X46568Y109713D01*
X49264Y107017D01*
D02*
G37*
G36*
X95311Y117039D02*
X95554Y116452D01*
X96081Y115766D01*
X96767Y115239D01*
X97020Y115134D01*
Y112194D01*
X93411Y108585D01*
X91956Y109187D01*
Y115134D01*
X92209Y115239D01*
X92896Y115766D01*
X93423Y116452D01*
X93666Y117039D01*
X94488Y117207D01*
X95311Y117039D01*
D02*
G37*
G36*
X75869Y108578D02*
X76396Y107892D01*
X76777Y107599D01*
X76925Y106832D01*
X76925Y106553D01*
X76777Y105787D01*
X76395Y105494D01*
X75868Y104807D01*
X75764Y104554D01*
X61220D01*
X58518Y107256D01*
X59170Y108831D01*
X75764D01*
X75869Y108578D01*
D02*
G37*
G36*
X87437Y117039D02*
X87680Y116452D01*
X88207Y115766D01*
X88893Y115239D01*
X89146Y115134D01*
Y107104D01*
X86718Y104676D01*
X85263Y105278D01*
Y116080D01*
X85549Y116452D01*
X85792Y117039D01*
X86614Y117207D01*
X87437Y117039D01*
D02*
G37*
G36*
X16678Y119808D02*
X16965Y119115D01*
X17659Y118210D01*
X18564Y117516D01*
X19617Y117080D01*
Y115518D01*
X18564Y115082D01*
X17659Y114388D01*
X16965Y113483D01*
X16529Y112430D01*
X14967D01*
X14531Y113483D01*
X13837Y114388D01*
X12932Y115082D01*
X12239Y115369D01*
X12137Y115871D01*
X12168Y116735D01*
X12230Y116996D01*
X13039Y117331D01*
X13988Y118059D01*
X14717Y119008D01*
X15052Y119817D01*
X15312Y119879D01*
X16176Y119910D01*
X16678Y119808D01*
D02*
G37*
G36*
X16965Y169115D02*
X17659Y168210D01*
X18564Y167516D01*
X19617Y167080D01*
Y165518D01*
X18564Y165082D01*
X17659Y164388D01*
X16965Y163483D01*
X16678Y162790D01*
X16176Y162689D01*
X15312Y162719D01*
X15052Y162781D01*
X14717Y163591D01*
X13988Y164540D01*
X13039Y165268D01*
X12230Y165603D01*
X12168Y165863D01*
X12137Y166727D01*
X12239Y167229D01*
X12932Y167516D01*
X13837Y168210D01*
X14531Y169115D01*
X14967Y170169D01*
X16529D01*
X16965Y169115D01*
D02*
G37*
G36*
Y179115D02*
X17659Y178210D01*
X18564Y177516D01*
X19617Y177080D01*
Y175518D01*
X18564Y175082D01*
X17659Y174388D01*
X16965Y173483D01*
X16529Y172430D01*
X14967D01*
X14531Y173483D01*
X13837Y174388D01*
X12932Y175082D01*
X11879Y175518D01*
Y177080D01*
X12932Y177516D01*
X13837Y178210D01*
X14531Y179115D01*
X14967Y180169D01*
X16529D01*
X16965Y179115D01*
D02*
G37*
G36*
X36126Y122939D02*
X35523Y121484D01*
X29528D01*
X28990Y121377D01*
X28534Y121072D01*
X25994Y118532D01*
X24659Y119424D01*
X24967Y120169D01*
X25116Y121299D01*
X24967Y122430D01*
X24631Y123241D01*
X24967Y124087D01*
X25494Y124815D01*
X34249D01*
X36126Y122939D01*
D02*
G37*
G36*
X16678Y139808D02*
X16965Y139115D01*
X17659Y138210D01*
X18564Y137516D01*
X19617Y137080D01*
Y135518D01*
X18564Y135082D01*
X17659Y134388D01*
X16965Y133483D01*
X16529Y132430D01*
X14967D01*
X14531Y133483D01*
X13837Y134388D01*
X12932Y135082D01*
X12239Y135369D01*
X12137Y135871D01*
X12168Y136735D01*
X12230Y136995D01*
X13039Y137331D01*
X13988Y138059D01*
X14717Y139008D01*
X15052Y139817D01*
X15312Y139879D01*
X16176Y139910D01*
X16678Y139808D01*
D02*
G37*
G36*
X114270Y96493D02*
X114355Y96402D01*
X114365Y95343D01*
X103893Y84870D01*
X102974Y84980D01*
X102382Y86616D01*
X112290Y96524D01*
X114270Y96493D01*
D02*
G37*
G36*
X110910Y110633D02*
X110857Y110236D01*
X110970Y109378D01*
X111075Y109125D01*
X92469Y90519D01*
X90627D01*
X90024Y91974D01*
X109490Y111440D01*
X110910Y110633D01*
D02*
G37*
G36*
X83500Y77669D02*
X83743Y77082D01*
X84270Y76396D01*
X84956Y75869D01*
X85209Y75764D01*
Y28928D01*
X76713Y20432D01*
X75934Y20755D01*
X74803Y20903D01*
X73673Y20755D01*
X72928Y20446D01*
X72036Y21781D01*
X75797Y25542D01*
X76101Y25998D01*
X76208Y26535D01*
Y74221D01*
X77629Y75642D01*
X77882Y75537D01*
X78740Y75424D01*
X79598Y75537D01*
X80398Y75869D01*
X81085Y76396D01*
X81612Y77082D01*
X81855Y77669D01*
X82677Y77837D01*
X83500Y77669D01*
D02*
G37*
G36*
X16965Y89115D02*
X17659Y88210D01*
X18564Y87516D01*
X19617Y87080D01*
Y85518D01*
X18564Y85082D01*
X17659Y84388D01*
X16965Y83483D01*
X16678Y82790D01*
X16176Y82689D01*
X15312Y82719D01*
X15052Y82781D01*
X14717Y83591D01*
X13988Y84540D01*
X13039Y85268D01*
X12230Y85603D01*
X12168Y85863D01*
X12137Y86727D01*
X12239Y87229D01*
X12932Y87516D01*
X13837Y88210D01*
X14531Y89115D01*
X14967Y90169D01*
X16529D01*
X16965Y89115D01*
D02*
G37*
G36*
Y69115D02*
X17659Y68211D01*
X18564Y67516D01*
X19617Y67080D01*
Y65518D01*
X18564Y65082D01*
X17659Y64388D01*
X16965Y63483D01*
X16678Y62790D01*
X16176Y62689D01*
X15312Y62719D01*
X15052Y62781D01*
X14717Y63591D01*
X13988Y64539D01*
X13039Y65268D01*
X12230Y65603D01*
X12168Y65863D01*
X12137Y66728D01*
X12239Y67229D01*
X12932Y67516D01*
X13837Y68211D01*
X14531Y69115D01*
X14967Y70169D01*
X16529D01*
X16965Y69115D01*
D02*
G37*
G36*
Y109115D02*
X17659Y108211D01*
X18564Y107516D01*
X19617Y107080D01*
Y105518D01*
X18564Y105082D01*
X17659Y104388D01*
X16965Y103483D01*
X16678Y102790D01*
X16176Y102689D01*
X15312Y102719D01*
X15052Y102781D01*
X14717Y103591D01*
X13988Y104540D01*
X13039Y105268D01*
X12230Y105603D01*
X12168Y105863D01*
X12137Y106728D01*
X12239Y107229D01*
X12932Y107516D01*
X13837Y108211D01*
X14531Y109115D01*
X14967Y110169D01*
X16529D01*
X16965Y109115D01*
D02*
G37*
G36*
X32671Y117119D02*
X32318Y116268D01*
X32276Y115945D01*
X35728D01*
Y115354D01*
X36319D01*
Y111902D01*
X36642Y111944D01*
X37288Y112212D01*
X37873Y111867D01*
X38537Y111113D01*
X38530Y111094D01*
X38416Y110236D01*
X38505Y109564D01*
X33325Y104384D01*
X31681Y104967D01*
X31658Y105146D01*
X31305Y105997D01*
X30744Y106728D01*
X30013Y107290D01*
X29162Y107642D01*
X28839Y107685D01*
Y104232D01*
Y100780D01*
X28903Y100788D01*
X29485Y100538D01*
X30477Y99663D01*
Y97840D01*
X29939Y97427D01*
X29412Y96740D01*
X29081Y95940D01*
X28968Y95082D01*
X29081Y94224D01*
X29412Y93424D01*
X29939Y92738D01*
X30626Y92211D01*
X31425Y91879D01*
X32044Y91798D01*
X32459Y91130D01*
X32707Y90234D01*
X26154Y83680D01*
X25668Y83622D01*
X24183Y83937D01*
X23837Y84388D01*
X22932Y85082D01*
X21879Y85518D01*
Y87080D01*
X22932Y87516D01*
X23837Y88210D01*
X24531Y89115D01*
X24967Y90169D01*
X25116Y91299D01*
X24967Y92430D01*
X24531Y93483D01*
X23837Y94388D01*
X22932Y95082D01*
X21879Y95518D01*
Y97080D01*
X22932Y97516D01*
X23837Y98211D01*
X24531Y99115D01*
X24967Y100169D01*
X24989Y100336D01*
X26000Y100904D01*
X26677Y101095D01*
X27334Y100822D01*
X27657Y100780D01*
Y104232D01*
Y107685D01*
X27334Y107642D01*
X26483Y107290D01*
X25752Y106728D01*
X25191Y105997D01*
X24953Y105423D01*
X24897Y105371D01*
X24028Y105007D01*
X23213Y104867D01*
X22932Y105082D01*
X21879Y105518D01*
Y107080D01*
X22932Y107516D01*
X23837Y108211D01*
X24531Y109115D01*
X24967Y110169D01*
X25116Y111299D01*
X24967Y112430D01*
X24645Y113209D01*
X30110Y118674D01*
X31879D01*
X32671Y117119D01*
D02*
G37*
G36*
X16678Y99808D02*
X16965Y99115D01*
X17659Y98211D01*
X18564Y97516D01*
X19617Y97080D01*
Y95518D01*
X18564Y95082D01*
X17659Y94388D01*
X16965Y93483D01*
X16529Y92430D01*
X14967D01*
X14531Y93483D01*
X13837Y94388D01*
X12932Y95082D01*
X12239Y95369D01*
X12137Y95871D01*
X12168Y96736D01*
X12230Y96996D01*
X13039Y97331D01*
X13988Y98059D01*
X14717Y99008D01*
X15052Y99817D01*
X15312Y99879D01*
X16176Y99910D01*
X16678Y99808D01*
D02*
G37*
G36*
X105678Y113829D02*
X106240Y112164D01*
X87462Y93386D01*
X87241Y93430D01*
X86722Y95138D01*
X105445Y113861D01*
X105678Y113829D01*
D02*
G37*
%LPC*%
G36*
X35138Y114764D02*
X32276D01*
X32318Y114441D01*
X32671Y113589D01*
X33232Y112858D01*
X33963Y112297D01*
X34815Y111944D01*
X35138Y111902D01*
Y114764D01*
D02*
G37*
%LPD*%
D19*
X32283Y100787D02*
X41732Y110236D01*
X32283Y95082D02*
Y100787D01*
X52165Y127953D02*
X59842D01*
X77953Y146063D01*
X107480Y59055D02*
X107874Y58661D01*
X92520Y59055D02*
X107480D01*
X107874Y58661D02*
Y66929D01*
X139764Y98819D01*
X77953Y146063D02*
X111024D01*
X139764Y98819D02*
Y126378D01*
D20*
X86614Y28346D02*
Y78740D01*
X74803Y16535D02*
X86614Y28346D01*
X25759Y81299D02*
X43516Y99056D01*
X23622Y76378D02*
X44332Y97088D01*
X20748Y81299D02*
X25759D01*
X15827Y76378D02*
X23622D01*
X43516Y99056D02*
X77576D01*
X44332Y97088D02*
X76761D01*
X48726Y87196D02*
X72386D01*
X31575Y70046D02*
X48726Y87196D01*
X31575Y59598D02*
Y70046D01*
X47910Y89165D02*
X73202D01*
X29606Y70861D02*
X47910Y89165D01*
X29606Y60414D02*
Y70861D01*
X47095Y91133D02*
X74017D01*
X27638Y71676D02*
X47095Y91133D01*
X27638Y61229D02*
Y71676D01*
X46280Y93102D02*
X74833D01*
X25669Y72492D02*
X46280Y93102D01*
X25669Y66220D02*
Y72492D01*
X21693Y71299D02*
X45465Y95071D01*
X20748Y71299D02*
X21693D01*
X32536Y131299D02*
X48914Y114921D01*
X20748Y131299D02*
X32536D01*
X18710Y126221D02*
X34831D01*
X48914Y114921D02*
X53583D01*
X48099Y112953D02*
X50835D01*
X34831Y126221D02*
X48099Y112953D01*
X38189Y120079D02*
X52362Y105905D01*
X29528Y120079D02*
X38189D01*
X20748Y111299D02*
X29528Y120079D01*
X18552Y126063D02*
X18710Y126221D01*
X15984Y126063D02*
X18552D01*
X53583Y114921D02*
X58268Y110236D01*
X60831Y102957D02*
X61023Y103149D01*
X50835Y112953D02*
X60831Y102957D01*
X61023Y103149D02*
X78740D01*
X10748Y51299D02*
X15669Y56221D01*
X22629D01*
X27638Y61229D01*
X20748Y61299D02*
X25669Y66220D01*
X23821Y54629D02*
X29606Y60414D01*
X27559Y55583D02*
X31575Y59598D01*
X27559Y48110D02*
Y55583D01*
X23821Y52362D02*
Y54629D01*
X73253Y89114D02*
X93051D01*
X73202Y89165D02*
X73253Y89114D01*
X72437Y87146D02*
X96344D01*
X72386Y87196D02*
X72437Y87146D01*
X71622Y85177D02*
X98957D01*
X71571Y85228D02*
X71622Y85177D01*
X66330Y85228D02*
X71571D01*
X56693Y75590D02*
X66330Y85228D01*
X70807Y83209D02*
X104218D01*
X70756Y83259D02*
X70807Y83209D01*
X67146Y83259D02*
X70756D01*
X59055Y75169D02*
X67146Y83259D01*
X74803Y74803D02*
X78740Y78740D01*
X74017Y91133D02*
X74068Y91083D01*
X74833Y93102D02*
X74884Y93051D01*
X45465Y95071D02*
X75600Y95118D01*
X20748Y41299D02*
X27559Y48110D01*
X104218Y83209D02*
X115498Y94488D01*
X98957Y85177D02*
X112421Y98642D01*
X96344Y87146D02*
X111561Y102362D01*
X106299Y116702D02*
Y118110D01*
X82648Y93051D02*
X106299Y116702D01*
X74884Y93051D02*
X82648D01*
X87146Y91083D02*
X114173Y118110D01*
X74068Y91083D02*
X87146D01*
X93051Y89114D02*
X114173Y110236D01*
X83858Y102613D02*
Y119291D01*
X80300Y99055D02*
X83858Y102613D01*
X80249Y99055D02*
X80300D01*
X80151Y98957D02*
X80249Y99055D01*
X77675Y98957D02*
X80151D01*
X77576Y99056D02*
X77675Y98957D01*
X90551Y106522D02*
Y118110D01*
X81116Y97087D02*
X90551Y106522D01*
X81064Y97087D02*
X81116D01*
X80966Y96988D02*
X81064Y97087D01*
X76860Y96988D02*
X80966D01*
X76761Y97088D02*
X76860Y96988D01*
X59055Y32677D02*
Y75169D01*
X22758Y51299D02*
X23821Y52362D01*
X56693Y33465D02*
Y75590D01*
X47244Y24016D02*
X56693Y33465D01*
X20748Y31299D02*
X28032Y24016D01*
X47244D01*
X48031Y21654D02*
X59055Y32677D01*
X20394Y21654D02*
X48031D01*
X112421Y98642D02*
X119651D01*
X129921Y108912D01*
Y129921D01*
X10748Y31299D02*
X20394Y21654D01*
X115498Y94488D02*
X118110D01*
X111561Y102362D02*
X118110D01*
X20748Y51299D02*
X22758D01*
X74803Y26535D02*
Y74803D01*
X75600Y95118D02*
X75699Y95020D01*
X81880Y95118D02*
X81931D01*
X81782Y95020D02*
X81880Y95118D01*
X75699Y95020D02*
X81782D01*
X81931Y95118D02*
X98425Y111612D01*
X58268Y110236D02*
X78740D01*
X82677Y118110D02*
X83858Y119291D01*
X98425Y111612D02*
Y118110D01*
X10748Y71299D02*
X15827Y76378D01*
X10748Y131299D02*
X15984Y126063D01*
X64803Y16535D02*
X74803Y26535D01*
D21*
X20748Y151299D02*
Y161299D01*
X96575Y151299D02*
X124803Y179528D01*
X20748Y151299D02*
X96575D01*
D22*
X173228Y173228D02*
D03*
X39370Y39370D02*
D03*
Y173228D02*
D03*
X173228Y39370D02*
D03*
D23*
X146063Y25591D02*
D03*
D24*
Y15590D02*
D03*
X136063Y25591D02*
D03*
Y15590D02*
D03*
X126063Y25591D02*
D03*
Y15590D02*
D03*
D25*
X64803Y16535D02*
D03*
D26*
X74803D02*
D03*
X84803D02*
D03*
X20748Y181299D02*
D03*
Y171299D02*
D03*
Y161299D02*
D03*
Y151299D02*
D03*
Y141299D02*
D03*
Y131299D02*
D03*
Y121299D02*
D03*
Y111299D02*
D03*
Y101299D02*
D03*
Y91299D02*
D03*
Y81299D02*
D03*
Y71299D02*
D03*
Y61299D02*
D03*
Y51299D02*
D03*
Y41299D02*
D03*
X10748Y31299D02*
D03*
Y41299D02*
D03*
Y51299D02*
D03*
Y61299D02*
D03*
Y71299D02*
D03*
Y81299D02*
D03*
Y91299D02*
D03*
Y101299D02*
D03*
Y111299D02*
D03*
Y121299D02*
D03*
Y131299D02*
D03*
Y141299D02*
D03*
Y151299D02*
D03*
Y161299D02*
D03*
Y171299D02*
D03*
Y181299D02*
D03*
D27*
X20748Y31299D02*
D03*
D28*
X35728Y115354D02*
D03*
X28248Y104232D02*
D03*
X32283Y95082D02*
D03*
X62500Y171161D02*
D03*
X130020Y143110D02*
D03*
X106299Y78740D02*
D03*
X132874Y39370D02*
D03*
X52165Y127953D02*
D03*
X92520Y59055D02*
D03*
X107874Y58661D02*
D03*
X41732Y110236D02*
D03*
X139764Y126378D02*
D03*
X52362Y105905D02*
D03*
X78740Y78740D02*
D03*
X111024Y146063D02*
D03*
X124803Y179528D02*
D03*
X78740Y103149D02*
D03*
X86614Y78740D02*
D03*
X114173Y110236D02*
D03*
X118110Y102362D02*
D03*
Y94488D02*
D03*
X114173Y118110D02*
D03*
X106299D02*
D03*
X98425D02*
D03*
X90551D02*
D03*
X82677D02*
D03*
X78740Y110236D02*
D03*
X129921Y129921D02*
D03*
M02*
