G04 Layer_Color=32896*
%FSLAX25Y25*%
%MOIN*%
G70*
G01*
G75*
G36*
X89714Y167256D02*
X89760Y167250D01*
X89825Y167217D01*
X89851Y167197D01*
X89871Y167184D01*
X89884Y167177D01*
X89891Y167171D01*
X89917Y167138D01*
X89937Y167099D01*
X89963Y167026D01*
X89969Y166994D01*
X89976Y166967D01*
Y166954D01*
Y166948D01*
Y166187D01*
X90304D01*
X90350Y166180D01*
X90389Y166174D01*
X90461Y166141D01*
X90488Y166121D01*
X90501Y166108D01*
X90514Y166102D01*
X90521Y166095D01*
X90547Y166062D01*
X90566Y166023D01*
X90593Y165951D01*
X90599Y165918D01*
X90606Y165892D01*
Y165878D01*
Y165872D01*
X90599Y165826D01*
X90593Y165780D01*
X90560Y165714D01*
X90547Y165688D01*
X90534Y165668D01*
X90527Y165655D01*
X90521Y165649D01*
X90481Y165623D01*
X90448Y165603D01*
X90376Y165577D01*
X90343Y165570D01*
X90317Y165564D01*
X89976D01*
Y163530D01*
X89963Y163392D01*
X89930Y163261D01*
X89891Y163149D01*
X89838Y163051D01*
X89786Y162972D01*
X89746Y162920D01*
X89714Y162881D01*
X89701Y162867D01*
X89596Y162776D01*
X89477Y162710D01*
X89373Y162664D01*
X89268Y162631D01*
X89176Y162612D01*
X89104Y162605D01*
X89077Y162598D01*
X88408D01*
X88264Y162612D01*
X88133Y162644D01*
X88015Y162684D01*
X87916Y162736D01*
X87837Y162789D01*
X87779Y162828D01*
X87746Y162861D01*
X87733Y162874D01*
X87641Y162979D01*
X87575Y163084D01*
X87529Y163176D01*
X87496Y163261D01*
X87477Y163333D01*
X87470Y163392D01*
X87464Y163425D01*
Y163438D01*
X87470Y163491D01*
X87477Y163530D01*
X87510Y163602D01*
X87529Y163628D01*
X87542Y163655D01*
X87549Y163661D01*
X87555Y163668D01*
X87588Y163700D01*
X87628Y163720D01*
X87700Y163746D01*
X87733Y163753D01*
X87752Y163760D01*
X87779D01*
X87857Y163746D01*
X87923Y163720D01*
X87982Y163674D01*
X88021Y163628D01*
X88054Y163576D01*
X88074Y163530D01*
X88087Y163504D01*
X88093Y163491D01*
X88133Y163399D01*
X88179Y163333D01*
X88231Y163287D01*
X88290Y163254D01*
X88343Y163235D01*
X88389Y163228D01*
X88415Y163222D01*
X89038D01*
X89084Y163228D01*
X89130Y163235D01*
X89196Y163268D01*
X89222Y163287D01*
X89241Y163300D01*
X89254Y163307D01*
X89261Y163313D01*
X89294Y163346D01*
X89314Y163386D01*
X89340Y163458D01*
X89346Y163484D01*
X89353Y163510D01*
Y163523D01*
Y163530D01*
Y165564D01*
X88087D01*
X88041Y165570D01*
X88002Y165577D01*
X87929Y165610D01*
X87903Y165623D01*
X87884Y165636D01*
X87877Y165642D01*
X87870Y165649D01*
X87837Y165688D01*
X87811Y165721D01*
X87798Y165760D01*
X87785Y165793D01*
X87779Y165826D01*
X87772Y165852D01*
Y165865D01*
Y165872D01*
X87779Y165918D01*
X87785Y165957D01*
X87818Y166029D01*
X87837Y166056D01*
X87857Y166075D01*
X87864Y166082D01*
X87870Y166088D01*
X87903Y166121D01*
X87942Y166147D01*
X87982Y166161D01*
X88015Y166174D01*
X88041Y166180D01*
X88067Y166187D01*
X89353D01*
Y166948D01*
X89359Y166994D01*
X89366Y167033D01*
X89399Y167105D01*
X89419Y167131D01*
X89438Y167151D01*
X89445Y167158D01*
X89451Y167164D01*
X89484Y167197D01*
X89524Y167223D01*
X89563Y167236D01*
X89596Y167250D01*
X89622Y167256D01*
X89648Y167263D01*
X89668D01*
X89714Y167256D01*
D02*
G37*
G36*
X135699D02*
X135745Y167250D01*
X135811Y167217D01*
X135837Y167197D01*
X135857Y167184D01*
X135870Y167177D01*
X135876Y167171D01*
X135903Y167138D01*
X135922Y167099D01*
X135949Y167026D01*
X135955Y166994D01*
X135962Y166967D01*
Y166954D01*
Y166948D01*
Y166187D01*
X136290D01*
X136336Y166180D01*
X136375Y166174D01*
X136447Y166141D01*
X136473Y166121D01*
X136486Y166108D01*
X136500Y166102D01*
X136506Y166095D01*
X136532Y166062D01*
X136552Y166023D01*
X136578Y165951D01*
X136585Y165918D01*
X136591Y165892D01*
Y165878D01*
Y165872D01*
X136585Y165826D01*
X136578Y165780D01*
X136546Y165714D01*
X136532Y165688D01*
X136519Y165668D01*
X136513Y165655D01*
X136506Y165649D01*
X136467Y165623D01*
X136434Y165603D01*
X136362Y165577D01*
X136329Y165570D01*
X136303Y165564D01*
X135962D01*
Y163530D01*
X135949Y163392D01*
X135916Y163261D01*
X135876Y163149D01*
X135824Y163051D01*
X135772Y162972D01*
X135732Y162920D01*
X135699Y162881D01*
X135686Y162867D01*
X135581Y162776D01*
X135463Y162710D01*
X135358Y162664D01*
X135253Y162631D01*
X135161Y162612D01*
X135089Y162605D01*
X135063Y162598D01*
X134394D01*
X134249Y162612D01*
X134118Y162644D01*
X134000Y162684D01*
X133902Y162736D01*
X133823Y162789D01*
X133764Y162828D01*
X133731Y162861D01*
X133718Y162874D01*
X133626Y162979D01*
X133561Y163084D01*
X133515Y163176D01*
X133482Y163261D01*
X133462Y163333D01*
X133456Y163392D01*
X133449Y163425D01*
Y163438D01*
X133456Y163491D01*
X133462Y163530D01*
X133495Y163602D01*
X133515Y163628D01*
X133528Y163655D01*
X133535Y163661D01*
X133541Y163668D01*
X133574Y163700D01*
X133613Y163720D01*
X133685Y163746D01*
X133718Y163753D01*
X133738Y163760D01*
X133764D01*
X133843Y163746D01*
X133908Y163720D01*
X133967Y163674D01*
X134007Y163628D01*
X134040Y163576D01*
X134059Y163530D01*
X134072Y163504D01*
X134079Y163491D01*
X134118Y163399D01*
X134164Y163333D01*
X134217Y163287D01*
X134276Y163254D01*
X134328Y163235D01*
X134374Y163228D01*
X134400Y163222D01*
X135024D01*
X135070Y163228D01*
X135116Y163235D01*
X135181Y163268D01*
X135207Y163287D01*
X135227Y163300D01*
X135240Y163307D01*
X135247Y163313D01*
X135280Y163346D01*
X135299Y163386D01*
X135325Y163458D01*
X135332Y163484D01*
X135338Y163510D01*
Y163523D01*
Y163530D01*
Y165564D01*
X134072D01*
X134027Y165570D01*
X133987Y165577D01*
X133915Y165610D01*
X133889Y165623D01*
X133869Y165636D01*
X133862Y165642D01*
X133856Y165649D01*
X133823Y165688D01*
X133797Y165721D01*
X133784Y165760D01*
X133771Y165793D01*
X133764Y165826D01*
X133757Y165852D01*
Y165865D01*
Y165872D01*
X133764Y165918D01*
X133771Y165957D01*
X133803Y166029D01*
X133823Y166056D01*
X133843Y166075D01*
X133849Y166082D01*
X133856Y166088D01*
X133889Y166121D01*
X133928Y166147D01*
X133967Y166161D01*
X134000Y166174D01*
X134027Y166180D01*
X134053Y166187D01*
X135338D01*
Y166948D01*
X135345Y166994D01*
X135352Y167033D01*
X135384Y167105D01*
X135404Y167131D01*
X135424Y167151D01*
X135430Y167158D01*
X135437Y167164D01*
X135470Y167197D01*
X135509Y167223D01*
X135548Y167236D01*
X135581Y167250D01*
X135608Y167256D01*
X135634Y167263D01*
X135653D01*
X135699Y167256D01*
D02*
G37*
G36*
X144667Y166180D02*
X144746Y166174D01*
X144896Y166128D01*
X145041Y166069D01*
X145159Y166003D01*
X145264Y165937D01*
X145303Y165905D01*
X145343Y165878D01*
X145369Y165852D01*
X145388Y165832D01*
X145402Y165826D01*
X145408Y165819D01*
X145474Y165754D01*
X145533Y165682D01*
X145585Y165616D01*
X145625Y165550D01*
X145664Y165485D01*
X145697Y165419D01*
X145743Y165301D01*
X145769Y165203D01*
X145775Y165157D01*
X145782Y165124D01*
X145789Y165091D01*
Y165072D01*
Y165058D01*
Y165052D01*
Y163727D01*
X145782Y163655D01*
X145769Y163576D01*
X145756Y163504D01*
X145729Y163438D01*
X145664Y163307D01*
X145592Y163189D01*
X145526Y163097D01*
X145493Y163058D01*
X145461Y163025D01*
X145434Y162999D01*
X145421Y162979D01*
X145408Y162966D01*
X145402Y162959D01*
X145329Y162894D01*
X145251Y162841D01*
X145178Y162795D01*
X145106Y162749D01*
X144969Y162684D01*
X144844Y162644D01*
X144739Y162618D01*
X144693Y162612D01*
X144654Y162605D01*
X144621Y162598D01*
X143847D01*
X143768Y162605D01*
X143689Y162612D01*
X143545Y162651D01*
X143407Y162710D01*
X143283Y162776D01*
X143178Y162841D01*
X143138Y162874D01*
X143099Y162900D01*
X143073Y162920D01*
X143053Y162940D01*
X143040Y162946D01*
X143033Y162953D01*
X142961Y163018D01*
X142902Y163090D01*
X142850Y163156D01*
X142804Y163222D01*
X142764Y163287D01*
X142732Y163353D01*
X142686Y163471D01*
X142653Y163576D01*
X142646Y163622D01*
X142640Y163655D01*
X142633Y163687D01*
Y163707D01*
Y163720D01*
Y163727D01*
Y165052D01*
X142640Y165131D01*
X142653Y165209D01*
X142673Y165281D01*
X142692Y165354D01*
X142758Y165485D01*
X142830Y165603D01*
X142909Y165701D01*
X142941Y165741D01*
X142968Y165773D01*
X142994Y165800D01*
X143014Y165819D01*
X143027Y165826D01*
X143033Y165832D01*
X143105Y165898D01*
X143184Y165951D01*
X143256Y165997D01*
X143329Y166042D01*
X143466Y166102D01*
X143584Y166147D01*
X143696Y166167D01*
X143735Y166180D01*
X143775D01*
X143807Y166187D01*
X144581D01*
X144667Y166180D01*
D02*
G37*
G36*
X122205Y167532D02*
X122251Y167525D01*
X122317Y167492D01*
X122343Y167473D01*
X122363Y167459D01*
X122376Y167453D01*
X122382Y167446D01*
X122409Y167413D01*
X122428Y167374D01*
X122455Y167302D01*
X122461Y167269D01*
X122468Y167243D01*
Y167230D01*
Y167223D01*
X122461Y167177D01*
X122455Y167131D01*
X122422Y167066D01*
X122409Y167040D01*
X122396Y167020D01*
X122389Y167007D01*
X122382Y167000D01*
X122343Y166974D01*
X122310Y166954D01*
X122238Y166928D01*
X122205Y166921D01*
X122179Y166915D01*
X121530D01*
Y163228D01*
X122160D01*
X122205Y163222D01*
X122251Y163215D01*
X122317Y163182D01*
X122343Y163163D01*
X122363Y163143D01*
X122376Y163136D01*
X122382Y163130D01*
X122409Y163097D01*
X122428Y163058D01*
X122455Y162986D01*
X122461Y162959D01*
X122468Y162933D01*
Y162920D01*
Y162913D01*
X122461Y162867D01*
X122455Y162821D01*
X122422Y162756D01*
X122409Y162730D01*
X122396Y162710D01*
X122389Y162697D01*
X122382Y162690D01*
X122343Y162657D01*
X122310Y162638D01*
X122238Y162612D01*
X122205Y162605D01*
X122179Y162598D01*
X120264D01*
X120218Y162605D01*
X120172Y162612D01*
X120100Y162644D01*
X120073Y162664D01*
X120054Y162677D01*
X120047Y162684D01*
X120041Y162690D01*
X120008Y162730D01*
X119988Y162762D01*
X119962Y162835D01*
X119955Y162867D01*
X119949Y162894D01*
Y162907D01*
Y162913D01*
X119955Y162959D01*
X119962Y162999D01*
X119995Y163071D01*
X120014Y163097D01*
X120034Y163117D01*
X120041Y163123D01*
X120047Y163130D01*
X120080Y163163D01*
X120119Y163189D01*
X120159Y163202D01*
X120192Y163215D01*
X120218Y163222D01*
X120244Y163228D01*
X120900D01*
Y167223D01*
X120906Y167269D01*
X120913Y167308D01*
X120946Y167381D01*
X120966Y167407D01*
X120985Y167427D01*
X120992Y167433D01*
X120998Y167440D01*
X121031Y167473D01*
X121071Y167499D01*
X121110Y167512D01*
X121143Y167525D01*
X121169Y167532D01*
X121195Y167538D01*
X122160D01*
X122205Y167532D01*
D02*
G37*
G36*
X126273Y166180D02*
X126351Y166174D01*
X126502Y166128D01*
X126646Y166069D01*
X126765Y166003D01*
X126869Y165937D01*
X126909Y165905D01*
X126948Y165878D01*
X126974Y165852D01*
X126994Y165832D01*
X127007Y165826D01*
X127014Y165819D01*
X127079Y165754D01*
X127138Y165682D01*
X127191Y165616D01*
X127230Y165550D01*
X127270Y165485D01*
X127303Y165419D01*
X127348Y165301D01*
X127375Y165203D01*
X127381Y165157D01*
X127388Y165124D01*
X127394Y165091D01*
Y165072D01*
Y165058D01*
Y165052D01*
Y163727D01*
X127388Y163655D01*
X127375Y163576D01*
X127362Y163504D01*
X127335Y163438D01*
X127270Y163307D01*
X127198Y163189D01*
X127132Y163097D01*
X127099Y163058D01*
X127066Y163025D01*
X127040Y162999D01*
X127027Y162979D01*
X127014Y162966D01*
X127007Y162959D01*
X126935Y162894D01*
X126856Y162841D01*
X126784Y162795D01*
X126712Y162749D01*
X126574Y162684D01*
X126450Y162644D01*
X126345Y162618D01*
X126299Y162612D01*
X126260Y162605D01*
X126227Y162598D01*
X125453D01*
X125374Y162605D01*
X125295Y162612D01*
X125151Y162651D01*
X125013Y162710D01*
X124888Y162776D01*
X124784Y162841D01*
X124744Y162874D01*
X124705Y162900D01*
X124679Y162920D01*
X124659Y162940D01*
X124646Y162946D01*
X124639Y162953D01*
X124567Y163018D01*
X124508Y163090D01*
X124455Y163156D01*
X124409Y163222D01*
X124370Y163287D01*
X124337Y163353D01*
X124292Y163471D01*
X124259Y163576D01*
X124252Y163622D01*
X124246Y163655D01*
X124239Y163687D01*
Y163707D01*
Y163720D01*
Y163727D01*
Y165052D01*
X124246Y165131D01*
X124259Y165209D01*
X124278Y165281D01*
X124298Y165354D01*
X124364Y165485D01*
X124436Y165603D01*
X124514Y165701D01*
X124547Y165741D01*
X124574Y165773D01*
X124600Y165800D01*
X124619Y165819D01*
X124633Y165826D01*
X124639Y165832D01*
X124711Y165898D01*
X124790Y165951D01*
X124862Y165997D01*
X124934Y166042D01*
X125072Y166102D01*
X125190Y166147D01*
X125302Y166167D01*
X125341Y166180D01*
X125380D01*
X125413Y166187D01*
X126187D01*
X126273Y166180D01*
D02*
G37*
G36*
X131730D02*
X131776Y166174D01*
X131842Y166141D01*
X131868Y166121D01*
X131888Y166102D01*
X131901Y166095D01*
X131908Y166088D01*
X131934Y166056D01*
X131954Y166016D01*
X131980Y165944D01*
X131986Y165911D01*
X131993Y165885D01*
Y165872D01*
Y165865D01*
Y162907D01*
X131986Y162861D01*
X131980Y162815D01*
X131947Y162749D01*
X131934Y162723D01*
X131921Y162703D01*
X131914Y162690D01*
X131908Y162684D01*
X131868Y162657D01*
X131835Y162638D01*
X131763Y162612D01*
X131730Y162605D01*
X131704Y162598D01*
X131685D01*
X131639Y162605D01*
X131599Y162612D01*
X131527Y162644D01*
X131501Y162657D01*
X131481Y162671D01*
X131475Y162677D01*
X131468Y162684D01*
X131435Y162723D01*
X131409Y162756D01*
X131396Y162795D01*
X131383Y162828D01*
X131376Y162861D01*
X131370Y162887D01*
Y162900D01*
Y162907D01*
Y164658D01*
X130484Y165426D01*
X130425Y165472D01*
X130373Y165505D01*
X130320Y165531D01*
X130281Y165544D01*
X130248Y165557D01*
X130215Y165564D01*
X129789D01*
X129743Y165557D01*
X129697Y165550D01*
X129625Y165518D01*
X129598Y165498D01*
X129579Y165485D01*
X129572Y165478D01*
X129566Y165472D01*
X129533Y165439D01*
X129513Y165400D01*
X129487Y165327D01*
X129480Y165295D01*
X129474Y165268D01*
Y165255D01*
Y165249D01*
Y165072D01*
X129467Y165026D01*
X129461Y164980D01*
X129428Y164914D01*
X129415Y164888D01*
X129402Y164868D01*
X129395Y164855D01*
X129389Y164848D01*
X129349Y164822D01*
X129316Y164803D01*
X129244Y164776D01*
X129211Y164770D01*
X129185Y164763D01*
X129165D01*
X129120Y164770D01*
X129074Y164776D01*
X129001Y164809D01*
X128975Y164829D01*
X128956Y164842D01*
X128949Y164848D01*
X128943Y164855D01*
X128910Y164894D01*
X128890Y164927D01*
X128864Y164999D01*
X128857Y165032D01*
X128851Y165058D01*
Y165072D01*
Y165078D01*
Y165249D01*
X128864Y165386D01*
X128897Y165518D01*
X128936Y165629D01*
X128988Y165727D01*
X129041Y165806D01*
X129080Y165865D01*
X129113Y165898D01*
X129126Y165911D01*
X129231Y166003D01*
X129343Y166069D01*
X129454Y166121D01*
X129559Y166154D01*
X129651Y166174D01*
X129723Y166180D01*
X129749Y166187D01*
X130248D01*
X130359Y166174D01*
X130471Y166147D01*
X130576Y166102D01*
X130668Y166056D01*
X130746Y166003D01*
X130812Y165957D01*
X130851Y165931D01*
X130858Y165918D01*
X130865D01*
X131370Y165485D01*
Y165865D01*
X131376Y165911D01*
X131383Y165957D01*
X131416Y166029D01*
X131435Y166056D01*
X131448Y166075D01*
X131455Y166082D01*
X131462Y166088D01*
X131494Y166121D01*
X131534Y166147D01*
X131573Y166161D01*
X131606Y166174D01*
X131639Y166180D01*
X131665Y166187D01*
X131685D01*
X131730Y166180D01*
D02*
G37*
G36*
X140928D02*
X140973Y166174D01*
X141039Y166141D01*
X141065Y166121D01*
X141085Y166102D01*
X141098Y166095D01*
X141105Y166088D01*
X141131Y166056D01*
X141151Y166016D01*
X141177Y165944D01*
X141183Y165911D01*
X141190Y165885D01*
Y165872D01*
Y165865D01*
Y162907D01*
X141183Y162861D01*
X141177Y162821D01*
X141144Y162749D01*
X141124Y162723D01*
X141111Y162710D01*
X141105Y162697D01*
X141098Y162690D01*
X141065Y162657D01*
X141026Y162638D01*
X140954Y162612D01*
X140928Y162605D01*
X140901Y162598D01*
X140882D01*
X140836Y162605D01*
X140796Y162612D01*
X140724Y162644D01*
X140698Y162664D01*
X140678Y162677D01*
X140672Y162684D01*
X140665Y162690D01*
X140632Y162723D01*
X140606Y162762D01*
X140593Y162802D01*
X140580Y162835D01*
X140573Y162861D01*
X140567Y162887D01*
Y162900D01*
Y162907D01*
Y164901D01*
X139714Y165452D01*
X139655Y165491D01*
X139596Y165518D01*
X139543Y165537D01*
X139497Y165550D01*
X139458Y165557D01*
X139432Y165564D01*
X139097D01*
X139038Y165557D01*
X138986Y165550D01*
X138940Y165531D01*
X138901Y165511D01*
X138841Y165459D01*
X138796Y165400D01*
X138769Y165340D01*
X138756Y165288D01*
X138750Y165249D01*
Y165242D01*
Y165235D01*
X138651Y162907D01*
X138645Y162854D01*
X138638Y162808D01*
X138625Y162769D01*
X138605Y162736D01*
X138586Y162710D01*
X138573Y162690D01*
X138566Y162684D01*
X138559Y162677D01*
X138527Y162651D01*
X138487Y162631D01*
X138415Y162612D01*
X138389Y162605D01*
X138363Y162598D01*
X138343D01*
X138297Y162605D01*
X138251Y162612D01*
X138179Y162644D01*
X138153Y162664D01*
X138133Y162677D01*
X138127Y162684D01*
X138120Y162690D01*
X138087Y162723D01*
X138067Y162762D01*
X138041Y162835D01*
X138035Y162861D01*
X138028Y162887D01*
Y162900D01*
Y162907D01*
X138120Y165268D01*
X138140Y165406D01*
X138172Y165531D01*
X138225Y165642D01*
X138277Y165741D01*
X138330Y165813D01*
X138369Y165872D01*
X138402Y165905D01*
X138415Y165918D01*
X138520Y166010D01*
X138632Y166075D01*
X138737Y166121D01*
X138835Y166154D01*
X138927Y166174D01*
X138992Y166180D01*
X139019Y166187D01*
X139347D01*
X139478Y166180D01*
X139602Y166161D01*
X139708Y166128D01*
X139806Y166095D01*
X139885Y166062D01*
X139944Y166029D01*
X139983Y166010D01*
X139989Y166003D01*
X139996D01*
X140567Y165662D01*
Y165865D01*
X140573Y165911D01*
X140580Y165957D01*
X140613Y166029D01*
X140632Y166056D01*
X140652Y166075D01*
X140659Y166082D01*
X140665Y166088D01*
X140698Y166121D01*
X140737Y166147D01*
X140777Y166161D01*
X140810Y166174D01*
X140836Y166180D01*
X140862Y166187D01*
X140882D01*
X140928Y166180D01*
D02*
G37*
G36*
X108738D02*
X108784Y166174D01*
X108849Y166141D01*
X108876Y166121D01*
X108895Y166102D01*
X108908Y166095D01*
X108915Y166088D01*
X108941Y166056D01*
X108961Y166016D01*
X108987Y165944D01*
X108993Y165911D01*
X109000Y165885D01*
Y165872D01*
Y165865D01*
Y162907D01*
X108993Y162861D01*
X108987Y162815D01*
X108954Y162749D01*
X108941Y162723D01*
X108928Y162703D01*
X108921Y162690D01*
X108915Y162684D01*
X108876Y162657D01*
X108843Y162638D01*
X108771Y162612D01*
X108738Y162605D01*
X108712Y162598D01*
X108692D01*
X108646Y162605D01*
X108607Y162612D01*
X108534Y162644D01*
X108508Y162657D01*
X108488Y162671D01*
X108482Y162677D01*
X108475Y162684D01*
X108442Y162723D01*
X108416Y162756D01*
X108403Y162795D01*
X108390Y162828D01*
X108384Y162861D01*
X108377Y162887D01*
Y162900D01*
Y162907D01*
Y164658D01*
X107491Y165426D01*
X107432Y165472D01*
X107380Y165505D01*
X107327Y165531D01*
X107288Y165544D01*
X107255Y165557D01*
X107222Y165564D01*
X106796D01*
X106750Y165557D01*
X106704Y165550D01*
X106632Y165518D01*
X106606Y165498D01*
X106586Y165485D01*
X106579Y165478D01*
X106573Y165472D01*
X106540Y165439D01*
X106520Y165400D01*
X106494Y165327D01*
X106488Y165295D01*
X106481Y165268D01*
Y165255D01*
Y165249D01*
Y165072D01*
X106474Y165026D01*
X106468Y164980D01*
X106435Y164914D01*
X106422Y164888D01*
X106409Y164868D01*
X106402Y164855D01*
X106396Y164848D01*
X106356Y164822D01*
X106324Y164803D01*
X106252Y164776D01*
X106219Y164770D01*
X106192Y164763D01*
X106173D01*
X106127Y164770D01*
X106081Y164776D01*
X106009Y164809D01*
X105982Y164829D01*
X105963Y164842D01*
X105956Y164848D01*
X105950Y164855D01*
X105917Y164894D01*
X105897Y164927D01*
X105871Y164999D01*
X105864Y165032D01*
X105858Y165058D01*
Y165072D01*
Y165078D01*
Y165249D01*
X105871Y165386D01*
X105904Y165518D01*
X105943Y165629D01*
X105996Y165727D01*
X106048Y165806D01*
X106088Y165865D01*
X106120Y165898D01*
X106133Y165911D01*
X106238Y166003D01*
X106350Y166069D01*
X106461Y166121D01*
X106566Y166154D01*
X106658Y166174D01*
X106730Y166180D01*
X106757Y166187D01*
X107255D01*
X107367Y166174D01*
X107478Y166147D01*
X107583Y166102D01*
X107675Y166056D01*
X107754Y166003D01*
X107819Y165957D01*
X107859Y165931D01*
X107865Y165918D01*
X107872D01*
X108377Y165485D01*
Y165865D01*
X108384Y165911D01*
X108390Y165957D01*
X108423Y166029D01*
X108442Y166056D01*
X108456Y166075D01*
X108462Y166082D01*
X108469Y166088D01*
X108502Y166121D01*
X108541Y166147D01*
X108580Y166161D01*
X108613Y166174D01*
X108646Y166180D01*
X108672Y166187D01*
X108692D01*
X108738Y166180D01*
D02*
G37*
G36*
X104139Y167532D02*
X104185Y167525D01*
X104251Y167492D01*
X104277Y167473D01*
X104297Y167453D01*
X104310Y167446D01*
X104316Y167440D01*
X104342Y167407D01*
X104362Y167368D01*
X104388Y167295D01*
X104395Y167263D01*
X104402Y167236D01*
Y167223D01*
Y167217D01*
Y162907D01*
X104395Y162861D01*
X104388Y162815D01*
X104356Y162749D01*
X104342Y162723D01*
X104329Y162703D01*
X104323Y162690D01*
X104316Y162684D01*
X104277Y162657D01*
X104244Y162638D01*
X104172Y162612D01*
X104139Y162605D01*
X104113Y162598D01*
X104093D01*
X104047Y162605D01*
X104001Y162612D01*
X103929Y162644D01*
X103903Y162657D01*
X103883Y162671D01*
X103877Y162677D01*
X103870Y162684D01*
X103837Y162723D01*
X103818Y162756D01*
X103791Y162828D01*
X103785Y162861D01*
X103778Y162887D01*
Y162900D01*
Y162907D01*
Y163851D01*
X103457Y164127D01*
X101784Y162684D01*
X101745Y162657D01*
X101705Y162638D01*
X101627Y162612D01*
X101600Y162605D01*
X101574Y162598D01*
X101555D01*
X101509Y162605D01*
X101463Y162612D01*
X101391Y162651D01*
X101364Y162664D01*
X101345Y162684D01*
X101338Y162690D01*
X101331Y162697D01*
X101299Y162736D01*
X101279Y162776D01*
X101253Y162841D01*
X101246Y162874D01*
X101240Y162894D01*
Y162907D01*
Y162913D01*
X101246Y162959D01*
X101253Y162999D01*
X101286Y163064D01*
X101305Y163084D01*
X101325Y163103D01*
X101331Y163110D01*
X101338Y163117D01*
X102965Y164534D01*
X101640Y165642D01*
X101607Y165675D01*
X101581Y165714D01*
X101568Y165754D01*
X101555Y165787D01*
X101548Y165819D01*
X101541Y165846D01*
Y165859D01*
Y165865D01*
X101548Y165911D01*
X101555Y165957D01*
X101587Y166029D01*
X101607Y166056D01*
X101620Y166075D01*
X101627Y166082D01*
X101633Y166088D01*
X101666Y166121D01*
X101705Y166147D01*
X101745Y166161D01*
X101778Y166174D01*
X101810Y166180D01*
X101837Y166187D01*
X101856D01*
X101902Y166180D01*
X101948Y166174D01*
X102020Y166141D01*
X102053Y166121D01*
X102073Y166108D01*
X102086Y166102D01*
X102092Y166095D01*
X103778Y164665D01*
Y167217D01*
X103785Y167263D01*
X103791Y167308D01*
X103824Y167381D01*
X103844Y167407D01*
X103857Y167427D01*
X103864Y167433D01*
X103870Y167440D01*
X103903Y167473D01*
X103942Y167499D01*
X103982Y167512D01*
X104015Y167525D01*
X104047Y167532D01*
X104074Y167538D01*
X104093D01*
X104139Y167532D01*
D02*
G37*
G36*
X94942Y166180D02*
X94988Y166174D01*
X95053Y166141D01*
X95080Y166121D01*
X95100Y166102D01*
X95113Y166095D01*
X95119Y166088D01*
X95145Y166056D01*
X95165Y166016D01*
X95191Y165944D01*
X95198Y165911D01*
X95204Y165885D01*
Y165872D01*
Y165865D01*
Y162907D01*
X95198Y162861D01*
X95191Y162815D01*
X95158Y162749D01*
X95145Y162723D01*
X95132Y162703D01*
X95126Y162690D01*
X95119Y162684D01*
X95080Y162657D01*
X95047Y162638D01*
X94975Y162612D01*
X94942Y162605D01*
X94916Y162598D01*
X94896D01*
X94850Y162605D01*
X94811Y162612D01*
X94739Y162644D01*
X94712Y162657D01*
X94693Y162671D01*
X94686Y162677D01*
X94680Y162684D01*
X94647Y162723D01*
X94621Y162756D01*
X94608Y162795D01*
X94594Y162828D01*
X94588Y162861D01*
X94581Y162887D01*
Y162900D01*
Y162907D01*
Y164658D01*
X93696Y165426D01*
X93637Y165472D01*
X93584Y165505D01*
X93532Y165531D01*
X93492Y165544D01*
X93459Y165557D01*
X93427Y165564D01*
X93000D01*
X92954Y165557D01*
X92908Y165550D01*
X92836Y165518D01*
X92810Y165498D01*
X92790Y165485D01*
X92784Y165478D01*
X92777Y165472D01*
X92744Y165439D01*
X92725Y165400D01*
X92699Y165327D01*
X92692Y165295D01*
X92685Y165268D01*
Y165255D01*
Y165249D01*
Y165072D01*
X92679Y165026D01*
X92672Y164980D01*
X92639Y164914D01*
X92626Y164888D01*
X92613Y164868D01*
X92607Y164855D01*
X92600Y164848D01*
X92561Y164822D01*
X92528Y164803D01*
X92456Y164776D01*
X92423Y164770D01*
X92397Y164763D01*
X92377D01*
X92331Y164770D01*
X92285Y164776D01*
X92213Y164809D01*
X92187Y164829D01*
X92167Y164842D01*
X92161Y164848D01*
X92154Y164855D01*
X92121Y164894D01*
X92102Y164927D01*
X92075Y164999D01*
X92069Y165032D01*
X92062Y165058D01*
Y165072D01*
Y165078D01*
Y165249D01*
X92075Y165386D01*
X92108Y165518D01*
X92147Y165629D01*
X92200Y165727D01*
X92252Y165806D01*
X92292Y165865D01*
X92325Y165898D01*
X92338Y165911D01*
X92443Y166003D01*
X92554Y166069D01*
X92666Y166121D01*
X92771Y166154D01*
X92862Y166174D01*
X92935Y166180D01*
X92961Y166187D01*
X93459D01*
X93571Y166174D01*
X93682Y166147D01*
X93787Y166102D01*
X93879Y166056D01*
X93958Y166003D01*
X94024Y165957D01*
X94063Y165931D01*
X94069Y165918D01*
X94076D01*
X94581Y165485D01*
Y165865D01*
X94588Y165911D01*
X94594Y165957D01*
X94627Y166029D01*
X94647Y166056D01*
X94660Y166075D01*
X94666Y166082D01*
X94673Y166088D01*
X94706Y166121D01*
X94745Y166147D01*
X94785Y166161D01*
X94817Y166174D01*
X94850Y166180D01*
X94876Y166187D01*
X94896D01*
X94942Y166180D01*
D02*
G37*
G36*
X127539Y159658D02*
X127585Y159651D01*
X127650Y159618D01*
X127676Y159599D01*
X127696Y159585D01*
X127709Y159579D01*
X127716Y159572D01*
X127742Y159539D01*
X127762Y159500D01*
X127788Y159428D01*
X127795Y159395D01*
X127801Y159369D01*
Y159356D01*
Y159349D01*
X127795Y159303D01*
X127788Y159257D01*
X127755Y159192D01*
X127742Y159166D01*
X127729Y159146D01*
X127722Y159133D01*
X127716Y159126D01*
X127676Y159100D01*
X127644Y159080D01*
X127572Y159054D01*
X127539Y159047D01*
X127513Y159041D01*
X126548D01*
Y155348D01*
X127506D01*
X127552Y155341D01*
X127598Y155334D01*
X127663Y155302D01*
X127690Y155282D01*
X127709Y155269D01*
X127722Y155262D01*
X127729Y155256D01*
X127755Y155223D01*
X127775Y155184D01*
X127801Y155111D01*
X127808Y155085D01*
X127814Y155059D01*
Y155046D01*
Y155039D01*
X127808Y154993D01*
X127801Y154947D01*
X127768Y154882D01*
X127755Y154856D01*
X127742Y154836D01*
X127736Y154823D01*
X127729Y154816D01*
X127690Y154783D01*
X127657Y154764D01*
X127585Y154737D01*
X127552Y154731D01*
X127526Y154724D01*
X124994D01*
X124948Y154731D01*
X124902Y154737D01*
X124829Y154770D01*
X124803Y154783D01*
X124784Y154797D01*
X124777Y154803D01*
X124770Y154810D01*
X124738Y154849D01*
X124718Y154882D01*
X124692Y154954D01*
X124685Y154987D01*
X124679Y155013D01*
Y155026D01*
Y155033D01*
Y156647D01*
X124685Y156692D01*
X124692Y156738D01*
X124724Y156810D01*
X124744Y156837D01*
X124757Y156856D01*
X124764Y156863D01*
X124770Y156869D01*
X124803Y156902D01*
X124843Y156922D01*
X124915Y156948D01*
X124948Y156955D01*
X124974Y156961D01*
X124994D01*
X125039Y156955D01*
X125085Y156948D01*
X125151Y156915D01*
X125177Y156896D01*
X125197Y156876D01*
X125210Y156869D01*
X125216Y156863D01*
X125243Y156830D01*
X125262Y156791D01*
X125289Y156719D01*
X125295Y156692D01*
X125302Y156666D01*
Y156653D01*
Y156647D01*
Y155348D01*
X125925D01*
Y159664D01*
X127493D01*
X127539Y159658D01*
D02*
G37*
G36*
X141341Y158306D02*
X141387Y158300D01*
X141453Y158267D01*
X141479Y158247D01*
X141498Y158234D01*
X141512Y158227D01*
X141518Y158221D01*
X141544Y158188D01*
X141564Y158149D01*
X141590Y158077D01*
X141597Y158044D01*
X141603Y158018D01*
Y158004D01*
Y157998D01*
Y157394D01*
X140528Y154947D01*
X140488Y154875D01*
X140436Y154816D01*
X140383Y154777D01*
X140331Y154751D01*
X140285Y154737D01*
X140245Y154731D01*
X140219Y154724D01*
X139813D01*
X139753Y154731D01*
X139694Y154757D01*
X139648Y154790D01*
X139609Y154836D01*
X139576Y154875D01*
X139557Y154908D01*
X139544Y154934D01*
X139537Y154941D01*
X138448Y157401D01*
Y157998D01*
X138455Y158044D01*
X138461Y158090D01*
X138494Y158162D01*
X138514Y158188D01*
X138527Y158208D01*
X138533Y158214D01*
X138540Y158221D01*
X138573Y158254D01*
X138612Y158273D01*
X138684Y158300D01*
X138717Y158306D01*
X138743Y158313D01*
X138763D01*
X138809Y158306D01*
X138855Y158300D01*
X138920Y158267D01*
X138947Y158247D01*
X138966Y158234D01*
X138979Y158227D01*
X138986Y158221D01*
X139019Y158188D01*
X139038Y158149D01*
X139065Y158077D01*
X139071Y158044D01*
X139078Y158018D01*
Y158004D01*
Y157998D01*
X139084Y157526D01*
X140029Y155380D01*
X140980Y157519D01*
Y157998D01*
X140987Y158044D01*
X140993Y158090D01*
X141026Y158162D01*
X141046Y158188D01*
X141059Y158208D01*
X141066Y158214D01*
X141072Y158221D01*
X141105Y158254D01*
X141144Y158273D01*
X141216Y158300D01*
X141249Y158306D01*
X141275Y158313D01*
X141295D01*
X141341Y158306D01*
D02*
G37*
G36*
X150787Y155033D02*
X150781Y154987D01*
X150774Y154941D01*
X150742Y154875D01*
X150728Y154849D01*
X150715Y154829D01*
X150709Y154816D01*
X150702Y154810D01*
X150663Y154783D01*
X150630Y154764D01*
X150558Y154737D01*
X150525Y154731D01*
X150499Y154724D01*
X150479D01*
X150433Y154731D01*
X150387Y154737D01*
X150315Y154770D01*
X150289Y154783D01*
X150269Y154797D01*
X150263Y154803D01*
X150256Y154810D01*
X150223Y154849D01*
X150197Y154882D01*
X150184Y154921D01*
X150171Y154954D01*
X150164Y154987D01*
X150158Y155013D01*
Y155026D01*
Y155033D01*
Y157421D01*
X149712D01*
X148242Y154888D01*
X148203Y154836D01*
X148157Y154797D01*
X148111Y154764D01*
X148065Y154744D01*
X148026Y154731D01*
X147993Y154724D01*
X147960D01*
X147914Y154731D01*
X147875Y154737D01*
X147803Y154770D01*
X147776Y154783D01*
X147757Y154797D01*
X147744Y154803D01*
X147737Y154810D01*
X147704Y154849D01*
X147678Y154882D01*
X147665Y154921D01*
X147652Y154954D01*
X147645Y154987D01*
X147639Y155013D01*
Y155026D01*
Y155033D01*
X147652Y155098D01*
X147671Y155164D01*
X147685Y155190D01*
X147691Y155203D01*
X147704Y155216D01*
Y155223D01*
X148977Y157421D01*
X148577D01*
X148439Y157434D01*
X148308Y157466D01*
X148196Y157506D01*
X148098Y157558D01*
X148019Y157611D01*
X147960Y157650D01*
X147927Y157683D01*
X147914Y157696D01*
X147822Y157801D01*
X147757Y157919D01*
X147704Y158024D01*
X147671Y158129D01*
X147652Y158221D01*
X147645Y158293D01*
X147639Y158319D01*
Y158339D01*
Y158352D01*
Y158359D01*
Y158720D01*
Y158792D01*
X147652Y158857D01*
X147685Y158988D01*
X147730Y159100D01*
X147776Y159198D01*
X147829Y159277D01*
X147875Y159336D01*
X147908Y159369D01*
X147914Y159382D01*
X147921D01*
X147973Y159434D01*
X148026Y159474D01*
X148137Y159546D01*
X148249Y159599D01*
X148354Y159631D01*
X148439Y159651D01*
X148511Y159658D01*
X148537Y159664D01*
X150787D01*
Y155033D01*
D02*
G37*
G36*
X118105Y159658D02*
X118191Y159638D01*
X118256Y159605D01*
X118322Y159572D01*
X118368Y159539D01*
X118407Y159507D01*
X118433Y159487D01*
X118440Y159480D01*
X118499Y159415D01*
X118545Y159343D01*
X118571Y159271D01*
X118597Y159205D01*
X118611Y159146D01*
X118617Y159100D01*
Y159074D01*
Y159061D01*
Y155321D01*
X118611Y155229D01*
X118591Y155151D01*
X118565Y155079D01*
X118532Y155013D01*
X118499Y154967D01*
X118473Y154928D01*
X118453Y154902D01*
X118447Y154895D01*
X118374Y154836D01*
X118302Y154797D01*
X118237Y154764D01*
X118165Y154744D01*
X118105Y154731D01*
X118060Y154724D01*
X116072D01*
X115980Y154731D01*
X115901Y154751D01*
X115829Y154777D01*
X115764Y154810D01*
X115718Y154842D01*
X115678Y154869D01*
X115652Y154888D01*
X115646Y154895D01*
X115586Y154967D01*
X115541Y155039D01*
X115514Y155105D01*
X115488Y155177D01*
X115475Y155236D01*
X115468Y155282D01*
Y155308D01*
Y155321D01*
Y159061D01*
X115475Y159146D01*
X115495Y159231D01*
X115527Y159303D01*
X115554Y159362D01*
X115586Y159415D01*
X115619Y159448D01*
X115639Y159474D01*
X115646Y159480D01*
X115711Y159539D01*
X115783Y159585D01*
X115855Y159618D01*
X115921Y159644D01*
X115980Y159658D01*
X116026Y159664D01*
X118020D01*
X118105Y159658D01*
D02*
G37*
G36*
X145152Y158306D02*
X145264Y158280D01*
X145362Y158247D01*
X145441Y158208D01*
X145513Y158168D01*
X145566Y158136D01*
X145598Y158109D01*
X145612Y158103D01*
X145867Y157899D01*
X145920Y157853D01*
X145966Y157801D01*
X146012Y157742D01*
X146045Y157689D01*
X146071Y157644D01*
X146090Y157604D01*
X146104Y157578D01*
X146110Y157571D01*
X146143Y157499D01*
X146163Y157434D01*
X146182Y157381D01*
X146189Y157329D01*
X146195Y157296D01*
X146202Y157263D01*
Y157250D01*
Y157244D01*
Y155813D01*
X146195Y155754D01*
X146189Y155695D01*
X146176Y155636D01*
X146156Y155584D01*
X146143Y155531D01*
X146130Y155499D01*
X146123Y155472D01*
X146117Y155466D01*
X146084Y155400D01*
X146045Y155341D01*
X146012Y155295D01*
X145979Y155256D01*
X145946Y155223D01*
X145920Y155197D01*
X145907Y155184D01*
X145900Y155177D01*
X145618Y154934D01*
X145585Y154908D01*
X145539Y154882D01*
X145454Y154836D01*
X145415Y154816D01*
X145382Y154803D01*
X145362Y154790D01*
X145356D01*
X145224Y154751D01*
X145166Y154737D01*
X145113Y154731D01*
X145067D01*
X145034Y154724D01*
X143361D01*
X143316Y154731D01*
X143276Y154737D01*
X143204Y154770D01*
X143178Y154790D01*
X143158Y154803D01*
X143152Y154810D01*
X143145Y154816D01*
X143112Y154849D01*
X143086Y154888D01*
X143073Y154928D01*
X143060Y154961D01*
X143053Y154987D01*
X143047Y155013D01*
Y155026D01*
Y155033D01*
X143053Y155079D01*
X143060Y155125D01*
X143093Y155197D01*
X143112Y155223D01*
X143132Y155243D01*
X143138Y155249D01*
X143145Y155256D01*
X143178Y155289D01*
X143217Y155308D01*
X143289Y155334D01*
X143316Y155341D01*
X143342Y155348D01*
X144975D01*
X145028Y155354D01*
X145074Y155367D01*
X145166Y155407D01*
X145205Y155426D01*
X145231Y155439D01*
X145251Y155453D01*
X145257Y155459D01*
X145434Y155617D01*
X145480Y155663D01*
X145513Y155708D01*
X145539Y155748D01*
X145553Y155794D01*
X145566Y155833D01*
X145572Y155859D01*
Y155879D01*
Y155886D01*
Y156076D01*
X143361D01*
X143316Y156082D01*
X143276Y156089D01*
X143204Y156122D01*
X143178Y156141D01*
X143158Y156155D01*
X143152Y156161D01*
X143145Y156168D01*
X143112Y156200D01*
X143086Y156240D01*
X143073Y156279D01*
X143060Y156312D01*
X143053Y156338D01*
X143047Y156364D01*
Y156377D01*
Y156384D01*
Y157139D01*
X143060Y157296D01*
X143086Y157434D01*
X143125Y157552D01*
X143171Y157644D01*
X143224Y157716D01*
X143263Y157775D01*
X143289Y157801D01*
X143302Y157814D01*
X143539Y158037D01*
X143650Y158129D01*
X143762Y158195D01*
X143867Y158247D01*
X143958Y158280D01*
X144044Y158300D01*
X144103Y158306D01*
X144129Y158313D01*
X145041D01*
X145152Y158306D01*
D02*
G37*
G36*
X112549Y166180D02*
X112661Y166154D01*
X112759Y166121D01*
X112838Y166082D01*
X112910Y166042D01*
X112962Y166010D01*
X112995Y165983D01*
X113008Y165977D01*
X113264Y165773D01*
X113317Y165727D01*
X113363Y165675D01*
X113408Y165616D01*
X113441Y165564D01*
X113468Y165518D01*
X113487Y165478D01*
X113500Y165452D01*
X113507Y165445D01*
X113540Y165373D01*
X113559Y165308D01*
X113579Y165255D01*
X113585Y165203D01*
X113592Y165170D01*
X113599Y165137D01*
Y165124D01*
Y165118D01*
Y163687D01*
X113592Y163628D01*
X113585Y163569D01*
X113572Y163510D01*
X113553Y163458D01*
X113540Y163405D01*
X113526Y163373D01*
X113520Y163346D01*
X113513Y163340D01*
X113481Y163274D01*
X113441Y163215D01*
X113408Y163169D01*
X113376Y163130D01*
X113343Y163097D01*
X113317Y163071D01*
X113303Y163058D01*
X113297Y163051D01*
X113015Y162808D01*
X112982Y162782D01*
X112936Y162756D01*
X112851Y162710D01*
X112812Y162690D01*
X112779Y162677D01*
X112759Y162664D01*
X112752D01*
X112621Y162625D01*
X112562Y162612D01*
X112510Y162605D01*
X112464D01*
X112431Y162598D01*
X110758D01*
X110712Y162605D01*
X110673Y162612D01*
X110601Y162644D01*
X110574Y162664D01*
X110555Y162677D01*
X110548Y162684D01*
X110542Y162690D01*
X110509Y162723D01*
X110483Y162762D01*
X110469Y162802D01*
X110456Y162835D01*
X110450Y162861D01*
X110443Y162887D01*
Y162900D01*
Y162907D01*
X110450Y162953D01*
X110456Y162999D01*
X110489Y163071D01*
X110509Y163097D01*
X110529Y163117D01*
X110535Y163123D01*
X110542Y163130D01*
X110574Y163163D01*
X110614Y163182D01*
X110686Y163208D01*
X110712Y163215D01*
X110739Y163222D01*
X112372D01*
X112424Y163228D01*
X112470Y163241D01*
X112562Y163281D01*
X112601Y163300D01*
X112628Y163313D01*
X112647Y163327D01*
X112654Y163333D01*
X112831Y163491D01*
X112877Y163537D01*
X112910Y163582D01*
X112936Y163622D01*
X112949Y163668D01*
X112962Y163707D01*
X112969Y163733D01*
Y163753D01*
Y163760D01*
Y163950D01*
X110758D01*
X110712Y163956D01*
X110673Y163963D01*
X110601Y163996D01*
X110574Y164015D01*
X110555Y164029D01*
X110548Y164035D01*
X110542Y164042D01*
X110509Y164074D01*
X110483Y164114D01*
X110469Y164153D01*
X110456Y164186D01*
X110450Y164212D01*
X110443Y164238D01*
Y164251D01*
Y164258D01*
Y165013D01*
X110456Y165170D01*
X110483Y165308D01*
X110522Y165426D01*
X110568Y165518D01*
X110620Y165590D01*
X110660Y165649D01*
X110686Y165675D01*
X110699Y165688D01*
X110935Y165911D01*
X111047Y166003D01*
X111158Y166069D01*
X111263Y166121D01*
X111355Y166154D01*
X111440Y166174D01*
X111500Y166180D01*
X111526Y166187D01*
X112437D01*
X112549Y166180D01*
D02*
G37*
G36*
X117607Y167532D02*
X117653Y167525D01*
X117718Y167492D01*
X117745Y167473D01*
X117764Y167459D01*
X117777Y167453D01*
X117784Y167446D01*
X117810Y167413D01*
X117830Y167374D01*
X117856Y167302D01*
X117863Y167269D01*
X117869Y167243D01*
Y167230D01*
Y167223D01*
X117863Y167177D01*
X117856Y167131D01*
X117823Y167066D01*
X117810Y167040D01*
X117797Y167020D01*
X117790Y167007D01*
X117784Y167000D01*
X117745Y166974D01*
X117712Y166954D01*
X117640Y166928D01*
X117607Y166921D01*
X117581Y166915D01*
X116931D01*
Y163228D01*
X117561D01*
X117607Y163222D01*
X117653Y163215D01*
X117718Y163182D01*
X117745Y163163D01*
X117764Y163143D01*
X117777Y163136D01*
X117784Y163130D01*
X117810Y163097D01*
X117830Y163058D01*
X117856Y162986D01*
X117863Y162959D01*
X117869Y162933D01*
Y162920D01*
Y162913D01*
X117863Y162867D01*
X117856Y162821D01*
X117823Y162756D01*
X117810Y162730D01*
X117797Y162710D01*
X117790Y162697D01*
X117784Y162690D01*
X117745Y162657D01*
X117712Y162638D01*
X117640Y162612D01*
X117607Y162605D01*
X117581Y162598D01*
X115665D01*
X115619Y162605D01*
X115573Y162612D01*
X115501Y162644D01*
X115475Y162664D01*
X115455Y162677D01*
X115449Y162684D01*
X115442Y162690D01*
X115409Y162730D01*
X115390Y162762D01*
X115363Y162835D01*
X115357Y162867D01*
X115350Y162894D01*
Y162907D01*
Y162913D01*
X115357Y162959D01*
X115363Y162999D01*
X115396Y163071D01*
X115416Y163097D01*
X115436Y163117D01*
X115442Y163123D01*
X115449Y163130D01*
X115481Y163163D01*
X115521Y163189D01*
X115560Y163202D01*
X115593Y163215D01*
X115619Y163222D01*
X115645Y163228D01*
X116301D01*
Y167223D01*
X116308Y167269D01*
X116314Y167308D01*
X116347Y167381D01*
X116367Y167407D01*
X116387Y167427D01*
X116393Y167433D01*
X116400Y167440D01*
X116433Y167473D01*
X116472Y167499D01*
X116511Y167512D01*
X116544Y167525D01*
X116570Y167532D01*
X116597Y167538D01*
X117561D01*
X117607Y167532D01*
D02*
G37*
G36*
X98681Y166180D02*
X98760Y166174D01*
X98911Y166128D01*
X99055Y166069D01*
X99173Y166003D01*
X99278Y165937D01*
X99318Y165905D01*
X99357Y165878D01*
X99383Y165852D01*
X99403Y165832D01*
X99416Y165826D01*
X99423Y165819D01*
X99488Y165754D01*
X99547Y165682D01*
X99600Y165616D01*
X99639Y165550D01*
X99678Y165485D01*
X99711Y165419D01*
X99757Y165301D01*
X99783Y165203D01*
X99790Y165157D01*
X99796Y165124D01*
X99803Y165091D01*
Y165072D01*
Y165058D01*
Y165052D01*
Y163727D01*
X99796Y163655D01*
X99783Y163576D01*
X99770Y163504D01*
X99744Y163438D01*
X99678Y163307D01*
X99606Y163189D01*
X99541Y163097D01*
X99508Y163058D01*
X99475Y163025D01*
X99449Y162999D01*
X99436Y162979D01*
X99423Y162966D01*
X99416Y162959D01*
X99344Y162894D01*
X99265Y162841D01*
X99193Y162795D01*
X99121Y162749D01*
X98983Y162684D01*
X98858Y162644D01*
X98753Y162618D01*
X98707Y162612D01*
X98668Y162605D01*
X98635Y162598D01*
X97861D01*
X97782Y162605D01*
X97704Y162612D01*
X97559Y162651D01*
X97422Y162710D01*
X97297Y162776D01*
X97192Y162841D01*
X97153Y162874D01*
X97113Y162900D01*
X97087Y162920D01*
X97067Y162940D01*
X97054Y162946D01*
X97048Y162953D01*
X96976Y163018D01*
X96917Y163090D01*
X96864Y163156D01*
X96818Y163222D01*
X96779Y163287D01*
X96746Y163353D01*
X96700Y163471D01*
X96667Y163576D01*
X96661Y163622D01*
X96654Y163655D01*
X96648Y163687D01*
Y163707D01*
Y163720D01*
Y163727D01*
Y165052D01*
X96654Y165131D01*
X96667Y165209D01*
X96687Y165281D01*
X96707Y165354D01*
X96772Y165485D01*
X96844Y165603D01*
X96923Y165701D01*
X96956Y165741D01*
X96982Y165773D01*
X97008Y165800D01*
X97028Y165819D01*
X97041Y165826D01*
X97048Y165832D01*
X97120Y165898D01*
X97199Y165951D01*
X97271Y165997D01*
X97343Y166042D01*
X97481Y166102D01*
X97599Y166147D01*
X97710Y166167D01*
X97750Y166180D01*
X97789D01*
X97822Y166187D01*
X98596D01*
X98681Y166180D01*
D02*
G37*
G36*
X122002Y156686D02*
X122048Y156679D01*
X122114Y156647D01*
X122140Y156627D01*
X122160Y156614D01*
X122173Y156607D01*
X122179Y156601D01*
X122212Y156568D01*
X122232Y156528D01*
X122258Y156456D01*
X122265Y156423D01*
X122271Y156397D01*
Y156384D01*
Y156377D01*
Y155840D01*
X122265Y155794D01*
X122258Y155754D01*
X122225Y155682D01*
X122212Y155656D01*
X122199Y155643D01*
X122192Y155630D01*
X122186Y155623D01*
X122146Y155590D01*
X122114Y155571D01*
X122041Y155544D01*
X122009Y155538D01*
X121982Y155531D01*
X121320D01*
X121274Y155538D01*
X121228Y155544D01*
X121156Y155577D01*
X121130Y155597D01*
X121110Y155610D01*
X121103Y155617D01*
X121097Y155623D01*
X121064Y155663D01*
X121044Y155695D01*
X121018Y155768D01*
X121012Y155800D01*
X121005Y155826D01*
Y155840D01*
Y155846D01*
Y156377D01*
X121012Y156423D01*
X121018Y156469D01*
X121051Y156542D01*
X121071Y156568D01*
X121090Y156587D01*
X121097Y156594D01*
X121103Y156601D01*
X121136Y156633D01*
X121176Y156653D01*
X121248Y156679D01*
X121274Y156686D01*
X121300Y156692D01*
X121956D01*
X122002Y156686D01*
D02*
G37*
G36*
X135798D02*
X135844Y156679D01*
X135909Y156647D01*
X135936Y156627D01*
X135955Y156614D01*
X135968Y156607D01*
X135975Y156601D01*
X136008Y156568D01*
X136027Y156528D01*
X136054Y156456D01*
X136060Y156423D01*
X136067Y156397D01*
Y156384D01*
Y156377D01*
Y155840D01*
X136060Y155794D01*
X136054Y155754D01*
X136021Y155682D01*
X136008Y155656D01*
X135995Y155643D01*
X135988Y155630D01*
X135982Y155623D01*
X135942Y155590D01*
X135909Y155571D01*
X135837Y155544D01*
X135804Y155538D01*
X135778Y155531D01*
X135116D01*
X135070Y155538D01*
X135024Y155544D01*
X134952Y155577D01*
X134925Y155597D01*
X134906Y155610D01*
X134899Y155617D01*
X134892Y155623D01*
X134860Y155663D01*
X134840Y155695D01*
X134814Y155768D01*
X134807Y155800D01*
X134801Y155826D01*
Y155840D01*
Y155846D01*
Y156377D01*
X134807Y156423D01*
X134814Y156469D01*
X134847Y156542D01*
X134866Y156568D01*
X134886Y156587D01*
X134892Y156594D01*
X134899Y156601D01*
X134932Y156633D01*
X134971Y156653D01*
X135043Y156679D01*
X135070Y156686D01*
X135096Y156692D01*
X135752D01*
X135798Y156686D01*
D02*
G37*
G36*
X140449Y174048D02*
X140560Y174021D01*
X140659Y173982D01*
X140744Y173936D01*
X140810Y173890D01*
X140862Y173851D01*
X140888Y173825D01*
X140901Y173811D01*
X140980Y173720D01*
X141033Y173621D01*
X141072Y173523D01*
X141105Y173431D01*
X141118Y173352D01*
X141124Y173293D01*
X141131Y173267D01*
Y173247D01*
Y173241D01*
Y173234D01*
X141124Y173155D01*
X141111Y173077D01*
X141092Y173005D01*
X141065Y172946D01*
X141046Y172893D01*
X141026Y172847D01*
X141013Y172821D01*
X141006Y172814D01*
X140954Y172742D01*
X140895Y172683D01*
X140829Y172631D01*
X140770Y172585D01*
X140718Y172552D01*
X140672Y172526D01*
X140646Y172513D01*
X140632Y172506D01*
X138953Y171752D01*
X138881Y171712D01*
X138828Y171660D01*
X138796Y171614D01*
X138769Y171561D01*
X138756Y171516D01*
X138743Y171476D01*
Y171450D01*
Y171443D01*
X138750Y171391D01*
X138756Y171345D01*
X138789Y171273D01*
X138809Y171240D01*
X138828Y171220D01*
X138835Y171207D01*
X138841Y171201D01*
X138874Y171168D01*
X138914Y171142D01*
X138953Y171122D01*
X138992Y171109D01*
X139025Y171102D01*
X139045Y171096D01*
X140232D01*
X140324Y171102D01*
X140403Y171115D01*
X140468Y171135D01*
X140527Y171161D01*
X140567Y171187D01*
X140600Y171207D01*
X140619Y171220D01*
X140626Y171227D01*
X140678Y171273D01*
X140724Y171306D01*
X140770Y171332D01*
X140803Y171345D01*
X140836Y171358D01*
X140862Y171365D01*
X140882D01*
X140934Y171358D01*
X140980Y171352D01*
X141019Y171332D01*
X141052Y171319D01*
X141078Y171299D01*
X141098Y171279D01*
X141111Y171273D01*
X141118Y171266D01*
X141144Y171233D01*
X141164Y171194D01*
X141190Y171122D01*
X141197Y171096D01*
X141203Y171069D01*
Y171056D01*
Y171050D01*
X141190Y170984D01*
X141157Y170912D01*
X141118Y170846D01*
X141065Y170794D01*
X141013Y170741D01*
X140973Y170702D01*
X140941Y170676D01*
X140928Y170669D01*
X140823Y170604D01*
X140711Y170558D01*
X140613Y170518D01*
X140514Y170499D01*
X140436Y170486D01*
X140370Y170479D01*
X140350Y170472D01*
X139051D01*
X138920Y170486D01*
X138796Y170518D01*
X138691Y170558D01*
X138592Y170610D01*
X138514Y170663D01*
X138461Y170702D01*
X138422Y170735D01*
X138409Y170748D01*
X138356Y170800D01*
X138310Y170860D01*
X138245Y170971D01*
X138192Y171089D01*
X138153Y171194D01*
X138133Y171286D01*
X138127Y171365D01*
X138120Y171391D01*
Y171411D01*
Y171424D01*
Y171430D01*
X138127Y171542D01*
X138146Y171640D01*
X138172Y171739D01*
X138199Y171817D01*
X138232Y171883D01*
X138258Y171935D01*
X138277Y171962D01*
X138284Y171975D01*
X138349Y172060D01*
X138415Y172139D01*
X138487Y172198D01*
X138553Y172250D01*
X138612Y172290D01*
X138658Y172316D01*
X138684Y172329D01*
X138697Y172336D01*
X140364Y173077D01*
X140409Y173103D01*
X140442Y173129D01*
X140468Y173162D01*
X140481Y173188D01*
X140495Y173221D01*
X140501Y173241D01*
Y173254D01*
Y173260D01*
X140495Y173319D01*
X140468Y173365D01*
X140436Y173392D01*
X140396Y173418D01*
X140364Y173431D01*
X140331Y173438D01*
X138881D01*
X138828Y173431D01*
X138783Y173418D01*
X138704Y173372D01*
X138671Y173346D01*
X138645Y173319D01*
X138632Y173306D01*
X138625Y173300D01*
X138579Y173254D01*
X138527Y173221D01*
X138481Y173201D01*
X138441Y173188D01*
X138402Y173175D01*
X138376Y173169D01*
X138349D01*
X138304Y173175D01*
X138264Y173182D01*
X138199Y173214D01*
X138172Y173228D01*
X138153Y173241D01*
X138146Y173247D01*
X138140Y173254D01*
X138107Y173287D01*
X138081Y173326D01*
X138067Y173359D01*
X138054Y173392D01*
X138048Y173424D01*
X138041Y173451D01*
Y173464D01*
Y173470D01*
X138054Y173542D01*
X138081Y173608D01*
X138127Y173674D01*
X138172Y173733D01*
X138218Y173785D01*
X138264Y173825D01*
X138291Y173851D01*
X138304Y173857D01*
X138402Y173923D01*
X138500Y173976D01*
X138605Y174008D01*
X138697Y174035D01*
X138776Y174048D01*
X138835Y174061D01*
X140324D01*
X140449Y174048D01*
D02*
G37*
G36*
X150131Y175406D02*
X150171Y175399D01*
X150243Y175366D01*
X150269Y175347D01*
X150282Y175327D01*
X150295Y175320D01*
X150302Y175314D01*
X150335Y175281D01*
X150354Y175242D01*
X150381Y175169D01*
X150387Y175143D01*
X150394Y175117D01*
Y175104D01*
Y175097D01*
Y170472D01*
X147560D01*
X147514Y170479D01*
X147468Y170486D01*
X147396Y170518D01*
X147370Y170531D01*
X147350Y170545D01*
X147343Y170551D01*
X147337Y170558D01*
X147304Y170597D01*
X147278Y170630D01*
X147265Y170669D01*
X147251Y170702D01*
X147245Y170735D01*
X147238Y170761D01*
Y170774D01*
Y170781D01*
X147245Y170827D01*
X147251Y170873D01*
X147284Y170945D01*
X147304Y170971D01*
X147324Y170991D01*
X147330Y170997D01*
X147337Y171004D01*
X147370Y171037D01*
X147409Y171056D01*
X147481Y171082D01*
X147514Y171089D01*
X147540Y171096D01*
X149770D01*
Y175097D01*
X149777Y175143D01*
X149784Y175182D01*
X149816Y175255D01*
X149836Y175281D01*
X149856Y175301D01*
X149862Y175307D01*
X149869Y175314D01*
X149902Y175347D01*
X149941Y175373D01*
X149980Y175386D01*
X150013Y175399D01*
X150040Y175406D01*
X150066Y175412D01*
X150085D01*
X150131Y175406D01*
D02*
G37*
G36*
X130956Y174054D02*
X131068Y174028D01*
X131166Y173995D01*
X131245Y173956D01*
X131317Y173916D01*
X131370Y173884D01*
X131403Y173857D01*
X131416Y173851D01*
X131672Y173647D01*
X131724Y173602D01*
X131770Y173549D01*
X131816Y173490D01*
X131849Y173438D01*
X131875Y173392D01*
X131895Y173352D01*
X131908Y173326D01*
X131914Y173319D01*
X131947Y173247D01*
X131967Y173182D01*
X131986Y173129D01*
X131993Y173077D01*
X132000Y173044D01*
X132006Y173011D01*
Y172998D01*
Y172992D01*
Y171561D01*
X132000Y171502D01*
X131993Y171443D01*
X131980Y171384D01*
X131960Y171332D01*
X131947Y171279D01*
X131934Y171247D01*
X131927Y171220D01*
X131921Y171214D01*
X131888Y171148D01*
X131849Y171089D01*
X131816Y171043D01*
X131783Y171004D01*
X131750Y170971D01*
X131724Y170945D01*
X131711Y170932D01*
X131704Y170925D01*
X131422Y170682D01*
X131389Y170656D01*
X131343Y170630D01*
X131258Y170584D01*
X131219Y170564D01*
X131186Y170551D01*
X131166Y170538D01*
X131160D01*
X131029Y170499D01*
X130970Y170486D01*
X130917Y170479D01*
X130871D01*
X130838Y170472D01*
X129165D01*
X129120Y170479D01*
X129080Y170486D01*
X129008Y170518D01*
X128982Y170538D01*
X128962Y170551D01*
X128956Y170558D01*
X128949Y170564D01*
X128916Y170597D01*
X128890Y170636D01*
X128877Y170676D01*
X128864Y170709D01*
X128857Y170735D01*
X128851Y170761D01*
Y170774D01*
Y170781D01*
X128857Y170827D01*
X128864Y170873D01*
X128897Y170945D01*
X128916Y170971D01*
X128936Y170991D01*
X128943Y170997D01*
X128949Y171004D01*
X128982Y171037D01*
X129021Y171056D01*
X129093Y171082D01*
X129120Y171089D01*
X129146Y171096D01*
X130779D01*
X130832Y171102D01*
X130878Y171115D01*
X130970Y171155D01*
X131009Y171174D01*
X131035Y171187D01*
X131055Y171201D01*
X131061Y171207D01*
X131238Y171365D01*
X131284Y171411D01*
X131317Y171456D01*
X131343Y171496D01*
X131357Y171542D01*
X131370Y171581D01*
X131376Y171607D01*
Y171627D01*
Y171634D01*
Y171824D01*
X129165D01*
X129120Y171830D01*
X129080Y171837D01*
X129008Y171870D01*
X128982Y171889D01*
X128962Y171903D01*
X128956Y171909D01*
X128949Y171916D01*
X128916Y171948D01*
X128890Y171988D01*
X128877Y172027D01*
X128864Y172060D01*
X128857Y172086D01*
X128851Y172112D01*
Y172126D01*
Y172132D01*
Y172887D01*
X128864Y173044D01*
X128890Y173182D01*
X128929Y173300D01*
X128975Y173392D01*
X129028Y173464D01*
X129067Y173523D01*
X129093Y173549D01*
X129106Y173562D01*
X129343Y173785D01*
X129454Y173877D01*
X129566Y173943D01*
X129671Y173995D01*
X129762Y174028D01*
X129848Y174048D01*
X129907Y174054D01*
X129933Y174061D01*
X130845D01*
X130956Y174054D01*
D02*
G37*
G36*
X117325D02*
X117371Y174048D01*
X117436Y174015D01*
X117463Y173995D01*
X117482Y173982D01*
X117495Y173976D01*
X117502Y173969D01*
X117528Y173936D01*
X117548Y173897D01*
X117574Y173825D01*
X117581Y173792D01*
X117587Y173766D01*
Y173752D01*
Y173746D01*
X117581Y173700D01*
X117574Y173661D01*
X117541Y173588D01*
X117522Y173562D01*
X117508Y173549D01*
X117502Y173536D01*
X117495Y173529D01*
X117463Y173497D01*
X117423Y173477D01*
X117351Y173451D01*
X117325Y173444D01*
X117298Y173438D01*
X116078D01*
X116032Y173431D01*
X115987Y173424D01*
X115914Y173392D01*
X115888Y173372D01*
X115868Y173359D01*
X115862Y173352D01*
X115855Y173346D01*
X115823Y173313D01*
X115803Y173274D01*
X115777Y173201D01*
X115770Y173169D01*
X115763Y173142D01*
Y173129D01*
Y173123D01*
X115757Y172677D01*
X115823Y172696D01*
X115882Y172709D01*
X115934Y172716D01*
X115973Y172722D01*
X116006Y172729D01*
X117344D01*
X117417Y172716D01*
X117541Y172683D01*
X117659Y172637D01*
X117751Y172591D01*
X117836Y172539D01*
X117889Y172493D01*
X117928Y172460D01*
X117935Y172454D01*
X117941Y172447D01*
X118033Y172342D01*
X118099Y172224D01*
X118151Y172112D01*
X118184Y172008D01*
X118204Y171916D01*
X118210Y171844D01*
X118217Y171817D01*
Y171798D01*
Y171784D01*
Y171778D01*
Y171417D01*
X118204Y171273D01*
X118171Y171148D01*
X118132Y171030D01*
X118079Y170938D01*
X118027Y170853D01*
X117987Y170800D01*
X117955Y170761D01*
X117941Y170748D01*
X117836Y170656D01*
X117718Y170590D01*
X117607Y170538D01*
X117502Y170505D01*
X117410Y170486D01*
X117338Y170479D01*
X117312Y170472D01*
X116216D01*
X115685Y170787D01*
X115678Y170741D01*
X115672Y170695D01*
X115639Y170630D01*
X115619Y170604D01*
X115606Y170584D01*
X115600Y170571D01*
X115593Y170564D01*
X115553Y170531D01*
X115521Y170512D01*
X115449Y170486D01*
X115416Y170479D01*
X115390Y170472D01*
X115370D01*
X115324Y170479D01*
X115285Y170486D01*
X115212Y170518D01*
X115186Y170531D01*
X115166Y170545D01*
X115160Y170551D01*
X115153Y170558D01*
X115121Y170597D01*
X115094Y170630D01*
X115081Y170669D01*
X115068Y170702D01*
X115061Y170735D01*
X115055Y170761D01*
Y170774D01*
Y170781D01*
X115134Y173123D01*
X115147Y173267D01*
X115186Y173392D01*
X115232Y173503D01*
X115285Y173602D01*
X115337Y173680D01*
X115376Y173739D01*
X115409Y173772D01*
X115422Y173785D01*
X115527Y173877D01*
X115639Y173943D01*
X115750Y173995D01*
X115855Y174028D01*
X115947Y174048D01*
X116019Y174054D01*
X116045Y174061D01*
X117279D01*
X117325Y174054D01*
D02*
G37*
G36*
X122219Y175406D02*
X122264Y175399D01*
X122330Y175366D01*
X122356Y175347D01*
X122376Y175333D01*
X122389Y175327D01*
X122396Y175320D01*
X122422Y175287D01*
X122441Y175248D01*
X122468Y175176D01*
X122474Y175143D01*
X122481Y175117D01*
Y175104D01*
Y175097D01*
X122474Y175051D01*
X122468Y175005D01*
X122435Y174940D01*
X122422Y174914D01*
X122409Y174894D01*
X122402Y174881D01*
X122396Y174874D01*
X122356Y174848D01*
X122324Y174828D01*
X122251Y174802D01*
X122219Y174795D01*
X122192Y174789D01*
X121543D01*
Y171102D01*
X122173D01*
X122219Y171096D01*
X122264Y171089D01*
X122330Y171056D01*
X122356Y171037D01*
X122376Y171017D01*
X122389Y171010D01*
X122396Y171004D01*
X122422Y170971D01*
X122441Y170932D01*
X122468Y170860D01*
X122474Y170833D01*
X122481Y170807D01*
Y170794D01*
Y170787D01*
X122474Y170741D01*
X122468Y170695D01*
X122435Y170630D01*
X122422Y170604D01*
X122409Y170584D01*
X122402Y170571D01*
X122396Y170564D01*
X122356Y170531D01*
X122324Y170512D01*
X122251Y170486D01*
X122219Y170479D01*
X122192Y170472D01*
X120277D01*
X120231Y170479D01*
X120185Y170486D01*
X120113Y170518D01*
X120087Y170538D01*
X120067Y170551D01*
X120060Y170558D01*
X120054Y170564D01*
X120021Y170604D01*
X120001Y170636D01*
X119975Y170709D01*
X119968Y170741D01*
X119962Y170768D01*
Y170781D01*
Y170787D01*
X119968Y170833D01*
X119975Y170873D01*
X120008Y170945D01*
X120027Y170971D01*
X120047Y170991D01*
X120054Y170997D01*
X120060Y171004D01*
X120093Y171037D01*
X120132Y171063D01*
X120172Y171076D01*
X120205Y171089D01*
X120231Y171096D01*
X120257Y171102D01*
X120913D01*
Y175097D01*
X120920Y175143D01*
X120926Y175182D01*
X120959Y175255D01*
X120979Y175281D01*
X120998Y175301D01*
X121005Y175307D01*
X121011Y175314D01*
X121044Y175347D01*
X121084Y175373D01*
X121123Y175386D01*
X121156Y175399D01*
X121182Y175406D01*
X121208Y175412D01*
X122173D01*
X122219Y175406D01*
D02*
G37*
G36*
X104152Y174054D02*
X104198Y174048D01*
X104264Y174015D01*
X104290Y173995D01*
X104310Y173976D01*
X104323Y173969D01*
X104329Y173962D01*
X104356Y173930D01*
X104375Y173890D01*
X104402Y173818D01*
X104408Y173785D01*
X104415Y173759D01*
Y173746D01*
Y173739D01*
Y170781D01*
X104408Y170735D01*
X104402Y170695D01*
X104369Y170623D01*
X104349Y170597D01*
X104336Y170584D01*
X104329Y170571D01*
X104323Y170564D01*
X104290Y170531D01*
X104251Y170512D01*
X104179Y170486D01*
X104152Y170479D01*
X104126Y170472D01*
X104106D01*
X104060Y170479D01*
X104021Y170486D01*
X103949Y170518D01*
X103923Y170538D01*
X103903Y170551D01*
X103896Y170558D01*
X103890Y170564D01*
X103857Y170597D01*
X103831Y170636D01*
X103818Y170676D01*
X103805Y170709D01*
X103798Y170735D01*
X103791Y170761D01*
Y170774D01*
Y170781D01*
Y172775D01*
X102939Y173326D01*
X102880Y173365D01*
X102821Y173392D01*
X102768Y173411D01*
X102722Y173424D01*
X102683Y173431D01*
X102657Y173438D01*
X102322D01*
X102263Y173431D01*
X102210Y173424D01*
X102165Y173405D01*
X102125Y173385D01*
X102066Y173333D01*
X102020Y173274D01*
X101994Y173214D01*
X101981Y173162D01*
X101974Y173123D01*
Y173116D01*
Y173110D01*
X101876Y170781D01*
X101869Y170728D01*
X101863Y170682D01*
X101850Y170643D01*
X101830Y170610D01*
X101810Y170584D01*
X101797Y170564D01*
X101791Y170558D01*
X101784Y170551D01*
X101751Y170525D01*
X101712Y170505D01*
X101640Y170486D01*
X101613Y170479D01*
X101587Y170472D01*
X101568D01*
X101522Y170479D01*
X101476Y170486D01*
X101404Y170518D01*
X101377Y170538D01*
X101358Y170551D01*
X101351Y170558D01*
X101345Y170564D01*
X101312Y170597D01*
X101292Y170636D01*
X101266Y170709D01*
X101259Y170735D01*
X101253Y170761D01*
Y170774D01*
Y170781D01*
X101345Y173142D01*
X101364Y173280D01*
X101397Y173405D01*
X101450Y173516D01*
X101502Y173615D01*
X101555Y173687D01*
X101594Y173746D01*
X101627Y173779D01*
X101640Y173792D01*
X101745Y173884D01*
X101856Y173949D01*
X101961Y173995D01*
X102060Y174028D01*
X102152Y174048D01*
X102217Y174054D01*
X102243Y174061D01*
X102571D01*
X102702Y174054D01*
X102827Y174035D01*
X102932Y174002D01*
X103031Y173969D01*
X103109Y173936D01*
X103168Y173903D01*
X103208Y173884D01*
X103214Y173877D01*
X103221D01*
X103791Y173536D01*
Y173739D01*
X103798Y173785D01*
X103805Y173831D01*
X103837Y173903D01*
X103857Y173930D01*
X103877Y173949D01*
X103883Y173956D01*
X103890Y173962D01*
X103923Y173995D01*
X103962Y174021D01*
X104001Y174035D01*
X104034Y174048D01*
X104060Y174054D01*
X104087Y174061D01*
X104106D01*
X104152Y174054D01*
D02*
G37*
G36*
X113415D02*
X113461Y174048D01*
X113526Y174015D01*
X113553Y173995D01*
X113572Y173982D01*
X113585Y173976D01*
X113592Y173969D01*
X113625Y173936D01*
X113645Y173897D01*
X113671Y173825D01*
X113677Y173792D01*
X113684Y173766D01*
Y173752D01*
Y173746D01*
Y170781D01*
X113677Y170735D01*
X113671Y170695D01*
X113638Y170623D01*
X113618Y170597D01*
X113605Y170584D01*
X113599Y170571D01*
X113592Y170564D01*
X113553Y170531D01*
X113520Y170512D01*
X113448Y170486D01*
X113415Y170479D01*
X113389Y170472D01*
X113369D01*
X113323Y170479D01*
X113284Y170486D01*
X113212Y170518D01*
X113185Y170538D01*
X113166Y170551D01*
X113159Y170558D01*
X113153Y170564D01*
X113120Y170597D01*
X113100Y170636D01*
X113074Y170709D01*
X113067Y170735D01*
X113061Y170761D01*
Y170774D01*
Y170781D01*
Y172998D01*
X112615Y173379D01*
X112575Y173411D01*
X112529Y173424D01*
X112503Y173431D01*
X112490D01*
X112444Y173424D01*
X112411Y173405D01*
X112385Y173379D01*
X112372Y173352D01*
X112359Y173319D01*
X112352Y173293D01*
Y173274D01*
Y173267D01*
Y170781D01*
X112346Y170735D01*
X112339Y170689D01*
X112306Y170623D01*
X112287Y170597D01*
X112274Y170577D01*
X112267Y170564D01*
X112260Y170558D01*
X112228Y170531D01*
X112188Y170512D01*
X112116Y170486D01*
X112090Y170479D01*
X112064Y170472D01*
X112044D01*
X111998Y170479D01*
X111952Y170486D01*
X111880Y170518D01*
X111854Y170531D01*
X111834Y170545D01*
X111828Y170551D01*
X111821Y170558D01*
X111788Y170590D01*
X111768Y170630D01*
X111742Y170702D01*
X111736Y170728D01*
X111729Y170755D01*
Y170768D01*
Y170774D01*
Y173057D01*
X111355Y173372D01*
X111303Y173405D01*
X111263Y173424D01*
X111237Y173431D01*
X111224D01*
X111185Y173424D01*
X111152Y173398D01*
X111132Y173365D01*
X111112Y173333D01*
X111106Y173293D01*
X111099Y173260D01*
X111093Y173234D01*
Y173228D01*
X111021Y170781D01*
X111014Y170735D01*
X111007Y170695D01*
X110975Y170623D01*
X110955Y170597D01*
X110942Y170584D01*
X110935Y170571D01*
X110929Y170564D01*
X110889Y170531D01*
X110857Y170512D01*
X110784Y170486D01*
X110752Y170479D01*
X110725Y170472D01*
X110706D01*
X110660Y170479D01*
X110620Y170486D01*
X110548Y170518D01*
X110522Y170538D01*
X110502Y170551D01*
X110496Y170558D01*
X110489Y170564D01*
X110456Y170597D01*
X110430Y170636D01*
X110417Y170676D01*
X110404Y170709D01*
X110397Y170735D01*
X110391Y170761D01*
Y170774D01*
Y170781D01*
X110476Y173326D01*
X110489Y173444D01*
X110522Y173542D01*
X110561Y173634D01*
X110601Y173706D01*
X110640Y173772D01*
X110679Y173811D01*
X110706Y173844D01*
X110712Y173851D01*
X110791Y173923D01*
X110876Y173976D01*
X110961Y174008D01*
X111040Y174035D01*
X111106Y174048D01*
X111165Y174061D01*
X111211D01*
X111276Y174054D01*
X111342Y174048D01*
X111467Y174008D01*
X111578Y173962D01*
X111677Y173903D01*
X111755Y173844D01*
X111814Y173792D01*
X111854Y173752D01*
X111860Y173746D01*
X111867Y173739D01*
X111913Y173798D01*
X111965Y173844D01*
X112011Y173890D01*
X112064Y173923D01*
X112169Y173982D01*
X112267Y174021D01*
X112352Y174041D01*
X112418Y174054D01*
X112444Y174061D01*
X112484D01*
X112601Y174048D01*
X112706Y174021D01*
X112805Y173982D01*
X112890Y173936D01*
X112962Y173890D01*
X113015Y173851D01*
X113048Y173825D01*
X113061Y173811D01*
X113093Y173897D01*
X113139Y173956D01*
X113185Y174002D01*
X113238Y174028D01*
X113290Y174048D01*
X113330Y174054D01*
X113356Y174061D01*
X113369D01*
X113415Y174054D01*
D02*
G37*
G36*
X136342D02*
X136388Y174048D01*
X136454Y174015D01*
X136480Y173995D01*
X136500Y173976D01*
X136513Y173969D01*
X136519Y173962D01*
X136546Y173930D01*
X136565Y173890D01*
X136591Y173818D01*
X136598Y173785D01*
X136605Y173759D01*
Y173746D01*
Y173739D01*
Y170781D01*
X136598Y170735D01*
X136591Y170689D01*
X136559Y170623D01*
X136546Y170597D01*
X136532Y170577D01*
X136526Y170564D01*
X136519Y170558D01*
X136480Y170531D01*
X136447Y170512D01*
X136375Y170486D01*
X136342Y170479D01*
X136316Y170472D01*
X136296D01*
X136250Y170479D01*
X136211Y170486D01*
X136139Y170518D01*
X136113Y170531D01*
X136093Y170545D01*
X136086Y170551D01*
X136080Y170558D01*
X136047Y170597D01*
X136021Y170630D01*
X136008Y170669D01*
X135995Y170702D01*
X135988Y170735D01*
X135981Y170761D01*
Y170774D01*
Y170781D01*
Y172532D01*
X135096Y173300D01*
X135037Y173346D01*
X134984Y173379D01*
X134932Y173405D01*
X134892Y173418D01*
X134860Y173431D01*
X134827Y173438D01*
X134400D01*
X134354Y173431D01*
X134309Y173424D01*
X134236Y173392D01*
X134210Y173372D01*
X134190Y173359D01*
X134184Y173352D01*
X134177Y173346D01*
X134145Y173313D01*
X134125Y173274D01*
X134099Y173201D01*
X134092Y173169D01*
X134086Y173142D01*
Y173129D01*
Y173123D01*
Y172946D01*
X134079Y172900D01*
X134072Y172854D01*
X134040Y172788D01*
X134027Y172762D01*
X134013Y172742D01*
X134007Y172729D01*
X134000Y172722D01*
X133961Y172696D01*
X133928Y172677D01*
X133856Y172650D01*
X133823Y172644D01*
X133797Y172637D01*
X133777D01*
X133731Y172644D01*
X133685Y172650D01*
X133613Y172683D01*
X133587Y172703D01*
X133567Y172716D01*
X133561Y172722D01*
X133554Y172729D01*
X133521Y172768D01*
X133502Y172801D01*
X133475Y172873D01*
X133469Y172906D01*
X133462Y172932D01*
Y172946D01*
Y172952D01*
Y173123D01*
X133475Y173260D01*
X133508Y173392D01*
X133548Y173503D01*
X133600Y173602D01*
X133653Y173680D01*
X133692Y173739D01*
X133725Y173772D01*
X133738Y173785D01*
X133843Y173877D01*
X133954Y173943D01*
X134066Y173995D01*
X134171Y174028D01*
X134263Y174048D01*
X134335Y174054D01*
X134361Y174061D01*
X134860D01*
X134971Y174048D01*
X135083Y174021D01*
X135188Y173976D01*
X135280Y173930D01*
X135358Y173877D01*
X135424Y173831D01*
X135463Y173805D01*
X135470Y173792D01*
X135476D01*
X135981Y173359D01*
Y173739D01*
X135988Y173785D01*
X135995Y173831D01*
X136027Y173903D01*
X136047Y173930D01*
X136060Y173949D01*
X136067Y173956D01*
X136073Y173962D01*
X136106Y173995D01*
X136145Y174021D01*
X136185Y174035D01*
X136217Y174048D01*
X136250Y174054D01*
X136277Y174061D01*
X136296D01*
X136342Y174054D01*
D02*
G37*
G36*
X85751Y175406D02*
X85797Y175399D01*
X85863Y175366D01*
X85889Y175347D01*
X85909Y175333D01*
X85922Y175327D01*
X85929Y175320D01*
X85955Y175287D01*
X85975Y175248D01*
X86001Y175176D01*
X86007Y175143D01*
X86014Y175117D01*
Y175104D01*
Y175097D01*
X86007Y175051D01*
X86001Y175005D01*
X85968Y174940D01*
X85955Y174914D01*
X85942Y174894D01*
X85935Y174881D01*
X85929Y174874D01*
X85889Y174848D01*
X85856Y174828D01*
X85784Y174802D01*
X85751Y174795D01*
X85725Y174789D01*
X84761D01*
Y171096D01*
X85719D01*
X85765Y171089D01*
X85811Y171082D01*
X85876Y171050D01*
X85902Y171030D01*
X85922Y171017D01*
X85935Y171010D01*
X85942Y171004D01*
X85968Y170971D01*
X85988Y170932D01*
X86014Y170860D01*
X86020Y170833D01*
X86027Y170807D01*
Y170794D01*
Y170787D01*
X86020Y170741D01*
X86014Y170695D01*
X85981Y170630D01*
X85968Y170604D01*
X85955Y170584D01*
X85948Y170571D01*
X85942Y170564D01*
X85902Y170531D01*
X85869Y170512D01*
X85797Y170486D01*
X85765Y170479D01*
X85738Y170472D01*
X83206D01*
X83160Y170479D01*
X83114Y170486D01*
X83042Y170518D01*
X83016Y170531D01*
X82996Y170545D01*
X82990Y170551D01*
X82983Y170558D01*
X82950Y170597D01*
X82931Y170630D01*
X82904Y170702D01*
X82898Y170735D01*
X82891Y170761D01*
Y170774D01*
Y170781D01*
Y172395D01*
X82898Y172440D01*
X82904Y172486D01*
X82937Y172558D01*
X82957Y172585D01*
X82970Y172604D01*
X82977Y172611D01*
X82983Y172618D01*
X83016Y172650D01*
X83055Y172670D01*
X83127Y172696D01*
X83160Y172703D01*
X83187Y172709D01*
X83206D01*
X83252Y172703D01*
X83298Y172696D01*
X83364Y172663D01*
X83390Y172644D01*
X83410Y172624D01*
X83423Y172618D01*
X83429Y172611D01*
X83455Y172578D01*
X83475Y172539D01*
X83501Y172467D01*
X83508Y172440D01*
X83514Y172414D01*
Y172401D01*
Y172395D01*
Y171096D01*
X84138D01*
Y175412D01*
X85706D01*
X85751Y175406D01*
D02*
G37*
G36*
X127145D02*
X127191Y175399D01*
X127257Y175366D01*
X127283Y175347D01*
X127303Y175327D01*
X127316Y175320D01*
X127322Y175314D01*
X127348Y175281D01*
X127368Y175242D01*
X127394Y175169D01*
X127401Y175137D01*
X127408Y175110D01*
Y175097D01*
Y175091D01*
Y170781D01*
X127401Y170735D01*
X127394Y170689D01*
X127362Y170623D01*
X127348Y170597D01*
X127335Y170577D01*
X127329Y170564D01*
X127322Y170558D01*
X127283Y170531D01*
X127250Y170512D01*
X127178Y170486D01*
X127145Y170479D01*
X127119Y170472D01*
X127099D01*
X127053Y170479D01*
X127007Y170486D01*
X126935Y170518D01*
X126909Y170531D01*
X126889Y170545D01*
X126883Y170551D01*
X126876Y170558D01*
X126843Y170597D01*
X126824Y170630D01*
X126797Y170702D01*
X126791Y170735D01*
X126784Y170761D01*
Y170774D01*
Y170781D01*
Y171725D01*
X126463Y172001D01*
X124790Y170558D01*
X124751Y170531D01*
X124711Y170512D01*
X124633Y170486D01*
X124606Y170479D01*
X124580Y170472D01*
X124560D01*
X124514Y170479D01*
X124469Y170486D01*
X124396Y170525D01*
X124370Y170538D01*
X124351Y170558D01*
X124344Y170564D01*
X124337Y170571D01*
X124305Y170610D01*
X124285Y170650D01*
X124259Y170715D01*
X124252Y170748D01*
X124246Y170768D01*
Y170781D01*
Y170787D01*
X124252Y170833D01*
X124259Y170873D01*
X124292Y170938D01*
X124311Y170958D01*
X124331Y170978D01*
X124337Y170984D01*
X124344Y170991D01*
X125971Y172408D01*
X124646Y173516D01*
X124613Y173549D01*
X124587Y173588D01*
X124574Y173628D01*
X124560Y173661D01*
X124554Y173693D01*
X124547Y173720D01*
Y173733D01*
Y173739D01*
X124554Y173785D01*
X124560Y173831D01*
X124593Y173903D01*
X124613Y173930D01*
X124626Y173949D01*
X124633Y173956D01*
X124639Y173962D01*
X124672Y173995D01*
X124711Y174021D01*
X124751Y174035D01*
X124784Y174048D01*
X124816Y174054D01*
X124843Y174061D01*
X124862D01*
X124908Y174054D01*
X124954Y174048D01*
X125026Y174015D01*
X125059Y173995D01*
X125079Y173982D01*
X125092Y173976D01*
X125098Y173969D01*
X126784Y172539D01*
Y175091D01*
X126791Y175137D01*
X126797Y175182D01*
X126830Y175255D01*
X126850Y175281D01*
X126863Y175301D01*
X126869Y175307D01*
X126876Y175314D01*
X126909Y175347D01*
X126948Y175373D01*
X126988Y175386D01*
X127020Y175399D01*
X127053Y175406D01*
X127079Y175412D01*
X127099D01*
X127145Y175406D01*
D02*
G37*
G36*
X80720Y172631D02*
X78824D01*
Y171096D01*
X80274D01*
X80333Y171102D01*
X80379Y171115D01*
X80418Y171128D01*
X80425Y171135D01*
X80431D01*
X80845Y171312D01*
X80930Y171345D01*
X80996Y171365D01*
X81022Y171371D01*
X81061D01*
X81100Y171365D01*
X81140Y171358D01*
X81205Y171325D01*
X81232Y171306D01*
X81251Y171292D01*
X81258Y171286D01*
X81264Y171279D01*
X81291Y171247D01*
X81310Y171207D01*
X81337Y171135D01*
X81343Y171102D01*
X81350Y171076D01*
Y171063D01*
Y171056D01*
X81343Y170984D01*
X81323Y170919D01*
X81291Y170866D01*
X81258Y170827D01*
X81225Y170800D01*
X81192Y170774D01*
X81173Y170768D01*
X81166Y170761D01*
X80687Y170564D01*
X80608Y170531D01*
X80530Y170512D01*
X80464Y170492D01*
X80405Y170486D01*
X80353Y170479D01*
X80313Y170472D01*
X78831D01*
X78739Y170479D01*
X78654Y170499D01*
X78581Y170531D01*
X78516Y170564D01*
X78463Y170597D01*
X78424Y170630D01*
X78398Y170650D01*
X78391Y170656D01*
X78325Y170728D01*
X78280Y170800D01*
X78247Y170879D01*
X78227Y170945D01*
X78207Y171004D01*
X78201Y171056D01*
Y171082D01*
Y171096D01*
Y172624D01*
X78207Y172716D01*
X78227Y172801D01*
X78260Y172873D01*
X78293Y172939D01*
X78332Y172992D01*
X78358Y173031D01*
X78385Y173057D01*
X78391Y173064D01*
X78463Y173129D01*
X78535Y173175D01*
X78608Y173208D01*
X78680Y173228D01*
X78739Y173247D01*
X78785Y173254D01*
X80090D01*
Y174789D01*
X78516D01*
X78470Y174795D01*
X78424Y174802D01*
X78352Y174835D01*
X78325Y174848D01*
X78306Y174861D01*
X78299Y174868D01*
X78293Y174874D01*
X78260Y174914D01*
X78240Y174946D01*
X78214Y175019D01*
X78207Y175051D01*
X78201Y175078D01*
Y175091D01*
Y175097D01*
X78207Y175143D01*
X78214Y175182D01*
X78247Y175255D01*
X78267Y175281D01*
X78286Y175301D01*
X78293Y175307D01*
X78299Y175314D01*
X78332Y175347D01*
X78372Y175373D01*
X78411Y175386D01*
X78444Y175399D01*
X78470Y175406D01*
X78496Y175412D01*
X80720D01*
Y172631D01*
D02*
G37*
G36*
X94981Y175406D02*
X95027Y175399D01*
X95093Y175366D01*
X95119Y175347D01*
X95139Y175333D01*
X95152Y175327D01*
X95158Y175320D01*
X95185Y175287D01*
X95204Y175248D01*
X95231Y175176D01*
X95237Y175143D01*
X95244Y175117D01*
Y175104D01*
Y175097D01*
X95237Y175051D01*
X95231Y175005D01*
X95198Y174940D01*
X95185Y174914D01*
X95172Y174894D01*
X95165Y174881D01*
X95158Y174874D01*
X95119Y174848D01*
X95086Y174828D01*
X95014Y174802D01*
X94981Y174795D01*
X94955Y174789D01*
X92692D01*
Y173267D01*
X94601D01*
X94693Y173260D01*
X94778Y173241D01*
X94850Y173208D01*
X94916Y173175D01*
X94968Y173136D01*
X95008Y173110D01*
X95034Y173083D01*
X95040Y173077D01*
X95100Y173005D01*
X95145Y172932D01*
X95178Y172854D01*
X95198Y172788D01*
X95211Y172722D01*
X95224Y172677D01*
Y172644D01*
Y172631D01*
Y170472D01*
X92377D01*
X92331Y170479D01*
X92292Y170486D01*
X92220Y170518D01*
X92193Y170531D01*
X92174Y170545D01*
X92167Y170551D01*
X92161Y170558D01*
X92128Y170597D01*
X92102Y170630D01*
X92088Y170669D01*
X92075Y170702D01*
X92069Y170735D01*
X92062Y170761D01*
Y170774D01*
Y170781D01*
X92069Y170827D01*
X92075Y170873D01*
X92108Y170945D01*
X92128Y170971D01*
X92147Y170991D01*
X92154Y170997D01*
X92161Y171004D01*
X92193Y171037D01*
X92233Y171056D01*
X92305Y171082D01*
X92331Y171089D01*
X92357Y171096D01*
X94601D01*
Y172637D01*
X92699D01*
X92607Y172644D01*
X92515Y172663D01*
X92443Y172696D01*
X92377Y172729D01*
X92325Y172762D01*
X92285Y172795D01*
X92259Y172814D01*
X92252Y172821D01*
X92187Y172893D01*
X92141Y172965D01*
X92108Y173044D01*
X92088Y173116D01*
X92069Y173175D01*
X92062Y173221D01*
Y173254D01*
Y173267D01*
Y174782D01*
X92069Y174874D01*
X92088Y174960D01*
X92121Y175032D01*
X92154Y175097D01*
X92193Y175150D01*
X92220Y175189D01*
X92246Y175215D01*
X92252Y175222D01*
X92325Y175287D01*
X92397Y175333D01*
X92475Y175366D01*
X92541Y175386D01*
X92607Y175406D01*
X92653Y175412D01*
X94936D01*
X94981Y175406D01*
D02*
G37*
G36*
X90114D02*
X90199Y175386D01*
X90265Y175353D01*
X90330Y175320D01*
X90376Y175287D01*
X90416Y175255D01*
X90442Y175235D01*
X90448Y175228D01*
X90508Y175163D01*
X90553Y175091D01*
X90580Y175019D01*
X90606Y174953D01*
X90619Y174894D01*
X90626Y174848D01*
Y174822D01*
Y174809D01*
Y171069D01*
X90619Y170978D01*
X90599Y170899D01*
X90573Y170827D01*
X90540Y170761D01*
X90508Y170715D01*
X90481Y170676D01*
X90461Y170650D01*
X90455Y170643D01*
X90383Y170584D01*
X90311Y170545D01*
X90245Y170512D01*
X90173Y170492D01*
X90114Y170479D01*
X90068Y170472D01*
X88080D01*
X87988Y170479D01*
X87910Y170499D01*
X87837Y170525D01*
X87772Y170558D01*
X87726Y170590D01*
X87687Y170617D01*
X87660Y170636D01*
X87654Y170643D01*
X87595Y170715D01*
X87549Y170787D01*
X87523Y170853D01*
X87496Y170925D01*
X87483Y170984D01*
X87477Y171030D01*
Y171056D01*
Y171069D01*
Y174809D01*
X87483Y174894D01*
X87503Y174979D01*
X87536Y175051D01*
X87562Y175110D01*
X87595Y175163D01*
X87628Y175196D01*
X87647Y175222D01*
X87654Y175228D01*
X87720Y175287D01*
X87792Y175333D01*
X87864Y175366D01*
X87929Y175392D01*
X87988Y175406D01*
X88034Y175412D01*
X90029D01*
X90114Y175406D01*
D02*
G37*
G36*
X143014Y174061D02*
X143060Y174054D01*
X143125Y174021D01*
X143151Y174002D01*
X143171Y173982D01*
X143184Y173976D01*
X143191Y173969D01*
X143224Y173936D01*
X143243Y173897D01*
X143270Y173825D01*
X143276Y173798D01*
X143283Y173772D01*
Y173759D01*
Y173752D01*
Y173274D01*
X144129Y171378D01*
X144345D01*
X145165Y173280D01*
Y173746D01*
X145172Y173792D01*
X145178Y173838D01*
X145211Y173910D01*
X145231Y173936D01*
X145251Y173956D01*
X145257Y173962D01*
X145264Y173969D01*
X145297Y174002D01*
X145336Y174021D01*
X145408Y174048D01*
X145441Y174054D01*
X145467Y174061D01*
X145487D01*
X145533Y174054D01*
X145572Y174048D01*
X145644Y174015D01*
X145670Y173995D01*
X145684Y173982D01*
X145697Y173976D01*
X145703Y173969D01*
X145729Y173936D01*
X145749Y173897D01*
X145775Y173825D01*
X145782Y173792D01*
X145789Y173766D01*
Y173752D01*
Y173746D01*
Y173142D01*
X144857Y170964D01*
X144818Y170892D01*
X144772Y170840D01*
X144719Y170800D01*
X144673Y170774D01*
X144627Y170761D01*
X144588Y170755D01*
X144562Y170748D01*
X144398D01*
X144831Y169757D01*
X145493D01*
X145539Y169751D01*
X145585Y169744D01*
X145651Y169718D01*
X145677Y169698D01*
X145697Y169685D01*
X145710Y169679D01*
X145716Y169672D01*
X145743Y169639D01*
X145762Y169600D01*
X145789Y169528D01*
X145795Y169495D01*
X145802Y169469D01*
Y169456D01*
Y169449D01*
X145795Y169403D01*
X145789Y169357D01*
X145756Y169292D01*
X145743Y169265D01*
X145729Y169246D01*
X145723Y169233D01*
X145716Y169226D01*
X145677Y169193D01*
X145644Y169174D01*
X145572Y169147D01*
X145539Y169141D01*
X145513Y169134D01*
X144627D01*
X144555Y169141D01*
X144490Y169167D01*
X144444Y169200D01*
X144398Y169239D01*
X144372Y169279D01*
X144345Y169311D01*
X144339Y169338D01*
X144332Y169344D01*
X142653Y173142D01*
Y173752D01*
X142659Y173798D01*
X142666Y173838D01*
X142699Y173910D01*
X142719Y173936D01*
X142738Y173956D01*
X142745Y173962D01*
X142751Y173969D01*
X142784Y174002D01*
X142824Y174028D01*
X142863Y174041D01*
X142896Y174054D01*
X142922Y174061D01*
X142948Y174067D01*
X142968D01*
X143014Y174061D01*
D02*
G37*
G36*
X150131Y167532D02*
X150177Y167525D01*
X150243Y167492D01*
X150269Y167473D01*
X150289Y167453D01*
X150302Y167446D01*
X150308Y167440D01*
X150335Y167407D01*
X150354Y167368D01*
X150381Y167295D01*
X150387Y167263D01*
X150394Y167236D01*
Y167223D01*
Y167217D01*
Y162907D01*
X150387Y162861D01*
X150381Y162815D01*
X150348Y162749D01*
X150328Y162723D01*
X150315Y162703D01*
X150308Y162690D01*
X150302Y162684D01*
X150269Y162657D01*
X150230Y162638D01*
X150157Y162612D01*
X150131Y162605D01*
X150105Y162598D01*
X150085D01*
X150040Y162605D01*
X149994Y162612D01*
X149921Y162644D01*
X149895Y162657D01*
X149875Y162671D01*
X149869Y162677D01*
X149862Y162684D01*
X149829Y162723D01*
X149810Y162756D01*
X149784Y162828D01*
X149777Y162861D01*
X149770Y162887D01*
Y162900D01*
Y162907D01*
Y164402D01*
X147783Y162684D01*
X147743Y162657D01*
X147704Y162638D01*
X147632Y162612D01*
X147606Y162605D01*
X147580Y162598D01*
X147560D01*
X147507Y162605D01*
X147468Y162612D01*
X147396Y162651D01*
X147370Y162664D01*
X147343Y162684D01*
X147337Y162690D01*
X147330Y162697D01*
X147297Y162736D01*
X147278Y162776D01*
X147251Y162848D01*
X147245Y162874D01*
X147238Y162900D01*
Y162913D01*
Y162920D01*
X147245Y162966D01*
X147251Y163005D01*
X147284Y163071D01*
X147304Y163090D01*
X147317Y163110D01*
X147324Y163117D01*
X147330Y163123D01*
X149593Y165078D01*
X147337Y167007D01*
X147304Y167040D01*
X147278Y167079D01*
X147265Y167112D01*
X147251Y167145D01*
X147245Y167177D01*
X147238Y167203D01*
Y167217D01*
Y167223D01*
X147245Y167269D01*
X147251Y167308D01*
X147284Y167381D01*
X147304Y167407D01*
X147317Y167427D01*
X147324Y167433D01*
X147330Y167440D01*
X147363Y167473D01*
X147402Y167499D01*
X147435Y167512D01*
X147468Y167525D01*
X147501Y167532D01*
X147527Y167538D01*
X147547D01*
X147593Y167532D01*
X147632Y167525D01*
X147711Y167499D01*
X147737Y167479D01*
X147757Y167466D01*
X147770Y167459D01*
X147776Y167453D01*
X149770Y165741D01*
Y167223D01*
X149777Y167269D01*
X149784Y167315D01*
X149816Y167387D01*
X149836Y167413D01*
X149849Y167433D01*
X149856Y167440D01*
X149862Y167446D01*
X149895Y167479D01*
X149934Y167499D01*
X150007Y167525D01*
X150040Y167532D01*
X150066Y167538D01*
X150085D01*
X150131Y167532D01*
D02*
G37*
G36*
X107964Y174054D02*
X108075Y174028D01*
X108174Y173995D01*
X108252Y173956D01*
X108324Y173916D01*
X108377Y173884D01*
X108410Y173857D01*
X108423Y173851D01*
X108679Y173647D01*
X108731Y173602D01*
X108777Y173549D01*
X108823Y173490D01*
X108856Y173438D01*
X108882Y173392D01*
X108902Y173352D01*
X108915Y173326D01*
X108921Y173319D01*
X108954Y173247D01*
X108974Y173182D01*
X108993Y173129D01*
X109000Y173077D01*
X109007Y173044D01*
X109013Y173011D01*
Y172998D01*
Y172992D01*
Y171561D01*
X109007Y171502D01*
X109000Y171443D01*
X108987Y171384D01*
X108967Y171332D01*
X108954Y171279D01*
X108941Y171247D01*
X108934Y171220D01*
X108928Y171214D01*
X108895Y171148D01*
X108856Y171089D01*
X108823Y171043D01*
X108790Y171004D01*
X108757Y170971D01*
X108731Y170945D01*
X108718Y170932D01*
X108712Y170925D01*
X108429Y170682D01*
X108397Y170656D01*
X108351Y170630D01*
X108265Y170584D01*
X108226Y170564D01*
X108193Y170551D01*
X108174Y170538D01*
X108167D01*
X108036Y170499D01*
X107977Y170486D01*
X107924Y170479D01*
X107878D01*
X107845Y170472D01*
X106173D01*
X106127Y170479D01*
X106088Y170486D01*
X106015Y170518D01*
X105989Y170538D01*
X105969Y170551D01*
X105963Y170558D01*
X105956Y170564D01*
X105923Y170597D01*
X105897Y170636D01*
X105884Y170676D01*
X105871Y170709D01*
X105864Y170735D01*
X105858Y170761D01*
Y170774D01*
Y170781D01*
X105864Y170827D01*
X105871Y170873D01*
X105904Y170945D01*
X105923Y170971D01*
X105943Y170991D01*
X105950Y170997D01*
X105956Y171004D01*
X105989Y171037D01*
X106028Y171056D01*
X106101Y171082D01*
X106127Y171089D01*
X106153Y171096D01*
X107787D01*
X107839Y171102D01*
X107885Y171115D01*
X107977Y171155D01*
X108016Y171174D01*
X108042Y171187D01*
X108062Y171201D01*
X108069Y171207D01*
X108246Y171365D01*
X108292Y171411D01*
X108324Y171456D01*
X108351Y171496D01*
X108364Y171542D01*
X108377Y171581D01*
X108384Y171607D01*
Y171627D01*
Y171634D01*
Y171824D01*
X106173D01*
X106127Y171830D01*
X106088Y171837D01*
X106015Y171870D01*
X105989Y171889D01*
X105969Y171903D01*
X105963Y171909D01*
X105956Y171916D01*
X105923Y171948D01*
X105897Y171988D01*
X105884Y172027D01*
X105871Y172060D01*
X105864Y172086D01*
X105858Y172112D01*
Y172126D01*
Y172132D01*
Y172887D01*
X105871Y173044D01*
X105897Y173182D01*
X105937Y173300D01*
X105982Y173392D01*
X106035Y173464D01*
X106074Y173523D01*
X106101Y173549D01*
X106114Y173562D01*
X106350Y173785D01*
X106461Y173877D01*
X106573Y173943D01*
X106678Y173995D01*
X106770Y174028D01*
X106855Y174048D01*
X106914Y174054D01*
X106940Y174061D01*
X107852D01*
X107964Y174054D01*
D02*
G37*
%LPC*%
G36*
X107839Y173431D02*
X107026D01*
X106980Y173424D01*
X106940Y173411D01*
X106855Y173372D01*
X106822Y173352D01*
X106796Y173333D01*
X106776Y173319D01*
X106770Y173313D01*
X106586Y173155D01*
X106547Y173116D01*
X106520Y173070D01*
X106501Y173024D01*
X106488Y172985D01*
X106481Y172946D01*
X106474Y172913D01*
Y172893D01*
Y172887D01*
Y172454D01*
X108384D01*
Y172932D01*
X108377Y172985D01*
X108364Y173037D01*
X108344Y173077D01*
X108324Y173110D01*
X108305Y173136D01*
X108285Y173155D01*
X108272Y173169D01*
X108265Y173175D01*
X108082Y173326D01*
X108036Y173359D01*
X107990Y173385D01*
X107944Y173405D01*
X107898Y173418D01*
X107865Y173424D01*
X107839Y173431D01*
D02*
G37*
G36*
X130832D02*
X130018D01*
X129972Y173424D01*
X129933Y173411D01*
X129848Y173372D01*
X129815Y173352D01*
X129789Y173333D01*
X129769Y173319D01*
X129762Y173313D01*
X129579Y173155D01*
X129540Y173116D01*
X129513Y173070D01*
X129493Y173024D01*
X129480Y172985D01*
X129474Y172946D01*
X129467Y172913D01*
Y172893D01*
Y172887D01*
Y172454D01*
X131376D01*
Y172932D01*
X131370Y172985D01*
X131357Y173037D01*
X131337Y173077D01*
X131317Y173110D01*
X131298Y173136D01*
X131278Y173155D01*
X131265Y173169D01*
X131258Y173175D01*
X131075Y173326D01*
X131029Y173359D01*
X130983Y173385D01*
X130937Y173405D01*
X130891Y173418D01*
X130858Y173424D01*
X130832Y173431D01*
D02*
G37*
G36*
X117994Y159034D02*
X116085D01*
Y155348D01*
X117994D01*
Y159034D01*
D02*
G37*
G36*
X117298Y172093D02*
X116045D01*
X116000Y172086D01*
X115954Y172080D01*
X115888Y172047D01*
X115862Y172027D01*
X115842Y172014D01*
X115836Y172008D01*
X115829Y172001D01*
X115796Y171968D01*
X115777Y171929D01*
X115744Y171850D01*
X115737Y171817D01*
X115731Y171798D01*
Y171778D01*
Y171771D01*
X115711Y171509D01*
X116393Y171109D01*
X117279D01*
X117325Y171115D01*
X117364Y171122D01*
X117436Y171155D01*
X117463Y171174D01*
X117476Y171187D01*
X117489Y171194D01*
X117495Y171201D01*
X117528Y171240D01*
X117548Y171273D01*
X117574Y171345D01*
X117581Y171378D01*
X117587Y171404D01*
Y171417D01*
Y171424D01*
Y171771D01*
X117581Y171817D01*
X117574Y171863D01*
X117541Y171935D01*
X117528Y171962D01*
X117515Y171981D01*
X117508Y171988D01*
X117502Y171994D01*
X117463Y172027D01*
X117430Y172053D01*
X117390Y172066D01*
X117358Y172080D01*
X117325Y172086D01*
X117298Y172093D01*
D02*
G37*
G36*
X144536Y165564D02*
X143853D01*
X143801Y165557D01*
X143755Y165550D01*
X143709Y165531D01*
X143670Y165518D01*
X143643Y165498D01*
X143617Y165478D01*
X143604Y165472D01*
X143597Y165465D01*
X143375Y165295D01*
X143335Y165255D01*
X143309Y165216D01*
X143283Y165170D01*
X143270Y165124D01*
X143263Y165085D01*
X143256Y165052D01*
Y165026D01*
Y165019D01*
Y163753D01*
X143263Y163694D01*
X143276Y163648D01*
X143296Y163602D01*
X143315Y163569D01*
X143335Y163537D01*
X143355Y163517D01*
X143368Y163510D01*
X143375Y163504D01*
X143565Y163333D01*
X143617Y163294D01*
X143663Y163268D01*
X143716Y163248D01*
X143755Y163235D01*
X143794Y163228D01*
X143827Y163222D01*
X144581D01*
X144680Y163235D01*
X144713Y163241D01*
X144746Y163254D01*
X144772Y163268D01*
X144791Y163274D01*
X144798Y163287D01*
X144805D01*
X145041Y163484D01*
X145080Y163523D01*
X145106Y163569D01*
X145133Y163615D01*
X145146Y163661D01*
X145152Y163700D01*
X145159Y163733D01*
Y163753D01*
Y163760D01*
Y165026D01*
X145152Y165085D01*
X145139Y165131D01*
X145126Y165176D01*
X145100Y165209D01*
X145080Y165235D01*
X145067Y165255D01*
X145054Y165268D01*
X145047Y165275D01*
X144831Y165459D01*
X144785Y165491D01*
X144732Y165518D01*
X144680Y165537D01*
X144627Y165550D01*
X144575Y165557D01*
X144536Y165564D01*
D02*
G37*
G36*
X126141D02*
X125459D01*
X125407Y165557D01*
X125361Y165550D01*
X125315Y165531D01*
X125276Y165518D01*
X125249Y165498D01*
X125223Y165478D01*
X125210Y165472D01*
X125203Y165465D01*
X124980Y165295D01*
X124941Y165255D01*
X124915Y165216D01*
X124888Y165170D01*
X124875Y165124D01*
X124869Y165085D01*
X124862Y165052D01*
Y165026D01*
Y165019D01*
Y163753D01*
X124869Y163694D01*
X124882Y163648D01*
X124901Y163602D01*
X124921Y163569D01*
X124941Y163537D01*
X124961Y163517D01*
X124974Y163510D01*
X124980Y163504D01*
X125171Y163333D01*
X125223Y163294D01*
X125269Y163268D01*
X125321Y163248D01*
X125361Y163235D01*
X125400Y163228D01*
X125433Y163222D01*
X126187D01*
X126286Y163235D01*
X126319Y163241D01*
X126351Y163254D01*
X126377Y163268D01*
X126397Y163274D01*
X126404Y163287D01*
X126410D01*
X126646Y163484D01*
X126686Y163523D01*
X126712Y163569D01*
X126738Y163615D01*
X126751Y163661D01*
X126758Y163700D01*
X126765Y163733D01*
Y163753D01*
Y163760D01*
Y165026D01*
X126758Y165085D01*
X126745Y165131D01*
X126732Y165176D01*
X126706Y165209D01*
X126686Y165235D01*
X126673Y165255D01*
X126660Y165268D01*
X126653Y165275D01*
X126437Y165459D01*
X126391Y165491D01*
X126338Y165518D01*
X126286Y165537D01*
X126233Y165550D01*
X126181Y165557D01*
X126141Y165564D01*
D02*
G37*
G36*
X98550D02*
X97868D01*
X97815Y165557D01*
X97769Y165550D01*
X97724Y165531D01*
X97684Y165518D01*
X97658Y165498D01*
X97632Y165478D01*
X97619Y165472D01*
X97612Y165465D01*
X97389Y165295D01*
X97350Y165255D01*
X97323Y165216D01*
X97297Y165170D01*
X97284Y165124D01*
X97277Y165085D01*
X97271Y165052D01*
Y165026D01*
Y165019D01*
Y163753D01*
X97277Y163694D01*
X97290Y163648D01*
X97310Y163602D01*
X97330Y163569D01*
X97350Y163537D01*
X97369Y163517D01*
X97382Y163510D01*
X97389Y163504D01*
X97579Y163333D01*
X97632Y163294D01*
X97677Y163268D01*
X97730Y163248D01*
X97769Y163235D01*
X97809Y163228D01*
X97842Y163222D01*
X98596D01*
X98694Y163235D01*
X98727Y163241D01*
X98760Y163254D01*
X98786Y163268D01*
X98806Y163274D01*
X98812Y163287D01*
X98819D01*
X99055Y163484D01*
X99094Y163523D01*
X99121Y163569D01*
X99147Y163615D01*
X99160Y163661D01*
X99167Y163700D01*
X99173Y163733D01*
Y163753D01*
Y163760D01*
Y165026D01*
X99167Y165085D01*
X99154Y165131D01*
X99140Y165176D01*
X99114Y165209D01*
X99094Y165235D01*
X99081Y165255D01*
X99068Y165268D01*
X99062Y165275D01*
X98845Y165459D01*
X98799Y165491D01*
X98747Y165518D01*
X98694Y165537D01*
X98642Y165550D01*
X98589Y165557D01*
X98550Y165564D01*
D02*
G37*
G36*
X112424Y165557D02*
X111611D01*
X111565Y165550D01*
X111526Y165537D01*
X111440Y165498D01*
X111408Y165478D01*
X111381Y165459D01*
X111362Y165445D01*
X111355Y165439D01*
X111171Y165281D01*
X111132Y165242D01*
X111106Y165196D01*
X111086Y165150D01*
X111073Y165111D01*
X111066Y165072D01*
X111060Y165039D01*
Y165019D01*
Y165013D01*
Y164579D01*
X112969D01*
Y165058D01*
X112962Y165111D01*
X112949Y165163D01*
X112929Y165203D01*
X112910Y165235D01*
X112890Y165262D01*
X112871Y165281D01*
X112857Y165295D01*
X112851Y165301D01*
X112667Y165452D01*
X112621Y165485D01*
X112575Y165511D01*
X112529Y165531D01*
X112484Y165544D01*
X112451Y165550D01*
X112424Y165557D01*
D02*
G37*
G36*
X145028Y157683D02*
X144214D01*
X144168Y157676D01*
X144129Y157663D01*
X144044Y157624D01*
X144011Y157604D01*
X143985Y157585D01*
X143965Y157571D01*
X143958Y157565D01*
X143775Y157407D01*
X143735Y157368D01*
X143709Y157322D01*
X143690Y157276D01*
X143676Y157237D01*
X143670Y157197D01*
X143663Y157165D01*
Y157145D01*
Y157139D01*
Y156705D01*
X145572D01*
Y157184D01*
X145566Y157237D01*
X145553Y157289D01*
X145533Y157329D01*
X145513Y157361D01*
X145493Y157388D01*
X145474Y157407D01*
X145461Y157421D01*
X145454Y157427D01*
X145270Y157578D01*
X145224Y157611D01*
X145179Y157637D01*
X145133Y157657D01*
X145087Y157670D01*
X145054Y157676D01*
X145028Y157683D01*
D02*
G37*
G36*
X150158Y159034D02*
X148577D01*
X148531Y159028D01*
X148485Y159021D01*
X148413Y158988D01*
X148386Y158969D01*
X148367Y158956D01*
X148360Y158949D01*
X148354Y158942D01*
X148321Y158910D01*
X148301Y158870D01*
X148275Y158798D01*
X148268Y158765D01*
X148262Y158739D01*
Y158726D01*
Y158720D01*
Y158352D01*
X148268Y158306D01*
X148275Y158260D01*
X148308Y158195D01*
X148327Y158168D01*
X148340Y158149D01*
X148347Y158136D01*
X148354Y158129D01*
X148386Y158103D01*
X148426Y158083D01*
X148498Y158057D01*
X148531Y158050D01*
X148557Y158044D01*
X150158D01*
Y159034D01*
D02*
G37*
G36*
X90002Y174782D02*
X88093D01*
Y171096D01*
X90002D01*
Y174782D01*
D02*
G37*
%LPD*%
M02*
