G04 Layer_Color=8388736*
%FSLAX25Y25*%
%MOIN*%
G70*
G01*
G75*
%ADD34R,0.04016X0.04409*%
%ADD35O,0.02638X0.07362*%
%ADD36O,0.07362X0.02638*%
%ADD37R,0.07953X0.10709*%
%ADD38R,0.09921X0.13465*%
%ADD39R,0.09921X0.04213*%
%ADD40O,0.02835X0.09134*%
%ADD41R,0.04409X0.04016*%
%ADD42R,0.05000X0.07559*%
%ADD43C,0.07559*%
%ADD44R,0.07559X0.07559*%
%ADD45R,0.07559X0.07559*%
%ADD46C,0.07165*%
%ADD47R,0.07165X0.07165*%
%ADD48C,0.24094*%
%ADD49C,0.02441*%
D34*
X152756Y149606D02*
D03*
X146457D02*
D03*
X152756Y141732D02*
D03*
X146457D02*
D03*
X152756Y133858D02*
D03*
X146457D02*
D03*
X152756Y125984D02*
D03*
X146457D02*
D03*
X152756Y118110D02*
D03*
X146457D02*
D03*
X152756Y110236D02*
D03*
X146457D02*
D03*
X152756Y102362D02*
D03*
X146457D02*
D03*
X152756Y94488D02*
D03*
X146457D02*
D03*
X135039Y79528D02*
D03*
X128740D02*
D03*
X135039Y71653D02*
D03*
X128740D02*
D03*
X135039Y63779D02*
D03*
X128740D02*
D03*
X144488Y79528D02*
D03*
X150787D02*
D03*
X144488Y71653D02*
D03*
X150787D02*
D03*
X144488Y63779D02*
D03*
X150787D02*
D03*
X95276Y59055D02*
D03*
X88976D02*
D03*
X57480D02*
D03*
X63779D02*
D03*
X79527Y137795D02*
D03*
X73228D02*
D03*
X88878D02*
D03*
X95177D02*
D03*
D35*
X98425Y68307D02*
D03*
X95276D02*
D03*
X92126D02*
D03*
X88976D02*
D03*
X85827D02*
D03*
X82677D02*
D03*
X79528D02*
D03*
X76378D02*
D03*
X73228D02*
D03*
X70079D02*
D03*
X66929D02*
D03*
X63779D02*
D03*
X60630D02*
D03*
X57480D02*
D03*
X54331D02*
D03*
X51181D02*
D03*
Y128543D02*
D03*
X54331D02*
D03*
X57480D02*
D03*
X60630D02*
D03*
X63779D02*
D03*
X66929D02*
D03*
X70079D02*
D03*
X73228D02*
D03*
X76378D02*
D03*
X79528D02*
D03*
X82677D02*
D03*
X85827D02*
D03*
X88976D02*
D03*
X92126D02*
D03*
X95276D02*
D03*
X98425D02*
D03*
D36*
X44685Y74803D02*
D03*
Y77953D02*
D03*
Y81102D02*
D03*
Y84252D02*
D03*
Y87402D02*
D03*
Y90551D02*
D03*
Y93701D02*
D03*
Y96850D02*
D03*
Y100000D02*
D03*
Y103150D02*
D03*
Y106299D02*
D03*
Y109449D02*
D03*
Y112598D02*
D03*
Y115748D02*
D03*
Y118898D02*
D03*
Y122047D02*
D03*
X104921D02*
D03*
Y118898D02*
D03*
Y115748D02*
D03*
Y112598D02*
D03*
Y109449D02*
D03*
Y106299D02*
D03*
Y103150D02*
D03*
Y100000D02*
D03*
Y96850D02*
D03*
Y93701D02*
D03*
Y90551D02*
D03*
Y87402D02*
D03*
Y84252D02*
D03*
Y81102D02*
D03*
Y77953D02*
D03*
Y74803D02*
D03*
D37*
X89602Y45276D02*
D03*
X72673D02*
D03*
D38*
X79134Y161417D02*
D03*
D39*
X101969Y170472D02*
D03*
Y161417D02*
D03*
Y152362D02*
D03*
D40*
X43681Y151969D02*
D03*
X48681D02*
D03*
X53681D02*
D03*
X58681D02*
D03*
X43681Y170866D02*
D03*
X48681D02*
D03*
X53681D02*
D03*
X58681D02*
D03*
D41*
X77559Y26378D02*
D03*
Y32677D02*
D03*
X35433Y90551D02*
D03*
Y84252D02*
D03*
Y122047D02*
D03*
Y115748D02*
D03*
X114173Y114469D02*
D03*
Y120768D02*
D03*
X62598Y42126D02*
D03*
Y48425D02*
D03*
X99606Y42126D02*
D03*
Y48425D02*
D03*
X84646Y26378D02*
D03*
Y32677D02*
D03*
X124409Y133366D02*
D03*
Y139665D02*
D03*
X130512Y139665D02*
D03*
Y133366D02*
D03*
D42*
X127953Y153543D02*
D03*
X116142D02*
D03*
X127953Y169291D02*
D03*
X116142D02*
D03*
D43*
X10748Y181299D02*
D03*
Y171299D02*
D03*
Y161299D02*
D03*
Y151299D02*
D03*
Y141299D02*
D03*
Y131299D02*
D03*
Y121299D02*
D03*
Y111299D02*
D03*
Y101299D02*
D03*
Y91299D02*
D03*
Y81299D02*
D03*
Y71299D02*
D03*
Y61299D02*
D03*
Y51299D02*
D03*
Y41299D02*
D03*
Y31299D02*
D03*
X20748Y41299D02*
D03*
Y51299D02*
D03*
Y61299D02*
D03*
Y71299D02*
D03*
Y81299D02*
D03*
Y91299D02*
D03*
Y101299D02*
D03*
Y111299D02*
D03*
Y121299D02*
D03*
Y131299D02*
D03*
Y141299D02*
D03*
Y151299D02*
D03*
Y161299D02*
D03*
Y171299D02*
D03*
Y181299D02*
D03*
X61181Y16535D02*
D03*
X51181D02*
D03*
D44*
X20748Y31299D02*
D03*
D45*
X41181Y16535D02*
D03*
D46*
X102441Y15590D02*
D03*
Y25591D02*
D03*
X112441Y15590D02*
D03*
Y25591D02*
D03*
X122441Y15590D02*
D03*
D47*
Y25591D02*
D03*
D48*
X149606Y39370D02*
D03*
Y173228D02*
D03*
D49*
X130610Y84252D02*
D03*
Y128543D02*
D03*
X56496Y29626D02*
D03*
X31102Y104626D02*
D03*
X26575Y97441D02*
D03*
X27362Y92421D02*
D03*
X32677Y142421D02*
D03*
X21457Y17028D02*
D03*
X35433Y110728D02*
D03*
X70079Y120571D02*
D03*
X66929Y120571D02*
D03*
X63779D02*
D03*
X92126D02*
D03*
X95276D02*
D03*
X94488Y94488D02*
D03*
X88976Y120571D02*
D03*
X85827D02*
D03*
X52658Y109449D02*
D03*
Y112598D02*
D03*
X35728Y127657D02*
D03*
X106299Y129921D02*
D03*
X62992Y78740D02*
D03*
X101181Y179528D02*
D03*
X87402Y146063D02*
D03*
X55118Y78740D02*
D03*
X116142Y126378D02*
D03*
X84252Y58661D02*
D03*
X68898Y59055D02*
D03*
X109252Y39370D02*
D03*
X82677Y78740D02*
D03*
X106398Y143110D02*
D03*
X84153Y137795D02*
D03*
X65354Y134350D02*
D03*
X43681Y178465D02*
D03*
X63858D02*
D03*
M02*
