G04 Layer_Color=65535*
%FSLAX25Y25*%
%MOIN*%
G70*
G01*
G75*
%ADD22C,0.01575*%
%ADD30C,0.02362*%
%ADD31C,0.00984*%
%ADD32C,0.00787*%
%ADD33C,0.01000*%
D22*
X45276Y161024D02*
G03*
X45276Y161024I-787J0D01*
G01*
X150787Y89075D02*
G03*
X150787Y89075I-787J0D01*
G01*
D30*
X97047Y77362D02*
G03*
X97047Y77362I-1181J0D01*
G01*
D31*
X105413Y71555D02*
G03*
X105413Y71555I-492J0D01*
G01*
X102461Y148327D02*
G03*
X102461Y148327I-492J0D01*
G01*
X40827Y151969D02*
G03*
X40827Y151969I-492J0D01*
G01*
D32*
X140847Y108268D02*
G03*
X119587Y108268I-10630J0D01*
G01*
X149409Y151181D02*
X149803D01*
X149409Y148031D02*
X149803D01*
X149409Y143307D02*
X149803D01*
X149409Y140157D02*
X149803D01*
X149409Y135433D02*
X149803D01*
X149409Y132283D02*
X149803D01*
X149409Y127559D02*
X149803D01*
X149409Y124409D02*
X149803D01*
X149409Y119685D02*
X149803D01*
X149409Y116535D02*
X149803D01*
X149409Y111811D02*
X149803D01*
X149409Y108661D02*
X149803D01*
X149409Y103937D02*
X149803D01*
X149409Y100787D02*
X149803D01*
X149409Y96063D02*
X149803D01*
X149409Y92913D02*
X149803D01*
X49803Y123425D02*
X99803D01*
X49803Y73425D02*
X99803D01*
X49803D02*
Y123425D01*
X99803Y73425D02*
Y123425D01*
X35276Y22441D02*
X67205D01*
X35276Y13051D02*
Y22441D01*
Y13051D02*
X37697Y10630D01*
X67205D01*
Y22441D01*
X85433Y174606D02*
X95669D01*
X85433Y148228D02*
X95669D01*
X85433D02*
Y174606D01*
X95669Y148228D02*
Y174606D01*
X41339Y157874D02*
X61024D01*
X41339Y164961D02*
X61024D01*
X41339Y157874D02*
Y164961D01*
X61024Y157874D02*
Y164961D01*
X79134Y29331D02*
Y29724D01*
X75984Y29331D02*
Y29724D01*
X131693Y81102D02*
X132087D01*
X131693Y77953D02*
X132087D01*
X131693Y73228D02*
X132087D01*
X131693Y70079D02*
X132087D01*
X131693Y65354D02*
X132087D01*
X131693Y62205D02*
X132087D01*
X147441Y77953D02*
X147835D01*
X147441Y81102D02*
X147835D01*
X154138Y77528D02*
Y81528D01*
X147441Y70079D02*
X147835D01*
X147441Y73228D02*
X147835D01*
X154138Y69653D02*
Y73654D01*
X147441Y62205D02*
X147835D01*
X147441Y65354D02*
X147835D01*
X154138Y61779D02*
Y65780D01*
X91929Y57480D02*
X92323D01*
X91929Y60630D02*
X92323D01*
X60433Y60630D02*
X60827D01*
X60433Y57480D02*
X60827D01*
X37008Y87205D02*
Y87598D01*
X33858Y87205D02*
Y87598D01*
X37008Y118701D02*
Y119095D01*
X33858Y118701D02*
Y119095D01*
X76181Y136221D02*
X76575D01*
X76181Y139370D02*
X76575D01*
X112598Y117421D02*
Y117815D01*
X115748Y117421D02*
Y117815D01*
X119882Y150394D02*
X124213D01*
X119882Y156693D02*
X124213D01*
X119882Y166142D02*
X124213D01*
X119882Y172441D02*
X124213D01*
X61024Y45079D02*
Y45472D01*
X64173Y45079D02*
Y45472D01*
X98032Y45079D02*
Y45472D01*
X101181Y45079D02*
Y45472D01*
X83071Y29331D02*
Y29724D01*
X86221Y29331D02*
Y29724D01*
X119587Y84252D02*
X140847D01*
Y108268D01*
X119587D02*
X140847D01*
X119587Y84252D02*
Y108268D01*
Y84252D02*
Y92028D01*
X140847D01*
X119587Y100000D02*
X140847D01*
X129921Y84252D02*
Y108268D01*
X119587Y100000D02*
Y105905D01*
X125984Y136319D02*
Y136713D01*
X122835Y136319D02*
Y136713D01*
X128937Y136319D02*
Y136713D01*
X132087Y136319D02*
Y136713D01*
X91831Y136221D02*
X92224D01*
X91831Y139370D02*
X92224D01*
X42421Y130510D02*
Y127231D01*
X43077Y126575D01*
X44389D01*
X45045Y127231D01*
Y130510D01*
X46357Y126575D02*
X47669D01*
X47013D01*
Y130510D01*
X46357Y129855D01*
X74114Y56889D02*
X76738Y52953D01*
Y56889D02*
X74114Y52953D01*
X78050D02*
X79362D01*
X78706D01*
Y56889D01*
X78050Y56233D01*
X87402Y180904D02*
Y177624D01*
X88058Y176969D01*
X89369D01*
X90025Y177624D01*
Y180904D01*
X91337Y180248D02*
X91993Y180904D01*
X93305D01*
X93961Y180248D01*
Y179592D01*
X93305Y178936D01*
X92649D01*
X93305D01*
X93961Y178280D01*
Y177624D01*
X93305Y176969D01*
X91993D01*
X91337Y177624D01*
X31890Y163385D02*
Y160105D01*
X32546Y159449D01*
X33858D01*
X34514Y160105D01*
Y163385D01*
X38449Y159449D02*
X35825D01*
X38449Y162073D01*
Y162729D01*
X37793Y163385D01*
X36481D01*
X35825Y162729D01*
X66634Y27756D02*
Y31692D01*
X68602D01*
X69258Y31036D01*
Y29724D01*
X68602Y29068D01*
X66634D01*
X67946D02*
X69258Y27756D01*
X72537D02*
Y31692D01*
X70570Y29724D01*
X73193D01*
X121457Y102067D02*
Y106003D01*
X123425D01*
X124081Y105347D01*
Y104035D01*
X123425Y103379D01*
X121457D01*
X122769D02*
X124081Y102067D01*
X125392Y105347D02*
X126048Y106003D01*
X127360D01*
X128016Y105347D01*
Y104691D01*
X127360Y104035D01*
X126704D01*
X127360D01*
X128016Y103379D01*
Y102723D01*
X127360Y102067D01*
X126048D01*
X125392Y102723D01*
X121457Y93996D02*
Y97932D01*
X123425D01*
X124081Y97276D01*
Y95964D01*
X123425Y95308D01*
X121457D01*
X122769D02*
X124081Y93996D01*
X128016D02*
X125392D01*
X128016Y96620D01*
Y97276D01*
X127360Y97932D01*
X126048D01*
X125392Y97276D01*
X121850Y86122D02*
Y90058D01*
X123818D01*
X124474Y89402D01*
Y88090D01*
X123818Y87434D01*
X121850D01*
X123162D02*
X124474Y86122D01*
X125786D02*
X127098D01*
X126442D01*
Y90058D01*
X125786Y89402D01*
X90714Y17223D02*
X89403D01*
X90058D01*
Y13943D01*
X89403Y13287D01*
X88747D01*
X88090Y13943D01*
X92026Y16567D02*
X92682Y17223D01*
X93994D01*
X94650Y16567D01*
Y15911D01*
X93994Y15255D01*
X93338D01*
X93994D01*
X94650Y14599D01*
Y13943D01*
X93994Y13287D01*
X92682D01*
X92026Y13943D01*
X14435Y22046D02*
X13123D01*
X13779D01*
Y18766D01*
X13123Y18110D01*
X12467D01*
X11811Y18766D01*
X18371Y18110D02*
X15747D01*
X18371Y20734D01*
Y21390D01*
X17715Y22046D01*
X16403D01*
X15747Y21390D01*
X30281Y18798D02*
X28969D01*
X29625D01*
Y15518D01*
X28969Y14862D01*
X28313D01*
X27657Y15518D01*
X31593Y14862D02*
X32905D01*
X32249D01*
Y18798D01*
X31593Y18142D01*
X131988Y105806D02*
Y101870D01*
X133956D01*
X134612Y102526D01*
Y105150D01*
X133956Y105806D01*
X131988D01*
X135924Y105150D02*
X136580Y105806D01*
X137892D01*
X138548Y105150D01*
Y104494D01*
X137892Y103838D01*
X137236D01*
X137892D01*
X138548Y103182D01*
Y102526D01*
X137892Y101870D01*
X136580D01*
X135924Y102526D01*
X131988Y97932D02*
Y93996D01*
X133956D01*
X134612Y94652D01*
Y97276D01*
X133956Y97932D01*
X131988D01*
X138548Y93996D02*
X135924D01*
X138548Y96620D01*
Y97276D01*
X137892Y97932D01*
X136580D01*
X135924Y97276D01*
X132185Y90058D02*
Y86122D01*
X134153D01*
X134809Y86778D01*
Y89402D01*
X134153Y90058D01*
X132185D01*
X136121Y86122D02*
X137433D01*
X136777D01*
Y90058D01*
X136121Y89402D01*
X102427Y60366D02*
X101771Y61022D01*
X100459D01*
X99803Y60366D01*
Y57743D01*
X100459Y57087D01*
X101771D01*
X102427Y57743D01*
X103739Y57087D02*
X105051D01*
X104395D01*
Y61022D01*
X103739Y60366D01*
X107019Y57087D02*
X108331D01*
X107675D01*
Y61022D01*
X107019Y60366D01*
X46325Y60170D02*
X45669Y60826D01*
X44357D01*
X43701Y60170D01*
Y57546D01*
X44357Y56890D01*
X45669D01*
X46325Y57546D01*
X47637Y56890D02*
X48948D01*
X48292D01*
Y60826D01*
X47637Y60170D01*
X50916D02*
X51572Y60826D01*
X52884D01*
X53540Y60170D01*
Y57546D01*
X52884Y56890D01*
X51572D01*
X50916Y57546D01*
Y60170D01*
X34120Y78083D02*
X33464Y78739D01*
X32152D01*
X31496Y78083D01*
Y75459D01*
X32152Y74803D01*
X33464D01*
X34120Y75459D01*
X35432D02*
X36088Y74803D01*
X37400D01*
X38056Y75459D01*
Y78083D01*
X37400Y78739D01*
X36088D01*
X35432Y78083D01*
Y77427D01*
X36088Y76771D01*
X38056D01*
X34120Y133201D02*
X33464Y133857D01*
X32152D01*
X31496Y133201D01*
Y130577D01*
X32152Y129921D01*
X33464D01*
X34120Y130577D01*
X35432Y133201D02*
X36088Y133857D01*
X37400D01*
X38056Y133201D01*
Y132545D01*
X37400Y131889D01*
X38056Y131233D01*
Y130577D01*
X37400Y129921D01*
X36088D01*
X35432Y130577D01*
Y131233D01*
X36088Y131889D01*
X35432Y132545D01*
Y133201D01*
X36088Y131889D02*
X37400D01*
X65124Y139402D02*
X64468Y140058D01*
X63156D01*
X62500Y139402D01*
Y136778D01*
X63156Y136122D01*
X64468D01*
X65124Y136778D01*
X66436Y140058D02*
X69060D01*
Y139402D01*
X66436Y136778D01*
Y136122D01*
X121128Y123654D02*
X120472Y124310D01*
X119160D01*
X118504Y123654D01*
Y121030D01*
X119160Y120374D01*
X120472D01*
X121128Y121030D01*
X125064Y124310D02*
X123752Y123654D01*
X122440Y122342D01*
Y121030D01*
X123096Y120374D01*
X124407D01*
X125064Y121030D01*
Y121686D01*
X124407Y122342D01*
X122440D01*
X121325Y162433D02*
X120669Y163089D01*
X119357D01*
X118701Y162433D01*
Y159810D01*
X119357Y159153D01*
X120669D01*
X121325Y159810D01*
X125260Y163089D02*
X122636D01*
Y161121D01*
X123948Y161777D01*
X124604D01*
X125260Y161121D01*
Y159810D01*
X124604Y159153D01*
X123293D01*
X122636Y159810D01*
X121521Y179362D02*
X120865Y180018D01*
X119554D01*
X118898Y179362D01*
Y176739D01*
X119554Y176083D01*
X120865D01*
X121521Y176739D01*
X124801Y176083D02*
Y180018D01*
X122833Y178050D01*
X125457D01*
X54199Y46685D02*
X53543Y47341D01*
X52231D01*
X51575Y46685D01*
Y44061D01*
X52231Y43406D01*
X53543D01*
X54199Y44061D01*
X55510Y46685D02*
X56166Y47341D01*
X57478D01*
X58134Y46685D01*
Y46029D01*
X57478Y45373D01*
X56823D01*
X57478D01*
X58134Y44717D01*
Y44061D01*
X57478Y43406D01*
X56166D01*
X55510Y44061D01*
X106955Y46587D02*
X106299Y47243D01*
X104987D01*
X104331Y46587D01*
Y43963D01*
X104987Y43307D01*
X106299D01*
X106955Y43963D01*
X110890Y43307D02*
X108266D01*
X110890Y45931D01*
Y46587D01*
X110234Y47243D01*
X108922D01*
X108266Y46587D01*
X91994Y31331D02*
X91338Y31987D01*
X90026D01*
X89370Y31331D01*
Y28707D01*
X90026Y28051D01*
X91338D01*
X91994Y28707D01*
X93306Y28051D02*
X94618D01*
X93962D01*
Y31987D01*
X93306Y31331D01*
X62270Y7807D02*
X61614Y8463D01*
X60302D01*
X59646Y7807D01*
Y5184D01*
X60302Y4528D01*
X61614D01*
X62270Y5184D01*
Y6495D01*
X60958D01*
X63581Y4528D02*
Y8463D01*
X66205Y4528D01*
Y8463D01*
X67517D02*
Y4528D01*
X69485D01*
X70141Y5184D01*
Y7807D01*
X69485Y8463D01*
X67517D01*
X48031D02*
X50655D01*
X49343D01*
Y4528D01*
X51967Y8463D02*
X54591Y4528D01*
Y8463D02*
X51967Y4528D01*
X35630D02*
Y8463D01*
X37598D01*
X38254Y7807D01*
Y6495D01*
X37598Y5839D01*
X35630D01*
X36942D02*
X38254Y4528D01*
X39566Y8463D02*
X42189Y4528D01*
Y8463D02*
X39566Y4528D01*
D33*
X128347Y9843D02*
Y31496D01*
X127165D02*
X128347D01*
X96850D02*
X127165D01*
X96850Y9843D02*
Y31496D01*
Y9843D02*
X128347D01*
X138386Y131595D02*
X134450D01*
Y133562D01*
X135106Y134218D01*
X136418D01*
X137074Y133562D01*
Y131595D01*
Y132906D02*
X138386Y134218D01*
Y135530D02*
Y136842D01*
Y136186D01*
X134450D01*
X135106Y135530D01*
X138386Y140778D02*
X134450D01*
X136418Y138810D01*
Y141434D01*
X120276Y131693D02*
X116340D01*
Y133661D01*
X116996Y134317D01*
X118308D01*
X118964Y133661D01*
Y131693D01*
Y133005D02*
X120276Y134317D01*
Y135629D02*
Y136941D01*
Y136285D01*
X116340D01*
X116996Y135629D01*
Y138908D02*
X116340Y139564D01*
Y140876D01*
X116996Y141532D01*
X117652D01*
X118308Y140876D01*
Y140220D01*
Y140876D01*
X118964Y141532D01*
X119620D01*
X120276Y140876D01*
Y139564D01*
X119620Y138908D01*
X99803Y135925D02*
Y139861D01*
X101771D01*
X102427Y139205D01*
Y137893D01*
X101771Y137237D01*
X99803D01*
X101115D02*
X102427Y135925D01*
X103739D02*
X105051D01*
X104395D01*
Y139861D01*
X103739Y139205D01*
X109643Y139861D02*
X107019D01*
Y137893D01*
X108331Y138549D01*
X108986D01*
X109643Y137893D01*
Y136581D01*
X108986Y135925D01*
X107675D01*
X107019Y136581D01*
X35335Y30411D02*
Y25492D01*
X36319Y24508D01*
X38287D01*
X39270Y25492D01*
Y30411D01*
X41238Y24508D02*
Y28444D01*
X43206Y30411D01*
X45174Y28444D01*
Y24508D01*
Y27460D01*
X41238D01*
X47142Y24508D02*
Y30411D01*
X50094D01*
X51078Y29427D01*
Y27460D01*
X50094Y26476D01*
X47142D01*
X49110D02*
X51078Y24508D01*
X53045Y30411D02*
X56981D01*
X55013D01*
Y24508D01*
X114567Y33957D02*
Y39860D01*
X117519D01*
X118503Y38876D01*
Y36909D01*
X117519Y35925D01*
X114567D01*
X120470Y39860D02*
Y33957D01*
X123422D01*
X124406Y34941D01*
Y38876D01*
X123422Y39860D01*
X120470D01*
X126374D02*
X128342D01*
X127358D01*
Y33957D01*
X126374D01*
X128342D01*
M02*
