G04 Layer_Physical_Order=1*
G04 Layer_Color=255*
%FSLAX25Y25*%
%MOIN*%
G70*
G01*
G75*
%ADD10R,0.03543X0.03937*%
%ADD11O,0.02165X0.06890*%
%ADD12O,0.06890X0.02165*%
%ADD13R,0.07480X0.10236*%
%ADD14R,0.09449X0.12992*%
%ADD15R,0.09449X0.03740*%
%ADD16O,0.02362X0.08661*%
%ADD17R,0.03937X0.03543*%
%ADD18R,0.04528X0.07087*%
%ADD19C,0.01181*%
%ADD20C,0.01969*%
%ADD21C,0.03937*%
%ADD22C,0.01575*%
%ADD23C,0.07087*%
%ADD24R,0.07087X0.07087*%
%ADD25R,0.07087X0.07087*%
%ADD26C,0.06693*%
%ADD27R,0.06693X0.06693*%
%ADD28C,0.23622*%
%ADD29C,0.01969*%
G36*
X37885Y161211D02*
X38249Y160967D01*
X38356Y160852D01*
X38785Y159397D01*
X38776Y159267D01*
X37983Y158474D01*
X37678Y158018D01*
X37571Y157480D01*
Y130451D01*
X37217Y130105D01*
X35997Y129411D01*
X35728Y129464D01*
X35037Y129326D01*
X34451Y128935D01*
X34060Y128349D01*
X33922Y127657D01*
X34060Y126966D01*
X34451Y126380D01*
X33953Y124819D01*
X32465D01*
X31622Y126044D01*
Y131831D01*
X31514Y132368D01*
X31210Y132824D01*
X24645Y139390D01*
X24967Y140169D01*
X25116Y141299D01*
X24967Y142430D01*
X24531Y143483D01*
X23837Y144388D01*
X22932Y145082D01*
X21879Y145518D01*
Y147080D01*
X22932Y147516D01*
X23837Y148211D01*
X24531Y149115D01*
X24967Y150169D01*
X25116Y151299D01*
X24967Y152430D01*
X24531Y153483D01*
X23837Y154388D01*
X22932Y155082D01*
X21879Y155518D01*
Y157080D01*
X22932Y157516D01*
X23837Y158211D01*
X24531Y159115D01*
X24967Y160169D01*
X25116Y161299D01*
X24967Y162430D01*
X24582Y163359D01*
X24762Y163867D01*
X25403Y164934D01*
X34162D01*
X37885Y161211D01*
D02*
G37*
G36*
X97432Y19873D02*
X97887Y19568D01*
X98011Y19544D01*
X98606Y18507D01*
X98724Y17886D01*
X98644Y17783D01*
X98206Y16725D01*
X98135Y16181D01*
X102441D01*
Y15591D01*
X103031D01*
Y11284D01*
X103576Y11356D01*
X104633Y11794D01*
X105541Y12491D01*
X106238Y13399D01*
X106676Y14456D01*
X106754Y15052D01*
X108342D01*
X108414Y14511D01*
X108830Y13506D01*
X109493Y12642D01*
X110356Y11980D01*
X111362Y11563D01*
X112441Y11421D01*
X113520Y11563D01*
X114526Y11980D01*
X114914Y12278D01*
X115954Y11091D01*
X112961Y8098D01*
X89558D01*
X78964Y18692D01*
Y23216D01*
X80539Y23784D01*
X81677Y23606D01*
Y23606D01*
X81802Y23606D01*
X84055D01*
Y26378D01*
X84646D01*
Y26969D01*
X87614D01*
Y28105D01*
X89189Y28115D01*
X97432Y19873D01*
D02*
G37*
G36*
X85595Y152401D02*
Y146063D01*
X85733Y145372D01*
X86124Y144786D01*
X86710Y144394D01*
X87176Y144301D01*
X89472Y142006D01*
X88869Y140551D01*
X86319D01*
Y140204D01*
X84890Y139487D01*
X84744Y139484D01*
X84153Y139602D01*
X83874Y139546D01*
X82665Y140230D01*
X82299Y140581D01*
Y140764D01*
X80118D01*
Y137795D01*
X78937D01*
Y140764D01*
X76756D01*
Y140764D01*
X76609Y140732D01*
X75049Y141790D01*
X75035Y141814D01*
Y153583D01*
X75586Y154134D01*
X83863D01*
X85595Y152401D01*
D02*
G37*
G36*
X96457Y158760D02*
X107480D01*
Y158760D01*
X108855Y158276D01*
X113091Y154040D01*
Y149213D01*
X114335D01*
Y126378D01*
Y123484D01*
X114178Y123327D01*
X111417D01*
Y121913D01*
X110584Y121596D01*
X109081Y122596D01*
X109045Y122777D01*
X108632Y123396D01*
X108013Y123809D01*
X107283Y123954D01*
X106326D01*
Y127961D01*
X106525Y128160D01*
X106991Y128252D01*
X107577Y128644D01*
X107968Y129230D01*
X108106Y129921D01*
X107968Y130613D01*
X107577Y131199D01*
X106991Y131590D01*
X106299Y131728D01*
X105608Y131590D01*
X105022Y131199D01*
X104630Y130613D01*
X104538Y130147D01*
X103928Y129537D01*
X103623Y129081D01*
X103516Y128543D01*
Y123954D01*
X102559D01*
X101829Y123809D01*
X101799Y123788D01*
X100224Y124537D01*
Y125638D01*
X100332Y126181D01*
Y130905D01*
X100187Y131635D01*
X99774Y132254D01*
X99155Y132667D01*
X98425Y132812D01*
X97695Y132667D01*
X96850Y132341D01*
X96005Y132667D01*
X95276Y132812D01*
X94546Y132667D01*
X93701Y132341D01*
X92856Y132667D01*
X92126Y132812D01*
X91396Y132667D01*
X90551Y132341D01*
X89706Y132667D01*
X88976Y132812D01*
X88247Y132667D01*
X87402Y132341D01*
X86556Y132667D01*
X85827Y132812D01*
X85657Y132778D01*
X84625Y133407D01*
X84606Y133458D01*
X84529Y134387D01*
X84730Y135186D01*
X84744Y135194D01*
X86319Y135039D01*
Y135039D01*
X91437D01*
X91437Y135039D01*
X92618D01*
Y135039D01*
X93012Y135039D01*
X97736D01*
Y140551D01*
X94900D01*
X89208Y146244D01*
Y153150D01*
X89070Y153841D01*
X88679Y154427D01*
X85070Y158036D01*
X85669Y159611D01*
X96457D01*
Y158760D01*
D02*
G37*
G36*
X85075Y48765D02*
Y39370D01*
X94130D01*
Y46646D01*
X95705Y46795D01*
X96716Y45445D01*
X96638Y44898D01*
X96638Y44379D01*
Y42717D01*
X99606D01*
X102575D01*
Y44379D01*
X102575Y44898D01*
X102362Y46384D01*
Y50984D01*
X102362D01*
X102427Y52532D01*
X112804D01*
X127335Y38001D01*
Y30984D01*
X126575Y29724D01*
X118307D01*
Y24793D01*
X117134Y23860D01*
X116468Y24511D01*
X116611Y25591D01*
X116468Y26670D01*
X116052Y27675D01*
X115389Y28539D01*
X114526Y29201D01*
X113520Y29618D01*
X112441Y29760D01*
X111362Y29618D01*
X110356Y29201D01*
X109493Y28539D01*
X108830Y27675D01*
X108414Y26670D01*
X108271Y25591D01*
X108414Y24511D01*
X107605Y22873D01*
X107441Y22827D01*
X107277Y22873D01*
X106468Y24511D01*
X106611Y25591D01*
X106468Y26670D01*
X106052Y27675D01*
X105389Y28539D01*
X104526Y29201D01*
X103520Y29618D01*
X102441Y29760D01*
X101362Y29618D01*
X100682Y29336D01*
X96348Y33671D01*
X95892Y33975D01*
X95354Y34082D01*
X87402D01*
Y35236D01*
X81890D01*
Y34082D01*
X80315D01*
Y35236D01*
X74803D01*
Y34082D01*
X64362D01*
X60664Y37780D01*
X61316Y39354D01*
X62008D01*
Y42126D01*
X62599D01*
Y42717D01*
X65567D01*
Y44379D01*
X65567Y44898D01*
X65489Y45445D01*
X66571Y46890D01*
X68146Y46924D01*
Y39370D01*
X77201D01*
Y49230D01*
X79399Y51428D01*
X79703Y51884D01*
X79708Y51905D01*
X81263Y52577D01*
X85075Y48765D01*
D02*
G37*
G36*
X42276Y146163D02*
Y144902D01*
X42383Y144364D01*
X42688Y143908D01*
X49776Y136820D01*
Y132169D01*
X49420Y131635D01*
X49274Y130905D01*
Y126181D01*
X49420Y125451D01*
X49833Y124833D01*
X50451Y124419D01*
X51181Y124274D01*
X51911Y124419D01*
X52756Y124746D01*
X53601Y124419D01*
X54331Y124274D01*
X55060Y124419D01*
X55905Y124746D01*
X56751Y124419D01*
X57480Y124274D01*
X58210Y124419D01*
X58829Y124833D01*
X59282D01*
X59900Y124419D01*
X60630Y124274D01*
X60800Y124308D01*
X62129Y123497D01*
X62375Y123204D01*
Y121657D01*
X62111Y121262D01*
X61973Y120571D01*
X62111Y119880D01*
X62502Y119294D01*
X63088Y118902D01*
X63779Y118764D01*
X64471Y118902D01*
X65354Y119195D01*
X66238Y118902D01*
X66929Y118764D01*
X67620Y118902D01*
X68504Y119195D01*
X69388Y118902D01*
X70079Y118764D01*
X70770Y118902D01*
X71356Y119294D01*
X71748Y119880D01*
X71885Y120571D01*
X71748Y121262D01*
X71484Y121657D01*
Y123204D01*
X71729Y123497D01*
X73058Y124308D01*
X73228Y124274D01*
X73958Y124419D01*
X74577Y124833D01*
X75565Y124219D01*
X75787Y124175D01*
Y128543D01*
X76968D01*
Y124175D01*
X77191Y124219D01*
X78179Y124833D01*
X78798Y124419D01*
X79528Y124274D01*
X80257Y124419D01*
X81102Y124746D01*
X81947Y124419D01*
X82677Y124274D01*
X82847Y124308D01*
X84177Y123497D01*
X84422Y123204D01*
Y121657D01*
X84158Y121262D01*
X84020Y120571D01*
X84158Y119880D01*
X84549Y119294D01*
X85136Y118902D01*
X85827Y118764D01*
X86518Y118902D01*
X87402Y119195D01*
X88285Y118902D01*
X88976Y118764D01*
X89668Y118902D01*
X90551Y119195D01*
X91435Y118902D01*
X92126Y118764D01*
X92817Y118902D01*
X93701Y119195D01*
X94584Y118902D01*
X95276Y118764D01*
X95839Y118877D01*
X96037Y118857D01*
X97414Y117975D01*
Y99401D01*
X94263Y96250D01*
X93797Y96157D01*
X93211Y95766D01*
X92819Y95179D01*
X92682Y94488D01*
X92819Y93797D01*
X93211Y93211D01*
X93797Y92819D01*
X94488Y92682D01*
X95179Y92819D01*
X95766Y93211D01*
X96157Y93797D01*
X96250Y94263D01*
X99114Y97127D01*
X99978Y96972D01*
X100182Y96889D01*
X100721Y96507D01*
X100797Y96121D01*
X101123Y95276D01*
X100797Y94430D01*
X100652Y93701D01*
X100797Y92971D01*
X101123Y92126D01*
X100797Y91281D01*
X100652Y90551D01*
X100797Y89821D01*
X101211Y89203D01*
Y88750D01*
X100797Y88131D01*
X100652Y87402D01*
X100797Y86672D01*
X101123Y85827D01*
X100797Y84982D01*
X100652Y84252D01*
X100797Y83522D01*
X101211Y82904D01*
Y82451D01*
X100797Y81832D01*
X100652Y81102D01*
X100797Y80373D01*
X101123Y79528D01*
X100797Y78682D01*
X100652Y77953D01*
X100797Y77223D01*
X101123Y76378D01*
X100797Y75533D01*
X100652Y74803D01*
X100797Y74073D01*
X101211Y73455D01*
X101829Y73042D01*
X102559Y72896D01*
X107283D01*
X108013Y73042D01*
X108547Y73398D01*
X124016D01*
X124553Y73505D01*
X124606Y73541D01*
X125817Y73083D01*
X126181Y72755D01*
Y71081D01*
X124812Y69712D01*
X100332D01*
Y70669D01*
X100187Y71399D01*
X99774Y72018D01*
X99155Y72431D01*
X98425Y72576D01*
X97695Y72431D01*
X96850Y72105D01*
X96005Y72431D01*
X95276Y72576D01*
X94546Y72431D01*
X93701Y72105D01*
X92856Y72431D01*
X92126Y72576D01*
X91396Y72431D01*
X90551Y72105D01*
X89706Y72431D01*
X88976Y72576D01*
X88247Y72431D01*
X87628Y72018D01*
X86639Y72631D01*
X86417Y72675D01*
Y68307D01*
X85236D01*
Y72675D01*
X85014Y72631D01*
X84025Y72018D01*
X83407Y72431D01*
X82677Y72576D01*
X81947Y72431D01*
X81102Y72105D01*
X80257Y72431D01*
X79528Y72576D01*
X78798Y72431D01*
X77953Y72105D01*
X77108Y72431D01*
X76378Y72576D01*
X75648Y72431D01*
X74803Y72105D01*
X73958Y72431D01*
X73228Y72576D01*
X72499Y72431D01*
X71653Y72105D01*
X70808Y72431D01*
X70079Y72576D01*
X69349Y72431D01*
X68504Y72105D01*
X67659Y72431D01*
X66929Y72576D01*
X66199Y72431D01*
X65581Y72018D01*
X65128D01*
X64509Y72431D01*
X63779Y72576D01*
X63050Y72431D01*
X62616Y72141D01*
X61595Y72536D01*
X61443Y72631D01*
X61254Y72669D01*
X61145Y72711D01*
X60546Y74109D01*
X60534Y74295D01*
X63218Y76979D01*
X63683Y77071D01*
X64269Y77463D01*
X64661Y78049D01*
X64798Y78740D01*
X64661Y79431D01*
X64269Y80017D01*
X63683Y80409D01*
X62992Y80546D01*
X62301Y80409D01*
X61715Y80017D01*
X61323Y79431D01*
X61231Y78966D01*
X58241Y75976D01*
X57199Y76106D01*
X56806Y76769D01*
X56518Y77646D01*
X56787Y78049D01*
X56924Y78740D01*
X56787Y79431D01*
X56523Y79826D01*
Y87008D01*
X56416Y87546D01*
X56112Y88001D01*
X49419Y94694D01*
X48809Y96121D01*
X48954Y96850D01*
X48809Y97580D01*
X48395Y98199D01*
Y98652D01*
X48809Y99270D01*
X48954Y100000D01*
X48809Y100730D01*
X48483Y101575D01*
X48809Y102420D01*
X48954Y103150D01*
X48809Y103879D01*
X48483Y104724D01*
X48809Y105570D01*
X48954Y106299D01*
X48920Y106469D01*
X49731Y107799D01*
X50025Y108044D01*
X51571D01*
X51966Y107780D01*
X52658Y107642D01*
X53349Y107780D01*
X53935Y108171D01*
X54326Y108758D01*
X54464Y109449D01*
X54326Y110140D01*
X53935Y110726D01*
Y111321D01*
X54326Y111907D01*
X54464Y112598D01*
X54326Y113290D01*
X53935Y113876D01*
X53349Y114267D01*
X52658Y114405D01*
X51966Y114267D01*
X51571Y114003D01*
X50025D01*
X49731Y114249D01*
X48920Y115578D01*
X48954Y115748D01*
X48809Y116478D01*
X48395Y117096D01*
X49009Y118085D01*
X49053Y118307D01*
X44685D01*
Y119488D01*
X49053D01*
X49009Y119710D01*
X48395Y120699D01*
X48809Y121318D01*
X48954Y122047D01*
X48809Y122777D01*
X48395Y123396D01*
X47777Y123809D01*
X47047Y123954D01*
X42323D01*
X41897Y123869D01*
X40381Y125385D01*
Y146273D01*
X41080Y146753D01*
X42276Y146163D01*
D02*
G37*
G36*
X165354Y0D02*
X0D01*
Y188976D01*
X14294D01*
X14863Y187402D01*
X12658Y185196D01*
X11879Y185518D01*
X10748Y185667D01*
X9618Y185518D01*
X8564Y185082D01*
X7659Y184388D01*
X6965Y183483D01*
X6529Y182430D01*
X6380Y181299D01*
X6529Y180169D01*
X6965Y179115D01*
X7659Y178210D01*
X8564Y177516D01*
X9618Y177080D01*
Y175518D01*
X8564Y175082D01*
X7659Y174388D01*
X6965Y173483D01*
X6529Y172430D01*
X6380Y171299D01*
X6529Y170169D01*
X6965Y169115D01*
X7659Y168210D01*
X8564Y167516D01*
X9257Y167229D01*
X9359Y166727D01*
X9328Y165863D01*
X9266Y165603D01*
X8457Y165268D01*
X7508Y164540D01*
X6780Y163591D01*
X6322Y162485D01*
X6243Y161890D01*
X10748D01*
Y160709D01*
X6243D01*
X6322Y160113D01*
X6780Y159008D01*
X7508Y158059D01*
X8457Y157331D01*
X9266Y156995D01*
X9328Y156736D01*
X9359Y155871D01*
X9257Y155369D01*
X8564Y155082D01*
X7659Y154388D01*
X6965Y153483D01*
X6529Y152430D01*
X6380Y151299D01*
X6529Y150169D01*
X6965Y149115D01*
X7659Y148211D01*
X8564Y147516D01*
X9257Y147229D01*
X9359Y146728D01*
X9328Y145863D01*
X9266Y145603D01*
X8457Y145268D01*
X7508Y144539D01*
X6780Y143590D01*
X6322Y142485D01*
X6243Y141890D01*
X10748D01*
Y140709D01*
X6243D01*
X6322Y140113D01*
X6780Y139008D01*
X7508Y138059D01*
X8457Y137331D01*
X9266Y136995D01*
X9328Y136735D01*
X9359Y135871D01*
X9257Y135369D01*
X8564Y135082D01*
X7659Y134388D01*
X6965Y133483D01*
X6529Y132430D01*
X6380Y131299D01*
X6529Y130169D01*
X6965Y129115D01*
X7659Y128210D01*
X8564Y127516D01*
X9257Y127229D01*
X9359Y126727D01*
X9328Y125863D01*
X9266Y125603D01*
X8457Y125268D01*
X7508Y124539D01*
X6780Y123591D01*
X6322Y122485D01*
X6243Y121890D01*
X10748D01*
Y120709D01*
X6243D01*
X6322Y120113D01*
X6780Y119008D01*
X7508Y118059D01*
X8457Y117331D01*
X9266Y116996D01*
X9328Y116735D01*
X9359Y115871D01*
X9257Y115369D01*
X8564Y115082D01*
X7659Y114388D01*
X6965Y113483D01*
X6529Y112430D01*
X6380Y111299D01*
X6529Y110169D01*
X6965Y109115D01*
X7659Y108211D01*
X8564Y107516D01*
X9257Y107229D01*
X9359Y106728D01*
X9328Y105863D01*
X9266Y105603D01*
X8457Y105268D01*
X7508Y104540D01*
X6780Y103591D01*
X6322Y102485D01*
X6243Y101890D01*
X10748D01*
Y100709D01*
X6243D01*
X6322Y100113D01*
X6780Y99008D01*
X7046Y98660D01*
X7431Y97829D01*
X6981Y96478D01*
X4321Y93819D01*
X4017Y93363D01*
X3910Y92826D01*
Y78839D01*
X4017Y78301D01*
X4321Y77845D01*
X6638Y75529D01*
X6941Y75191D01*
X6991Y73576D01*
X6958Y73465D01*
X6529Y72430D01*
X6380Y71299D01*
X6529Y70169D01*
X6965Y69115D01*
X7659Y68211D01*
X8564Y67516D01*
X9257Y67229D01*
X9359Y66728D01*
X9328Y65863D01*
X9266Y65603D01*
X8457Y65268D01*
X7508Y64539D01*
X6780Y63591D01*
X6322Y62485D01*
X6243Y61890D01*
X10748D01*
Y60709D01*
X6243D01*
X6322Y60113D01*
X6780Y59008D01*
X7508Y58059D01*
X8457Y57331D01*
X9266Y56995D01*
X9328Y56735D01*
X9359Y55871D01*
X9257Y55369D01*
X8564Y55082D01*
X7659Y54388D01*
X6965Y53483D01*
X6529Y52430D01*
X6380Y51299D01*
X6529Y50169D01*
X6965Y49115D01*
X7659Y48210D01*
X8564Y47516D01*
X9257Y47229D01*
X9359Y46727D01*
X9328Y45863D01*
X9266Y45603D01*
X8457Y45268D01*
X7508Y44539D01*
X6780Y43591D01*
X6322Y42485D01*
X6243Y41890D01*
X10748D01*
Y40709D01*
X6243D01*
X6322Y40113D01*
X6780Y39008D01*
X7508Y38059D01*
X8457Y37331D01*
X9266Y36996D01*
X9328Y36735D01*
X9359Y35871D01*
X9257Y35369D01*
X8564Y35082D01*
X7659Y34388D01*
X6965Y33483D01*
X6529Y32430D01*
X6380Y31299D01*
X6529Y30169D01*
X6965Y29115D01*
X7659Y28210D01*
X8564Y27516D01*
X9618Y27080D01*
X10748Y26931D01*
X11879Y27080D01*
X12932Y27516D01*
X13837Y28210D01*
X14531Y29115D01*
X14842Y29868D01*
X16417Y29554D01*
Y26969D01*
X25079D01*
Y35630D01*
X22493D01*
X22180Y37205D01*
X22932Y37516D01*
X23837Y38210D01*
X24531Y39115D01*
X24967Y40169D01*
X25116Y41299D01*
X24967Y42430D01*
X24531Y43483D01*
X23837Y44388D01*
X22932Y45082D01*
X21879Y45518D01*
Y47080D01*
X22932Y47516D01*
X23837Y48210D01*
X24531Y49115D01*
X24967Y50169D01*
X25116Y51299D01*
X24967Y52430D01*
X24531Y53483D01*
X23837Y54388D01*
X22932Y55082D01*
X21879Y55518D01*
Y57080D01*
X22932Y57516D01*
X23837Y58210D01*
X24531Y59115D01*
X24967Y60169D01*
X25116Y61299D01*
X24967Y62430D01*
X24531Y63483D01*
X23837Y64388D01*
X22932Y65082D01*
X21879Y65518D01*
Y67080D01*
X22932Y67516D01*
X23837Y68211D01*
X24531Y69115D01*
X24967Y70169D01*
X25116Y71299D01*
X24967Y72430D01*
X24943Y72488D01*
X26278Y73380D01*
X27817Y71841D01*
X28273Y71537D01*
X28811Y71430D01*
X37312D01*
X41428Y67314D01*
X41884Y67009D01*
X42421Y66902D01*
X49274D01*
Y65945D01*
X49420Y65215D01*
X49833Y64597D01*
X50451Y64183D01*
X51181Y64038D01*
X51911Y64183D01*
X52756Y64509D01*
X53601Y64183D01*
X54331Y64038D01*
X55060Y64183D01*
X55905Y64509D01*
X56751Y64183D01*
X57480Y64038D01*
X58210Y64183D01*
X58829Y64597D01*
X59817Y63983D01*
X60387Y62290D01*
X60261Y62022D01*
X60252Y62024D01*
X59734Y62024D01*
X58071D01*
Y59055D01*
X57480D01*
Y58465D01*
X54709D01*
Y56087D01*
X56629D01*
X57221Y54512D01*
X54912Y52202D01*
X54607Y51747D01*
X54501Y51209D01*
Y37767D01*
X54607Y37230D01*
X54912Y36774D01*
X63152Y28534D01*
X63608Y28230D01*
X64145Y28123D01*
X74803D01*
Y23819D01*
X76154D01*
Y18110D01*
X76261Y17573D01*
X76566Y17117D01*
X87983Y5700D01*
X88439Y5395D01*
X88976Y5288D01*
X113543D01*
X114081Y5395D01*
X114537Y5700D01*
X120682Y11845D01*
X121362Y11563D01*
X122441Y11421D01*
X123520Y11563D01*
X124526Y11980D01*
X125389Y12642D01*
X126052Y13506D01*
X126468Y14511D01*
X126611Y15590D01*
X126468Y16670D01*
X126187Y17349D01*
X129734Y20896D01*
X130038Y21352D01*
X130145Y21890D01*
Y38583D01*
X130038Y39120D01*
X129734Y39576D01*
X114379Y54931D01*
X113924Y55235D01*
X113386Y55342D01*
X99314D01*
X98047Y56087D01*
Y58465D01*
X95275D01*
Y59646D01*
X98047D01*
Y61587D01*
X126181D01*
Y61024D01*
X130905D01*
X131299Y61024D01*
X132480D01*
X132874Y61024D01*
X137598D01*
Y62375D01*
X141929D01*
Y61024D01*
X146529D01*
X148016Y60811D01*
X148534Y60811D01*
X150197D01*
Y63779D01*
Y66748D01*
X148534D01*
X148016Y66748D01*
X146529Y66535D01*
X141929D01*
Y65184D01*
X137598D01*
Y66535D01*
X132874D01*
X132480Y66536D01*
X131299D01*
X130905Y66535D01*
X128565D01*
X127845Y68110D01*
X128454Y68898D01*
X130905D01*
X131299Y68898D01*
X132480D01*
X132874Y68898D01*
X137598D01*
Y70249D01*
X141929D01*
Y68898D01*
X146529D01*
X148016Y68685D01*
X148534Y68685D01*
X150197D01*
Y71653D01*
Y74622D01*
X148534D01*
X148016Y74622D01*
X146529Y74410D01*
X141929D01*
Y73058D01*
X137598D01*
Y74410D01*
X132874D01*
X132480Y74410D01*
X131299D01*
X130905Y74410D01*
X128565D01*
X127845Y75984D01*
X128454Y76772D01*
X130905D01*
X131299Y76772D01*
X132480D01*
X132874Y76772D01*
X137598D01*
Y78123D01*
X141929D01*
Y76772D01*
X146529D01*
X148016Y76559D01*
X148534Y76559D01*
X150197D01*
Y79528D01*
Y82496D01*
X148534D01*
X148016Y82496D01*
X146529Y82284D01*
X141929D01*
Y80932D01*
X137598D01*
Y82284D01*
X133320D01*
X132854Y82855D01*
X132325Y83794D01*
X132417Y84252D01*
X132279Y84943D01*
X131887Y85529D01*
X131301Y85921D01*
X130610Y86058D01*
X129919Y85921D01*
X129524Y85657D01*
X110261D01*
X109967Y85902D01*
X109156Y87232D01*
X109190Y87402D01*
X109156Y87571D01*
X109967Y88901D01*
X110261Y89146D01*
X142520D01*
X143057Y89253D01*
X143513Y89558D01*
X145688Y91732D01*
X148498D01*
X149984Y91520D01*
X150503Y91520D01*
X152165D01*
Y94488D01*
Y97457D01*
X150503D01*
X149984Y97457D01*
X148498Y97244D01*
X146281D01*
X145562Y98819D01*
X146170Y99606D01*
X148498D01*
X149984Y99394D01*
X150503Y99394D01*
X152165D01*
Y102362D01*
Y105331D01*
X150503D01*
X149984Y105331D01*
X148498Y105118D01*
X146281D01*
X145562Y106693D01*
X146170Y107480D01*
X148498D01*
X149984Y107268D01*
X150503Y107268D01*
X152165D01*
Y110236D01*
Y113205D01*
X150503D01*
X149984Y113205D01*
X148498Y112992D01*
X146281D01*
X145562Y114567D01*
X146170Y115354D01*
X148498D01*
X149984Y115142D01*
X150503Y115142D01*
X152165D01*
Y118110D01*
Y121079D01*
X150503D01*
X149984Y121079D01*
X148498Y120866D01*
X146281D01*
X145562Y122441D01*
X146170Y123228D01*
X148498D01*
X149984Y123016D01*
X150503Y123016D01*
X152165D01*
Y125984D01*
Y128953D01*
X150503D01*
X149984Y128953D01*
X148498Y128740D01*
X146281D01*
X145562Y130315D01*
X146170Y131102D01*
X148498D01*
X149984Y130890D01*
X150503Y130890D01*
X152165D01*
Y133858D01*
Y136827D01*
X150503D01*
X149984Y136827D01*
X148498Y136614D01*
X146281D01*
X145562Y138189D01*
X146170Y138976D01*
X148498D01*
X149984Y138764D01*
X150503Y138764D01*
X152165D01*
Y141732D01*
Y144701D01*
X150503D01*
X149984Y144701D01*
X148498Y144488D01*
X146281D01*
X145562Y146063D01*
X146170Y146850D01*
X148498D01*
X149984Y146638D01*
X150503Y146638D01*
X152165D01*
Y149606D01*
Y152575D01*
X150503D01*
X149984Y152575D01*
X148498Y152362D01*
X143898D01*
Y149034D01*
X136605Y141742D01*
X136300Y141286D01*
X136194Y140748D01*
Y126763D01*
X128056Y118625D01*
X122154Y112724D01*
X117142D01*
Y113878D01*
X114173D01*
Y115059D01*
X117142D01*
Y117240D01*
X117142D01*
X117142Y117240D01*
X116929Y118727D01*
Y120969D01*
X117419Y121459D01*
X117811Y122045D01*
X117948Y122736D01*
Y126378D01*
Y141913D01*
X119523Y142565D01*
X121653Y140434D01*
Y137500D01*
X121653Y137106D01*
Y135925D01*
X121653Y135531D01*
Y130807D01*
X127165D01*
Y130807D01*
X127756Y130807D01*
X128782Y129657D01*
X128941Y129235D01*
X128804Y128543D01*
X128941Y127852D01*
X129333Y127266D01*
X129919Y126874D01*
X130610Y126737D01*
X131301Y126874D01*
X131887Y127266D01*
X132279Y127852D01*
X132417Y128543D01*
X132279Y129235D01*
X132872Y130807D01*
X133268D01*
Y135407D01*
X133480Y136894D01*
X133480Y137412D01*
Y139075D01*
X130512D01*
Y139665D01*
X129921D01*
Y142437D01*
X128652D01*
X127543Y142437D01*
X126057Y142224D01*
X123837D01*
X121188Y144873D01*
Y164469D01*
X121081Y165006D01*
X120777Y165462D01*
X119193Y167046D01*
Y173622D01*
X113091D01*
Y172279D01*
X107480D01*
Y173130D01*
X103961D01*
Y179528D01*
X103866Y180247D01*
X103588Y180917D01*
X103147Y181493D01*
X102571Y181935D01*
X101900Y182212D01*
X101181Y182307D01*
X100462Y182212D01*
X99791Y181935D01*
X99216Y181493D01*
X98774Y180917D01*
X98496Y180247D01*
X98401Y179528D01*
Y173130D01*
X96457D01*
Y167815D01*
X101183D01*
X101249Y167788D01*
X101969Y167693D01*
X102688Y167788D01*
X102754Y167815D01*
X107480D01*
Y168666D01*
X113091D01*
Y164961D01*
X117304D01*
X118378Y163887D01*
Y157874D01*
X114366D01*
X109545Y162695D01*
X108959Y163086D01*
X108268Y163224D01*
X107480D01*
Y164075D01*
X96457D01*
Y163224D01*
X84646D01*
Y168701D01*
X75893D01*
X65549Y179044D01*
X65527Y179156D01*
X65136Y179742D01*
X64549Y180133D01*
X63858Y180271D01*
X63167Y180133D01*
X62581Y179742D01*
X62189Y179156D01*
X62052Y178465D01*
X62189Y177773D01*
X62581Y177187D01*
X63167Y176796D01*
X63279Y176774D01*
X73622Y166430D01*
Y157279D01*
X71951Y155608D01*
X71560Y155022D01*
X71422Y154331D01*
Y140551D01*
X70669D01*
Y135039D01*
X70669D01*
X70812Y133465D01*
X70079Y132812D01*
X69349Y132667D01*
X68730Y132254D01*
X68277D01*
X67659Y132667D01*
X66929Y132812D01*
X66199Y132667D01*
X65581Y132254D01*
X65128D01*
X64509Y132667D01*
X63779Y132812D01*
X63050Y132667D01*
X62205Y132341D01*
X61360Y132667D01*
X60630Y132812D01*
X59900Y132667D01*
X59282Y132254D01*
X58829D01*
X58210Y132667D01*
X57480Y132812D01*
X57310Y132778D01*
X55981Y133589D01*
X55736Y133883D01*
Y136426D01*
X59675Y140365D01*
X59979Y140821D01*
X60086Y141358D01*
Y147390D01*
X60100Y147400D01*
X60535Y148051D01*
X60688Y148819D01*
Y155118D01*
X60535Y155886D01*
X60100Y156537D01*
X59449Y156972D01*
X58681Y157125D01*
X57913Y156972D01*
X57262Y156537D01*
X57056Y156229D01*
X56517Y156108D01*
X55845D01*
X55306Y156229D01*
X55100Y156537D01*
X54449Y156972D01*
X53681Y157125D01*
X52913Y156972D01*
X52262Y156537D01*
X50676Y156751D01*
X50086Y157224D01*
X49979Y157762D01*
X49674Y158218D01*
X48667Y159225D01*
X49320Y160800D01*
X50590D01*
X51128Y160907D01*
X51584Y161211D01*
X54675Y164302D01*
X54979Y164758D01*
X55086Y165295D01*
X55591Y165678D01*
X57109Y166144D01*
X57830Y165662D01*
X58091Y165610D01*
Y170866D01*
Y176122D01*
X57830Y176070D01*
X57109Y175588D01*
X55630Y176210D01*
X55086Y176726D01*
Y177028D01*
X54979Y177565D01*
X54675Y178021D01*
X45294Y187402D01*
X45864Y188976D01*
X165354D01*
Y0D01*
D02*
G37*
G36*
X31487Y95857D02*
X31943Y95552D01*
X32480Y95446D01*
X39345D01*
X39639Y95200D01*
X40450Y93871D01*
X40416Y93701D01*
X40561Y92971D01*
X40887Y92126D01*
X40561Y91281D01*
X40416Y90551D01*
X40561Y89821D01*
X40975Y89203D01*
X40361Y88214D01*
X38671Y87629D01*
X38400Y87770D01*
X38402Y87779D01*
X38402Y87779D01*
X38402D01*
Y89961D01*
X35433D01*
Y90551D01*
X34843D01*
Y93323D01*
X32465D01*
Y91833D01*
X31010Y91230D01*
X28838Y93402D01*
X28640Y93699D01*
X28054Y94090D01*
X27362Y94228D01*
X26671Y94090D01*
X26133Y93731D01*
X26072Y93697D01*
X25565Y93626D01*
X24335Y93739D01*
X23837Y94388D01*
X22932Y95082D01*
X21879Y95518D01*
Y97080D01*
X22932Y97516D01*
X23837Y98211D01*
X24531Y99115D01*
X24967Y100169D01*
X26628Y100716D01*
X31487Y95857D01*
D02*
G37*
%LPC*%
G36*
X87614Y25787D02*
X85236D01*
Y23606D01*
X87614D01*
Y25787D01*
D02*
G37*
G36*
X101850Y15000D02*
X98135D01*
X98206Y14456D01*
X98644Y13399D01*
X99341Y12491D01*
X100249Y11794D01*
X101306Y11356D01*
X101850Y11284D01*
Y15000D01*
D02*
G37*
G36*
X107693Y155232D02*
X102559D01*
Y152953D01*
X107693D01*
Y155232D01*
D02*
G37*
G36*
Y151772D02*
X102559D01*
Y149492D01*
X107693D01*
Y151772D01*
D02*
G37*
G36*
X101378Y155232D02*
X96244D01*
Y152953D01*
X101378D01*
Y155232D01*
D02*
G37*
G36*
Y151772D02*
X96244D01*
Y149492D01*
X101378D01*
Y151772D01*
D02*
G37*
G36*
X65567Y41535D02*
X63189D01*
Y39354D01*
X65567D01*
Y41535D01*
D02*
G37*
G36*
X99016D02*
X96638D01*
Y39354D01*
X99016D01*
Y41535D01*
D02*
G37*
G36*
X102575D02*
X100197D01*
Y39354D01*
X102575D01*
Y41535D01*
D02*
G37*
G36*
X151378Y82496D02*
Y80118D01*
X153559D01*
Y82496D01*
X151378D01*
D02*
G37*
G36*
X153559Y78937D02*
X151378D01*
Y76559D01*
X153559D01*
Y78937D01*
D02*
G37*
G36*
X153347Y105331D02*
Y102953D01*
X155528D01*
Y105331D01*
X153347D01*
D02*
G37*
G36*
X155528Y109646D02*
X153347D01*
Y107268D01*
X155528D01*
Y109646D01*
D02*
G37*
G36*
Y101772D02*
X153347D01*
Y99394D01*
X155528D01*
Y101772D01*
D02*
G37*
G36*
Y93898D02*
X153347D01*
Y91520D01*
X155528D01*
Y93898D01*
D02*
G37*
G36*
X153347Y97457D02*
Y95079D01*
X155528D01*
Y97457D01*
X153347D01*
D02*
G37*
G36*
X151378Y74622D02*
Y72244D01*
X153559D01*
Y74622D01*
X151378D01*
D02*
G37*
G36*
X60590Y21040D02*
X59995Y20962D01*
X58890Y20504D01*
X57941Y19776D01*
X57213Y18827D01*
X56877Y18018D01*
X56617Y17956D01*
X55753Y17925D01*
X55251Y18027D01*
X54964Y18720D01*
X54270Y19624D01*
X53365Y20318D01*
X52312Y20755D01*
X51181Y20903D01*
X50051Y20755D01*
X48997Y20318D01*
X48092Y19624D01*
X47398Y18720D01*
X47087Y17967D01*
X45512Y18280D01*
Y20866D01*
X36850D01*
Y12205D01*
X45512D01*
Y14791D01*
X47087Y15104D01*
X47398Y14351D01*
X48092Y13447D01*
X48997Y12753D01*
X50051Y12316D01*
X51181Y12167D01*
X52312Y12316D01*
X53365Y12753D01*
X54270Y13447D01*
X54964Y14351D01*
X55251Y15044D01*
X55753Y15146D01*
X56617Y15115D01*
X56877Y15053D01*
X57213Y14244D01*
X57941Y13295D01*
X58890Y12567D01*
X59995Y12109D01*
X60590Y12031D01*
Y16535D01*
Y21040D01*
D02*
G37*
G36*
X149606Y52008D02*
X147629Y51852D01*
X145701Y51389D01*
X143869Y50630D01*
X142178Y49594D01*
X140670Y48306D01*
X139382Y46798D01*
X138346Y45107D01*
X137587Y43275D01*
X137125Y41347D01*
X136969Y39370D01*
X137125Y37393D01*
X137587Y35465D01*
X138346Y33633D01*
X139382Y31942D01*
X140670Y30434D01*
X142178Y29146D01*
X143869Y28110D01*
X145701Y27351D01*
X147629Y26888D01*
X149606Y26733D01*
X151583Y26888D01*
X153512Y27351D01*
X155344Y28110D01*
X157034Y29146D01*
X158542Y30434D01*
X159830Y31942D01*
X160866Y33633D01*
X161625Y35465D01*
X162088Y37393D01*
X162244Y39370D01*
X162088Y41347D01*
X161625Y43275D01*
X160866Y45107D01*
X159830Y46798D01*
X158542Y48306D01*
X157034Y49594D01*
X155344Y50630D01*
X153512Y51389D01*
X151583Y51852D01*
X149606Y52008D01*
D02*
G37*
G36*
X65686Y15945D02*
X61772D01*
Y12031D01*
X62367Y12109D01*
X63472Y12567D01*
X64421Y13295D01*
X65150Y14244D01*
X65608Y15349D01*
X65686Y15945D01*
D02*
G37*
G36*
X61772Y21040D02*
Y17126D01*
X65686D01*
X65608Y17721D01*
X65150Y18827D01*
X64421Y19776D01*
X63472Y20504D01*
X62367Y20962D01*
X61772Y21040D01*
D02*
G37*
G36*
X153559Y63189D02*
X151378D01*
Y60811D01*
X153559D01*
Y63189D01*
D02*
G37*
G36*
X151378Y66748D02*
Y64370D01*
X153559D01*
Y66748D01*
X151378D01*
D02*
G37*
G36*
X153559Y71063D02*
X151378D01*
Y68685D01*
X153559D01*
Y71063D01*
D02*
G37*
G36*
X56890Y62024D02*
X54709D01*
Y59646D01*
X56890D01*
Y62024D01*
D02*
G37*
G36*
X153347Y113205D02*
Y110827D01*
X155528D01*
Y113205D01*
X153347D01*
D02*
G37*
G36*
X127362Y158087D02*
X124689D01*
Y154134D01*
X127362D01*
Y158087D01*
D02*
G37*
G36*
X131217D02*
X128543D01*
Y154134D01*
X131217D01*
Y158087D01*
D02*
G37*
G36*
X153347Y152575D02*
Y150197D01*
X155528D01*
Y152575D01*
X153347D01*
D02*
G37*
G36*
X149606Y185866D02*
X147629Y185710D01*
X145701Y185247D01*
X143869Y184488D01*
X142178Y183452D01*
X140670Y182164D01*
X139382Y180656D01*
X138346Y178966D01*
X137587Y177134D01*
X137125Y175205D01*
X136969Y173228D01*
X137125Y171251D01*
X137587Y169323D01*
X138346Y167491D01*
X139382Y165800D01*
X140670Y164292D01*
X142178Y163005D01*
X143869Y161968D01*
X145701Y161209D01*
X147629Y160747D01*
X149606Y160591D01*
X151583Y160747D01*
X153512Y161209D01*
X155344Y161968D01*
X157034Y163005D01*
X158542Y164292D01*
X159830Y165800D01*
X160866Y167491D01*
X161625Y169323D01*
X162088Y171251D01*
X162244Y173228D01*
X162088Y175205D01*
X161625Y177134D01*
X160866Y178966D01*
X159830Y180656D01*
X158542Y182164D01*
X157034Y183452D01*
X155344Y184488D01*
X153512Y185247D01*
X151583Y185710D01*
X149606Y185866D01*
D02*
G37*
G36*
X127362Y173835D02*
X124689D01*
Y169882D01*
X127362D01*
Y173835D01*
D02*
G37*
G36*
X131217D02*
X128543D01*
Y169882D01*
X131217D01*
Y173835D01*
D02*
G37*
G36*
X59272Y176122D02*
Y171457D01*
X60905D01*
Y174016D01*
X60736Y174867D01*
X60254Y175588D01*
X59532Y176070D01*
X59272Y176122D01*
D02*
G37*
G36*
X127362Y168701D02*
X124689D01*
Y164748D01*
X127362D01*
Y168701D01*
D02*
G37*
G36*
X131217D02*
X128543D01*
Y164748D01*
X131217D01*
Y168701D01*
D02*
G37*
G36*
X60905Y170276D02*
X59272D01*
Y165610D01*
X59532Y165662D01*
X60254Y166144D01*
X60736Y166866D01*
X60905Y167717D01*
Y170276D01*
D02*
G37*
G36*
X153347Y128953D02*
Y126575D01*
X155528D01*
Y128953D01*
X153347D01*
D02*
G37*
G36*
X155528Y133268D02*
X153347D01*
Y130890D01*
X155528D01*
Y133268D01*
D02*
G37*
G36*
X153347Y136827D02*
Y134449D01*
X155528D01*
Y136827D01*
X153347D01*
D02*
G37*
G36*
X155528Y117520D02*
X153347D01*
Y115142D01*
X155528D01*
Y117520D01*
D02*
G37*
G36*
X153347Y121079D02*
Y118701D01*
X155528D01*
Y121079D01*
X153347D01*
D02*
G37*
G36*
X155528Y125394D02*
X153347D01*
Y123016D01*
X155528D01*
Y125394D01*
D02*
G37*
G36*
Y141142D02*
X153347D01*
Y138764D01*
X155528D01*
Y141142D01*
D02*
G37*
G36*
X127362Y152953D02*
X124689D01*
Y149000D01*
X127362D01*
Y152953D01*
D02*
G37*
G36*
X131217D02*
X128543D01*
Y149000D01*
X131217D01*
Y152953D01*
D02*
G37*
G36*
X131102Y142437D02*
Y140256D01*
X133480D01*
Y142437D01*
X131102D01*
D02*
G37*
G36*
X153347Y144701D02*
Y142323D01*
X155528D01*
Y144701D01*
X153347D01*
D02*
G37*
G36*
X155528Y149016D02*
X153347D01*
Y146638D01*
X155528D01*
Y149016D01*
D02*
G37*
G36*
X38402Y93323D02*
X36024D01*
Y91142D01*
X38402D01*
Y93323D01*
D02*
G37*
%LPD*%
D10*
X152756Y149606D02*
D03*
X146457D02*
D03*
X152756Y141732D02*
D03*
X146457D02*
D03*
X152756Y133858D02*
D03*
X146457D02*
D03*
X152756Y125984D02*
D03*
X146457D02*
D03*
X152756Y118110D02*
D03*
X146457D02*
D03*
X152756Y110236D02*
D03*
X146457D02*
D03*
X152756Y102362D02*
D03*
X146457D02*
D03*
X152756Y94488D02*
D03*
X146457D02*
D03*
X135039Y79528D02*
D03*
X128740D02*
D03*
X135039Y71653D02*
D03*
X128740D02*
D03*
X135039Y63779D02*
D03*
X128740D02*
D03*
X144488Y79528D02*
D03*
X150787D02*
D03*
X144488Y71653D02*
D03*
X150787D02*
D03*
X144488Y63779D02*
D03*
X150787D02*
D03*
X95276Y59055D02*
D03*
X88976D02*
D03*
X57480D02*
D03*
X63779D02*
D03*
X79527Y137795D02*
D03*
X73228D02*
D03*
X88878D02*
D03*
X95177D02*
D03*
D11*
X98425Y68307D02*
D03*
X95276D02*
D03*
X92126D02*
D03*
X88976D02*
D03*
X85827D02*
D03*
X82677D02*
D03*
X79528D02*
D03*
X76378D02*
D03*
X73228D02*
D03*
X70079D02*
D03*
X66929D02*
D03*
X63779D02*
D03*
X60630D02*
D03*
X57480D02*
D03*
X54331D02*
D03*
X51181D02*
D03*
Y128543D02*
D03*
X54331D02*
D03*
X57480D02*
D03*
X60630D02*
D03*
X63779D02*
D03*
X66929D02*
D03*
X70079D02*
D03*
X73228D02*
D03*
X76378D02*
D03*
X79528D02*
D03*
X82677D02*
D03*
X85827D02*
D03*
X88976D02*
D03*
X92126D02*
D03*
X95276D02*
D03*
X98425D02*
D03*
D12*
X44685Y74803D02*
D03*
Y77953D02*
D03*
Y81102D02*
D03*
Y84252D02*
D03*
Y87402D02*
D03*
Y90551D02*
D03*
Y93701D02*
D03*
Y96850D02*
D03*
Y100000D02*
D03*
Y103150D02*
D03*
Y106299D02*
D03*
Y109449D02*
D03*
Y112598D02*
D03*
Y115748D02*
D03*
Y118898D02*
D03*
Y122047D02*
D03*
X104921D02*
D03*
Y118898D02*
D03*
Y115748D02*
D03*
Y112598D02*
D03*
Y109449D02*
D03*
Y106299D02*
D03*
Y103150D02*
D03*
Y100000D02*
D03*
Y96850D02*
D03*
Y93701D02*
D03*
Y90551D02*
D03*
Y87402D02*
D03*
Y84252D02*
D03*
Y81102D02*
D03*
Y77953D02*
D03*
Y74803D02*
D03*
D13*
X89602Y45276D02*
D03*
X72673D02*
D03*
D14*
X79134Y161417D02*
D03*
D15*
X101969Y170472D02*
D03*
Y161417D02*
D03*
Y152362D02*
D03*
D16*
X43681Y151969D02*
D03*
X48681D02*
D03*
X53681D02*
D03*
X58681D02*
D03*
X43681Y170866D02*
D03*
X48681D02*
D03*
X53681D02*
D03*
X58681D02*
D03*
D17*
X77559Y26378D02*
D03*
Y32677D02*
D03*
X35433Y90551D02*
D03*
Y84252D02*
D03*
Y122047D02*
D03*
Y115748D02*
D03*
X114173Y114469D02*
D03*
Y120768D02*
D03*
X62598Y42126D02*
D03*
Y48425D02*
D03*
X99606Y42126D02*
D03*
Y48425D02*
D03*
X84646Y26378D02*
D03*
Y32677D02*
D03*
X124409Y133366D02*
D03*
Y139665D02*
D03*
X130512Y139665D02*
D03*
Y133366D02*
D03*
D18*
X127953Y153543D02*
D03*
X116142D02*
D03*
X127953Y169291D02*
D03*
X116142D02*
D03*
D19*
Y168110D02*
Y169291D01*
Y168110D02*
X119783Y164469D01*
Y144291D02*
Y164469D01*
Y144291D02*
X124409Y139665D01*
X104921Y84252D02*
X130610D01*
X130610Y133366D02*
X130610Y133366D01*
X137598Y140748D02*
X146457Y149606D01*
X137598Y126181D02*
Y140748D01*
X129049Y117632D02*
X137598Y126181D01*
X139862Y135138D02*
X146457Y141732D01*
X139862Y125394D02*
Y135138D01*
X131152Y116683D02*
X139862Y125394D01*
X122736Y111319D02*
X129049Y117632D01*
X111024Y111319D02*
X122736D01*
X123819Y109350D02*
X131152Y116683D01*
X105020Y109350D02*
X123819D01*
X104921Y106299D02*
X123988D01*
X141831Y124142D01*
Y129232D01*
X146457Y133858D01*
X32579Y103150D02*
X44685D01*
X31102Y104626D02*
X32579Y103150D01*
X32776Y106595D02*
X44390D01*
X44685Y106299D01*
X30217Y109153D02*
X32776Y106595D01*
X28248Y103867D02*
X32115Y100000D01*
X26280Y103051D02*
X32480Y96850D01*
X28248Y103867D02*
Y122441D01*
X32115Y100000D02*
X44685D01*
X26280Y103051D02*
Y115768D01*
X32480Y96850D02*
X44685D01*
X28543Y97441D02*
X35433Y90551D01*
X26575Y97441D02*
X28543D01*
X114173Y114469D02*
X115256D01*
X30217Y109153D02*
Y131831D01*
X50590Y162205D02*
X53681Y165295D01*
X38878Y162205D02*
X50590D01*
X34744Y166339D02*
X38878Y162205D01*
X15709Y166339D02*
X34744D01*
X20748Y171299D02*
X34536D01*
X53681Y165295D02*
Y170866D01*
X10748Y171299D02*
X15709Y166339D01*
X85532Y120571D02*
X85827Y120866D01*
X70079Y120571D02*
Y128543D01*
X66929Y120571D02*
Y128543D01*
X63779Y120571D02*
X63779Y120571D01*
X92126Y120571D02*
Y128543D01*
X95276Y120571D02*
Y128543D01*
X94488Y94488D02*
X98425Y98425D01*
X98819Y98819D01*
Y128150D01*
X88976Y120571D02*
Y128543D01*
X98425D02*
X98819Y128150D01*
X85532Y120571D02*
X85827D01*
X63779Y120571D02*
Y128543D01*
X44685Y109449D02*
X52658D01*
X44685Y112598D02*
X52658D01*
X24468Y126221D02*
X28248Y122441D01*
X18710Y126221D02*
X24468D01*
X20748Y141299D02*
X30217Y131831D01*
X30709Y74803D02*
X44685D01*
X25669Y79843D02*
X30709Y74803D01*
X25669Y79843D02*
Y83338D01*
X7933Y76221D02*
X25425D01*
X5315Y78839D02*
X7933Y76221D01*
X5315Y78839D02*
Y92826D01*
X15827Y116378D02*
Y123338D01*
X10748Y111299D02*
X15827Y116378D01*
Y123338D02*
X18710Y126221D01*
X20748Y121299D02*
X26280Y115768D01*
X8710Y96220D02*
X15669D01*
X5315Y92826D02*
X8710Y96220D01*
X42421Y68307D02*
X51181D01*
X37894Y72835D02*
X42421Y68307D01*
X28811Y72835D02*
X37894D01*
X25425Y76221D02*
X28811Y72835D01*
X15669Y96220D02*
X20748Y101299D01*
X10748Y91299D02*
X15827Y86221D01*
X31004Y77953D02*
X44685D01*
X27638Y81319D02*
X31004Y77953D01*
X27638Y81319D02*
Y84409D01*
X20748Y91299D02*
X27638Y84409D01*
X15827Y86221D02*
X22786D01*
X25669Y83338D01*
X104921Y90551D02*
X142520D01*
X146457Y94488D01*
X104921Y93701D02*
X137795D01*
X146457Y102362D01*
X104921Y96850D02*
X133071D01*
X146457Y110236D01*
X104921Y100000D02*
X128347D01*
X146457Y118110D01*
X123622Y103150D02*
X146457Y125984D01*
X104921Y103150D02*
X123622D01*
X104921Y109449D02*
X105020Y109350D01*
X109744Y112598D02*
X111024Y111319D01*
X104921Y112598D02*
X109744D01*
X104921Y115748D02*
X112697D01*
X127953Y62992D02*
X128740Y63779D01*
X97638Y62992D02*
X127953D01*
X124016Y74803D02*
X128740Y79528D01*
X125394Y68307D02*
X128740Y71653D01*
X98425Y68307D02*
X125394D01*
X104921Y74803D02*
X124016D01*
X41732Y122047D02*
X44685D01*
X38976Y124803D02*
X41732Y122047D01*
X38976Y124803D02*
Y157480D01*
X40945Y159449D01*
X46457D01*
X48681Y157224D01*
Y151969D02*
Y157224D01*
Y151969D02*
X53681D01*
X54331Y128543D02*
Y137008D01*
X58681Y141358D01*
Y151969D01*
X43681Y144902D02*
Y151969D01*
Y144902D02*
X51181Y137402D01*
Y128543D02*
Y137402D01*
X114961Y170472D02*
X116142Y169291D01*
X44685Y93701D02*
X48425D01*
X85827Y120866D02*
Y128543D01*
X104921Y122047D02*
Y128543D01*
X106299Y129921D01*
X48425Y93701D02*
X55118Y87008D01*
X50000Y76772D02*
X52362Y74410D01*
X58661D02*
X62992Y78740D01*
X52362Y74410D02*
X58661D01*
X55118Y78740D02*
Y87008D01*
X51181Y68307D02*
Y70472D01*
X80374Y61083D02*
X82284Y62992D01*
Y67913D01*
X82677Y68307D01*
X79528Y63020D02*
Y68307D01*
X78405Y61898D02*
X79528Y63020D01*
X72673Y45276D02*
Y46689D01*
X78405Y52421D01*
Y61898D01*
X80374Y55453D02*
Y61083D01*
Y55453D02*
X89602Y46224D01*
Y45276D02*
Y46224D01*
X76378Y57087D02*
Y68307D01*
X71260Y51968D02*
X76378Y57087D01*
X59449Y51968D02*
X71260D01*
X57874Y50394D02*
X59449Y51968D01*
X57874Y38583D02*
Y50394D01*
X73228Y56721D02*
Y68307D01*
X70445Y53937D02*
X73228Y56721D01*
X58633Y53937D02*
X70445D01*
X55905Y51209D02*
X58633Y53937D01*
X55905Y37767D02*
Y51209D01*
X57874Y38583D02*
X63779Y32677D01*
X77559D01*
X77559Y32677D01*
X84646D02*
X95354D01*
X86221Y53937D02*
X113386D01*
X84252Y55905D02*
X86221Y53937D01*
X84252Y55905D02*
Y58661D01*
X77559Y32677D02*
X84646D01*
X113386Y53937D02*
X128740Y38583D01*
X122441Y15590D02*
X128740Y21890D01*
Y38583D01*
X95354Y32677D02*
X102441Y25591D01*
X55905Y37767D02*
X64145Y29528D01*
X89764D01*
X98425Y20866D01*
X117717D01*
X122441Y25591D01*
X77559Y18110D02*
Y26378D01*
Y18110D02*
X88976Y6693D01*
X113543D01*
X122441Y15590D01*
X95276Y65354D02*
Y68307D01*
Y65354D02*
X97638Y62992D01*
X135039Y63779D02*
X144488D01*
X135039Y71653D02*
X144488D01*
X135039Y79528D02*
X144488D01*
X92752Y48425D02*
X99606D01*
X89602Y45276D02*
X92752Y48425D01*
X62598D02*
X69524D01*
X72673Y45276D01*
X76378Y128543D02*
Y134646D01*
X79527Y137795D01*
X38583Y118898D02*
X44685D01*
X35433Y122047D02*
X38583Y118898D01*
X38583Y87402D02*
X44685D01*
X35433Y90551D02*
X38583Y87402D01*
X60630Y62205D02*
Y68307D01*
X57480Y59055D02*
X60630Y62205D01*
X44685Y90551D02*
X47933D01*
X50000Y88484D01*
Y76772D02*
Y88484D01*
X95177Y137795D02*
Y138287D01*
X87402Y146063D02*
X95177Y138287D01*
X79528Y128543D02*
X82677D01*
X84153Y137795D02*
X88878D01*
X82677Y136319D02*
X84153Y137795D01*
X82677Y128543D02*
Y136319D01*
X124409Y133366D02*
X130512D01*
X130610D01*
X130610Y128543D02*
Y133366D01*
X10748Y181299D02*
X16260Y186811D01*
X48681Y167185D02*
Y170866D01*
X46161Y164665D02*
X48681Y167185D01*
X41170Y164665D02*
X46161D01*
X34536Y171299D02*
X41170Y164665D01*
X20748Y181299D02*
X44587D01*
X16260Y186811D02*
X43898D01*
X53681Y177028D01*
Y170866D02*
Y177028D01*
X44587Y181299D02*
X48681Y177205D01*
Y170866D02*
Y177205D01*
X112697Y115748D02*
X114173Y114272D01*
D20*
X27362Y92323D02*
X35433Y84252D01*
X27362Y92323D02*
Y92421D01*
X35433Y110728D02*
Y115748D01*
X116142Y122736D02*
Y126378D01*
X104921Y118898D02*
X112303D01*
X35433Y84252D02*
X44685D01*
X35433Y84252D02*
X35433Y84252D01*
X35433Y115748D02*
X44685D01*
X73228Y128543D02*
Y137795D01*
X73228Y137795D02*
X73228Y137795D01*
X88976Y59055D02*
Y68307D01*
X88976Y59055D02*
X88976Y59055D01*
X63779Y59055D02*
Y68307D01*
X79134Y161417D02*
X101969D01*
X108268D02*
X116142Y153543D01*
X101969Y161417D02*
X108268D01*
X101969Y170472D02*
X114961D01*
X73228Y137795D02*
Y154331D01*
X79134Y160236D01*
Y161417D01*
X87402Y153150D01*
Y146063D02*
Y153150D01*
X116142Y126378D02*
Y153543D01*
X84252Y58661D02*
X88583D01*
X88976Y59055D01*
X63779D02*
X68898D01*
X112303Y118898D02*
X114173Y120768D01*
X116142Y122736D01*
D21*
X101181Y171260D02*
Y179528D01*
Y171260D02*
X101969Y170472D01*
D22*
X43681Y170866D02*
Y178465D01*
X63858D02*
X79134Y163189D01*
Y161417D02*
Y163189D01*
D23*
X10748Y181299D02*
D03*
Y171299D02*
D03*
Y161299D02*
D03*
Y151299D02*
D03*
Y141299D02*
D03*
Y131299D02*
D03*
Y121299D02*
D03*
Y111299D02*
D03*
Y101299D02*
D03*
Y91299D02*
D03*
Y81299D02*
D03*
Y71299D02*
D03*
Y61299D02*
D03*
Y51299D02*
D03*
Y41299D02*
D03*
Y31299D02*
D03*
X20748Y41299D02*
D03*
Y51299D02*
D03*
Y61299D02*
D03*
Y71299D02*
D03*
Y81299D02*
D03*
Y91299D02*
D03*
Y101299D02*
D03*
Y111299D02*
D03*
Y121299D02*
D03*
Y131299D02*
D03*
Y141299D02*
D03*
Y151299D02*
D03*
Y161299D02*
D03*
Y171299D02*
D03*
Y181299D02*
D03*
X61181Y16535D02*
D03*
X51181D02*
D03*
D24*
X20748Y31299D02*
D03*
D25*
X41181Y16535D02*
D03*
D26*
X102441Y15590D02*
D03*
Y25591D02*
D03*
X112441Y15590D02*
D03*
Y25591D02*
D03*
X122441Y15590D02*
D03*
D27*
Y25591D02*
D03*
D28*
X149606Y39370D02*
D03*
Y173228D02*
D03*
D29*
X130610Y84252D02*
D03*
Y128543D02*
D03*
X56496Y29626D02*
D03*
X31102Y104626D02*
D03*
X26575Y97441D02*
D03*
X27362Y92421D02*
D03*
X32677Y142421D02*
D03*
X21457Y17028D02*
D03*
X35433Y110728D02*
D03*
X70079Y120571D02*
D03*
X66929Y120571D02*
D03*
X63779D02*
D03*
X92126D02*
D03*
X95276D02*
D03*
X94488Y94488D02*
D03*
X88976Y120571D02*
D03*
X85827D02*
D03*
X52658Y109449D02*
D03*
Y112598D02*
D03*
X35728Y127657D02*
D03*
X106299Y129921D02*
D03*
X62992Y78740D02*
D03*
X101181Y179528D02*
D03*
X87402Y146063D02*
D03*
X55118Y78740D02*
D03*
X116142Y126378D02*
D03*
X84252Y58661D02*
D03*
X68898Y59055D02*
D03*
X109252Y39370D02*
D03*
X82677Y78740D02*
D03*
X106398Y143110D02*
D03*
X84153Y137795D02*
D03*
X65354Y134350D02*
D03*
X43681Y178465D02*
D03*
X63858D02*
D03*
M02*
