G04 Layer_Physical_Order=2*
G04 Layer_Color=16711680*
%FSLAX25Y25*%
%MOIN*%
G70*
G01*
G75*
%ADD19C,0.01181*%
%ADD20C,0.01969*%
%ADD21C,0.03937*%
%ADD22C,0.01575*%
%ADD23C,0.07087*%
%ADD24R,0.07087X0.07087*%
%ADD25R,0.07087X0.07087*%
%ADD26C,0.06693*%
%ADD27R,0.06693X0.06693*%
%ADD28C,0.23622*%
%ADD29C,0.01969*%
G36*
X165354Y0D02*
X0D01*
Y188976D01*
X165354D01*
Y0D01*
D02*
G37*
%LPC*%
G36*
X61772Y21040D02*
Y17126D01*
X65686D01*
X65608Y17721D01*
X65150Y18827D01*
X64421Y19776D01*
X63472Y20504D01*
X62367Y20962D01*
X61772Y21040D01*
D02*
G37*
G36*
X112441Y29760D02*
X111362Y29618D01*
X110356Y29201D01*
X109493Y28539D01*
X108830Y27675D01*
X108414Y26670D01*
X108271Y25591D01*
X108414Y24511D01*
X108830Y23506D01*
X109493Y22642D01*
X110356Y21980D01*
X111362Y21563D01*
X112441Y21421D01*
X113520Y21563D01*
X114526Y21980D01*
X115389Y22642D01*
X116052Y23506D01*
X116468Y24511D01*
X116611Y25591D01*
X116468Y26670D01*
X116052Y27675D01*
X115389Y28539D01*
X114526Y29201D01*
X113520Y29618D01*
X112441Y29760D01*
D02*
G37*
G36*
X126575Y29724D02*
X118307D01*
Y21457D01*
X126575D01*
Y29724D01*
D02*
G37*
G36*
X65686Y15945D02*
X61772D01*
Y12031D01*
X62367Y12109D01*
X63472Y12567D01*
X64421Y13295D01*
X65150Y14244D01*
X65608Y15349D01*
X65686Y15945D01*
D02*
G37*
G36*
X101850Y15000D02*
X98135D01*
X98206Y14456D01*
X98644Y13399D01*
X99341Y12491D01*
X100249Y11794D01*
X101306Y11356D01*
X101850Y11284D01*
Y15000D01*
D02*
G37*
G36*
X102441Y29760D02*
X101362Y29618D01*
X100356Y29201D01*
X99493Y28539D01*
X98830Y27675D01*
X98413Y26670D01*
X98271Y25591D01*
X98413Y24511D01*
X98830Y23506D01*
X99493Y22642D01*
X100356Y21980D01*
X101362Y21563D01*
X101902Y21492D01*
X101902Y19904D01*
X101306Y19825D01*
X100249Y19387D01*
X99341Y18690D01*
X98644Y17783D01*
X98206Y16725D01*
X98135Y16181D01*
X102441D01*
Y15591D01*
X103031D01*
Y11284D01*
X103576Y11356D01*
X104633Y11794D01*
X105541Y12491D01*
X106238Y13399D01*
X106676Y14456D01*
X106754Y15052D01*
X108342Y15052D01*
X108414Y14511D01*
X108830Y13506D01*
X109493Y12642D01*
X110356Y11980D01*
X111362Y11563D01*
X112441Y11421D01*
X113520Y11563D01*
X114526Y11980D01*
X115389Y12642D01*
X116052Y13506D01*
X116468Y14511D01*
X116611Y15590D01*
X116468Y16670D01*
X116052Y17675D01*
X115389Y18539D01*
X114526Y19202D01*
X113520Y19618D01*
X112441Y19760D01*
X111362Y19618D01*
X110356Y19202D01*
X109493Y18539D01*
X108830Y17675D01*
X108414Y16670D01*
X108342Y16129D01*
X106754Y16129D01*
X106676Y16725D01*
X106238Y17783D01*
X105541Y18690D01*
X104633Y19387D01*
X103576Y19825D01*
X102980Y19904D01*
X102980Y21492D01*
X103520Y21563D01*
X104526Y21980D01*
X105389Y22642D01*
X106052Y23506D01*
X106468Y24511D01*
X106611Y25591D01*
X106468Y26670D01*
X106052Y27675D01*
X105389Y28539D01*
X104526Y29201D01*
X103520Y29618D01*
X102441Y29760D01*
D02*
G37*
G36*
X122441Y19760D02*
X121362Y19618D01*
X120356Y19202D01*
X119493Y18539D01*
X118830Y17675D01*
X118413Y16670D01*
X118271Y15590D01*
X118413Y14511D01*
X118830Y13506D01*
X119493Y12642D01*
X120356Y11980D01*
X121362Y11563D01*
X122441Y11421D01*
X123520Y11563D01*
X124526Y11980D01*
X125389Y12642D01*
X126052Y13506D01*
X126468Y14511D01*
X126611Y15590D01*
X126468Y16670D01*
X126052Y17675D01*
X125389Y18539D01*
X124526Y19202D01*
X123520Y19618D01*
X122441Y19760D01*
D02*
G37*
G36*
X149606Y52008D02*
X147629Y51852D01*
X145701Y51389D01*
X143869Y50630D01*
X142178Y49594D01*
X140670Y48306D01*
X139382Y46798D01*
X138346Y45107D01*
X137587Y43275D01*
X137125Y41347D01*
X136969Y39370D01*
X137125Y37393D01*
X137587Y35465D01*
X138346Y33633D01*
X139382Y31942D01*
X140670Y30434D01*
X142178Y29146D01*
X143869Y28110D01*
X145701Y27351D01*
X147629Y26888D01*
X149606Y26733D01*
X151583Y26888D01*
X153512Y27351D01*
X155344Y28110D01*
X157034Y29146D01*
X158542Y30434D01*
X159830Y31942D01*
X160866Y33633D01*
X161625Y35465D01*
X162088Y37393D01*
X162244Y39370D01*
X162088Y41347D01*
X161625Y43275D01*
X160866Y45107D01*
X159830Y46798D01*
X158542Y48306D01*
X157034Y49594D01*
X155344Y50630D01*
X153512Y51389D01*
X151583Y51852D01*
X149606Y52008D01*
D02*
G37*
G36*
X63858Y180271D02*
X63167Y180133D01*
X63072Y180070D01*
X44467D01*
X44372Y180133D01*
X43681Y180271D01*
X42990Y180133D01*
X42404Y179742D01*
X42012Y179156D01*
X41875Y178465D01*
X42012Y177773D01*
X42404Y177187D01*
X42990Y176796D01*
X43681Y176658D01*
X44372Y176796D01*
X44467Y176859D01*
X63072D01*
X63167Y176796D01*
X63858Y176658D01*
X64549Y176796D01*
X65136Y177187D01*
X65527Y177773D01*
X65665Y178465D01*
X65527Y179156D01*
X65136Y179742D01*
X64549Y180133D01*
X63858Y180271D01*
D02*
G37*
G36*
X149606Y185866D02*
X147629Y185710D01*
X145701Y185247D01*
X143869Y184488D01*
X142178Y183452D01*
X140670Y182164D01*
X139382Y180656D01*
X138346Y178966D01*
X137587Y177134D01*
X137125Y175205D01*
X136969Y173228D01*
X137125Y171251D01*
X137587Y169323D01*
X138346Y167491D01*
X139382Y165800D01*
X140670Y164292D01*
X142178Y163005D01*
X143869Y161968D01*
X145701Y161209D01*
X147629Y160747D01*
X149606Y160591D01*
X151583Y160747D01*
X153512Y161209D01*
X155344Y161968D01*
X157034Y163005D01*
X158542Y164292D01*
X159830Y165800D01*
X160866Y167491D01*
X161625Y169323D01*
X162088Y171251D01*
X162244Y173228D01*
X162088Y175205D01*
X161625Y177134D01*
X160866Y178966D01*
X159830Y180656D01*
X158542Y182164D01*
X157034Y183452D01*
X155344Y184488D01*
X153512Y185247D01*
X151583Y185710D01*
X149606Y185866D01*
D02*
G37*
G36*
X20748Y185667D02*
X19617Y185518D01*
X18564Y185082D01*
X17659Y184388D01*
X16965Y183483D01*
X16529Y182430D01*
X14967D01*
X14531Y183483D01*
X13837Y184388D01*
X12932Y185082D01*
X11879Y185518D01*
X10748Y185667D01*
X9618Y185518D01*
X8564Y185082D01*
X7659Y184388D01*
X6965Y183483D01*
X6529Y182430D01*
X6380Y181299D01*
X6529Y180169D01*
X6965Y179115D01*
X7659Y178210D01*
X8564Y177516D01*
X9618Y177080D01*
Y175518D01*
X8564Y175082D01*
X7659Y174388D01*
X6965Y173483D01*
X6529Y172430D01*
X6380Y171299D01*
X6529Y170169D01*
X6965Y169115D01*
X7659Y168210D01*
X8564Y167516D01*
X9257Y167229D01*
X9359Y166727D01*
X9328Y165863D01*
X9266Y165603D01*
X8457Y165268D01*
X7508Y164540D01*
X6780Y163591D01*
X6322Y162485D01*
X6243Y161890D01*
X10748D01*
Y160709D01*
X6243D01*
X6322Y160113D01*
X6780Y159008D01*
X7508Y158059D01*
X8457Y157331D01*
X9266Y156995D01*
X9328Y156736D01*
X9359Y155871D01*
X9257Y155369D01*
X8564Y155082D01*
X7659Y154388D01*
X6965Y153483D01*
X6529Y152430D01*
X6380Y151299D01*
X6529Y150169D01*
X6965Y149115D01*
X7659Y148211D01*
X8564Y147516D01*
X9257Y147229D01*
X9359Y146728D01*
X9328Y145863D01*
X9266Y145603D01*
X8457Y145268D01*
X7508Y144539D01*
X6780Y143590D01*
X6322Y142485D01*
X6243Y141890D01*
X10748D01*
Y140709D01*
X6243D01*
X6322Y140113D01*
X6780Y139008D01*
X7508Y138059D01*
X8457Y137331D01*
X9266Y136995D01*
X9328Y136735D01*
X9359Y135871D01*
X9257Y135369D01*
X8564Y135082D01*
X7659Y134388D01*
X6965Y133483D01*
X6529Y132430D01*
X6380Y131299D01*
X6529Y130169D01*
X6965Y129115D01*
X7659Y128210D01*
X8564Y127516D01*
X9257Y127229D01*
X9359Y126727D01*
X9328Y125863D01*
X9266Y125603D01*
X8457Y125268D01*
X7508Y124539D01*
X6780Y123591D01*
X6322Y122485D01*
X6243Y121890D01*
X10748D01*
Y120709D01*
X6243D01*
X6322Y120113D01*
X6780Y119008D01*
X7508Y118059D01*
X8457Y117331D01*
X9266Y116996D01*
X9328Y116735D01*
X9359Y115871D01*
X9257Y115369D01*
X8564Y115082D01*
X7659Y114388D01*
X6965Y113483D01*
X6529Y112430D01*
X6380Y111299D01*
X6529Y110169D01*
X6965Y109115D01*
X7659Y108211D01*
X8564Y107516D01*
X9257Y107229D01*
X9359Y106728D01*
X9328Y105863D01*
X9266Y105603D01*
X8457Y105268D01*
X7508Y104540D01*
X6780Y103591D01*
X6322Y102485D01*
X6243Y101890D01*
X10748D01*
Y100709D01*
X6243D01*
X6322Y100113D01*
X6780Y99008D01*
X7508Y98059D01*
X8457Y97331D01*
X9266Y96996D01*
X9328Y96736D01*
X9359Y95871D01*
X9257Y95369D01*
X8564Y95082D01*
X7659Y94388D01*
X6965Y93483D01*
X6529Y92430D01*
X6380Y91299D01*
X6529Y90169D01*
X6965Y89115D01*
X7659Y88210D01*
X8564Y87516D01*
X9257Y87229D01*
X9359Y86727D01*
X9328Y85863D01*
X9266Y85603D01*
X8457Y85268D01*
X7508Y84540D01*
X6780Y83591D01*
X6322Y82485D01*
X6243Y81890D01*
X10748D01*
Y80709D01*
X6243D01*
X6322Y80113D01*
X6780Y79008D01*
X7508Y78059D01*
X8457Y77331D01*
X9266Y76995D01*
X9328Y76736D01*
X9359Y75871D01*
X9257Y75369D01*
X8564Y75082D01*
X7659Y74388D01*
X6965Y73483D01*
X6529Y72430D01*
X6380Y71299D01*
X6529Y70169D01*
X6965Y69115D01*
X7659Y68211D01*
X8564Y67516D01*
X9257Y67229D01*
X9359Y66728D01*
X9328Y65863D01*
X9266Y65603D01*
X8457Y65268D01*
X7508Y64539D01*
X6780Y63591D01*
X6322Y62485D01*
X6243Y61890D01*
X10748D01*
Y60709D01*
X6243D01*
X6322Y60113D01*
X6780Y59008D01*
X7508Y58059D01*
X8457Y57331D01*
X9266Y56995D01*
X9328Y56735D01*
X9359Y55871D01*
X9257Y55369D01*
X8564Y55082D01*
X7659Y54388D01*
X6965Y53483D01*
X6529Y52430D01*
X6380Y51299D01*
X6529Y50169D01*
X6965Y49115D01*
X7659Y48210D01*
X8564Y47516D01*
X9257Y47229D01*
X9359Y46727D01*
X9328Y45863D01*
X9266Y45603D01*
X8457Y45268D01*
X7508Y44539D01*
X6780Y43591D01*
X6322Y42485D01*
X6243Y41890D01*
X10748D01*
Y40709D01*
X6243D01*
X6322Y40113D01*
X6780Y39008D01*
X7508Y38059D01*
X8457Y37331D01*
X9266Y36996D01*
X9328Y36735D01*
X9359Y35871D01*
X9257Y35369D01*
X8564Y35082D01*
X7659Y34388D01*
X6965Y33483D01*
X6529Y32430D01*
X6380Y31299D01*
X6529Y30169D01*
X6965Y29115D01*
X7659Y28210D01*
X8564Y27516D01*
X9618Y27080D01*
X10748Y26931D01*
X11879Y27080D01*
X12658Y27403D01*
X15562Y24499D01*
X16017Y24194D01*
X16555Y24087D01*
X25000D01*
X25538Y24194D01*
X25993Y24499D01*
X44399Y42904D01*
X44704Y43360D01*
X44811Y43898D01*
Y78348D01*
X48317Y81854D01*
X53007D01*
X53275Y81534D01*
X53841Y80017D01*
X53449Y79431D01*
X53357Y78966D01*
X50188Y75797D01*
X49883Y75341D01*
X49776Y74803D01*
Y27117D01*
X43525Y20866D01*
X36850D01*
Y12205D01*
X45512D01*
Y14791D01*
X47087Y15104D01*
X47398Y14351D01*
X48092Y13447D01*
X48997Y12753D01*
X50051Y12316D01*
X51181Y12167D01*
X52312Y12316D01*
X53365Y12753D01*
X54270Y13447D01*
X54964Y14351D01*
X55251Y15044D01*
X55753Y15146D01*
X56617Y15115D01*
X56877Y15053D01*
X57213Y14244D01*
X57941Y13295D01*
X58890Y12567D01*
X59995Y12109D01*
X60590Y12031D01*
Y16535D01*
Y21040D01*
X59995Y20962D01*
X59699Y20839D01*
X58807Y22174D01*
X63986Y27353D01*
X64290Y27809D01*
X64397Y28346D01*
Y77654D01*
X64661Y78049D01*
X64798Y78740D01*
X64661Y79431D01*
X64269Y80017D01*
X64835Y81534D01*
X65104Y81854D01*
X83259D01*
X83797Y81962D01*
X84253Y82266D01*
X94714Y92727D01*
X95179Y92819D01*
X95766Y93211D01*
X96157Y93797D01*
X96295Y94488D01*
X96157Y95179D01*
X95766Y95766D01*
X95179Y96157D01*
X94488Y96295D01*
X93797Y96157D01*
X93211Y95766D01*
X92819Y95179D01*
X92727Y94714D01*
X82678Y84664D01*
X78866D01*
X78264Y86119D01*
X107293Y115148D01*
X107597Y115604D01*
X107704Y116142D01*
Y128835D01*
X107968Y129230D01*
X108106Y129921D01*
X107968Y130613D01*
X107577Y131199D01*
X106991Y131590D01*
X106299Y131728D01*
X105608Y131590D01*
X105022Y131199D01*
X104630Y130613D01*
X104493Y129921D01*
X104630Y129230D01*
X104894Y128835D01*
Y116724D01*
X74804Y86633D01*
X70599D01*
X69996Y88088D01*
X96269Y114361D01*
X96574Y114817D01*
X96680Y115354D01*
Y119485D01*
X96944Y119880D01*
X97082Y120571D01*
X96944Y121262D01*
X96553Y121848D01*
X95967Y122240D01*
X95276Y122377D01*
X94584Y122240D01*
X93701Y121947D01*
X92817Y122240D01*
X92126Y122377D01*
X91435Y122240D01*
X90551Y121947D01*
X89668Y122240D01*
X88976Y122377D01*
X88285Y122240D01*
X87402Y121947D01*
X86518Y122240D01*
X85827Y122377D01*
X85136Y122240D01*
X84549Y121848D01*
X84158Y121262D01*
X84020Y120571D01*
X84158Y119880D01*
X84422Y119485D01*
Y116288D01*
X63197Y95063D01*
X62560Y95155D01*
X62005Y96827D01*
X71072Y105894D01*
X71377Y106350D01*
X71484Y106888D01*
Y119485D01*
X71748Y119880D01*
X71885Y120571D01*
X71748Y121262D01*
X71356Y121848D01*
X70770Y122240D01*
X70079Y122377D01*
X69388Y122240D01*
X68504Y121947D01*
X67620Y122240D01*
X66929Y122377D01*
X66238Y122240D01*
X65354Y121947D01*
X64471Y122240D01*
X63779Y122377D01*
X63088Y122240D01*
X62502Y121848D01*
X62111Y121262D01*
X61973Y120571D01*
X62111Y119880D01*
X62375Y119485D01*
Y106738D01*
X56097Y100461D01*
X41164D01*
X40366Y102036D01*
X40796Y102623D01*
X54724D01*
X55416Y102760D01*
X56002Y103152D01*
X58167Y105317D01*
X58559Y105903D01*
X58696Y106595D01*
Y114469D01*
X58559Y115160D01*
X58167Y115746D01*
X53935Y119978D01*
X53349Y120370D01*
X52658Y120507D01*
X45433D01*
X41544Y124396D01*
X42147Y125851D01*
X79626D01*
X80317Y125989D01*
X80903Y126380D01*
X88679Y134156D01*
X89070Y134742D01*
X89208Y135433D01*
Y146063D01*
X89070Y146754D01*
X88679Y147340D01*
X88093Y147732D01*
X87402Y147869D01*
X86710Y147732D01*
X86124Y147340D01*
X85733Y146754D01*
X85595Y146063D01*
Y140798D01*
X85510Y140647D01*
X84153Y139602D01*
X83462Y139464D01*
X83067Y139200D01*
X47137D01*
X39393Y146945D01*
X39996Y148520D01*
X72953D01*
X73672Y148614D01*
X74343Y148892D01*
X74918Y149334D01*
X103147Y177562D01*
X103588Y178138D01*
X103866Y178808D01*
X103961Y179528D01*
X103866Y180247D01*
X103588Y180917D01*
X103147Y181493D01*
X102571Y181935D01*
X101900Y182212D01*
X101181Y182307D01*
X100462Y182212D01*
X99791Y181935D01*
X99216Y181493D01*
X71801Y154079D01*
X24074D01*
X23837Y154388D01*
X23528Y154625D01*
Y157973D01*
X23837Y158211D01*
X24531Y159115D01*
X24967Y160169D01*
X25116Y161299D01*
X24967Y162430D01*
X24531Y163483D01*
X23837Y164388D01*
X22932Y165082D01*
X21879Y165518D01*
Y167080D01*
X22932Y167516D01*
X23837Y168210D01*
X24531Y169115D01*
X24967Y170169D01*
X25116Y171299D01*
X24967Y172430D01*
X24531Y173483D01*
X23837Y174388D01*
X22932Y175082D01*
X21879Y175518D01*
Y177080D01*
X22932Y177516D01*
X23837Y178210D01*
X24531Y179115D01*
X24967Y180169D01*
X25116Y181299D01*
X24967Y182430D01*
X24531Y183483D01*
X23837Y184388D01*
X22932Y185082D01*
X21879Y185518D01*
X20748Y185667D01*
D02*
G37*
G36*
X116142Y128184D02*
X115451Y128047D01*
X114864Y127655D01*
X114473Y127069D01*
X114335Y126378D01*
Y99567D01*
X82975Y68206D01*
X82583Y67620D01*
X82446Y66929D01*
Y60861D01*
X68898D01*
X68206Y60724D01*
X67620Y60332D01*
X67229Y59746D01*
X67091Y59055D01*
X67229Y58364D01*
X67620Y57778D01*
X68206Y57386D01*
X68898Y57249D01*
X83177D01*
X83561Y56993D01*
X84252Y56855D01*
X84943Y56993D01*
X85529Y57384D01*
X85921Y57970D01*
X86058Y58661D01*
Y66181D01*
X117419Y97542D01*
X117811Y98128D01*
X117948Y98819D01*
Y126378D01*
X117811Y127069D01*
X117419Y127655D01*
X116833Y128047D01*
X116142Y128184D01*
D02*
G37*
G36*
X130610Y130350D02*
X129919Y130212D01*
X129333Y129821D01*
X128941Y129235D01*
X128804Y128543D01*
X128941Y127852D01*
X129205Y127457D01*
Y85338D01*
X128941Y84943D01*
X128804Y84252D01*
X128941Y83561D01*
X129333Y82975D01*
X129919Y82583D01*
X130610Y82446D01*
X131301Y82583D01*
X131887Y82975D01*
X132279Y83561D01*
X132417Y84252D01*
X132279Y84943D01*
X132015Y85338D01*
Y127457D01*
X132279Y127852D01*
X132417Y128543D01*
X132279Y129235D01*
X131887Y129821D01*
X131301Y130212D01*
X130610Y130350D01*
D02*
G37*
%LPD*%
G36*
X45562Y136802D02*
X46018Y136497D01*
X46555Y136390D01*
X83067D01*
X83373Y136186D01*
X83474Y136079D01*
X83861Y134447D01*
X78878Y129464D01*
X35728D01*
X35037Y129326D01*
X34451Y128935D01*
X34060Y128349D01*
X33922Y127657D01*
X34060Y126966D01*
X34451Y126380D01*
X43408Y117423D01*
X43994Y117032D01*
X44685Y116894D01*
X51752D01*
X52841Y115706D01*
X52808Y115470D01*
X52252Y114324D01*
X51966Y114267D01*
X51571Y114003D01*
X43791D01*
X25501Y132293D01*
X25045Y132597D01*
X24885Y132629D01*
X24531Y133483D01*
X23837Y134388D01*
X22932Y135082D01*
X21879Y135518D01*
Y137080D01*
X22932Y137516D01*
X23837Y138210D01*
X24531Y139115D01*
X24967Y140169D01*
X25116Y141299D01*
X24967Y142430D01*
X24531Y143483D01*
X25373Y144973D01*
X37391D01*
X45562Y136802D01*
D02*
G37*
G36*
X61149Y81534D02*
X61715Y80017D01*
X61323Y79431D01*
X61186Y78740D01*
X61323Y78049D01*
X61587Y77654D01*
Y28928D01*
X53091Y20432D01*
X52312Y20755D01*
X51181Y20903D01*
X50051Y20755D01*
X49306Y20446D01*
X48414Y21781D01*
X52175Y25542D01*
X52479Y25998D01*
X52586Y26535D01*
Y74221D01*
X55344Y76979D01*
X55809Y77071D01*
X56395Y77463D01*
X56787Y78049D01*
X56924Y78740D01*
X56787Y79431D01*
X56395Y80017D01*
X56961Y81534D01*
X57230Y81854D01*
X60881D01*
X61149Y81534D01*
D02*
G37*
G36*
X16678Y99808D02*
X16965Y99115D01*
X17659Y98211D01*
X18564Y97516D01*
X19617Y97080D01*
Y95518D01*
X18564Y95082D01*
X17659Y94388D01*
X16965Y93483D01*
X16529Y92430D01*
X14967D01*
X14531Y93483D01*
X13837Y94388D01*
X12932Y95082D01*
X12239Y95369D01*
X12137Y95871D01*
X12168Y96736D01*
X12230Y96996D01*
X13039Y97331D01*
X13988Y98059D01*
X14717Y99008D01*
X15052Y99817D01*
X15312Y99879D01*
X16176Y99910D01*
X16678Y99808D01*
D02*
G37*
G36*
X36437Y113938D02*
X35658Y112490D01*
X35433Y112535D01*
X34742Y112397D01*
X34156Y112006D01*
X33764Y111420D01*
X33627Y110728D01*
Y108169D01*
X33764Y107478D01*
X34156Y106892D01*
X36619Y104429D01*
X26085Y93895D01*
X26072Y93877D01*
X25538Y93740D01*
X24375Y93777D01*
X24279Y93812D01*
X23837Y94388D01*
X22932Y95082D01*
X21879Y95518D01*
Y97080D01*
X22932Y97516D01*
X23837Y98211D01*
X24531Y99115D01*
X24967Y100169D01*
X25116Y101299D01*
X24967Y102430D01*
X24659Y103174D01*
X25994Y104067D01*
X26428Y103632D01*
X26884Y103328D01*
X27421Y103221D01*
X30016D01*
X30411Y102957D01*
X31102Y102820D01*
X31794Y102957D01*
X32380Y103349D01*
X32771Y103935D01*
X32909Y104626D01*
X32771Y105317D01*
X32380Y105903D01*
X31794Y106295D01*
X31102Y106432D01*
X30411Y106295D01*
X30016Y106031D01*
X28003D01*
X24645Y109390D01*
X24967Y110169D01*
X25116Y111299D01*
X24967Y112430D01*
X24531Y113483D01*
X23837Y114388D01*
X22932Y115082D01*
X21879Y115518D01*
Y117080D01*
X22932Y117516D01*
X23837Y118210D01*
X24531Y119115D01*
X24967Y120169D01*
X25116Y121299D01*
X24967Y122430D01*
X26113Y123778D01*
X26539Y123836D01*
X36437Y113938D01*
D02*
G37*
D19*
X130610Y84252D02*
Y128543D01*
X25512Y96378D02*
X26575Y97441D01*
X15669Y96378D02*
X25512D01*
X10748Y101299D02*
X15669Y96378D01*
X43209Y112598D02*
X52658D01*
X24508Y131299D02*
X43209Y112598D01*
X20748Y131299D02*
X24508D01*
X42913Y109449D02*
X52658D01*
X25984Y126378D02*
X42913Y109449D01*
X15669Y126378D02*
X25984D01*
X27421Y104626D02*
X31102D01*
X20748Y111299D02*
X27421Y104626D01*
X38505Y99056D02*
X56679D01*
X24606Y85158D02*
X38505Y99056D01*
X39320Y97088D02*
X57495D01*
X26870Y84637D02*
X39320Y97088D01*
X40529Y95119D02*
X58310D01*
X29626Y84216D02*
X40529Y95119D01*
X41690Y93102D02*
X63223D01*
X31594Y83007D02*
X41690Y93102D01*
X42899Y91133D02*
X64039D01*
X33957Y82191D02*
X42899Y91133D01*
X44108Y89165D02*
X64854D01*
X36319Y81376D02*
X44108Y89165D01*
X45317Y87196D02*
X67118D01*
X38681Y80560D02*
X45317Y87196D01*
X20748Y81299D02*
X24606Y85158D01*
X83259Y83259D02*
X94488Y94488D01*
X47735Y83259D02*
X83259D01*
X46526Y85228D02*
X75385D01*
X41043Y79745D02*
X46526Y85228D01*
X43406Y78930D02*
X47735Y83259D01*
X20748Y71299D02*
X29626Y80177D01*
Y84216D01*
X20748Y61299D02*
X31594Y72146D01*
Y83007D01*
X22786Y56378D02*
X33957Y67548D01*
Y82191D01*
X20748Y51299D02*
X36319Y66870D01*
Y81376D01*
X20748Y41299D02*
X38681Y59232D01*
Y80560D01*
X20748Y31299D02*
X41043Y51595D01*
Y79745D01*
X25000Y25492D02*
X43406Y43898D01*
Y78930D01*
X16555Y25492D02*
X25000D01*
X10748Y31299D02*
X16555Y25492D01*
X26870Y80205D02*
Y84637D01*
X22944Y76279D02*
X26870Y80205D01*
X11142Y51299D02*
X16220Y56378D01*
X22786D01*
X15728Y76279D02*
X22944D01*
X10748Y71299D02*
X15728Y76279D01*
X10748Y131299D02*
X15669Y126378D01*
X85827Y115706D02*
Y120571D01*
X63223Y93102D02*
X85827Y115706D01*
X95276Y115354D02*
Y120571D01*
X67118Y87196D02*
X95276Y115354D01*
X70079Y106888D02*
Y120571D01*
X66929Y106522D02*
Y120571D01*
X63779Y106156D02*
Y120571D01*
X58310Y95119D02*
X70079Y106888D01*
X57495Y97088D02*
X66929Y106522D01*
X56679Y99056D02*
X63779Y106156D01*
X41181Y16535D02*
X51181Y26535D01*
Y74803D01*
X55118Y78740D01*
X51181Y16535D02*
X62992Y28346D01*
Y78740D01*
X46555Y137795D02*
X84153D01*
X37972Y146378D02*
X46555Y137795D01*
X15669Y146378D02*
X37972D01*
X10748Y151299D02*
X15669Y146378D01*
X75385Y85228D02*
X106299Y116142D01*
Y129921D01*
X64854Y89165D02*
X92126Y116437D01*
Y120571D01*
X64039Y91133D02*
X88976Y116071D01*
Y120571D01*
D20*
X27362Y92421D02*
Y92618D01*
X39173Y104429D01*
X35433Y108169D02*
X39173Y104429D01*
X35433Y108169D02*
Y110728D01*
X35728Y127657D02*
X44685Y118701D01*
X52658D01*
X56890Y114469D01*
Y106595D02*
Y114469D01*
X54724Y104429D02*
X56890Y106595D01*
X39173Y104429D02*
X54724D01*
X84252Y58661D02*
Y66929D01*
X68898Y59055D02*
X83858D01*
X84252Y58661D01*
Y66929D02*
X116142Y98819D01*
Y126378D01*
X35728Y127657D02*
X79626D01*
X87402Y135433D01*
Y146063D01*
D21*
X20748Y151299D02*
Y161299D01*
Y151299D02*
X72953D01*
X101181Y179528D01*
D22*
X43681Y178465D02*
X63858D01*
D23*
X10748Y181299D02*
D03*
Y171299D02*
D03*
Y161299D02*
D03*
Y151299D02*
D03*
Y141299D02*
D03*
Y131299D02*
D03*
Y121299D02*
D03*
Y111299D02*
D03*
Y101299D02*
D03*
Y91299D02*
D03*
Y81299D02*
D03*
Y71299D02*
D03*
Y61299D02*
D03*
Y51299D02*
D03*
Y41299D02*
D03*
Y31299D02*
D03*
X20748Y41299D02*
D03*
Y51299D02*
D03*
Y61299D02*
D03*
Y71299D02*
D03*
Y81299D02*
D03*
Y91299D02*
D03*
Y101299D02*
D03*
Y111299D02*
D03*
Y121299D02*
D03*
Y131299D02*
D03*
Y141299D02*
D03*
Y151299D02*
D03*
Y161299D02*
D03*
Y171299D02*
D03*
Y181299D02*
D03*
X61181Y16535D02*
D03*
X51181D02*
D03*
D24*
X20748Y31299D02*
D03*
D25*
X41181Y16535D02*
D03*
D26*
X102441Y15590D02*
D03*
Y25591D02*
D03*
X112441Y15590D02*
D03*
Y25591D02*
D03*
X122441Y15590D02*
D03*
D27*
Y25591D02*
D03*
D28*
X149606Y39370D02*
D03*
Y173228D02*
D03*
D29*
X130610Y84252D02*
D03*
Y128543D02*
D03*
X56496Y29626D02*
D03*
X31102Y104626D02*
D03*
X26575Y97441D02*
D03*
X27362Y92421D02*
D03*
X32677Y142421D02*
D03*
X21457Y17028D02*
D03*
X35433Y110728D02*
D03*
X70079Y120571D02*
D03*
X66929Y120571D02*
D03*
X63779D02*
D03*
X92126D02*
D03*
X95276D02*
D03*
X94488Y94488D02*
D03*
X88976Y120571D02*
D03*
X85827D02*
D03*
X52658Y109449D02*
D03*
Y112598D02*
D03*
X35728Y127657D02*
D03*
X106299Y129921D02*
D03*
X62992Y78740D02*
D03*
X101181Y179528D02*
D03*
X87402Y146063D02*
D03*
X55118Y78740D02*
D03*
X116142Y126378D02*
D03*
X84252Y58661D02*
D03*
X68898Y59055D02*
D03*
X109252Y39370D02*
D03*
X82677Y78740D02*
D03*
X106398Y143110D02*
D03*
X84153Y137795D02*
D03*
X65354Y134350D02*
D03*
X43681Y178465D02*
D03*
X63858D02*
D03*
M02*
