G04 Layer_Color=16711935*
%FSLAX25Y25*%
%MOIN*%
G70*
G01*
G75*
%ADD43C,0.24422*%
%ADD44R,0.07493X0.07493*%
%ADD45C,0.07493*%
%ADD46R,0.07887X0.07887*%
%ADD47C,0.07887*%
%ADD48R,0.07887X0.07887*%
%ADD49C,0.05800*%
D43*
X173228Y173228D02*
D03*
X39370Y39370D02*
D03*
Y173228D02*
D03*
X173228Y39370D02*
D03*
D44*
X146063Y25591D02*
D03*
D45*
Y15590D02*
D03*
X136063Y25591D02*
D03*
Y15590D02*
D03*
X126063Y25591D02*
D03*
Y15590D02*
D03*
D46*
X64803Y16535D02*
D03*
D47*
X74803D02*
D03*
X84803D02*
D03*
X20748Y181299D02*
D03*
Y171299D02*
D03*
Y161299D02*
D03*
Y151299D02*
D03*
Y141299D02*
D03*
Y131299D02*
D03*
Y121299D02*
D03*
Y111299D02*
D03*
Y101299D02*
D03*
Y91299D02*
D03*
Y81299D02*
D03*
Y71299D02*
D03*
Y61299D02*
D03*
Y51299D02*
D03*
Y41299D02*
D03*
X10748Y31299D02*
D03*
Y41299D02*
D03*
Y51299D02*
D03*
Y61299D02*
D03*
Y71299D02*
D03*
Y81299D02*
D03*
Y91299D02*
D03*
Y101299D02*
D03*
Y111299D02*
D03*
Y121299D02*
D03*
Y131299D02*
D03*
Y141299D02*
D03*
Y151299D02*
D03*
Y161299D02*
D03*
Y171299D02*
D03*
Y181299D02*
D03*
D48*
X20748Y31299D02*
D03*
D49*
X35728Y115354D02*
D03*
X28248Y104232D02*
D03*
X32283Y95082D02*
D03*
X62500Y171161D02*
D03*
X130020Y143110D02*
D03*
X106299Y78740D02*
D03*
X132874Y39370D02*
D03*
X52165Y127953D02*
D03*
X92520Y59055D02*
D03*
X107874Y58661D02*
D03*
X41732Y110236D02*
D03*
X139764Y126378D02*
D03*
X52362Y105905D02*
D03*
X78740Y78740D02*
D03*
X111024Y146063D02*
D03*
X124803Y179528D02*
D03*
X78740Y103149D02*
D03*
X86614Y78740D02*
D03*
X114173Y110236D02*
D03*
X118110Y102362D02*
D03*
Y94488D02*
D03*
X114173Y118110D02*
D03*
X106299D02*
D03*
X98425D02*
D03*
X90551D02*
D03*
X82677D02*
D03*
X78740Y110236D02*
D03*
X129921Y129921D02*
D03*
M02*
