G04 Layer_Color=65535*
%FSLAX25Y25*%
%MOIN*%
G70*
G01*
G75*
%ADD29C,0.01575*%
%ADD30C,0.00984*%
%ADD31C,0.02362*%
%ADD32C,0.00787*%
%ADD33C,0.01000*%
D29*
X68898Y161024D02*
G03*
X68898Y161024I-787J0D01*
G01*
D30*
X64449Y151969D02*
G03*
X64449Y151969I-492J0D01*
G01*
X126083Y148327D02*
G03*
X126083Y148327I-492J0D01*
G01*
X129035Y71555D02*
G03*
X129035Y71555I-492J0D01*
G01*
D31*
X120669Y77362D02*
G03*
X120669Y77362I-1181J0D01*
G01*
D32*
X157087Y108366D02*
Y114272D01*
X167323Y92618D02*
Y116634D01*
X157087Y108366D02*
X178347D01*
X157087Y100394D02*
X178347D01*
X157087Y92618D02*
Y100394D01*
Y92618D02*
Y116634D01*
X178347D01*
Y92618D02*
Y116634D01*
X157087Y92618D02*
X178347D01*
X109843Y29331D02*
Y29724D01*
X106693Y29331D02*
Y29724D01*
X124803Y45079D02*
Y45472D01*
X121653Y45079D02*
Y45472D01*
X87795Y45079D02*
Y45472D01*
X84646Y45079D02*
Y45472D01*
X143504Y172441D02*
X147835D01*
X143504Y166142D02*
X147835D01*
X143504Y156693D02*
X147835D01*
X143504Y150394D02*
X147835D01*
X139370Y115551D02*
Y115945D01*
X136221Y115551D02*
Y115945D01*
X99803Y139370D02*
X100197D01*
X99803Y136221D02*
X100197D01*
X57480Y118701D02*
Y119095D01*
X60630Y118701D02*
Y119095D01*
X57480Y87205D02*
Y87598D01*
X60630Y87205D02*
Y87598D01*
X84055Y57480D02*
X84449D01*
X84055Y60630D02*
X84449D01*
X115551Y60630D02*
X115945D01*
X115551Y57480D02*
X115945D01*
X181697Y69653D02*
Y73654D01*
X175000Y73228D02*
X175394D01*
X175000Y70079D02*
X175394D01*
X181697Y77528D02*
Y81528D01*
X175000Y81102D02*
X175394D01*
X175000Y77953D02*
X175394D01*
X181697Y85402D02*
Y89402D01*
X175000Y88976D02*
X175394D01*
X175000Y85827D02*
X175394D01*
X159252Y70079D02*
X159646D01*
X159252Y73228D02*
X159646D01*
X159252Y77953D02*
X159646D01*
X159252Y81102D02*
X159646D01*
X159252Y85827D02*
X159646D01*
X159252Y88976D02*
X159646D01*
X99606Y29331D02*
Y29724D01*
X102756Y29331D02*
Y29724D01*
X84646Y157874D02*
Y164961D01*
X64961Y157874D02*
Y164961D01*
X84646D01*
X64961Y157874D02*
X84646D01*
X119291Y148228D02*
Y174606D01*
X109055Y148228D02*
Y174606D01*
Y148228D02*
X119291D01*
X109055Y174606D02*
X119291D01*
X90827Y10630D02*
Y22441D01*
X62047Y10630D02*
X90827D01*
X58898Y13780D02*
X62047Y10630D01*
X58898Y13780D02*
Y22441D01*
X90827D01*
X123425Y73425D02*
Y123425D01*
X73425Y73425D02*
Y123425D01*
Y73425D02*
X123425D01*
X73425Y123425D02*
X123425D01*
X115616Y31331D02*
X114960Y31987D01*
X113648D01*
X112992Y31331D01*
Y28707D01*
X113648Y28051D01*
X114960D01*
X115616Y28707D01*
X116928Y28051D02*
X118240D01*
X117584D01*
Y31987D01*
X116928Y31331D01*
X130577Y46587D02*
X129921Y47243D01*
X128609D01*
X127953Y46587D01*
Y43963D01*
X128609Y43307D01*
X129921D01*
X130577Y43963D01*
X134512Y43307D02*
X131888D01*
X134512Y45931D01*
Y46587D01*
X133856Y47243D01*
X132545D01*
X131888Y46587D01*
X77821Y46685D02*
X77165Y47341D01*
X75853D01*
X75197Y46685D01*
Y44061D01*
X75853Y43406D01*
X77165D01*
X77821Y44061D01*
X79133Y46685D02*
X79789Y47341D01*
X81100D01*
X81756Y46685D01*
Y46029D01*
X81100Y45373D01*
X80445D01*
X81100D01*
X81756Y44717D01*
Y44061D01*
X81100Y43406D01*
X79789D01*
X79133Y44061D01*
X145143Y179362D02*
X144488Y180018D01*
X143176D01*
X142520Y179362D01*
Y176739D01*
X143176Y176083D01*
X144488D01*
X145143Y176739D01*
X148423Y176083D02*
Y180018D01*
X146455Y178050D01*
X149079D01*
X145340Y146390D02*
X144684Y147046D01*
X143372D01*
X142717Y146390D01*
Y143766D01*
X143372Y143110D01*
X144684D01*
X145340Y143766D01*
X149276Y147046D02*
X146652D01*
Y145078D01*
X147964Y145734D01*
X148620D01*
X149276Y145078D01*
Y143766D01*
X148620Y143110D01*
X147308D01*
X146652Y143766D01*
X144356Y117355D02*
X143700Y118010D01*
X142388D01*
X141732Y117355D01*
Y114731D01*
X142388Y114075D01*
X143700D01*
X144356Y114731D01*
X148292Y118010D02*
X146980Y117355D01*
X145668Y116043D01*
Y114731D01*
X146324Y114075D01*
X147636D01*
X148292Y114731D01*
Y115387D01*
X147636Y116043D01*
X145668D01*
X88746Y139402D02*
X88090Y140058D01*
X86778D01*
X86122Y139402D01*
Y136778D01*
X86778Y136122D01*
X88090D01*
X88746Y136778D01*
X90058Y140058D02*
X92682D01*
Y139402D01*
X90058Y136778D01*
Y136122D01*
X50655Y120603D02*
X49999Y121259D01*
X48687D01*
X48031Y120603D01*
Y117979D01*
X48687Y117323D01*
X49999D01*
X50655Y117979D01*
X51967Y120603D02*
X52623Y121259D01*
X53935D01*
X54591Y120603D01*
Y119947D01*
X53935Y119291D01*
X54591Y118635D01*
Y117979D01*
X53935Y117323D01*
X52623D01*
X51967Y117979D01*
Y118635D01*
X52623Y119291D01*
X51967Y119947D01*
Y120603D01*
X52623Y119291D02*
X53935D01*
X50655Y89107D02*
X49999Y89763D01*
X48687D01*
X48031Y89107D01*
Y86483D01*
X48687Y85827D01*
X49999D01*
X50655Y86483D01*
X51967D02*
X52623Y85827D01*
X53935D01*
X54591Y86483D01*
Y89107D01*
X53935Y89763D01*
X52623D01*
X51967Y89107D01*
Y88451D01*
X52623Y87795D01*
X54591D01*
X69947Y60170D02*
X69291Y60826D01*
X67979D01*
X67323Y60170D01*
Y57546D01*
X67979Y56890D01*
X69291D01*
X69947Y57546D01*
X71259Y56890D02*
X72571D01*
X71914D01*
Y60826D01*
X71259Y60170D01*
X74538D02*
X75194Y60826D01*
X76506D01*
X77162Y60170D01*
Y57546D01*
X76506Y56890D01*
X75194D01*
X74538Y57546D01*
Y60170D01*
X126049Y60366D02*
X125393Y61022D01*
X124081D01*
X123425Y60366D01*
Y57743D01*
X124081Y57087D01*
X125393D01*
X126049Y57743D01*
X127361Y57087D02*
X128673D01*
X128017D01*
Y61022D01*
X127361Y60366D01*
X130641Y57087D02*
X131953D01*
X131297D01*
Y61022D01*
X130641Y60366D01*
X169685Y98522D02*
Y94587D01*
X171653D01*
X172309Y95243D01*
Y97866D01*
X171653Y98522D01*
X169685D01*
X173621Y94587D02*
X174933D01*
X174277D01*
Y98522D01*
X173621Y97866D01*
X169685Y106396D02*
Y102461D01*
X171653D01*
X172309Y103117D01*
Y105740D01*
X171653Y106396D01*
X169685D01*
X176245Y102461D02*
X173621D01*
X176245Y105084D01*
Y105740D01*
X175589Y106396D01*
X174277D01*
X173621Y105740D01*
X169685Y114664D02*
Y110728D01*
X171653D01*
X172309Y111384D01*
Y114008D01*
X171653Y114664D01*
X169685D01*
X173621Y114008D02*
X174277Y114664D01*
X175589D01*
X176245Y114008D01*
Y113352D01*
X175589Y112696D01*
X174933D01*
X175589D01*
X176245Y112040D01*
Y111384D01*
X175589Y110728D01*
X174277D01*
X173621Y111384D01*
X54494Y18798D02*
X53182D01*
X53838D01*
Y15518D01*
X53182Y14862D01*
X52526D01*
X51870Y15518D01*
X55806Y14862D02*
X57118D01*
X56462D01*
Y18798D01*
X55806Y18142D01*
X14435Y22046D02*
X13123D01*
X13779D01*
Y18766D01*
X13123Y18110D01*
X12467D01*
X11811Y18766D01*
X18371Y18110D02*
X15747D01*
X18371Y20734D01*
Y21390D01*
X17715Y22046D01*
X16403D01*
X15747Y21390D01*
X114336Y17223D02*
X113024D01*
X113681D01*
Y13943D01*
X113024Y13287D01*
X112369D01*
X111713Y13943D01*
X115648Y16567D02*
X116304Y17223D01*
X117616D01*
X118272Y16567D01*
Y15911D01*
X117616Y15255D01*
X116960D01*
X117616D01*
X118272Y14599D01*
Y13943D01*
X117616Y13287D01*
X116304D01*
X115648Y13943D01*
X159055Y94587D02*
Y98522D01*
X161023D01*
X161679Y97866D01*
Y96554D01*
X161023Y95898D01*
X159055D01*
X160367D02*
X161679Y94587D01*
X162991D02*
X164303D01*
X163647D01*
Y98522D01*
X162991Y97866D01*
X159055Y102461D02*
Y106396D01*
X161023D01*
X161679Y105740D01*
Y104429D01*
X161023Y103772D01*
X159055D01*
X160367D02*
X161679Y102461D01*
X165615D02*
X162991D01*
X165615Y105084D01*
Y105740D01*
X164959Y106396D01*
X163647D01*
X162991Y105740D01*
X159055Y110728D02*
Y114664D01*
X161023D01*
X161679Y114008D01*
Y112696D01*
X161023Y112040D01*
X159055D01*
X160367D02*
X161679Y110728D01*
X162991Y114008D02*
X163647Y114664D01*
X164959D01*
X165615Y114008D01*
Y113352D01*
X164959Y112696D01*
X164303D01*
X164959D01*
X165615Y112040D01*
Y111384D01*
X164959Y110728D01*
X163647D01*
X162991Y111384D01*
X90256Y27756D02*
Y31692D01*
X92224D01*
X92880Y31036D01*
Y29724D01*
X92224Y29068D01*
X90256D01*
X91568D02*
X92880Y27756D01*
X96159D02*
Y31692D01*
X94192Y29724D01*
X96816D01*
X55512Y163385D02*
Y160105D01*
X56168Y159449D01*
X57480D01*
X58136Y160105D01*
Y163385D01*
X62071Y159449D02*
X59448D01*
X62071Y162073D01*
Y162729D01*
X61415Y163385D01*
X60103D01*
X59448Y162729D01*
X111024Y180904D02*
Y177624D01*
X111680Y176969D01*
X112991D01*
X113647Y177624D01*
Y180904D01*
X114959Y180248D02*
X115615Y180904D01*
X116927D01*
X117583Y180248D01*
Y179592D01*
X116927Y178936D01*
X116271D01*
X116927D01*
X117583Y178280D01*
Y177624D01*
X116927Y176969D01*
X115615D01*
X114959Y177624D01*
X97736Y56889D02*
X100360Y52953D01*
Y56889D02*
X97736Y52953D01*
X101672D02*
X102984D01*
X102328D01*
Y56889D01*
X101672Y56233D01*
X66043Y130510D02*
Y127231D01*
X66699Y126575D01*
X68011D01*
X68667Y127231D01*
Y130510D01*
X69979Y126575D02*
X71291D01*
X70635D01*
Y130510D01*
X69979Y129855D01*
X59252Y5217D02*
Y9152D01*
X61220D01*
X61876Y8496D01*
Y7184D01*
X61220Y6528D01*
X59252D01*
X60564D02*
X61876Y5217D01*
X63188Y9152D02*
X65812Y5217D01*
Y9152D02*
X63188Y5217D01*
X71653Y9152D02*
X74277D01*
X72965D01*
Y5217D01*
X75589Y9152D02*
X78213Y5217D01*
Y9152D02*
X75589Y5217D01*
X85891Y8496D02*
X85236Y9152D01*
X83924D01*
X83268Y8496D01*
Y5872D01*
X83924Y5217D01*
X85236D01*
X85891Y5872D01*
Y7184D01*
X84580D01*
X87204Y5217D02*
Y9152D01*
X89827Y5217D01*
Y9152D01*
X91139D02*
Y5217D01*
X93107D01*
X93763Y5872D01*
Y8496D01*
X93107Y9152D01*
X91139D01*
D33*
X120472Y9843D02*
X151969D01*
X120472D02*
Y31496D01*
X150787D01*
X151969D01*
Y9843D02*
Y31496D01*
X5512Y29055D02*
Y186299D01*
X2756Y26299D02*
X5512Y29055D01*
X-2362Y26299D02*
X2756D01*
X-2362D02*
Y186299D01*
X5512D01*
X138189Y33957D02*
Y39860D01*
X141141D01*
X142125Y38876D01*
Y36909D01*
X141141Y35925D01*
X138189D01*
X144093Y39860D02*
Y33957D01*
X147044D01*
X148028Y34941D01*
Y38876D01*
X147044Y39860D01*
X144093D01*
X149996D02*
X151964D01*
X150980D01*
Y33957D01*
X149996D01*
X151964D01*
X59646Y30411D02*
Y25492D01*
X60630Y24508D01*
X62598D01*
X63581Y25492D01*
Y30411D01*
X65549Y24508D02*
Y28444D01*
X67517Y30411D01*
X69485Y28444D01*
Y24508D01*
Y27460D01*
X65549D01*
X71453Y24508D02*
Y30411D01*
X74405D01*
X75389Y29427D01*
Y27460D01*
X74405Y26476D01*
X71453D01*
X73421D02*
X75389Y24508D01*
X77356Y30411D02*
X81292D01*
X79324D01*
Y24508D01*
M02*
