G04 Layer_Color=32896*
%FSLAX25Y25*%
%MOIN*%
G70*
G01*
G75*
G36*
X89017Y174052D02*
X89127Y174023D01*
X89221Y173988D01*
X89308Y173941D01*
X89378Y173895D01*
X89430Y173860D01*
X89465Y173830D01*
X89471Y173825D01*
X89477Y173819D01*
X89506Y173900D01*
X89553Y173959D01*
X89605Y174000D01*
X89658Y174029D01*
X89705Y174046D01*
X89745Y174052D01*
X89775Y174058D01*
X89786D01*
X89833Y174052D01*
X89874Y174046D01*
X89914Y174029D01*
X89943Y174011D01*
X89973Y173994D01*
X89990Y173982D01*
X90002Y173970D01*
X90008Y173965D01*
X90037Y173930D01*
X90060Y173889D01*
X90072Y173854D01*
X90083Y173819D01*
X90089Y173790D01*
X90095Y173766D01*
Y173749D01*
Y173743D01*
Y170781D01*
X90089Y170735D01*
X90078Y170694D01*
X90066Y170653D01*
X90048Y170624D01*
X90031Y170595D01*
X90013Y170577D01*
X90008Y170566D01*
X90002Y170560D01*
X89967Y170531D01*
X89926Y170507D01*
X89891Y170496D01*
X89856Y170484D01*
X89827Y170478D01*
X89804Y170472D01*
X89780D01*
X89734Y170478D01*
X89693Y170484D01*
X89658Y170502D01*
X89623Y170519D01*
X89600Y170531D01*
X89582Y170548D01*
X89570Y170554D01*
X89565Y170560D01*
X89535Y170595D01*
X89512Y170636D01*
X89495Y170671D01*
X89483Y170706D01*
X89477Y170735D01*
X89471Y170758D01*
Y170776D01*
Y170781D01*
Y173003D01*
X89028Y173382D01*
X88982Y173411D01*
X88947Y173428D01*
X88917Y173434D01*
X88906D01*
X88859Y173428D01*
X88824Y173411D01*
X88801Y173382D01*
X88783Y173353D01*
X88772Y173323D01*
X88766Y173294D01*
Y173277D01*
Y173271D01*
Y170787D01*
X88760Y170741D01*
X88754Y170700D01*
X88737Y170659D01*
X88719Y170630D01*
X88708Y170601D01*
X88690Y170583D01*
X88684Y170572D01*
X88678Y170566D01*
X88643Y170537D01*
X88603Y170513D01*
X88568Y170502D01*
X88533Y170490D01*
X88503Y170484D01*
X88480Y170478D01*
X88457D01*
X88410Y170484D01*
X88369Y170490D01*
X88329Y170507D01*
X88300Y170525D01*
X88270Y170537D01*
X88253Y170554D01*
X88241Y170560D01*
X88235Y170566D01*
X88206Y170601D01*
X88183Y170636D01*
X88165Y170671D01*
X88154Y170706D01*
X88148Y170735D01*
X88142Y170758D01*
Y170776D01*
Y170781D01*
Y173061D01*
X87775Y173376D01*
X87722Y173411D01*
X87682Y173428D01*
X87658Y173434D01*
X87647D01*
X87606Y173428D01*
X87577Y173405D01*
X87553Y173370D01*
X87536Y173335D01*
X87530Y173294D01*
X87524Y173265D01*
X87518Y173242D01*
Y173230D01*
X87442Y170781D01*
X87437Y170735D01*
X87425Y170694D01*
X87413Y170653D01*
X87396Y170624D01*
X87378Y170595D01*
X87361Y170577D01*
X87355Y170566D01*
X87349Y170560D01*
X87314Y170531D01*
X87273Y170507D01*
X87238Y170496D01*
X87203Y170484D01*
X87174Y170478D01*
X87151Y170472D01*
X87128D01*
X87081Y170478D01*
X87040Y170484D01*
X86999Y170502D01*
X86970Y170519D01*
X86941Y170531D01*
X86924Y170548D01*
X86912Y170554D01*
X86906Y170560D01*
X86877Y170595D01*
X86854Y170636D01*
X86836Y170671D01*
X86825Y170706D01*
X86819Y170735D01*
X86813Y170758D01*
Y170776D01*
Y170781D01*
X86900Y173329D01*
X86918Y173446D01*
X86941Y173545D01*
X86982Y173638D01*
X87023Y173714D01*
X87063Y173772D01*
X87098Y173819D01*
X87122Y173842D01*
X87134Y173854D01*
X87215Y173924D01*
X87303Y173976D01*
X87384Y174011D01*
X87460Y174040D01*
X87530Y174052D01*
X87588Y174058D01*
X87623Y174064D01*
X87635D01*
X87699Y174058D01*
X87763Y174052D01*
X87886Y174011D01*
X87996Y173965D01*
X88095Y173906D01*
X88177Y173842D01*
X88235Y173795D01*
X88259Y173772D01*
X88276Y173755D01*
X88282Y173749D01*
X88288Y173743D01*
X88335Y173801D01*
X88381Y173848D01*
X88434Y173895D01*
X88486Y173930D01*
X88585Y173988D01*
X88684Y174023D01*
X88772Y174046D01*
X88836Y174058D01*
X88865Y174064D01*
X88900D01*
X89017Y174052D01*
D02*
G37*
G36*
X88976Y166172D02*
X89081Y166149D01*
X89180Y166120D01*
X89261Y166079D01*
X89331Y166038D01*
X89384Y166009D01*
X89419Y165986D01*
X89425Y165974D01*
X89430D01*
X89687Y165770D01*
X89740Y165723D01*
X89786Y165671D01*
X89827Y165618D01*
X89862Y165566D01*
X89891Y165513D01*
X89909Y165478D01*
X89920Y165455D01*
X89926Y165444D01*
X89955Y165374D01*
X89978Y165309D01*
X89996Y165251D01*
X90008Y165204D01*
X90013Y165170D01*
X90019Y165140D01*
Y165123D01*
Y165117D01*
Y163683D01*
X90013Y163625D01*
X90008Y163560D01*
X89996Y163502D01*
X89978Y163450D01*
X89961Y163409D01*
X89949Y163368D01*
X89943Y163345D01*
X89938Y163339D01*
X89903Y163275D01*
X89868Y163216D01*
X89827Y163170D01*
X89792Y163129D01*
X89763Y163094D01*
X89740Y163071D01*
X89722Y163059D01*
X89716Y163053D01*
X89442Y162808D01*
X89407Y162779D01*
X89360Y162756D01*
X89273Y162709D01*
X89238Y162692D01*
X89203Y162674D01*
X89180Y162668D01*
X89174Y162663D01*
X89110Y162639D01*
X89046Y162628D01*
X88987Y162616D01*
X88935Y162604D01*
X88888D01*
X88859Y162598D01*
X87186D01*
X87139Y162604D01*
X87098Y162610D01*
X87034Y162645D01*
X87005Y162657D01*
X86988Y162674D01*
X86976Y162680D01*
X86970Y162686D01*
X86935Y162721D01*
X86912Y162762D01*
X86894Y162797D01*
X86883Y162832D01*
X86877Y162861D01*
X86871Y162884D01*
Y162902D01*
Y162907D01*
X86877Y162954D01*
X86883Y162995D01*
X86900Y163036D01*
X86918Y163065D01*
X86935Y163094D01*
X86947Y163111D01*
X86959Y163123D01*
X86964Y163129D01*
X86999Y163158D01*
X87040Y163181D01*
X87075Y163199D01*
X87110Y163211D01*
X87139Y163216D01*
X87163Y163222D01*
X88789D01*
X88842Y163228D01*
X88888Y163240D01*
X88941Y163257D01*
X88982Y163280D01*
X89022Y163298D01*
X89052Y163315D01*
X89069Y163327D01*
X89075Y163333D01*
X89256Y163490D01*
X89302Y163531D01*
X89331Y163578D01*
X89355Y163625D01*
X89372Y163665D01*
X89384Y163700D01*
X89390Y163735D01*
Y163753D01*
Y163759D01*
Y163945D01*
X87186D01*
X87139Y163951D01*
X87098Y163957D01*
X87058Y163974D01*
X87028Y163992D01*
X86999Y164004D01*
X86982Y164021D01*
X86970Y164027D01*
X86964Y164033D01*
X86935Y164068D01*
X86912Y164108D01*
X86894Y164143D01*
X86883Y164178D01*
X86877Y164207D01*
X86871Y164231D01*
Y164248D01*
Y164254D01*
Y165006D01*
Y165088D01*
X86883Y165164D01*
X86912Y165304D01*
X86953Y165420D01*
X86999Y165513D01*
X87046Y165589D01*
X87087Y165642D01*
X87116Y165671D01*
X87122Y165682D01*
X87128D01*
X87361Y165904D01*
X87413Y165951D01*
X87472Y165997D01*
X87582Y166067D01*
X87687Y166114D01*
X87781Y166149D01*
X87862Y166172D01*
X87926Y166178D01*
X87950Y166184D01*
X88859D01*
X88976Y166172D01*
D02*
G37*
G36*
X80569Y174052D02*
X80610Y174040D01*
X80651Y174029D01*
X80680Y174011D01*
X80709Y173988D01*
X80726Y173976D01*
X80738Y173965D01*
X80744Y173959D01*
X80773Y173924D01*
X80796Y173883D01*
X80808Y173848D01*
X80820Y173813D01*
X80825Y173784D01*
X80831Y173761D01*
Y173743D01*
Y173737D01*
Y170781D01*
X80825Y170735D01*
X80820Y170694D01*
X80802Y170653D01*
X80785Y170624D01*
X80773Y170595D01*
X80756Y170577D01*
X80750Y170566D01*
X80744Y170560D01*
X80709Y170531D01*
X80668Y170507D01*
X80633Y170496D01*
X80598Y170484D01*
X80569Y170478D01*
X80546Y170472D01*
X80522D01*
X80476Y170478D01*
X80435Y170484D01*
X80394Y170502D01*
X80365Y170519D01*
X80336Y170531D01*
X80318Y170548D01*
X80307Y170554D01*
X80301Y170560D01*
X80272Y170595D01*
X80248Y170636D01*
X80231Y170671D01*
X80219Y170706D01*
X80213Y170735D01*
X80207Y170758D01*
Y170776D01*
Y170781D01*
Y172775D01*
X79356Y173323D01*
X79298Y173358D01*
X79240Y173387D01*
X79187Y173405D01*
X79141Y173422D01*
X79106Y173428D01*
X79076Y173434D01*
X78744D01*
X78686Y173428D01*
X78633Y173422D01*
X78587Y173405D01*
X78552Y173382D01*
X78488Y173329D01*
X78447Y173271D01*
X78424Y173213D01*
X78406Y173160D01*
X78400Y173119D01*
Y173113D01*
Y173108D01*
X78307Y170781D01*
X78301Y170729D01*
X78289Y170682D01*
X78278Y170647D01*
X78260Y170612D01*
X78243Y170589D01*
X78225Y170572D01*
X78219Y170560D01*
X78214Y170554D01*
X78179Y170525D01*
X78138Y170507D01*
X78068Y170484D01*
X78039Y170478D01*
X78015Y170472D01*
X77998D01*
X77951Y170478D01*
X77910Y170484D01*
X77870Y170502D01*
X77841Y170519D01*
X77811Y170531D01*
X77794Y170548D01*
X77782Y170554D01*
X77776Y170560D01*
X77747Y170595D01*
X77724Y170636D01*
X77706Y170671D01*
X77695Y170706D01*
X77689Y170735D01*
X77683Y170758D01*
Y170776D01*
Y170781D01*
X77771Y173143D01*
X77776Y173213D01*
X77788Y173283D01*
X77823Y173405D01*
X77870Y173516D01*
X77922Y173609D01*
X77974Y173685D01*
X78021Y173743D01*
X78050Y173778D01*
X78056Y173790D01*
X78062D01*
X78114Y173836D01*
X78167Y173877D01*
X78278Y173947D01*
X78383Y173994D01*
X78482Y174023D01*
X78569Y174046D01*
X78610Y174052D01*
X78639D01*
X78668Y174058D01*
X78995D01*
X79129Y174052D01*
X79246Y174029D01*
X79356Y174000D01*
X79455Y173965D01*
X79531Y173930D01*
X79589Y173900D01*
X79613Y173889D01*
X79630Y173877D01*
X79636Y173871D01*
X79642D01*
X80207Y173533D01*
Y173737D01*
X80213Y173784D01*
X80219Y173825D01*
X80237Y173865D01*
X80254Y173895D01*
X80272Y173924D01*
X80283Y173941D01*
X80295Y173953D01*
X80301Y173959D01*
X80336Y173994D01*
X80376Y174017D01*
X80411Y174035D01*
X80446Y174046D01*
X80476Y174052D01*
X80499Y174058D01*
X80522D01*
X80569Y174052D01*
D02*
G37*
G36*
X103539Y175405D02*
X103580Y175399D01*
X103621Y175381D01*
X103650Y175364D01*
X103679Y175346D01*
X103697Y175335D01*
X103708Y175323D01*
X103714Y175317D01*
X103743Y175282D01*
X103767Y175241D01*
X103778Y175206D01*
X103790Y175171D01*
X103796Y175136D01*
X103801Y175113D01*
Y175096D01*
Y175090D01*
Y170781D01*
X103796Y170735D01*
X103790Y170694D01*
X103772Y170653D01*
X103755Y170624D01*
X103743Y170595D01*
X103726Y170577D01*
X103720Y170566D01*
X103714Y170560D01*
X103679Y170531D01*
X103638Y170507D01*
X103603Y170496D01*
X103568Y170484D01*
X103539Y170478D01*
X103516Y170472D01*
X103492D01*
X103446Y170478D01*
X103405Y170484D01*
X103364Y170502D01*
X103335Y170519D01*
X103306Y170531D01*
X103288Y170548D01*
X103277Y170554D01*
X103271Y170560D01*
X103242Y170595D01*
X103218Y170636D01*
X103201Y170671D01*
X103189Y170706D01*
X103183Y170735D01*
X103178Y170758D01*
Y170776D01*
Y170781D01*
Y171726D01*
X102851Y172000D01*
X101190Y170554D01*
X101149Y170525D01*
X101114Y170507D01*
X101038Y170484D01*
X101003Y170478D01*
X100980Y170472D01*
X100956D01*
X100910Y170478D01*
X100869Y170490D01*
X100834Y170502D01*
X100799Y170519D01*
X100776Y170537D01*
X100758Y170554D01*
X100747Y170560D01*
X100741Y170566D01*
X100712Y170607D01*
X100688Y170642D01*
X100671Y170682D01*
X100659Y170712D01*
X100653Y170741D01*
X100647Y170764D01*
Y170781D01*
Y170787D01*
X100653Y170834D01*
X100665Y170875D01*
X100677Y170910D01*
X100694Y170939D01*
X100717Y170962D01*
X100729Y170980D01*
X100741Y170985D01*
X100747Y170991D01*
X102367Y172408D01*
X101050Y173516D01*
X101015Y173551D01*
X100991Y173586D01*
X100974Y173621D01*
X100962Y173656D01*
X100956Y173691D01*
X100951Y173714D01*
Y173731D01*
Y173737D01*
X100956Y173784D01*
X100962Y173825D01*
X100980Y173865D01*
X100997Y173895D01*
X101015Y173924D01*
X101026Y173941D01*
X101038Y173953D01*
X101044Y173959D01*
X101079Y173994D01*
X101114Y174017D01*
X101155Y174035D01*
X101190Y174046D01*
X101219Y174052D01*
X101242Y174058D01*
X101265D01*
X101312Y174052D01*
X101353Y174046D01*
X101394Y174029D01*
X101429Y174011D01*
X101458Y173994D01*
X101481Y173982D01*
X101493Y173970D01*
X101499Y173965D01*
X103178Y172536D01*
Y175090D01*
X103183Y175136D01*
X103189Y175183D01*
X103207Y175218D01*
X103224Y175253D01*
X103242Y175282D01*
X103253Y175300D01*
X103265Y175311D01*
X103271Y175317D01*
X103306Y175346D01*
X103347Y175370D01*
X103382Y175387D01*
X103417Y175399D01*
X103446Y175405D01*
X103469Y175410D01*
X103492D01*
X103539Y175405D01*
D02*
G37*
G36*
X112727Y174052D02*
X112768Y174040D01*
X112809Y174029D01*
X112838Y174011D01*
X112867Y173988D01*
X112885Y173976D01*
X112896Y173965D01*
X112902Y173959D01*
X112931Y173924D01*
X112954Y173883D01*
X112966Y173848D01*
X112978Y173813D01*
X112984Y173784D01*
X112989Y173761D01*
Y173743D01*
Y173737D01*
Y170781D01*
X112984Y170735D01*
X112978Y170694D01*
X112960Y170653D01*
X112943Y170624D01*
X112931Y170595D01*
X112914Y170577D01*
X112908Y170566D01*
X112902Y170560D01*
X112867Y170531D01*
X112826Y170507D01*
X112791Y170496D01*
X112756Y170484D01*
X112727Y170478D01*
X112704Y170472D01*
X112680D01*
X112634Y170478D01*
X112593Y170484D01*
X112552Y170502D01*
X112523Y170519D01*
X112494Y170531D01*
X112477Y170548D01*
X112465Y170554D01*
X112459Y170560D01*
X112430Y170595D01*
X112407Y170636D01*
X112389Y170671D01*
X112377Y170706D01*
X112372Y170735D01*
X112366Y170758D01*
Y170776D01*
Y170781D01*
Y172525D01*
X111480Y173288D01*
X111421Y173335D01*
X111369Y173370D01*
X111316Y173393D01*
X111275Y173411D01*
X111240Y173422D01*
X111211Y173428D01*
X110786D01*
X110739Y173422D01*
X110698Y173417D01*
X110658Y173399D01*
X110628Y173382D01*
X110599Y173364D01*
X110582Y173353D01*
X110570Y173341D01*
X110564Y173335D01*
X110535Y173300D01*
X110512Y173259D01*
X110494Y173224D01*
X110483Y173189D01*
X110477Y173160D01*
X110471Y173137D01*
Y173119D01*
Y173113D01*
Y172939D01*
X110465Y172892D01*
X110459Y172851D01*
X110442Y172810D01*
X110424Y172781D01*
X110413Y172752D01*
X110395Y172734D01*
X110389Y172723D01*
X110383Y172717D01*
X110348Y172688D01*
X110308Y172664D01*
X110273Y172653D01*
X110238Y172641D01*
X110209Y172635D01*
X110185Y172629D01*
X110162D01*
X110115Y172635D01*
X110074Y172641D01*
X110034Y172659D01*
X110005Y172676D01*
X109975Y172688D01*
X109958Y172705D01*
X109946Y172711D01*
X109940Y172717D01*
X109911Y172752D01*
X109888Y172793D01*
X109871Y172828D01*
X109859Y172869D01*
X109853Y172898D01*
X109847Y172921D01*
Y172939D01*
Y172944D01*
Y173113D01*
X109853Y173183D01*
X109859Y173253D01*
X109888Y173382D01*
X109935Y173492D01*
X109987Y173586D01*
X110040Y173667D01*
X110080Y173726D01*
X110104Y173743D01*
X110115Y173761D01*
X110121Y173766D01*
X110127Y173772D01*
X110179Y173819D01*
X110232Y173865D01*
X110343Y173935D01*
X110453Y173982D01*
X110558Y174017D01*
X110652Y174040D01*
X110687Y174046D01*
X110722D01*
X110751Y174052D01*
X111299D01*
X111351Y174040D01*
X111462Y174011D01*
X111567Y173965D01*
X111660Y173918D01*
X111742Y173871D01*
X111806Y173825D01*
X111829Y173807D01*
X111847Y173795D01*
X111853Y173790D01*
X111858Y173784D01*
X112366Y173353D01*
Y173737D01*
X112372Y173784D01*
X112377Y173830D01*
X112395Y173865D01*
X112412Y173900D01*
X112430Y173930D01*
X112442Y173947D01*
X112453Y173959D01*
X112459Y173965D01*
X112494Y173994D01*
X112535Y174017D01*
X112570Y174035D01*
X112605Y174046D01*
X112634Y174052D01*
X112657Y174058D01*
X112680D01*
X112727Y174052D01*
D02*
G37*
G36*
X102682Y166178D02*
X102764Y166166D01*
X102840Y166149D01*
X102915Y166126D01*
X103055Y166067D01*
X103178Y166003D01*
X103230Y165968D01*
X103277Y165933D01*
X103323Y165904D01*
X103358Y165875D01*
X103382Y165852D01*
X103405Y165834D01*
X103417Y165822D01*
X103422Y165817D01*
X103487Y165747D01*
X103545Y165682D01*
X103597Y165612D01*
X103644Y165543D01*
X103679Y165478D01*
X103708Y165414D01*
X103755Y165298D01*
X103784Y165193D01*
X103790Y165152D01*
X103796Y165117D01*
X103801Y165088D01*
Y165065D01*
Y165053D01*
Y165047D01*
Y163735D01*
X103796Y163660D01*
X103784Y163584D01*
X103767Y163514D01*
X103743Y163444D01*
X103679Y163315D01*
X103609Y163199D01*
X103539Y163100D01*
X103504Y163065D01*
X103475Y163030D01*
X103452Y163001D01*
X103434Y162983D01*
X103422Y162972D01*
X103417Y162966D01*
X103341Y162902D01*
X103271Y162849D01*
X103195Y162797D01*
X103125Y162756D01*
X103055Y162721D01*
X102985Y162692D01*
X102863Y162651D01*
X102805Y162633D01*
X102758Y162622D01*
X102711Y162616D01*
X102670Y162610D01*
X102641Y162604D01*
X101866D01*
X101790Y162610D01*
X101708Y162622D01*
X101633Y162639D01*
X101563Y162663D01*
X101423Y162715D01*
X101300Y162785D01*
X101248Y162814D01*
X101195Y162849D01*
X101155Y162878D01*
X101120Y162907D01*
X101091Y162925D01*
X101067Y162942D01*
X101056Y162954D01*
X101050Y162960D01*
X100980Y163030D01*
X100921Y163094D01*
X100863Y163164D01*
X100822Y163234D01*
X100782Y163298D01*
X100752Y163362D01*
X100700Y163479D01*
X100677Y163584D01*
X100665Y163625D01*
X100659Y163665D01*
X100653Y163695D01*
Y163718D01*
Y163729D01*
Y163735D01*
Y165047D01*
X100659Y165129D01*
X100671Y165204D01*
X100688Y165280D01*
X100717Y165350D01*
X100776Y165484D01*
X100852Y165601D01*
X100886Y165653D01*
X100921Y165700D01*
X100956Y165741D01*
X100986Y165770D01*
X101015Y165799D01*
X101032Y165817D01*
X101044Y165828D01*
X101050Y165834D01*
X101126Y165898D01*
X101201Y165951D01*
X101271Y165997D01*
X101347Y166038D01*
X101417Y166073D01*
X101481Y166102D01*
X101603Y166143D01*
X101662Y166155D01*
X101714Y166166D01*
X101755Y166172D01*
X101796Y166178D01*
X101825Y166184D01*
X102601D01*
X102682Y166178D01*
D02*
G37*
G36*
X121058D02*
X121140Y166166D01*
X121216Y166149D01*
X121291Y166126D01*
X121431Y166067D01*
X121554Y166003D01*
X121606Y165968D01*
X121653Y165933D01*
X121700Y165904D01*
X121734Y165875D01*
X121758Y165852D01*
X121781Y165834D01*
X121793Y165822D01*
X121799Y165817D01*
X121863Y165747D01*
X121921Y165682D01*
X121974Y165612D01*
X122020Y165543D01*
X122055Y165478D01*
X122084Y165414D01*
X122131Y165298D01*
X122160Y165193D01*
X122166Y165152D01*
X122172Y165117D01*
X122178Y165088D01*
Y165065D01*
Y165053D01*
Y165047D01*
Y163735D01*
X122172Y163660D01*
X122160Y163584D01*
X122143Y163514D01*
X122119Y163444D01*
X122055Y163315D01*
X121985Y163199D01*
X121915Y163100D01*
X121880Y163065D01*
X121851Y163030D01*
X121828Y163001D01*
X121810Y162983D01*
X121799Y162972D01*
X121793Y162966D01*
X121717Y162902D01*
X121647Y162849D01*
X121571Y162797D01*
X121501Y162756D01*
X121431Y162721D01*
X121361Y162692D01*
X121239Y162651D01*
X121181Y162633D01*
X121134Y162622D01*
X121087Y162616D01*
X121047Y162610D01*
X121017Y162604D01*
X120242D01*
X120166Y162610D01*
X120085Y162622D01*
X120009Y162639D01*
X119939Y162663D01*
X119799Y162715D01*
X119676Y162785D01*
X119624Y162814D01*
X119572Y162849D01*
X119531Y162878D01*
X119496Y162907D01*
X119467Y162925D01*
X119443Y162942D01*
X119432Y162954D01*
X119426Y162960D01*
X119356Y163030D01*
X119298Y163094D01*
X119239Y163164D01*
X119199Y163234D01*
X119158Y163298D01*
X119129Y163362D01*
X119076Y163479D01*
X119053Y163584D01*
X119041Y163625D01*
X119035Y163665D01*
X119029Y163695D01*
Y163718D01*
Y163729D01*
Y163735D01*
Y165047D01*
X119035Y165129D01*
X119047Y165204D01*
X119064Y165280D01*
X119094Y165350D01*
X119152Y165484D01*
X119228Y165601D01*
X119263Y165653D01*
X119298Y165700D01*
X119333Y165741D01*
X119362Y165770D01*
X119391Y165799D01*
X119408Y165817D01*
X119420Y165828D01*
X119426Y165834D01*
X119502Y165898D01*
X119577Y165951D01*
X119647Y165997D01*
X119723Y166038D01*
X119793Y166073D01*
X119857Y166102D01*
X119980Y166143D01*
X120038Y166155D01*
X120090Y166166D01*
X120131Y166172D01*
X120172Y166178D01*
X120201Y166184D01*
X120977D01*
X121058Y166178D01*
D02*
G37*
G36*
X75118D02*
X75200Y166166D01*
X75275Y166149D01*
X75351Y166126D01*
X75491Y166067D01*
X75613Y166003D01*
X75666Y165968D01*
X75713Y165933D01*
X75759Y165904D01*
X75794Y165875D01*
X75817Y165852D01*
X75841Y165834D01*
X75852Y165822D01*
X75858Y165817D01*
X75922Y165747D01*
X75981Y165682D01*
X76033Y165612D01*
X76080Y165543D01*
X76115Y165478D01*
X76144Y165414D01*
X76191Y165298D01*
X76220Y165193D01*
X76226Y165152D01*
X76231Y165117D01*
X76237Y165088D01*
Y165065D01*
Y165053D01*
Y165047D01*
Y163735D01*
X76231Y163660D01*
X76220Y163584D01*
X76202Y163514D01*
X76179Y163444D01*
X76115Y163315D01*
X76045Y163199D01*
X75975Y163100D01*
X75940Y163065D01*
X75911Y163030D01*
X75887Y163001D01*
X75870Y162983D01*
X75858Y162972D01*
X75852Y162966D01*
X75777Y162902D01*
X75707Y162849D01*
X75631Y162797D01*
X75561Y162756D01*
X75491Y162721D01*
X75421Y162692D01*
X75299Y162651D01*
X75240Y162633D01*
X75194Y162622D01*
X75147Y162616D01*
X75106Y162610D01*
X75077Y162604D01*
X74302D01*
X74226Y162610D01*
X74144Y162622D01*
X74068Y162639D01*
X73998Y162663D01*
X73859Y162715D01*
X73736Y162785D01*
X73684Y162814D01*
X73631Y162849D01*
X73590Y162878D01*
X73555Y162907D01*
X73526Y162925D01*
X73503Y162942D01*
X73491Y162954D01*
X73485Y162960D01*
X73415Y163030D01*
X73357Y163094D01*
X73299Y163164D01*
X73258Y163234D01*
X73217Y163298D01*
X73188Y163362D01*
X73136Y163479D01*
X73112Y163584D01*
X73101Y163625D01*
X73095Y163665D01*
X73089Y163695D01*
Y163718D01*
Y163729D01*
Y163735D01*
Y165047D01*
X73095Y165129D01*
X73106Y165204D01*
X73124Y165280D01*
X73153Y165350D01*
X73211Y165484D01*
X73287Y165601D01*
X73322Y165653D01*
X73357Y165700D01*
X73392Y165741D01*
X73421Y165770D01*
X73450Y165799D01*
X73468Y165817D01*
X73480Y165828D01*
X73485Y165834D01*
X73561Y165898D01*
X73637Y165951D01*
X73707Y165997D01*
X73783Y166038D01*
X73853Y166073D01*
X73917Y166102D01*
X74039Y166143D01*
X74098Y166155D01*
X74150Y166166D01*
X74191Y166172D01*
X74232Y166178D01*
X74261Y166184D01*
X75036D01*
X75118Y166178D01*
D02*
G37*
G36*
X94036Y167531D02*
X94077Y167525D01*
X94118Y167507D01*
X94147Y167490D01*
X94176Y167472D01*
X94194Y167461D01*
X94205Y167449D01*
X94211Y167443D01*
X94240Y167408D01*
X94264Y167367D01*
X94275Y167332D01*
X94287Y167297D01*
X94293Y167268D01*
X94299Y167245D01*
Y167227D01*
Y167222D01*
X94293Y167175D01*
X94287Y167134D01*
X94269Y167093D01*
X94252Y167064D01*
X94240Y167035D01*
X94223Y167018D01*
X94217Y167006D01*
X94211Y167000D01*
X94176Y166971D01*
X94135Y166948D01*
X94100Y166936D01*
X94065Y166924D01*
X94036Y166919D01*
X94013Y166913D01*
X93354D01*
Y163228D01*
X93984D01*
X94030Y163222D01*
X94071Y163216D01*
X94112Y163199D01*
X94141Y163181D01*
X94170Y163164D01*
X94188Y163152D01*
X94199Y163141D01*
X94205Y163135D01*
X94234Y163100D01*
X94258Y163059D01*
X94269Y163024D01*
X94281Y162989D01*
X94287Y162960D01*
X94293Y162937D01*
Y162919D01*
Y162913D01*
X94287Y162867D01*
X94281Y162826D01*
X94264Y162785D01*
X94246Y162756D01*
X94234Y162727D01*
X94217Y162709D01*
X94211Y162698D01*
X94205Y162692D01*
X94170Y162663D01*
X94130Y162639D01*
X94095Y162622D01*
X94059Y162610D01*
X94030Y162604D01*
X94007Y162598D01*
X92095D01*
X92048Y162604D01*
X92007Y162616D01*
X91966Y162628D01*
X91937Y162645D01*
X91908Y162663D01*
X91891Y162680D01*
X91879Y162686D01*
X91873Y162692D01*
X91844Y162727D01*
X91821Y162768D01*
X91803Y162803D01*
X91792Y162838D01*
X91786Y162867D01*
X91780Y162890D01*
Y162907D01*
Y162913D01*
X91786Y162960D01*
X91792Y163001D01*
X91809Y163041D01*
X91827Y163071D01*
X91844Y163100D01*
X91856Y163117D01*
X91867Y163129D01*
X91873Y163135D01*
X91908Y163164D01*
X91949Y163187D01*
X91984Y163205D01*
X92019Y163216D01*
X92048Y163222D01*
X92071Y163228D01*
X92725D01*
Y167222D01*
X92730Y167268D01*
X92736Y167309D01*
X92754Y167350D01*
X92771Y167379D01*
X92789Y167408D01*
X92800Y167426D01*
X92812Y167437D01*
X92818Y167443D01*
X92853Y167472D01*
X92893Y167496D01*
X92928Y167513D01*
X92963Y167525D01*
X92993Y167531D01*
X93016Y167536D01*
X93990D01*
X94036Y167531D01*
D02*
G37*
G36*
X98630D02*
X98671Y167525D01*
X98712Y167507D01*
X98741Y167490D01*
X98770Y167472D01*
X98788Y167461D01*
X98799Y167449D01*
X98805Y167443D01*
X98834Y167408D01*
X98858Y167367D01*
X98869Y167332D01*
X98881Y167297D01*
X98887Y167268D01*
X98893Y167245D01*
Y167227D01*
Y167222D01*
X98887Y167175D01*
X98881Y167134D01*
X98863Y167093D01*
X98846Y167064D01*
X98834Y167035D01*
X98817Y167018D01*
X98811Y167006D01*
X98805Y167000D01*
X98770Y166971D01*
X98729Y166948D01*
X98694Y166936D01*
X98659Y166924D01*
X98630Y166919D01*
X98607Y166913D01*
X97948D01*
Y163228D01*
X98578D01*
X98624Y163222D01*
X98665Y163216D01*
X98706Y163199D01*
X98735Y163181D01*
X98764Y163164D01*
X98782Y163152D01*
X98794Y163141D01*
X98799Y163135D01*
X98829Y163100D01*
X98852Y163059D01*
X98863Y163024D01*
X98875Y162989D01*
X98881Y162960D01*
X98887Y162937D01*
Y162919D01*
Y162913D01*
X98881Y162867D01*
X98875Y162826D01*
X98858Y162785D01*
X98840Y162756D01*
X98829Y162727D01*
X98811Y162709D01*
X98805Y162698D01*
X98799Y162692D01*
X98764Y162663D01*
X98724Y162639D01*
X98689Y162622D01*
X98654Y162610D01*
X98624Y162604D01*
X98601Y162598D01*
X96689D01*
X96642Y162604D01*
X96601Y162616D01*
X96561Y162628D01*
X96531Y162645D01*
X96502Y162663D01*
X96485Y162680D01*
X96473Y162686D01*
X96467Y162692D01*
X96438Y162727D01*
X96415Y162768D01*
X96397Y162803D01*
X96386Y162838D01*
X96380Y162867D01*
X96374Y162890D01*
Y162907D01*
Y162913D01*
X96380Y162960D01*
X96386Y163001D01*
X96403Y163041D01*
X96421Y163071D01*
X96438Y163100D01*
X96450Y163117D01*
X96461Y163129D01*
X96467Y163135D01*
X96502Y163164D01*
X96543Y163187D01*
X96578Y163205D01*
X96613Y163216D01*
X96642Y163222D01*
X96666Y163228D01*
X97319D01*
Y167222D01*
X97324Y167268D01*
X97330Y167309D01*
X97348Y167350D01*
X97365Y167379D01*
X97383Y167408D01*
X97394Y167426D01*
X97406Y167437D01*
X97412Y167443D01*
X97447Y167472D01*
X97488Y167496D01*
X97522Y167513D01*
X97557Y167525D01*
X97587Y167531D01*
X97610Y167536D01*
X98584D01*
X98630Y167531D01*
D02*
G37*
G36*
X62199Y175405D02*
X62239Y175399D01*
X62280Y175381D01*
X62309Y175364D01*
X62339Y175346D01*
X62356Y175335D01*
X62368Y175323D01*
X62374Y175317D01*
X62403Y175282D01*
X62426Y175241D01*
X62438Y175206D01*
X62449Y175171D01*
X62455Y175142D01*
X62461Y175119D01*
Y175101D01*
Y175096D01*
X62455Y175049D01*
X62449Y175008D01*
X62432Y174967D01*
X62414Y174938D01*
X62403Y174909D01*
X62385Y174892D01*
X62379Y174880D01*
X62374Y174874D01*
X62339Y174845D01*
X62298Y174822D01*
X62263Y174810D01*
X62228Y174798D01*
X62199Y174793D01*
X62175Y174787D01*
X61207D01*
Y171102D01*
X62169D01*
X62216Y171096D01*
X62257Y171090D01*
X62298Y171073D01*
X62327Y171055D01*
X62356Y171038D01*
X62374Y171026D01*
X62385Y171015D01*
X62391Y171009D01*
X62420Y170974D01*
X62443Y170939D01*
X62455Y170904D01*
X62467Y170869D01*
X62473Y170840D01*
X62478Y170816D01*
Y170799D01*
Y170793D01*
X62473Y170747D01*
X62467Y170706D01*
X62449Y170665D01*
X62432Y170636D01*
X62420Y170607D01*
X62403Y170589D01*
X62397Y170577D01*
X62391Y170572D01*
X62356Y170542D01*
X62315Y170519D01*
X62280Y170502D01*
X62245Y170490D01*
X62216Y170484D01*
X62193Y170478D01*
X59651D01*
X59604Y170484D01*
X59563Y170490D01*
X59523Y170507D01*
X59493Y170525D01*
X59464Y170537D01*
X59447Y170554D01*
X59435Y170560D01*
X59429Y170566D01*
X59400Y170601D01*
X59377Y170642D01*
X59359Y170677D01*
X59348Y170712D01*
X59342Y170741D01*
X59336Y170764D01*
Y170781D01*
Y170787D01*
Y172402D01*
X59342Y172449D01*
X59348Y172490D01*
X59365Y172530D01*
X59383Y172560D01*
X59400Y172589D01*
X59412Y172606D01*
X59424Y172618D01*
X59429Y172624D01*
X59464Y172653D01*
X59505Y172676D01*
X59540Y172694D01*
X59575Y172705D01*
X59604Y172711D01*
X59627Y172717D01*
X59651D01*
X59698Y172711D01*
X59738Y172705D01*
X59779Y172688D01*
X59808Y172670D01*
X59837Y172653D01*
X59855Y172641D01*
X59867Y172629D01*
X59872Y172624D01*
X59901Y172589D01*
X59925Y172548D01*
X59936Y172513D01*
X59948Y172478D01*
X59954Y172449D01*
X59960Y172425D01*
Y172408D01*
Y172402D01*
Y171102D01*
X60584D01*
Y175410D01*
X62152D01*
X62199Y175405D01*
D02*
G37*
G36*
X98636D02*
X98677Y175399D01*
X98718Y175381D01*
X98747Y175364D01*
X98776Y175346D01*
X98794Y175335D01*
X98805Y175323D01*
X98811Y175317D01*
X98840Y175282D01*
X98863Y175241D01*
X98875Y175206D01*
X98887Y175171D01*
X98893Y175142D01*
X98898Y175119D01*
Y175101D01*
Y175096D01*
X98893Y175049D01*
X98887Y175008D01*
X98869Y174967D01*
X98852Y174938D01*
X98840Y174909D01*
X98823Y174892D01*
X98817Y174880D01*
X98811Y174874D01*
X98776Y174845D01*
X98735Y174822D01*
X98700Y174810D01*
X98665Y174798D01*
X98636Y174793D01*
X98613Y174787D01*
X97954D01*
Y171102D01*
X98584D01*
X98630Y171096D01*
X98671Y171090D01*
X98712Y171073D01*
X98741Y171055D01*
X98770Y171038D01*
X98788Y171026D01*
X98799Y171015D01*
X98805Y171009D01*
X98834Y170974D01*
X98858Y170933D01*
X98869Y170898D01*
X98881Y170863D01*
X98887Y170834D01*
X98893Y170811D01*
Y170793D01*
Y170787D01*
X98887Y170741D01*
X98881Y170700D01*
X98863Y170659D01*
X98846Y170630D01*
X98834Y170601D01*
X98817Y170583D01*
X98811Y170572D01*
X98805Y170566D01*
X98770Y170537D01*
X98729Y170513D01*
X98694Y170496D01*
X98659Y170484D01*
X98630Y170478D01*
X98607Y170472D01*
X96695D01*
X96648Y170478D01*
X96607Y170490D01*
X96566Y170502D01*
X96537Y170519D01*
X96508Y170537D01*
X96491Y170554D01*
X96479Y170560D01*
X96473Y170566D01*
X96444Y170601D01*
X96421Y170642D01*
X96403Y170677D01*
X96391Y170712D01*
X96386Y170741D01*
X96380Y170764D01*
Y170781D01*
Y170787D01*
X96386Y170834D01*
X96391Y170875D01*
X96409Y170915D01*
X96426Y170945D01*
X96444Y170974D01*
X96456Y170991D01*
X96467Y171003D01*
X96473Y171009D01*
X96508Y171038D01*
X96549Y171061D01*
X96584Y171079D01*
X96619Y171090D01*
X96648Y171096D01*
X96671Y171102D01*
X97324D01*
Y175096D01*
X97330Y175142D01*
X97336Y175183D01*
X97354Y175224D01*
X97371Y175253D01*
X97388Y175282D01*
X97400Y175300D01*
X97412Y175311D01*
X97418Y175317D01*
X97453Y175346D01*
X97493Y175370D01*
X97528Y175387D01*
X97563Y175399D01*
X97593Y175405D01*
X97616Y175410D01*
X98589D01*
X98636Y175405D01*
D02*
G37*
G36*
X107358Y174046D02*
X107463Y174023D01*
X107562Y173994D01*
X107643Y173953D01*
X107713Y173912D01*
X107766Y173883D01*
X107801Y173860D01*
X107807Y173848D01*
X107812D01*
X108069Y173644D01*
X108122Y173597D01*
X108168Y173545D01*
X108209Y173492D01*
X108244Y173440D01*
X108273Y173387D01*
X108291Y173353D01*
X108302Y173329D01*
X108308Y173318D01*
X108337Y173248D01*
X108361Y173183D01*
X108378Y173125D01*
X108390Y173078D01*
X108396Y173044D01*
X108401Y173014D01*
Y172997D01*
Y172991D01*
Y171557D01*
X108396Y171499D01*
X108390Y171434D01*
X108378Y171376D01*
X108361Y171324D01*
X108343Y171283D01*
X108331Y171242D01*
X108326Y171219D01*
X108320Y171213D01*
X108285Y171149D01*
X108250Y171090D01*
X108209Y171044D01*
X108174Y171003D01*
X108145Y170968D01*
X108122Y170945D01*
X108104Y170933D01*
X108098Y170927D01*
X107824Y170682D01*
X107789Y170653D01*
X107743Y170630D01*
X107655Y170583D01*
X107620Y170566D01*
X107585Y170548D01*
X107562Y170542D01*
X107556Y170537D01*
X107492Y170513D01*
X107428Y170502D01*
X107369Y170490D01*
X107317Y170478D01*
X107270D01*
X107241Y170472D01*
X105568D01*
X105521Y170478D01*
X105481Y170484D01*
X105416Y170519D01*
X105387Y170531D01*
X105370Y170548D01*
X105358Y170554D01*
X105352Y170560D01*
X105317Y170595D01*
X105294Y170636D01*
X105276Y170671D01*
X105265Y170706D01*
X105259Y170735D01*
X105253Y170758D01*
Y170776D01*
Y170781D01*
X105259Y170828D01*
X105265Y170869D01*
X105282Y170910D01*
X105300Y170939D01*
X105317Y170968D01*
X105329Y170985D01*
X105341Y170997D01*
X105346Y171003D01*
X105381Y171032D01*
X105422Y171055D01*
X105457Y171073D01*
X105492Y171085D01*
X105521Y171090D01*
X105545Y171096D01*
X107171D01*
X107224Y171102D01*
X107270Y171114D01*
X107323Y171131D01*
X107364Y171154D01*
X107404Y171172D01*
X107433Y171189D01*
X107451Y171201D01*
X107457Y171207D01*
X107638Y171364D01*
X107684Y171405D01*
X107713Y171452D01*
X107737Y171499D01*
X107754Y171539D01*
X107766Y171574D01*
X107772Y171609D01*
Y171627D01*
Y171633D01*
Y171819D01*
X105568D01*
X105521Y171825D01*
X105481Y171831D01*
X105440Y171848D01*
X105411Y171866D01*
X105381Y171878D01*
X105364Y171895D01*
X105352Y171901D01*
X105346Y171907D01*
X105317Y171942D01*
X105294Y171982D01*
X105276Y172017D01*
X105265Y172052D01*
X105259Y172081D01*
X105253Y172105D01*
Y172122D01*
Y172128D01*
Y172880D01*
Y172962D01*
X105265Y173038D01*
X105294Y173178D01*
X105335Y173294D01*
X105381Y173387D01*
X105428Y173463D01*
X105469Y173516D01*
X105498Y173545D01*
X105504Y173556D01*
X105510D01*
X105743Y173778D01*
X105795Y173825D01*
X105854Y173871D01*
X105964Y173941D01*
X106069Y173988D01*
X106163Y174023D01*
X106244Y174046D01*
X106308Y174052D01*
X106332Y174058D01*
X107241D01*
X107358Y174046D01*
D02*
G37*
G36*
X93733Y174052D02*
X93774Y174046D01*
X93815Y174029D01*
X93844Y174011D01*
X93873Y173994D01*
X93890Y173982D01*
X93902Y173970D01*
X93908Y173965D01*
X93937Y173930D01*
X93960Y173889D01*
X93972Y173854D01*
X93984Y173819D01*
X93990Y173790D01*
X93995Y173766D01*
Y173749D01*
Y173743D01*
X93990Y173696D01*
X93978Y173656D01*
X93966Y173615D01*
X93949Y173586D01*
X93931Y173556D01*
X93914Y173539D01*
X93908Y173527D01*
X93902Y173521D01*
X93867Y173492D01*
X93826Y173469D01*
X93791Y173457D01*
X93756Y173446D01*
X93727Y173440D01*
X93704Y173434D01*
X92491D01*
X92445Y173428D01*
X92404Y173422D01*
X92363Y173405D01*
X92334Y173387D01*
X92305Y173370D01*
X92287Y173358D01*
X92276Y173347D01*
X92270Y173341D01*
X92241Y173306D01*
X92217Y173265D01*
X92200Y173230D01*
X92188Y173195D01*
X92182Y173166D01*
X92176Y173143D01*
Y173125D01*
Y173119D01*
X92171Y172676D01*
X92241Y172694D01*
X92299Y172705D01*
X92345Y172711D01*
X92386Y172717D01*
X92421Y172723D01*
X93686D01*
X93756Y172717D01*
X93826Y172711D01*
X93955Y172682D01*
X94071Y172635D01*
X94170Y172583D01*
X94246Y172530D01*
X94304Y172490D01*
X94328Y172466D01*
X94345Y172455D01*
X94351Y172449D01*
X94357Y172443D01*
X94403Y172390D01*
X94444Y172338D01*
X94514Y172221D01*
X94561Y172111D01*
X94596Y172006D01*
X94613Y171918D01*
X94625Y171878D01*
Y171843D01*
X94631Y171819D01*
Y171796D01*
Y171784D01*
Y171778D01*
Y171411D01*
X94625Y171341D01*
X94619Y171271D01*
X94590Y171143D01*
X94543Y171032D01*
X94491Y170933D01*
X94444Y170851D01*
X94398Y170793D01*
X94380Y170776D01*
X94368Y170758D01*
X94357Y170752D01*
Y170747D01*
X94304Y170700D01*
X94252Y170659D01*
X94135Y170589D01*
X94024Y170542D01*
X93920Y170507D01*
X93826Y170490D01*
X93786Y170478D01*
X93751D01*
X93727Y170472D01*
X92631D01*
X92101Y170787D01*
X92095Y170741D01*
X92089Y170694D01*
X92071Y170659D01*
X92054Y170624D01*
X92042Y170595D01*
X92025Y170577D01*
X92019Y170566D01*
X92013Y170560D01*
X91978Y170531D01*
X91937Y170507D01*
X91902Y170496D01*
X91862Y170484D01*
X91833Y170478D01*
X91809Y170472D01*
X91786D01*
X91739Y170478D01*
X91698Y170484D01*
X91658Y170502D01*
X91628Y170519D01*
X91599Y170531D01*
X91582Y170548D01*
X91570Y170554D01*
X91564Y170560D01*
X91535Y170595D01*
X91512Y170636D01*
X91494Y170671D01*
X91483Y170706D01*
X91477Y170735D01*
X91471Y170758D01*
Y170776D01*
Y170781D01*
X91547Y173119D01*
X91553Y173189D01*
X91564Y173259D01*
X91593Y173387D01*
X91640Y173504D01*
X91693Y173597D01*
X91745Y173679D01*
X91792Y173737D01*
X91809Y173755D01*
X91821Y173772D01*
X91827Y173778D01*
X91833Y173784D01*
X91885Y173830D01*
X91937Y173877D01*
X92054Y173941D01*
X92165Y173994D01*
X92270Y174023D01*
X92357Y174046D01*
X92398Y174052D01*
X92433D01*
X92456Y174058D01*
X93686D01*
X93733Y174052D01*
D02*
G37*
G36*
X119385Y174058D02*
X119426Y174046D01*
X119467Y174035D01*
X119496Y174017D01*
X119525Y173994D01*
X119543Y173982D01*
X119554Y173970D01*
X119560Y173965D01*
X119589Y173930D01*
X119612Y173895D01*
X119630Y173854D01*
X119642Y173825D01*
X119647Y173795D01*
X119653Y173772D01*
Y173755D01*
Y173749D01*
Y173271D01*
X120504Y171376D01*
X120726D01*
X121548Y173277D01*
Y173743D01*
X121554Y173790D01*
X121565Y173830D01*
X121577Y173871D01*
X121595Y173900D01*
X121618Y173930D01*
X121630Y173947D01*
X121641Y173959D01*
X121647Y173965D01*
X121682Y173994D01*
X121723Y174017D01*
X121758Y174035D01*
X121793Y174046D01*
X121822Y174052D01*
X121845Y174058D01*
X121869D01*
X121915Y174052D01*
X121956Y174046D01*
X121991Y174029D01*
X122026Y174011D01*
X122049Y173994D01*
X122067Y173982D01*
X122079Y173970D01*
X122084Y173965D01*
X122114Y173930D01*
X122137Y173889D01*
X122149Y173854D01*
X122160Y173819D01*
X122166Y173790D01*
X122172Y173766D01*
Y173749D01*
Y173743D01*
Y173143D01*
X121239Y170962D01*
X121198Y170892D01*
X121151Y170840D01*
X121099Y170799D01*
X121047Y170776D01*
X121006Y170758D01*
X120965Y170752D01*
X120942Y170747D01*
X120778D01*
X121210Y169755D01*
X121880D01*
X121927Y169749D01*
X121968Y169744D01*
X122009Y169726D01*
X122038Y169714D01*
X122067Y169697D01*
X122084Y169680D01*
X122096Y169674D01*
X122102Y169668D01*
X122131Y169633D01*
X122154Y169598D01*
X122166Y169563D01*
X122178Y169528D01*
X122183Y169499D01*
X122189Y169475D01*
Y169458D01*
Y169452D01*
X122183Y169405D01*
X122178Y169359D01*
X122160Y169324D01*
X122143Y169289D01*
X122131Y169266D01*
X122114Y169248D01*
X122108Y169237D01*
X122102Y169231D01*
X122067Y169202D01*
X122026Y169178D01*
X121991Y169161D01*
X121956Y169149D01*
X121927Y169143D01*
X121904Y169137D01*
X121012D01*
X120936Y169149D01*
X120872Y169172D01*
X120825Y169202D01*
X120784Y169242D01*
X120749Y169277D01*
X120732Y169312D01*
X120720Y169336D01*
X120714Y169341D01*
X119024Y173143D01*
Y173749D01*
X119029Y173795D01*
X119035Y173836D01*
X119053Y173877D01*
X119070Y173906D01*
X119088Y173935D01*
X119099Y173953D01*
X119111Y173965D01*
X119117Y173970D01*
X119152Y174000D01*
X119193Y174023D01*
X119228Y174040D01*
X119263Y174052D01*
X119292Y174058D01*
X119315Y174064D01*
X119338D01*
X119385Y174058D01*
D02*
G37*
G36*
X84387Y174046D02*
X84492Y174023D01*
X84592Y173994D01*
X84673Y173953D01*
X84743Y173912D01*
X84796Y173883D01*
X84831Y173860D01*
X84837Y173848D01*
X84842D01*
X85099Y173644D01*
X85151Y173597D01*
X85198Y173545D01*
X85239Y173492D01*
X85274Y173440D01*
X85303Y173387D01*
X85320Y173353D01*
X85332Y173329D01*
X85338Y173318D01*
X85367Y173248D01*
X85390Y173183D01*
X85408Y173125D01*
X85419Y173078D01*
X85425Y173044D01*
X85431Y173014D01*
Y172997D01*
Y172991D01*
Y171557D01*
X85425Y171499D01*
X85419Y171434D01*
X85408Y171376D01*
X85390Y171324D01*
X85373Y171283D01*
X85361Y171242D01*
X85355Y171219D01*
X85350Y171213D01*
X85315Y171149D01*
X85280Y171090D01*
X85239Y171044D01*
X85204Y171003D01*
X85175Y170968D01*
X85151Y170945D01*
X85134Y170933D01*
X85128Y170927D01*
X84854Y170682D01*
X84819Y170653D01*
X84772Y170630D01*
X84685Y170583D01*
X84650Y170566D01*
X84615Y170548D01*
X84592Y170542D01*
X84586Y170537D01*
X84522Y170513D01*
X84457Y170502D01*
X84399Y170490D01*
X84347Y170478D01*
X84300D01*
X84271Y170472D01*
X82598D01*
X82551Y170478D01*
X82510Y170484D01*
X82446Y170519D01*
X82417Y170531D01*
X82399Y170548D01*
X82388Y170554D01*
X82382Y170560D01*
X82347Y170595D01*
X82324Y170636D01*
X82306Y170671D01*
X82295Y170706D01*
X82289Y170735D01*
X82283Y170758D01*
Y170776D01*
Y170781D01*
X82289Y170828D01*
X82295Y170869D01*
X82312Y170910D01*
X82330Y170939D01*
X82347Y170968D01*
X82359Y170985D01*
X82370Y170997D01*
X82376Y171003D01*
X82411Y171032D01*
X82452Y171055D01*
X82487Y171073D01*
X82522Y171085D01*
X82551Y171090D01*
X82574Y171096D01*
X84201D01*
X84254Y171102D01*
X84300Y171114D01*
X84353Y171131D01*
X84393Y171154D01*
X84434Y171172D01*
X84463Y171189D01*
X84481Y171201D01*
X84487Y171207D01*
X84667Y171364D01*
X84714Y171405D01*
X84743Y171452D01*
X84767Y171499D01*
X84784Y171539D01*
X84796Y171574D01*
X84802Y171609D01*
Y171627D01*
Y171633D01*
Y171819D01*
X82598D01*
X82551Y171825D01*
X82510Y171831D01*
X82469Y171848D01*
X82440Y171866D01*
X82411Y171878D01*
X82394Y171895D01*
X82382Y171901D01*
X82376Y171907D01*
X82347Y171942D01*
X82324Y171982D01*
X82306Y172017D01*
X82295Y172052D01*
X82289Y172081D01*
X82283Y172105D01*
Y172122D01*
Y172128D01*
Y172880D01*
Y172962D01*
X82295Y173038D01*
X82324Y173178D01*
X82364Y173294D01*
X82411Y173387D01*
X82458Y173463D01*
X82499Y173516D01*
X82528Y173545D01*
X82534Y173556D01*
X82539D01*
X82773Y173778D01*
X82825Y173825D01*
X82883Y173871D01*
X82994Y173941D01*
X83099Y173988D01*
X83192Y174023D01*
X83274Y174046D01*
X83338Y174052D01*
X83362Y174058D01*
X84271D01*
X84387Y174046D01*
D02*
G37*
G36*
X66554Y175405D02*
X66635Y175381D01*
X66711Y175352D01*
X66769Y175323D01*
X66822Y175288D01*
X66857Y175259D01*
X66886Y175235D01*
X66892Y175230D01*
X66950Y175160D01*
X66991Y175090D01*
X67026Y175014D01*
X67043Y174950D01*
X67055Y174892D01*
X67061Y174845D01*
X67067Y174816D01*
Y174804D01*
Y171079D01*
X67061Y170991D01*
X67037Y170904D01*
X67014Y170834D01*
X66979Y170770D01*
X66950Y170723D01*
X66921Y170682D01*
X66903Y170659D01*
X66898Y170653D01*
X66828Y170595D01*
X66758Y170554D01*
X66682Y170519D01*
X66618Y170502D01*
X66554Y170490D01*
X66507Y170484D01*
X66478Y170478D01*
X64531D01*
X64437Y170484D01*
X64356Y170507D01*
X64286Y170537D01*
X64222Y170566D01*
X64175Y170601D01*
X64134Y170624D01*
X64111Y170647D01*
X64105Y170653D01*
X64047Y170723D01*
X64000Y170793D01*
X63971Y170863D01*
X63948Y170933D01*
X63936Y170991D01*
X63924Y171038D01*
Y171067D01*
Y171079D01*
Y174804D01*
X63930Y174892D01*
X63953Y174973D01*
X63983Y175049D01*
X64012Y175107D01*
X64047Y175160D01*
X64076Y175201D01*
X64099Y175224D01*
X64105Y175230D01*
X64175Y175288D01*
X64245Y175335D01*
X64315Y175364D01*
X64379Y175387D01*
X64432Y175399D01*
X64478Y175410D01*
X66466D01*
X66554Y175405D01*
D02*
G37*
G36*
X71410D02*
X71457Y175399D01*
X71492Y175381D01*
X71527Y175364D01*
X71550Y175346D01*
X71567Y175335D01*
X71579Y175323D01*
X71585Y175317D01*
X71614Y175282D01*
X71637Y175241D01*
X71649Y175206D01*
X71661Y175171D01*
X71667Y175142D01*
X71672Y175119D01*
Y175101D01*
Y175096D01*
X71667Y175049D01*
X71661Y175008D01*
X71643Y174967D01*
X71626Y174938D01*
X71614Y174909D01*
X71596Y174892D01*
X71591Y174880D01*
X71585Y174874D01*
X71550Y174845D01*
X71515Y174822D01*
X71474Y174810D01*
X71439Y174798D01*
X71410Y174793D01*
X71387Y174787D01*
X69130D01*
Y173265D01*
X71025D01*
X71118Y173259D01*
X71200Y173236D01*
X71276Y173207D01*
X71340Y173172D01*
X71398Y173137D01*
X71433Y173108D01*
X71462Y173084D01*
X71468Y173078D01*
X71527Y173009D01*
X71573Y172933D01*
X71602Y172857D01*
X71626Y172787D01*
X71637Y172723D01*
X71643Y172676D01*
X71649Y172641D01*
Y172635D01*
Y172629D01*
Y170478D01*
X68816D01*
X68769Y170484D01*
X68728Y170490D01*
X68687Y170507D01*
X68658Y170525D01*
X68629Y170537D01*
X68612Y170554D01*
X68600Y170560D01*
X68594Y170566D01*
X68565Y170601D01*
X68542Y170642D01*
X68524Y170677D01*
X68512Y170712D01*
X68507Y170741D01*
X68501Y170764D01*
Y170781D01*
Y170787D01*
X68507Y170834D01*
X68512Y170875D01*
X68530Y170915D01*
X68547Y170945D01*
X68565Y170974D01*
X68577Y170991D01*
X68588Y171003D01*
X68594Y171009D01*
X68629Y171038D01*
X68670Y171061D01*
X68705Y171079D01*
X68740Y171090D01*
X68769Y171096D01*
X68792Y171102D01*
X71025D01*
Y172635D01*
X69136D01*
X69043Y172641D01*
X68955Y172664D01*
X68880Y172694D01*
X68816Y172729D01*
X68757Y172758D01*
X68722Y172787D01*
X68693Y172810D01*
X68687Y172816D01*
X68623Y172892D01*
X68577Y172968D01*
X68547Y173038D01*
X68524Y173113D01*
X68512Y173172D01*
X68501Y173224D01*
Y173253D01*
Y173265D01*
Y174781D01*
X68507Y174874D01*
X68530Y174956D01*
X68559Y175031D01*
X68594Y175101D01*
X68629Y175154D01*
X68658Y175189D01*
X68682Y175218D01*
X68687Y175224D01*
X68757Y175288D01*
X68833Y175335D01*
X68909Y175364D01*
X68979Y175387D01*
X69043Y175399D01*
X69090Y175410D01*
X71363D01*
X71410Y175405D01*
D02*
G37*
G36*
X57167Y172635D02*
X55278D01*
Y171102D01*
X56724D01*
X56783Y171108D01*
X56829Y171125D01*
X56864Y171137D01*
X56870Y171143D01*
X56876D01*
X57290Y171318D01*
X57377Y171353D01*
X57441Y171370D01*
X57470Y171376D01*
X57505D01*
X57552Y171370D01*
X57587Y171364D01*
X57657Y171329D01*
X57680Y171312D01*
X57698Y171300D01*
X57709Y171289D01*
X57715Y171283D01*
X57744Y171248D01*
X57762Y171207D01*
X57785Y171137D01*
X57791Y171108D01*
X57797Y171085D01*
Y171067D01*
Y171061D01*
X57791Y170985D01*
X57768Y170921D01*
X57739Y170875D01*
X57704Y170834D01*
X57669Y170799D01*
X57639Y170781D01*
X57616Y170770D01*
X57610Y170764D01*
X57138Y170566D01*
X57056Y170537D01*
X56981Y170513D01*
X56911Y170502D01*
X56847Y170490D01*
X56794Y170484D01*
X56759Y170478D01*
X55284D01*
X55191Y170484D01*
X55109Y170507D01*
X55033Y170537D01*
X54963Y170572D01*
X54911Y170601D01*
X54876Y170630D01*
X54847Y170653D01*
X54841Y170659D01*
X54777Y170729D01*
X54730Y170805D01*
X54701Y170880D01*
X54678Y170950D01*
X54666Y171009D01*
X54655Y171061D01*
Y171090D01*
Y171102D01*
Y172629D01*
X54660Y172723D01*
X54684Y172804D01*
X54713Y172880D01*
X54748Y172950D01*
X54783Y173003D01*
X54812Y173038D01*
X54835Y173067D01*
X54841Y173073D01*
X54911Y173137D01*
X54987Y173183D01*
X55063Y173213D01*
X55133Y173236D01*
X55191Y173248D01*
X55243Y173259D01*
X56538D01*
Y174787D01*
X54969D01*
X54923Y174793D01*
X54882Y174798D01*
X54841Y174816D01*
X54812Y174833D01*
X54783Y174845D01*
X54765Y174862D01*
X54754Y174868D01*
X54748Y174874D01*
X54719Y174909D01*
X54695Y174950D01*
X54678Y174985D01*
X54666Y175020D01*
X54660Y175049D01*
X54655Y175072D01*
Y175090D01*
Y175096D01*
X54660Y175142D01*
X54666Y175183D01*
X54684Y175224D01*
X54701Y175253D01*
X54719Y175282D01*
X54730Y175300D01*
X54742Y175311D01*
X54748Y175317D01*
X54783Y175346D01*
X54824Y175370D01*
X54859Y175387D01*
X54894Y175399D01*
X54923Y175405D01*
X54946Y175410D01*
X57167D01*
Y172635D01*
D02*
G37*
G36*
X116832Y174046D02*
X116942Y174017D01*
X117041Y173976D01*
X117129Y173935D01*
X117193Y173889D01*
X117245Y173848D01*
X117275Y173819D01*
X117286Y173813D01*
Y173807D01*
X117362Y173714D01*
X117420Y173615D01*
X117455Y173516D01*
X117484Y173428D01*
X117502Y173347D01*
X117508Y173288D01*
X117514Y173265D01*
Y173248D01*
Y173236D01*
Y173230D01*
X117508Y173154D01*
X117496Y173078D01*
X117473Y173009D01*
X117449Y172944D01*
X117426Y172892D01*
X117403Y172851D01*
X117391Y172828D01*
X117385Y172816D01*
X117333Y172746D01*
X117275Y172682D01*
X117210Y172629D01*
X117152Y172583D01*
X117100Y172548D01*
X117059Y172525D01*
X117030Y172507D01*
X117018Y172501D01*
X115339Y171749D01*
X115269Y171708D01*
X115217Y171662D01*
X115182Y171609D01*
X115153Y171563D01*
X115141Y171516D01*
X115135Y171475D01*
X115129Y171452D01*
Y171440D01*
X115135Y171394D01*
X115141Y171347D01*
X115158Y171306D01*
X115176Y171271D01*
X115193Y171242D01*
X115205Y171219D01*
X115217Y171207D01*
X115222Y171201D01*
X115257Y171166D01*
X115298Y171143D01*
X115339Y171120D01*
X115374Y171108D01*
X115409Y171102D01*
X115432Y171096D01*
X116616D01*
X116709Y171102D01*
X116785Y171120D01*
X116855Y171137D01*
X116907Y171166D01*
X116954Y171189D01*
X116989Y171207D01*
X117006Y171224D01*
X117012Y171230D01*
X117059Y171277D01*
X117105Y171306D01*
X117152Y171329D01*
X117187Y171347D01*
X117216Y171359D01*
X117240Y171364D01*
X117263D01*
X117315Y171359D01*
X117362Y171347D01*
X117403Y171335D01*
X117438Y171318D01*
X117467Y171294D01*
X117484Y171283D01*
X117496Y171271D01*
X117502Y171265D01*
X117531Y171230D01*
X117554Y171195D01*
X117566Y171154D01*
X117578Y171125D01*
X117584Y171096D01*
X117589Y171073D01*
Y171055D01*
Y171050D01*
X117584Y171015D01*
X117578Y170980D01*
X117543Y170910D01*
X117502Y170846D01*
X117449Y170787D01*
X117397Y170735D01*
X117350Y170700D01*
X117321Y170677D01*
X117315Y170665D01*
X117310D01*
X117205Y170601D01*
X117094Y170554D01*
X116995Y170519D01*
X116902Y170496D01*
X116820Y170484D01*
X116756Y170478D01*
X116732Y170472D01*
X115444D01*
X115380Y170478D01*
X115310Y170484D01*
X115187Y170513D01*
X115083Y170560D01*
X114983Y170612D01*
X114908Y170659D01*
X114849Y170706D01*
X114826Y170723D01*
X114808Y170735D01*
X114803Y170747D01*
X114797D01*
X114744Y170799D01*
X114704Y170857D01*
X114663Y170915D01*
X114634Y170974D01*
X114581Y171085D01*
X114546Y171195D01*
X114529Y171289D01*
X114517Y171329D01*
Y171364D01*
X114511Y171388D01*
Y171411D01*
Y171423D01*
Y171429D01*
X114517Y171539D01*
X114534Y171644D01*
X114564Y171738D01*
X114593Y171819D01*
X114622Y171883D01*
X114651Y171936D01*
X114669Y171965D01*
X114674Y171977D01*
X114739Y172064D01*
X114808Y172134D01*
X114878Y172198D01*
X114943Y172245D01*
X115001Y172286D01*
X115048Y172309D01*
X115077Y172326D01*
X115083Y172332D01*
X115088D01*
X116744Y173073D01*
X116791Y173102D01*
X116826Y173131D01*
X116849Y173160D01*
X116867Y173189D01*
X116878Y173218D01*
X116884Y173242D01*
Y173253D01*
Y173259D01*
X116872Y173318D01*
X116849Y173358D01*
X116820Y173393D01*
X116779Y173411D01*
X116744Y173422D01*
X116709Y173434D01*
X115269D01*
X115217Y173428D01*
X115170Y173411D01*
X115129Y173393D01*
X115088Y173370D01*
X115059Y173341D01*
X115036Y173323D01*
X115018Y173306D01*
X115013Y173300D01*
X114966Y173253D01*
X114919Y173224D01*
X114873Y173201D01*
X114832Y173183D01*
X114797Y173172D01*
X114768Y173166D01*
X114744D01*
X114704Y173172D01*
X114663Y173178D01*
X114593Y173207D01*
X114569Y173224D01*
X114552Y173236D01*
X114540Y173242D01*
X114534Y173248D01*
X114499Y173283D01*
X114476Y173318D01*
X114459Y173358D01*
X114447Y173393D01*
X114441Y173422D01*
X114435Y173446D01*
Y173463D01*
Y173469D01*
Y173504D01*
X114447Y173539D01*
X114476Y173609D01*
X114517Y173673D01*
X114564Y173731D01*
X114610Y173784D01*
X114651Y173819D01*
X114680Y173848D01*
X114686Y173854D01*
X114692D01*
X114791Y173924D01*
X114890Y173970D01*
X114995Y174005D01*
X115083Y174035D01*
X115164Y174046D01*
X115228Y174052D01*
X115252Y174058D01*
X116773D01*
X116832Y174046D01*
D02*
G37*
G36*
X126509Y175405D02*
X126550Y175399D01*
X126591Y175381D01*
X126620Y175364D01*
X126649Y175346D01*
X126667Y175335D01*
X126678Y175323D01*
X126684Y175317D01*
X126713Y175282D01*
X126737Y175241D01*
X126748Y175206D01*
X126760Y175171D01*
X126766Y175142D01*
X126772Y175119D01*
Y175101D01*
Y175096D01*
Y170472D01*
X123944D01*
X123898Y170478D01*
X123857Y170484D01*
X123816Y170502D01*
X123787Y170519D01*
X123758Y170531D01*
X123740Y170548D01*
X123728Y170554D01*
X123723Y170560D01*
X123688Y170595D01*
X123664Y170636D01*
X123647Y170671D01*
X123635Y170706D01*
X123629Y170735D01*
X123624Y170758D01*
Y170776D01*
Y170781D01*
X123629Y170828D01*
X123641Y170869D01*
X123653Y170910D01*
X123670Y170939D01*
X123693Y170968D01*
X123705Y170985D01*
X123717Y170997D01*
X123723Y171003D01*
X123758Y171032D01*
X123798Y171055D01*
X123833Y171073D01*
X123868Y171085D01*
X123898Y171090D01*
X123921Y171096D01*
X126148D01*
Y175096D01*
X126154Y175142D01*
X126160Y175183D01*
X126177Y175224D01*
X126195Y175253D01*
X126212Y175282D01*
X126224Y175300D01*
X126235Y175311D01*
X126241Y175317D01*
X126276Y175346D01*
X126317Y175370D01*
X126352Y175387D01*
X126387Y175399D01*
X126416Y175405D01*
X126439Y175410D01*
X126463D01*
X126509Y175405D01*
D02*
G37*
G36*
X66151Y167257D02*
X66192Y167251D01*
X66233Y167233D01*
X66262Y167216D01*
X66291Y167198D01*
X66309Y167187D01*
X66320Y167175D01*
X66326Y167169D01*
X66355Y167134D01*
X66379Y167093D01*
X66390Y167058D01*
X66402Y167023D01*
X66408Y166994D01*
X66414Y166971D01*
Y166953D01*
Y166948D01*
Y166184D01*
X66740D01*
X66787Y166178D01*
X66828Y166172D01*
X66868Y166155D01*
X66898Y166137D01*
X66927Y166120D01*
X66944Y166108D01*
X66956Y166096D01*
X66962Y166091D01*
X66991Y166056D01*
X67014Y166015D01*
X67026Y165980D01*
X67037Y165945D01*
X67043Y165916D01*
X67049Y165892D01*
Y165875D01*
Y165869D01*
X67043Y165822D01*
X67037Y165776D01*
X67020Y165741D01*
X67002Y165706D01*
X66991Y165682D01*
X66973Y165665D01*
X66967Y165653D01*
X66962Y165647D01*
X66927Y165618D01*
X66886Y165595D01*
X66851Y165583D01*
X66816Y165572D01*
X66787Y165566D01*
X66764Y165560D01*
X66420D01*
Y163531D01*
X66414Y163461D01*
X66408Y163391D01*
X66379Y163269D01*
X66332Y163152D01*
X66280Y163059D01*
X66233Y162977D01*
X66186Y162919D01*
X66169Y162902D01*
X66157Y162884D01*
X66145Y162878D01*
Y162872D01*
X66093Y162826D01*
X66035Y162785D01*
X65924Y162715D01*
X65813Y162668D01*
X65708Y162633D01*
X65615Y162616D01*
X65580Y162604D01*
X65545D01*
X65516Y162598D01*
X64851D01*
X64775Y162604D01*
X64705Y162610D01*
X64571Y162645D01*
X64461Y162686D01*
X64362Y162738D01*
X64280Y162791D01*
X64222Y162838D01*
X64204Y162855D01*
X64187Y162867D01*
X64181Y162872D01*
X64175Y162878D01*
X64128Y162931D01*
X64087Y162983D01*
X64017Y163082D01*
X63971Y163181D01*
X63942Y163263D01*
X63918Y163333D01*
X63913Y163391D01*
X63907Y163426D01*
Y163432D01*
Y163438D01*
X63913Y163485D01*
X63918Y163531D01*
X63936Y163566D01*
X63953Y163601D01*
X63971Y163630D01*
X63983Y163648D01*
X63994Y163660D01*
X64000Y163665D01*
X64035Y163695D01*
X64070Y163718D01*
X64111Y163735D01*
X64146Y163747D01*
X64175Y163753D01*
X64198Y163759D01*
X64262D01*
X64303Y163747D01*
X64367Y163718D01*
X64426Y163671D01*
X64466Y163625D01*
X64501Y163578D01*
X64525Y163531D01*
X64536Y163502D01*
X64542Y163496D01*
Y163490D01*
X64560Y163444D01*
X64577Y163403D01*
X64630Y163333D01*
X64682Y163286D01*
X64735Y163257D01*
X64787Y163234D01*
X64828Y163228D01*
X64857Y163222D01*
X65481D01*
X65527Y163228D01*
X65568Y163234D01*
X65609Y163251D01*
X65638Y163269D01*
X65667Y163280D01*
X65685Y163298D01*
X65697Y163304D01*
X65702Y163310D01*
X65732Y163345D01*
X65755Y163385D01*
X65772Y163420D01*
X65784Y163455D01*
X65790Y163485D01*
X65796Y163508D01*
Y163525D01*
Y163531D01*
Y165560D01*
X64536D01*
X64490Y165566D01*
X64449Y165572D01*
X64408Y165589D01*
X64379Y165607D01*
X64350Y165618D01*
X64332Y165636D01*
X64321Y165642D01*
X64315Y165647D01*
X64286Y165682D01*
X64262Y165723D01*
X64245Y165758D01*
X64233Y165793D01*
X64227Y165822D01*
X64222Y165846D01*
Y165863D01*
Y165869D01*
X64227Y165916D01*
X64233Y165956D01*
X64251Y165997D01*
X64268Y166026D01*
X64286Y166056D01*
X64297Y166073D01*
X64309Y166085D01*
X64315Y166091D01*
X64350Y166120D01*
X64391Y166143D01*
X64426Y166161D01*
X64461Y166172D01*
X64490Y166178D01*
X64513Y166184D01*
X65790D01*
Y166948D01*
X65796Y166994D01*
X65807Y167035D01*
X65819Y167076D01*
X65837Y167105D01*
X65860Y167134D01*
X65872Y167152D01*
X65883Y167163D01*
X65889Y167169D01*
X65924Y167198D01*
X65959Y167222D01*
X66000Y167239D01*
X66029Y167251D01*
X66058Y167257D01*
X66081Y167262D01*
X66105D01*
X66151Y167257D01*
D02*
G37*
G36*
X117727Y158304D02*
X117767Y158298D01*
X117808Y158281D01*
X117837Y158263D01*
X117867Y158246D01*
X117884Y158234D01*
X117896Y158222D01*
X117902Y158217D01*
X117931Y158182D01*
X117954Y158141D01*
X117966Y158106D01*
X117977Y158071D01*
X117983Y158042D01*
X117989Y158018D01*
Y158001D01*
Y157995D01*
Y157395D01*
X116916Y154952D01*
X116875Y154876D01*
X116823Y154818D01*
X116771Y154783D01*
X116718Y154754D01*
X116671Y154736D01*
X116630Y154730D01*
X116607Y154724D01*
X116193D01*
X116135Y154736D01*
X116077Y154759D01*
X116030Y154794D01*
X115995Y154835D01*
X115960Y154870D01*
X115937Y154905D01*
X115925Y154929D01*
X115919Y154940D01*
X114835Y157400D01*
Y157995D01*
X114841Y158042D01*
X114847Y158082D01*
X114864Y158123D01*
X114882Y158152D01*
X114899Y158182D01*
X114911Y158199D01*
X114922Y158211D01*
X114928Y158217D01*
X114963Y158246D01*
X115004Y158269D01*
X115039Y158286D01*
X115074Y158298D01*
X115103Y158304D01*
X115126Y158310D01*
X115150D01*
X115196Y158304D01*
X115243Y158298D01*
X115278Y158281D01*
X115313Y158263D01*
X115342Y158246D01*
X115360Y158234D01*
X115371Y158222D01*
X115377Y158217D01*
X115406Y158182D01*
X115430Y158141D01*
X115441Y158106D01*
X115453Y158071D01*
X115459Y158042D01*
X115464Y158018D01*
Y158001D01*
Y157995D01*
X115470Y157523D01*
X116415Y155377D01*
X117365Y157517D01*
Y157995D01*
X117371Y158042D01*
X117377Y158082D01*
X117394Y158123D01*
X117412Y158152D01*
X117429Y158182D01*
X117441Y158199D01*
X117453Y158211D01*
X117458Y158217D01*
X117493Y158246D01*
X117534Y158269D01*
X117569Y158286D01*
X117604Y158298D01*
X117633Y158304D01*
X117657Y158310D01*
X117680D01*
X117727Y158304D01*
D02*
G37*
G36*
X103945Y159657D02*
X103985Y159651D01*
X104026Y159633D01*
X104055Y159616D01*
X104084Y159598D01*
X104102Y159587D01*
X104113Y159575D01*
X104119Y159569D01*
X104148Y159534D01*
X104172Y159493D01*
X104183Y159458D01*
X104195Y159423D01*
X104201Y159394D01*
X104207Y159371D01*
Y159353D01*
Y159348D01*
X104201Y159301D01*
X104195Y159260D01*
X104178Y159219D01*
X104160Y159190D01*
X104148Y159161D01*
X104131Y159144D01*
X104125Y159132D01*
X104119Y159126D01*
X104084Y159097D01*
X104044Y159074D01*
X104009Y159062D01*
X103974Y159050D01*
X103945Y159044D01*
X103921Y159039D01*
X102953D01*
Y155354D01*
X103915D01*
X103962Y155348D01*
X104003Y155342D01*
X104044Y155325D01*
X104073Y155307D01*
X104102Y155290D01*
X104119Y155278D01*
X104131Y155267D01*
X104137Y155261D01*
X104166Y155226D01*
X104189Y155191D01*
X104201Y155156D01*
X104213Y155121D01*
X104218Y155092D01*
X104224Y155068D01*
Y155051D01*
Y155045D01*
X104218Y154998D01*
X104213Y154958D01*
X104195Y154917D01*
X104178Y154888D01*
X104166Y154859D01*
X104148Y154841D01*
X104143Y154829D01*
X104137Y154824D01*
X104102Y154794D01*
X104061Y154771D01*
X104026Y154754D01*
X103991Y154742D01*
X103962Y154736D01*
X103939Y154730D01*
X101397D01*
X101350Y154736D01*
X101309Y154742D01*
X101268Y154759D01*
X101239Y154777D01*
X101210Y154788D01*
X101193Y154806D01*
X101181Y154812D01*
X101175Y154818D01*
X101146Y154853D01*
X101123Y154894D01*
X101105Y154929D01*
X101094Y154963D01*
X101088Y154993D01*
X101082Y155016D01*
Y155033D01*
Y155039D01*
Y156654D01*
X101088Y156701D01*
X101094Y156742D01*
X101111Y156782D01*
X101129Y156812D01*
X101146Y156841D01*
X101158Y156858D01*
X101169Y156870D01*
X101175Y156876D01*
X101210Y156905D01*
X101251Y156928D01*
X101286Y156946D01*
X101321Y156957D01*
X101350Y156963D01*
X101373Y156969D01*
X101397D01*
X101443Y156963D01*
X101484Y156957D01*
X101525Y156940D01*
X101554Y156922D01*
X101583Y156905D01*
X101601Y156893D01*
X101612Y156881D01*
X101618Y156876D01*
X101647Y156841D01*
X101671Y156800D01*
X101682Y156765D01*
X101694Y156730D01*
X101700Y156701D01*
X101706Y156677D01*
Y156660D01*
Y156654D01*
Y155354D01*
X102330D01*
Y159662D01*
X103898D01*
X103945Y159657D01*
D02*
G37*
G36*
X108127Y166178D02*
X108168Y166166D01*
X108209Y166155D01*
X108238Y166137D01*
X108267Y166114D01*
X108285Y166102D01*
X108296Y166091D01*
X108302Y166085D01*
X108331Y166050D01*
X108355Y166009D01*
X108366Y165974D01*
X108378Y165939D01*
X108384Y165910D01*
X108390Y165887D01*
Y165869D01*
Y165863D01*
Y162907D01*
X108384Y162861D01*
X108378Y162820D01*
X108361Y162779D01*
X108343Y162750D01*
X108331Y162721D01*
X108314Y162703D01*
X108308Y162692D01*
X108302Y162686D01*
X108267Y162657D01*
X108226Y162633D01*
X108191Y162622D01*
X108157Y162610D01*
X108127Y162604D01*
X108104Y162598D01*
X108081D01*
X108034Y162604D01*
X107993Y162610D01*
X107952Y162628D01*
X107923Y162645D01*
X107894Y162657D01*
X107877Y162674D01*
X107865Y162680D01*
X107859Y162686D01*
X107830Y162721D01*
X107807Y162762D01*
X107789Y162797D01*
X107778Y162832D01*
X107772Y162861D01*
X107766Y162884D01*
Y162902D01*
Y162907D01*
Y164651D01*
X106880Y165414D01*
X106821Y165461D01*
X106769Y165496D01*
X106717Y165519D01*
X106676Y165537D01*
X106641Y165548D01*
X106612Y165554D01*
X106186D01*
X106139Y165548D01*
X106098Y165543D01*
X106058Y165525D01*
X106028Y165508D01*
X105999Y165490D01*
X105982Y165478D01*
X105970Y165467D01*
X105964Y165461D01*
X105935Y165426D01*
X105912Y165385D01*
X105894Y165350D01*
X105883Y165315D01*
X105877Y165286D01*
X105871Y165263D01*
Y165245D01*
Y165239D01*
Y165065D01*
X105865Y165018D01*
X105859Y164977D01*
X105842Y164936D01*
X105824Y164907D01*
X105813Y164878D01*
X105795Y164860D01*
X105789Y164849D01*
X105784Y164843D01*
X105749Y164814D01*
X105708Y164790D01*
X105673Y164779D01*
X105638Y164767D01*
X105609Y164761D01*
X105585Y164755D01*
X105562D01*
X105516Y164761D01*
X105475Y164767D01*
X105434Y164785D01*
X105405Y164802D01*
X105376Y164814D01*
X105358Y164831D01*
X105346Y164837D01*
X105341Y164843D01*
X105311Y164878D01*
X105288Y164919D01*
X105271Y164954D01*
X105259Y164995D01*
X105253Y165024D01*
X105247Y165047D01*
Y165065D01*
Y165070D01*
Y165239D01*
X105253Y165309D01*
X105259Y165379D01*
X105288Y165508D01*
X105335Y165618D01*
X105387Y165712D01*
X105440Y165793D01*
X105481Y165852D01*
X105504Y165869D01*
X105516Y165887D01*
X105521Y165892D01*
X105527Y165898D01*
X105580Y165945D01*
X105632Y165991D01*
X105743Y166061D01*
X105854Y166108D01*
X105958Y166143D01*
X106052Y166166D01*
X106087Y166172D01*
X106122D01*
X106151Y166178D01*
X106699D01*
X106751Y166166D01*
X106862Y166137D01*
X106967Y166091D01*
X107060Y166044D01*
X107142Y165997D01*
X107206Y165951D01*
X107229Y165933D01*
X107247Y165921D01*
X107253Y165916D01*
X107259Y165910D01*
X107766Y165478D01*
Y165863D01*
X107772Y165910D01*
X107778Y165956D01*
X107795Y165991D01*
X107812Y166026D01*
X107830Y166056D01*
X107842Y166073D01*
X107853Y166085D01*
X107859Y166091D01*
X107894Y166120D01*
X107935Y166143D01*
X107970Y166161D01*
X108005Y166172D01*
X108034Y166178D01*
X108057Y166184D01*
X108081D01*
X108127Y166178D01*
D02*
G37*
G36*
X117315D02*
X117356Y166166D01*
X117397Y166155D01*
X117426Y166137D01*
X117455Y166114D01*
X117473Y166102D01*
X117484Y166091D01*
X117490Y166085D01*
X117519Y166050D01*
X117543Y166009D01*
X117554Y165974D01*
X117566Y165939D01*
X117572Y165910D01*
X117578Y165887D01*
Y165869D01*
Y165863D01*
Y162907D01*
X117572Y162861D01*
X117566Y162820D01*
X117549Y162779D01*
X117531Y162750D01*
X117519Y162721D01*
X117502Y162703D01*
X117496Y162692D01*
X117490Y162686D01*
X117455Y162657D01*
X117414Y162633D01*
X117379Y162622D01*
X117344Y162610D01*
X117315Y162604D01*
X117292Y162598D01*
X117269D01*
X117222Y162604D01*
X117181Y162610D01*
X117140Y162628D01*
X117111Y162645D01*
X117082Y162657D01*
X117065Y162674D01*
X117053Y162680D01*
X117047Y162686D01*
X117018Y162721D01*
X116995Y162762D01*
X116977Y162797D01*
X116966Y162832D01*
X116960Y162861D01*
X116954Y162884D01*
Y162902D01*
Y162907D01*
Y164901D01*
X116103Y165449D01*
X116044Y165484D01*
X115986Y165513D01*
X115934Y165531D01*
X115887Y165548D01*
X115852Y165554D01*
X115823Y165560D01*
X115491D01*
X115432Y165554D01*
X115380Y165548D01*
X115333Y165531D01*
X115298Y165508D01*
X115234Y165455D01*
X115193Y165397D01*
X115170Y165339D01*
X115153Y165286D01*
X115147Y165245D01*
Y165239D01*
Y165234D01*
X115053Y162907D01*
X115048Y162855D01*
X115036Y162808D01*
X115024Y162773D01*
X115007Y162738D01*
X114989Y162715D01*
X114972Y162698D01*
X114966Y162686D01*
X114960Y162680D01*
X114925Y162651D01*
X114884Y162633D01*
X114814Y162610D01*
X114785Y162604D01*
X114762Y162598D01*
X114744D01*
X114698Y162604D01*
X114657Y162610D01*
X114616Y162628D01*
X114587Y162645D01*
X114558Y162657D01*
X114540Y162674D01*
X114529Y162680D01*
X114523Y162686D01*
X114494Y162721D01*
X114470Y162762D01*
X114453Y162797D01*
X114441Y162832D01*
X114435Y162861D01*
X114429Y162884D01*
Y162902D01*
Y162907D01*
X114517Y165269D01*
X114523Y165339D01*
X114534Y165409D01*
X114569Y165531D01*
X114616Y165642D01*
X114669Y165735D01*
X114721Y165811D01*
X114768Y165869D01*
X114797Y165904D01*
X114803Y165916D01*
X114808D01*
X114861Y165962D01*
X114913Y166003D01*
X115024Y166073D01*
X115129Y166120D01*
X115228Y166149D01*
X115316Y166172D01*
X115357Y166178D01*
X115386D01*
X115415Y166184D01*
X115741D01*
X115875Y166178D01*
X115992Y166155D01*
X116103Y166126D01*
X116202Y166091D01*
X116278Y166056D01*
X116336Y166026D01*
X116359Y166015D01*
X116377Y166003D01*
X116383Y165997D01*
X116388D01*
X116954Y165659D01*
Y165863D01*
X116960Y165910D01*
X116966Y165951D01*
X116983Y165991D01*
X117001Y166021D01*
X117018Y166050D01*
X117030Y166067D01*
X117041Y166079D01*
X117047Y166085D01*
X117082Y166120D01*
X117123Y166143D01*
X117158Y166161D01*
X117193Y166172D01*
X117222Y166178D01*
X117245Y166184D01*
X117269D01*
X117315Y166178D01*
D02*
G37*
G36*
X121539Y158298D02*
X121644Y158275D01*
X121744Y158246D01*
X121825Y158205D01*
X121895Y158164D01*
X121948Y158135D01*
X121983Y158112D01*
X121988Y158100D01*
X121994D01*
X122251Y157896D01*
X122303Y157849D01*
X122350Y157797D01*
X122391Y157744D01*
X122426Y157692D01*
X122455Y157639D01*
X122472Y157604D01*
X122484Y157581D01*
X122490Y157570D01*
X122519Y157500D01*
X122542Y157435D01*
X122560Y157377D01*
X122571Y157330D01*
X122577Y157295D01*
X122583Y157266D01*
Y157249D01*
Y157243D01*
Y155809D01*
X122577Y155751D01*
X122571Y155686D01*
X122560Y155628D01*
X122542Y155576D01*
X122525Y155535D01*
X122513Y155494D01*
X122507Y155471D01*
X122501Y155465D01*
X122466Y155401D01*
X122431Y155342D01*
X122391Y155296D01*
X122356Y155255D01*
X122326Y155220D01*
X122303Y155197D01*
X122286Y155185D01*
X122280Y155179D01*
X122006Y154934D01*
X121971Y154905D01*
X121924Y154882D01*
X121837Y154835D01*
X121802Y154818D01*
X121767Y154800D01*
X121744Y154794D01*
X121738Y154788D01*
X121674Y154765D01*
X121609Y154754D01*
X121551Y154742D01*
X121499Y154730D01*
X121452D01*
X121423Y154724D01*
X119750D01*
X119703Y154730D01*
X119662Y154736D01*
X119598Y154771D01*
X119569Y154783D01*
X119551Y154800D01*
X119540Y154806D01*
X119534Y154812D01*
X119499Y154847D01*
X119476Y154888D01*
X119458Y154923D01*
X119446Y154958D01*
X119441Y154987D01*
X119435Y155010D01*
Y155028D01*
Y155033D01*
X119441Y155080D01*
X119446Y155121D01*
X119464Y155162D01*
X119481Y155191D01*
X119499Y155220D01*
X119511Y155237D01*
X119522Y155249D01*
X119528Y155255D01*
X119563Y155284D01*
X119604Y155307D01*
X119639Y155325D01*
X119674Y155337D01*
X119703Y155342D01*
X119726Y155348D01*
X121353D01*
X121405Y155354D01*
X121452Y155366D01*
X121504Y155383D01*
X121545Y155406D01*
X121586Y155424D01*
X121615Y155441D01*
X121633Y155453D01*
X121639Y155459D01*
X121819Y155616D01*
X121866Y155657D01*
X121895Y155704D01*
X121918Y155751D01*
X121936Y155791D01*
X121948Y155826D01*
X121953Y155861D01*
Y155879D01*
Y155885D01*
Y156071D01*
X119750D01*
X119703Y156077D01*
X119662Y156083D01*
X119621Y156100D01*
X119592Y156118D01*
X119563Y156129D01*
X119545Y156147D01*
X119534Y156153D01*
X119528Y156159D01*
X119499Y156194D01*
X119476Y156234D01*
X119458Y156269D01*
X119446Y156304D01*
X119441Y156333D01*
X119435Y156357D01*
Y156374D01*
Y156380D01*
Y157132D01*
Y157214D01*
X119446Y157290D01*
X119476Y157430D01*
X119516Y157546D01*
X119563Y157639D01*
X119610Y157715D01*
X119650Y157768D01*
X119680Y157797D01*
X119685Y157808D01*
X119691D01*
X119924Y158030D01*
X119977Y158077D01*
X120035Y158123D01*
X120146Y158193D01*
X120251Y158240D01*
X120344Y158275D01*
X120426Y158298D01*
X120490Y158304D01*
X120513Y158310D01*
X121423D01*
X121539Y158298D01*
D02*
G37*
G36*
X127165Y155033D02*
X127160Y154987D01*
X127154Y154946D01*
X127136Y154905D01*
X127119Y154876D01*
X127107Y154847D01*
X127090Y154829D01*
X127084Y154818D01*
X127078Y154812D01*
X127043Y154783D01*
X127002Y154759D01*
X126967Y154748D01*
X126932Y154736D01*
X126903Y154730D01*
X126880Y154724D01*
X126856D01*
X126810Y154730D01*
X126769Y154736D01*
X126728Y154754D01*
X126699Y154771D01*
X126670Y154783D01*
X126652Y154800D01*
X126641Y154806D01*
X126635Y154812D01*
X126600Y154847D01*
X126576Y154888D01*
X126559Y154923D01*
X126547Y154958D01*
X126541Y154987D01*
X126536Y155010D01*
Y155028D01*
Y155033D01*
Y157418D01*
X126093D01*
X124624Y154888D01*
X124583Y154835D01*
X124542Y154794D01*
X124495Y154765D01*
X124449Y154748D01*
X124408Y154736D01*
X124373Y154724D01*
X124344D01*
X124297Y154730D01*
X124256Y154736D01*
X124186Y154771D01*
X124157Y154783D01*
X124140Y154800D01*
X124128Y154806D01*
X124122Y154812D01*
X124087Y154847D01*
X124064Y154888D01*
X124046Y154923D01*
X124035Y154958D01*
X124029Y154987D01*
X124023Y155010D01*
Y155022D01*
Y155028D01*
Y155063D01*
X124035Y155103D01*
X124052Y155162D01*
X124064Y155191D01*
X124075Y155208D01*
X124081Y155220D01*
X124087Y155226D01*
X125358Y157418D01*
X124962D01*
X124892Y157424D01*
X124822Y157430D01*
X124693Y157459D01*
X124583Y157505D01*
X124489Y157558D01*
X124408Y157604D01*
X124349Y157651D01*
X124332Y157669D01*
X124314Y157680D01*
X124309Y157692D01*
X124303D01*
X124256Y157744D01*
X124209Y157797D01*
X124140Y157913D01*
X124093Y158024D01*
X124058Y158129D01*
X124035Y158217D01*
X124029Y158257D01*
Y158292D01*
X124023Y158321D01*
Y158339D01*
Y158351D01*
Y158356D01*
Y158718D01*
X124029Y158788D01*
X124035Y158858D01*
X124064Y158986D01*
X124110Y159097D01*
X124163Y159196D01*
X124215Y159272D01*
X124256Y159336D01*
X124279Y159353D01*
X124291Y159371D01*
X124297Y159377D01*
X124303Y159383D01*
X124355Y159429D01*
X124408Y159476D01*
X124519Y159546D01*
X124629Y159592D01*
X124734Y159627D01*
X124828Y159651D01*
X124863Y159657D01*
X124898D01*
X124927Y159662D01*
X127165D01*
Y155033D01*
D02*
G37*
G36*
X94517Y159657D02*
X94599Y159633D01*
X94675Y159604D01*
X94733Y159575D01*
X94785Y159540D01*
X94820Y159511D01*
X94850Y159487D01*
X94855Y159482D01*
X94914Y159412D01*
X94955Y159342D01*
X94990Y159266D01*
X95007Y159202D01*
X95019Y159144D01*
X95025Y159097D01*
X95030Y159068D01*
Y159056D01*
Y155331D01*
X95025Y155243D01*
X95001Y155156D01*
X94978Y155086D01*
X94943Y155022D01*
X94914Y154975D01*
X94885Y154934D01*
X94867Y154911D01*
X94861Y154905D01*
X94791Y154847D01*
X94721Y154806D01*
X94646Y154771D01*
X94582Y154754D01*
X94517Y154742D01*
X94471Y154736D01*
X94442Y154730D01*
X92494D01*
X92401Y154736D01*
X92319Y154759D01*
X92250Y154788D01*
X92185Y154818D01*
X92139Y154853D01*
X92098Y154876D01*
X92075Y154899D01*
X92069Y154905D01*
X92010Y154975D01*
X91964Y155045D01*
X91935Y155115D01*
X91911Y155185D01*
X91900Y155243D01*
X91888Y155290D01*
Y155319D01*
Y155331D01*
Y159056D01*
X91894Y159144D01*
X91917Y159225D01*
X91946Y159301D01*
X91975Y159359D01*
X92010Y159412D01*
X92040Y159452D01*
X92063Y159476D01*
X92069Y159482D01*
X92139Y159540D01*
X92209Y159587D01*
X92279Y159616D01*
X92343Y159639D01*
X92395Y159651D01*
X92442Y159662D01*
X94430D01*
X94517Y159657D01*
D02*
G37*
G36*
X126509Y167531D02*
X126550Y167525D01*
X126591Y167507D01*
X126620Y167490D01*
X126649Y167472D01*
X126667Y167461D01*
X126678Y167449D01*
X126684Y167443D01*
X126713Y167408D01*
X126737Y167367D01*
X126748Y167332D01*
X126760Y167297D01*
X126766Y167262D01*
X126772Y167239D01*
Y167222D01*
Y167216D01*
Y162907D01*
X126766Y162861D01*
X126760Y162820D01*
X126742Y162779D01*
X126725Y162750D01*
X126713Y162721D01*
X126696Y162703D01*
X126690Y162692D01*
X126684Y162686D01*
X126649Y162657D01*
X126608Y162633D01*
X126573Y162622D01*
X126538Y162610D01*
X126509Y162604D01*
X126486Y162598D01*
X126463D01*
X126416Y162604D01*
X126375Y162610D01*
X126334Y162628D01*
X126305Y162645D01*
X126276Y162657D01*
X126259Y162674D01*
X126247Y162680D01*
X126241Y162686D01*
X126212Y162721D01*
X126189Y162762D01*
X126171Y162797D01*
X126160Y162832D01*
X126154Y162861D01*
X126148Y162884D01*
Y162902D01*
Y162907D01*
Y164400D01*
X124160Y162680D01*
X124119Y162651D01*
X124078Y162633D01*
X124008Y162610D01*
X123979Y162604D01*
X123956Y162598D01*
X123932D01*
X123886Y162604D01*
X123839Y162616D01*
X123804Y162628D01*
X123769Y162651D01*
X123740Y162668D01*
X123723Y162680D01*
X123711Y162692D01*
X123705Y162698D01*
X123676Y162738D01*
X123653Y162773D01*
X123635Y162814D01*
X123624Y162843D01*
X123618Y162872D01*
X123612Y162896D01*
Y162913D01*
Y162919D01*
X123618Y162966D01*
X123624Y163001D01*
X123658Y163065D01*
X123676Y163088D01*
X123688Y163111D01*
X123699Y163117D01*
X123705Y163123D01*
X125973Y165076D01*
X123711Y167006D01*
X123676Y167041D01*
X123653Y167076D01*
X123635Y167111D01*
X123624Y167146D01*
X123612Y167175D01*
X123606Y167198D01*
Y167216D01*
Y167222D01*
X123612Y167268D01*
X123618Y167309D01*
X123653Y167373D01*
X123670Y167402D01*
X123682Y167420D01*
X123693Y167431D01*
X123699Y167437D01*
X123734Y167472D01*
X123769Y167496D01*
X123804Y167513D01*
X123839Y167525D01*
X123868Y167531D01*
X123892Y167536D01*
X123915D01*
X123962Y167531D01*
X124002Y167525D01*
X124043Y167507D01*
X124078Y167496D01*
X124107Y167478D01*
X124131Y167461D01*
X124142Y167455D01*
X124148Y167449D01*
X126148Y165741D01*
Y167222D01*
X126154Y167268D01*
X126160Y167309D01*
X126177Y167350D01*
X126195Y167379D01*
X126212Y167408D01*
X126224Y167426D01*
X126235Y167437D01*
X126241Y167443D01*
X126276Y167472D01*
X126317Y167496D01*
X126352Y167513D01*
X126387Y167525D01*
X126416Y167531D01*
X126439Y167536D01*
X126463D01*
X126509Y167531D01*
D02*
G37*
G36*
X98412Y156683D02*
X98458Y156677D01*
X98493Y156660D01*
X98528Y156642D01*
X98558Y156625D01*
X98575Y156613D01*
X98587Y156602D01*
X98593Y156596D01*
X98622Y156561D01*
X98645Y156520D01*
X98657Y156485D01*
X98668Y156450D01*
X98674Y156421D01*
X98680Y156398D01*
Y156380D01*
Y156374D01*
Y155838D01*
X98674Y155791D01*
X98668Y155751D01*
X98651Y155710D01*
X98633Y155681D01*
X98622Y155651D01*
X98604Y155634D01*
X98598Y155622D01*
X98593Y155616D01*
X98558Y155587D01*
X98517Y155564D01*
X98482Y155552D01*
X98447Y155541D01*
X98418Y155535D01*
X98394Y155529D01*
X97730D01*
X97683Y155535D01*
X97642Y155546D01*
X97601Y155558D01*
X97572Y155576D01*
X97543Y155593D01*
X97526Y155611D01*
X97514Y155616D01*
X97508Y155622D01*
X97479Y155657D01*
X97456Y155698D01*
X97438Y155733D01*
X97426Y155768D01*
X97421Y155797D01*
X97415Y155821D01*
Y155838D01*
Y155844D01*
Y156374D01*
X97421Y156421D01*
X97426Y156462D01*
X97444Y156503D01*
X97461Y156532D01*
X97479Y156561D01*
X97491Y156578D01*
X97502Y156590D01*
X97508Y156596D01*
X97543Y156625D01*
X97584Y156648D01*
X97619Y156666D01*
X97654Y156677D01*
X97683Y156683D01*
X97706Y156689D01*
X98365D01*
X98412Y156683D01*
D02*
G37*
G36*
X112092Y167257D02*
X112133Y167251D01*
X112173Y167233D01*
X112203Y167216D01*
X112232Y167198D01*
X112249Y167187D01*
X112261Y167175D01*
X112267Y167169D01*
X112296Y167134D01*
X112319Y167093D01*
X112331Y167058D01*
X112342Y167023D01*
X112348Y166994D01*
X112354Y166971D01*
Y166953D01*
Y166948D01*
Y166184D01*
X112680D01*
X112727Y166178D01*
X112768Y166172D01*
X112809Y166155D01*
X112838Y166137D01*
X112867Y166120D01*
X112885Y166108D01*
X112896Y166096D01*
X112902Y166091D01*
X112931Y166056D01*
X112954Y166015D01*
X112966Y165980D01*
X112978Y165945D01*
X112984Y165916D01*
X112989Y165892D01*
Y165875D01*
Y165869D01*
X112984Y165822D01*
X112978Y165776D01*
X112960Y165741D01*
X112943Y165706D01*
X112931Y165682D01*
X112914Y165665D01*
X112908Y165653D01*
X112902Y165647D01*
X112867Y165618D01*
X112826Y165595D01*
X112791Y165583D01*
X112756Y165572D01*
X112727Y165566D01*
X112704Y165560D01*
X112360D01*
Y163531D01*
X112354Y163461D01*
X112348Y163391D01*
X112319Y163269D01*
X112272Y163152D01*
X112220Y163059D01*
X112173Y162977D01*
X112127Y162919D01*
X112109Y162902D01*
X112098Y162884D01*
X112086Y162878D01*
Y162872D01*
X112033Y162826D01*
X111975Y162785D01*
X111864Y162715D01*
X111754Y162668D01*
X111649Y162633D01*
X111555Y162616D01*
X111520Y162604D01*
X111485D01*
X111456Y162598D01*
X110792D01*
X110716Y162604D01*
X110646Y162610D01*
X110512Y162645D01*
X110401Y162686D01*
X110302Y162738D01*
X110220Y162791D01*
X110162Y162838D01*
X110144Y162855D01*
X110127Y162867D01*
X110121Y162872D01*
X110115Y162878D01*
X110069Y162931D01*
X110028Y162983D01*
X109958Y163082D01*
X109911Y163181D01*
X109882Y163263D01*
X109859Y163333D01*
X109853Y163391D01*
X109847Y163426D01*
Y163432D01*
Y163438D01*
X109853Y163485D01*
X109859Y163531D01*
X109876Y163566D01*
X109894Y163601D01*
X109911Y163630D01*
X109923Y163648D01*
X109935Y163660D01*
X109940Y163665D01*
X109975Y163695D01*
X110010Y163718D01*
X110051Y163735D01*
X110086Y163747D01*
X110115Y163753D01*
X110139Y163759D01*
X110203D01*
X110244Y163747D01*
X110308Y163718D01*
X110366Y163671D01*
X110407Y163625D01*
X110442Y163578D01*
X110465Y163531D01*
X110477Y163502D01*
X110483Y163496D01*
Y163490D01*
X110500Y163444D01*
X110518Y163403D01*
X110570Y163333D01*
X110623Y163286D01*
X110675Y163257D01*
X110728Y163234D01*
X110768Y163228D01*
X110798Y163222D01*
X111421D01*
X111468Y163228D01*
X111509Y163234D01*
X111549Y163251D01*
X111579Y163269D01*
X111608Y163280D01*
X111625Y163298D01*
X111637Y163304D01*
X111643Y163310D01*
X111672Y163345D01*
X111695Y163385D01*
X111713Y163420D01*
X111724Y163455D01*
X111730Y163485D01*
X111736Y163508D01*
Y163525D01*
Y163531D01*
Y165560D01*
X110477D01*
X110430Y165566D01*
X110389Y165572D01*
X110348Y165589D01*
X110319Y165607D01*
X110290Y165618D01*
X110273Y165636D01*
X110261Y165642D01*
X110255Y165647D01*
X110226Y165682D01*
X110203Y165723D01*
X110185Y165758D01*
X110174Y165793D01*
X110168Y165822D01*
X110162Y165846D01*
Y165863D01*
Y165869D01*
X110168Y165916D01*
X110174Y165956D01*
X110191Y165997D01*
X110209Y166026D01*
X110226Y166056D01*
X110238Y166073D01*
X110249Y166085D01*
X110255Y166091D01*
X110290Y166120D01*
X110331Y166143D01*
X110366Y166161D01*
X110401Y166172D01*
X110430Y166178D01*
X110453Y166184D01*
X111730D01*
Y166948D01*
X111736Y166994D01*
X111748Y167035D01*
X111759Y167076D01*
X111777Y167105D01*
X111800Y167134D01*
X111812Y167152D01*
X111823Y167163D01*
X111829Y167169D01*
X111864Y167198D01*
X111899Y167222D01*
X111940Y167239D01*
X111969Y167251D01*
X111998Y167257D01*
X112022Y167262D01*
X112045D01*
X112092Y167257D01*
D02*
G37*
G36*
X112194Y156683D02*
X112241Y156677D01*
X112276Y156660D01*
X112311Y156642D01*
X112340Y156625D01*
X112357Y156613D01*
X112369Y156602D01*
X112375Y156596D01*
X112404Y156561D01*
X112427Y156520D01*
X112439Y156485D01*
X112450Y156450D01*
X112456Y156421D01*
X112462Y156398D01*
Y156380D01*
Y156374D01*
Y155838D01*
X112456Y155791D01*
X112450Y155751D01*
X112433Y155710D01*
X112416Y155681D01*
X112404Y155651D01*
X112386Y155634D01*
X112381Y155622D01*
X112375Y155616D01*
X112340Y155587D01*
X112299Y155564D01*
X112264Y155552D01*
X112229Y155541D01*
X112200Y155535D01*
X112176Y155529D01*
X111512D01*
X111465Y155535D01*
X111424Y155546D01*
X111383Y155558D01*
X111354Y155576D01*
X111325Y155593D01*
X111308Y155611D01*
X111296Y155616D01*
X111290Y155622D01*
X111261Y155657D01*
X111238Y155698D01*
X111220Y155733D01*
X111209Y155768D01*
X111203Y155797D01*
X111197Y155821D01*
Y155838D01*
Y155844D01*
Y156374D01*
X111203Y156421D01*
X111209Y156462D01*
X111226Y156503D01*
X111244Y156532D01*
X111261Y156561D01*
X111273Y156578D01*
X111284Y156590D01*
X111290Y156596D01*
X111325Y156625D01*
X111366Y156648D01*
X111401Y156666D01*
X111436Y156677D01*
X111465Y156683D01*
X111488Y156689D01*
X112147D01*
X112194Y156683D01*
D02*
G37*
G36*
X85157Y166178D02*
X85198Y166166D01*
X85239Y166155D01*
X85268Y166137D01*
X85297Y166114D01*
X85315Y166102D01*
X85326Y166091D01*
X85332Y166085D01*
X85361Y166050D01*
X85385Y166009D01*
X85396Y165974D01*
X85408Y165939D01*
X85414Y165910D01*
X85419Y165887D01*
Y165869D01*
Y165863D01*
Y162907D01*
X85414Y162861D01*
X85408Y162820D01*
X85390Y162779D01*
X85373Y162750D01*
X85361Y162721D01*
X85344Y162703D01*
X85338Y162692D01*
X85332Y162686D01*
X85297Y162657D01*
X85256Y162633D01*
X85221Y162622D01*
X85186Y162610D01*
X85157Y162604D01*
X85134Y162598D01*
X85110D01*
X85064Y162604D01*
X85023Y162610D01*
X84982Y162628D01*
X84953Y162645D01*
X84924Y162657D01*
X84906Y162674D01*
X84895Y162680D01*
X84889Y162686D01*
X84860Y162721D01*
X84837Y162762D01*
X84819Y162797D01*
X84807Y162832D01*
X84802Y162861D01*
X84796Y162884D01*
Y162902D01*
Y162907D01*
Y164651D01*
X83909Y165414D01*
X83851Y165461D01*
X83799Y165496D01*
X83746Y165519D01*
X83705Y165537D01*
X83671Y165548D01*
X83641Y165554D01*
X83216D01*
X83169Y165548D01*
X83128Y165543D01*
X83087Y165525D01*
X83058Y165508D01*
X83029Y165490D01*
X83012Y165478D01*
X83000Y165467D01*
X82994Y165461D01*
X82965Y165426D01*
X82942Y165385D01*
X82924Y165350D01*
X82913Y165315D01*
X82907Y165286D01*
X82901Y165263D01*
Y165245D01*
Y165239D01*
Y165065D01*
X82895Y165018D01*
X82889Y164977D01*
X82872Y164936D01*
X82854Y164907D01*
X82843Y164878D01*
X82825Y164860D01*
X82819Y164849D01*
X82814Y164843D01*
X82779Y164814D01*
X82738Y164790D01*
X82703Y164779D01*
X82668Y164767D01*
X82639Y164761D01*
X82615Y164755D01*
X82592D01*
X82545Y164761D01*
X82504Y164767D01*
X82464Y164785D01*
X82434Y164802D01*
X82405Y164814D01*
X82388Y164831D01*
X82376Y164837D01*
X82370Y164843D01*
X82341Y164878D01*
X82318Y164919D01*
X82300Y164954D01*
X82289Y164995D01*
X82283Y165024D01*
X82277Y165047D01*
Y165065D01*
Y165070D01*
Y165239D01*
X82283Y165309D01*
X82289Y165379D01*
X82318Y165508D01*
X82364Y165618D01*
X82417Y165712D01*
X82469Y165793D01*
X82510Y165852D01*
X82534Y165869D01*
X82545Y165887D01*
X82551Y165892D01*
X82557Y165898D01*
X82609Y165945D01*
X82662Y165991D01*
X82773Y166061D01*
X82883Y166108D01*
X82988Y166143D01*
X83082Y166166D01*
X83117Y166172D01*
X83152D01*
X83181Y166178D01*
X83729D01*
X83781Y166166D01*
X83892Y166137D01*
X83997Y166091D01*
X84090Y166044D01*
X84172Y165997D01*
X84236Y165951D01*
X84259Y165933D01*
X84277Y165921D01*
X84283Y165916D01*
X84288Y165910D01*
X84796Y165478D01*
Y165863D01*
X84802Y165910D01*
X84807Y165956D01*
X84825Y165991D01*
X84842Y166026D01*
X84860Y166056D01*
X84871Y166073D01*
X84883Y166085D01*
X84889Y166091D01*
X84924Y166120D01*
X84965Y166143D01*
X85000Y166161D01*
X85035Y166172D01*
X85064Y166178D01*
X85087Y166184D01*
X85110D01*
X85157Y166178D01*
D02*
G37*
G36*
X71375D02*
X71416Y166166D01*
X71457Y166155D01*
X71486Y166137D01*
X71515Y166114D01*
X71532Y166102D01*
X71544Y166091D01*
X71550Y166085D01*
X71579Y166050D01*
X71602Y166009D01*
X71614Y165974D01*
X71626Y165939D01*
X71631Y165910D01*
X71637Y165887D01*
Y165869D01*
Y165863D01*
Y162907D01*
X71631Y162861D01*
X71626Y162820D01*
X71608Y162779D01*
X71591Y162750D01*
X71579Y162721D01*
X71561Y162703D01*
X71556Y162692D01*
X71550Y162686D01*
X71515Y162657D01*
X71474Y162633D01*
X71439Y162622D01*
X71404Y162610D01*
X71375Y162604D01*
X71352Y162598D01*
X71328D01*
X71282Y162604D01*
X71241Y162610D01*
X71200Y162628D01*
X71171Y162645D01*
X71142Y162657D01*
X71124Y162674D01*
X71113Y162680D01*
X71107Y162686D01*
X71078Y162721D01*
X71054Y162762D01*
X71037Y162797D01*
X71025Y162832D01*
X71019Y162861D01*
X71013Y162884D01*
Y162902D01*
Y162907D01*
Y164651D01*
X70127Y165414D01*
X70069Y165461D01*
X70017Y165496D01*
X69964Y165519D01*
X69923Y165537D01*
X69888Y165548D01*
X69859Y165554D01*
X69434D01*
X69387Y165548D01*
X69346Y165543D01*
X69305Y165525D01*
X69276Y165508D01*
X69247Y165490D01*
X69230Y165478D01*
X69218Y165467D01*
X69212Y165461D01*
X69183Y165426D01*
X69160Y165385D01*
X69142Y165350D01*
X69130Y165315D01*
X69125Y165286D01*
X69119Y165263D01*
Y165245D01*
Y165239D01*
Y165065D01*
X69113Y165018D01*
X69107Y164977D01*
X69090Y164936D01*
X69072Y164907D01*
X69060Y164878D01*
X69043Y164860D01*
X69037Y164849D01*
X69031Y164843D01*
X68996Y164814D01*
X68955Y164790D01*
X68921Y164779D01*
X68886Y164767D01*
X68856Y164761D01*
X68833Y164755D01*
X68810D01*
X68763Y164761D01*
X68722Y164767D01*
X68682Y164785D01*
X68652Y164802D01*
X68623Y164814D01*
X68606Y164831D01*
X68594Y164837D01*
X68588Y164843D01*
X68559Y164878D01*
X68536Y164919D01*
X68518Y164954D01*
X68507Y164995D01*
X68501Y165024D01*
X68495Y165047D01*
Y165065D01*
Y165070D01*
Y165239D01*
X68501Y165309D01*
X68507Y165379D01*
X68536Y165508D01*
X68582Y165618D01*
X68635Y165712D01*
X68687Y165793D01*
X68728Y165852D01*
X68752Y165869D01*
X68763Y165887D01*
X68769Y165892D01*
X68775Y165898D01*
X68827Y165945D01*
X68880Y165991D01*
X68990Y166061D01*
X69101Y166108D01*
X69206Y166143D01*
X69300Y166166D01*
X69335Y166172D01*
X69370D01*
X69399Y166178D01*
X69947D01*
X69999Y166166D01*
X70110Y166137D01*
X70215Y166091D01*
X70308Y166044D01*
X70390Y165997D01*
X70454Y165951D01*
X70477Y165933D01*
X70495Y165921D01*
X70500Y165916D01*
X70506Y165910D01*
X71013Y165478D01*
Y165863D01*
X71019Y165910D01*
X71025Y165956D01*
X71043Y165991D01*
X71060Y166026D01*
X71078Y166056D01*
X71089Y166073D01*
X71101Y166085D01*
X71107Y166091D01*
X71142Y166120D01*
X71183Y166143D01*
X71218Y166161D01*
X71253Y166172D01*
X71282Y166178D01*
X71305Y166184D01*
X71328D01*
X71375Y166178D01*
D02*
G37*
G36*
X80563Y167531D02*
X80604Y167525D01*
X80645Y167507D01*
X80674Y167490D01*
X80703Y167472D01*
X80721Y167461D01*
X80732Y167449D01*
X80738Y167443D01*
X80767Y167408D01*
X80790Y167367D01*
X80802Y167332D01*
X80814Y167297D01*
X80820Y167262D01*
X80825Y167239D01*
Y167222D01*
Y167216D01*
Y162907D01*
X80820Y162861D01*
X80814Y162820D01*
X80796Y162779D01*
X80779Y162750D01*
X80767Y162721D01*
X80750Y162703D01*
X80744Y162692D01*
X80738Y162686D01*
X80703Y162657D01*
X80662Y162633D01*
X80627Y162622D01*
X80592Y162610D01*
X80563Y162604D01*
X80540Y162598D01*
X80516D01*
X80470Y162604D01*
X80429Y162610D01*
X80388Y162628D01*
X80359Y162645D01*
X80330Y162657D01*
X80312Y162674D01*
X80301Y162680D01*
X80295Y162686D01*
X80266Y162721D01*
X80242Y162762D01*
X80225Y162797D01*
X80213Y162832D01*
X80207Y162861D01*
X80202Y162884D01*
Y162902D01*
Y162907D01*
Y163852D01*
X79875Y164126D01*
X78214Y162680D01*
X78173Y162651D01*
X78138Y162633D01*
X78062Y162610D01*
X78027Y162604D01*
X78004Y162598D01*
X77980D01*
X77934Y162604D01*
X77893Y162616D01*
X77858Y162628D01*
X77823Y162645D01*
X77800Y162663D01*
X77782Y162680D01*
X77771Y162686D01*
X77765Y162692D01*
X77736Y162733D01*
X77712Y162768D01*
X77695Y162808D01*
X77683Y162838D01*
X77677Y162867D01*
X77671Y162890D01*
Y162907D01*
Y162913D01*
X77677Y162960D01*
X77689Y163001D01*
X77701Y163036D01*
X77718Y163065D01*
X77741Y163088D01*
X77753Y163106D01*
X77765Y163111D01*
X77771Y163117D01*
X79391Y164534D01*
X78074Y165642D01*
X78039Y165677D01*
X78015Y165712D01*
X77998Y165747D01*
X77986Y165782D01*
X77980Y165817D01*
X77974Y165840D01*
Y165857D01*
Y165863D01*
X77980Y165910D01*
X77986Y165951D01*
X78004Y165991D01*
X78021Y166021D01*
X78039Y166050D01*
X78050Y166067D01*
X78062Y166079D01*
X78068Y166085D01*
X78103Y166120D01*
X78138Y166143D01*
X78179Y166161D01*
X78214Y166172D01*
X78243Y166178D01*
X78266Y166184D01*
X78289D01*
X78336Y166178D01*
X78377Y166172D01*
X78418Y166155D01*
X78453Y166137D01*
X78482Y166120D01*
X78505Y166108D01*
X78517Y166096D01*
X78523Y166091D01*
X80202Y164662D01*
Y167216D01*
X80207Y167262D01*
X80213Y167309D01*
X80231Y167344D01*
X80248Y167379D01*
X80266Y167408D01*
X80277Y167426D01*
X80289Y167437D01*
X80295Y167443D01*
X80330Y167472D01*
X80371Y167496D01*
X80406Y167513D01*
X80441Y167525D01*
X80470Y167531D01*
X80493Y167536D01*
X80516D01*
X80563Y167531D01*
D02*
G37*
%LPC*%
G36*
X88842Y165554D02*
X88037D01*
X87990Y165548D01*
X87950Y165537D01*
X87862Y165496D01*
X87833Y165473D01*
X87804Y165455D01*
X87786Y165444D01*
X87781Y165438D01*
X87600Y165274D01*
X87565Y165234D01*
X87536Y165193D01*
X87518Y165146D01*
X87501Y165105D01*
X87495Y165065D01*
X87489Y165035D01*
Y165012D01*
Y165006D01*
Y164575D01*
X89384D01*
Y165059D01*
X89378Y165111D01*
X89366Y165158D01*
X89343Y165199D01*
X89320Y165234D01*
X89302Y165263D01*
X89279Y165280D01*
X89267Y165292D01*
X89261Y165298D01*
X89081Y165449D01*
X89034Y165484D01*
X88987Y165508D01*
X88947Y165531D01*
X88906Y165543D01*
X88871Y165548D01*
X88842Y165554D01*
D02*
G37*
G36*
X102554Y165560D02*
X101872D01*
X101819Y165554D01*
X101773Y165548D01*
X101726Y165531D01*
X101691Y165513D01*
X101656Y165496D01*
X101633Y165484D01*
X101621Y165473D01*
X101615Y165467D01*
X101394Y165292D01*
X101353Y165251D01*
X101324Y165210D01*
X101306Y165164D01*
X101289Y165123D01*
X101283Y165082D01*
X101277Y165047D01*
Y165024D01*
Y165018D01*
Y163753D01*
X101283Y163695D01*
X101295Y163648D01*
X101312Y163607D01*
X101335Y163572D01*
X101359Y163543D01*
X101376Y163525D01*
X101388Y163514D01*
X101394Y163508D01*
X101586Y163339D01*
X101633Y163304D01*
X101685Y163275D01*
X101732Y163257D01*
X101778Y163240D01*
X101813Y163234D01*
X101843Y163228D01*
X102601D01*
X102647Y163234D01*
X102694Y163240D01*
X102729Y163251D01*
X102758Y163263D01*
X102787Y163275D01*
X102805Y163280D01*
X102810Y163292D01*
X102816D01*
X103049Y163490D01*
X103090Y163531D01*
X103119Y163578D01*
X103143Y163619D01*
X103154Y163665D01*
X103166Y163706D01*
X103172Y163735D01*
Y163759D01*
Y163764D01*
Y165024D01*
X103166Y165082D01*
X103154Y165129D01*
X103137Y165175D01*
X103113Y165210D01*
X103096Y165239D01*
X103078Y165257D01*
X103067Y165269D01*
X103061Y165274D01*
X102845Y165455D01*
X102799Y165490D01*
X102746Y165513D01*
X102694Y165537D01*
X102641Y165548D01*
X102595Y165554D01*
X102554Y165560D01*
D02*
G37*
G36*
X120930D02*
X120248D01*
X120195Y165554D01*
X120149Y165548D01*
X120102Y165531D01*
X120067Y165513D01*
X120032Y165496D01*
X120009Y165484D01*
X119997Y165473D01*
X119991Y165467D01*
X119770Y165292D01*
X119729Y165251D01*
X119700Y165210D01*
X119682Y165164D01*
X119665Y165123D01*
X119659Y165082D01*
X119653Y165047D01*
Y165024D01*
Y165018D01*
Y163753D01*
X119659Y163695D01*
X119671Y163648D01*
X119688Y163607D01*
X119711Y163572D01*
X119735Y163543D01*
X119752Y163525D01*
X119764Y163514D01*
X119770Y163508D01*
X119962Y163339D01*
X120009Y163304D01*
X120061Y163275D01*
X120108Y163257D01*
X120155Y163240D01*
X120190Y163234D01*
X120219Y163228D01*
X120977D01*
X121023Y163234D01*
X121070Y163240D01*
X121105Y163251D01*
X121134Y163263D01*
X121163Y163275D01*
X121181Y163280D01*
X121186Y163292D01*
X121192D01*
X121425Y163490D01*
X121466Y163531D01*
X121495Y163578D01*
X121519Y163619D01*
X121530Y163665D01*
X121542Y163706D01*
X121548Y163735D01*
Y163759D01*
Y163764D01*
Y165024D01*
X121542Y165082D01*
X121530Y165129D01*
X121513Y165175D01*
X121490Y165210D01*
X121472Y165239D01*
X121455Y165257D01*
X121443Y165269D01*
X121437Y165274D01*
X121221Y165455D01*
X121175Y165490D01*
X121122Y165513D01*
X121070Y165537D01*
X121017Y165548D01*
X120971Y165554D01*
X120930Y165560D01*
D02*
G37*
G36*
X74990D02*
X74308D01*
X74255Y165554D01*
X74208Y165548D01*
X74162Y165531D01*
X74127Y165513D01*
X74092Y165496D01*
X74068Y165484D01*
X74057Y165473D01*
X74051Y165467D01*
X73829Y165292D01*
X73789Y165251D01*
X73760Y165210D01*
X73742Y165164D01*
X73725Y165123D01*
X73719Y165082D01*
X73713Y165047D01*
Y165024D01*
Y165018D01*
Y163753D01*
X73719Y163695D01*
X73730Y163648D01*
X73748Y163607D01*
X73771Y163572D01*
X73794Y163543D01*
X73812Y163525D01*
X73824Y163514D01*
X73829Y163508D01*
X74022Y163339D01*
X74068Y163304D01*
X74121Y163275D01*
X74168Y163257D01*
X74214Y163240D01*
X74249Y163234D01*
X74278Y163228D01*
X75036D01*
X75083Y163234D01*
X75129Y163240D01*
X75165Y163251D01*
X75194Y163263D01*
X75223Y163275D01*
X75240Y163280D01*
X75246Y163292D01*
X75252D01*
X75485Y163490D01*
X75526Y163531D01*
X75555Y163578D01*
X75578Y163619D01*
X75590Y163665D01*
X75602Y163706D01*
X75608Y163735D01*
Y163759D01*
Y163764D01*
Y165024D01*
X75602Y165082D01*
X75590Y165129D01*
X75573Y165175D01*
X75549Y165210D01*
X75532Y165239D01*
X75514Y165257D01*
X75503Y165269D01*
X75497Y165274D01*
X75281Y165455D01*
X75235Y165490D01*
X75182Y165513D01*
X75129Y165537D01*
X75077Y165548D01*
X75030Y165554D01*
X74990Y165560D01*
D02*
G37*
G36*
X107224Y173428D02*
X106419D01*
X106372Y173422D01*
X106332Y173411D01*
X106244Y173370D01*
X106215Y173347D01*
X106186Y173329D01*
X106168Y173318D01*
X106163Y173312D01*
X105982Y173148D01*
X105947Y173108D01*
X105918Y173067D01*
X105900Y173020D01*
X105883Y172979D01*
X105877Y172939D01*
X105871Y172909D01*
Y172886D01*
Y172880D01*
Y172449D01*
X107766D01*
Y172933D01*
X107760Y172985D01*
X107748Y173032D01*
X107725Y173073D01*
X107702Y173108D01*
X107684Y173137D01*
X107661Y173154D01*
X107649Y173166D01*
X107643Y173172D01*
X107463Y173323D01*
X107416Y173358D01*
X107369Y173382D01*
X107329Y173405D01*
X107288Y173417D01*
X107253Y173422D01*
X107224Y173428D01*
D02*
G37*
G36*
X93716Y172081D02*
X92456D01*
X92410Y172076D01*
X92369Y172070D01*
X92334Y172052D01*
X92299Y172035D01*
X92276Y172017D01*
X92258Y172006D01*
X92246Y171994D01*
X92241Y171988D01*
X92211Y171953D01*
X92188Y171918D01*
X92171Y171878D01*
X92159Y171843D01*
X92153Y171813D01*
X92147Y171790D01*
Y171773D01*
Y171767D01*
X92130Y171510D01*
X92806Y171114D01*
X93692D01*
X93739Y171120D01*
X93780Y171125D01*
X93821Y171143D01*
X93850Y171160D01*
X93879Y171172D01*
X93896Y171189D01*
X93908Y171195D01*
X93914Y171201D01*
X93943Y171236D01*
X93966Y171277D01*
X93978Y171312D01*
X93990Y171347D01*
X93995Y171376D01*
X94001Y171399D01*
Y171417D01*
Y171423D01*
Y171767D01*
X93995Y171813D01*
X93990Y171854D01*
X93972Y171895D01*
X93955Y171924D01*
X93943Y171953D01*
X93925Y171971D01*
X93920Y171982D01*
X93914Y171988D01*
X93879Y172017D01*
X93838Y172041D01*
X93803Y172058D01*
X93768Y172070D01*
X93739Y172076D01*
X93716Y172081D01*
D02*
G37*
G36*
X84254Y173428D02*
X83449D01*
X83402Y173422D01*
X83362Y173411D01*
X83274Y173370D01*
X83245Y173347D01*
X83216Y173329D01*
X83198Y173318D01*
X83192Y173312D01*
X83012Y173148D01*
X82977Y173108D01*
X82947Y173067D01*
X82930Y173020D01*
X82913Y172979D01*
X82907Y172939D01*
X82901Y172909D01*
Y172886D01*
Y172880D01*
Y172449D01*
X84796D01*
Y172933D01*
X84790Y172985D01*
X84778Y173032D01*
X84755Y173073D01*
X84732Y173108D01*
X84714Y173137D01*
X84691Y173154D01*
X84679Y173166D01*
X84673Y173172D01*
X84492Y173323D01*
X84446Y173358D01*
X84399Y173382D01*
X84358Y173405D01*
X84318Y173417D01*
X84283Y173422D01*
X84254Y173428D01*
D02*
G37*
G36*
X66443Y174781D02*
X64542D01*
Y171102D01*
X66443D01*
Y174781D01*
D02*
G37*
G36*
X121405Y157680D02*
X120601D01*
X120554Y157674D01*
X120513Y157663D01*
X120426Y157622D01*
X120397Y157599D01*
X120368Y157581D01*
X120350Y157570D01*
X120344Y157564D01*
X120164Y157400D01*
X120129Y157360D01*
X120099Y157319D01*
X120082Y157272D01*
X120064Y157231D01*
X120059Y157191D01*
X120053Y157161D01*
Y157138D01*
Y157132D01*
Y156701D01*
X121948D01*
Y157185D01*
X121942Y157237D01*
X121930Y157284D01*
X121907Y157325D01*
X121883Y157360D01*
X121866Y157389D01*
X121843Y157406D01*
X121831Y157418D01*
X121825Y157424D01*
X121644Y157575D01*
X121598Y157610D01*
X121551Y157634D01*
X121510Y157657D01*
X121469Y157669D01*
X121434Y157674D01*
X121405Y157680D01*
D02*
G37*
G36*
X126541Y159033D02*
X124962D01*
X124915Y159027D01*
X124874Y159021D01*
X124833Y159004D01*
X124804Y158986D01*
X124775Y158969D01*
X124758Y158957D01*
X124746Y158945D01*
X124740Y158940D01*
X124711Y158905D01*
X124688Y158864D01*
X124670Y158829D01*
X124658Y158794D01*
X124653Y158765D01*
X124647Y158741D01*
Y158724D01*
Y158718D01*
Y158351D01*
X124653Y158304D01*
X124658Y158263D01*
X124676Y158222D01*
X124693Y158193D01*
X124711Y158164D01*
X124723Y158147D01*
X124734Y158135D01*
X124740Y158129D01*
X124775Y158100D01*
X124816Y158077D01*
X124851Y158065D01*
X124886Y158053D01*
X124915Y158047D01*
X124938Y158042D01*
X126541D01*
Y159033D01*
D02*
G37*
G36*
X94407D02*
X92506D01*
Y155354D01*
X94407D01*
Y159033D01*
D02*
G37*
%LPD*%
M02*
