G04 Layer_Color=32896*
%FSLAX25Y25*%
%MOIN*%
G70*
G01*
G75*
G36*
X277785Y81633D02*
X277831Y81626D01*
X277897Y81594D01*
X277923Y81574D01*
X277942Y81561D01*
X277956Y81554D01*
X277962Y81548D01*
X277995Y81515D01*
X278015Y81476D01*
X278041Y81403D01*
X278047Y81371D01*
X278054Y81344D01*
Y81331D01*
Y81325D01*
Y78360D01*
X278047Y78314D01*
X278041Y78274D01*
X278008Y78202D01*
X277988Y78176D01*
X277975Y78163D01*
X277969Y78150D01*
X277962Y78143D01*
X277923Y78110D01*
X277890Y78091D01*
X277818Y78064D01*
X277785Y78058D01*
X277759Y78051D01*
X277739D01*
X277693Y78058D01*
X277654Y78064D01*
X277582Y78097D01*
X277555Y78117D01*
X277536Y78130D01*
X277529Y78136D01*
X277523Y78143D01*
X277490Y78176D01*
X277470Y78215D01*
X277444Y78287D01*
X277437Y78314D01*
X277431Y78340D01*
Y78353D01*
Y78360D01*
Y80577D01*
X276985Y80957D01*
X276945Y80990D01*
X276900Y81003D01*
X276873Y81010D01*
X276860D01*
X276814Y81003D01*
X276781Y80984D01*
X276755Y80957D01*
X276742Y80931D01*
X276729Y80898D01*
X276722Y80872D01*
Y80852D01*
Y80846D01*
Y78360D01*
X276716Y78314D01*
X276709Y78268D01*
X276676Y78202D01*
X276657Y78176D01*
X276644Y78156D01*
X276637Y78143D01*
X276630Y78136D01*
X276598Y78110D01*
X276558Y78091D01*
X276486Y78064D01*
X276460Y78058D01*
X276434Y78051D01*
X276414D01*
X276368Y78058D01*
X276322Y78064D01*
X276250Y78097D01*
X276224Y78110D01*
X276204Y78123D01*
X276198Y78130D01*
X276191Y78136D01*
X276158Y78169D01*
X276138Y78209D01*
X276112Y78281D01*
X276106Y78307D01*
X276099Y78333D01*
Y78346D01*
Y78353D01*
Y80636D01*
X275725Y80951D01*
X275673Y80984D01*
X275633Y81003D01*
X275607Y81010D01*
X275594D01*
X275555Y81003D01*
X275522Y80977D01*
X275502Y80944D01*
X275483Y80911D01*
X275476Y80872D01*
X275469Y80839D01*
X275463Y80813D01*
Y80806D01*
X275391Y78360D01*
X275384Y78314D01*
X275377Y78274D01*
X275345Y78202D01*
X275325Y78176D01*
X275312Y78163D01*
X275305Y78150D01*
X275299Y78143D01*
X275259Y78110D01*
X275227Y78091D01*
X275154Y78064D01*
X275122Y78058D01*
X275096Y78051D01*
X275076D01*
X275030Y78058D01*
X274991Y78064D01*
X274918Y78097D01*
X274892Y78117D01*
X274872Y78130D01*
X274866Y78136D01*
X274859Y78143D01*
X274827Y78176D01*
X274800Y78215D01*
X274787Y78254D01*
X274774Y78287D01*
X274767Y78314D01*
X274761Y78340D01*
Y78353D01*
Y78360D01*
X274846Y80905D01*
X274859Y81023D01*
X274892Y81121D01*
X274932Y81213D01*
X274971Y81285D01*
X275010Y81351D01*
X275049Y81390D01*
X275076Y81423D01*
X275082Y81430D01*
X275161Y81502D01*
X275246Y81554D01*
X275332Y81587D01*
X275410Y81613D01*
X275476Y81626D01*
X275535Y81639D01*
X275581D01*
X275646Y81633D01*
X275712Y81626D01*
X275837Y81587D01*
X275948Y81541D01*
X276047Y81482D01*
X276125Y81423D01*
X276184Y81371D01*
X276224Y81331D01*
X276230Y81325D01*
X276237Y81318D01*
X276283Y81377D01*
X276335Y81423D01*
X276381Y81469D01*
X276434Y81502D01*
X276539Y81561D01*
X276637Y81600D01*
X276722Y81620D01*
X276788Y81633D01*
X276814Y81639D01*
X276853D01*
X276972Y81626D01*
X277077Y81600D01*
X277175Y81561D01*
X277260Y81515D01*
X277332Y81469D01*
X277385Y81430D01*
X277418Y81403D01*
X277431Y81390D01*
X277464Y81476D01*
X277509Y81534D01*
X277555Y81581D01*
X277608Y81607D01*
X277660Y81626D01*
X277700Y81633D01*
X277726Y81639D01*
X277739D01*
X277785Y81633D01*
D02*
G37*
G36*
X263051Y73759D02*
X263130Y73752D01*
X263281Y73706D01*
X263425Y73647D01*
X263543Y73582D01*
X263648Y73516D01*
X263688Y73483D01*
X263727Y73457D01*
X263753Y73431D01*
X263773Y73411D01*
X263786Y73405D01*
X263793Y73398D01*
X263858Y73333D01*
X263917Y73260D01*
X263970Y73195D01*
X264009Y73129D01*
X264048Y73064D01*
X264081Y72998D01*
X264127Y72880D01*
X264153Y72781D01*
X264160Y72736D01*
X264166Y72703D01*
X264173Y72670D01*
Y72650D01*
Y72637D01*
Y72631D01*
Y71306D01*
X264166Y71233D01*
X264153Y71155D01*
X264140Y71082D01*
X264114Y71017D01*
X264048Y70886D01*
X263976Y70768D01*
X263911Y70676D01*
X263878Y70636D01*
X263845Y70604D01*
X263819Y70577D01*
X263806Y70558D01*
X263793Y70544D01*
X263786Y70538D01*
X263714Y70472D01*
X263635Y70420D01*
X263563Y70374D01*
X263491Y70328D01*
X263353Y70262D01*
X263228Y70223D01*
X263123Y70197D01*
X263077Y70190D01*
X263038Y70184D01*
X263005Y70177D01*
X262231D01*
X262153Y70184D01*
X262074Y70190D01*
X261929Y70230D01*
X261792Y70289D01*
X261667Y70354D01*
X261562Y70420D01*
X261523Y70453D01*
X261484Y70479D01*
X261457Y70499D01*
X261438Y70518D01*
X261424Y70525D01*
X261418Y70531D01*
X261346Y70597D01*
X261287Y70669D01*
X261234Y70735D01*
X261188Y70800D01*
X261149Y70866D01*
X261116Y70932D01*
X261070Y71050D01*
X261037Y71155D01*
X261031Y71201D01*
X261024Y71233D01*
X261018Y71266D01*
Y71286D01*
Y71299D01*
Y71306D01*
Y72631D01*
X261024Y72709D01*
X261037Y72788D01*
X261057Y72860D01*
X261077Y72932D01*
X261142Y73064D01*
X261214Y73182D01*
X261293Y73280D01*
X261326Y73319D01*
X261352Y73352D01*
X261379Y73378D01*
X261398Y73398D01*
X261411Y73405D01*
X261418Y73411D01*
X261490Y73477D01*
X261569Y73529D01*
X261641Y73575D01*
X261713Y73621D01*
X261851Y73680D01*
X261969Y73726D01*
X262080Y73746D01*
X262120Y73759D01*
X262159D01*
X262192Y73765D01*
X262966D01*
X263051Y73759D01*
D02*
G37*
G36*
X268522Y81633D02*
X268568Y81626D01*
X268634Y81594D01*
X268660Y81574D01*
X268680Y81554D01*
X268693Y81548D01*
X268700Y81541D01*
X268726Y81508D01*
X268745Y81469D01*
X268772Y81397D01*
X268778Y81364D01*
X268785Y81338D01*
Y81325D01*
Y81318D01*
Y78360D01*
X268778Y78314D01*
X268772Y78274D01*
X268739Y78202D01*
X268719Y78176D01*
X268706Y78163D01*
X268700Y78150D01*
X268693Y78143D01*
X268660Y78110D01*
X268621Y78091D01*
X268549Y78064D01*
X268522Y78058D01*
X268496Y78051D01*
X268476D01*
X268430Y78058D01*
X268391Y78064D01*
X268319Y78097D01*
X268293Y78117D01*
X268273Y78130D01*
X268267Y78136D01*
X268260Y78143D01*
X268227Y78176D01*
X268201Y78215D01*
X268188Y78254D01*
X268175Y78287D01*
X268168Y78314D01*
X268162Y78340D01*
Y78353D01*
Y78360D01*
Y80354D01*
X267309Y80905D01*
X267250Y80944D01*
X267191Y80970D01*
X267138Y80990D01*
X267092Y81003D01*
X267053Y81010D01*
X267027Y81016D01*
X266692D01*
X266633Y81010D01*
X266581Y81003D01*
X266535Y80984D01*
X266495Y80964D01*
X266436Y80911D01*
X266390Y80852D01*
X266364Y80793D01*
X266351Y80741D01*
X266344Y80701D01*
Y80695D01*
Y80688D01*
X266246Y78360D01*
X266240Y78307D01*
X266233Y78261D01*
X266220Y78222D01*
X266200Y78189D01*
X266180Y78163D01*
X266167Y78143D01*
X266161Y78136D01*
X266154Y78130D01*
X266121Y78104D01*
X266082Y78084D01*
X266010Y78064D01*
X265984Y78058D01*
X265957Y78051D01*
X265938D01*
X265892Y78058D01*
X265846Y78064D01*
X265774Y78097D01*
X265747Y78117D01*
X265728Y78130D01*
X265721Y78136D01*
X265715Y78143D01*
X265682Y78176D01*
X265662Y78215D01*
X265636Y78287D01*
X265629Y78314D01*
X265623Y78340D01*
Y78353D01*
Y78360D01*
X265715Y80721D01*
X265734Y80859D01*
X265767Y80984D01*
X265820Y81095D01*
X265872Y81193D01*
X265925Y81266D01*
X265964Y81325D01*
X265997Y81357D01*
X266010Y81371D01*
X266115Y81462D01*
X266226Y81528D01*
X266331Y81574D01*
X266430Y81607D01*
X266522Y81626D01*
X266587Y81633D01*
X266613Y81639D01*
X266941D01*
X267073Y81633D01*
X267197Y81613D01*
X267302Y81581D01*
X267401Y81548D01*
X267479Y81515D01*
X267538Y81482D01*
X267578Y81462D01*
X267584Y81456D01*
X267591D01*
X268162Y81115D01*
Y81318D01*
X268168Y81364D01*
X268175Y81410D01*
X268208Y81482D01*
X268227Y81508D01*
X268247Y81528D01*
X268253Y81534D01*
X268260Y81541D01*
X268293Y81574D01*
X268332Y81600D01*
X268372Y81613D01*
X268404Y81626D01*
X268430Y81633D01*
X268457Y81639D01*
X268476D01*
X268522Y81633D01*
D02*
G37*
G36*
X291515Y82984D02*
X291561Y82978D01*
X291627Y82945D01*
X291653Y82925D01*
X291673Y82906D01*
X291686Y82899D01*
X291692Y82893D01*
X291719Y82860D01*
X291738Y82820D01*
X291764Y82748D01*
X291771Y82715D01*
X291777Y82689D01*
Y82676D01*
Y82669D01*
Y78360D01*
X291771Y78314D01*
X291764Y78268D01*
X291732Y78202D01*
X291719Y78176D01*
X291705Y78156D01*
X291699Y78143D01*
X291692Y78136D01*
X291653Y78110D01*
X291620Y78091D01*
X291548Y78064D01*
X291515Y78058D01*
X291489Y78051D01*
X291469D01*
X291423Y78058D01*
X291377Y78064D01*
X291305Y78097D01*
X291279Y78110D01*
X291259Y78123D01*
X291253Y78130D01*
X291246Y78136D01*
X291213Y78176D01*
X291194Y78209D01*
X291167Y78281D01*
X291161Y78314D01*
X291154Y78340D01*
Y78353D01*
Y78360D01*
Y79304D01*
X290833Y79580D01*
X289160Y78136D01*
X289121Y78110D01*
X289081Y78091D01*
X289003Y78064D01*
X288976Y78058D01*
X288950Y78051D01*
X288931D01*
X288885Y78058D01*
X288839Y78064D01*
X288767Y78104D01*
X288740Y78117D01*
X288721Y78136D01*
X288714Y78143D01*
X288707Y78150D01*
X288675Y78189D01*
X288655Y78228D01*
X288629Y78294D01*
X288622Y78327D01*
X288616Y78346D01*
Y78360D01*
Y78366D01*
X288622Y78412D01*
X288629Y78451D01*
X288662Y78517D01*
X288681Y78537D01*
X288701Y78556D01*
X288707Y78563D01*
X288714Y78569D01*
X290341Y79986D01*
X289016Y81095D01*
X288983Y81128D01*
X288957Y81167D01*
X288944Y81207D01*
X288931Y81239D01*
X288924Y81272D01*
X288917Y81298D01*
Y81312D01*
Y81318D01*
X288924Y81364D01*
X288931Y81410D01*
X288963Y81482D01*
X288983Y81508D01*
X288996Y81528D01*
X289003Y81534D01*
X289009Y81541D01*
X289042Y81574D01*
X289081Y81600D01*
X289121Y81613D01*
X289154Y81626D01*
X289186Y81633D01*
X289213Y81639D01*
X289232D01*
X289278Y81633D01*
X289324Y81626D01*
X289396Y81594D01*
X289429Y81574D01*
X289449Y81561D01*
X289462Y81554D01*
X289468Y81548D01*
X291154Y80118D01*
Y82669D01*
X291161Y82715D01*
X291167Y82761D01*
X291200Y82833D01*
X291220Y82860D01*
X291233Y82879D01*
X291240Y82886D01*
X291246Y82893D01*
X291279Y82925D01*
X291318Y82951D01*
X291358Y82965D01*
X291390Y82978D01*
X291423Y82984D01*
X291449Y82991D01*
X291469D01*
X291515Y82984D01*
D02*
G37*
G36*
X300712Y81633D02*
X300758Y81626D01*
X300824Y81594D01*
X300850Y81574D01*
X300870Y81554D01*
X300883Y81548D01*
X300889Y81541D01*
X300916Y81508D01*
X300935Y81469D01*
X300961Y81397D01*
X300968Y81364D01*
X300975Y81338D01*
Y81325D01*
Y81318D01*
Y78360D01*
X300968Y78314D01*
X300961Y78268D01*
X300929Y78202D01*
X300916Y78176D01*
X300903Y78156D01*
X300896Y78143D01*
X300889Y78136D01*
X300850Y78110D01*
X300817Y78091D01*
X300745Y78064D01*
X300712Y78058D01*
X300686Y78051D01*
X300666D01*
X300620Y78058D01*
X300581Y78064D01*
X300509Y78097D01*
X300483Y78110D01*
X300463Y78123D01*
X300456Y78130D01*
X300450Y78136D01*
X300417Y78176D01*
X300391Y78209D01*
X300378Y78248D01*
X300365Y78281D01*
X300358Y78314D01*
X300352Y78340D01*
Y78353D01*
Y78360D01*
Y80111D01*
X299466Y80879D01*
X299407Y80924D01*
X299354Y80957D01*
X299302Y80984D01*
X299262Y80997D01*
X299230Y81010D01*
X299197Y81016D01*
X298770D01*
X298725Y81010D01*
X298679Y81003D01*
X298606Y80970D01*
X298580Y80951D01*
X298561Y80938D01*
X298554Y80931D01*
X298548Y80924D01*
X298515Y80892D01*
X298495Y80852D01*
X298469Y80780D01*
X298462Y80747D01*
X298456Y80721D01*
Y80708D01*
Y80701D01*
Y80524D01*
X298449Y80478D01*
X298443Y80432D01*
X298410Y80367D01*
X298397Y80341D01*
X298383Y80321D01*
X298377Y80308D01*
X298370Y80301D01*
X298331Y80275D01*
X298298Y80255D01*
X298226Y80229D01*
X298193Y80222D01*
X298167Y80216D01*
X298147D01*
X298101Y80222D01*
X298056Y80229D01*
X297983Y80262D01*
X297957Y80282D01*
X297937Y80295D01*
X297931Y80301D01*
X297924Y80308D01*
X297891Y80347D01*
X297872Y80380D01*
X297846Y80452D01*
X297839Y80485D01*
X297832Y80511D01*
Y80524D01*
Y80531D01*
Y80701D01*
X297846Y80839D01*
X297878Y80970D01*
X297918Y81082D01*
X297970Y81180D01*
X298023Y81259D01*
X298062Y81318D01*
X298095Y81351D01*
X298108Y81364D01*
X298213Y81456D01*
X298324Y81521D01*
X298436Y81574D01*
X298541Y81607D01*
X298633Y81626D01*
X298705Y81633D01*
X298731Y81639D01*
X299230D01*
X299341Y81626D01*
X299453Y81600D01*
X299558Y81554D01*
X299650Y81508D01*
X299728Y81456D01*
X299794Y81410D01*
X299833Y81384D01*
X299840Y81371D01*
X299846D01*
X300352Y80938D01*
Y81318D01*
X300358Y81364D01*
X300365Y81410D01*
X300397Y81482D01*
X300417Y81508D01*
X300430Y81528D01*
X300437Y81534D01*
X300443Y81541D01*
X300476Y81574D01*
X300516Y81600D01*
X300555Y81613D01*
X300588Y81626D01*
X300620Y81633D01*
X300647Y81639D01*
X300666D01*
X300712Y81633D01*
D02*
G37*
G36*
X290643Y73759D02*
X290721Y73752D01*
X290872Y73706D01*
X291017Y73647D01*
X291135Y73582D01*
X291240Y73516D01*
X291279Y73483D01*
X291318Y73457D01*
X291345Y73431D01*
X291364Y73411D01*
X291377Y73405D01*
X291384Y73398D01*
X291449Y73333D01*
X291509Y73260D01*
X291561Y73195D01*
X291600Y73129D01*
X291640Y73064D01*
X291673Y72998D01*
X291719Y72880D01*
X291745Y72781D01*
X291751Y72736D01*
X291758Y72703D01*
X291764Y72670D01*
Y72650D01*
Y72637D01*
Y72631D01*
Y71306D01*
X291758Y71233D01*
X291745Y71155D01*
X291732Y71082D01*
X291705Y71017D01*
X291640Y70886D01*
X291568Y70768D01*
X291502Y70676D01*
X291469Y70636D01*
X291436Y70604D01*
X291410Y70577D01*
X291397Y70558D01*
X291384Y70544D01*
X291377Y70538D01*
X291305Y70472D01*
X291227Y70420D01*
X291154Y70374D01*
X291082Y70328D01*
X290944Y70262D01*
X290820Y70223D01*
X290715Y70197D01*
X290669Y70190D01*
X290630Y70184D01*
X290597Y70177D01*
X289823D01*
X289744Y70184D01*
X289665Y70190D01*
X289521Y70230D01*
X289383Y70289D01*
X289259Y70354D01*
X289154Y70420D01*
X289114Y70453D01*
X289075Y70479D01*
X289049Y70499D01*
X289029Y70518D01*
X289016Y70525D01*
X289009Y70531D01*
X288937Y70597D01*
X288878Y70669D01*
X288825Y70735D01*
X288780Y70800D01*
X288740Y70866D01*
X288707Y70932D01*
X288662Y71050D01*
X288629Y71155D01*
X288622Y71201D01*
X288616Y71233D01*
X288609Y71266D01*
Y71286D01*
Y71299D01*
Y71306D01*
Y72631D01*
X288616Y72709D01*
X288629Y72788D01*
X288648Y72860D01*
X288668Y72932D01*
X288734Y73064D01*
X288806Y73182D01*
X288885Y73280D01*
X288917Y73319D01*
X288944Y73352D01*
X288970Y73378D01*
X288989Y73398D01*
X289003Y73405D01*
X289009Y73411D01*
X289081Y73477D01*
X289160Y73529D01*
X289232Y73575D01*
X289304Y73621D01*
X289442Y73680D01*
X289560Y73726D01*
X289672Y73746D01*
X289711Y73759D01*
X289751D01*
X289783Y73765D01*
X290557D01*
X290643Y73759D01*
D02*
G37*
G36*
X309037D02*
X309116Y73752D01*
X309266Y73706D01*
X309411Y73647D01*
X309529Y73582D01*
X309634Y73516D01*
X309673Y73483D01*
X309713Y73457D01*
X309739Y73431D01*
X309758Y73411D01*
X309772Y73405D01*
X309778Y73398D01*
X309844Y73333D01*
X309903Y73260D01*
X309955Y73195D01*
X309995Y73129D01*
X310034Y73064D01*
X310067Y72998D01*
X310113Y72880D01*
X310139Y72781D01*
X310145Y72736D01*
X310152Y72703D01*
X310159Y72670D01*
Y72650D01*
Y72637D01*
Y72631D01*
Y71306D01*
X310152Y71233D01*
X310139Y71155D01*
X310126Y71082D01*
X310100Y71017D01*
X310034Y70886D01*
X309962Y70768D01*
X309896Y70676D01*
X309863Y70636D01*
X309831Y70604D01*
X309804Y70577D01*
X309791Y70558D01*
X309778Y70544D01*
X309772Y70538D01*
X309700Y70472D01*
X309621Y70420D01*
X309549Y70374D01*
X309476Y70328D01*
X309339Y70262D01*
X309214Y70223D01*
X309109Y70197D01*
X309063Y70190D01*
X309024Y70184D01*
X308991Y70177D01*
X308217D01*
X308138Y70184D01*
X308060Y70190D01*
X307915Y70230D01*
X307777Y70289D01*
X307653Y70354D01*
X307548Y70420D01*
X307508Y70453D01*
X307469Y70479D01*
X307443Y70499D01*
X307423Y70518D01*
X307410Y70525D01*
X307403Y70531D01*
X307331Y70597D01*
X307272Y70669D01*
X307220Y70735D01*
X307174Y70800D01*
X307135Y70866D01*
X307102Y70932D01*
X307056Y71050D01*
X307023Y71155D01*
X307016Y71201D01*
X307010Y71233D01*
X307003Y71266D01*
Y71286D01*
Y71299D01*
Y71306D01*
Y72631D01*
X307010Y72709D01*
X307023Y72788D01*
X307043Y72860D01*
X307062Y72932D01*
X307128Y73064D01*
X307200Y73182D01*
X307279Y73280D01*
X307312Y73319D01*
X307338Y73352D01*
X307364Y73378D01*
X307384Y73398D01*
X307397Y73405D01*
X307403Y73411D01*
X307476Y73477D01*
X307554Y73529D01*
X307627Y73575D01*
X307699Y73621D01*
X307836Y73680D01*
X307955Y73726D01*
X308066Y73746D01*
X308105Y73759D01*
X308145D01*
X308177Y73765D01*
X308952D01*
X309037Y73759D01*
D02*
G37*
G36*
X286576Y75110D02*
X286621Y75104D01*
X286687Y75071D01*
X286713Y75051D01*
X286733Y75038D01*
X286746Y75032D01*
X286753Y75025D01*
X286779Y74992D01*
X286799Y74953D01*
X286825Y74881D01*
X286831Y74848D01*
X286838Y74822D01*
Y74809D01*
Y74802D01*
X286831Y74756D01*
X286825Y74710D01*
X286792Y74645D01*
X286779Y74618D01*
X286766Y74599D01*
X286759Y74585D01*
X286753Y74579D01*
X286713Y74553D01*
X286680Y74533D01*
X286608Y74507D01*
X286576Y74500D01*
X286549Y74494D01*
X285900D01*
Y70807D01*
X286529D01*
X286576Y70800D01*
X286621Y70794D01*
X286687Y70761D01*
X286713Y70741D01*
X286733Y70722D01*
X286746Y70715D01*
X286753Y70709D01*
X286779Y70676D01*
X286799Y70636D01*
X286825Y70564D01*
X286831Y70538D01*
X286838Y70512D01*
Y70499D01*
Y70492D01*
X286831Y70446D01*
X286825Y70400D01*
X286792Y70335D01*
X286779Y70308D01*
X286766Y70289D01*
X286759Y70276D01*
X286753Y70269D01*
X286713Y70236D01*
X286680Y70217D01*
X286608Y70190D01*
X286576Y70184D01*
X286549Y70177D01*
X284634D01*
X284588Y70184D01*
X284542Y70190D01*
X284470Y70223D01*
X284443Y70243D01*
X284424Y70256D01*
X284417Y70262D01*
X284411Y70269D01*
X284378Y70308D01*
X284358Y70341D01*
X284332Y70413D01*
X284325Y70446D01*
X284319Y70472D01*
Y70486D01*
Y70492D01*
X284325Y70538D01*
X284332Y70577D01*
X284365Y70649D01*
X284384Y70676D01*
X284404Y70695D01*
X284411Y70702D01*
X284417Y70709D01*
X284450Y70741D01*
X284489Y70768D01*
X284529Y70781D01*
X284561Y70794D01*
X284588Y70800D01*
X284614Y70807D01*
X285270D01*
Y74802D01*
X285277Y74848D01*
X285283Y74887D01*
X285316Y74959D01*
X285336Y74986D01*
X285355Y75005D01*
X285362Y75012D01*
X285368Y75018D01*
X285401Y75051D01*
X285441Y75077D01*
X285480Y75091D01*
X285513Y75104D01*
X285539Y75110D01*
X285565Y75117D01*
X286529D01*
X286576Y75110D01*
D02*
G37*
G36*
X276919Y73759D02*
X277031Y73733D01*
X277129Y73700D01*
X277208Y73660D01*
X277280Y73621D01*
X277332Y73588D01*
X277365Y73562D01*
X277378Y73556D01*
X277634Y73352D01*
X277687Y73306D01*
X277733Y73254D01*
X277779Y73195D01*
X277811Y73142D01*
X277837Y73096D01*
X277857Y73057D01*
X277870Y73031D01*
X277877Y73024D01*
X277910Y72952D01*
X277929Y72887D01*
X277949Y72834D01*
X277956Y72781D01*
X277962Y72749D01*
X277969Y72716D01*
Y72703D01*
Y72696D01*
Y71266D01*
X277962Y71207D01*
X277956Y71148D01*
X277942Y71089D01*
X277923Y71036D01*
X277910Y70984D01*
X277897Y70951D01*
X277890Y70925D01*
X277884Y70918D01*
X277851Y70853D01*
X277811Y70794D01*
X277779Y70748D01*
X277746Y70709D01*
X277713Y70676D01*
X277687Y70649D01*
X277674Y70636D01*
X277667Y70630D01*
X277385Y70387D01*
X277352Y70361D01*
X277306Y70335D01*
X277221Y70289D01*
X277182Y70269D01*
X277149Y70256D01*
X277129Y70243D01*
X277122D01*
X276991Y70203D01*
X276932Y70190D01*
X276880Y70184D01*
X276834D01*
X276801Y70177D01*
X275128D01*
X275082Y70184D01*
X275043Y70190D01*
X274971Y70223D01*
X274945Y70243D01*
X274925Y70256D01*
X274918Y70262D01*
X274912Y70269D01*
X274879Y70302D01*
X274853Y70341D01*
X274840Y70381D01*
X274827Y70413D01*
X274820Y70440D01*
X274813Y70466D01*
Y70479D01*
Y70486D01*
X274820Y70531D01*
X274827Y70577D01*
X274859Y70649D01*
X274879Y70676D01*
X274899Y70695D01*
X274905Y70702D01*
X274912Y70709D01*
X274945Y70741D01*
X274984Y70761D01*
X275056Y70787D01*
X275082Y70794D01*
X275109Y70800D01*
X276742D01*
X276795Y70807D01*
X276840Y70820D01*
X276932Y70859D01*
X276972Y70879D01*
X276998Y70892D01*
X277017Y70905D01*
X277024Y70912D01*
X277201Y71069D01*
X277247Y71115D01*
X277280Y71161D01*
X277306Y71201D01*
X277319Y71246D01*
X277332Y71286D01*
X277339Y71312D01*
Y71332D01*
Y71338D01*
Y71529D01*
X275128D01*
X275082Y71535D01*
X275043Y71542D01*
X274971Y71574D01*
X274945Y71594D01*
X274925Y71607D01*
X274918Y71614D01*
X274912Y71620D01*
X274879Y71653D01*
X274853Y71693D01*
X274840Y71732D01*
X274827Y71765D01*
X274820Y71791D01*
X274813Y71817D01*
Y71830D01*
Y71837D01*
Y72591D01*
X274827Y72749D01*
X274853Y72887D01*
X274892Y73005D01*
X274938Y73096D01*
X274991Y73168D01*
X275030Y73228D01*
X275056Y73254D01*
X275069Y73267D01*
X275305Y73490D01*
X275417Y73582D01*
X275528Y73647D01*
X275633Y73700D01*
X275725Y73733D01*
X275811Y73752D01*
X275869Y73759D01*
X275896Y73765D01*
X276808D01*
X276919Y73759D01*
D02*
G37*
G36*
X281977Y75110D02*
X282023Y75104D01*
X282088Y75071D01*
X282115Y75051D01*
X282134Y75038D01*
X282148Y75032D01*
X282154Y75025D01*
X282180Y74992D01*
X282200Y74953D01*
X282226Y74881D01*
X282233Y74848D01*
X282239Y74822D01*
Y74809D01*
Y74802D01*
X282233Y74756D01*
X282226Y74710D01*
X282193Y74645D01*
X282180Y74618D01*
X282167Y74599D01*
X282161Y74585D01*
X282154Y74579D01*
X282115Y74553D01*
X282082Y74533D01*
X282010Y74507D01*
X281977Y74500D01*
X281951Y74494D01*
X281301D01*
Y70807D01*
X281931D01*
X281977Y70800D01*
X282023Y70794D01*
X282088Y70761D01*
X282115Y70741D01*
X282134Y70722D01*
X282148Y70715D01*
X282154Y70709D01*
X282180Y70676D01*
X282200Y70636D01*
X282226Y70564D01*
X282233Y70538D01*
X282239Y70512D01*
Y70499D01*
Y70492D01*
X282233Y70446D01*
X282226Y70400D01*
X282193Y70335D01*
X282180Y70308D01*
X282167Y70289D01*
X282161Y70276D01*
X282154Y70269D01*
X282115Y70236D01*
X282082Y70217D01*
X282010Y70190D01*
X281977Y70184D01*
X281951Y70177D01*
X280035D01*
X279989Y70184D01*
X279943Y70190D01*
X279871Y70223D01*
X279845Y70243D01*
X279825Y70256D01*
X279819Y70262D01*
X279812Y70269D01*
X279779Y70308D01*
X279760Y70341D01*
X279733Y70413D01*
X279727Y70446D01*
X279720Y70472D01*
Y70486D01*
Y70492D01*
X279727Y70538D01*
X279733Y70577D01*
X279766Y70649D01*
X279786Y70676D01*
X279805Y70695D01*
X279812Y70702D01*
X279819Y70709D01*
X279852Y70741D01*
X279891Y70768D01*
X279930Y70781D01*
X279963Y70794D01*
X279989Y70800D01*
X280015Y70807D01*
X280672D01*
Y74802D01*
X280678Y74848D01*
X280685Y74887D01*
X280717Y74959D01*
X280737Y74986D01*
X280757Y75005D01*
X280763Y75012D01*
X280770Y75018D01*
X280803Y75051D01*
X280842Y75077D01*
X280881Y75091D01*
X280914Y75104D01*
X280940Y75110D01*
X280967Y75117D01*
X281931D01*
X281977Y75110D01*
D02*
G37*
G36*
X250121Y82984D02*
X250167Y82978D01*
X250233Y82945D01*
X250259Y82925D01*
X250279Y82912D01*
X250292Y82906D01*
X250299Y82899D01*
X250325Y82866D01*
X250345Y82827D01*
X250371Y82755D01*
X250377Y82722D01*
X250384Y82696D01*
Y82683D01*
Y82676D01*
X250377Y82630D01*
X250371Y82584D01*
X250338Y82519D01*
X250325Y82492D01*
X250312Y82473D01*
X250305Y82459D01*
X250299Y82453D01*
X250259Y82427D01*
X250226Y82407D01*
X250154Y82381D01*
X250121Y82374D01*
X250095Y82368D01*
X249131D01*
Y78674D01*
X250089D01*
X250135Y78668D01*
X250181Y78661D01*
X250246Y78628D01*
X250272Y78609D01*
X250292Y78596D01*
X250305Y78589D01*
X250312Y78583D01*
X250338Y78550D01*
X250358Y78510D01*
X250384Y78438D01*
X250391Y78412D01*
X250397Y78386D01*
Y78373D01*
Y78366D01*
X250391Y78320D01*
X250384Y78274D01*
X250351Y78209D01*
X250338Y78182D01*
X250325Y78163D01*
X250318Y78150D01*
X250312Y78143D01*
X250272Y78110D01*
X250240Y78091D01*
X250167Y78064D01*
X250135Y78058D01*
X250108Y78051D01*
X247576D01*
X247530Y78058D01*
X247484Y78064D01*
X247412Y78097D01*
X247386Y78110D01*
X247366Y78123D01*
X247360Y78130D01*
X247353Y78136D01*
X247320Y78176D01*
X247301Y78209D01*
X247274Y78281D01*
X247268Y78314D01*
X247261Y78340D01*
Y78353D01*
Y78360D01*
Y79973D01*
X247268Y80019D01*
X247274Y80065D01*
X247307Y80137D01*
X247327Y80164D01*
X247340Y80183D01*
X247347Y80190D01*
X247353Y80196D01*
X247386Y80229D01*
X247425Y80249D01*
X247498Y80275D01*
X247530Y80282D01*
X247557Y80288D01*
X247576D01*
X247622Y80282D01*
X247668Y80275D01*
X247734Y80242D01*
X247760Y80222D01*
X247780Y80203D01*
X247793Y80196D01*
X247799Y80190D01*
X247826Y80157D01*
X247845Y80118D01*
X247871Y80045D01*
X247878Y80019D01*
X247885Y79993D01*
Y79980D01*
Y79973D01*
Y78674D01*
X248508D01*
Y82991D01*
X250076D01*
X250121Y82984D01*
D02*
G37*
G36*
X259351D02*
X259397Y82978D01*
X259463Y82945D01*
X259489Y82925D01*
X259509Y82912D01*
X259522Y82906D01*
X259529Y82899D01*
X259555Y82866D01*
X259575Y82827D01*
X259601Y82755D01*
X259607Y82722D01*
X259614Y82696D01*
Y82683D01*
Y82676D01*
X259607Y82630D01*
X259601Y82584D01*
X259568Y82519D01*
X259555Y82492D01*
X259542Y82473D01*
X259535Y82459D01*
X259529Y82453D01*
X259489Y82427D01*
X259456Y82407D01*
X259384Y82381D01*
X259351Y82374D01*
X259325Y82368D01*
X257062D01*
Y80846D01*
X258971D01*
X259063Y80839D01*
X259148Y80819D01*
X259220Y80787D01*
X259286Y80754D01*
X259338Y80714D01*
X259378Y80688D01*
X259404Y80662D01*
X259411Y80655D01*
X259470Y80583D01*
X259516Y80511D01*
X259548Y80432D01*
X259568Y80367D01*
X259581Y80301D01*
X259594Y80255D01*
Y80222D01*
Y80209D01*
Y78051D01*
X256747D01*
X256701Y78058D01*
X256662Y78064D01*
X256590Y78097D01*
X256563Y78110D01*
X256544Y78123D01*
X256537Y78130D01*
X256531Y78136D01*
X256498Y78176D01*
X256472Y78209D01*
X256458Y78248D01*
X256445Y78281D01*
X256439Y78314D01*
X256432Y78340D01*
Y78353D01*
Y78360D01*
X256439Y78405D01*
X256445Y78451D01*
X256478Y78523D01*
X256498Y78550D01*
X256518Y78569D01*
X256524Y78576D01*
X256531Y78583D01*
X256563Y78615D01*
X256603Y78635D01*
X256675Y78661D01*
X256701Y78668D01*
X256728Y78674D01*
X258971D01*
Y80216D01*
X257069D01*
X256977Y80222D01*
X256885Y80242D01*
X256813Y80275D01*
X256747Y80308D01*
X256695Y80341D01*
X256655Y80373D01*
X256629Y80393D01*
X256623Y80400D01*
X256557Y80472D01*
X256511Y80544D01*
X256478Y80623D01*
X256458Y80695D01*
X256439Y80754D01*
X256432Y80800D01*
Y80833D01*
Y80846D01*
Y82361D01*
X256439Y82453D01*
X256458Y82538D01*
X256491Y82610D01*
X256524Y82676D01*
X256563Y82728D01*
X256590Y82768D01*
X256616Y82794D01*
X256623Y82801D01*
X256695Y82866D01*
X256767Y82912D01*
X256845Y82945D01*
X256911Y82965D01*
X256977Y82984D01*
X257023Y82991D01*
X259306D01*
X259351Y82984D01*
D02*
G37*
G36*
X272334Y81633D02*
X272445Y81607D01*
X272544Y81574D01*
X272622Y81534D01*
X272694Y81495D01*
X272747Y81462D01*
X272780Y81436D01*
X272793Y81430D01*
X273049Y81226D01*
X273101Y81180D01*
X273147Y81128D01*
X273193Y81069D01*
X273226Y81016D01*
X273252Y80970D01*
X273272Y80931D01*
X273285Y80905D01*
X273291Y80898D01*
X273324Y80826D01*
X273344Y80761D01*
X273364Y80708D01*
X273370Y80655D01*
X273377Y80623D01*
X273383Y80590D01*
Y80577D01*
Y80570D01*
Y79140D01*
X273377Y79081D01*
X273370Y79022D01*
X273357Y78963D01*
X273337Y78910D01*
X273324Y78858D01*
X273311Y78825D01*
X273305Y78799D01*
X273298Y78793D01*
X273265Y78727D01*
X273226Y78668D01*
X273193Y78622D01*
X273160Y78583D01*
X273128Y78550D01*
X273101Y78523D01*
X273088Y78510D01*
X273081Y78504D01*
X272799Y78261D01*
X272767Y78235D01*
X272721Y78209D01*
X272636Y78163D01*
X272596Y78143D01*
X272563Y78130D01*
X272544Y78117D01*
X272537D01*
X272406Y78077D01*
X272347Y78064D01*
X272294Y78058D01*
X272248D01*
X272216Y78051D01*
X270543D01*
X270497Y78058D01*
X270458Y78064D01*
X270385Y78097D01*
X270359Y78117D01*
X270339Y78130D01*
X270333Y78136D01*
X270326Y78143D01*
X270293Y78176D01*
X270267Y78215D01*
X270254Y78254D01*
X270241Y78287D01*
X270234Y78314D01*
X270228Y78340D01*
Y78353D01*
Y78360D01*
X270234Y78405D01*
X270241Y78451D01*
X270274Y78523D01*
X270293Y78550D01*
X270313Y78569D01*
X270320Y78576D01*
X270326Y78583D01*
X270359Y78615D01*
X270398Y78635D01*
X270471Y78661D01*
X270497Y78668D01*
X270523Y78674D01*
X272157D01*
X272209Y78681D01*
X272255Y78694D01*
X272347Y78733D01*
X272386Y78753D01*
X272412Y78766D01*
X272432Y78779D01*
X272439Y78786D01*
X272616Y78943D01*
X272662Y78989D01*
X272694Y79035D01*
X272721Y79075D01*
X272734Y79120D01*
X272747Y79160D01*
X272754Y79186D01*
Y79206D01*
Y79212D01*
Y79403D01*
X270543D01*
X270497Y79409D01*
X270458Y79416D01*
X270385Y79448D01*
X270359Y79468D01*
X270339Y79481D01*
X270333Y79488D01*
X270326Y79494D01*
X270293Y79527D01*
X270267Y79567D01*
X270254Y79606D01*
X270241Y79639D01*
X270234Y79665D01*
X270228Y79691D01*
Y79704D01*
Y79711D01*
Y80465D01*
X270241Y80623D01*
X270267Y80761D01*
X270307Y80879D01*
X270353Y80970D01*
X270405Y81042D01*
X270444Y81102D01*
X270471Y81128D01*
X270484Y81141D01*
X270720Y81364D01*
X270831Y81456D01*
X270943Y81521D01*
X271048Y81574D01*
X271140Y81607D01*
X271225Y81626D01*
X271284Y81633D01*
X271310Y81639D01*
X272222D01*
X272334Y81633D01*
D02*
G37*
G36*
X254484Y82984D02*
X254569Y82965D01*
X254635Y82932D01*
X254700Y82899D01*
X254746Y82866D01*
X254786Y82833D01*
X254812Y82814D01*
X254819Y82807D01*
X254877Y82742D01*
X254924Y82669D01*
X254950Y82597D01*
X254976Y82532D01*
X254989Y82473D01*
X254996Y82427D01*
Y82401D01*
Y82387D01*
Y78648D01*
X254989Y78556D01*
X254969Y78478D01*
X254943Y78405D01*
X254910Y78340D01*
X254877Y78294D01*
X254851Y78254D01*
X254832Y78228D01*
X254825Y78222D01*
X254753Y78163D01*
X254681Y78123D01*
X254615Y78091D01*
X254543Y78071D01*
X254484Y78058D01*
X254438Y78051D01*
X252450D01*
X252359Y78058D01*
X252280Y78077D01*
X252208Y78104D01*
X252142Y78136D01*
X252096Y78169D01*
X252057Y78196D01*
X252030Y78215D01*
X252024Y78222D01*
X251965Y78294D01*
X251919Y78366D01*
X251893Y78432D01*
X251867Y78504D01*
X251853Y78563D01*
X251847Y78609D01*
Y78635D01*
Y78648D01*
Y82387D01*
X251853Y82473D01*
X251873Y82558D01*
X251906Y82630D01*
X251932Y82689D01*
X251965Y82742D01*
X251998Y82774D01*
X252017Y82801D01*
X252024Y82807D01*
X252090Y82866D01*
X252162Y82912D01*
X252234Y82945D01*
X252299Y82971D01*
X252359Y82984D01*
X252404Y82991D01*
X254399D01*
X254484Y82984D01*
D02*
G37*
G36*
X307384Y81639D02*
X307430Y81633D01*
X307495Y81600D01*
X307522Y81581D01*
X307541Y81561D01*
X307554Y81554D01*
X307561Y81548D01*
X307594Y81515D01*
X307613Y81476D01*
X307640Y81403D01*
X307646Y81377D01*
X307653Y81351D01*
Y81338D01*
Y81331D01*
Y80852D01*
X308499Y78957D01*
X308716D01*
X309536Y80859D01*
Y81325D01*
X309542Y81371D01*
X309549Y81416D01*
X309581Y81489D01*
X309601Y81515D01*
X309621Y81534D01*
X309627Y81541D01*
X309634Y81548D01*
X309667Y81581D01*
X309706Y81600D01*
X309778Y81626D01*
X309811Y81633D01*
X309837Y81639D01*
X309857D01*
X309903Y81633D01*
X309942Y81626D01*
X310014Y81594D01*
X310041Y81574D01*
X310054Y81561D01*
X310067Y81554D01*
X310073Y81548D01*
X310100Y81515D01*
X310119Y81476D01*
X310145Y81403D01*
X310152Y81371D01*
X310159Y81344D01*
Y81331D01*
Y81325D01*
Y80721D01*
X309227Y78543D01*
X309188Y78471D01*
X309142Y78418D01*
X309089Y78379D01*
X309044Y78353D01*
X308998Y78340D01*
X308958Y78333D01*
X308932Y78327D01*
X308768D01*
X309201Y77336D01*
X309863D01*
X309909Y77330D01*
X309955Y77323D01*
X310021Y77297D01*
X310047Y77277D01*
X310067Y77264D01*
X310080Y77257D01*
X310086Y77251D01*
X310113Y77218D01*
X310132Y77179D01*
X310159Y77106D01*
X310165Y77074D01*
X310172Y77047D01*
Y77034D01*
Y77028D01*
X310165Y76982D01*
X310159Y76936D01*
X310126Y76870D01*
X310113Y76844D01*
X310100Y76824D01*
X310093Y76811D01*
X310086Y76805D01*
X310047Y76772D01*
X310014Y76752D01*
X309942Y76726D01*
X309909Y76719D01*
X309883Y76713D01*
X308998D01*
X308925Y76719D01*
X308860Y76746D01*
X308814Y76779D01*
X308768Y76818D01*
X308742Y76857D01*
X308716Y76890D01*
X308709Y76916D01*
X308702Y76923D01*
X307023Y80721D01*
Y81331D01*
X307030Y81377D01*
X307036Y81416D01*
X307069Y81489D01*
X307089Y81515D01*
X307108Y81534D01*
X307115Y81541D01*
X307121Y81548D01*
X307154Y81581D01*
X307193Y81607D01*
X307233Y81620D01*
X307266Y81633D01*
X307292Y81639D01*
X307318Y81646D01*
X307338D01*
X307384Y81639D01*
D02*
G37*
G36*
X245090Y80209D02*
X243194D01*
Y78674D01*
X244644D01*
X244703Y78681D01*
X244749Y78694D01*
X244788Y78707D01*
X244795Y78714D01*
X244801D01*
X245215Y78891D01*
X245300Y78924D01*
X245366Y78943D01*
X245392Y78950D01*
X245431D01*
X245470Y78943D01*
X245510Y78937D01*
X245575Y78904D01*
X245602Y78884D01*
X245621Y78871D01*
X245628Y78865D01*
X245635Y78858D01*
X245661Y78825D01*
X245680Y78786D01*
X245707Y78714D01*
X245713Y78681D01*
X245720Y78655D01*
Y78642D01*
Y78635D01*
X245713Y78563D01*
X245693Y78497D01*
X245661Y78445D01*
X245628Y78405D01*
X245595Y78379D01*
X245562Y78353D01*
X245543Y78346D01*
X245536Y78340D01*
X245057Y78143D01*
X244978Y78110D01*
X244900Y78091D01*
X244834Y78071D01*
X244775Y78064D01*
X244723Y78058D01*
X244683Y78051D01*
X243201D01*
X243109Y78058D01*
X243024Y78077D01*
X242951Y78110D01*
X242886Y78143D01*
X242833Y78176D01*
X242794Y78209D01*
X242768Y78228D01*
X242761Y78235D01*
X242696Y78307D01*
X242650Y78379D01*
X242617Y78458D01*
X242597Y78523D01*
X242578Y78583D01*
X242571Y78635D01*
Y78661D01*
Y78674D01*
Y80203D01*
X242578Y80295D01*
X242597Y80380D01*
X242630Y80452D01*
X242663Y80518D01*
X242702Y80570D01*
X242728Y80610D01*
X242755Y80636D01*
X242761Y80642D01*
X242833Y80708D01*
X242905Y80754D01*
X242978Y80787D01*
X243050Y80806D01*
X243109Y80826D01*
X243155Y80833D01*
X244460D01*
Y82368D01*
X242886D01*
X242840Y82374D01*
X242794Y82381D01*
X242722Y82414D01*
X242696Y82427D01*
X242676Y82440D01*
X242669Y82446D01*
X242663Y82453D01*
X242630Y82492D01*
X242610Y82525D01*
X242584Y82597D01*
X242578Y82630D01*
X242571Y82656D01*
Y82669D01*
Y82676D01*
X242578Y82722D01*
X242584Y82761D01*
X242617Y82833D01*
X242637Y82860D01*
X242656Y82879D01*
X242663Y82886D01*
X242669Y82893D01*
X242702Y82925D01*
X242741Y82951D01*
X242781Y82965D01*
X242814Y82978D01*
X242840Y82984D01*
X242866Y82991D01*
X245090D01*
Y80209D01*
D02*
G37*
G36*
X304819Y81626D02*
X304930Y81600D01*
X305029Y81561D01*
X305114Y81515D01*
X305180Y81469D01*
X305232Y81430D01*
X305258Y81403D01*
X305272Y81390D01*
X305350Y81298D01*
X305403Y81200D01*
X305442Y81102D01*
X305475Y81010D01*
X305488Y80931D01*
X305494Y80872D01*
X305501Y80846D01*
Y80826D01*
Y80819D01*
Y80813D01*
X305494Y80734D01*
X305481Y80655D01*
X305462Y80583D01*
X305435Y80524D01*
X305416Y80472D01*
X305396Y80426D01*
X305383Y80400D01*
X305376Y80393D01*
X305324Y80321D01*
X305265Y80262D01*
X305199Y80209D01*
X305140Y80164D01*
X305088Y80131D01*
X305042Y80105D01*
X305016Y80091D01*
X305002Y80085D01*
X303323Y79330D01*
X303251Y79291D01*
X303199Y79238D01*
X303166Y79193D01*
X303139Y79140D01*
X303126Y79094D01*
X303113Y79055D01*
Y79029D01*
Y79022D01*
X303120Y78970D01*
X303126Y78924D01*
X303159Y78851D01*
X303179Y78819D01*
X303199Y78799D01*
X303205Y78786D01*
X303212Y78779D01*
X303244Y78746D01*
X303284Y78720D01*
X303323Y78701D01*
X303362Y78688D01*
X303395Y78681D01*
X303415Y78674D01*
X304602D01*
X304694Y78681D01*
X304773Y78694D01*
X304838Y78714D01*
X304897Y78740D01*
X304937Y78766D01*
X304970Y78786D01*
X304989Y78799D01*
X304996Y78806D01*
X305048Y78851D01*
X305094Y78884D01*
X305140Y78910D01*
X305173Y78924D01*
X305206Y78937D01*
X305232Y78943D01*
X305252D01*
X305304Y78937D01*
X305350Y78930D01*
X305389Y78910D01*
X305422Y78897D01*
X305449Y78878D01*
X305468Y78858D01*
X305481Y78851D01*
X305488Y78845D01*
X305514Y78812D01*
X305534Y78773D01*
X305560Y78701D01*
X305567Y78674D01*
X305573Y78648D01*
Y78635D01*
Y78628D01*
X305560Y78563D01*
X305527Y78491D01*
X305488Y78425D01*
X305435Y78373D01*
X305383Y78320D01*
X305344Y78281D01*
X305311Y78254D01*
X305298Y78248D01*
X305193Y78182D01*
X305081Y78136D01*
X304983Y78097D01*
X304884Y78077D01*
X304806Y78064D01*
X304740Y78058D01*
X304720Y78051D01*
X303421D01*
X303290Y78064D01*
X303166Y78097D01*
X303061Y78136D01*
X302962Y78189D01*
X302884Y78241D01*
X302831Y78281D01*
X302792Y78314D01*
X302779Y78327D01*
X302726Y78379D01*
X302680Y78438D01*
X302615Y78550D01*
X302562Y78668D01*
X302523Y78773D01*
X302503Y78865D01*
X302497Y78943D01*
X302490Y78970D01*
Y78989D01*
Y79002D01*
Y79009D01*
X302497Y79120D01*
X302516Y79219D01*
X302542Y79317D01*
X302569Y79396D01*
X302602Y79462D01*
X302628Y79514D01*
X302647Y79540D01*
X302654Y79553D01*
X302720Y79639D01*
X302785Y79717D01*
X302857Y79777D01*
X302923Y79829D01*
X302982Y79868D01*
X303028Y79895D01*
X303054Y79908D01*
X303067Y79914D01*
X304733Y80655D01*
X304780Y80682D01*
X304812Y80708D01*
X304838Y80741D01*
X304852Y80767D01*
X304865Y80800D01*
X304871Y80819D01*
Y80833D01*
Y80839D01*
X304865Y80898D01*
X304838Y80944D01*
X304806Y80970D01*
X304766Y80997D01*
X304733Y81010D01*
X304701Y81016D01*
X303251D01*
X303199Y81010D01*
X303153Y80997D01*
X303074Y80951D01*
X303041Y80924D01*
X303015Y80898D01*
X303002Y80885D01*
X302995Y80879D01*
X302949Y80833D01*
X302897Y80800D01*
X302851Y80780D01*
X302812Y80767D01*
X302772Y80754D01*
X302746Y80747D01*
X302720D01*
X302674Y80754D01*
X302634Y80761D01*
X302569Y80793D01*
X302542Y80806D01*
X302523Y80819D01*
X302516Y80826D01*
X302510Y80833D01*
X302477Y80865D01*
X302451Y80905D01*
X302437Y80938D01*
X302424Y80970D01*
X302418Y81003D01*
X302411Y81029D01*
Y81042D01*
Y81049D01*
X302424Y81121D01*
X302451Y81187D01*
X302497Y81252D01*
X302542Y81312D01*
X302588Y81364D01*
X302634Y81403D01*
X302661Y81430D01*
X302674Y81436D01*
X302772Y81502D01*
X302870Y81554D01*
X302976Y81587D01*
X303067Y81613D01*
X303146Y81626D01*
X303205Y81639D01*
X304694D01*
X304819Y81626D01*
D02*
G37*
G36*
X314501Y82984D02*
X314541Y82978D01*
X314613Y82945D01*
X314639Y82925D01*
X314652Y82906D01*
X314665Y82899D01*
X314672Y82893D01*
X314705Y82860D01*
X314724Y82820D01*
X314751Y82748D01*
X314757Y82722D01*
X314764Y82696D01*
Y82683D01*
Y82676D01*
Y78051D01*
X311930D01*
X311884Y78058D01*
X311838Y78064D01*
X311766Y78097D01*
X311740Y78110D01*
X311720Y78123D01*
X311713Y78130D01*
X311707Y78136D01*
X311674Y78176D01*
X311648Y78209D01*
X311635Y78248D01*
X311621Y78281D01*
X311615Y78314D01*
X311608Y78340D01*
Y78353D01*
Y78360D01*
X311615Y78405D01*
X311621Y78451D01*
X311654Y78523D01*
X311674Y78550D01*
X311694Y78569D01*
X311700Y78576D01*
X311707Y78583D01*
X311740Y78615D01*
X311779Y78635D01*
X311851Y78661D01*
X311884Y78668D01*
X311910Y78674D01*
X314141D01*
Y82676D01*
X314147Y82722D01*
X314154Y82761D01*
X314187Y82833D01*
X314206Y82860D01*
X314226Y82879D01*
X314232Y82886D01*
X314239Y82893D01*
X314272Y82925D01*
X314311Y82951D01*
X314351Y82965D01*
X314383Y82978D01*
X314409Y82984D01*
X314436Y82991D01*
X314456D01*
X314501Y82984D01*
D02*
G37*
G36*
X295326Y81633D02*
X295438Y81607D01*
X295536Y81574D01*
X295615Y81534D01*
X295687Y81495D01*
X295740Y81462D01*
X295773Y81436D01*
X295786Y81430D01*
X296041Y81226D01*
X296094Y81180D01*
X296140Y81128D01*
X296186Y81069D01*
X296219Y81016D01*
X296245Y80970D01*
X296265Y80931D01*
X296278Y80905D01*
X296284Y80898D01*
X296317Y80826D01*
X296337Y80761D01*
X296356Y80708D01*
X296363Y80655D01*
X296370Y80623D01*
X296376Y80590D01*
Y80577D01*
Y80570D01*
Y79140D01*
X296370Y79081D01*
X296363Y79022D01*
X296350Y78963D01*
X296330Y78910D01*
X296317Y78858D01*
X296304Y78825D01*
X296297Y78799D01*
X296291Y78793D01*
X296258Y78727D01*
X296219Y78668D01*
X296186Y78622D01*
X296153Y78583D01*
X296120Y78550D01*
X296094Y78523D01*
X296081Y78510D01*
X296074Y78504D01*
X295792Y78261D01*
X295760Y78235D01*
X295713Y78209D01*
X295628Y78163D01*
X295589Y78143D01*
X295556Y78130D01*
X295536Y78117D01*
X295530D01*
X295399Y78077D01*
X295340Y78064D01*
X295287Y78058D01*
X295241D01*
X295208Y78051D01*
X293536D01*
X293490Y78058D01*
X293450Y78064D01*
X293378Y78097D01*
X293352Y78117D01*
X293332Y78130D01*
X293326Y78136D01*
X293319Y78143D01*
X293286Y78176D01*
X293260Y78215D01*
X293247Y78254D01*
X293234Y78287D01*
X293227Y78314D01*
X293221Y78340D01*
Y78353D01*
Y78360D01*
X293227Y78405D01*
X293234Y78451D01*
X293267Y78523D01*
X293286Y78550D01*
X293306Y78569D01*
X293313Y78576D01*
X293319Y78583D01*
X293352Y78615D01*
X293391Y78635D01*
X293463Y78661D01*
X293490Y78668D01*
X293516Y78674D01*
X295149D01*
X295202Y78681D01*
X295248Y78694D01*
X295340Y78733D01*
X295379Y78753D01*
X295405Y78766D01*
X295425Y78779D01*
X295431Y78786D01*
X295609Y78943D01*
X295655Y78989D01*
X295687Y79035D01*
X295713Y79075D01*
X295727Y79120D01*
X295740Y79160D01*
X295746Y79186D01*
Y79206D01*
Y79212D01*
Y79403D01*
X293536D01*
X293490Y79409D01*
X293450Y79416D01*
X293378Y79448D01*
X293352Y79468D01*
X293332Y79481D01*
X293326Y79488D01*
X293319Y79494D01*
X293286Y79527D01*
X293260Y79567D01*
X293247Y79606D01*
X293234Y79639D01*
X293227Y79665D01*
X293221Y79691D01*
Y79704D01*
Y79711D01*
Y80465D01*
X293234Y80623D01*
X293260Y80761D01*
X293300Y80879D01*
X293345Y80970D01*
X293398Y81042D01*
X293437Y81102D01*
X293463Y81128D01*
X293477Y81141D01*
X293713Y81364D01*
X293824Y81456D01*
X293936Y81521D01*
X294041Y81574D01*
X294133Y81607D01*
X294218Y81626D01*
X294277Y81633D01*
X294303Y81639D01*
X295215D01*
X295326Y81633D01*
D02*
G37*
G36*
X281695D02*
X281741Y81626D01*
X281806Y81594D01*
X281833Y81574D01*
X281852Y81561D01*
X281865Y81554D01*
X281872Y81548D01*
X281898Y81515D01*
X281918Y81476D01*
X281944Y81403D01*
X281951Y81371D01*
X281957Y81344D01*
Y81331D01*
Y81325D01*
X281951Y81279D01*
X281944Y81239D01*
X281911Y81167D01*
X281892Y81141D01*
X281878Y81128D01*
X281872Y81115D01*
X281865Y81108D01*
X281833Y81075D01*
X281793Y81056D01*
X281721Y81029D01*
X281695Y81023D01*
X281669Y81016D01*
X280448D01*
X280402Y81010D01*
X280357Y81003D01*
X280284Y80970D01*
X280258Y80951D01*
X280239Y80938D01*
X280232Y80931D01*
X280225Y80924D01*
X280193Y80892D01*
X280173Y80852D01*
X280147Y80780D01*
X280140Y80747D01*
X280134Y80721D01*
Y80708D01*
Y80701D01*
X280127Y80255D01*
X280193Y80275D01*
X280252Y80288D01*
X280304Y80295D01*
X280344Y80301D01*
X280376Y80308D01*
X281715D01*
X281787Y80295D01*
X281911Y80262D01*
X282029Y80216D01*
X282121Y80170D01*
X282207Y80118D01*
X282259Y80072D01*
X282298Y80039D01*
X282305Y80032D01*
X282312Y80026D01*
X282403Y79921D01*
X282469Y79803D01*
X282521Y79691D01*
X282554Y79586D01*
X282574Y79494D01*
X282580Y79422D01*
X282587Y79396D01*
Y79376D01*
Y79363D01*
Y79357D01*
Y78996D01*
X282574Y78851D01*
X282541Y78727D01*
X282502Y78609D01*
X282449Y78517D01*
X282397Y78432D01*
X282357Y78379D01*
X282325Y78340D01*
X282312Y78327D01*
X282207Y78235D01*
X282088Y78169D01*
X281977Y78117D01*
X281872Y78084D01*
X281780Y78064D01*
X281708Y78058D01*
X281682Y78051D01*
X280586D01*
X280055Y78366D01*
X280048Y78320D01*
X280042Y78274D01*
X280009Y78209D01*
X279989Y78182D01*
X279976Y78163D01*
X279970Y78150D01*
X279963Y78143D01*
X279924Y78110D01*
X279891Y78091D01*
X279819Y78064D01*
X279786Y78058D01*
X279760Y78051D01*
X279740D01*
X279694Y78058D01*
X279655Y78064D01*
X279583Y78097D01*
X279556Y78110D01*
X279537Y78123D01*
X279530Y78130D01*
X279523Y78136D01*
X279491Y78176D01*
X279464Y78209D01*
X279451Y78248D01*
X279438Y78281D01*
X279432Y78314D01*
X279425Y78340D01*
Y78353D01*
Y78360D01*
X279504Y80701D01*
X279517Y80846D01*
X279556Y80970D01*
X279602Y81082D01*
X279655Y81180D01*
X279707Y81259D01*
X279747Y81318D01*
X279779Y81351D01*
X279792Y81364D01*
X279897Y81456D01*
X280009Y81521D01*
X280120Y81574D01*
X280225Y81607D01*
X280317Y81626D01*
X280389Y81633D01*
X280416Y81639D01*
X281649D01*
X281695Y81633D01*
D02*
G37*
G36*
X286589Y82984D02*
X286634Y82978D01*
X286700Y82945D01*
X286726Y82925D01*
X286746Y82912D01*
X286759Y82906D01*
X286766Y82899D01*
X286792Y82866D01*
X286812Y82827D01*
X286838Y82755D01*
X286844Y82722D01*
X286851Y82696D01*
Y82683D01*
Y82676D01*
X286844Y82630D01*
X286838Y82584D01*
X286805Y82519D01*
X286792Y82492D01*
X286779Y82473D01*
X286772Y82459D01*
X286766Y82453D01*
X286726Y82427D01*
X286694Y82407D01*
X286621Y82381D01*
X286589Y82374D01*
X286562Y82368D01*
X285913D01*
Y78681D01*
X286543D01*
X286589Y78674D01*
X286634Y78668D01*
X286700Y78635D01*
X286726Y78615D01*
X286746Y78596D01*
X286759Y78589D01*
X286766Y78583D01*
X286792Y78550D01*
X286812Y78510D01*
X286838Y78438D01*
X286844Y78412D01*
X286851Y78386D01*
Y78373D01*
Y78366D01*
X286844Y78320D01*
X286838Y78274D01*
X286805Y78209D01*
X286792Y78182D01*
X286779Y78163D01*
X286772Y78150D01*
X286766Y78143D01*
X286726Y78110D01*
X286694Y78091D01*
X286621Y78064D01*
X286589Y78058D01*
X286562Y78051D01*
X284647D01*
X284601Y78058D01*
X284555Y78064D01*
X284483Y78097D01*
X284457Y78117D01*
X284437Y78130D01*
X284430Y78136D01*
X284424Y78143D01*
X284391Y78182D01*
X284371Y78215D01*
X284345Y78287D01*
X284338Y78320D01*
X284332Y78346D01*
Y78360D01*
Y78366D01*
X284338Y78412D01*
X284345Y78451D01*
X284378Y78523D01*
X284398Y78550D01*
X284417Y78569D01*
X284424Y78576D01*
X284430Y78583D01*
X284463Y78615D01*
X284503Y78642D01*
X284542Y78655D01*
X284575Y78668D01*
X284601Y78674D01*
X284627Y78681D01*
X285283D01*
Y82676D01*
X285290Y82722D01*
X285296Y82761D01*
X285329Y82833D01*
X285349Y82860D01*
X285368Y82879D01*
X285375Y82886D01*
X285382Y82893D01*
X285414Y82925D01*
X285454Y82951D01*
X285493Y82965D01*
X285526Y82978D01*
X285552Y82984D01*
X285578Y82991D01*
X286543D01*
X286589Y82984D01*
D02*
G37*
G36*
X254084Y74835D02*
X254130Y74828D01*
X254195Y74795D01*
X254222Y74776D01*
X254241Y74763D01*
X254254Y74756D01*
X254261Y74749D01*
X254287Y74717D01*
X254307Y74677D01*
X254333Y74605D01*
X254340Y74572D01*
X254346Y74546D01*
Y74533D01*
Y74526D01*
Y73765D01*
X254674D01*
X254720Y73759D01*
X254760Y73752D01*
X254832Y73720D01*
X254858Y73700D01*
X254871Y73687D01*
X254884Y73680D01*
X254891Y73674D01*
X254917Y73641D01*
X254937Y73602D01*
X254963Y73529D01*
X254969Y73497D01*
X254976Y73470D01*
Y73457D01*
Y73451D01*
X254969Y73405D01*
X254963Y73359D01*
X254930Y73293D01*
X254917Y73267D01*
X254904Y73247D01*
X254897Y73234D01*
X254891Y73228D01*
X254851Y73201D01*
X254819Y73182D01*
X254746Y73155D01*
X254714Y73149D01*
X254687Y73142D01*
X254346D01*
Y71109D01*
X254333Y70971D01*
X254300Y70840D01*
X254261Y70728D01*
X254208Y70630D01*
X254156Y70551D01*
X254117Y70499D01*
X254084Y70459D01*
X254071Y70446D01*
X253966Y70354D01*
X253848Y70289D01*
X253743Y70243D01*
X253638Y70210D01*
X253546Y70190D01*
X253474Y70184D01*
X253448Y70177D01*
X252778D01*
X252634Y70190D01*
X252503Y70223D01*
X252385Y70262D01*
X252286Y70315D01*
X252208Y70367D01*
X252149Y70407D01*
X252116Y70440D01*
X252103Y70453D01*
X252011Y70558D01*
X251945Y70663D01*
X251899Y70754D01*
X251867Y70840D01*
X251847Y70912D01*
X251840Y70971D01*
X251834Y71004D01*
Y71017D01*
X251840Y71069D01*
X251847Y71109D01*
X251880Y71181D01*
X251899Y71207D01*
X251912Y71233D01*
X251919Y71240D01*
X251925Y71246D01*
X251958Y71279D01*
X251998Y71299D01*
X252070Y71325D01*
X252103Y71332D01*
X252122Y71338D01*
X252149D01*
X252227Y71325D01*
X252293Y71299D01*
X252352Y71253D01*
X252391Y71207D01*
X252424Y71155D01*
X252444Y71109D01*
X252457Y71082D01*
X252464Y71069D01*
X252503Y70977D01*
X252549Y70912D01*
X252601Y70866D01*
X252660Y70833D01*
X252713Y70814D01*
X252759Y70807D01*
X252785Y70800D01*
X253408D01*
X253454Y70807D01*
X253500Y70814D01*
X253566Y70846D01*
X253592Y70866D01*
X253611Y70879D01*
X253625Y70886D01*
X253631Y70892D01*
X253664Y70925D01*
X253684Y70964D01*
X253710Y71036D01*
X253716Y71063D01*
X253723Y71089D01*
Y71102D01*
Y71109D01*
Y73142D01*
X252457D01*
X252411Y73149D01*
X252372Y73155D01*
X252299Y73188D01*
X252273Y73201D01*
X252254Y73214D01*
X252247Y73221D01*
X252240Y73228D01*
X252208Y73267D01*
X252181Y73300D01*
X252168Y73339D01*
X252155Y73372D01*
X252149Y73405D01*
X252142Y73431D01*
Y73444D01*
Y73451D01*
X252149Y73497D01*
X252155Y73536D01*
X252188Y73608D01*
X252208Y73634D01*
X252227Y73654D01*
X252234Y73660D01*
X252240Y73667D01*
X252273Y73700D01*
X252313Y73726D01*
X252352Y73739D01*
X252385Y73752D01*
X252411Y73759D01*
X252437Y73765D01*
X253723D01*
Y74526D01*
X253730Y74572D01*
X253736Y74612D01*
X253769Y74684D01*
X253789Y74710D01*
X253808Y74730D01*
X253815Y74736D01*
X253821Y74743D01*
X253854Y74776D01*
X253893Y74802D01*
X253933Y74815D01*
X253966Y74828D01*
X253992Y74835D01*
X254018Y74841D01*
X254038D01*
X254084Y74835D01*
D02*
G37*
G36*
X305711Y65885D02*
X305757Y65878D01*
X305823Y65846D01*
X305849Y65826D01*
X305869Y65813D01*
X305882Y65806D01*
X305888Y65800D01*
X305914Y65767D01*
X305934Y65728D01*
X305960Y65655D01*
X305967Y65623D01*
X305974Y65596D01*
Y65583D01*
Y65577D01*
Y64973D01*
X304898Y62526D01*
X304858Y62454D01*
X304806Y62395D01*
X304753Y62356D01*
X304701Y62329D01*
X304655Y62316D01*
X304616Y62310D01*
X304589Y62303D01*
X304183D01*
X304124Y62310D01*
X304064Y62336D01*
X304019Y62369D01*
X303979Y62415D01*
X303946Y62454D01*
X303927Y62487D01*
X303914Y62513D01*
X303907Y62520D01*
X302818Y64980D01*
Y65577D01*
X302825Y65623D01*
X302831Y65668D01*
X302864Y65741D01*
X302884Y65767D01*
X302897Y65786D01*
X302903Y65793D01*
X302910Y65800D01*
X302943Y65832D01*
X302982Y65852D01*
X303054Y65878D01*
X303087Y65885D01*
X303113Y65891D01*
X303133D01*
X303179Y65885D01*
X303225Y65878D01*
X303290Y65846D01*
X303317Y65826D01*
X303336Y65813D01*
X303349Y65806D01*
X303356Y65800D01*
X303389Y65767D01*
X303409Y65728D01*
X303435Y65655D01*
X303441Y65623D01*
X303448Y65596D01*
Y65583D01*
Y65577D01*
X303454Y65104D01*
X304399Y62959D01*
X305350Y65098D01*
Y65577D01*
X305357Y65623D01*
X305363Y65668D01*
X305396Y65741D01*
X305416Y65767D01*
X305429Y65786D01*
X305436Y65793D01*
X305442Y65800D01*
X305475Y65832D01*
X305514Y65852D01*
X305586Y65878D01*
X305619Y65885D01*
X305645Y65891D01*
X305665D01*
X305711Y65885D01*
D02*
G37*
G36*
X291909Y67236D02*
X291955Y67230D01*
X292020Y67197D01*
X292047Y67177D01*
X292066Y67164D01*
X292079Y67158D01*
X292086Y67151D01*
X292112Y67118D01*
X292132Y67079D01*
X292158Y67007D01*
X292165Y66974D01*
X292171Y66948D01*
Y66935D01*
Y66928D01*
X292165Y66882D01*
X292158Y66836D01*
X292125Y66770D01*
X292112Y66744D01*
X292099Y66725D01*
X292092Y66711D01*
X292086Y66705D01*
X292047Y66679D01*
X292014Y66659D01*
X291942Y66633D01*
X291909Y66626D01*
X291883Y66620D01*
X290918D01*
Y62926D01*
X291876D01*
X291922Y62920D01*
X291968Y62913D01*
X292034Y62880D01*
X292060Y62861D01*
X292079Y62848D01*
X292092Y62841D01*
X292099Y62835D01*
X292125Y62802D01*
X292145Y62762D01*
X292171Y62690D01*
X292178Y62664D01*
X292184Y62638D01*
Y62625D01*
Y62618D01*
X292178Y62572D01*
X292171Y62526D01*
X292138Y62461D01*
X292125Y62434D01*
X292112Y62415D01*
X292106Y62401D01*
X292099Y62395D01*
X292060Y62362D01*
X292027Y62343D01*
X291955Y62316D01*
X291922Y62310D01*
X291896Y62303D01*
X289364D01*
X289318Y62310D01*
X289272Y62316D01*
X289200Y62349D01*
X289173Y62362D01*
X289154Y62375D01*
X289147Y62382D01*
X289141Y62388D01*
X289108Y62428D01*
X289088Y62461D01*
X289062Y62533D01*
X289055Y62565D01*
X289049Y62592D01*
Y62605D01*
Y62612D01*
Y64225D01*
X289055Y64271D01*
X289062Y64317D01*
X289095Y64389D01*
X289114Y64416D01*
X289127Y64435D01*
X289134Y64442D01*
X289141Y64448D01*
X289173Y64481D01*
X289213Y64501D01*
X289285Y64527D01*
X289318Y64534D01*
X289344Y64540D01*
X289364D01*
X289409Y64534D01*
X289455Y64527D01*
X289521Y64494D01*
X289547Y64474D01*
X289567Y64455D01*
X289580Y64448D01*
X289587Y64442D01*
X289613Y64409D01*
X289633Y64370D01*
X289659Y64297D01*
X289665Y64271D01*
X289672Y64245D01*
Y64232D01*
Y64225D01*
Y62926D01*
X290295D01*
Y67243D01*
X291863D01*
X291909Y67236D01*
D02*
G37*
G36*
X296101Y73759D02*
X296146Y73752D01*
X296212Y73720D01*
X296238Y73700D01*
X296258Y73680D01*
X296271Y73674D01*
X296278Y73667D01*
X296304Y73634D01*
X296324Y73595D01*
X296350Y73523D01*
X296356Y73490D01*
X296363Y73464D01*
Y73451D01*
Y73444D01*
Y70486D01*
X296356Y70440D01*
X296350Y70394D01*
X296317Y70328D01*
X296304Y70302D01*
X296291Y70282D01*
X296284Y70269D01*
X296278Y70262D01*
X296238Y70236D01*
X296205Y70217D01*
X296133Y70190D01*
X296101Y70184D01*
X296074Y70177D01*
X296055D01*
X296009Y70184D01*
X295969Y70190D01*
X295897Y70223D01*
X295871Y70236D01*
X295851Y70249D01*
X295845Y70256D01*
X295838Y70262D01*
X295805Y70302D01*
X295779Y70335D01*
X295766Y70374D01*
X295753Y70407D01*
X295746Y70440D01*
X295740Y70466D01*
Y70479D01*
Y70486D01*
Y72237D01*
X294854Y73005D01*
X294795Y73050D01*
X294743Y73083D01*
X294690Y73110D01*
X294651Y73123D01*
X294618Y73136D01*
X294585Y73142D01*
X294159D01*
X294113Y73136D01*
X294067Y73129D01*
X293995Y73096D01*
X293969Y73077D01*
X293949Y73064D01*
X293942Y73057D01*
X293936Y73050D01*
X293903Y73018D01*
X293883Y72978D01*
X293857Y72906D01*
X293850Y72873D01*
X293844Y72847D01*
Y72834D01*
Y72827D01*
Y72650D01*
X293837Y72604D01*
X293831Y72558D01*
X293798Y72493D01*
X293785Y72467D01*
X293772Y72447D01*
X293765Y72434D01*
X293759Y72427D01*
X293719Y72401D01*
X293687Y72381D01*
X293614Y72355D01*
X293582Y72348D01*
X293555Y72342D01*
X293536D01*
X293490Y72348D01*
X293444Y72355D01*
X293372Y72388D01*
X293345Y72408D01*
X293326Y72421D01*
X293319Y72427D01*
X293313Y72434D01*
X293280Y72473D01*
X293260Y72506D01*
X293234Y72578D01*
X293227Y72611D01*
X293221Y72637D01*
Y72650D01*
Y72657D01*
Y72827D01*
X293234Y72965D01*
X293267Y73096D01*
X293306Y73208D01*
X293358Y73306D01*
X293411Y73385D01*
X293450Y73444D01*
X293483Y73477D01*
X293496Y73490D01*
X293601Y73582D01*
X293713Y73647D01*
X293824Y73700D01*
X293929Y73733D01*
X294021Y73752D01*
X294093Y73759D01*
X294120Y73765D01*
X294618D01*
X294729Y73752D01*
X294841Y73726D01*
X294946Y73680D01*
X295038Y73634D01*
X295117Y73582D01*
X295182Y73536D01*
X295221Y73510D01*
X295228Y73497D01*
X295235D01*
X295740Y73064D01*
Y73444D01*
X295746Y73490D01*
X295753Y73536D01*
X295786Y73608D01*
X295805Y73634D01*
X295818Y73654D01*
X295825Y73660D01*
X295832Y73667D01*
X295864Y73700D01*
X295904Y73726D01*
X295943Y73739D01*
X295976Y73752D01*
X296009Y73759D01*
X296035Y73765D01*
X296055D01*
X296101Y73759D01*
D02*
G37*
G36*
X305298D02*
X305344Y73752D01*
X305409Y73720D01*
X305435Y73700D01*
X305455Y73680D01*
X305468Y73674D01*
X305475Y73667D01*
X305501Y73634D01*
X305521Y73595D01*
X305547Y73523D01*
X305554Y73490D01*
X305560Y73464D01*
Y73451D01*
Y73444D01*
Y70486D01*
X305554Y70440D01*
X305547Y70400D01*
X305514Y70328D01*
X305494Y70302D01*
X305481Y70289D01*
X305475Y70276D01*
X305468Y70269D01*
X305435Y70236D01*
X305396Y70217D01*
X305324Y70190D01*
X305298Y70184D01*
X305272Y70177D01*
X305252D01*
X305206Y70184D01*
X305167Y70190D01*
X305094Y70223D01*
X305068Y70243D01*
X305048Y70256D01*
X305042Y70262D01*
X305035Y70269D01*
X305002Y70302D01*
X304976Y70341D01*
X304963Y70381D01*
X304950Y70413D01*
X304943Y70440D01*
X304937Y70466D01*
Y70479D01*
Y70486D01*
Y72480D01*
X304084Y73031D01*
X304025Y73070D01*
X303966Y73096D01*
X303913Y73116D01*
X303868Y73129D01*
X303828Y73136D01*
X303802Y73142D01*
X303467D01*
X303408Y73136D01*
X303356Y73129D01*
X303310Y73110D01*
X303271Y73090D01*
X303212Y73037D01*
X303166Y72978D01*
X303139Y72919D01*
X303126Y72867D01*
X303120Y72827D01*
Y72821D01*
Y72814D01*
X303021Y70486D01*
X303015Y70433D01*
X303008Y70387D01*
X302995Y70348D01*
X302976Y70315D01*
X302956Y70289D01*
X302943Y70269D01*
X302936Y70262D01*
X302929Y70256D01*
X302897Y70230D01*
X302857Y70210D01*
X302785Y70190D01*
X302759Y70184D01*
X302733Y70177D01*
X302713D01*
X302667Y70184D01*
X302621Y70190D01*
X302549Y70223D01*
X302523Y70243D01*
X302503Y70256D01*
X302497Y70262D01*
X302490Y70269D01*
X302457Y70302D01*
X302437Y70341D01*
X302411Y70413D01*
X302405Y70440D01*
X302398Y70466D01*
Y70479D01*
Y70486D01*
X302490Y72847D01*
X302510Y72985D01*
X302542Y73110D01*
X302595Y73221D01*
X302647Y73319D01*
X302700Y73392D01*
X302739Y73451D01*
X302772Y73483D01*
X302785Y73497D01*
X302890Y73588D01*
X303002Y73654D01*
X303107Y73700D01*
X303205Y73733D01*
X303297Y73752D01*
X303362Y73759D01*
X303389Y73765D01*
X303717D01*
X303848Y73759D01*
X303973Y73739D01*
X304078Y73706D01*
X304176Y73674D01*
X304255Y73641D01*
X304314Y73608D01*
X304353Y73588D01*
X304360Y73582D01*
X304366D01*
X304937Y73241D01*
Y73444D01*
X304943Y73490D01*
X304950Y73536D01*
X304983Y73608D01*
X305002Y73634D01*
X305022Y73654D01*
X305029Y73660D01*
X305035Y73667D01*
X305068Y73700D01*
X305107Y73726D01*
X305147Y73739D01*
X305180Y73752D01*
X305206Y73759D01*
X305232Y73765D01*
X305252D01*
X305298Y73759D01*
D02*
G37*
G36*
X282476Y67236D02*
X282561Y67217D01*
X282626Y67184D01*
X282692Y67151D01*
X282738Y67118D01*
X282777Y67085D01*
X282804Y67066D01*
X282810Y67059D01*
X282869Y66994D01*
X282915Y66921D01*
X282941Y66849D01*
X282968Y66784D01*
X282981Y66725D01*
X282987Y66679D01*
Y66652D01*
Y66639D01*
Y62900D01*
X282981Y62808D01*
X282961Y62730D01*
X282935Y62657D01*
X282902Y62592D01*
X282869Y62546D01*
X282843Y62507D01*
X282823Y62480D01*
X282817Y62474D01*
X282745Y62415D01*
X282672Y62375D01*
X282607Y62343D01*
X282535Y62323D01*
X282476Y62310D01*
X282430Y62303D01*
X280442D01*
X280350Y62310D01*
X280271Y62329D01*
X280199Y62356D01*
X280134Y62388D01*
X280088Y62421D01*
X280048Y62448D01*
X280022Y62467D01*
X280016Y62474D01*
X279957Y62546D01*
X279911Y62618D01*
X279884Y62684D01*
X279858Y62756D01*
X279845Y62815D01*
X279838Y62861D01*
Y62887D01*
Y62900D01*
Y66639D01*
X279845Y66725D01*
X279865Y66810D01*
X279897Y66882D01*
X279924Y66941D01*
X279957Y66994D01*
X279989Y67026D01*
X280009Y67053D01*
X280016Y67059D01*
X280081Y67118D01*
X280153Y67164D01*
X280225Y67197D01*
X280291Y67223D01*
X280350Y67236D01*
X280396Y67243D01*
X282390D01*
X282476Y67236D01*
D02*
G37*
G36*
X309522Y65885D02*
X309634Y65859D01*
X309732Y65826D01*
X309811Y65786D01*
X309883Y65747D01*
X309936Y65714D01*
X309968Y65688D01*
X309982Y65682D01*
X310238Y65478D01*
X310290Y65432D01*
X310336Y65380D01*
X310382Y65321D01*
X310415Y65268D01*
X310441Y65222D01*
X310460Y65183D01*
X310474Y65157D01*
X310480Y65150D01*
X310513Y65078D01*
X310533Y65012D01*
X310552Y64960D01*
X310559Y64907D01*
X310565Y64875D01*
X310572Y64842D01*
Y64829D01*
Y64822D01*
Y63392D01*
X310565Y63333D01*
X310559Y63274D01*
X310546Y63215D01*
X310526Y63162D01*
X310513Y63110D01*
X310500Y63077D01*
X310493Y63051D01*
X310487Y63044D01*
X310454Y62979D01*
X310415Y62920D01*
X310382Y62874D01*
X310349Y62835D01*
X310316Y62802D01*
X310290Y62775D01*
X310277Y62762D01*
X310270Y62756D01*
X309988Y62513D01*
X309955Y62487D01*
X309910Y62461D01*
X309824Y62415D01*
X309785Y62395D01*
X309752Y62382D01*
X309732Y62369D01*
X309726D01*
X309595Y62329D01*
X309536Y62316D01*
X309483Y62310D01*
X309437D01*
X309404Y62303D01*
X307732D01*
X307686Y62310D01*
X307646Y62316D01*
X307574Y62349D01*
X307548Y62369D01*
X307528Y62382D01*
X307522Y62388D01*
X307515Y62395D01*
X307482Y62428D01*
X307456Y62467D01*
X307443Y62507D01*
X307430Y62539D01*
X307423Y62565D01*
X307417Y62592D01*
Y62605D01*
Y62612D01*
X307423Y62657D01*
X307430Y62703D01*
X307463Y62775D01*
X307482Y62802D01*
X307502Y62821D01*
X307508Y62828D01*
X307515Y62835D01*
X307548Y62867D01*
X307587Y62887D01*
X307659Y62913D01*
X307686Y62920D01*
X307712Y62926D01*
X309345D01*
X309398Y62933D01*
X309444Y62946D01*
X309536Y62985D01*
X309575Y63005D01*
X309601Y63018D01*
X309621Y63031D01*
X309627Y63038D01*
X309805Y63195D01*
X309850Y63241D01*
X309883Y63287D01*
X309910Y63327D01*
X309923Y63372D01*
X309936Y63412D01*
X309942Y63438D01*
Y63458D01*
Y63464D01*
Y63655D01*
X307732D01*
X307686Y63661D01*
X307646Y63668D01*
X307574Y63700D01*
X307548Y63720D01*
X307528Y63733D01*
X307522Y63740D01*
X307515Y63746D01*
X307482Y63779D01*
X307456Y63819D01*
X307443Y63858D01*
X307430Y63891D01*
X307423Y63917D01*
X307417Y63943D01*
Y63956D01*
Y63963D01*
Y64717D01*
X307430Y64875D01*
X307456Y65012D01*
X307495Y65131D01*
X307541Y65222D01*
X307594Y65294D01*
X307633Y65354D01*
X307659Y65380D01*
X307673Y65393D01*
X307909Y65616D01*
X308020Y65708D01*
X308132Y65773D01*
X308237Y65826D01*
X308329Y65859D01*
X308414Y65878D01*
X308473Y65885D01*
X308499Y65891D01*
X309411D01*
X309522Y65885D01*
D02*
G37*
G36*
X315158Y62612D02*
X315151Y62565D01*
X315144Y62520D01*
X315112Y62454D01*
X315098Y62428D01*
X315085Y62408D01*
X315079Y62395D01*
X315072Y62388D01*
X315033Y62362D01*
X315000Y62343D01*
X314928Y62316D01*
X314895Y62310D01*
X314869Y62303D01*
X314849D01*
X314803Y62310D01*
X314757Y62316D01*
X314685Y62349D01*
X314659Y62362D01*
X314639Y62375D01*
X314633Y62382D01*
X314626Y62388D01*
X314593Y62428D01*
X314567Y62461D01*
X314554Y62500D01*
X314541Y62533D01*
X314534Y62565D01*
X314528Y62592D01*
Y62605D01*
Y62612D01*
Y64999D01*
X314082D01*
X312612Y62467D01*
X312573Y62415D01*
X312527Y62375D01*
X312481Y62343D01*
X312435Y62323D01*
X312396Y62310D01*
X312363Y62303D01*
X312330D01*
X312284Y62310D01*
X312245Y62316D01*
X312173Y62349D01*
X312146Y62362D01*
X312127Y62375D01*
X312114Y62382D01*
X312107Y62388D01*
X312074Y62428D01*
X312048Y62461D01*
X312035Y62500D01*
X312022Y62533D01*
X312015Y62565D01*
X312009Y62592D01*
Y62605D01*
Y62612D01*
X312022Y62677D01*
X312041Y62743D01*
X312055Y62769D01*
X312061Y62782D01*
X312074Y62795D01*
Y62802D01*
X313347Y64999D01*
X312947D01*
X312809Y65012D01*
X312678Y65045D01*
X312566Y65085D01*
X312468Y65137D01*
X312389Y65189D01*
X312330Y65229D01*
X312297Y65262D01*
X312284Y65275D01*
X312192Y65380D01*
X312127Y65498D01*
X312074Y65603D01*
X312041Y65708D01*
X312022Y65800D01*
X312015Y65872D01*
X312009Y65898D01*
Y65918D01*
Y65931D01*
Y65937D01*
Y66298D01*
Y66370D01*
X312022Y66436D01*
X312055Y66567D01*
X312101Y66679D01*
X312146Y66777D01*
X312199Y66856D01*
X312245Y66915D01*
X312278Y66948D01*
X312284Y66961D01*
X312291D01*
X312343Y67013D01*
X312396Y67053D01*
X312507Y67125D01*
X312619Y67177D01*
X312724Y67210D01*
X312809Y67230D01*
X312881Y67236D01*
X312907Y67243D01*
X315158D01*
Y62612D01*
D02*
G37*
G36*
X314501Y75110D02*
X314547Y75104D01*
X314613Y75071D01*
X314639Y75051D01*
X314659Y75032D01*
X314672Y75025D01*
X314679Y75018D01*
X314705Y74986D01*
X314724Y74946D01*
X314751Y74874D01*
X314757Y74841D01*
X314764Y74815D01*
Y74802D01*
Y74795D01*
Y70486D01*
X314757Y70440D01*
X314751Y70394D01*
X314718Y70328D01*
X314698Y70302D01*
X314685Y70282D01*
X314679Y70269D01*
X314672Y70262D01*
X314639Y70236D01*
X314600Y70217D01*
X314528Y70190D01*
X314501Y70184D01*
X314475Y70177D01*
X314456D01*
X314409Y70184D01*
X314364Y70190D01*
X314292Y70223D01*
X314265Y70236D01*
X314246Y70249D01*
X314239Y70256D01*
X314232Y70262D01*
X314200Y70302D01*
X314180Y70335D01*
X314154Y70407D01*
X314147Y70440D01*
X314141Y70466D01*
Y70479D01*
Y70486D01*
Y71981D01*
X312153Y70262D01*
X312113Y70236D01*
X312074Y70217D01*
X312002Y70190D01*
X311976Y70184D01*
X311949Y70177D01*
X311930D01*
X311877Y70184D01*
X311838Y70190D01*
X311766Y70230D01*
X311740Y70243D01*
X311713Y70262D01*
X311707Y70269D01*
X311700Y70276D01*
X311667Y70315D01*
X311648Y70354D01*
X311621Y70426D01*
X311615Y70453D01*
X311608Y70479D01*
Y70492D01*
Y70499D01*
X311615Y70544D01*
X311621Y70584D01*
X311654Y70649D01*
X311674Y70669D01*
X311687Y70689D01*
X311694Y70695D01*
X311700Y70702D01*
X313964Y72657D01*
X311707Y74585D01*
X311674Y74618D01*
X311648Y74658D01*
X311635Y74690D01*
X311621Y74723D01*
X311615Y74756D01*
X311608Y74782D01*
Y74795D01*
Y74802D01*
X311615Y74848D01*
X311621Y74887D01*
X311654Y74959D01*
X311674Y74986D01*
X311687Y75005D01*
X311694Y75012D01*
X311700Y75018D01*
X311733Y75051D01*
X311772Y75077D01*
X311805Y75091D01*
X311838Y75104D01*
X311871Y75110D01*
X311897Y75117D01*
X311917D01*
X311963Y75110D01*
X312002Y75104D01*
X312081Y75077D01*
X312107Y75058D01*
X312127Y75045D01*
X312140Y75038D01*
X312146Y75032D01*
X314141Y73319D01*
Y74802D01*
X314147Y74848D01*
X314154Y74894D01*
X314187Y74966D01*
X314206Y74992D01*
X314219Y75012D01*
X314226Y75018D01*
X314232Y75025D01*
X314265Y75058D01*
X314305Y75077D01*
X314377Y75104D01*
X314409Y75110D01*
X314436Y75117D01*
X314456D01*
X314501Y75110D01*
D02*
G37*
G36*
X286372Y64265D02*
X286418Y64258D01*
X286484Y64225D01*
X286510Y64206D01*
X286530Y64192D01*
X286543Y64186D01*
X286549Y64179D01*
X286582Y64147D01*
X286602Y64107D01*
X286628Y64035D01*
X286635Y64002D01*
X286641Y63976D01*
Y63963D01*
Y63956D01*
Y63418D01*
X286635Y63372D01*
X286628Y63333D01*
X286595Y63261D01*
X286582Y63235D01*
X286569Y63222D01*
X286562Y63208D01*
X286556Y63202D01*
X286516Y63169D01*
X286484Y63149D01*
X286412Y63123D01*
X286379Y63117D01*
X286352Y63110D01*
X285690D01*
X285644Y63117D01*
X285598Y63123D01*
X285526Y63156D01*
X285500Y63176D01*
X285480Y63189D01*
X285473Y63195D01*
X285467Y63202D01*
X285434Y63241D01*
X285414Y63274D01*
X285388Y63346D01*
X285382Y63379D01*
X285375Y63405D01*
Y63418D01*
Y63425D01*
Y63956D01*
X285382Y64002D01*
X285388Y64048D01*
X285421Y64120D01*
X285441Y64147D01*
X285460Y64166D01*
X285467Y64173D01*
X285473Y64179D01*
X285506Y64212D01*
X285546Y64232D01*
X285618Y64258D01*
X285644Y64265D01*
X285670Y64271D01*
X286326D01*
X286372Y64265D01*
D02*
G37*
G36*
X300168D02*
X300214Y64258D01*
X300279Y64225D01*
X300306Y64206D01*
X300325Y64192D01*
X300338Y64186D01*
X300345Y64179D01*
X300378Y64147D01*
X300397Y64107D01*
X300424Y64035D01*
X300430Y64002D01*
X300437Y63976D01*
Y63963D01*
Y63956D01*
Y63418D01*
X300430Y63372D01*
X300424Y63333D01*
X300391Y63261D01*
X300378Y63235D01*
X300365Y63222D01*
X300358Y63208D01*
X300352Y63202D01*
X300312Y63169D01*
X300279Y63149D01*
X300207Y63123D01*
X300174Y63117D01*
X300148Y63110D01*
X299486D01*
X299440Y63117D01*
X299394Y63123D01*
X299322Y63156D01*
X299295Y63176D01*
X299276Y63189D01*
X299269Y63195D01*
X299263Y63202D01*
X299230Y63241D01*
X299210Y63274D01*
X299184Y63346D01*
X299177Y63379D01*
X299171Y63405D01*
Y63418D01*
Y63425D01*
Y63956D01*
X299177Y64002D01*
X299184Y64048D01*
X299217Y64120D01*
X299236Y64147D01*
X299256Y64166D01*
X299263Y64173D01*
X299269Y64179D01*
X299302Y64212D01*
X299341Y64232D01*
X299413Y64258D01*
X299440Y64265D01*
X299466Y64271D01*
X300122D01*
X300168Y64265D01*
D02*
G37*
G36*
X300069Y74835D02*
X300115Y74828D01*
X300181Y74795D01*
X300207Y74776D01*
X300227Y74763D01*
X300240Y74756D01*
X300247Y74749D01*
X300273Y74717D01*
X300292Y74677D01*
X300319Y74605D01*
X300325Y74572D01*
X300332Y74546D01*
Y74533D01*
Y74526D01*
Y73765D01*
X300660D01*
X300706Y73759D01*
X300745Y73752D01*
X300817Y73720D01*
X300844Y73700D01*
X300857Y73687D01*
X300870Y73680D01*
X300876Y73674D01*
X300903Y73641D01*
X300922Y73602D01*
X300948Y73529D01*
X300955Y73497D01*
X300961Y73470D01*
Y73457D01*
Y73451D01*
X300955Y73405D01*
X300948Y73359D01*
X300916Y73293D01*
X300903Y73267D01*
X300889Y73247D01*
X300883Y73234D01*
X300876Y73228D01*
X300837Y73201D01*
X300804Y73182D01*
X300732Y73155D01*
X300699Y73149D01*
X300673Y73142D01*
X300332D01*
Y71109D01*
X300319Y70971D01*
X300286Y70840D01*
X300247Y70728D01*
X300194Y70630D01*
X300142Y70551D01*
X300102Y70499D01*
X300069Y70459D01*
X300056Y70446D01*
X299951Y70354D01*
X299833Y70289D01*
X299728Y70243D01*
X299623Y70210D01*
X299532Y70190D01*
X299459Y70184D01*
X299433Y70177D01*
X298764D01*
X298620Y70190D01*
X298488Y70223D01*
X298370Y70262D01*
X298272Y70315D01*
X298193Y70367D01*
X298134Y70407D01*
X298101Y70440D01*
X298088Y70453D01*
X297996Y70558D01*
X297931Y70663D01*
X297885Y70754D01*
X297852Y70840D01*
X297832Y70912D01*
X297826Y70971D01*
X297819Y71004D01*
Y71017D01*
X297826Y71069D01*
X297832Y71109D01*
X297865Y71181D01*
X297885Y71207D01*
X297898Y71233D01*
X297905Y71240D01*
X297911Y71246D01*
X297944Y71279D01*
X297983Y71299D01*
X298056Y71325D01*
X298088Y71332D01*
X298108Y71338D01*
X298134D01*
X298213Y71325D01*
X298278Y71299D01*
X298338Y71253D01*
X298377Y71207D01*
X298410Y71155D01*
X298429Y71109D01*
X298443Y71082D01*
X298449Y71069D01*
X298488Y70977D01*
X298534Y70912D01*
X298587Y70866D01*
X298646Y70833D01*
X298698Y70814D01*
X298744Y70807D01*
X298770Y70800D01*
X299394D01*
X299440Y70807D01*
X299485Y70814D01*
X299551Y70846D01*
X299577Y70866D01*
X299597Y70879D01*
X299610Y70886D01*
X299617Y70892D01*
X299650Y70925D01*
X299669Y70964D01*
X299695Y71036D01*
X299702Y71063D01*
X299709Y71089D01*
Y71102D01*
Y71109D01*
Y73142D01*
X298443D01*
X298397Y73149D01*
X298357Y73155D01*
X298285Y73188D01*
X298259Y73201D01*
X298239Y73214D01*
X298233Y73221D01*
X298226Y73228D01*
X298193Y73267D01*
X298167Y73300D01*
X298154Y73339D01*
X298141Y73372D01*
X298134Y73405D01*
X298128Y73431D01*
Y73444D01*
Y73451D01*
X298134Y73497D01*
X298141Y73536D01*
X298173Y73608D01*
X298193Y73634D01*
X298213Y73654D01*
X298219Y73660D01*
X298226Y73667D01*
X298259Y73700D01*
X298298Y73726D01*
X298338Y73739D01*
X298370Y73752D01*
X298397Y73759D01*
X298423Y73765D01*
X299709D01*
Y74526D01*
X299715Y74572D01*
X299722Y74612D01*
X299755Y74684D01*
X299774Y74710D01*
X299794Y74730D01*
X299800Y74736D01*
X299807Y74743D01*
X299840Y74776D01*
X299879Y74802D01*
X299919Y74815D01*
X299951Y74828D01*
X299977Y74835D01*
X300004Y74841D01*
X300024D01*
X300069Y74835D01*
D02*
G37*
G36*
X259312Y73759D02*
X259358Y73752D01*
X259424Y73720D01*
X259450Y73700D01*
X259470Y73680D01*
X259483Y73674D01*
X259489Y73667D01*
X259516Y73634D01*
X259535Y73595D01*
X259561Y73523D01*
X259568Y73490D01*
X259575Y73464D01*
Y73451D01*
Y73444D01*
Y70486D01*
X259568Y70440D01*
X259561Y70394D01*
X259529Y70328D01*
X259516Y70302D01*
X259502Y70282D01*
X259496Y70269D01*
X259489Y70262D01*
X259450Y70236D01*
X259417Y70217D01*
X259345Y70190D01*
X259312Y70184D01*
X259286Y70177D01*
X259266D01*
X259220Y70184D01*
X259181Y70190D01*
X259109Y70223D01*
X259083Y70236D01*
X259063Y70249D01*
X259056Y70256D01*
X259050Y70262D01*
X259017Y70302D01*
X258991Y70335D01*
X258978Y70374D01*
X258964Y70407D01*
X258958Y70440D01*
X258951Y70466D01*
Y70479D01*
Y70486D01*
Y72237D01*
X258066Y73005D01*
X258007Y73050D01*
X257954Y73083D01*
X257902Y73110D01*
X257862Y73123D01*
X257829Y73136D01*
X257797Y73142D01*
X257370D01*
X257324Y73136D01*
X257278Y73129D01*
X257206Y73096D01*
X257180Y73077D01*
X257160Y73064D01*
X257154Y73057D01*
X257147Y73050D01*
X257115Y73018D01*
X257095Y72978D01*
X257069Y72906D01*
X257062Y72873D01*
X257055Y72847D01*
Y72834D01*
Y72827D01*
Y72650D01*
X257049Y72604D01*
X257042Y72558D01*
X257010Y72493D01*
X256996Y72467D01*
X256983Y72447D01*
X256977Y72434D01*
X256970Y72427D01*
X256931Y72401D01*
X256898Y72381D01*
X256826Y72355D01*
X256793Y72348D01*
X256767Y72342D01*
X256747D01*
X256701Y72348D01*
X256655Y72355D01*
X256583Y72388D01*
X256557Y72408D01*
X256537Y72421D01*
X256531Y72427D01*
X256524Y72434D01*
X256491Y72473D01*
X256472Y72506D01*
X256445Y72578D01*
X256439Y72611D01*
X256432Y72637D01*
Y72650D01*
Y72657D01*
Y72827D01*
X256445Y72965D01*
X256478Y73096D01*
X256518Y73208D01*
X256570Y73306D01*
X256623Y73385D01*
X256662Y73444D01*
X256695Y73477D01*
X256708Y73490D01*
X256813Y73582D01*
X256924Y73647D01*
X257036Y73700D01*
X257141Y73733D01*
X257233Y73752D01*
X257305Y73759D01*
X257331Y73765D01*
X257829D01*
X257941Y73752D01*
X258053Y73726D01*
X258157Y73680D01*
X258249Y73634D01*
X258328Y73582D01*
X258394Y73536D01*
X258433Y73510D01*
X258440Y73497D01*
X258446D01*
X258951Y73064D01*
Y73444D01*
X258958Y73490D01*
X258964Y73536D01*
X258997Y73608D01*
X259017Y73634D01*
X259030Y73654D01*
X259037Y73660D01*
X259043Y73667D01*
X259076Y73700D01*
X259115Y73726D01*
X259155Y73739D01*
X259188Y73752D01*
X259220Y73759D01*
X259246Y73765D01*
X259266D01*
X259312Y73759D01*
D02*
G37*
G36*
X273108D02*
X273154Y73752D01*
X273219Y73720D01*
X273246Y73700D01*
X273265Y73680D01*
X273278Y73674D01*
X273285Y73667D01*
X273311Y73634D01*
X273331Y73595D01*
X273357Y73523D01*
X273364Y73490D01*
X273370Y73464D01*
Y73451D01*
Y73444D01*
Y70486D01*
X273364Y70440D01*
X273357Y70394D01*
X273324Y70328D01*
X273311Y70302D01*
X273298Y70282D01*
X273291Y70269D01*
X273285Y70262D01*
X273246Y70236D01*
X273213Y70217D01*
X273141Y70190D01*
X273108Y70184D01*
X273081Y70177D01*
X273062D01*
X273016Y70184D01*
X272977Y70190D01*
X272904Y70223D01*
X272878Y70236D01*
X272859Y70249D01*
X272852Y70256D01*
X272845Y70262D01*
X272813Y70302D01*
X272786Y70335D01*
X272773Y70374D01*
X272760Y70407D01*
X272754Y70440D01*
X272747Y70466D01*
Y70479D01*
Y70486D01*
Y72237D01*
X271861Y73005D01*
X271802Y73050D01*
X271750Y73083D01*
X271697Y73110D01*
X271658Y73123D01*
X271625Y73136D01*
X271592Y73142D01*
X271166D01*
X271120Y73136D01*
X271074Y73129D01*
X271002Y73096D01*
X270976Y73077D01*
X270956Y73064D01*
X270950Y73057D01*
X270943Y73050D01*
X270910Y73018D01*
X270890Y72978D01*
X270864Y72906D01*
X270858Y72873D01*
X270851Y72847D01*
Y72834D01*
Y72827D01*
Y72650D01*
X270845Y72604D01*
X270838Y72558D01*
X270805Y72493D01*
X270792Y72467D01*
X270779Y72447D01*
X270772Y72434D01*
X270766Y72427D01*
X270726Y72401D01*
X270694Y72381D01*
X270621Y72355D01*
X270589Y72348D01*
X270563Y72342D01*
X270543D01*
X270497Y72348D01*
X270451Y72355D01*
X270379Y72388D01*
X270353Y72408D01*
X270333Y72421D01*
X270326Y72427D01*
X270320Y72434D01*
X270287Y72473D01*
X270267Y72506D01*
X270241Y72578D01*
X270234Y72611D01*
X270228Y72637D01*
Y72650D01*
Y72657D01*
Y72827D01*
X270241Y72965D01*
X270274Y73096D01*
X270313Y73208D01*
X270366Y73306D01*
X270418Y73385D01*
X270458Y73444D01*
X270490Y73477D01*
X270503Y73490D01*
X270608Y73582D01*
X270720Y73647D01*
X270831Y73700D01*
X270936Y73733D01*
X271028Y73752D01*
X271100Y73759D01*
X271127Y73765D01*
X271625D01*
X271737Y73752D01*
X271848Y73726D01*
X271953Y73680D01*
X272045Y73634D01*
X272124Y73582D01*
X272189Y73536D01*
X272229Y73510D01*
X272235Y73497D01*
X272242D01*
X272747Y73064D01*
Y73444D01*
X272754Y73490D01*
X272760Y73536D01*
X272793Y73608D01*
X272813Y73634D01*
X272826Y73654D01*
X272832Y73660D01*
X272839Y73667D01*
X272872Y73700D01*
X272911Y73726D01*
X272950Y73739D01*
X272983Y73752D01*
X273016Y73759D01*
X273042Y73765D01*
X273062D01*
X273108Y73759D01*
D02*
G37*
G36*
X268509Y75110D02*
X268555Y75104D01*
X268621Y75071D01*
X268647Y75051D01*
X268667Y75032D01*
X268680Y75025D01*
X268686Y75018D01*
X268713Y74986D01*
X268732Y74946D01*
X268759Y74874D01*
X268765Y74841D01*
X268772Y74815D01*
Y74802D01*
Y74795D01*
Y70486D01*
X268765Y70440D01*
X268759Y70394D01*
X268726Y70328D01*
X268713Y70302D01*
X268700Y70282D01*
X268693Y70269D01*
X268686Y70262D01*
X268647Y70236D01*
X268614Y70217D01*
X268542Y70190D01*
X268509Y70184D01*
X268483Y70177D01*
X268463D01*
X268417Y70184D01*
X268372Y70190D01*
X268299Y70223D01*
X268273Y70236D01*
X268253Y70249D01*
X268247Y70256D01*
X268240Y70262D01*
X268208Y70302D01*
X268188Y70335D01*
X268162Y70407D01*
X268155Y70440D01*
X268148Y70466D01*
Y70479D01*
Y70486D01*
Y71430D01*
X267827Y71706D01*
X266154Y70262D01*
X266115Y70236D01*
X266075Y70217D01*
X265997Y70190D01*
X265970Y70184D01*
X265944Y70177D01*
X265925D01*
X265879Y70184D01*
X265833Y70190D01*
X265761Y70230D01*
X265734Y70243D01*
X265715Y70262D01*
X265708Y70269D01*
X265702Y70276D01*
X265669Y70315D01*
X265649Y70354D01*
X265623Y70420D01*
X265616Y70453D01*
X265610Y70472D01*
Y70486D01*
Y70492D01*
X265616Y70538D01*
X265623Y70577D01*
X265656Y70643D01*
X265675Y70663D01*
X265695Y70682D01*
X265702Y70689D01*
X265708Y70695D01*
X267335Y72112D01*
X266010Y73221D01*
X265977Y73254D01*
X265951Y73293D01*
X265938Y73333D01*
X265925Y73365D01*
X265918Y73398D01*
X265912Y73424D01*
Y73438D01*
Y73444D01*
X265918Y73490D01*
X265925Y73536D01*
X265957Y73608D01*
X265977Y73634D01*
X265990Y73654D01*
X265997Y73660D01*
X266003Y73667D01*
X266036Y73700D01*
X266075Y73726D01*
X266115Y73739D01*
X266148Y73752D01*
X266180Y73759D01*
X266207Y73765D01*
X266226D01*
X266272Y73759D01*
X266318Y73752D01*
X266390Y73720D01*
X266423Y73700D01*
X266443Y73687D01*
X266456Y73680D01*
X266462Y73674D01*
X268148Y72244D01*
Y74795D01*
X268155Y74841D01*
X268162Y74887D01*
X268194Y74959D01*
X268214Y74986D01*
X268227Y75005D01*
X268234Y75012D01*
X268240Y75018D01*
X268273Y75051D01*
X268312Y75077D01*
X268352Y75091D01*
X268385Y75104D01*
X268417Y75110D01*
X268444Y75117D01*
X268463D01*
X268509Y75110D01*
D02*
G37*
%LPC*%
G36*
X314528Y66613D02*
X312947D01*
X312901Y66606D01*
X312855Y66600D01*
X312783Y66567D01*
X312756Y66548D01*
X312737Y66534D01*
X312730Y66528D01*
X312724Y66521D01*
X312691Y66488D01*
X312671Y66449D01*
X312645Y66377D01*
X312638Y66344D01*
X312632Y66318D01*
Y66305D01*
Y66298D01*
Y65931D01*
X312638Y65885D01*
X312645Y65839D01*
X312678Y65773D01*
X312698Y65747D01*
X312711Y65728D01*
X312717Y65714D01*
X312724Y65708D01*
X312756Y65682D01*
X312796Y65662D01*
X312868Y65636D01*
X312901Y65629D01*
X312927Y65623D01*
X314528D01*
Y66613D01*
D02*
G37*
G36*
X309398Y65262D02*
X308584D01*
X308538Y65255D01*
X308499Y65242D01*
X308414Y65203D01*
X308381Y65183D01*
X308355Y65163D01*
X308335Y65150D01*
X308329Y65144D01*
X308145Y64986D01*
X308105Y64947D01*
X308079Y64901D01*
X308060Y64855D01*
X308046Y64816D01*
X308040Y64776D01*
X308033Y64744D01*
Y64724D01*
Y64717D01*
Y64284D01*
X309942D01*
Y64763D01*
X309936Y64816D01*
X309923Y64868D01*
X309903Y64907D01*
X309883Y64940D01*
X309864Y64966D01*
X309844Y64986D01*
X309831Y64999D01*
X309824Y65006D01*
X309641Y65157D01*
X309595Y65189D01*
X309549Y65216D01*
X309503Y65236D01*
X309457Y65249D01*
X309424Y65255D01*
X309398Y65262D01*
D02*
G37*
G36*
X282364Y66613D02*
X280455D01*
Y62926D01*
X282364D01*
Y66613D01*
D02*
G37*
G36*
X308906Y73142D02*
X308224D01*
X308171Y73136D01*
X308125Y73129D01*
X308079Y73110D01*
X308040Y73096D01*
X308014Y73077D01*
X307987Y73057D01*
X307974Y73050D01*
X307968Y73044D01*
X307745Y72873D01*
X307705Y72834D01*
X307679Y72795D01*
X307653Y72749D01*
X307640Y72703D01*
X307633Y72663D01*
X307627Y72631D01*
Y72604D01*
Y72598D01*
Y71332D01*
X307633Y71273D01*
X307646Y71227D01*
X307666Y71181D01*
X307685Y71148D01*
X307705Y71115D01*
X307725Y71096D01*
X307738Y71089D01*
X307745Y71082D01*
X307935Y70912D01*
X307987Y70872D01*
X308033Y70846D01*
X308086Y70827D01*
X308125Y70814D01*
X308164Y70807D01*
X308197Y70800D01*
X308952D01*
X309050Y70814D01*
X309083Y70820D01*
X309116Y70833D01*
X309142Y70846D01*
X309161Y70853D01*
X309168Y70866D01*
X309175D01*
X309411Y71063D01*
X309450Y71102D01*
X309476Y71148D01*
X309503Y71194D01*
X309516Y71240D01*
X309522Y71279D01*
X309529Y71312D01*
Y71332D01*
Y71338D01*
Y72604D01*
X309522Y72663D01*
X309509Y72709D01*
X309496Y72755D01*
X309470Y72788D01*
X309450Y72814D01*
X309437Y72834D01*
X309424Y72847D01*
X309417Y72854D01*
X309201Y73037D01*
X309155Y73070D01*
X309103Y73096D01*
X309050Y73116D01*
X308998Y73129D01*
X308945Y73136D01*
X308906Y73142D01*
D02*
G37*
G36*
X276795Y73136D02*
X275981D01*
X275935Y73129D01*
X275896Y73116D01*
X275811Y73077D01*
X275778Y73057D01*
X275751Y73037D01*
X275732Y73024D01*
X275725Y73018D01*
X275541Y72860D01*
X275502Y72821D01*
X275476Y72775D01*
X275456Y72729D01*
X275443Y72690D01*
X275437Y72650D01*
X275430Y72618D01*
Y72598D01*
Y72591D01*
Y72158D01*
X277339D01*
Y72637D01*
X277332Y72690D01*
X277319Y72742D01*
X277300Y72781D01*
X277280Y72814D01*
X277260Y72840D01*
X277241Y72860D01*
X277227Y72873D01*
X277221Y72880D01*
X277037Y73031D01*
X276991Y73064D01*
X276945Y73090D01*
X276900Y73110D01*
X276853Y73123D01*
X276821Y73129D01*
X276795Y73136D01*
D02*
G37*
G36*
X262920Y73142D02*
X262238D01*
X262185Y73136D01*
X262140Y73129D01*
X262093Y73110D01*
X262054Y73096D01*
X262028Y73077D01*
X262002Y73057D01*
X261989Y73050D01*
X261982Y73044D01*
X261759Y72873D01*
X261720Y72834D01*
X261693Y72795D01*
X261667Y72749D01*
X261654Y72703D01*
X261648Y72663D01*
X261641Y72631D01*
Y72604D01*
Y72598D01*
Y71332D01*
X261648Y71273D01*
X261661Y71227D01*
X261680Y71181D01*
X261700Y71148D01*
X261720Y71115D01*
X261739Y71096D01*
X261752Y71089D01*
X261759Y71082D01*
X261949Y70912D01*
X262002Y70872D01*
X262048Y70846D01*
X262100Y70827D01*
X262140Y70814D01*
X262179Y70807D01*
X262212Y70800D01*
X262966D01*
X263064Y70814D01*
X263097Y70820D01*
X263130Y70833D01*
X263156Y70846D01*
X263176Y70853D01*
X263182Y70866D01*
X263189D01*
X263425Y71063D01*
X263465Y71102D01*
X263491Y71148D01*
X263517Y71194D01*
X263530Y71240D01*
X263537Y71279D01*
X263543Y71312D01*
Y71332D01*
Y71338D01*
Y72604D01*
X263537Y72663D01*
X263524Y72709D01*
X263510Y72755D01*
X263484Y72788D01*
X263465Y72814D01*
X263452Y72834D01*
X263438Y72847D01*
X263432Y72854D01*
X263215Y73037D01*
X263169Y73070D01*
X263117Y73096D01*
X263064Y73116D01*
X263012Y73129D01*
X262960Y73136D01*
X262920Y73142D01*
D02*
G37*
G36*
X290511D02*
X289829D01*
X289777Y73136D01*
X289731Y73129D01*
X289685Y73110D01*
X289646Y73096D01*
X289619Y73077D01*
X289593Y73057D01*
X289580Y73050D01*
X289573Y73044D01*
X289350Y72873D01*
X289311Y72834D01*
X289285Y72795D01*
X289259Y72749D01*
X289245Y72703D01*
X289239Y72663D01*
X289232Y72631D01*
Y72604D01*
Y72598D01*
Y71332D01*
X289239Y71273D01*
X289252Y71227D01*
X289272Y71181D01*
X289291Y71148D01*
X289311Y71115D01*
X289331Y71096D01*
X289344Y71089D01*
X289350Y71082D01*
X289541Y70912D01*
X289593Y70872D01*
X289639Y70846D01*
X289691Y70827D01*
X289731Y70814D01*
X289770Y70807D01*
X289803Y70800D01*
X290557D01*
X290656Y70814D01*
X290689Y70820D01*
X290721Y70833D01*
X290748Y70846D01*
X290767Y70853D01*
X290774Y70866D01*
X290780D01*
X291017Y71063D01*
X291056Y71102D01*
X291082Y71148D01*
X291108Y71194D01*
X291122Y71240D01*
X291128Y71279D01*
X291135Y71312D01*
Y71332D01*
Y71338D01*
Y72604D01*
X291128Y72663D01*
X291115Y72709D01*
X291102Y72755D01*
X291076Y72788D01*
X291056Y72814D01*
X291043Y72834D01*
X291030Y72847D01*
X291023Y72854D01*
X290807Y73037D01*
X290761Y73070D01*
X290708Y73096D01*
X290656Y73116D01*
X290603Y73129D01*
X290551Y73136D01*
X290511Y73142D01*
D02*
G37*
G36*
X281669Y79672D02*
X280416D01*
X280370Y79665D01*
X280324Y79658D01*
X280258Y79626D01*
X280232Y79606D01*
X280212Y79593D01*
X280206Y79586D01*
X280199Y79580D01*
X280166Y79547D01*
X280147Y79507D01*
X280114Y79429D01*
X280107Y79396D01*
X280101Y79376D01*
Y79357D01*
Y79350D01*
X280081Y79088D01*
X280763Y78688D01*
X281649D01*
X281695Y78694D01*
X281734Y78701D01*
X281806Y78733D01*
X281833Y78753D01*
X281846Y78766D01*
X281859Y78773D01*
X281865Y78779D01*
X281898Y78819D01*
X281918Y78851D01*
X281944Y78924D01*
X281951Y78957D01*
X281957Y78983D01*
Y78996D01*
Y79002D01*
Y79350D01*
X281951Y79396D01*
X281944Y79442D01*
X281911Y79514D01*
X281898Y79540D01*
X281885Y79560D01*
X281878Y79567D01*
X281872Y79573D01*
X281833Y79606D01*
X281800Y79632D01*
X281760Y79645D01*
X281728Y79658D01*
X281695Y79665D01*
X281669Y79672D01*
D02*
G37*
G36*
X254372Y82361D02*
X252464D01*
Y78674D01*
X254372D01*
Y82361D01*
D02*
G37*
G36*
X295202Y81010D02*
X294388D01*
X294342Y81003D01*
X294303Y80990D01*
X294218Y80951D01*
X294185Y80931D01*
X294159Y80911D01*
X294139Y80898D01*
X294133Y80892D01*
X293949Y80734D01*
X293910Y80695D01*
X293883Y80649D01*
X293864Y80603D01*
X293850Y80564D01*
X293844Y80524D01*
X293837Y80492D01*
Y80472D01*
Y80465D01*
Y80032D01*
X295746D01*
Y80511D01*
X295740Y80564D01*
X295727Y80616D01*
X295707Y80655D01*
X295687Y80688D01*
X295668Y80714D01*
X295648Y80734D01*
X295635Y80747D01*
X295628Y80754D01*
X295445Y80905D01*
X295399Y80938D01*
X295353Y80964D01*
X295307Y80984D01*
X295261Y80997D01*
X295228Y81003D01*
X295202Y81010D01*
D02*
G37*
G36*
X272209D02*
X271396D01*
X271350Y81003D01*
X271310Y80990D01*
X271225Y80951D01*
X271192Y80931D01*
X271166Y80911D01*
X271146Y80898D01*
X271140Y80892D01*
X270956Y80734D01*
X270917Y80695D01*
X270890Y80649D01*
X270871Y80603D01*
X270858Y80564D01*
X270851Y80524D01*
X270845Y80492D01*
Y80472D01*
Y80465D01*
Y80032D01*
X272754D01*
Y80511D01*
X272747Y80564D01*
X272734Y80616D01*
X272714Y80655D01*
X272694Y80688D01*
X272675Y80714D01*
X272655Y80734D01*
X272642Y80747D01*
X272636Y80754D01*
X272452Y80905D01*
X272406Y80938D01*
X272360Y80964D01*
X272314Y80984D01*
X272268Y80997D01*
X272235Y81003D01*
X272209Y81010D01*
D02*
G37*
%LPD*%
M02*
