G04 Layer_Color=65535*
%FSLAX25Y25*%
%MOIN*%
G70*
G01*
G75*
%ADD16C,0.00787*%
%ADD17C,0.01000*%
D16*
X332677Y5906D02*
Y17717D01*
X314016Y5906D02*
X332677D01*
X310866Y9055D02*
X314016Y5906D01*
X310866Y9055D02*
Y17717D01*
X332677D01*
X356299Y5906D02*
Y17717D01*
X337638Y5906D02*
X356299D01*
X334488Y9055D02*
X337638Y5906D01*
X334488Y9055D02*
Y17717D01*
X356299D01*
D17*
X5433Y81102D02*
X162677D01*
X2677Y83858D02*
X5433Y81102D01*
X2677Y83858D02*
Y88976D01*
X162677D01*
Y81102D02*
Y88976D01*
X354331Y41431D02*
Y37433D01*
X356330Y35433D01*
X358330Y37433D01*
Y41431D01*
X360329Y35433D02*
Y39432D01*
X362328Y41431D01*
X364328Y39432D01*
Y35433D01*
Y38432D01*
X360329D01*
X366327Y35433D02*
Y39432D01*
X368326Y41431D01*
X370326Y39432D01*
Y35433D01*
Y38432D01*
X366327D01*
X358330Y52242D02*
X357330Y53242D01*
X355330D01*
X354331Y52242D01*
Y48244D01*
X355330Y47244D01*
X357330D01*
X358330Y48244D01*
Y50243D01*
X356330D01*
X360329Y47244D02*
Y53242D01*
X364328Y47244D01*
Y53242D01*
X366327D02*
Y47244D01*
X369326D01*
X370326Y48244D01*
Y52242D01*
X369326Y53242D01*
X366327D01*
X23684Y52242D02*
X22684Y53242D01*
X20685D01*
X19685Y52242D01*
Y48244D01*
X20685Y47244D01*
X22684D01*
X23684Y48244D01*
Y50243D01*
X21684D01*
X25683Y47244D02*
Y53242D01*
X29682Y47244D01*
Y53242D01*
X31681D02*
Y47244D01*
X34680D01*
X35680Y48244D01*
Y52242D01*
X34680Y53242D01*
X31681D01*
X19685Y41431D02*
Y37433D01*
X21684Y35433D01*
X23684Y37433D01*
Y41431D01*
X25683Y35433D02*
Y39432D01*
X27683Y41431D01*
X29682Y39432D01*
Y35433D01*
Y38432D01*
X25683D01*
X31681Y35433D02*
Y39432D01*
X33681Y41431D01*
X35680Y39432D01*
Y35433D01*
Y38432D01*
X31681D01*
X214567Y82770D02*
Y76772D01*
X217566D01*
X218566Y77771D01*
Y78771D01*
X217566Y79771D01*
X214567D01*
X217566D01*
X218566Y80770D01*
Y81770D01*
X217566Y82770D01*
X214567D01*
X223564D02*
X221565D01*
X220565Y81770D01*
Y77771D01*
X221565Y76772D01*
X223564D01*
X224564Y77771D01*
Y81770D01*
X223564Y82770D01*
X226563D02*
Y76772D01*
Y78771D01*
X230562Y82770D01*
X227563Y79771D01*
X230562Y76772D01*
X236560Y81770D02*
X235560Y82770D01*
X233561D01*
X232561Y81770D01*
Y80770D01*
X233561Y79771D01*
X235560D01*
X236560Y78771D01*
Y77771D01*
X235560Y76772D01*
X233561D01*
X232561Y77771D01*
X238559Y82770D02*
Y76772D01*
Y78771D01*
X242558Y82770D01*
X239559Y79771D01*
X242558Y76772D01*
X247556Y82770D02*
X245557D01*
X244557Y81770D01*
Y77771D01*
X245557Y76772D01*
X247556D01*
X248556Y77771D01*
Y81770D01*
X247556Y82770D01*
X250555Y76772D02*
Y82770D01*
X253554D01*
X254554Y81770D01*
Y79771D01*
X253554Y78771D01*
X250555D01*
X252555D02*
X254554Y76772D01*
X256553Y82770D02*
X260552D01*
X258553D01*
Y76772D01*
X268549Y82770D02*
Y76772D01*
X272548D01*
X274548Y82770D02*
Y81770D01*
X276547Y79771D01*
X278546Y81770D01*
Y82770D01*
X276547Y79771D02*
Y76772D01*
X284544Y81770D02*
X283545Y82770D01*
X281545D01*
X280546Y81770D01*
Y80770D01*
X281545Y79771D01*
X283545D01*
X284544Y78771D01*
Y77771D01*
X283545Y76772D01*
X281545D01*
X280546Y77771D01*
X286544Y76772D02*
Y82770D01*
X289543D01*
X290542Y81770D01*
Y79771D01*
X289543Y78771D01*
X286544D01*
X288543D02*
X290542Y76772D01*
X296540Y82770D02*
X292542D01*
Y76772D01*
X296540D01*
X292542Y79771D02*
X294541D01*
X298540Y82770D02*
Y76772D01*
Y78771D01*
X302538Y82770D01*
X299539Y79771D01*
X302538Y76772D01*
X304538Y82770D02*
Y76772D01*
X308537D01*
X310536D02*
Y80770D01*
X312535Y82770D01*
X314535Y80770D01*
Y76772D01*
Y79771D01*
X310536D01*
X316534Y76772D02*
Y82770D01*
X318533Y80770D01*
X320533Y82770D01*
Y76772D01*
X326531Y82770D02*
X322532D01*
Y76772D01*
X326531D01*
X322532Y79771D02*
X324531D01*
X328530Y76772D02*
Y82770D01*
X332529Y76772D01*
Y82770D01*
X267717Y25683D02*
Y19685D01*
Y21684D01*
X271715Y25683D01*
X268716Y22684D01*
X271715Y19685D01*
X273715D02*
Y23684D01*
X275714Y25683D01*
X277713Y23684D01*
Y19685D01*
Y22684D01*
X273715D01*
X279713Y19685D02*
Y25683D01*
X283711Y19685D01*
Y25683D01*
X285711Y19685D02*
Y23684D01*
X287710Y25683D01*
X289709Y23684D01*
Y19685D01*
Y22684D01*
X285711D01*
X291709Y25683D02*
Y19685D01*
X295708D01*
X297707Y18685D02*
X301706D01*
X307704Y25683D02*
X305704Y24683D01*
X303705Y22684D01*
Y20685D01*
X304705Y19685D01*
X306704D01*
X307704Y20685D01*
Y21684D01*
X306704Y22684D01*
X303705D01*
X220473Y25683D02*
Y19685D01*
Y21684D01*
X224471Y25683D01*
X221472Y22684D01*
X224471Y19685D01*
X226471D02*
Y23684D01*
X228470Y25683D01*
X230469Y23684D01*
Y19685D01*
Y22684D01*
X226471D01*
X232469Y19685D02*
Y25683D01*
X236467Y19685D01*
Y25683D01*
X238467Y19685D02*
Y23684D01*
X240466Y25683D01*
X242465Y23684D01*
Y19685D01*
Y22684D01*
X238467D01*
X244465Y25683D02*
Y19685D01*
X248463D01*
X250463Y18685D02*
X254462D01*
X260460Y25683D02*
X256461D01*
Y22684D01*
X258460Y23684D01*
X259460D01*
X260460Y22684D01*
Y20685D01*
X259460Y19685D01*
X257460D01*
X256461Y20685D01*
X173228Y25683D02*
Y19685D01*
Y21684D01*
X177227Y25683D01*
X174228Y22684D01*
X177227Y19685D01*
X179226D02*
Y23684D01*
X181226Y25683D01*
X183225Y23684D01*
Y19685D01*
Y22684D01*
X179226D01*
X185224Y19685D02*
Y25683D01*
X189223Y19685D01*
Y25683D01*
X191223Y19685D02*
Y23684D01*
X193222Y25683D01*
X195221Y23684D01*
Y19685D01*
Y22684D01*
X191223D01*
X197221Y25683D02*
Y19685D01*
X201219D01*
X203219Y18685D02*
X207217D01*
X212216Y19685D02*
Y25683D01*
X209217Y22684D01*
X213215D01*
X125984Y25683D02*
Y19685D01*
Y21684D01*
X129983Y25683D01*
X126984Y22684D01*
X129983Y19685D01*
X131982D02*
Y23684D01*
X133982Y25683D01*
X135981Y23684D01*
Y19685D01*
Y22684D01*
X131982D01*
X137980Y19685D02*
Y25683D01*
X141979Y19685D01*
Y25683D01*
X143979Y19685D02*
Y23684D01*
X145978Y25683D01*
X147977Y23684D01*
Y19685D01*
Y22684D01*
X143979D01*
X149977Y25683D02*
Y19685D01*
X153975D01*
X155975Y18685D02*
X159973D01*
X161973Y24683D02*
X162972Y25683D01*
X164972D01*
X165971Y24683D01*
Y23684D01*
X164972Y22684D01*
X163972D01*
X164972D01*
X165971Y21684D01*
Y20685D01*
X164972Y19685D01*
X162972D01*
X161973Y20685D01*
X78740Y25683D02*
Y19685D01*
Y21684D01*
X82739Y25683D01*
X79740Y22684D01*
X82739Y19685D01*
X84738D02*
Y23684D01*
X86738Y25683D01*
X88737Y23684D01*
Y19685D01*
Y22684D01*
X84738D01*
X90736Y19685D02*
Y25683D01*
X94735Y19685D01*
Y25683D01*
X96734Y19685D02*
Y23684D01*
X98734Y25683D01*
X100733Y23684D01*
Y19685D01*
Y22684D01*
X96734D01*
X102732Y25683D02*
Y19685D01*
X106731D01*
X108730Y18685D02*
X112729D01*
X118727Y19685D02*
X114729D01*
X118727Y23684D01*
Y24683D01*
X117728Y25683D01*
X115728D01*
X114729Y24683D01*
X31496Y25683D02*
Y19685D01*
Y21684D01*
X35495Y25683D01*
X32496Y22684D01*
X35495Y19685D01*
X37494D02*
Y23684D01*
X39494Y25683D01*
X41493Y23684D01*
Y19685D01*
Y22684D01*
X37494D01*
X43492Y19685D02*
Y25683D01*
X47491Y19685D01*
Y25683D01*
X49490Y19685D02*
Y23684D01*
X51490Y25683D01*
X53489Y23684D01*
Y19685D01*
Y22684D01*
X49490D01*
X55488Y25683D02*
Y19685D01*
X59487D01*
X61486Y18685D02*
X65485D01*
X67484Y19685D02*
X69484D01*
X68484D01*
Y25683D01*
X67484Y24683D01*
X342427Y21654D02*
X348425D01*
Y24653D01*
X347426Y25652D01*
X343427D01*
X342427Y24653D01*
Y21654D01*
X348425Y27652D02*
X342427D01*
X344426Y29651D01*
X342427Y31650D01*
X348425D01*
X342427Y33650D02*
X348425Y37648D01*
X342427D02*
X348425Y33650D01*
X349425Y39648D02*
Y43646D01*
X342427Y48645D02*
Y46646D01*
X343427Y45646D01*
X347426D01*
X348425Y46646D01*
Y48645D01*
X347426Y49645D01*
X343427D01*
X342427Y48645D01*
Y51644D02*
X347426D01*
X348425Y52644D01*
Y54643D01*
X347426Y55643D01*
X342427D01*
Y57642D02*
Y61641D01*
Y59641D01*
X348425D01*
X318805Y21654D02*
X324803D01*
Y24653D01*
X323803Y25652D01*
X319805D01*
X318805Y24653D01*
Y21654D01*
X324803Y27652D02*
X318805D01*
X320805Y29651D01*
X318805Y31650D01*
X324803D01*
X318805Y33650D02*
X324803Y37648D01*
X318805D02*
X324803Y33650D01*
X325803Y39648D02*
Y43646D01*
X318805Y45646D02*
Y47645D01*
Y46646D01*
X324803D01*
Y45646D01*
Y47645D01*
Y50644D02*
X318805D01*
X324803Y54643D01*
X318805D01*
M02*
