G04 Layer_Color=8388736*
%FSLAX25Y25*%
%MOIN*%
G70*
G01*
G75*
%ADD18R,0.07887X0.07887*%
%ADD19C,0.07887*%
%ADD20C,0.08674*%
%ADD21C,0.24422*%
%ADD22C,0.08674*%
D18*
X316772Y11811D02*
D03*
X340394D02*
D03*
X7677Y65866D02*
D03*
D19*
X326772Y11811D02*
D03*
X350394D02*
D03*
X157677Y65866D02*
D03*
X147677D02*
D03*
X137677D02*
D03*
X127677D02*
D03*
X117677D02*
D03*
X107677D02*
D03*
X97677D02*
D03*
X87677D02*
D03*
X77677D02*
D03*
X67677D02*
D03*
X57677D02*
D03*
X47677D02*
D03*
X37677D02*
D03*
X27677D02*
D03*
X17677D02*
D03*
X7677Y75866D02*
D03*
X17677D02*
D03*
X27677D02*
D03*
X37677D02*
D03*
X47677D02*
D03*
X57677D02*
D03*
X67677D02*
D03*
X77677D02*
D03*
X87677D02*
D03*
X97677D02*
D03*
X107677D02*
D03*
X117677D02*
D03*
X127677D02*
D03*
X137677D02*
D03*
X147677D02*
D03*
X157677D02*
D03*
D20*
X66181Y11811D02*
D03*
X56181D02*
D03*
X46181D02*
D03*
X36181D02*
D03*
X113425D02*
D03*
X103425D02*
D03*
X93425D02*
D03*
X83425D02*
D03*
X160669D02*
D03*
X150669D02*
D03*
X140669D02*
D03*
X130669D02*
D03*
X207913D02*
D03*
X197913D02*
D03*
X187913D02*
D03*
X177913D02*
D03*
X255157D02*
D03*
X245158D02*
D03*
X235157D02*
D03*
X225157D02*
D03*
X302402D02*
D03*
X292402D02*
D03*
X282402D02*
D03*
X272402D02*
D03*
D21*
X15748Y15748D02*
D03*
X370079D02*
D03*
X192913Y74803D02*
D03*
D22*
X10827Y50197D02*
D03*
Y38386D02*
D03*
X378937Y49370D02*
D03*
Y39370D02*
D03*
M02*
