M48
;Layer_Color=9474304
;FILE_FORMAT=2:5
INCH,LZ
;TYPE=PLATED
T1F00S00C0.02799
T2F00S00C0.02800
T3F00S00C0.03150
T4F00S00C0.03543
T5F00S00C0.12598
;TYPE=NON_PLATED
T6F00S00C0.03150
%
T01
X0132874Y003937
X0106299Y007874
X0086614
X013002Y014311
X00625Y0171161
X0035728Y0115354
X0028248Y0104232
T02
X009252Y0059055
X0107874Y0058661
X011811Y0094488
Y0102362
X0114173Y0110236
Y011811
X0106299
X0098425
X0090551
X0082677
X007874Y0110236
X007874Y0103149
X007874Y007874
X0111024Y0146063
X0129921Y0129921
X0139764Y0126378
X0124803Y0179528
X0052165Y0127953
X0052362Y0105905
X0041732Y0110236
X0032283Y0095082
T03
X0010748Y0031299
X0020748
Y0041299
Y0051299
Y0061299
X0010748
Y0051299
Y0041299
X0064803Y0016535
X0074803
X0084803
T04
X0126063Y001559
X0136063
X0146063
Y0025591
X0136063
X0126063
T05
X003937Y003937
X0173228
Y0173228
X003937
T06
X0010748Y0071299
X0020748
Y0081299
Y0091299
Y0101299
Y0111299
Y0121299
Y0131299
Y0141299
Y0151299
Y0161299
Y0171299
Y0181299
X0010748
Y0171299
Y0161299
Y0151299
Y0141299
Y0131299
Y0121299
Y0111299
Y0101299
Y0091299
Y0081299
M30
