M48
;Layer_Color=9474304
;FILE_FORMAT=2:5
INCH,LZ
;TYPE=PLATED
T1F00S00C0.01181
T2F00S00C0.03150
T3F00S00C0.03543
;TYPE=NON_PLATED
T4F00S00C0.12598
%
T01
X0021457Y0017028
X0056496Y0029626
X0068898Y0059055
X0084252Y0058661
X0109252Y003937
X0082677Y007874
X0062992
X0055118
X0052658Y0109449
Y0112598
X0063779Y0120571
X0066929
X0070079Y0120571
X0085827Y0120571
X0088976
X0092126
X0095276
X0106299Y0129921
X0106398Y014311
X0087402Y0146063
X0084153Y0137795
X0065354Y013435
X0063858Y0178465
X0101181Y0179528
X0116142Y0126378
X013061Y0128543
Y0084252
X0094488Y0094488
X0027362Y0092421
X0026575Y0097441
X0031102Y0104626
X0035433Y0110728
X0035728Y0127657
X0032677Y0142421
X0043681Y0178465
T02
X0010748Y0031299
Y0041299
Y0051299
Y0061299
Y0071299
X0020748
Y0061299
Y0051299
Y0041299
Y0031299
X0041181Y0016535
X0051181
X0061181
X0020748Y0081299
X0010748
Y0091299
Y0101299
Y0111299
Y0121299
Y0131299
Y0141299
Y0151299
Y0161299
Y0171299
Y0181299
X0020748
Y0171299
Y0161299
Y0151299
Y0141299
Y0131299
Y0121299
Y0111299
Y0101299
Y0091299
T03
X0102441Y001559
Y0025591
X0112441
Y001559
X0122441
Y0025591
T04
X0149606Y003937
Y0173228
M30
