M48
;Layer_Color=9474304
;FILE_FORMAT=2:5
INCH,LZ
;TYPE=PLATED
T1F00S00C0.03150
T2F00S00C0.03937
T3F00S00C0.12598
;TYPE=NON_PLATED
T4F00S00C0.03150
%
T01
X0041181Y0015748
X0051181
X0064803
X0074803
X001378Y004315
Y005315
X0131614Y0069803
X0141614
X0151614
X0161614
X0328583Y0069803
X0338583
X0348583
X0379921Y005315
Y004315
X0348583Y0079803
X0338583
X0328583
Y0168228
Y0178228
X0338583
Y0168228
X0348583
Y0178228
X0379921Y0151575
Y0141575
X0161614Y0168228
X0151614
X0141614
X0131614
Y0178228
X0141614
X0151614
X0161614
Y0079803
X0151614
X0141614
X0131614
X0074803Y0114173
X0064803
X0051181
X0041181
X001378Y0141575
Y0151575
X0041181Y0212598
X0051181
X0064803
X0074803
X001378Y024
Y025
X0041181Y0311024
X0051181
X0064803
X0074803
X001378Y0338425
Y0348425
X0131614Y0365079
X0141614
X0151614
X0161614
Y0375079
X0151614
X0141614
X0131614
Y0276654
Y0266654
X0141614
X0151614
X0161614
Y0276654
X0151614
X0141614
X0328583Y0276654
Y0266653
X0338583
X0348583
Y0276654
X0338583
X0379921Y025
Y024
Y0338425
Y0348425
X0348583Y0365079
X0338583
X0328583
Y0375079
X0338583
X0348583
T02
X0091299Y0015748
X0101299
X0111299
X0121299
X0136575
X0146575
X0156575
X0166575
X018185
X019185
X020185
X021185
X0227126
X0237126
X0247126
X0257126
X0272402
X0282402
X0292402
X0302402
X0317677
X0327677
X0337677
X0347677
Y0114173
X0337677
X0327677
X0317677
X0302402
X0292402
X0282402
X0272402
X0257126
X0247126
X0237126
Y0212598
X0247126
X0257126
X0272402
X0282402
X0292402
X0302402
X0317677
X0327677
X0337677
X0347677
X0227126
X021185
X020185
X019185
X018185
X0166575
X0156575
X0146575
X0136575
X0121299
X0111299
X0101299
X0091299
Y0114173
X0101299
X0111299
X0121299
X0136575
X0146575
X0156575
X0166575
X018185
X019185
X020185
X021185
X0227126
Y0311024
X021185
X020185
X019185
X018185
X0166575
X0156575
X0146575
X0136575
X0121299
X0111299
X0101299
X0091299
X0237126
X0247126
X0257126
X0272402
X0282402
X0292402
X0302402
X0317677
X0327677
X0337677
X0347677
T03
X0019685Y0019685
X0374016
Y011811
Y0216535
X019685Y0177165
Y007874
X0019685Y011811
Y0216535
Y0314961
X019685Y0275591
Y0374016
X0374016Y0314961
T04
X0011614Y0069803
X0021614
X0031614
X0041614
X0051614
X0061614
X0071614
X0081614
X0091614
X0101614
X0111614
X0121614
Y0079803
X0111614
X0101614
X0091614
X0081614
Y0168228
X0091614
X0101614
X0111614
X0121614
Y0178228
X0111614
X0101614
X0091614
X0081614
X0071614
Y0168228
X0061614
X0051614
X0041614
X0031614
X0021614
X0011614
Y0178228
X0021614
X0031614
X0041614
X0051614
X0061614
Y0079803
X0071614
X0051614
X0041614
X0031614
X0021614
X0011614
Y0266654
X0021614
X0031614
X0041614
X0051614
X0061614
X0071614
Y0276654
X0061614
X0051614
X0041614
X0031614
X0021614
X0011614
Y0365079
X0021614
X0031614
X0041614
X0051614
X0061614
X0071614
Y0375079
X0061614
X0051614
X0041614
X0031614
X0021614
X0011614
X0081614
Y0365079
X0091614
X0101614
X0111614
X0121614
Y0375079
X0111614
X0101614
X0091614
Y0276654
Y0266654
X0101614
X0111614
X0121614
Y0276654
X0111614
X0101614
X0081614
Y0266654
M30
