M48
;Layer_Color=9474304
;FILE_FORMAT=2:5
INCH,LZ
;TYPE=PLATED
T1F00S00C0.02799
T2F00S00C0.02800
T3F00S00C0.03150
T4F00S00C0.12598
;TYPE=NON_PLATED
T5F00S00C0.03150
%
T01
X0040354Y0153543
X004685Y015748
X0059646Y0153543
X0066142Y015748
X0079724Y0153543
X0086221Y015748
X0099016Y0153543
X0105512Y015748
X0119095Y0153543
X0125591Y015748
T02
X0040354Y0161417
X0059646
X0079724
X0099016
X0119095
X0150787Y0133071
T03
X0127677Y0010748
Y0020748
X0137677
X0147677
X0157677
Y0010748
X0147677
X0137677
X0168228Y0151299
Y0161299
Y0171299
Y0181299
X0178228
Y0171299
Y0161299
Y0151299
T04
X0204724Y-0009843
X0015748Y003937
Y0173228
X0149606
T05
X0117677Y0010748
Y0020748
X0168228Y0031299
Y0041299
Y0051299
Y0061299
Y0071299
Y0081299
Y0091299
Y0101299
Y0111299
X0178228
Y0101299
Y0091299
Y0081299
Y0071299
Y0061299
Y0051299
Y0041299
Y0031299
X0107677Y0020748
X0097677
X0087677
X0077677
X0067677
X0057677
X0047677
X0037677
X0027677
X0017677
X0007677
Y0010748
X0017677
X0027677
X0037677
X0047677
X0057677
X0067677
X0077677
X0087677
X0097677
X0107677
X0168228Y0121299
Y0131299
Y0141299
X0178228
Y0131299
Y0121299
M30
