M48
;Layer_Color=9474304
;FILE_FORMAT=2:5
INCH,LZ
;TYPE=PLATED
T1F00S00C0.02799
T2F00S00C0.03150
;TYPE=NON_PLATED
T3F00S00C0.12598
%
T01
X0122441Y0059449
X0122047Y009252
X0158661
X0158268Y0100394
X0159055Y0112205
X0156299Y007441
X0154725Y0055512
X0175295Y0012106
X0083858Y0036221
X0082284Y0065354
X0082677Y009252
X0043307
X001811Y0103543
X0016929Y0077953
X0040158Y0036221
X0043307Y0120079
X0049213Y0144882
Y016378
X0065945
X0082677
X009941Y0163386
X0082677Y014252
Y0120079
X0017323Y0133071
X0121654Y0140945
X0122047Y0120079
X0116142Y016378
T02
X0117677Y0010748
X0127677
X0137677
X0147677
X0157677
Y0020748
X0147677
X0137677
X0127677
X0117677
X0168228Y0031299
X0178228
Y0041299
Y0051299
Y0061299
Y0071299
Y0081299
Y0091299
Y0101299
Y0111299
X0168228
Y0101299
Y0091299
Y0081299
Y0071299
Y0061299
Y0051299
Y0041299
X0107677Y0020748
Y0010748
X0097677
X0087677
X0077677
X0067677
X0057677
X0047677
X0037677
X0027677
X0017677
X0007677
Y0020748
X0017677
X0027677
X0037677
X0047677
X0057677
X0067677
X0077677
X0087677
X0097677
X0168228Y0121299
X0178228
Y0131299
Y0141299
Y0151299
Y0161299
Y0171299
Y0181299
X0168228
Y0171299
Y0161299
Y0151299
Y0141299
Y0131299
T03
X0015748Y003937
Y0173228
X0149606
M30
