G04 Layer_Physical_Order=1*
G04 Layer_Color=255*
%FSLAX25Y25*%
%MOIN*%
G70*
G01*
G75*
%ADD10R,0.03543X0.03937*%
%ADD11O,0.02165X0.06890*%
%ADD12O,0.06890X0.02165*%
%ADD13R,0.07480X0.10236*%
%ADD14R,0.09449X0.12992*%
%ADD15R,0.09449X0.03740*%
%ADD16O,0.02362X0.08661*%
%ADD17R,0.03937X0.03543*%
%ADD18R,0.04528X0.07087*%
%ADD19C,0.01181*%
%ADD20C,0.01969*%
%ADD21C,0.03937*%
%ADD22R,0.05512X0.02362*%
%ADD23R,0.07087X0.02362*%
%ADD24C,0.00787*%
%ADD25C,0.01575*%
%ADD26C,0.02362*%
%ADD27C,0.07087*%
%ADD28R,0.07087X0.07087*%
%ADD29R,0.07087X0.07087*%
%ADD30C,0.06693*%
%ADD31R,0.06693X0.06693*%
%ADD32C,0.23622*%
%ADD33C,0.01969*%
%ADD34C,0.05000*%
G36*
X232274Y99794D02*
X232730Y99489D01*
X233268Y99383D01*
X240133D01*
X240426Y99137D01*
X241237Y97808D01*
X241203Y97638D01*
X241349Y96908D01*
X241675Y96063D01*
X241349Y95218D01*
X241203Y94488D01*
X241349Y93759D01*
X241762Y93140D01*
X241148Y92151D01*
X239458Y91566D01*
X239188Y91707D01*
X239189Y91716D01*
X239189Y91717D01*
X239189Y91717D01*
Y93898D01*
X236221D01*
Y94488D01*
X235630D01*
Y97260D01*
X233252D01*
Y95770D01*
X231797Y95167D01*
X229625Y97339D01*
X229427Y97636D01*
X228841Y98027D01*
X228150Y98165D01*
X227458Y98027D01*
X226920Y97668D01*
X226860Y97634D01*
X226353Y97564D01*
X225122Y97676D01*
X224624Y98325D01*
X223720Y99019D01*
X222666Y99455D01*
Y101017D01*
X223720Y101453D01*
X224624Y102148D01*
X225318Y103052D01*
X225755Y104106D01*
X227415Y104653D01*
X232274Y99794D01*
D02*
G37*
G36*
X298219Y23810D02*
X298675Y23505D01*
X298798Y23481D01*
X299394Y22444D01*
X299511Y21824D01*
X299432Y21720D01*
X298994Y20662D01*
X298922Y20118D01*
X303228D01*
Y19528D01*
X303819D01*
Y15221D01*
X304363Y15293D01*
X305420Y15731D01*
X306328Y16428D01*
X307025Y17336D01*
X307463Y18393D01*
X307541Y18989D01*
X309130D01*
X309201Y18449D01*
X309617Y17443D01*
X310280Y16579D01*
X311144Y15917D01*
X312149Y15500D01*
X313228Y15358D01*
X314307Y15500D01*
X315313Y15917D01*
X315701Y16215D01*
X316742Y15028D01*
X313749Y12035D01*
X290346D01*
X279751Y22629D01*
Y27153D01*
X281326Y27721D01*
X282465Y27543D01*
Y27543D01*
X282589Y27543D01*
X284842D01*
Y30315D01*
X285433D01*
Y30906D01*
X288402D01*
Y32043D01*
X289976Y32053D01*
X298219Y23810D01*
D02*
G37*
G36*
X286383Y156339D02*
Y150000D01*
X286520Y149309D01*
X286912Y148723D01*
X287498Y148331D01*
X287964Y148239D01*
X290259Y145943D01*
X289656Y144488D01*
X287106D01*
Y144141D01*
X285677Y143424D01*
X285531Y143421D01*
X284941Y143539D01*
X284661Y143483D01*
X283452Y144167D01*
X283087Y144518D01*
Y144701D01*
X280906D01*
Y141732D01*
X279724D01*
Y144701D01*
X277543D01*
Y144701D01*
X277397Y144669D01*
X275836Y145728D01*
X275822Y145751D01*
Y157520D01*
X276374Y158071D01*
X284650D01*
X286383Y156339D01*
D02*
G37*
G36*
X297244Y162697D02*
X308268D01*
X308268Y162697D01*
Y162697D01*
X308268Y162697D01*
X309642Y162213D01*
X313878Y157977D01*
Y153150D01*
X315123D01*
Y130315D01*
Y127421D01*
X314965Y127264D01*
X312205D01*
Y125850D01*
X311371Y125533D01*
X309869Y126533D01*
X309833Y126714D01*
X309419Y127333D01*
X308801Y127746D01*
X308071Y127891D01*
X307114D01*
Y131898D01*
X307312Y132097D01*
X307778Y132190D01*
X308364Y132581D01*
X308755Y133167D01*
X308893Y133858D01*
X308755Y134550D01*
X308364Y135136D01*
X307778Y135527D01*
X307087Y135665D01*
X306395Y135527D01*
X305809Y135136D01*
X305418Y134550D01*
X305325Y134084D01*
X304715Y133474D01*
X304411Y133018D01*
X304304Y132480D01*
Y127891D01*
X303346D01*
X302617Y127746D01*
X302586Y127725D01*
X301011Y128474D01*
Y129575D01*
X301119Y130118D01*
Y134843D01*
X300974Y135572D01*
X300561Y136191D01*
X299942Y136604D01*
X299213Y136749D01*
X298483Y136604D01*
X297638Y136278D01*
X296793Y136604D01*
X296063Y136749D01*
X295333Y136604D01*
X294488Y136278D01*
X293643Y136604D01*
X292913Y136749D01*
X292184Y136604D01*
X291339Y136278D01*
X290493Y136604D01*
X289764Y136749D01*
X289034Y136604D01*
X288189Y136278D01*
X287344Y136604D01*
X286614Y136749D01*
X286444Y136715D01*
X285413Y137345D01*
X285394Y137395D01*
X285316Y138324D01*
X285518Y139123D01*
X285531Y139131D01*
X287106Y138976D01*
Y138977D01*
X292224D01*
X292224Y138976D01*
X293406D01*
Y138976D01*
X293799Y138977D01*
X298524D01*
Y144488D01*
X295688D01*
X289995Y150181D01*
Y157087D01*
X289858Y157778D01*
X289466Y158364D01*
X285857Y161973D01*
X286457Y163548D01*
X297244D01*
Y162697D01*
D02*
G37*
G36*
X285862Y52702D02*
Y43307D01*
X294917D01*
Y50583D01*
X296492Y50732D01*
X297503Y49382D01*
X297425Y48835D01*
X297425Y48316D01*
Y46654D01*
X303362D01*
Y48316D01*
X303362Y48835D01*
X303150Y50321D01*
Y54921D01*
X303150Y54921D01*
X303150D01*
X303215Y56469D01*
X313591D01*
X328123Y41938D01*
Y34921D01*
X327362Y33661D01*
X319094D01*
Y28730D01*
X317921Y27798D01*
X317256Y28449D01*
X317398Y29528D01*
X317256Y30607D01*
X316839Y31612D01*
X316177Y32476D01*
X315313Y33138D01*
X314307Y33555D01*
X313228Y33697D01*
X312149Y33555D01*
X311144Y33138D01*
X310280Y32476D01*
X309617Y31612D01*
X309201Y30607D01*
X309059Y29528D01*
X309201Y28449D01*
X308392Y26810D01*
X308228Y26764D01*
X308064Y26810D01*
X307256Y28449D01*
X307398Y29528D01*
X307256Y30607D01*
X306839Y31612D01*
X306177Y32476D01*
X305313Y33138D01*
X304308Y33555D01*
X303228Y33697D01*
X302149Y33555D01*
X301469Y33274D01*
X297135Y37608D01*
X296679Y37912D01*
X296142Y38019D01*
X288189D01*
Y39173D01*
X282677D01*
Y38019D01*
X281102D01*
Y39173D01*
X275591D01*
Y38019D01*
X265149D01*
X261452Y41717D01*
X262104Y43291D01*
X262795D01*
Y46063D01*
X263386D01*
Y46654D01*
X266354D01*
Y48316D01*
X266354Y48835D01*
X266276Y49382D01*
X267358Y50827D01*
X268933Y50861D01*
Y43307D01*
X277988D01*
Y53167D01*
X280186Y55365D01*
X280491Y55821D01*
X280495Y55842D01*
X282050Y56514D01*
X285862Y52702D01*
D02*
G37*
G36*
X238672Y165148D02*
X239037Y164904D01*
X239144Y164789D01*
X239572Y163334D01*
X239564Y163204D01*
X238770Y162411D01*
X238466Y161955D01*
X238359Y161417D01*
Y134388D01*
X238005Y134042D01*
X236784Y133348D01*
X236516Y133401D01*
X235824Y133263D01*
X235239Y132872D01*
X234847Y132286D01*
X234709Y131595D01*
X234847Y130903D01*
X235239Y130317D01*
X234741Y128756D01*
X233252D01*
X232409Y129982D01*
Y135768D01*
X232302Y136305D01*
X231997Y136761D01*
X225432Y143327D01*
X225755Y144106D01*
X225904Y145236D01*
X225755Y146367D01*
X225318Y147420D01*
X224624Y148325D01*
X223720Y149019D01*
X222666Y149455D01*
Y151017D01*
X223720Y151453D01*
X224624Y152148D01*
X225318Y153052D01*
X225755Y154106D01*
X225904Y155236D01*
X225755Y156367D01*
X225318Y157420D01*
X224624Y158325D01*
X223720Y159019D01*
X222666Y159456D01*
Y161017D01*
X223720Y161453D01*
X224624Y162148D01*
X225318Y163052D01*
X225755Y164106D01*
X225904Y165236D01*
X225755Y166367D01*
X225370Y167296D01*
X225549Y167805D01*
X226190Y168871D01*
X234950D01*
X238672Y165148D01*
D02*
G37*
G36*
X247809Y180814D02*
X247816Y180771D01*
X247413Y180307D01*
X246041Y179525D01*
X245320Y180007D01*
X245059Y180059D01*
Y174803D01*
X244468D01*
Y174213D01*
X242245D01*
Y172529D01*
X240670Y171877D01*
X236317Y176230D01*
X235861Y176534D01*
X235323Y176641D01*
X225641D01*
X225318Y177420D01*
X224624Y178325D01*
X223720Y179019D01*
X222666Y179455D01*
Y181017D01*
X223720Y181453D01*
X224624Y182148D01*
X225318Y183052D01*
X225641Y183831D01*
X244792D01*
X247809Y180814D01*
D02*
G37*
G36*
X243064Y150100D02*
Y148839D01*
X243170Y148301D01*
X243475Y147845D01*
X250564Y140757D01*
Y136106D01*
X250207Y135572D01*
X250062Y134843D01*
Y130118D01*
X250207Y129388D01*
X250620Y128770D01*
X251239Y128357D01*
X251969Y128211D01*
X252698Y128357D01*
X253543Y128682D01*
X254388Y128357D01*
X255118Y128211D01*
X255848Y128357D01*
X256693Y128682D01*
X257538Y128357D01*
X258268Y128211D01*
X258997Y128357D01*
X259842Y128682D01*
X260688Y128357D01*
X261417Y128211D01*
X261587Y128245D01*
X262917Y127435D01*
X263162Y127141D01*
Y125594D01*
X262898Y125199D01*
X262761Y124508D01*
X262898Y123817D01*
X263290Y123231D01*
X263876Y122839D01*
X264567Y122702D01*
X265258Y122839D01*
X266142Y123132D01*
X267025Y122839D01*
X267717Y122702D01*
X268408Y122839D01*
X269291Y123132D01*
X270175Y122839D01*
X270866Y122702D01*
X271557Y122839D01*
X272144Y123231D01*
X272535Y123817D01*
X272673Y124508D01*
X272535Y125199D01*
X272271Y125594D01*
Y127141D01*
X272516Y127435D01*
X273846Y128245D01*
X274016Y128211D01*
X274745Y128357D01*
X275364Y128770D01*
X276353Y128156D01*
X276575Y128112D01*
Y132480D01*
X277756D01*
Y128112D01*
X277978Y128156D01*
X278967Y128770D01*
X279585Y128357D01*
X280315Y128211D01*
X281045Y128357D01*
X281890Y128682D01*
X282735Y128357D01*
X283465Y128211D01*
X283634Y128245D01*
X284964Y127435D01*
X285209Y127141D01*
Y125594D01*
X284945Y125199D01*
X284808Y124508D01*
X284945Y123817D01*
X285337Y123231D01*
X285923Y122839D01*
X286614Y122702D01*
X287305Y122839D01*
X288189Y123132D01*
X289073Y122839D01*
X289764Y122702D01*
X290455Y122839D01*
X291339Y123132D01*
X292222Y122839D01*
X292913Y122702D01*
X293605Y122839D01*
X294488Y123132D01*
X295372Y122839D01*
X296063Y122702D01*
X296627Y122814D01*
X296825Y122794D01*
X298201Y121912D01*
Y103338D01*
X295050Y100187D01*
X294584Y100094D01*
X293998Y99703D01*
X293607Y99116D01*
X293469Y98425D01*
X293607Y97734D01*
X293998Y97148D01*
X294584Y96756D01*
X295276Y96619D01*
X295967Y96756D01*
X296553Y97148D01*
X296944Y97734D01*
X297037Y98200D01*
X299901Y101064D01*
X300765Y100909D01*
X300970Y100826D01*
X301508Y100444D01*
X301585Y100058D01*
X301911Y99213D01*
X301585Y98368D01*
X301440Y97638D01*
X301585Y96908D01*
X301911Y96063D01*
X301585Y95218D01*
X301440Y94488D01*
X301585Y93759D01*
X301998Y93140D01*
Y92687D01*
X301585Y92068D01*
X301440Y91339D01*
X301585Y90609D01*
X301911Y89764D01*
X301585Y88919D01*
X301440Y88189D01*
X301585Y87459D01*
X301998Y86841D01*
Y86388D01*
X301585Y85769D01*
X301440Y85039D01*
X301585Y84310D01*
X301911Y83465D01*
X301585Y82620D01*
X301440Y81890D01*
X301585Y81160D01*
X301911Y80315D01*
X301585Y79470D01*
X301440Y78740D01*
X301585Y78011D01*
X301998Y77392D01*
X302617Y76979D01*
X303346Y76833D01*
X308071D01*
X308801Y76979D01*
X309334Y77335D01*
X324803D01*
X325341Y77442D01*
X325394Y77478D01*
X326604Y77020D01*
X326969Y76692D01*
Y75019D01*
X325599Y73649D01*
X301119D01*
Y74606D01*
X300974Y75336D01*
X300561Y75955D01*
X299942Y76368D01*
X299213Y76513D01*
X298483Y76368D01*
X297638Y76042D01*
X296793Y76368D01*
X296063Y76513D01*
X295333Y76368D01*
X294488Y76042D01*
X293643Y76368D01*
X292913Y76513D01*
X292184Y76368D01*
X291339Y76042D01*
X290493Y76368D01*
X289764Y76513D01*
X289034Y76368D01*
X288416Y75955D01*
X287427Y76568D01*
X287205Y76612D01*
Y72244D01*
X286024D01*
Y76612D01*
X285802Y76568D01*
X284813Y75955D01*
X284194Y76368D01*
X283465Y76513D01*
X282735Y76368D01*
X281890Y76042D01*
X281045Y76368D01*
X280315Y76513D01*
X279585Y76368D01*
X278740Y76042D01*
X277895Y76368D01*
X277165Y76513D01*
X276436Y76368D01*
X275591Y76042D01*
X274745Y76368D01*
X274016Y76513D01*
X273286Y76368D01*
X272441Y76042D01*
X271596Y76368D01*
X270866Y76513D01*
X270136Y76368D01*
X269291Y76042D01*
X268446Y76368D01*
X267717Y76513D01*
X266987Y76368D01*
X266368Y75955D01*
X265915D01*
X265297Y76368D01*
X264567Y76513D01*
X263837Y76368D01*
X263403Y76078D01*
X262382Y76474D01*
X262230Y76568D01*
X262041Y76606D01*
X261932Y76648D01*
X261333Y78046D01*
X261321Y78232D01*
X264005Y80916D01*
X264471Y81008D01*
X265057Y81400D01*
X265448Y81986D01*
X265586Y82677D01*
X265448Y83368D01*
X265057Y83955D01*
X264471Y84346D01*
X263780Y84484D01*
X263088Y84346D01*
X262502Y83955D01*
X262111Y83368D01*
X262018Y82903D01*
X259028Y79913D01*
X257987Y80043D01*
X257594Y80706D01*
X257305Y81583D01*
X257574Y81986D01*
X257712Y82677D01*
X257574Y83368D01*
X257311Y83763D01*
Y90945D01*
X257204Y91483D01*
X256899Y91938D01*
X250206Y98631D01*
X249596Y100058D01*
X249741Y100787D01*
X249596Y101517D01*
X249183Y102136D01*
Y102589D01*
X249596Y103207D01*
X249741Y103937D01*
X249596Y104667D01*
X249270Y105512D01*
X249596Y106357D01*
X249741Y107087D01*
X249596Y107816D01*
X249270Y108661D01*
X249596Y109507D01*
X249741Y110236D01*
X249708Y110406D01*
X250518Y111736D01*
X250812Y111981D01*
X252359D01*
X252754Y111717D01*
X253445Y111580D01*
X254136Y111717D01*
X254722Y112109D01*
X255114Y112695D01*
X255251Y113386D01*
X255114Y114077D01*
X254722Y114663D01*
Y115258D01*
X255114Y115844D01*
X255251Y116535D01*
X255114Y117227D01*
X254722Y117813D01*
X254136Y118204D01*
X253445Y118342D01*
X252754Y118204D01*
X252359Y117940D01*
X250812D01*
X250518Y118186D01*
X249708Y119515D01*
X249741Y119685D01*
X249596Y120415D01*
X249183Y121033D01*
X249797Y122022D01*
X249841Y122244D01*
X245473D01*
Y123425D01*
X249841D01*
X249797Y123647D01*
X249183Y124636D01*
X249596Y125255D01*
X249741Y125984D01*
X249596Y126714D01*
X249183Y127333D01*
X248564Y127746D01*
X247835Y127891D01*
X243110D01*
X242685Y127806D01*
X241169Y129322D01*
Y150210D01*
X241868Y150690D01*
X243064Y150100D01*
D02*
G37*
G36*
X274410Y169493D02*
Y161216D01*
X272739Y159545D01*
X272347Y158959D01*
X272209Y158268D01*
Y144488D01*
X271457D01*
Y138977D01*
X271457D01*
X271600Y137402D01*
X270866Y136749D01*
X270136Y136604D01*
X269518Y136191D01*
X269065D01*
X268446Y136604D01*
X267717Y136749D01*
X266987Y136604D01*
X266368Y136191D01*
X265915D01*
X265297Y136604D01*
X264567Y136749D01*
X263837Y136604D01*
X262992Y136278D01*
X262147Y136604D01*
X261417Y136749D01*
X260688Y136604D01*
X259842Y136278D01*
X258997Y136604D01*
X258268Y136749D01*
X258098Y136715D01*
X256768Y137526D01*
X256523Y137820D01*
Y140363D01*
X260462Y144302D01*
X260767Y144758D01*
X260874Y145295D01*
Y151327D01*
X260888Y151337D01*
X261323Y151988D01*
X261476Y152756D01*
Y159055D01*
X261323Y159823D01*
X260888Y160474D01*
X260237Y160909D01*
X259469Y161062D01*
X258700Y160909D01*
X258049Y160474D01*
X257843Y160166D01*
X257305Y160045D01*
X256633D01*
X256094Y160166D01*
X255888Y160474D01*
X255237Y160909D01*
X254468Y161062D01*
X253700Y160909D01*
X253049Y160474D01*
X251464Y160688D01*
X250873Y161161D01*
X250766Y161699D01*
X250462Y162155D01*
X249455Y163162D01*
X250107Y164737D01*
X251378D01*
X251916Y164844D01*
X252371Y165148D01*
X255462Y168239D01*
X255767Y168695D01*
X255873Y169232D01*
Y170225D01*
X255888Y170234D01*
X256094Y170543D01*
X256633Y170664D01*
X257305D01*
X257843Y170543D01*
X258049Y170234D01*
X258700Y169799D01*
X259469Y169647D01*
X260237Y169799D01*
X260888Y170234D01*
X261323Y170886D01*
X261476Y171654D01*
Y172997D01*
X270905D01*
X274410Y169493D01*
D02*
G37*
G36*
X366142Y3937D02*
X200787D01*
Y192913D01*
X215081D01*
X215651Y191339D01*
X213445Y189133D01*
X212666Y189455D01*
X211536Y189604D01*
X210405Y189455D01*
X209351Y189019D01*
X208447Y188325D01*
X207753Y187420D01*
X207316Y186367D01*
X207167Y185236D01*
X207316Y184106D01*
X207753Y183052D01*
X208447Y182148D01*
X209351Y181453D01*
X210405Y181017D01*
Y179455D01*
X209351Y179019D01*
X208447Y178325D01*
X207753Y177420D01*
X207316Y176367D01*
X207167Y175236D01*
X207316Y174106D01*
X207753Y173052D01*
X208447Y172148D01*
X209351Y171453D01*
X210044Y171167D01*
X210146Y170665D01*
X210115Y169800D01*
X210053Y169540D01*
X209244Y169205D01*
X208295Y168477D01*
X207567Y167527D01*
X207109Y166422D01*
X207031Y165827D01*
X211536D01*
Y164646D01*
X207031D01*
X207109Y164050D01*
X207567Y162945D01*
X208295Y161996D01*
X209244Y161268D01*
X210053Y160933D01*
X210115Y160673D01*
X210146Y159808D01*
X210044Y159306D01*
X209351Y159019D01*
X208447Y158325D01*
X207753Y157420D01*
X207316Y156367D01*
X207167Y155236D01*
X207316Y154106D01*
X207753Y153052D01*
X208447Y152148D01*
X209351Y151453D01*
X210044Y151166D01*
X210146Y150665D01*
X210115Y149800D01*
X210053Y149540D01*
X209244Y149205D01*
X208295Y148477D01*
X207567Y147528D01*
X207109Y146422D01*
X207031Y145827D01*
X211536D01*
Y144646D01*
X207031D01*
X207109Y144050D01*
X207567Y142945D01*
X208295Y141996D01*
X209244Y141268D01*
X210053Y140933D01*
X210115Y140673D01*
X210146Y139808D01*
X210044Y139306D01*
X209351Y139019D01*
X208447Y138325D01*
X207753Y137420D01*
X207316Y136367D01*
X207167Y135236D01*
X207316Y134106D01*
X207753Y133052D01*
X208447Y132148D01*
X209351Y131453D01*
X210044Y131167D01*
X210146Y130665D01*
X210115Y129800D01*
X210053Y129540D01*
X209244Y129205D01*
X208295Y128477D01*
X207567Y127527D01*
X207109Y126422D01*
X207031Y125827D01*
X211536D01*
Y124646D01*
X207031D01*
X207109Y124050D01*
X207567Y122945D01*
X208295Y121996D01*
X209244Y121268D01*
X210053Y120933D01*
X210115Y120673D01*
X210146Y119808D01*
X210044Y119306D01*
X209351Y119019D01*
X208447Y118325D01*
X207753Y117420D01*
X207316Y116367D01*
X207167Y115236D01*
X207316Y114106D01*
X207753Y113052D01*
X208447Y112148D01*
X209351Y111453D01*
X210044Y111167D01*
X210146Y110665D01*
X210115Y109800D01*
X210053Y109540D01*
X209244Y109205D01*
X208295Y108477D01*
X207567Y107527D01*
X207109Y106422D01*
X207031Y105827D01*
X211536D01*
Y104646D01*
X207031D01*
X207109Y104050D01*
X207567Y102945D01*
X207834Y102597D01*
X208219Y101766D01*
X207768Y100415D01*
X205109Y97756D01*
X204804Y97301D01*
X204697Y96763D01*
Y82776D01*
X204804Y82238D01*
X205109Y81782D01*
X207425Y79466D01*
X207728Y79128D01*
X207778Y77513D01*
X207745Y77402D01*
X207316Y76367D01*
X207167Y75236D01*
X207316Y74106D01*
X207753Y73052D01*
X208447Y72148D01*
X209351Y71453D01*
X210044Y71166D01*
X210146Y70665D01*
X210115Y69800D01*
X210053Y69540D01*
X209244Y69205D01*
X208295Y68477D01*
X207567Y67528D01*
X207109Y66422D01*
X207031Y65827D01*
X211536D01*
Y64646D01*
X207031D01*
X207109Y64050D01*
X207567Y62945D01*
X208295Y61996D01*
X209244Y61268D01*
X210053Y60933D01*
X210115Y60673D01*
X210146Y59808D01*
X210044Y59306D01*
X209351Y59019D01*
X208447Y58325D01*
X207753Y57420D01*
X207316Y56367D01*
X207167Y55236D01*
X207316Y54106D01*
X207753Y53052D01*
X208447Y52148D01*
X209351Y51453D01*
X210044Y51166D01*
X210146Y50665D01*
X210115Y49800D01*
X210053Y49540D01*
X209244Y49205D01*
X208295Y48477D01*
X207567Y47528D01*
X207109Y46422D01*
X207031Y45827D01*
X211536D01*
Y44646D01*
X207031D01*
X207109Y44050D01*
X207567Y42945D01*
X208295Y41996D01*
X209244Y41268D01*
X210053Y40933D01*
X210115Y40673D01*
X210146Y39808D01*
X210044Y39306D01*
X209351Y39019D01*
X208447Y38325D01*
X207753Y37420D01*
X207316Y36367D01*
X207167Y35236D01*
X207316Y34106D01*
X207753Y33052D01*
X208447Y32148D01*
X209351Y31453D01*
X210405Y31017D01*
X211536Y30868D01*
X212666Y31017D01*
X213720Y31453D01*
X214624Y32148D01*
X215318Y33052D01*
X215630Y33805D01*
X217205Y33491D01*
Y30906D01*
X225866D01*
Y39567D01*
X223280D01*
X222967Y41142D01*
X223720Y41453D01*
X224624Y42148D01*
X225318Y43052D01*
X225755Y44106D01*
X225904Y45236D01*
X225755Y46367D01*
X225318Y47420D01*
X224624Y48325D01*
X223720Y49019D01*
X222666Y49455D01*
Y51017D01*
X223720Y51453D01*
X224624Y52148D01*
X225318Y53052D01*
X225755Y54106D01*
X225904Y55236D01*
X225755Y56367D01*
X225318Y57420D01*
X224624Y58325D01*
X223720Y59019D01*
X222666Y59456D01*
Y61017D01*
X223720Y61453D01*
X224624Y62148D01*
X225318Y63052D01*
X225755Y64106D01*
X225904Y65236D01*
X225755Y66367D01*
X225318Y67420D01*
X224624Y68325D01*
X223720Y69019D01*
X222666Y69455D01*
Y71017D01*
X223720Y71453D01*
X224624Y72148D01*
X225318Y73052D01*
X225755Y74106D01*
X225904Y75236D01*
X225755Y76367D01*
X225730Y76425D01*
X227065Y77317D01*
X228605Y75778D01*
X229060Y75474D01*
X229598Y75367D01*
X238099D01*
X242215Y71251D01*
X242671Y70946D01*
X243209Y70839D01*
X250062D01*
Y69882D01*
X250207Y69152D01*
X250620Y68534D01*
X251239Y68120D01*
X251969Y67975D01*
X252698Y68120D01*
X253543Y68446D01*
X254388Y68120D01*
X255118Y67975D01*
X255848Y68120D01*
X256693Y68446D01*
X257538Y68120D01*
X258268Y67975D01*
X258997Y68120D01*
X259616Y68534D01*
X260605Y67920D01*
X261175Y66227D01*
X261048Y65960D01*
X261039Y65961D01*
X260521Y65961D01*
X258858D01*
Y62992D01*
X258268D01*
Y62402D01*
X255496D01*
Y60024D01*
X257417D01*
X258009Y58449D01*
X255699Y56140D01*
X255395Y55684D01*
X255288Y55146D01*
Y41704D01*
X255395Y41167D01*
X255699Y40711D01*
X263939Y32471D01*
X264395Y32167D01*
X264933Y32060D01*
X275591D01*
Y27756D01*
X276941D01*
Y22047D01*
X277048Y21510D01*
X277353Y21054D01*
X288770Y9636D01*
X289226Y9332D01*
X289764Y9225D01*
X314331D01*
X314868Y9332D01*
X315324Y9636D01*
X321469Y15782D01*
X322149Y15500D01*
X323228Y15358D01*
X324307Y15500D01*
X325313Y15917D01*
X326177Y16579D01*
X326839Y17443D01*
X327256Y18449D01*
X327398Y19528D01*
X327256Y20607D01*
X326974Y21287D01*
X330521Y24833D01*
X330826Y25289D01*
X330932Y25827D01*
Y42520D01*
X330826Y43057D01*
X330521Y43513D01*
X315167Y58868D01*
X314711Y59172D01*
X314173Y59279D01*
X300101D01*
X298835Y60024D01*
Y62402D01*
X296063D01*
Y63583D01*
X298835D01*
Y65524D01*
X326969D01*
Y64961D01*
X331693D01*
X332087Y64961D01*
X333268D01*
X333662Y64961D01*
X338386D01*
Y66312D01*
X342717D01*
Y64961D01*
X347317D01*
X348803Y64748D01*
X349321Y64748D01*
X350984D01*
Y67717D01*
Y70685D01*
X349321D01*
X348803Y70685D01*
X347317Y70473D01*
X342717D01*
Y69122D01*
X338386D01*
Y70473D01*
X333662D01*
X333268Y70473D01*
X332087D01*
X331693Y70473D01*
X329352D01*
X328632Y72047D01*
X329241Y72835D01*
X331693D01*
X332087Y72835D01*
X333268D01*
X333662Y72835D01*
X338386D01*
Y74186D01*
X342717D01*
Y72835D01*
X347317D01*
X348803Y72622D01*
X349321Y72622D01*
X350984D01*
Y75591D01*
Y78559D01*
X349321D01*
X348803Y78559D01*
X347317Y78347D01*
X342717D01*
Y76996D01*
X338386D01*
Y78347D01*
X333662D01*
X333268Y78347D01*
X332087D01*
X331693Y78347D01*
X329352D01*
X328632Y79921D01*
X329241Y80709D01*
X331693D01*
X332087Y80709D01*
X333268D01*
X333662Y80709D01*
X338386D01*
Y82060D01*
X342717D01*
Y80709D01*
X347317D01*
X348803Y80496D01*
X349321Y80496D01*
X350984D01*
Y83465D01*
Y86433D01*
X349321D01*
X348803Y86433D01*
X347317Y86221D01*
X342717D01*
Y84870D01*
X338386D01*
Y86221D01*
X334107D01*
X333641Y86792D01*
X333113Y87731D01*
X333204Y88189D01*
X333067Y88880D01*
X332675Y89466D01*
X332089Y89858D01*
X331398Y89995D01*
X330706Y89858D01*
X330311Y89594D01*
X311048D01*
X310755Y89839D01*
X309944Y91169D01*
X309978Y91339D01*
X309944Y91509D01*
X310755Y92838D01*
X311048Y93083D01*
X343307D01*
X343845Y93190D01*
X344301Y93495D01*
X346475Y95669D01*
X349285D01*
X350772Y95457D01*
X351290Y95457D01*
X352953D01*
Y98425D01*
Y101394D01*
X351290D01*
X350772Y101394D01*
X349285Y101181D01*
X347069D01*
X346349Y102756D01*
X346958Y103543D01*
X349285D01*
X350772Y103331D01*
X351290Y103331D01*
X352953D01*
Y106299D01*
Y109268D01*
X351290D01*
X350772Y109268D01*
X349285Y109055D01*
X347069D01*
X346349Y110630D01*
X346958Y111417D01*
X349285D01*
X350772Y111205D01*
X351290Y111205D01*
X352953D01*
Y114173D01*
Y117142D01*
X351290D01*
X350772Y117142D01*
X349285Y116929D01*
X347069D01*
X346349Y118504D01*
X346958Y119291D01*
X349285D01*
X350772Y119079D01*
X351290Y119079D01*
X352953D01*
Y122047D01*
Y125016D01*
X351290D01*
X350772Y125016D01*
X349285Y124803D01*
X347069D01*
X346349Y126378D01*
X346958Y127165D01*
X349285D01*
X350772Y126953D01*
X351290Y126953D01*
X352953D01*
Y129921D01*
Y132890D01*
X351290D01*
X350772Y132890D01*
X349285Y132677D01*
X347069D01*
X346349Y134252D01*
X346958Y135039D01*
X349285D01*
X350772Y134827D01*
X351290Y134827D01*
X352953D01*
Y137795D01*
Y140764D01*
X351290D01*
X350772Y140764D01*
X349285Y140551D01*
X347069D01*
X346349Y142126D01*
X346958Y142913D01*
X349285D01*
X350772Y142701D01*
X351290Y142701D01*
X352953D01*
Y145669D01*
Y148638D01*
X351290D01*
X350772Y148638D01*
X349285Y148425D01*
X347069D01*
X346349Y150000D01*
X346958Y150787D01*
X349285D01*
X350772Y150575D01*
X351290Y150575D01*
X352953D01*
Y153543D01*
Y156512D01*
X351290D01*
X350772Y156512D01*
X349285Y156299D01*
X344685D01*
Y152971D01*
X337392Y145679D01*
X337088Y145223D01*
X336981Y144685D01*
Y130700D01*
X328843Y122563D01*
X322942Y116661D01*
X317929D01*
Y117815D01*
X314961D01*
Y118996D01*
X317929D01*
Y121177D01*
X317929Y121177D01*
X317929Y121177D01*
X317717Y122664D01*
Y124906D01*
X318206Y125396D01*
X318598Y125982D01*
X318736Y126673D01*
Y130315D01*
Y145850D01*
X320310Y146502D01*
X322441Y144371D01*
Y141437D01*
X322441Y141043D01*
Y139862D01*
X322441Y139469D01*
Y134744D01*
X327953D01*
Y134744D01*
X328543Y134744D01*
X329570Y133594D01*
X329729Y133172D01*
X329591Y132480D01*
X329729Y131789D01*
X330120Y131203D01*
X330706Y130812D01*
X331398Y130674D01*
X332089Y130812D01*
X332675Y131203D01*
X333067Y131789D01*
X333204Y132480D01*
X333067Y133172D01*
X333659Y134744D01*
X334055D01*
Y139344D01*
X334268Y140831D01*
X334268Y141349D01*
Y143012D01*
X331299D01*
Y143602D01*
X330709D01*
Y146374D01*
X329439D01*
X328331Y146374D01*
X326844Y146161D01*
X324625D01*
X321976Y148810D01*
Y168406D01*
X321869Y168943D01*
X321564Y169399D01*
X319980Y170983D01*
Y177559D01*
X313878D01*
Y176216D01*
X308268D01*
Y177067D01*
X304748D01*
Y183465D01*
X304654Y184184D01*
X304376Y184854D01*
X303934Y185430D01*
X303358Y185872D01*
X302688Y186150D01*
X301969Y186244D01*
X301249Y186150D01*
X300579Y185872D01*
X300003Y185430D01*
X299561Y184854D01*
X299284Y184184D01*
X299189Y183465D01*
Y177067D01*
X297244D01*
Y171752D01*
X301970D01*
X302036Y171725D01*
X302756Y171630D01*
X303475Y171725D01*
X303542Y171752D01*
X308268D01*
Y172603D01*
X313878D01*
Y168898D01*
X318092D01*
X319166Y167824D01*
Y161811D01*
X315153D01*
X310332Y166632D01*
X309746Y167023D01*
X309055Y167161D01*
X308268D01*
Y168012D01*
X297244D01*
Y167161D01*
X285433D01*
Y172638D01*
X276374D01*
X272931Y176081D01*
X272345Y176472D01*
X271654Y176610D01*
X261476D01*
Y177953D01*
X261323Y178721D01*
X260888Y179372D01*
X260237Y179807D01*
X259469Y179960D01*
X258700Y179807D01*
X258049Y179372D01*
X256478Y179656D01*
X255873Y180203D01*
Y180965D01*
X255767Y181502D01*
X255462Y181958D01*
X246081Y191339D01*
X246651Y192913D01*
X366142D01*
Y3937D01*
D02*
G37*
%LPC*%
G36*
X352165Y86433D02*
Y84055D01*
X354346D01*
Y86433D01*
X352165D01*
D02*
G37*
G36*
X354346Y82874D02*
X352165D01*
Y80496D01*
X354346D01*
Y82874D01*
D02*
G37*
G36*
X356315Y105709D02*
X354134D01*
Y103331D01*
X356315D01*
Y105709D01*
D02*
G37*
G36*
X354134Y109268D02*
Y106890D01*
X356315D01*
Y109268D01*
X354134D01*
D02*
G37*
G36*
X356315Y113583D02*
X354134D01*
Y111205D01*
X356315D01*
Y113583D01*
D02*
G37*
G36*
X239189Y97260D02*
X236811D01*
Y95079D01*
X239189D01*
Y97260D01*
D02*
G37*
G36*
X356315Y97835D02*
X354134D01*
Y95457D01*
X356315D01*
Y97835D01*
D02*
G37*
G36*
X354134Y101394D02*
Y99016D01*
X356315D01*
Y101394D01*
X354134D01*
D02*
G37*
G36*
X352165Y78559D02*
Y76181D01*
X354346D01*
Y78559D01*
X352165D01*
D02*
G37*
G36*
X261378Y24977D02*
X260783Y24899D01*
X259677Y24441D01*
X258728Y23713D01*
X258000Y22764D01*
X257665Y21955D01*
X257405Y21893D01*
X256540Y21862D01*
X256038Y21964D01*
X255751Y22657D01*
X255057Y23561D01*
X254153Y24255D01*
X253099Y24692D01*
X251969Y24841D01*
X250838Y24692D01*
X249784Y24255D01*
X248880Y23561D01*
X248186Y22657D01*
X247874Y21904D01*
X246299Y22217D01*
Y24803D01*
X237638D01*
Y16142D01*
X246299D01*
Y18728D01*
X247874Y19041D01*
X248186Y18289D01*
X248880Y17384D01*
X249784Y16690D01*
X250838Y16253D01*
X251969Y16104D01*
X253099Y16253D01*
X254153Y16690D01*
X255057Y17384D01*
X255751Y18289D01*
X256038Y18981D01*
X256540Y19083D01*
X257405Y19052D01*
X257665Y18990D01*
X258000Y18181D01*
X258728Y17232D01*
X259677Y16504D01*
X260783Y16046D01*
X261378Y15968D01*
Y20472D01*
Y24977D01*
D02*
G37*
G36*
X288402Y29724D02*
X286024D01*
Y27543D01*
X288402D01*
Y29724D01*
D02*
G37*
G36*
X350394Y55945D02*
X348417Y55789D01*
X346489Y55326D01*
X344656Y54567D01*
X342966Y53531D01*
X341458Y52243D01*
X340170Y50735D01*
X339134Y49044D01*
X338375Y47212D01*
X337912Y45284D01*
X337756Y43307D01*
X337912Y41330D01*
X338375Y39402D01*
X339134Y37570D01*
X340170Y35879D01*
X341458Y34371D01*
X342966Y33083D01*
X344656Y32047D01*
X346489Y31288D01*
X348417Y30825D01*
X350394Y30670D01*
X352371Y30825D01*
X354299Y31288D01*
X356131Y32047D01*
X357822Y33083D01*
X359330Y34371D01*
X360618Y35879D01*
X361654Y37570D01*
X362413Y39402D01*
X362876Y41330D01*
X363031Y43307D01*
X362876Y45284D01*
X362413Y47212D01*
X361654Y49044D01*
X360618Y50735D01*
X359330Y52243D01*
X357822Y53531D01*
X356131Y54567D01*
X354299Y55326D01*
X352371Y55789D01*
X350394Y55945D01*
D02*
G37*
G36*
X302638Y18937D02*
X298922D01*
X298994Y18393D01*
X299432Y17336D01*
X300128Y16428D01*
X301036Y15731D01*
X302094Y15293D01*
X302638Y15221D01*
Y18937D01*
D02*
G37*
G36*
X266473Y19882D02*
X262559D01*
Y15968D01*
X263155Y16046D01*
X264260Y16504D01*
X265209Y17232D01*
X265937Y18181D01*
X266395Y19286D01*
X266473Y19882D01*
D02*
G37*
G36*
X262559Y24977D02*
Y21063D01*
X266473D01*
X266395Y21658D01*
X265937Y22764D01*
X265209Y23713D01*
X264260Y24441D01*
X263155Y24899D01*
X262559Y24977D01*
D02*
G37*
G36*
X266354Y45472D02*
X263976D01*
Y43291D01*
X266354D01*
Y45472D01*
D02*
G37*
G36*
X354346Y67126D02*
X352165D01*
Y64748D01*
X354346D01*
Y67126D01*
D02*
G37*
G36*
X352165Y70685D02*
Y68307D01*
X354346D01*
Y70685D01*
X352165D01*
D02*
G37*
G36*
X354346Y75000D02*
X352165D01*
Y72622D01*
X354346D01*
Y75000D01*
D02*
G37*
G36*
X299803Y45472D02*
X297425D01*
Y43291D01*
X299803D01*
Y45472D01*
D02*
G37*
G36*
X303362D02*
X300984D01*
Y43291D01*
X303362D01*
Y45472D01*
D02*
G37*
G36*
X257677Y65961D02*
X255496D01*
Y63583D01*
X257677D01*
Y65961D01*
D02*
G37*
G36*
X302165Y159169D02*
X297031D01*
Y156890D01*
X302165D01*
Y159169D01*
D02*
G37*
G36*
X308480D02*
X303346D01*
Y156890D01*
X308480D01*
Y159169D01*
D02*
G37*
G36*
X328150Y162024D02*
X325476D01*
Y158071D01*
X328150D01*
Y162024D01*
D02*
G37*
G36*
X302165Y155709D02*
X297031D01*
Y153429D01*
X302165D01*
Y155709D01*
D02*
G37*
G36*
X308480D02*
X303346D01*
Y153429D01*
X308480D01*
Y155709D01*
D02*
G37*
G36*
X354134Y156512D02*
Y154134D01*
X356315D01*
Y156512D01*
X354134D01*
D02*
G37*
G36*
X332004Y162024D02*
X329331D01*
Y158071D01*
X332004D01*
Y162024D01*
D02*
G37*
G36*
X328150Y177772D02*
X325476D01*
Y173819D01*
X328150D01*
Y177772D01*
D02*
G37*
G36*
X332004D02*
X329331D01*
Y173819D01*
X332004D01*
Y177772D01*
D02*
G37*
G36*
X243878Y180059D02*
X243618Y180007D01*
X242896Y179525D01*
X242414Y178804D01*
X242245Y177953D01*
Y175394D01*
X243878D01*
Y180059D01*
D02*
G37*
G36*
X350394Y189803D02*
X348417Y189647D01*
X346489Y189184D01*
X344656Y188425D01*
X342966Y187389D01*
X341458Y186101D01*
X340170Y184593D01*
X339134Y182903D01*
X338375Y181071D01*
X337912Y179142D01*
X337756Y177165D01*
X337912Y175189D01*
X338375Y173260D01*
X339134Y171428D01*
X340170Y169737D01*
X341458Y168229D01*
X342966Y166942D01*
X344656Y165905D01*
X346489Y165147D01*
X348417Y164684D01*
X350394Y164528D01*
X352371Y164684D01*
X354299Y165147D01*
X356131Y165905D01*
X357822Y166942D01*
X359330Y168229D01*
X360618Y169737D01*
X361654Y171428D01*
X362413Y173260D01*
X362876Y175189D01*
X363031Y177165D01*
X362876Y179142D01*
X362413Y181071D01*
X361654Y182903D01*
X360618Y184593D01*
X359330Y186101D01*
X357822Y187389D01*
X356131Y188425D01*
X354299Y189184D01*
X352371Y189647D01*
X350394Y189803D01*
D02*
G37*
G36*
X328150Y172638D02*
X325476D01*
Y168685D01*
X328150D01*
Y172638D01*
D02*
G37*
G36*
X332004D02*
X329331D01*
Y168685D01*
X332004D01*
Y172638D01*
D02*
G37*
G36*
X356315Y129331D02*
X354134D01*
Y126953D01*
X356315D01*
Y129331D01*
D02*
G37*
G36*
X354134Y132890D02*
Y130512D01*
X356315D01*
Y132890D01*
X354134D01*
D02*
G37*
G36*
X356315Y137205D02*
X354134D01*
Y134827D01*
X356315D01*
Y137205D01*
D02*
G37*
G36*
X354134Y117142D02*
Y114764D01*
X356315D01*
Y117142D01*
X354134D01*
D02*
G37*
G36*
X356315Y121457D02*
X354134D01*
Y119079D01*
X356315D01*
Y121457D01*
D02*
G37*
G36*
X354134Y125016D02*
Y122638D01*
X356315D01*
Y125016D01*
X354134D01*
D02*
G37*
G36*
Y140764D02*
Y138386D01*
X356315D01*
Y140764D01*
X354134D01*
D02*
G37*
G36*
X356315Y152953D02*
X354134D01*
Y150575D01*
X356315D01*
Y152953D01*
D02*
G37*
G36*
X328150Y156890D02*
X325476D01*
Y152937D01*
X328150D01*
Y156890D01*
D02*
G37*
G36*
X332004D02*
X329331D01*
Y152937D01*
X332004D01*
Y156890D01*
D02*
G37*
G36*
X356315Y145079D02*
X354134D01*
Y142701D01*
X356315D01*
Y145079D01*
D02*
G37*
G36*
X331890Y146374D02*
Y144193D01*
X334268D01*
Y146374D01*
X331890D01*
D02*
G37*
G36*
X354134Y148638D02*
Y146260D01*
X356315D01*
Y148638D01*
X354134D01*
D02*
G37*
%LPD*%
G36*
X232274Y296644D02*
X232730Y296340D01*
X233268Y296233D01*
X240133D01*
X240426Y295988D01*
X241237Y294658D01*
X241203Y294488D01*
X241349Y293759D01*
X241675Y292914D01*
X241349Y292068D01*
X241203Y291339D01*
X241349Y290609D01*
X241762Y289990D01*
X241148Y289002D01*
X239458Y288416D01*
X239188Y288557D01*
X239189Y288567D01*
X239189Y288567D01*
X239189Y288567D01*
Y290748D01*
X236221D01*
Y291339D01*
X235630D01*
Y294110D01*
X233252D01*
Y292620D01*
X231797Y292017D01*
X229625Y294189D01*
X229427Y294486D01*
X228841Y294878D01*
X228150Y295015D01*
X227458Y294878D01*
X226920Y294518D01*
X226860Y294484D01*
X226353Y294414D01*
X225122Y294527D01*
X224624Y295175D01*
X223720Y295869D01*
X222666Y296306D01*
Y297867D01*
X223720Y298304D01*
X224624Y298998D01*
X225318Y299903D01*
X225755Y300956D01*
X227415Y301503D01*
X232274Y296644D01*
D02*
G37*
G36*
X298219Y220660D02*
X298675Y220356D01*
X298798Y220331D01*
X299394Y219295D01*
X299511Y218674D01*
X299432Y218570D01*
X298994Y217513D01*
X298922Y216969D01*
X303228D01*
Y216378D01*
X303819D01*
Y212072D01*
X304363Y212143D01*
X305420Y212581D01*
X306328Y213278D01*
X307025Y214186D01*
X307463Y215243D01*
X307541Y215839D01*
X309130D01*
X309201Y215299D01*
X309617Y214293D01*
X310280Y213430D01*
X311144Y212767D01*
X312149Y212351D01*
X313228Y212209D01*
X314307Y212351D01*
X315313Y212767D01*
X315701Y213065D01*
X316742Y211878D01*
X313749Y208885D01*
X290346D01*
X279751Y219480D01*
Y224004D01*
X281326Y224571D01*
X282465Y224394D01*
Y224394D01*
X282589Y224394D01*
X284842D01*
Y227165D01*
X285433D01*
Y227756D01*
X288402D01*
Y228893D01*
X289976Y228903D01*
X298219Y220660D01*
D02*
G37*
G36*
X286383Y353189D02*
Y346850D01*
X286520Y346159D01*
X286912Y345573D01*
X287498Y345182D01*
X287964Y345089D01*
X290259Y342794D01*
X289656Y341339D01*
X287106D01*
Y340991D01*
X285677Y340274D01*
X285531Y340272D01*
X284941Y340389D01*
X284661Y340334D01*
X283452Y341018D01*
X283087Y341369D01*
Y341551D01*
X280906D01*
Y338583D01*
X279724D01*
Y341551D01*
X277543D01*
Y341551D01*
X277397Y341519D01*
X275836Y342578D01*
X275822Y342602D01*
Y354370D01*
X276374Y354921D01*
X284650D01*
X286383Y353189D01*
D02*
G37*
G36*
X297244Y359547D02*
X308268D01*
X308268Y359547D01*
Y359547D01*
X308268Y359547D01*
X309642Y359063D01*
X313878Y354827D01*
Y350000D01*
X315123D01*
Y327165D01*
Y324272D01*
X314965Y324114D01*
X312205D01*
Y322700D01*
X311371Y322383D01*
X309869Y323383D01*
X309833Y323564D01*
X309419Y324183D01*
X308801Y324596D01*
X308071Y324741D01*
X307114D01*
Y328749D01*
X307312Y328947D01*
X307778Y329040D01*
X308364Y329431D01*
X308755Y330017D01*
X308893Y330709D01*
X308755Y331400D01*
X308364Y331986D01*
X307778Y332378D01*
X307087Y332515D01*
X306395Y332378D01*
X305809Y331986D01*
X305418Y331400D01*
X305325Y330934D01*
X304715Y330324D01*
X304411Y329868D01*
X304304Y329331D01*
Y324741D01*
X303346D01*
X302617Y324596D01*
X302586Y324576D01*
X301011Y325325D01*
Y326425D01*
X301119Y326969D01*
Y331693D01*
X300974Y332423D01*
X300561Y333041D01*
X299942Y333455D01*
X299213Y333600D01*
X298483Y333455D01*
X297638Y333129D01*
X296793Y333455D01*
X296063Y333600D01*
X295333Y333455D01*
X294488Y333129D01*
X293643Y333455D01*
X292913Y333600D01*
X292184Y333455D01*
X291339Y333129D01*
X290493Y333455D01*
X289764Y333600D01*
X289034Y333455D01*
X288189Y333129D01*
X287344Y333455D01*
X286614Y333600D01*
X286444Y333566D01*
X285413Y334195D01*
X285394Y334246D01*
X285316Y335175D01*
X285518Y335973D01*
X285531Y335981D01*
X287106Y335827D01*
Y335827D01*
X292224D01*
X292224Y335827D01*
X293406D01*
Y335827D01*
X293799Y335827D01*
X298524D01*
Y341339D01*
X295688D01*
X289995Y347031D01*
Y353937D01*
X289858Y354628D01*
X289466Y355214D01*
X285857Y358824D01*
X286457Y360398D01*
X297244D01*
Y359547D01*
D02*
G37*
G36*
X285862Y249552D02*
Y240158D01*
X294917D01*
Y247434D01*
X296492Y247583D01*
X297503Y246233D01*
X297425Y245685D01*
X297425Y245167D01*
Y243504D01*
X303362D01*
Y245167D01*
X303362Y245685D01*
X303150Y247172D01*
Y251772D01*
X303150Y251772D01*
X303150D01*
X303215Y253320D01*
X313591D01*
X328123Y238788D01*
Y231772D01*
X327362Y230512D01*
X319094D01*
Y225581D01*
X317921Y224648D01*
X317256Y225299D01*
X317398Y226378D01*
X317256Y227457D01*
X316839Y228463D01*
X316177Y229326D01*
X315313Y229989D01*
X314307Y230405D01*
X313228Y230547D01*
X312149Y230405D01*
X311144Y229989D01*
X310280Y229326D01*
X309617Y228463D01*
X309201Y227457D01*
X309059Y226378D01*
X309201Y225299D01*
X308392Y223660D01*
X308228Y223614D01*
X308064Y223660D01*
X307256Y225299D01*
X307398Y226378D01*
X307256Y227457D01*
X306839Y228463D01*
X306177Y229326D01*
X305313Y229989D01*
X304308Y230405D01*
X303228Y230547D01*
X302149Y230405D01*
X301469Y230124D01*
X297135Y234458D01*
X296679Y234763D01*
X296142Y234870D01*
X288189D01*
Y236024D01*
X282677D01*
Y234870D01*
X281102D01*
Y236024D01*
X275591D01*
Y234870D01*
X265149D01*
X261452Y238567D01*
X262104Y240142D01*
X262795D01*
Y242914D01*
X263386D01*
Y243504D01*
X266354D01*
Y245167D01*
X266354Y245685D01*
X266276Y246233D01*
X267358Y247677D01*
X268933Y247711D01*
Y240158D01*
X277988D01*
Y250017D01*
X280186Y252215D01*
X280491Y252671D01*
X280495Y252693D01*
X282050Y253364D01*
X285862Y249552D01*
D02*
G37*
G36*
X238672Y361999D02*
X239037Y361755D01*
X239144Y361640D01*
X239572Y360185D01*
X239564Y360055D01*
X238770Y359261D01*
X238466Y358805D01*
X238359Y358268D01*
Y331238D01*
X238005Y330892D01*
X236784Y330198D01*
X236516Y330251D01*
X235824Y330114D01*
X235239Y329722D01*
X234847Y329136D01*
X234709Y328445D01*
X234847Y327754D01*
X235239Y327168D01*
X234741Y325606D01*
X233252D01*
X232409Y326832D01*
Y332618D01*
X232302Y333156D01*
X231997Y333612D01*
X225432Y340177D01*
X225755Y340956D01*
X225904Y342087D01*
X225755Y343217D01*
X225318Y344271D01*
X224624Y345175D01*
X223720Y345869D01*
X222666Y346306D01*
Y347867D01*
X223720Y348304D01*
X224624Y348998D01*
X225318Y349903D01*
X225755Y350956D01*
X225904Y352087D01*
X225755Y353217D01*
X225318Y354271D01*
X224624Y355175D01*
X223720Y355870D01*
X222666Y356306D01*
Y357868D01*
X223720Y358304D01*
X224624Y358998D01*
X225318Y359903D01*
X225755Y360956D01*
X225904Y362087D01*
X225755Y363217D01*
X225370Y364146D01*
X225549Y364655D01*
X226190Y365721D01*
X234950D01*
X238672Y361999D01*
D02*
G37*
G36*
X247809Y377665D02*
X247816Y377621D01*
X247413Y377157D01*
X246041Y376376D01*
X245320Y376858D01*
X245059Y376910D01*
Y371654D01*
X244468D01*
Y371063D01*
X242245D01*
Y369379D01*
X240670Y368727D01*
X236317Y373080D01*
X235861Y373385D01*
X235323Y373492D01*
X225641D01*
X225318Y374271D01*
X224624Y375175D01*
X223720Y375869D01*
X222666Y376306D01*
Y377868D01*
X223720Y378304D01*
X224624Y378998D01*
X225318Y379903D01*
X225641Y380682D01*
X244792D01*
X247809Y377665D01*
D02*
G37*
G36*
X243064Y346950D02*
Y345689D01*
X243170Y345151D01*
X243475Y344696D01*
X250564Y337607D01*
Y332956D01*
X250207Y332423D01*
X250062Y331693D01*
Y326969D01*
X250207Y326239D01*
X250620Y325620D01*
X251239Y325207D01*
X251969Y325062D01*
X252698Y325207D01*
X253543Y325533D01*
X254388Y325207D01*
X255118Y325062D01*
X255848Y325207D01*
X256693Y325533D01*
X257538Y325207D01*
X258268Y325062D01*
X258997Y325207D01*
X259842Y325533D01*
X260688Y325207D01*
X261417Y325062D01*
X261587Y325096D01*
X262917Y324285D01*
X263162Y323991D01*
Y322445D01*
X262898Y322050D01*
X262761Y321358D01*
X262898Y320667D01*
X263290Y320081D01*
X263876Y319689D01*
X264567Y319552D01*
X265258Y319689D01*
X266142Y319982D01*
X267025Y319689D01*
X267717Y319552D01*
X268408Y319689D01*
X269291Y319982D01*
X270175Y319689D01*
X270866Y319552D01*
X271557Y319689D01*
X272144Y320081D01*
X272535Y320667D01*
X272673Y321358D01*
X272535Y322050D01*
X272271Y322445D01*
Y323991D01*
X272516Y324285D01*
X273846Y325096D01*
X274016Y325062D01*
X274745Y325207D01*
X275364Y325620D01*
X276353Y325007D01*
X276575Y324963D01*
Y329331D01*
X277756D01*
Y324963D01*
X277978Y325007D01*
X278967Y325620D01*
X279585Y325207D01*
X280315Y325062D01*
X281045Y325207D01*
X281890Y325533D01*
X282735Y325207D01*
X283465Y325062D01*
X283634Y325096D01*
X284964Y324285D01*
X285209Y323991D01*
Y322445D01*
X284945Y322050D01*
X284808Y321358D01*
X284945Y320667D01*
X285337Y320081D01*
X285923Y319689D01*
X286614Y319552D01*
X287305Y319689D01*
X288189Y319982D01*
X289073Y319689D01*
X289764Y319552D01*
X290455Y319689D01*
X291339Y319982D01*
X292222Y319689D01*
X292913Y319552D01*
X293605Y319689D01*
X294488Y319982D01*
X295372Y319689D01*
X296063Y319552D01*
X296627Y319664D01*
X296825Y319644D01*
X298201Y318762D01*
Y300188D01*
X295050Y297037D01*
X294584Y296944D01*
X293998Y296553D01*
X293607Y295967D01*
X293469Y295276D01*
X293607Y294584D01*
X293998Y293998D01*
X294584Y293607D01*
X295276Y293469D01*
X295967Y293607D01*
X296553Y293998D01*
X296944Y294584D01*
X297037Y295050D01*
X299901Y297914D01*
X300765Y297759D01*
X300970Y297677D01*
X301508Y297294D01*
X301585Y296908D01*
X301911Y296063D01*
X301585Y295218D01*
X301440Y294488D01*
X301585Y293759D01*
X301911Y292914D01*
X301585Y292068D01*
X301440Y291339D01*
X301585Y290609D01*
X301998Y289990D01*
Y289537D01*
X301585Y288919D01*
X301440Y288189D01*
X301585Y287459D01*
X301911Y286614D01*
X301585Y285769D01*
X301440Y285039D01*
X301585Y284310D01*
X301998Y283691D01*
Y283238D01*
X301585Y282620D01*
X301440Y281890D01*
X301585Y281160D01*
X301911Y280315D01*
X301585Y279470D01*
X301440Y278740D01*
X301585Y278011D01*
X301911Y277165D01*
X301585Y276320D01*
X301440Y275591D01*
X301585Y274861D01*
X301998Y274242D01*
X302617Y273829D01*
X303346Y273684D01*
X308071D01*
X308801Y273829D01*
X309334Y274186D01*
X324803D01*
X325341Y274293D01*
X325394Y274328D01*
X326604Y273870D01*
X326969Y273542D01*
Y271869D01*
X325599Y270499D01*
X301119D01*
Y271457D01*
X300974Y272186D01*
X300561Y272805D01*
X299942Y273218D01*
X299213Y273363D01*
X298483Y273218D01*
X297638Y272892D01*
X296793Y273218D01*
X296063Y273363D01*
X295333Y273218D01*
X294488Y272892D01*
X293643Y273218D01*
X292913Y273363D01*
X292184Y273218D01*
X291339Y272892D01*
X290493Y273218D01*
X289764Y273363D01*
X289034Y273218D01*
X288416Y272805D01*
X287427Y273419D01*
X287205Y273463D01*
Y269095D01*
X286024D01*
Y273463D01*
X285802Y273419D01*
X284813Y272805D01*
X284194Y273218D01*
X283465Y273363D01*
X282735Y273218D01*
X281890Y272892D01*
X281045Y273218D01*
X280315Y273363D01*
X279585Y273218D01*
X278740Y272892D01*
X277895Y273218D01*
X277165Y273363D01*
X276436Y273218D01*
X275591Y272892D01*
X274745Y273218D01*
X274016Y273363D01*
X273286Y273218D01*
X272441Y272892D01*
X271596Y273218D01*
X270866Y273363D01*
X270136Y273218D01*
X269291Y272892D01*
X268446Y273218D01*
X267717Y273363D01*
X266987Y273218D01*
X266368Y272805D01*
X265915D01*
X265297Y273218D01*
X264567Y273363D01*
X263837Y273218D01*
X263403Y272929D01*
X262382Y273324D01*
X262230Y273419D01*
X262041Y273456D01*
X261932Y273498D01*
X261333Y274896D01*
X261321Y275083D01*
X264005Y277766D01*
X264471Y277859D01*
X265057Y278250D01*
X265448Y278836D01*
X265586Y279528D01*
X265448Y280219D01*
X265057Y280805D01*
X264471Y281196D01*
X263780Y281334D01*
X263088Y281196D01*
X262502Y280805D01*
X262111Y280219D01*
X262018Y279753D01*
X259028Y276763D01*
X257987Y276893D01*
X257594Y277556D01*
X257305Y278433D01*
X257574Y278836D01*
X257712Y279528D01*
X257574Y280219D01*
X257311Y280614D01*
Y287795D01*
X257204Y288333D01*
X256899Y288789D01*
X250206Y295482D01*
X249596Y296908D01*
X249741Y297638D01*
X249596Y298368D01*
X249183Y298986D01*
Y299439D01*
X249596Y300058D01*
X249741Y300787D01*
X249596Y301517D01*
X249270Y302362D01*
X249596Y303207D01*
X249741Y303937D01*
X249596Y304667D01*
X249270Y305512D01*
X249596Y306357D01*
X249741Y307087D01*
X249708Y307257D01*
X250518Y308586D01*
X250812Y308831D01*
X252359D01*
X252754Y308567D01*
X253445Y308430D01*
X254136Y308567D01*
X254722Y308959D01*
X255114Y309545D01*
X255251Y310236D01*
X255114Y310928D01*
X254722Y311514D01*
Y312109D01*
X255114Y312695D01*
X255251Y313386D01*
X255114Y314077D01*
X254722Y314663D01*
X254136Y315055D01*
X253445Y315192D01*
X252754Y315055D01*
X252359Y314791D01*
X250812D01*
X250518Y315036D01*
X249708Y316366D01*
X249741Y316535D01*
X249596Y317265D01*
X249183Y317884D01*
X249797Y318872D01*
X249841Y319095D01*
X245473D01*
Y320276D01*
X249841D01*
X249797Y320498D01*
X249183Y321486D01*
X249596Y322105D01*
X249741Y322835D01*
X249596Y323564D01*
X249183Y324183D01*
X248564Y324596D01*
X247835Y324741D01*
X243110D01*
X242685Y324657D01*
X241169Y326173D01*
Y347060D01*
X241868Y347541D01*
X243064Y346950D01*
D02*
G37*
G36*
X274410Y366343D02*
Y358066D01*
X272739Y356396D01*
X272347Y355809D01*
X272209Y355118D01*
Y341339D01*
X271457D01*
Y335827D01*
X271457D01*
X271600Y334252D01*
X270866Y333600D01*
X270136Y333455D01*
X269518Y333041D01*
X269065D01*
X268446Y333455D01*
X267717Y333600D01*
X266987Y333455D01*
X266368Y333041D01*
X265915D01*
X265297Y333455D01*
X264567Y333600D01*
X263837Y333455D01*
X262992Y333129D01*
X262147Y333455D01*
X261417Y333600D01*
X260688Y333455D01*
X259842Y333129D01*
X258997Y333455D01*
X258268Y333600D01*
X258098Y333566D01*
X256768Y334377D01*
X256523Y334670D01*
Y337213D01*
X260462Y341152D01*
X260767Y341608D01*
X260874Y342146D01*
Y348178D01*
X260888Y348187D01*
X261323Y348838D01*
X261476Y349606D01*
Y355906D01*
X261323Y356674D01*
X260888Y357325D01*
X260237Y357760D01*
X259469Y357913D01*
X258700Y357760D01*
X258049Y357325D01*
X257843Y357017D01*
X257305Y356895D01*
X256633D01*
X256094Y357017D01*
X255888Y357325D01*
X255237Y357760D01*
X254468Y357913D01*
X253700Y357760D01*
X253049Y357325D01*
X251464Y357539D01*
X250873Y358012D01*
X250766Y358549D01*
X250462Y359005D01*
X249455Y360012D01*
X250107Y361587D01*
X251378D01*
X251916Y361694D01*
X252371Y361999D01*
X255462Y365089D01*
X255767Y365545D01*
X255873Y366083D01*
Y367075D01*
X255888Y367085D01*
X256094Y367393D01*
X256633Y367514D01*
X257305D01*
X257843Y367393D01*
X258049Y367085D01*
X258700Y366650D01*
X259469Y366497D01*
X260237Y366650D01*
X260888Y367085D01*
X261323Y367736D01*
X261476Y368504D01*
Y369847D01*
X270905D01*
X274410Y366343D01*
D02*
G37*
G36*
X366142Y200787D02*
X200787D01*
Y389764D01*
X215081D01*
X215651Y388189D01*
X213445Y385983D01*
X212666Y386306D01*
X211536Y386455D01*
X210405Y386306D01*
X209351Y385870D01*
X208447Y385175D01*
X207753Y384271D01*
X207316Y383217D01*
X207167Y382087D01*
X207316Y380956D01*
X207753Y379903D01*
X208447Y378998D01*
X209351Y378304D01*
X210405Y377868D01*
Y376306D01*
X209351Y375869D01*
X208447Y375175D01*
X207753Y374271D01*
X207316Y373217D01*
X207167Y372087D01*
X207316Y370956D01*
X207753Y369903D01*
X208447Y368998D01*
X209351Y368304D01*
X210044Y368017D01*
X210146Y367515D01*
X210115Y366650D01*
X210053Y366390D01*
X209244Y366055D01*
X208295Y365327D01*
X207567Y364378D01*
X207109Y363273D01*
X207031Y362677D01*
X211536D01*
Y361496D01*
X207031D01*
X207109Y360901D01*
X207567Y359795D01*
X208295Y358846D01*
X209244Y358118D01*
X210053Y357783D01*
X210115Y357523D01*
X210146Y356658D01*
X210044Y356156D01*
X209351Y355870D01*
X208447Y355175D01*
X207753Y354271D01*
X207316Y353217D01*
X207167Y352087D01*
X207316Y350956D01*
X207753Y349903D01*
X208447Y348998D01*
X209351Y348304D01*
X210044Y348017D01*
X210146Y347515D01*
X210115Y346650D01*
X210053Y346390D01*
X209244Y346055D01*
X208295Y345327D01*
X207567Y344378D01*
X207109Y343273D01*
X207031Y342677D01*
X211536D01*
Y341496D01*
X207031D01*
X207109Y340901D01*
X207567Y339795D01*
X208295Y338846D01*
X209244Y338118D01*
X210053Y337783D01*
X210115Y337523D01*
X210146Y336658D01*
X210044Y336157D01*
X209351Y335870D01*
X208447Y335175D01*
X207753Y334271D01*
X207316Y333217D01*
X207167Y332087D01*
X207316Y330956D01*
X207753Y329903D01*
X208447Y328998D01*
X209351Y328304D01*
X210044Y328017D01*
X210146Y327515D01*
X210115Y326650D01*
X210053Y326390D01*
X209244Y326055D01*
X208295Y325327D01*
X207567Y324378D01*
X207109Y323273D01*
X207031Y322677D01*
X211536D01*
Y321496D01*
X207031D01*
X207109Y320901D01*
X207567Y319795D01*
X208295Y318846D01*
X209244Y318118D01*
X210053Y317783D01*
X210115Y317523D01*
X210146Y316658D01*
X210044Y316157D01*
X209351Y315869D01*
X208447Y315175D01*
X207753Y314271D01*
X207316Y313217D01*
X207167Y312087D01*
X207316Y310956D01*
X207753Y309903D01*
X208447Y308998D01*
X209351Y308304D01*
X210044Y308017D01*
X210146Y307515D01*
X210115Y306650D01*
X210053Y306390D01*
X209244Y306055D01*
X208295Y305327D01*
X207567Y304378D01*
X207109Y303273D01*
X207031Y302677D01*
X211536D01*
Y301496D01*
X207031D01*
X207109Y300901D01*
X207567Y299795D01*
X207834Y299448D01*
X208219Y298617D01*
X207768Y297266D01*
X205109Y294607D01*
X204804Y294151D01*
X204697Y293613D01*
Y279626D01*
X204804Y279088D01*
X205109Y278633D01*
X207425Y276316D01*
X207728Y275978D01*
X207778Y274363D01*
X207745Y274253D01*
X207316Y273217D01*
X207167Y272087D01*
X207316Y270956D01*
X207753Y269903D01*
X208447Y268998D01*
X209351Y268304D01*
X210044Y268017D01*
X210146Y267515D01*
X210115Y266650D01*
X210053Y266390D01*
X209244Y266055D01*
X208295Y265327D01*
X207567Y264378D01*
X207109Y263273D01*
X207031Y262677D01*
X211536D01*
Y261496D01*
X207031D01*
X207109Y260901D01*
X207567Y259795D01*
X208295Y258846D01*
X209244Y258118D01*
X210053Y257783D01*
X210115Y257523D01*
X210146Y256658D01*
X210044Y256156D01*
X209351Y255870D01*
X208447Y255175D01*
X207753Y254271D01*
X207316Y253217D01*
X207167Y252087D01*
X207316Y250956D01*
X207753Y249903D01*
X208447Y248998D01*
X209351Y248304D01*
X210044Y248017D01*
X210146Y247515D01*
X210115Y246650D01*
X210053Y246390D01*
X209244Y246055D01*
X208295Y245327D01*
X207567Y244378D01*
X207109Y243273D01*
X207031Y242677D01*
X211536D01*
Y241496D01*
X207031D01*
X207109Y240901D01*
X207567Y239795D01*
X208295Y238846D01*
X209244Y238118D01*
X210053Y237783D01*
X210115Y237523D01*
X210146Y236658D01*
X210044Y236157D01*
X209351Y235870D01*
X208447Y235175D01*
X207753Y234271D01*
X207316Y233217D01*
X207167Y232087D01*
X207316Y230956D01*
X207753Y229903D01*
X208447Y228998D01*
X209351Y228304D01*
X210405Y227868D01*
X211536Y227719D01*
X212666Y227868D01*
X213720Y228304D01*
X214624Y228998D01*
X215318Y229903D01*
X215630Y230655D01*
X217205Y230342D01*
Y227756D01*
X225866D01*
Y236417D01*
X223280D01*
X222967Y237992D01*
X223720Y238304D01*
X224624Y238998D01*
X225318Y239903D01*
X225755Y240956D01*
X225904Y242087D01*
X225755Y243217D01*
X225318Y244271D01*
X224624Y245175D01*
X223720Y245869D01*
X222666Y246306D01*
Y247867D01*
X223720Y248304D01*
X224624Y248998D01*
X225318Y249903D01*
X225755Y250956D01*
X225904Y252087D01*
X225755Y253217D01*
X225318Y254271D01*
X224624Y255175D01*
X223720Y255870D01*
X222666Y256306D01*
Y257868D01*
X223720Y258304D01*
X224624Y258998D01*
X225318Y259903D01*
X225755Y260956D01*
X225904Y262087D01*
X225755Y263217D01*
X225318Y264271D01*
X224624Y265175D01*
X223720Y265869D01*
X222666Y266306D01*
Y267867D01*
X223720Y268304D01*
X224624Y268998D01*
X225318Y269903D01*
X225755Y270956D01*
X225904Y272087D01*
X225755Y273217D01*
X225730Y273276D01*
X227065Y274168D01*
X228605Y272629D01*
X229060Y272324D01*
X229598Y272217D01*
X238099D01*
X242215Y268101D01*
X242671Y267797D01*
X243209Y267690D01*
X250062D01*
Y266732D01*
X250207Y266003D01*
X250620Y265384D01*
X251239Y264971D01*
X251969Y264826D01*
X252698Y264971D01*
X253543Y265297D01*
X254388Y264971D01*
X255118Y264826D01*
X255848Y264971D01*
X256693Y265297D01*
X257538Y264971D01*
X258268Y264826D01*
X258997Y264971D01*
X259616Y265384D01*
X260605Y264771D01*
X261175Y263077D01*
X261048Y262810D01*
X261039Y262811D01*
X260521Y262811D01*
X258858D01*
Y259843D01*
X258268D01*
Y259252D01*
X255496D01*
Y256874D01*
X257417D01*
X258009Y255299D01*
X255699Y252990D01*
X255395Y252534D01*
X255288Y251996D01*
Y238555D01*
X255395Y238017D01*
X255699Y237561D01*
X263939Y229322D01*
X264395Y229017D01*
X264933Y228910D01*
X275591D01*
Y224606D01*
X276941D01*
Y218898D01*
X277048Y218360D01*
X277353Y217904D01*
X288770Y206487D01*
X289226Y206182D01*
X289764Y206075D01*
X314331D01*
X314868Y206182D01*
X315324Y206487D01*
X321469Y212632D01*
X322149Y212351D01*
X323228Y212209D01*
X324307Y212351D01*
X325313Y212767D01*
X326177Y213430D01*
X326839Y214293D01*
X327256Y215299D01*
X327398Y216378D01*
X327256Y217457D01*
X326974Y218137D01*
X330521Y221684D01*
X330826Y222140D01*
X330932Y222677D01*
Y239370D01*
X330826Y239908D01*
X330521Y240364D01*
X315167Y255718D01*
X314711Y256023D01*
X314173Y256129D01*
X300101D01*
X298835Y256874D01*
Y259252D01*
X296063D01*
Y260433D01*
X298835D01*
Y262375D01*
X326969D01*
Y261811D01*
X331693D01*
X332087Y261811D01*
X333268D01*
X333662Y261811D01*
X338386D01*
Y263162D01*
X342717D01*
Y261811D01*
X347317D01*
X348803Y261598D01*
X349321Y261598D01*
X350984D01*
Y264567D01*
Y267535D01*
X349321D01*
X348803Y267535D01*
X347317Y267323D01*
X342717D01*
Y265972D01*
X338386D01*
Y267323D01*
X333662D01*
X333268Y267323D01*
X332087D01*
X331693Y267323D01*
X329352D01*
X328632Y268898D01*
X329241Y269685D01*
X331693D01*
X332087Y269685D01*
X333268D01*
X333662Y269685D01*
X338386D01*
Y271036D01*
X342717D01*
Y269685D01*
X347317D01*
X348803Y269473D01*
X349321Y269473D01*
X350984D01*
Y272441D01*
Y275410D01*
X349321D01*
X348803Y275410D01*
X347317Y275197D01*
X342717D01*
Y273846D01*
X338386D01*
Y275197D01*
X333662D01*
X333268Y275197D01*
X332087D01*
X331693Y275197D01*
X329352D01*
X328632Y276772D01*
X329241Y277559D01*
X331693D01*
X332087Y277559D01*
X333268D01*
X333662Y277559D01*
X338386D01*
Y278910D01*
X342717D01*
Y277559D01*
X347317D01*
X348803Y277346D01*
X349321Y277346D01*
X350984D01*
Y280315D01*
Y283283D01*
X349321D01*
X348803Y283283D01*
X347317Y283071D01*
X342717D01*
Y281720D01*
X338386D01*
Y283071D01*
X334107D01*
X333641Y283643D01*
X333113Y284582D01*
X333204Y285039D01*
X333067Y285731D01*
X332675Y286317D01*
X332089Y286708D01*
X331398Y286846D01*
X330706Y286708D01*
X330311Y286444D01*
X311048D01*
X310755Y286690D01*
X309944Y288019D01*
X309978Y288189D01*
X309944Y288359D01*
X310755Y289688D01*
X311048Y289934D01*
X343307D01*
X343845Y290041D01*
X344301Y290345D01*
X346475Y292520D01*
X349285D01*
X350772Y292307D01*
X351290Y292307D01*
X352953D01*
Y295276D01*
Y298244D01*
X351290D01*
X350772Y298244D01*
X349285Y298032D01*
X347069D01*
X346349Y299606D01*
X346958Y300394D01*
X349285D01*
X350772Y300181D01*
X351290Y300181D01*
X352953D01*
Y303150D01*
Y306118D01*
X351290D01*
X350772Y306118D01*
X349285Y305906D01*
X347069D01*
X346349Y307480D01*
X346958Y308268D01*
X349285D01*
X350772Y308055D01*
X351290Y308055D01*
X352953D01*
Y311024D01*
Y313992D01*
X351290D01*
X350772Y313992D01*
X349285Y313780D01*
X347069D01*
X346349Y315354D01*
X346958Y316142D01*
X349285D01*
X350772Y315929D01*
X351290Y315929D01*
X352953D01*
Y318898D01*
Y321866D01*
X351290D01*
X350772Y321866D01*
X349285Y321654D01*
X347069D01*
X346349Y323228D01*
X346958Y324016D01*
X349285D01*
X350772Y323803D01*
X351290Y323803D01*
X352953D01*
Y326772D01*
Y329740D01*
X351290D01*
X350772Y329740D01*
X349285Y329528D01*
X347069D01*
X346349Y331102D01*
X346958Y331890D01*
X349285D01*
X350772Y331677D01*
X351290Y331677D01*
X352953D01*
Y334646D01*
Y337614D01*
X351290D01*
X350772Y337614D01*
X349285Y337402D01*
X347069D01*
X346349Y338976D01*
X346958Y339764D01*
X349285D01*
X350772Y339551D01*
X351290Y339551D01*
X352953D01*
Y342520D01*
Y345488D01*
X351290D01*
X350772Y345488D01*
X349285Y345276D01*
X347069D01*
X346349Y346850D01*
X346958Y347638D01*
X349285D01*
X350772Y347425D01*
X351290Y347425D01*
X352953D01*
Y350394D01*
Y353362D01*
X351290D01*
X350772Y353362D01*
X349285Y353150D01*
X344685D01*
Y349822D01*
X337392Y342529D01*
X337088Y342073D01*
X336981Y341535D01*
Y327551D01*
X328843Y319413D01*
X322942Y313511D01*
X317929D01*
Y314665D01*
X314961D01*
Y315846D01*
X317929D01*
Y318028D01*
X317929Y318028D01*
X317929Y318028D01*
X317717Y319514D01*
Y321757D01*
X318206Y322246D01*
X318598Y322832D01*
X318736Y323524D01*
Y327165D01*
Y342700D01*
X320310Y343353D01*
X322441Y341222D01*
Y338287D01*
X322441Y337894D01*
Y336713D01*
X322441Y336319D01*
Y331595D01*
X327953D01*
Y331594D01*
X328543Y331594D01*
X329570Y330445D01*
X329729Y330022D01*
X329591Y329331D01*
X329729Y328640D01*
X330120Y328053D01*
X330706Y327662D01*
X331398Y327524D01*
X332089Y327662D01*
X332675Y328053D01*
X333067Y328640D01*
X333204Y329331D01*
X333067Y330022D01*
X333659Y331595D01*
X334055D01*
Y336194D01*
X334268Y337681D01*
X334268Y338199D01*
Y339862D01*
X331299D01*
Y340453D01*
X330709D01*
Y343225D01*
X329439D01*
X328331Y343225D01*
X326844Y343012D01*
X324625D01*
X321976Y345661D01*
Y365256D01*
X321869Y365794D01*
X321564Y366249D01*
X319980Y367833D01*
Y374410D01*
X313878D01*
Y373066D01*
X308268D01*
Y373917D01*
X304748D01*
Y380315D01*
X304654Y381034D01*
X304376Y381705D01*
X303934Y382281D01*
X303358Y382722D01*
X302688Y383000D01*
X301969Y383095D01*
X301249Y383000D01*
X300579Y382722D01*
X300003Y382281D01*
X299561Y381705D01*
X299284Y381034D01*
X299189Y380315D01*
Y373917D01*
X297244D01*
Y368602D01*
X301970D01*
X302036Y368575D01*
X302756Y368480D01*
X303475Y368575D01*
X303542Y368602D01*
X308268D01*
Y369454D01*
X313878D01*
Y365748D01*
X318092D01*
X319166Y364674D01*
Y358662D01*
X315153D01*
X310332Y363482D01*
X309746Y363874D01*
X309055Y364011D01*
X308268D01*
Y364862D01*
X297244D01*
Y364011D01*
X285433D01*
Y369488D01*
X276374D01*
X272931Y372931D01*
X272345Y373323D01*
X271654Y373460D01*
X261476D01*
Y374803D01*
X261323Y375571D01*
X260888Y376222D01*
X260237Y376658D01*
X259469Y376810D01*
X258700Y376658D01*
X258049Y376222D01*
X256478Y376506D01*
X255873Y377053D01*
Y377815D01*
X255767Y378353D01*
X255462Y378808D01*
X246081Y388189D01*
X246651Y389764D01*
X366142D01*
Y200787D01*
D02*
G37*
%LPC*%
G36*
X352165Y283283D02*
Y280906D01*
X354346D01*
Y283283D01*
X352165D01*
D02*
G37*
G36*
X354346Y279725D02*
X352165D01*
Y277346D01*
X354346D01*
Y279725D01*
D02*
G37*
G36*
X356315Y302559D02*
X354134D01*
Y300181D01*
X356315D01*
Y302559D01*
D02*
G37*
G36*
X354134Y306118D02*
Y303740D01*
X356315D01*
Y306118D01*
X354134D01*
D02*
G37*
G36*
X356315Y310433D02*
X354134D01*
Y308055D01*
X356315D01*
Y310433D01*
D02*
G37*
G36*
X239189Y294110D02*
X236811D01*
Y291929D01*
X239189D01*
Y294110D01*
D02*
G37*
G36*
X356315Y294685D02*
X354134D01*
Y292307D01*
X356315D01*
Y294685D01*
D02*
G37*
G36*
X354134Y298244D02*
Y295866D01*
X356315D01*
Y298244D01*
X354134D01*
D02*
G37*
G36*
X352165Y275410D02*
Y273032D01*
X354346D01*
Y275410D01*
X352165D01*
D02*
G37*
G36*
X261378Y221828D02*
X260783Y221749D01*
X259677Y221291D01*
X258728Y220563D01*
X258000Y219614D01*
X257665Y218805D01*
X257405Y218743D01*
X256540Y218712D01*
X256038Y218814D01*
X255751Y219507D01*
X255057Y220412D01*
X254153Y221106D01*
X253099Y221542D01*
X251969Y221691D01*
X250838Y221542D01*
X249784Y221106D01*
X248880Y220412D01*
X248186Y219507D01*
X247874Y218755D01*
X246299Y219068D01*
Y221654D01*
X237638D01*
Y212992D01*
X246299D01*
Y215578D01*
X247874Y215891D01*
X248186Y215139D01*
X248880Y214234D01*
X249784Y213540D01*
X250838Y213104D01*
X251969Y212955D01*
X253099Y213104D01*
X254153Y213540D01*
X255057Y214234D01*
X255751Y215139D01*
X256038Y215832D01*
X256540Y215933D01*
X257405Y215903D01*
X257665Y215841D01*
X258000Y215032D01*
X258728Y214083D01*
X259677Y213354D01*
X260783Y212896D01*
X261378Y212818D01*
Y217323D01*
Y221828D01*
D02*
G37*
G36*
X288402Y226575D02*
X286024D01*
Y224394D01*
X288402D01*
Y226575D01*
D02*
G37*
G36*
X350394Y252795D02*
X348417Y252639D01*
X346489Y252176D01*
X344656Y251417D01*
X342966Y250381D01*
X341458Y249094D01*
X340170Y247586D01*
X339134Y245895D01*
X338375Y244063D01*
X337912Y242134D01*
X337756Y240158D01*
X337912Y238181D01*
X338375Y236252D01*
X339134Y234420D01*
X340170Y232730D01*
X341458Y231222D01*
X342966Y229934D01*
X344656Y228898D01*
X346489Y228139D01*
X348417Y227676D01*
X350394Y227520D01*
X352371Y227676D01*
X354299Y228139D01*
X356131Y228898D01*
X357822Y229934D01*
X359330Y231222D01*
X360618Y232730D01*
X361654Y234420D01*
X362413Y236252D01*
X362876Y238181D01*
X363031Y240158D01*
X362876Y242134D01*
X362413Y244063D01*
X361654Y245895D01*
X360618Y247586D01*
X359330Y249094D01*
X357822Y250381D01*
X356131Y251417D01*
X354299Y252176D01*
X352371Y252639D01*
X350394Y252795D01*
D02*
G37*
G36*
X302638Y215788D02*
X298922D01*
X298994Y215243D01*
X299432Y214186D01*
X300128Y213278D01*
X301036Y212581D01*
X302094Y212143D01*
X302638Y212072D01*
Y215788D01*
D02*
G37*
G36*
X266473Y216732D02*
X262559D01*
Y212818D01*
X263155Y212896D01*
X264260Y213354D01*
X265209Y214083D01*
X265937Y215032D01*
X266395Y216137D01*
X266473Y216732D01*
D02*
G37*
G36*
X262559Y221828D02*
Y217914D01*
X266473D01*
X266395Y218509D01*
X265937Y219614D01*
X265209Y220563D01*
X264260Y221291D01*
X263155Y221749D01*
X262559Y221828D01*
D02*
G37*
G36*
X266354Y242323D02*
X263976D01*
Y240142D01*
X266354D01*
Y242323D01*
D02*
G37*
G36*
X354346Y263977D02*
X352165D01*
Y261598D01*
X354346D01*
Y263977D01*
D02*
G37*
G36*
X352165Y267535D02*
Y265158D01*
X354346D01*
Y267535D01*
X352165D01*
D02*
G37*
G36*
X354346Y271850D02*
X352165D01*
Y269473D01*
X354346D01*
Y271850D01*
D02*
G37*
G36*
X299803Y242323D02*
X297425D01*
Y240142D01*
X299803D01*
Y242323D01*
D02*
G37*
G36*
X303362D02*
X300984D01*
Y240142D01*
X303362D01*
Y242323D01*
D02*
G37*
G36*
X257677Y262811D02*
X255496D01*
Y260433D01*
X257677D01*
Y262811D01*
D02*
G37*
G36*
X302165Y356020D02*
X297031D01*
Y353740D01*
X302165D01*
Y356020D01*
D02*
G37*
G36*
X308480D02*
X303346D01*
Y353740D01*
X308480D01*
Y356020D01*
D02*
G37*
G36*
X328150Y358874D02*
X325476D01*
Y354921D01*
X328150D01*
Y358874D01*
D02*
G37*
G36*
X302165Y352559D02*
X297031D01*
Y350280D01*
X302165D01*
Y352559D01*
D02*
G37*
G36*
X308480D02*
X303346D01*
Y350280D01*
X308480D01*
Y352559D01*
D02*
G37*
G36*
X354134Y353362D02*
Y350984D01*
X356315D01*
Y353362D01*
X354134D01*
D02*
G37*
G36*
X332004Y358874D02*
X329331D01*
Y354921D01*
X332004D01*
Y358874D01*
D02*
G37*
G36*
X328150Y374622D02*
X325476D01*
Y370669D01*
X328150D01*
Y374622D01*
D02*
G37*
G36*
X332004D02*
X329331D01*
Y370669D01*
X332004D01*
Y374622D01*
D02*
G37*
G36*
X243878Y376910D02*
X243618Y376858D01*
X242896Y376376D01*
X242414Y375654D01*
X242245Y374803D01*
Y372244D01*
X243878D01*
Y376910D01*
D02*
G37*
G36*
X350394Y386653D02*
X348417Y386498D01*
X346489Y386035D01*
X344656Y385276D01*
X342966Y384240D01*
X341458Y382952D01*
X340170Y381444D01*
X339134Y379753D01*
X338375Y377921D01*
X337912Y375993D01*
X337756Y374016D01*
X337912Y372039D01*
X338375Y370111D01*
X339134Y368279D01*
X340170Y366588D01*
X341458Y365080D01*
X342966Y363792D01*
X344656Y362756D01*
X346489Y361997D01*
X348417Y361534D01*
X350394Y361378D01*
X352371Y361534D01*
X354299Y361997D01*
X356131Y362756D01*
X357822Y363792D01*
X359330Y365080D01*
X360618Y366588D01*
X361654Y368279D01*
X362413Y370111D01*
X362876Y372039D01*
X363031Y374016D01*
X362876Y375993D01*
X362413Y377921D01*
X361654Y379753D01*
X360618Y381444D01*
X359330Y382952D01*
X357822Y384240D01*
X356131Y385276D01*
X354299Y386035D01*
X352371Y386498D01*
X350394Y386653D01*
D02*
G37*
G36*
X328150Y369488D02*
X325476D01*
Y365535D01*
X328150D01*
Y369488D01*
D02*
G37*
G36*
X332004D02*
X329331D01*
Y365535D01*
X332004D01*
Y369488D01*
D02*
G37*
G36*
X356315Y326181D02*
X354134D01*
Y323803D01*
X356315D01*
Y326181D01*
D02*
G37*
G36*
X354134Y329740D02*
Y327362D01*
X356315D01*
Y329740D01*
X354134D01*
D02*
G37*
G36*
X356315Y334055D02*
X354134D01*
Y331677D01*
X356315D01*
Y334055D01*
D02*
G37*
G36*
X354134Y313992D02*
Y311614D01*
X356315D01*
Y313992D01*
X354134D01*
D02*
G37*
G36*
X356315Y318307D02*
X354134D01*
Y315929D01*
X356315D01*
Y318307D01*
D02*
G37*
G36*
X354134Y321866D02*
Y319488D01*
X356315D01*
Y321866D01*
X354134D01*
D02*
G37*
G36*
Y337614D02*
Y335236D01*
X356315D01*
Y337614D01*
X354134D01*
D02*
G37*
G36*
X356315Y349803D02*
X354134D01*
Y347425D01*
X356315D01*
Y349803D01*
D02*
G37*
G36*
X328150Y353740D02*
X325476D01*
Y349787D01*
X328150D01*
Y353740D01*
D02*
G37*
G36*
X332004D02*
X329331D01*
Y349787D01*
X332004D01*
Y353740D01*
D02*
G37*
G36*
X356315Y341929D02*
X354134D01*
Y339551D01*
X356315D01*
Y341929D01*
D02*
G37*
G36*
X331890Y343225D02*
Y341043D01*
X334268D01*
Y343225D01*
X331890D01*
D02*
G37*
G36*
X354134Y345488D02*
Y343110D01*
X356315D01*
Y345488D01*
X354134D01*
D02*
G37*
%LPD*%
G36*
X136291Y135984D02*
X137283Y134752D01*
X136495Y133736D01*
X133071D01*
X132893Y133701D01*
X129685D01*
Y130079D01*
X132893D01*
X133071Y130043D01*
X137402D01*
X138108Y130184D01*
X138707Y130584D01*
X140367Y132244D01*
X142756D01*
Y134813D01*
X144211Y135416D01*
X146201Y133426D01*
Y124409D01*
X146201Y124409D01*
X146280Y124010D01*
X146506Y123671D01*
X165679Y104498D01*
X165679Y104498D01*
X166018Y104272D01*
X166417Y104193D01*
X166417Y104193D01*
X168094D01*
X168100Y104147D01*
X168520Y103132D01*
X168914Y102619D01*
X168510Y101416D01*
X168211Y101044D01*
X153976D01*
X142756Y112263D01*
Y115787D01*
X138402D01*
X137559Y115787D01*
X136827Y117059D01*
Y117209D01*
X135203Y115585D01*
X134089Y116699D01*
X135713Y118323D01*
X130429D01*
X132053Y116699D01*
X130939Y115585D01*
X129315Y117209D01*
Y113978D01*
X128189Y112877D01*
X126635Y114431D01*
X126427Y114570D01*
X126181Y114619D01*
X126181Y114619D01*
X118701D01*
X118455Y114570D01*
X118247Y114431D01*
X115688Y111872D01*
X115548Y111663D01*
X115499Y111417D01*
X115499Y111417D01*
Y109462D01*
X113152Y107115D01*
X111578Y107767D01*
Y125489D01*
X119501Y133413D01*
X126181D01*
X126427Y133462D01*
X126635Y133601D01*
X129019Y135984D01*
X136291Y135984D01*
D02*
G37*
G36*
Y108425D02*
X137283Y107193D01*
X136495Y106177D01*
X133071D01*
X132893Y106142D01*
X129685D01*
Y102520D01*
X132893D01*
X133071Y102484D01*
X137402D01*
X138108Y102625D01*
X138707Y103025D01*
X140367Y104685D01*
X142756D01*
Y107254D01*
X144211Y107857D01*
X152805Y99262D01*
X152805Y99262D01*
X153144Y99036D01*
X153543Y98956D01*
X153543Y98956D01*
X167775D01*
X168551Y97382D01*
X168520Y97341D01*
X168100Y96326D01*
X167956Y95236D01*
X168100Y94147D01*
X168520Y93132D01*
X168548Y93095D01*
X163899Y88445D01*
X141732D01*
X141732Y88445D01*
X141333Y88366D01*
X141127Y88228D01*
X137559Y88228D01*
X136827Y89500D01*
Y89650D01*
X135203Y88026D01*
X134089Y89139D01*
X135713Y90764D01*
X130429D01*
X132053Y89139D01*
X130939Y88026D01*
X129315Y89650D01*
Y86419D01*
X128189Y85318D01*
X126635Y86871D01*
X126427Y87011D01*
X126181Y87060D01*
X126181Y87060D01*
X118701D01*
X118455Y87011D01*
X118247Y86871D01*
X117599Y86224D01*
X116145Y86827D01*
Y102694D01*
X119304Y105854D01*
X126181D01*
X126427Y105903D01*
X126635Y106042D01*
X129019Y108425D01*
X136291Y108425D01*
D02*
G37*
G36*
X50000Y111417D02*
Y109055D01*
X47441Y106496D01*
X39961D01*
X37402Y109055D01*
Y111417D01*
X39961Y113976D01*
X47441D01*
X50000Y111417D01*
D02*
G37*
G36*
X128740D02*
Y109055D01*
X126181Y106496D01*
X118701D01*
X116142Y109055D01*
Y111417D01*
X118701Y113976D01*
X126181D01*
X128740Y111417D01*
D02*
G37*
G36*
X89370D02*
Y109055D01*
X86811Y106496D01*
X79331D01*
X76772Y109055D01*
Y111417D01*
X79331Y113976D01*
X86811D01*
X89370Y111417D01*
D02*
G37*
G36*
Y83858D02*
Y81496D01*
X86811Y78937D01*
X79331D01*
X76772Y81496D01*
Y83858D01*
X79331Y86417D01*
X86811D01*
X89370Y83858D01*
D02*
G37*
G36*
X50000D02*
Y81496D01*
X47441Y78937D01*
X39961D01*
X37402Y81496D01*
Y83858D01*
X39961Y86417D01*
X47441D01*
X50000Y83858D01*
D02*
G37*
G36*
X128740D02*
Y81496D01*
X126181Y78937D01*
X118701D01*
X116142Y81496D01*
Y83858D01*
X118701Y86417D01*
X126181D01*
X128740Y83858D01*
D02*
G37*
G36*
X96921Y108425D02*
X97913Y107193D01*
X97125Y106177D01*
X93701D01*
X93523Y106142D01*
X90315D01*
Y102520D01*
X93523D01*
X93701Y102484D01*
X98032D01*
X98738Y102625D01*
X99337Y103025D01*
X100997Y104685D01*
X103346D01*
X103386Y104685D01*
X104921Y104589D01*
Y91436D01*
X101713Y88228D01*
X98189Y88228D01*
X97457Y89500D01*
Y89650D01*
X95832Y88026D01*
X94719Y89139D01*
X96343Y90764D01*
X91058D01*
X92683Y89139D01*
X91569Y88026D01*
X89945Y89650D01*
Y86419D01*
X88819Y85318D01*
X87265Y86871D01*
X87057Y87011D01*
X86811Y87060D01*
X86811Y87060D01*
X79331D01*
X79085Y87011D01*
X78877Y86871D01*
X78249Y86244D01*
X76794Y86847D01*
Y101040D01*
X81608Y105854D01*
X86811D01*
X87057Y105903D01*
X87265Y106042D01*
X89648Y108425D01*
X96921Y108425D01*
D02*
G37*
G36*
X57551D02*
X58543Y107193D01*
X57755Y106177D01*
X54331D01*
X54152Y106142D01*
X50945D01*
Y102520D01*
X54152D01*
X54331Y102484D01*
X58662D01*
X59368Y102625D01*
X59967Y103025D01*
X61627Y104685D01*
X63740D01*
X64016Y104685D01*
X65315Y104019D01*
Y91200D01*
X62343Y88228D01*
X58819Y88228D01*
X58087Y89500D01*
Y89650D01*
X56462Y88026D01*
X55349Y89139D01*
X56973Y90764D01*
X51688D01*
X53313Y89139D01*
X52199Y88026D01*
X50575Y89650D01*
Y86419D01*
X49449Y85318D01*
X47895Y86871D01*
X47687Y87011D01*
X47441Y87060D01*
X47441Y87060D01*
X39961D01*
X39715Y87011D01*
X39507Y86871D01*
X38820Y86185D01*
X37365Y86788D01*
Y102753D01*
X40466Y105854D01*
X47441D01*
X47687Y105903D01*
X47895Y106042D01*
X50278Y108425D01*
X57551Y108425D01*
D02*
G37*
G36*
Y135984D02*
X58543Y134752D01*
X57755Y133736D01*
X54331D01*
X54152Y133701D01*
X50945D01*
Y130079D01*
X54152D01*
X54331Y130043D01*
X58662D01*
X59368Y130184D01*
X59967Y130584D01*
X61627Y132244D01*
X63897D01*
Y117342D01*
X62343Y115787D01*
X58819Y115787D01*
X58087Y117059D01*
Y117209D01*
X56462Y115585D01*
X55349Y116699D01*
X56973Y118323D01*
X51688D01*
X53313Y116699D01*
X52199Y115585D01*
X50575Y117209D01*
Y113978D01*
X49449Y112877D01*
X47895Y114431D01*
X47687Y114570D01*
X47441Y114619D01*
X47441Y114619D01*
X39961D01*
X39715Y114570D01*
X39507Y114431D01*
X36948Y111872D01*
X36808Y111663D01*
X36759Y111417D01*
X36759Y111417D01*
Y109560D01*
X34314Y107115D01*
X32739Y107767D01*
Y125588D01*
X40564Y133413D01*
X47441D01*
X47687Y133462D01*
X47895Y133601D01*
X50278Y135984D01*
X57551Y135984D01*
D02*
G37*
G36*
X89370Y138976D02*
Y136614D01*
X86811Y134055D01*
X79331D01*
X76772Y136614D01*
Y138976D01*
X79331Y141535D01*
X86811D01*
X89370Y138976D01*
D02*
G37*
G36*
X50000D02*
Y136614D01*
X47441Y134055D01*
X39961D01*
X37402Y136614D01*
Y138976D01*
X39961Y141535D01*
X47441D01*
X50000Y138976D01*
D02*
G37*
G36*
X192913Y192913D02*
Y3937D01*
X3937D01*
X3937Y3937D01*
Y18728D01*
X4154Y18892D01*
X5512Y19312D01*
X7997Y16826D01*
X7969Y16790D01*
X7548Y15775D01*
X7405Y14685D01*
X7548Y13596D01*
X7969Y12581D01*
X8638Y11709D01*
X9510Y11040D01*
X10525Y10619D01*
X11614Y10476D01*
X12704Y10619D01*
X13719Y11040D01*
X14591Y11709D01*
X15259Y12581D01*
X15680Y13596D01*
X15823Y14685D01*
X15680Y15775D01*
X15259Y16790D01*
X14591Y17661D01*
X13719Y18330D01*
X12704Y18751D01*
X11614Y18894D01*
X10525Y18751D01*
X9510Y18330D01*
X9473Y18302D01*
X7820Y19955D01*
X7899Y20291D01*
X9358Y20969D01*
X9674Y20972D01*
X10525Y20619D01*
X11614Y20476D01*
X12704Y20619D01*
X13719Y21040D01*
X14591Y21709D01*
X15259Y22580D01*
X15680Y23596D01*
X15823Y24685D01*
X15680Y25774D01*
X15259Y26790D01*
X14591Y27661D01*
X13719Y28330D01*
X12704Y28751D01*
X11614Y28894D01*
X10525Y28751D01*
X9510Y28330D01*
X8638Y27661D01*
X8524Y27513D01*
X6949Y28048D01*
Y37429D01*
X8524Y37743D01*
X8566Y37642D01*
X9589Y35972D01*
X10861Y34483D01*
X12350Y33211D01*
X14020Y32188D01*
X15829Y31438D01*
X17733Y30981D01*
X19685Y30828D01*
X21637Y30981D01*
X23541Y31438D01*
X25351Y32188D01*
X26293Y30918D01*
X25640Y30266D01*
X25414Y29927D01*
X25334Y29528D01*
X25334Y29528D01*
Y29076D01*
X23760Y28299D01*
X23719Y28330D01*
X22704Y28751D01*
X21614Y28894D01*
X20525Y28751D01*
X19510Y28330D01*
X18638Y27661D01*
X17969Y26790D01*
X17548Y25774D01*
X17405Y24685D01*
X17548Y23596D01*
X17969Y22580D01*
X18638Y21709D01*
X19510Y21040D01*
X20525Y20619D01*
X21614Y20476D01*
X22704Y20619D01*
X24179Y19694D01*
X22922Y18661D01*
X22704Y18751D01*
X21614Y18894D01*
X20525Y18751D01*
X19510Y18330D01*
X18638Y17661D01*
X17969Y16790D01*
X17548Y15775D01*
X17405Y14685D01*
X17548Y13596D01*
X17969Y12581D01*
X18638Y11709D01*
X19510Y11040D01*
X20525Y10619D01*
X21614Y10476D01*
X22704Y10619D01*
X23719Y11040D01*
X24591Y11709D01*
X25260Y12581D01*
X25609Y13425D01*
X26076Y13570D01*
X26906Y13517D01*
X27237Y13382D01*
X27646Y12394D01*
X27890Y12075D01*
X31058Y15242D01*
X34225Y18409D01*
X33906Y18654D01*
X32918Y19063D01*
X32782Y19394D01*
X32729Y20224D01*
X32875Y20690D01*
X33719Y21040D01*
X34591Y21709D01*
X35260Y22580D01*
X35680Y23596D01*
X35764Y24233D01*
X36614Y24788D01*
X37464Y24233D01*
X37548Y23596D01*
X37969Y22580D01*
X38638Y21709D01*
X39510Y21040D01*
X40525Y20619D01*
X41614Y20476D01*
X42704Y20619D01*
X43719Y21040D01*
X44591Y21709D01*
X45259Y22580D01*
X45680Y23596D01*
X45823Y24685D01*
X45680Y25774D01*
X45259Y26790D01*
X44591Y27661D01*
X43719Y28330D01*
X42704Y28751D01*
X42214Y28815D01*
X39235Y31794D01*
Y50394D01*
X39146Y51072D01*
X38884Y51704D01*
X38467Y52247D01*
X16400Y74314D01*
Y139466D01*
X57385Y180450D01*
X69589D01*
X70241Y178875D01*
X62786Y171420D01*
X62559Y171081D01*
X62480Y170682D01*
X62480Y170682D01*
Y144460D01*
X61366Y143347D01*
X58819Y143347D01*
X58087Y144618D01*
Y144768D01*
X56462Y143144D01*
X55349Y144258D01*
X56973Y145882D01*
X51688D01*
X53313Y144258D01*
X52199Y143144D01*
X50575Y144768D01*
Y141537D01*
X49449Y140436D01*
X47895Y141990D01*
X47687Y142129D01*
X47441Y142178D01*
X47441Y142178D01*
X39961D01*
X39715Y142129D01*
X39507Y141990D01*
X36948Y139431D01*
X36808Y139222D01*
X36759Y138976D01*
X36759Y138976D01*
Y137021D01*
X28265Y128526D01*
X27849Y127984D01*
X27587Y127352D01*
X27497Y126673D01*
Y71260D01*
X27587Y70582D01*
X27849Y69950D01*
X28265Y69407D01*
X48993Y48678D01*
Y27934D01*
X48638Y27661D01*
X47969Y26790D01*
X47548Y25774D01*
X47405Y24685D01*
X47548Y23596D01*
X47969Y22580D01*
X48638Y21709D01*
X49510Y21040D01*
X50354Y20690D01*
X50499Y20224D01*
X50446Y19394D01*
X50311Y19063D01*
X49323Y18654D01*
X49004Y18409D01*
X52171Y15242D01*
X55338Y12075D01*
X55583Y12394D01*
X55992Y13382D01*
X56323Y13517D01*
X57153Y13570D01*
X57619Y13425D01*
X57969Y12581D01*
X58638Y11709D01*
X59510Y11040D01*
X60525Y10619D01*
X61614Y10476D01*
X62704Y10619D01*
X63719Y11040D01*
X64591Y11709D01*
X65259Y12581D01*
X65609Y13425D01*
X66075Y13570D01*
X66906Y13517D01*
X67237Y13382D01*
X67646Y12394D01*
X67890Y12075D01*
X70501Y14685D01*
X67890Y17295D01*
X67646Y16976D01*
X67237Y15989D01*
X66906Y15853D01*
X66075Y15800D01*
X65609Y15945D01*
X65259Y16790D01*
X64591Y17661D01*
X63719Y18330D01*
X62704Y18751D01*
X61614Y18894D01*
X60525Y18751D01*
X59964Y18518D01*
X58905Y19575D01*
X59541Y20955D01*
X59634Y20988D01*
X60525Y20619D01*
X61614Y20476D01*
X62704Y20619D01*
X63719Y21040D01*
X64591Y21709D01*
X65259Y22580D01*
X65597Y23395D01*
X66319Y23760D01*
X67324Y24019D01*
X67513Y23865D01*
X67548Y23596D01*
X67969Y22580D01*
X68638Y21709D01*
X69510Y21040D01*
X70354Y20690D01*
X70499Y20224D01*
X70446Y19394D01*
X70311Y19063D01*
X69323Y18654D01*
X69004Y18409D01*
X72171Y15242D01*
X75338Y12075D01*
X75583Y12394D01*
X75992Y13382D01*
X76323Y13517D01*
X77153Y13570D01*
X77619Y13425D01*
X77969Y12581D01*
X78638Y11709D01*
X79510Y11040D01*
X80525Y10619D01*
X81614Y10476D01*
X82704Y10619D01*
X83719Y11040D01*
X84591Y11709D01*
X85259Y12581D01*
X85609Y13425D01*
X86076Y13570D01*
X86906Y13517D01*
X87236Y13382D01*
X87646Y12394D01*
X87890Y12075D01*
X90501Y14685D01*
X87890Y17295D01*
X87646Y16976D01*
X87236Y15989D01*
X86906Y15853D01*
X86076Y15800D01*
X85609Y15945D01*
X85259Y16790D01*
X84591Y17661D01*
X83719Y18330D01*
X82704Y18751D01*
X81614Y18894D01*
X80525Y18751D01*
X79963Y18518D01*
X78905Y19575D01*
X79541Y20955D01*
X79634Y20988D01*
X80525Y20619D01*
X81614Y20476D01*
X82704Y20619D01*
X83719Y21040D01*
X84591Y21709D01*
X85259Y22580D01*
X85680Y23596D01*
X85824Y24685D01*
X85680Y25774D01*
X85259Y26790D01*
X84591Y27661D01*
X84235Y27934D01*
Y30199D01*
X84146Y30877D01*
X83884Y31509D01*
X83467Y32052D01*
X81361Y34158D01*
Y78295D01*
X86811D01*
X87057Y78344D01*
X87265Y78483D01*
X89648Y80866D01*
X96921Y80866D01*
X97913Y79634D01*
X97125Y78618D01*
X93701D01*
X93523Y78583D01*
X90315D01*
Y74961D01*
X93523D01*
X93701Y74925D01*
X98032D01*
X98738Y75066D01*
X99337Y75466D01*
X100997Y77126D01*
X103386D01*
Y81850D01*
X103386Y81929D01*
Y83425D01*
X103386Y83504D01*
Y86949D01*
X104881Y88444D01*
X106336Y87842D01*
Y48588D01*
X89761Y32013D01*
X89345Y31470D01*
X89083Y30838D01*
X88993Y30159D01*
Y27934D01*
X88638Y27661D01*
X87969Y26790D01*
X87548Y25774D01*
X87405Y24685D01*
X87548Y23596D01*
X87969Y22580D01*
X88638Y21709D01*
X89510Y21040D01*
X90354Y20690D01*
X90500Y20224D01*
X90446Y19394D01*
X90311Y19063D01*
X89323Y18654D01*
X89004Y18409D01*
X92171Y15242D01*
X95338Y12075D01*
X95583Y12394D01*
X95992Y13382D01*
X96323Y13517D01*
X97153Y13570D01*
X97619Y13425D01*
X97969Y12581D01*
X98638Y11709D01*
X99510Y11040D01*
X100525Y10619D01*
X101614Y10476D01*
X102704Y10619D01*
X103719Y11040D01*
X104591Y11709D01*
X105260Y12581D01*
X105609Y13425D01*
X106076Y13570D01*
X106906Y13517D01*
X107237Y13382D01*
X107646Y12394D01*
X107890Y12075D01*
X110501Y14685D01*
X107890Y17295D01*
X107646Y16976D01*
X107237Y15989D01*
X106906Y15853D01*
X106076Y15800D01*
X105609Y15945D01*
X105260Y16790D01*
X104591Y17661D01*
X103719Y18330D01*
X102704Y18751D01*
X101614Y18894D01*
X100525Y18751D01*
X100162Y18601D01*
X99048Y19718D01*
X99582Y20938D01*
X99673Y20972D01*
X100525Y20619D01*
X101614Y20476D01*
X102704Y20619D01*
X103719Y21040D01*
X104591Y21709D01*
X105260Y22580D01*
X105680Y23596D01*
X105824Y24685D01*
X105680Y25774D01*
X105260Y26790D01*
X105149Y26934D01*
X119964Y41749D01*
X120380Y42292D01*
X120642Y42924D01*
X120731Y43602D01*
Y78295D01*
X126181D01*
X126427Y78344D01*
X126635Y78483D01*
X129019Y80866D01*
X136291Y80866D01*
X137283Y79634D01*
X136495Y78618D01*
X133071D01*
X132893Y78583D01*
X129685D01*
Y74961D01*
X132893D01*
X133071Y74925D01*
X137402D01*
X138108Y75066D01*
X138707Y75466D01*
X140367Y77126D01*
X142756D01*
Y81850D01*
X142756Y81929D01*
Y83425D01*
X142756Y83504D01*
Y86358D01*
X164331D01*
X164331Y86358D01*
X164730Y86437D01*
X165069Y86664D01*
X170024Y91619D01*
X170061Y91591D01*
X171076Y91171D01*
X172165Y91027D01*
X173255Y91171D01*
X174270Y91591D01*
X175142Y92260D01*
X175811Y93132D01*
X176231Y94147D01*
X176375Y95236D01*
X176231Y96326D01*
X177157Y97801D01*
X178190Y96544D01*
X178100Y96326D01*
X177956Y95236D01*
X178100Y94147D01*
X178520Y93132D01*
X179189Y92260D01*
X180061Y91591D01*
X180905Y91241D01*
X181051Y90775D01*
X180997Y89945D01*
X180862Y89614D01*
X179874Y89205D01*
X179555Y88960D01*
X182165Y86350D01*
X184776Y88960D01*
X184457Y89205D01*
X183469Y89614D01*
X183333Y89945D01*
X183280Y90775D01*
X183426Y91241D01*
X184270Y91591D01*
X185142Y92260D01*
X185811Y93132D01*
X186231Y94147D01*
X186375Y95236D01*
X186231Y96326D01*
X185811Y97341D01*
X185142Y98213D01*
X184270Y98882D01*
X183426Y99231D01*
X183280Y99698D01*
X183333Y100528D01*
X183469Y100858D01*
X184457Y101268D01*
X184776Y101513D01*
X181609Y104680D01*
X178442Y107846D01*
X178197Y107527D01*
X177788Y106540D01*
X177457Y106404D01*
X176627Y106351D01*
X176160Y106497D01*
X175811Y107341D01*
X175142Y108213D01*
X174270Y108882D01*
X173255Y109302D01*
X172165Y109446D01*
X171076Y109302D01*
X170061Y108882D01*
X169189Y108213D01*
X168520Y107341D01*
X168253Y106695D01*
X166891Y106517D01*
X166560Y106569D01*
X148288Y124842D01*
Y133858D01*
X148208Y134258D01*
X147982Y134596D01*
X147982Y134596D01*
X142756Y139822D01*
Y143347D01*
X138402D01*
X137559Y143347D01*
X136827Y144618D01*
Y144768D01*
X135203Y143144D01*
X134089Y144258D01*
X135713Y145882D01*
X130429D01*
X132053Y144258D01*
X130939Y143144D01*
X129315Y144768D01*
Y141537D01*
X128189Y140436D01*
X126635Y141990D01*
X126427Y142129D01*
X126181Y142178D01*
X126181Y142178D01*
X118701D01*
X118455Y142129D01*
X118247Y141990D01*
X116651Y142622D01*
X116547Y143417D01*
X122086Y148956D01*
X151143D01*
X163720Y136379D01*
Y122638D01*
X163720Y122638D01*
X163800Y122238D01*
X164026Y121900D01*
X168548Y117377D01*
X168520Y117341D01*
X168100Y116326D01*
X167956Y115236D01*
X168100Y114147D01*
X168520Y113132D01*
X169189Y112260D01*
X170061Y111591D01*
X171076Y111170D01*
X172165Y111027D01*
X173255Y111170D01*
X174270Y111591D01*
X175142Y112260D01*
X175811Y113132D01*
X176231Y114147D01*
X176375Y115236D01*
X176231Y116326D01*
X175856Y117233D01*
X176056Y117710D01*
X176732Y118728D01*
X177195Y118730D01*
X178548Y117377D01*
X178520Y117341D01*
X178100Y116326D01*
X177956Y115236D01*
X178100Y114147D01*
X178520Y113132D01*
X179189Y112260D01*
X180061Y111591D01*
X180905Y111241D01*
X181051Y110775D01*
X180997Y109945D01*
X180862Y109614D01*
X179874Y109205D01*
X179555Y108960D01*
X182165Y106350D01*
X184776Y108960D01*
X184457Y109205D01*
X183469Y109614D01*
X183333Y109945D01*
X183280Y110775D01*
X183426Y111241D01*
X184270Y111591D01*
X185142Y112260D01*
X185811Y113132D01*
X186231Y114147D01*
X186375Y115236D01*
X186231Y116326D01*
X185811Y117341D01*
X185142Y118213D01*
X184270Y118882D01*
X183426Y119231D01*
X183280Y119697D01*
X183333Y120528D01*
X183469Y120859D01*
X184457Y121268D01*
X184776Y121512D01*
X181609Y124680D01*
X178442Y127847D01*
X178197Y127527D01*
X177788Y126540D01*
X177457Y126404D01*
X176627Y126351D01*
X176160Y126497D01*
X175811Y127341D01*
X175142Y128213D01*
X174270Y128882D01*
X173255Y129302D01*
X172165Y129446D01*
X171076Y129302D01*
X170650Y129125D01*
X169313Y129950D01*
X169173Y130150D01*
X169201Y130485D01*
X170699Y131327D01*
X171076Y131170D01*
X172165Y131027D01*
X173255Y131170D01*
X174270Y131591D01*
X175142Y132260D01*
X175811Y133132D01*
X176231Y134147D01*
X176375Y135236D01*
X176231Y136326D01*
X176224Y136344D01*
X177121Y138089D01*
X177218Y138105D01*
X177240Y138092D01*
X178310Y136834D01*
X178100Y136326D01*
X177956Y135236D01*
X178100Y134147D01*
X178520Y133132D01*
X179189Y132260D01*
X180061Y131591D01*
X180905Y131241D01*
X181051Y130775D01*
X180997Y129945D01*
X180862Y129614D01*
X179874Y129205D01*
X179555Y128960D01*
X182165Y126350D01*
X184776Y128960D01*
X184457Y129205D01*
X183469Y129614D01*
X183333Y129945D01*
X183280Y130775D01*
X183426Y131241D01*
X184270Y131591D01*
X185142Y132260D01*
X185811Y133132D01*
X186231Y134147D01*
X186375Y135236D01*
X186231Y136326D01*
X185811Y137341D01*
X185142Y138213D01*
X184270Y138882D01*
X183426Y139231D01*
X183280Y139698D01*
X183333Y140528D01*
X183469Y140858D01*
X184457Y141268D01*
X184776Y141513D01*
X181609Y144679D01*
X178442Y147846D01*
X178197Y147528D01*
X177788Y146540D01*
X177457Y146404D01*
X176627Y146351D01*
X176160Y146497D01*
X175811Y147341D01*
X175142Y148213D01*
X174270Y148882D01*
X173255Y149302D01*
X172165Y149445D01*
X171076Y149302D01*
X170061Y148882D01*
X169189Y148213D01*
X168520Y147341D01*
X168224Y146626D01*
X166997Y146472D01*
X166540Y146533D01*
X156639Y156434D01*
X157291Y158009D01*
X165686D01*
X168015Y155681D01*
X167956Y155236D01*
X168100Y154147D01*
X168520Y153132D01*
X169189Y152260D01*
X170061Y151591D01*
X171076Y151171D01*
X172165Y151027D01*
X173255Y151171D01*
X174270Y151591D01*
X175142Y152260D01*
X175811Y153132D01*
X176231Y154147D01*
X176375Y155236D01*
X176231Y156326D01*
X175811Y157341D01*
X175142Y158213D01*
X174270Y158882D01*
X173255Y159302D01*
X173200Y159309D01*
X172995Y159548D01*
X173131Y160398D01*
X173488Y161267D01*
X174270Y161591D01*
X175142Y162260D01*
X175811Y163132D01*
X176160Y163976D01*
X176627Y164121D01*
X177457Y164068D01*
X177788Y163933D01*
X178197Y162945D01*
X178442Y162626D01*
X181609Y165793D01*
X184776Y168960D01*
X184457Y169205D01*
X183469Y169614D01*
X183333Y169945D01*
X183280Y170775D01*
X183426Y171241D01*
X184270Y171591D01*
X185142Y172260D01*
X185811Y173132D01*
X186231Y174147D01*
X186375Y175236D01*
X186231Y176326D01*
X185811Y177341D01*
X185142Y178213D01*
X184270Y178882D01*
X183255Y179302D01*
X182165Y179446D01*
X181076Y179302D01*
X180061Y178882D01*
X179189Y178213D01*
X178520Y177341D01*
X178100Y176326D01*
X177956Y175236D01*
X178100Y174147D01*
X178457Y173284D01*
X177912Y172669D01*
X177269Y172179D01*
X177071Y172215D01*
X176933Y172316D01*
X176165Y173986D01*
X176231Y174147D01*
X176375Y175236D01*
X176231Y176326D01*
X175811Y177341D01*
X175142Y178213D01*
X174270Y178882D01*
X173255Y179302D01*
X172165Y179446D01*
X171076Y179302D01*
X170061Y178882D01*
X169189Y178213D01*
X168520Y177341D01*
X168100Y176326D01*
X167956Y175236D01*
X168100Y174147D01*
X168520Y173132D01*
X168778Y172796D01*
X168079Y171221D01*
X167028D01*
X166628Y171142D01*
X166290Y170915D01*
X166143Y170959D01*
X165213Y172828D01*
X165412Y173309D01*
X165869Y175213D01*
X166023Y177165D01*
X165869Y179118D01*
X165412Y181022D01*
X164663Y182831D01*
X163639Y184501D01*
X162368Y185990D01*
X160879Y187261D01*
X159209Y188285D01*
X159108Y188327D01*
X159421Y189901D01*
X168803D01*
X169337Y188327D01*
X169189Y188213D01*
X168520Y187341D01*
X168100Y186326D01*
X167956Y185236D01*
X168100Y184147D01*
X168520Y183132D01*
X169189Y182260D01*
X170061Y181591D01*
X171076Y181170D01*
X172165Y181027D01*
X173255Y181170D01*
X174270Y181591D01*
X175142Y182260D01*
X175811Y183132D01*
X176231Y184147D01*
X176375Y185236D01*
X176231Y186326D01*
X175879Y187176D01*
X175881Y187492D01*
X176559Y188952D01*
X176895Y189030D01*
X178548Y187378D01*
X178520Y187341D01*
X178100Y186326D01*
X177956Y185236D01*
X178100Y184147D01*
X178520Y183132D01*
X179189Y182260D01*
X180061Y181591D01*
X181076Y181170D01*
X182165Y181027D01*
X183255Y181170D01*
X184270Y181591D01*
X185142Y182260D01*
X185811Y183132D01*
X186231Y184147D01*
X186375Y185236D01*
X186231Y186326D01*
X185811Y187341D01*
X185142Y188213D01*
X184270Y188882D01*
X183255Y189302D01*
X182165Y189445D01*
X181076Y189302D01*
X180061Y188882D01*
X180024Y188854D01*
X177539Y191339D01*
X177959Y192696D01*
X178122Y192913D01*
X192913D01*
X192913Y192913D01*
D02*
G37*
G36*
X128740Y138976D02*
Y136614D01*
X126181Y134055D01*
X118701D01*
X116142Y136614D01*
Y138976D01*
X118701Y141535D01*
X126181D01*
X128740Y138976D01*
D02*
G37*
G36*
X84529Y173801D02*
X81152Y170423D01*
X80926Y170085D01*
X80846Y169685D01*
X80846Y169685D01*
Y145276D01*
X80846Y145276D01*
X80926Y144876D01*
X81152Y144538D01*
X82057Y143633D01*
X81454Y142178D01*
X79331D01*
X79085Y142129D01*
X78877Y141990D01*
X76318Y139431D01*
X76178Y139222D01*
X76129Y138976D01*
X76129Y138976D01*
Y136614D01*
X76178Y136369D01*
X76318Y136160D01*
X76827Y135651D01*
X68977Y127801D01*
X67402Y128454D01*
Y169076D01*
X73582Y175256D01*
X83927D01*
X84529Y173801D01*
D02*
G37*
G36*
X139382Y153916D02*
X138780Y152461D01*
X121066D01*
X120667Y152382D01*
X120328Y152155D01*
X120328Y152155D01*
X112963Y144790D01*
X112737Y144451D01*
X112657Y144052D01*
X112657Y144052D01*
Y138543D01*
X103809Y129695D01*
X103583Y129356D01*
X103504Y128957D01*
X103504Y128957D01*
Y117578D01*
X101713Y115787D01*
X98189Y115787D01*
X97457Y117059D01*
Y117209D01*
X95832Y115585D01*
X94719Y116699D01*
X96343Y118323D01*
X91058D01*
X92683Y116699D01*
X91569Y115585D01*
X89945Y117209D01*
Y113978D01*
X88819Y112877D01*
X87265Y114431D01*
X87057Y114570D01*
X86811Y114619D01*
X86811Y114619D01*
X79331D01*
X79085Y114570D01*
X78877Y114431D01*
X76318Y111872D01*
X76178Y111663D01*
X76129Y111417D01*
X76129Y111417D01*
Y109055D01*
X76178Y108809D01*
X76318Y108601D01*
X76630Y108289D01*
X73802Y105461D01*
X72227Y106114D01*
Y123639D01*
X82001Y133413D01*
X86811D01*
X87057Y133462D01*
X87265Y133601D01*
X89648Y135984D01*
X96921Y135984D01*
X97913Y134752D01*
X97125Y133736D01*
X93701D01*
X93523Y133701D01*
X90315D01*
Y130079D01*
X93523D01*
X93701Y130043D01*
X98032D01*
X98738Y130184D01*
X99337Y130584D01*
X100997Y132244D01*
X103386D01*
Y136969D01*
X103386Y137047D01*
Y138543D01*
X103386Y138622D01*
Y143347D01*
X98189D01*
X97457Y144618D01*
Y144768D01*
X95832Y143144D01*
X94719Y144258D01*
X96343Y145882D01*
X91058D01*
X92683Y144258D01*
X91569Y143144D01*
X89945Y144768D01*
Y144236D01*
X89460Y144035D01*
X88370Y143761D01*
X88195Y143878D01*
X87795Y143957D01*
X87795Y143957D01*
X84684D01*
X82933Y145708D01*
Y169253D01*
X87519Y173838D01*
X119460D01*
X139382Y153916D01*
D02*
G37*
%LPC*%
G36*
X41614Y18894D02*
X40525Y18751D01*
X39510Y18330D01*
X38638Y17661D01*
X37969Y16790D01*
X37619Y15945D01*
X37153Y15800D01*
X36323Y15853D01*
X35992Y15989D01*
X35583Y16976D01*
X35338Y17295D01*
X32728Y14685D01*
X35338Y12075D01*
X35583Y12394D01*
X35992Y13382D01*
X36323Y13517D01*
X37153Y13570D01*
X37619Y13425D01*
X37969Y12581D01*
X38638Y11709D01*
X39510Y11040D01*
X40525Y10619D01*
X41614Y10476D01*
X42704Y10619D01*
X43719Y11040D01*
X44591Y11709D01*
X45259Y12581D01*
X45609Y13425D01*
X46075Y13570D01*
X46906Y13517D01*
X47236Y13382D01*
X47646Y12394D01*
X47890Y12075D01*
X50501Y14685D01*
X47890Y17295D01*
X47646Y16976D01*
X47236Y15989D01*
X46906Y15853D01*
X46075Y15800D01*
X45609Y15945D01*
X45259Y16790D01*
X44591Y17661D01*
X43719Y18330D01*
X42704Y18751D01*
X41614Y18894D01*
D02*
G37*
G36*
X121614D02*
X120525Y18751D01*
X119510Y18330D01*
X118638Y17661D01*
X117969Y16790D01*
X117619Y15945D01*
X117153Y15800D01*
X116323Y15853D01*
X115992Y15989D01*
X115583Y16976D01*
X115338Y17295D01*
X112728Y14685D01*
X115338Y12075D01*
X115583Y12394D01*
X115992Y13382D01*
X116323Y13517D01*
X117153Y13570D01*
X117619Y13425D01*
X117969Y12581D01*
X118638Y11709D01*
X119510Y11040D01*
X120525Y10619D01*
X121614Y10476D01*
X122704Y10619D01*
X123719Y11040D01*
X124591Y11709D01*
X125259Y12581D01*
X125609Y13425D01*
X126075Y13570D01*
X126906Y13517D01*
X127236Y13382D01*
X127646Y12394D01*
X127890Y12075D01*
X130501Y14685D01*
X127890Y17295D01*
X127646Y16976D01*
X127236Y15989D01*
X126906Y15853D01*
X126075Y15800D01*
X125609Y15945D01*
X125259Y16790D01*
X124591Y17661D01*
X123719Y18330D01*
X122704Y18751D01*
X121614Y18894D01*
D02*
G37*
G36*
X151614Y28894D02*
X150525Y28751D01*
X149510Y28330D01*
X148638Y27661D01*
X147969Y26790D01*
X147548Y25774D01*
X147405Y24685D01*
X147548Y23596D01*
X147969Y22580D01*
X148638Y21709D01*
X149510Y21040D01*
X150354Y20690D01*
X150499Y20224D01*
X150446Y19394D01*
X150311Y19063D01*
X149323Y18654D01*
X149004Y18409D01*
X151614Y15799D01*
X154225Y18409D01*
X153905Y18654D01*
X152918Y19063D01*
X152782Y19394D01*
X152729Y20224D01*
X152875Y20690D01*
X153719Y21040D01*
X154591Y21709D01*
X155260Y22580D01*
X155680Y23596D01*
X155824Y24685D01*
X155680Y25774D01*
X155260Y26790D01*
X154591Y27661D01*
X153719Y28330D01*
X152704Y28751D01*
X151614Y28894D01*
D02*
G37*
G36*
X165787Y28858D02*
X157441D01*
Y20512D01*
X165787D01*
Y28858D01*
D02*
G37*
G36*
X121614Y28894D02*
X120525Y28751D01*
X119510Y28330D01*
X118638Y27661D01*
X117969Y26790D01*
X117548Y25774D01*
X117405Y24685D01*
X117548Y23596D01*
X117969Y22580D01*
X118638Y21709D01*
X119510Y21040D01*
X120525Y20619D01*
X121614Y20476D01*
X122704Y20619D01*
X123719Y21040D01*
X124591Y21709D01*
X125259Y22580D01*
X125680Y23596D01*
X125823Y24685D01*
X125680Y25774D01*
X125259Y26790D01*
X124591Y27661D01*
X123719Y28330D01*
X122704Y28751D01*
X121614Y28894D01*
D02*
G37*
G36*
X141614D02*
X140525Y28751D01*
X139510Y28330D01*
X138638Y27661D01*
X137969Y26790D01*
X137548Y25774D01*
X137405Y24685D01*
X137548Y23596D01*
X137969Y22580D01*
X138638Y21709D01*
X139510Y21040D01*
X140525Y20619D01*
X141614Y20476D01*
X142704Y20619D01*
X143719Y21040D01*
X144591Y21709D01*
X145259Y22580D01*
X145680Y23596D01*
X145824Y24685D01*
X145680Y25774D01*
X145259Y26790D01*
X144591Y27661D01*
X143719Y28330D01*
X142704Y28751D01*
X141614Y28894D01*
D02*
G37*
G36*
Y18894D02*
X140525Y18751D01*
X139510Y18330D01*
X138638Y17661D01*
X137969Y16790D01*
X137619Y15945D01*
X137153Y15800D01*
X136323Y15853D01*
X135992Y15989D01*
X135583Y16976D01*
X135338Y17295D01*
X132728Y14685D01*
X135338Y12075D01*
X135583Y12394D01*
X135992Y13382D01*
X136323Y13517D01*
X137153Y13570D01*
X137619Y13425D01*
X137969Y12581D01*
X138638Y11709D01*
X139510Y11040D01*
X140525Y10619D01*
X141614Y10476D01*
X142704Y10619D01*
X143719Y11040D01*
X144591Y11709D01*
X145259Y12581D01*
X145609Y13425D01*
X146075Y13570D01*
X146906Y13517D01*
X147237Y13382D01*
X147646Y12394D01*
X147890Y12075D01*
X150501Y14685D01*
X147890Y17295D01*
X147646Y16976D01*
X147237Y15989D01*
X146906Y15853D01*
X146075Y15800D01*
X145609Y15945D01*
X145259Y16790D01*
X144591Y17661D01*
X143719Y18330D01*
X142704Y18751D01*
X141614Y18894D01*
D02*
G37*
G36*
X161614D02*
X160525Y18751D01*
X159510Y18330D01*
X158638Y17661D01*
X157969Y16790D01*
X157619Y15945D01*
X157153Y15800D01*
X156323Y15853D01*
X155992Y15989D01*
X155583Y16976D01*
X155338Y17295D01*
X152728Y14685D01*
X155338Y12075D01*
X155583Y12394D01*
X155992Y13382D01*
X156323Y13517D01*
X157153Y13570D01*
X157619Y13425D01*
X157969Y12581D01*
X158638Y11709D01*
X159510Y11040D01*
X160525Y10619D01*
X161614Y10476D01*
X162704Y10619D01*
X163719Y11040D01*
X164591Y11709D01*
X165260Y12581D01*
X165680Y13596D01*
X165823Y14685D01*
X165680Y15775D01*
X165260Y16790D01*
X164591Y17661D01*
X163719Y18330D01*
X162704Y18751D01*
X161614Y18894D01*
D02*
G37*
G36*
X131614Y28894D02*
X130525Y28751D01*
X129510Y28330D01*
X128638Y27661D01*
X127969Y26790D01*
X127548Y25774D01*
X127405Y24685D01*
X127548Y23596D01*
X127969Y22580D01*
X128638Y21709D01*
X129510Y21040D01*
X130354Y20690D01*
X130499Y20224D01*
X130446Y19394D01*
X130311Y19063D01*
X129323Y18654D01*
X129004Y18409D01*
X131614Y15799D01*
X134224Y18409D01*
X133905Y18654D01*
X132918Y19063D01*
X132782Y19394D01*
X132729Y20224D01*
X132875Y20690D01*
X133719Y21040D01*
X134591Y21709D01*
X135259Y22580D01*
X135680Y23596D01*
X135824Y24685D01*
X135680Y25774D01*
X135259Y26790D01*
X134591Y27661D01*
X133719Y28330D01*
X132704Y28751D01*
X131614Y28894D01*
D02*
G37*
G36*
X71614Y13571D02*
X69004Y10961D01*
X69323Y10717D01*
X70428Y10259D01*
X71614Y10103D01*
X72800Y10259D01*
X73905Y10717D01*
X74225Y10961D01*
X71614Y13571D01*
D02*
G37*
G36*
X131614D02*
X129004Y10961D01*
X129323Y10717D01*
X130428Y10259D01*
X131614Y10103D01*
X132800Y10259D01*
X133905Y10717D01*
X134224Y10961D01*
X131614Y13571D01*
D02*
G37*
G36*
X91614D02*
X89004Y10961D01*
X89323Y10717D01*
X90428Y10259D01*
X91614Y10103D01*
X92800Y10259D01*
X93906Y10717D01*
X94225Y10961D01*
X91614Y13571D01*
D02*
G37*
G36*
X111614D02*
X109004Y10961D01*
X109323Y10717D01*
X110428Y10259D01*
X111614Y10103D01*
X112800Y10259D01*
X113906Y10717D01*
X114225Y10961D01*
X111614Y13571D01*
D02*
G37*
G36*
X31614D02*
X29004Y10961D01*
X29323Y10717D01*
X30428Y10259D01*
X31614Y10103D01*
X32800Y10259D01*
X33906Y10717D01*
X34225Y10961D01*
X31614Y13571D01*
D02*
G37*
G36*
X111614Y28894D02*
X110525Y28751D01*
X109510Y28330D01*
X108638Y27661D01*
X107969Y26790D01*
X107548Y25774D01*
X107405Y24685D01*
X107548Y23596D01*
X107969Y22580D01*
X108638Y21709D01*
X109510Y21040D01*
X110354Y20690D01*
X110500Y20224D01*
X110446Y19394D01*
X110311Y19063D01*
X109323Y18654D01*
X109004Y18409D01*
X111614Y15799D01*
X114225Y18409D01*
X113906Y18654D01*
X112918Y19063D01*
X112782Y19394D01*
X112729Y20224D01*
X112874Y20690D01*
X113719Y21040D01*
X114591Y21709D01*
X115260Y22580D01*
X115680Y23596D01*
X115823Y24685D01*
X115680Y25774D01*
X115260Y26790D01*
X114591Y27661D01*
X113719Y28330D01*
X112704Y28751D01*
X111614Y28894D01*
D02*
G37*
G36*
X151614Y13571D02*
X149004Y10961D01*
X149323Y10717D01*
X150428Y10259D01*
X151614Y10103D01*
X152800Y10259D01*
X153905Y10717D01*
X154225Y10961D01*
X151614Y13571D01*
D02*
G37*
G36*
X51614D02*
X49004Y10961D01*
X49323Y10717D01*
X50428Y10259D01*
X51614Y10103D01*
X52800Y10259D01*
X53905Y10717D01*
X54224Y10961D01*
X51614Y13571D01*
D02*
G37*
G36*
X185889Y87846D02*
X183279Y85236D01*
X185889Y82626D01*
X186134Y82945D01*
X186592Y84050D01*
X186748Y85236D01*
X186592Y86422D01*
X186134Y87528D01*
X185889Y87846D01*
D02*
G37*
G36*
Y107846D02*
X183279Y105236D01*
X185889Y102626D01*
X186134Y102945D01*
X186592Y104050D01*
X186748Y105236D01*
X186592Y106422D01*
X186134Y107527D01*
X185889Y107846D01*
D02*
G37*
G36*
X172165Y79445D02*
X171076Y79302D01*
X170061Y78882D01*
X169189Y78213D01*
X168520Y77341D01*
X168100Y76326D01*
X167956Y75236D01*
X168100Y74147D01*
X168520Y73132D01*
X169189Y72260D01*
X170061Y71591D01*
X171076Y71171D01*
X172165Y71027D01*
X173255Y71171D01*
X174270Y71591D01*
X175142Y72260D01*
X175811Y73132D01*
X176231Y74147D01*
X176375Y75236D01*
X176231Y76326D01*
X175811Y77341D01*
X175142Y78213D01*
X174270Y78882D01*
X173255Y79302D01*
X172165Y79445D01*
D02*
G37*
G36*
Y89446D02*
X171076Y89302D01*
X170061Y88882D01*
X169189Y88213D01*
X168520Y87341D01*
X168100Y86326D01*
X167956Y85236D01*
X168100Y84147D01*
X168520Y83132D01*
X169189Y82260D01*
X170061Y81591D01*
X171076Y81170D01*
X172165Y81027D01*
X173255Y81170D01*
X174270Y81591D01*
X175142Y82260D01*
X175811Y83132D01*
X176160Y83976D01*
X176627Y84122D01*
X177457Y84068D01*
X177788Y83933D01*
X178197Y82945D01*
X178442Y82626D01*
X181052Y85236D01*
X178442Y87846D01*
X178197Y87528D01*
X177788Y86540D01*
X177457Y86404D01*
X176627Y86351D01*
X176160Y86497D01*
X175811Y87341D01*
X175142Y88213D01*
X174270Y88882D01*
X173255Y89302D01*
X172165Y89446D01*
D02*
G37*
G36*
X182165Y164123D02*
X179555Y161512D01*
X179874Y161268D01*
X180862Y160859D01*
X180997Y160528D01*
X181051Y159697D01*
X180905Y159231D01*
X180061Y158882D01*
X179189Y158213D01*
X178520Y157341D01*
X178100Y156326D01*
X177956Y155236D01*
X178100Y154147D01*
X178520Y153132D01*
X179189Y152260D01*
X180061Y151591D01*
X180905Y151241D01*
X181051Y150775D01*
X180997Y149945D01*
X180862Y149614D01*
X179874Y149205D01*
X179555Y148960D01*
X182165Y146350D01*
X184776Y148960D01*
X184457Y149205D01*
X183469Y149614D01*
X183333Y149945D01*
X183280Y150775D01*
X183426Y151241D01*
X184270Y151591D01*
X185142Y152260D01*
X185811Y153132D01*
X186231Y154147D01*
X186375Y155236D01*
X186231Y156326D01*
X185811Y157341D01*
X185142Y158213D01*
X184270Y158882D01*
X183426Y159231D01*
X183280Y159697D01*
X183333Y160528D01*
X183469Y160859D01*
X184457Y161268D01*
X184776Y161512D01*
X182165Y164123D01*
D02*
G37*
G36*
X185889Y167847D02*
X183279Y165236D01*
X185889Y162626D01*
X186134Y162945D01*
X186592Y164050D01*
X186748Y165236D01*
X186592Y166422D01*
X186134Y167527D01*
X185889Y167847D01*
D02*
G37*
G36*
Y127847D02*
X183279Y125236D01*
X185889Y122626D01*
X186134Y122945D01*
X186592Y124050D01*
X186748Y125236D01*
X186592Y126422D01*
X186134Y127527D01*
X185889Y127847D01*
D02*
G37*
G36*
Y147846D02*
X183279Y145236D01*
X185889Y142626D01*
X186134Y142945D01*
X186592Y144050D01*
X186748Y145236D01*
X186592Y146422D01*
X186134Y147528D01*
X185889Y147846D01*
D02*
G37*
G36*
X182165Y84123D02*
X179555Y81512D01*
X179874Y81268D01*
X180862Y80858D01*
X180997Y80528D01*
X181051Y79698D01*
X180905Y79231D01*
X180061Y78882D01*
X179189Y78213D01*
X178520Y77341D01*
X178100Y76326D01*
X177956Y75236D01*
X178100Y74147D01*
X178520Y73132D01*
X179189Y72260D01*
X180061Y71591D01*
X180905Y71241D01*
X181051Y70775D01*
X180997Y69945D01*
X180862Y69614D01*
X179874Y69205D01*
X179555Y68960D01*
X182165Y66350D01*
X184776Y68960D01*
X184457Y69205D01*
X183469Y69614D01*
X183333Y69945D01*
X183280Y70775D01*
X183426Y71241D01*
X184270Y71591D01*
X185142Y72260D01*
X185811Y73132D01*
X186231Y74147D01*
X186375Y75236D01*
X186231Y76326D01*
X185811Y77341D01*
X185142Y78213D01*
X184270Y78882D01*
X183426Y79231D01*
X183280Y79698D01*
X183333Y80528D01*
X183469Y80858D01*
X184457Y81268D01*
X184776Y81512D01*
X182165Y84123D01*
D02*
G37*
G36*
X172165Y49446D02*
X171076Y49302D01*
X170061Y48882D01*
X169189Y48213D01*
X168520Y47341D01*
X168100Y46326D01*
X167956Y45236D01*
X168100Y44147D01*
X168520Y43132D01*
X169189Y42260D01*
X170061Y41591D01*
X171076Y41170D01*
X172165Y41027D01*
X173255Y41170D01*
X174270Y41591D01*
X175142Y42260D01*
X175811Y43132D01*
X176160Y43976D01*
X176627Y44122D01*
X177457Y44068D01*
X177788Y43933D01*
X178197Y42945D01*
X178442Y42626D01*
X181052Y45236D01*
X178442Y47846D01*
X178197Y47528D01*
X177788Y46540D01*
X177457Y46404D01*
X176627Y46351D01*
X176160Y46497D01*
X175811Y47341D01*
X175142Y48213D01*
X174270Y48882D01*
X173255Y49302D01*
X172165Y49446D01*
D02*
G37*
G36*
X185889Y47846D02*
X183279Y45236D01*
X185889Y42626D01*
X186134Y42945D01*
X186592Y44050D01*
X186748Y45236D01*
X186592Y46422D01*
X186134Y47528D01*
X185889Y47846D01*
D02*
G37*
G36*
X182165Y44123D02*
X179555Y41513D01*
X179874Y41268D01*
X180862Y40859D01*
X180997Y40528D01*
X181051Y39698D01*
X180905Y39231D01*
X180061Y38882D01*
X179189Y38213D01*
X178520Y37341D01*
X178100Y36326D01*
X177956Y35236D01*
X178100Y34147D01*
X178520Y33132D01*
X179189Y32260D01*
X180061Y31591D01*
X181076Y31170D01*
X182165Y31027D01*
X183255Y31170D01*
X184270Y31591D01*
X185142Y32260D01*
X185811Y33132D01*
X186231Y34147D01*
X186375Y35236D01*
X186231Y36326D01*
X185811Y37341D01*
X185142Y38213D01*
X184270Y38882D01*
X183426Y39231D01*
X183280Y39698D01*
X183333Y40528D01*
X183469Y40859D01*
X184457Y41268D01*
X184776Y41513D01*
X182165Y44123D01*
D02*
G37*
G36*
X176339Y39410D02*
X167992D01*
Y31063D01*
X176339D01*
Y39410D01*
D02*
G37*
G36*
X172165Y69446D02*
X171076Y69302D01*
X170061Y68882D01*
X169189Y68213D01*
X168520Y67341D01*
X168100Y66326D01*
X167956Y65236D01*
X168100Y64147D01*
X168520Y63132D01*
X169189Y62260D01*
X170061Y61591D01*
X171076Y61171D01*
X172165Y61027D01*
X173255Y61171D01*
X174270Y61591D01*
X175142Y62260D01*
X175811Y63132D01*
X176160Y63976D01*
X176627Y64122D01*
X177457Y64068D01*
X177788Y63933D01*
X178197Y62945D01*
X178442Y62626D01*
X181052Y65236D01*
X178442Y67847D01*
X178197Y67528D01*
X177788Y66540D01*
X177457Y66404D01*
X176627Y66351D01*
X176160Y66497D01*
X175811Y67341D01*
X175142Y68213D01*
X174270Y68882D01*
X173255Y69302D01*
X172165Y69446D01*
D02*
G37*
G36*
X185889Y67847D02*
X183279Y65236D01*
X185889Y62626D01*
X186134Y62945D01*
X186592Y64050D01*
X186748Y65236D01*
X186592Y66422D01*
X186134Y67528D01*
X185889Y67847D01*
D02*
G37*
G36*
X182165Y64123D02*
X179555Y61513D01*
X179874Y61268D01*
X180862Y60859D01*
X180997Y60528D01*
X181051Y59698D01*
X180905Y59231D01*
X180061Y58882D01*
X179189Y58213D01*
X178520Y57341D01*
X178100Y56326D01*
X177956Y55236D01*
X178100Y54147D01*
X178520Y53132D01*
X179189Y52260D01*
X180061Y51591D01*
X180905Y51241D01*
X181051Y50775D01*
X180997Y49945D01*
X180862Y49614D01*
X179874Y49205D01*
X179555Y48960D01*
X182165Y46350D01*
X184776Y48960D01*
X184457Y49205D01*
X183469Y49614D01*
X183333Y49945D01*
X183280Y50775D01*
X183426Y51241D01*
X184270Y51591D01*
X185142Y52260D01*
X185811Y53132D01*
X186231Y54147D01*
X186375Y55236D01*
X186231Y56326D01*
X185811Y57341D01*
X185142Y58213D01*
X184270Y58882D01*
X183426Y59231D01*
X183280Y59698D01*
X183333Y60528D01*
X183469Y60859D01*
X184457Y61268D01*
X184776Y61513D01*
X182165Y64123D01*
D02*
G37*
G36*
X172165Y59446D02*
X171076Y59302D01*
X170061Y58882D01*
X169189Y58213D01*
X168520Y57341D01*
X168100Y56326D01*
X167956Y55236D01*
X168100Y54147D01*
X168520Y53132D01*
X169189Y52260D01*
X170061Y51591D01*
X171076Y51170D01*
X172165Y51027D01*
X173255Y51170D01*
X174270Y51591D01*
X175142Y52260D01*
X175811Y53132D01*
X176231Y54147D01*
X176375Y55236D01*
X176231Y56326D01*
X175811Y57341D01*
X175142Y58213D01*
X174270Y58882D01*
X173255Y59302D01*
X172165Y59446D01*
D02*
G37*
%LPD*%
G36*
X136291Y332835D02*
X137283Y331602D01*
X136495Y330587D01*
X133071D01*
X132893Y330551D01*
X129685D01*
Y326929D01*
X132893D01*
X133071Y326894D01*
X137402D01*
X138108Y327034D01*
X138707Y327434D01*
X140367Y329095D01*
X142756D01*
Y331663D01*
X144211Y332266D01*
X146201Y330276D01*
Y321260D01*
X146201Y321260D01*
X146280Y320861D01*
X146506Y320522D01*
X165679Y301349D01*
X165679Y301349D01*
X166018Y301122D01*
X166417Y301043D01*
X166417Y301043D01*
X168094D01*
X168100Y300997D01*
X168520Y299982D01*
X168914Y299469D01*
X168510Y298266D01*
X168211Y297894D01*
X153976D01*
X142756Y309114D01*
Y312638D01*
X138402D01*
X137559Y312638D01*
X136827Y313909D01*
Y314060D01*
X135203Y312435D01*
X134089Y313549D01*
X135713Y315173D01*
X130429D01*
X132053Y313549D01*
X130939Y312435D01*
X129315Y314060D01*
Y310828D01*
X128189Y309727D01*
X126635Y311281D01*
X126427Y311420D01*
X126181Y311469D01*
X126181Y311469D01*
X118701D01*
X118455Y311420D01*
X118247Y311281D01*
X115688Y308722D01*
X115548Y308513D01*
X115499Y308268D01*
X115499Y308268D01*
Y306312D01*
X113152Y303965D01*
X111578Y304617D01*
Y322340D01*
X119501Y330263D01*
X126181D01*
X126427Y330312D01*
X126635Y330451D01*
X129019Y332835D01*
X136291Y332835D01*
D02*
G37*
G36*
Y305276D02*
X137283Y304043D01*
X136495Y303028D01*
X133071D01*
X132893Y302992D01*
X129685D01*
Y299370D01*
X132893D01*
X133071Y299335D01*
X137402D01*
X138108Y299475D01*
X138707Y299875D01*
X140367Y301536D01*
X142756D01*
Y304104D01*
X144211Y304707D01*
X152805Y296112D01*
X152805Y296112D01*
X153144Y295886D01*
X153543Y295807D01*
X153543Y295807D01*
X167775D01*
X168551Y294232D01*
X168520Y294191D01*
X168100Y293176D01*
X167956Y292087D01*
X168100Y290997D01*
X168520Y289982D01*
X168548Y289945D01*
X163899Y285296D01*
X141732D01*
X141732Y285296D01*
X141333Y285216D01*
X141127Y285079D01*
X137559Y285079D01*
X136827Y286350D01*
Y286501D01*
X135203Y284876D01*
X134089Y285990D01*
X135713Y287614D01*
X130429D01*
X132053Y285990D01*
X130939Y284876D01*
X129315Y286501D01*
Y283269D01*
X128189Y282168D01*
X126635Y283722D01*
X126427Y283861D01*
X126181Y283910D01*
X126181Y283910D01*
X118701D01*
X118455Y283861D01*
X118247Y283722D01*
X117599Y283075D01*
X116145Y283677D01*
Y299544D01*
X119304Y302704D01*
X126181D01*
X126427Y302753D01*
X126635Y302892D01*
X129019Y305276D01*
X136291Y305276D01*
D02*
G37*
G36*
X50000Y308268D02*
Y305906D01*
X47441Y303346D01*
X39961D01*
X37402Y305906D01*
Y308268D01*
X39961Y310827D01*
X47441D01*
X50000Y308268D01*
D02*
G37*
G36*
X128740D02*
Y305906D01*
X126181Y303346D01*
X118701D01*
X116142Y305906D01*
Y308268D01*
X118701Y310827D01*
X126181D01*
X128740Y308268D01*
D02*
G37*
G36*
X89370D02*
Y305906D01*
X86811Y303346D01*
X79331D01*
X76772Y305906D01*
Y308268D01*
X79331Y310827D01*
X86811D01*
X89370Y308268D01*
D02*
G37*
G36*
Y280709D02*
Y278346D01*
X86811Y275787D01*
X79331D01*
X76772Y278346D01*
Y280709D01*
X79331Y283268D01*
X86811D01*
X89370Y280709D01*
D02*
G37*
G36*
X50000D02*
Y278346D01*
X47441Y275787D01*
X39961D01*
X37402Y278346D01*
Y280709D01*
X39961Y283268D01*
X47441D01*
X50000Y280709D01*
D02*
G37*
G36*
X128740D02*
Y278346D01*
X126181Y275787D01*
X118701D01*
X116142Y278346D01*
Y280709D01*
X118701Y283268D01*
X126181D01*
X128740Y280709D01*
D02*
G37*
G36*
X96921Y305276D02*
X97913Y304043D01*
X97125Y303028D01*
X93701D01*
X93523Y302992D01*
X90315D01*
Y299370D01*
X93523D01*
X93701Y299335D01*
X98032D01*
X98738Y299475D01*
X99337Y299875D01*
X100997Y301536D01*
X103346D01*
X103386Y301536D01*
X104921Y301440D01*
Y288287D01*
X101713Y285079D01*
X98189Y285079D01*
X97457Y286350D01*
Y286501D01*
X95832Y284876D01*
X94719Y285990D01*
X96343Y287614D01*
X91058D01*
X92683Y285990D01*
X91569Y284876D01*
X89945Y286501D01*
Y283269D01*
X88819Y282168D01*
X87265Y283722D01*
X87057Y283861D01*
X86811Y283910D01*
X86811Y283910D01*
X79331D01*
X79085Y283861D01*
X78877Y283722D01*
X78249Y283094D01*
X76794Y283697D01*
Y297891D01*
X81608Y302704D01*
X86811D01*
X87057Y302753D01*
X87265Y302892D01*
X89648Y305276D01*
X96921Y305276D01*
D02*
G37*
G36*
X57551D02*
X58543Y304043D01*
X57755Y303028D01*
X54331D01*
X54152Y302992D01*
X50945D01*
Y299370D01*
X54152D01*
X54331Y299335D01*
X58662D01*
X59368Y299475D01*
X59967Y299875D01*
X61627Y301536D01*
X63740D01*
X64016Y301536D01*
X65315Y300869D01*
Y288051D01*
X62343Y285079D01*
X58819Y285079D01*
X58087Y286350D01*
Y286501D01*
X56462Y284876D01*
X55349Y285990D01*
X56973Y287614D01*
X51688D01*
X53313Y285990D01*
X52199Y284876D01*
X50575Y286501D01*
Y283269D01*
X49449Y282168D01*
X47895Y283722D01*
X47687Y283861D01*
X47441Y283910D01*
X47441Y283910D01*
X39961D01*
X39715Y283861D01*
X39507Y283722D01*
X38820Y283035D01*
X37365Y283638D01*
Y299604D01*
X40466Y302704D01*
X47441D01*
X47687Y302753D01*
X47895Y302892D01*
X50278Y305276D01*
X57551Y305276D01*
D02*
G37*
G36*
Y332835D02*
X58543Y331602D01*
X57755Y330587D01*
X54331D01*
X54152Y330551D01*
X50945D01*
Y326929D01*
X54152D01*
X54331Y326894D01*
X58662D01*
X59368Y327034D01*
X59967Y327434D01*
X61627Y329095D01*
X63897D01*
Y314192D01*
X62343Y312638D01*
X58819Y312638D01*
X58087Y313909D01*
Y314060D01*
X56462Y312435D01*
X55349Y313549D01*
X56973Y315173D01*
X51688D01*
X53313Y313549D01*
X52199Y312435D01*
X50575Y314060D01*
Y310828D01*
X49449Y309727D01*
X47895Y311281D01*
X47687Y311420D01*
X47441Y311469D01*
X47441Y311469D01*
X39961D01*
X39715Y311420D01*
X39507Y311281D01*
X36948Y308722D01*
X36808Y308513D01*
X36759Y308268D01*
X36759Y308268D01*
Y306411D01*
X34314Y303965D01*
X32739Y304617D01*
Y322438D01*
X40564Y330263D01*
X47441D01*
X47687Y330312D01*
X47895Y330451D01*
X50278Y332835D01*
X57551Y332835D01*
D02*
G37*
G36*
X89370Y335827D02*
Y333465D01*
X86811Y330906D01*
X79331D01*
X76772Y333465D01*
Y335827D01*
X79331Y338386D01*
X86811D01*
X89370Y335827D01*
D02*
G37*
G36*
X50000D02*
Y333465D01*
X47441Y330906D01*
X39961D01*
X37402Y333465D01*
Y335827D01*
X39961Y338386D01*
X47441D01*
X50000Y335827D01*
D02*
G37*
G36*
X192913Y389764D02*
Y200787D01*
X3937D01*
X3937Y200787D01*
Y215579D01*
X4154Y215742D01*
X5512Y216162D01*
X7997Y213677D01*
X7969Y213640D01*
X7548Y212625D01*
X7405Y211536D01*
X7548Y210446D01*
X7969Y209431D01*
X8638Y208559D01*
X9510Y207890D01*
X10525Y207470D01*
X11614Y207326D01*
X12704Y207470D01*
X13719Y207890D01*
X14591Y208559D01*
X15259Y209431D01*
X15680Y210446D01*
X15823Y211536D01*
X15680Y212625D01*
X15259Y213640D01*
X14591Y214512D01*
X13719Y215181D01*
X12704Y215601D01*
X11614Y215745D01*
X10525Y215601D01*
X9510Y215181D01*
X9473Y215153D01*
X7820Y216806D01*
X7899Y217141D01*
X9358Y217820D01*
X9674Y217822D01*
X10525Y217470D01*
X11614Y217326D01*
X12704Y217470D01*
X13719Y217890D01*
X14591Y218559D01*
X15259Y219431D01*
X15680Y220446D01*
X15823Y221535D01*
X15680Y222625D01*
X15259Y223640D01*
X14591Y224512D01*
X13719Y225181D01*
X12704Y225601D01*
X11614Y225745D01*
X10525Y225601D01*
X9510Y225181D01*
X8638Y224512D01*
X8524Y224363D01*
X6949Y224898D01*
Y234280D01*
X8524Y234593D01*
X8566Y234492D01*
X9589Y232822D01*
X10861Y231333D01*
X12350Y230062D01*
X14020Y229038D01*
X15829Y228289D01*
X17733Y227832D01*
X19685Y227678D01*
X21637Y227832D01*
X23541Y228289D01*
X25351Y229038D01*
X26293Y227769D01*
X25640Y227116D01*
X25414Y226777D01*
X25334Y226378D01*
X25334Y226378D01*
Y225926D01*
X23760Y225150D01*
X23719Y225181D01*
X22704Y225601D01*
X21614Y225745D01*
X20525Y225601D01*
X19510Y225181D01*
X18638Y224512D01*
X17969Y223640D01*
X17548Y222625D01*
X17405Y221535D01*
X17548Y220446D01*
X17969Y219431D01*
X18638Y218559D01*
X19510Y217890D01*
X20525Y217470D01*
X21614Y217326D01*
X22704Y217470D01*
X24179Y216544D01*
X22922Y215511D01*
X22704Y215601D01*
X21614Y215745D01*
X20525Y215601D01*
X19510Y215181D01*
X18638Y214512D01*
X17969Y213640D01*
X17548Y212625D01*
X17405Y211536D01*
X17548Y210446D01*
X17969Y209431D01*
X18638Y208559D01*
X19510Y207890D01*
X20525Y207470D01*
X21614Y207326D01*
X22704Y207470D01*
X23719Y207890D01*
X24591Y208559D01*
X25260Y209431D01*
X25609Y210275D01*
X26076Y210421D01*
X26906Y210367D01*
X27237Y210232D01*
X27646Y209244D01*
X27890Y208925D01*
X31058Y212092D01*
X34225Y215259D01*
X33906Y215504D01*
X32918Y215913D01*
X32782Y216244D01*
X32729Y217074D01*
X32875Y217541D01*
X33719Y217890D01*
X34591Y218559D01*
X35260Y219431D01*
X35680Y220446D01*
X35764Y221084D01*
X36614Y221639D01*
X37464Y221084D01*
X37548Y220446D01*
X37969Y219431D01*
X38638Y218559D01*
X39510Y217890D01*
X40525Y217470D01*
X41614Y217326D01*
X42704Y217470D01*
X43719Y217890D01*
X44591Y218559D01*
X45259Y219431D01*
X45680Y220446D01*
X45823Y221535D01*
X45680Y222625D01*
X45259Y223640D01*
X44591Y224512D01*
X43719Y225181D01*
X42704Y225601D01*
X42214Y225666D01*
X39235Y228645D01*
Y247244D01*
X39146Y247922D01*
X38884Y248555D01*
X38467Y249097D01*
X16400Y271164D01*
Y336316D01*
X57385Y377301D01*
X69589D01*
X70241Y375726D01*
X62786Y368270D01*
X62559Y367932D01*
X62480Y367532D01*
X62480Y367532D01*
Y341310D01*
X61366Y340197D01*
X58819Y340197D01*
X58087Y341468D01*
Y341619D01*
X56462Y339995D01*
X55349Y341108D01*
X56973Y342732D01*
X51688D01*
X53313Y341108D01*
X52199Y339995D01*
X50575Y341619D01*
Y338387D01*
X49449Y337286D01*
X47895Y338840D01*
X47687Y338979D01*
X47441Y339028D01*
X47441Y339028D01*
X39961D01*
X39715Y338979D01*
X39507Y338840D01*
X36948Y336281D01*
X36808Y336073D01*
X36759Y335827D01*
X36759Y335827D01*
Y333871D01*
X28265Y325377D01*
X27849Y324834D01*
X27587Y324202D01*
X27497Y323524D01*
Y268110D01*
X27587Y267432D01*
X27849Y266800D01*
X28265Y266257D01*
X48993Y245529D01*
Y224785D01*
X48638Y224512D01*
X47969Y223640D01*
X47548Y222625D01*
X47405Y221535D01*
X47548Y220446D01*
X47969Y219431D01*
X48638Y218559D01*
X49510Y217890D01*
X50354Y217541D01*
X50499Y217074D01*
X50446Y216244D01*
X50311Y215913D01*
X49323Y215504D01*
X49004Y215259D01*
X52171Y212092D01*
X55338Y208925D01*
X55583Y209244D01*
X55992Y210232D01*
X56323Y210367D01*
X57153Y210421D01*
X57619Y210275D01*
X57969Y209431D01*
X58638Y208559D01*
X59510Y207890D01*
X60525Y207470D01*
X61614Y207326D01*
X62704Y207470D01*
X63719Y207890D01*
X64591Y208559D01*
X65259Y209431D01*
X65609Y210275D01*
X66075Y210421D01*
X66906Y210367D01*
X67237Y210232D01*
X67646Y209244D01*
X67890Y208925D01*
X70501Y211536D01*
X67890Y214146D01*
X67646Y213827D01*
X67237Y212839D01*
X66906Y212703D01*
X66075Y212650D01*
X65609Y212796D01*
X65259Y213640D01*
X64591Y214512D01*
X63719Y215181D01*
X62704Y215601D01*
X61614Y215745D01*
X60525Y215601D01*
X59964Y215369D01*
X58905Y216425D01*
X59541Y217806D01*
X59634Y217839D01*
X60525Y217470D01*
X61614Y217326D01*
X62704Y217470D01*
X63719Y217890D01*
X64591Y218559D01*
X65259Y219431D01*
X65597Y220245D01*
X66319Y220610D01*
X67324Y220869D01*
X67513Y220715D01*
X67548Y220446D01*
X67969Y219431D01*
X68638Y218559D01*
X69510Y217890D01*
X70354Y217541D01*
X70499Y217074D01*
X70446Y216244D01*
X70311Y215913D01*
X69323Y215504D01*
X69004Y215259D01*
X72171Y212092D01*
X75338Y208925D01*
X75583Y209244D01*
X75992Y210232D01*
X76323Y210367D01*
X77153Y210421D01*
X77619Y210275D01*
X77969Y209431D01*
X78638Y208559D01*
X79510Y207890D01*
X80525Y207470D01*
X81614Y207326D01*
X82704Y207470D01*
X83719Y207890D01*
X84591Y208559D01*
X85259Y209431D01*
X85609Y210275D01*
X86076Y210421D01*
X86906Y210367D01*
X87236Y210232D01*
X87646Y209244D01*
X87890Y208925D01*
X90501Y211536D01*
X87890Y214146D01*
X87646Y213827D01*
X87236Y212839D01*
X86906Y212703D01*
X86076Y212650D01*
X85609Y212796D01*
X85259Y213640D01*
X84591Y214512D01*
X83719Y215181D01*
X82704Y215601D01*
X81614Y215745D01*
X80525Y215601D01*
X79963Y215369D01*
X78905Y216425D01*
X79541Y217806D01*
X79634Y217839D01*
X80525Y217470D01*
X81614Y217326D01*
X82704Y217470D01*
X83719Y217890D01*
X84591Y218559D01*
X85259Y219431D01*
X85680Y220446D01*
X85824Y221535D01*
X85680Y222625D01*
X85259Y223640D01*
X84591Y224512D01*
X84235Y224785D01*
Y227049D01*
X84146Y227728D01*
X83884Y228360D01*
X83467Y228902D01*
X81361Y231009D01*
Y275145D01*
X86811D01*
X87057Y275194D01*
X87265Y275333D01*
X89648Y277717D01*
X96921Y277717D01*
X97913Y276484D01*
X97125Y275469D01*
X93701D01*
X93523Y275433D01*
X90315D01*
Y271811D01*
X93523D01*
X93701Y271776D01*
X98032D01*
X98738Y271916D01*
X99337Y272316D01*
X100997Y273976D01*
X103386D01*
Y278701D01*
X103386Y278780D01*
Y280276D01*
X103386Y280354D01*
Y283800D01*
X104881Y285295D01*
X106336Y284692D01*
Y245438D01*
X89761Y228863D01*
X89345Y228320D01*
X89083Y227688D01*
X88993Y227010D01*
Y224785D01*
X88638Y224512D01*
X87969Y223640D01*
X87548Y222625D01*
X87405Y221535D01*
X87548Y220446D01*
X87969Y219431D01*
X88638Y218559D01*
X89510Y217890D01*
X90354Y217541D01*
X90500Y217074D01*
X90446Y216244D01*
X90311Y215913D01*
X89323Y215504D01*
X89004Y215259D01*
X92171Y212092D01*
X95338Y208925D01*
X95583Y209244D01*
X95992Y210232D01*
X96323Y210367D01*
X97153Y210421D01*
X97619Y210275D01*
X97969Y209431D01*
X98638Y208559D01*
X99510Y207890D01*
X100525Y207470D01*
X101614Y207326D01*
X102704Y207470D01*
X103719Y207890D01*
X104591Y208559D01*
X105260Y209431D01*
X105609Y210275D01*
X106076Y210421D01*
X106906Y210367D01*
X107237Y210232D01*
X107646Y209244D01*
X107890Y208925D01*
X110501Y211536D01*
X107890Y214146D01*
X107646Y213827D01*
X107237Y212839D01*
X106906Y212703D01*
X106076Y212650D01*
X105609Y212796D01*
X105260Y213640D01*
X104591Y214512D01*
X103719Y215181D01*
X102704Y215601D01*
X101614Y215745D01*
X100525Y215601D01*
X100162Y215451D01*
X99048Y216568D01*
X99582Y217789D01*
X99673Y217822D01*
X100525Y217470D01*
X101614Y217326D01*
X102704Y217470D01*
X103719Y217890D01*
X104591Y218559D01*
X105260Y219431D01*
X105680Y220446D01*
X105824Y221535D01*
X105680Y222625D01*
X105260Y223640D01*
X105149Y223785D01*
X119964Y238600D01*
X120380Y239142D01*
X120642Y239774D01*
X120731Y240453D01*
Y275145D01*
X126181D01*
X126427Y275194D01*
X126635Y275333D01*
X129019Y277717D01*
X136291Y277717D01*
X137283Y276484D01*
X136495Y275469D01*
X133071D01*
X132893Y275433D01*
X129685D01*
Y271811D01*
X132893D01*
X133071Y271776D01*
X137402D01*
X138108Y271916D01*
X138707Y272316D01*
X140367Y273976D01*
X142756D01*
Y278701D01*
X142756Y278780D01*
Y280276D01*
X142756Y280354D01*
Y283208D01*
X164331D01*
X164331Y283208D01*
X164730Y283288D01*
X165069Y283514D01*
X170024Y288470D01*
X170061Y288441D01*
X171076Y288021D01*
X172165Y287877D01*
X173255Y288021D01*
X174270Y288441D01*
X175142Y289110D01*
X175811Y289982D01*
X176231Y290997D01*
X176375Y292087D01*
X176231Y293176D01*
X177157Y294652D01*
X178190Y293394D01*
X178100Y293176D01*
X177956Y292087D01*
X178100Y290997D01*
X178520Y289982D01*
X179189Y289110D01*
X180061Y288441D01*
X180905Y288092D01*
X181051Y287625D01*
X180997Y286795D01*
X180862Y286464D01*
X179874Y286055D01*
X179555Y285810D01*
X182165Y283200D01*
X184776Y285810D01*
X184457Y286055D01*
X183469Y286464D01*
X183333Y286795D01*
X183280Y287625D01*
X183426Y288092D01*
X184270Y288441D01*
X185142Y289110D01*
X185811Y289982D01*
X186231Y290997D01*
X186375Y292087D01*
X186231Y293176D01*
X185811Y294191D01*
X185142Y295063D01*
X184270Y295732D01*
X183426Y296082D01*
X183280Y296548D01*
X183333Y297378D01*
X183469Y297709D01*
X184457Y298118D01*
X184776Y298363D01*
X181609Y301530D01*
X178442Y304697D01*
X178197Y304378D01*
X177788Y303390D01*
X177457Y303255D01*
X176627Y303201D01*
X176160Y303347D01*
X175811Y304191D01*
X175142Y305063D01*
X174270Y305732D01*
X173255Y306153D01*
X172165Y306296D01*
X171076Y306153D01*
X170061Y305732D01*
X169189Y305063D01*
X168520Y304191D01*
X168253Y303545D01*
X166891Y303367D01*
X166560Y303420D01*
X148288Y321692D01*
Y330709D01*
X148208Y331108D01*
X147982Y331447D01*
X147982Y331447D01*
X142756Y336673D01*
Y340197D01*
X138402D01*
X137559Y340197D01*
X136827Y341468D01*
Y341619D01*
X135203Y339995D01*
X134089Y341108D01*
X135713Y342732D01*
X130429D01*
X132053Y341108D01*
X130939Y339995D01*
X129315Y341619D01*
Y338387D01*
X128189Y337286D01*
X126635Y338840D01*
X126427Y338979D01*
X126181Y339028D01*
X126181Y339028D01*
X118701D01*
X118455Y338979D01*
X118247Y338840D01*
X116651Y339472D01*
X116547Y340268D01*
X122086Y345807D01*
X151143D01*
X163720Y333229D01*
Y319488D01*
X163720Y319488D01*
X163800Y319089D01*
X164026Y318750D01*
X168548Y314228D01*
X168520Y314191D01*
X168100Y313176D01*
X167956Y312087D01*
X168100Y310997D01*
X168520Y309982D01*
X169189Y309110D01*
X170061Y308441D01*
X171076Y308021D01*
X172165Y307877D01*
X173255Y308021D01*
X174270Y308441D01*
X175142Y309110D01*
X175811Y309982D01*
X176231Y310997D01*
X176375Y312087D01*
X176231Y313176D01*
X175856Y314083D01*
X176056Y314561D01*
X176732Y315578D01*
X177195Y315581D01*
X178548Y314228D01*
X178520Y314191D01*
X178100Y313176D01*
X177956Y312087D01*
X178100Y310997D01*
X178520Y309982D01*
X179189Y309110D01*
X180061Y308441D01*
X180905Y308092D01*
X181051Y307625D01*
X180997Y306795D01*
X180862Y306464D01*
X179874Y306055D01*
X179555Y305810D01*
X182165Y303200D01*
X184776Y305810D01*
X184457Y306055D01*
X183469Y306464D01*
X183333Y306795D01*
X183280Y307625D01*
X183426Y308092D01*
X184270Y308441D01*
X185142Y309110D01*
X185811Y309982D01*
X186231Y310997D01*
X186375Y312087D01*
X186231Y313176D01*
X185811Y314191D01*
X185142Y315063D01*
X184270Y315732D01*
X183426Y316082D01*
X183280Y316548D01*
X183333Y317378D01*
X183469Y317709D01*
X184457Y318118D01*
X184776Y318363D01*
X181609Y321530D01*
X178442Y324697D01*
X178197Y324378D01*
X177788Y323390D01*
X177457Y323255D01*
X176627Y323201D01*
X176160Y323347D01*
X175811Y324191D01*
X175142Y325063D01*
X174270Y325732D01*
X173255Y326152D01*
X172165Y326296D01*
X171076Y326152D01*
X170650Y325976D01*
X169313Y326800D01*
X169173Y327000D01*
X169201Y327335D01*
X170699Y328177D01*
X171076Y328021D01*
X172165Y327877D01*
X173255Y328021D01*
X174270Y328441D01*
X175142Y329110D01*
X175811Y329982D01*
X176231Y330997D01*
X176375Y332087D01*
X176231Y333176D01*
X176224Y333195D01*
X177121Y334939D01*
X177218Y334955D01*
X177240Y334943D01*
X178310Y333684D01*
X178100Y333176D01*
X177956Y332087D01*
X178100Y330997D01*
X178520Y329982D01*
X179189Y329110D01*
X180061Y328441D01*
X180905Y328092D01*
X181051Y327625D01*
X180997Y326795D01*
X180862Y326464D01*
X179874Y326055D01*
X179555Y325811D01*
X182165Y323200D01*
X184776Y325811D01*
X184457Y326055D01*
X183469Y326464D01*
X183333Y326795D01*
X183280Y327625D01*
X183426Y328092D01*
X184270Y328441D01*
X185142Y329110D01*
X185811Y329982D01*
X186231Y330997D01*
X186375Y332087D01*
X186231Y333176D01*
X185811Y334191D01*
X185142Y335063D01*
X184270Y335732D01*
X183426Y336082D01*
X183280Y336548D01*
X183333Y337378D01*
X183469Y337709D01*
X184457Y338118D01*
X184776Y338363D01*
X181609Y341530D01*
X178442Y344697D01*
X178197Y344378D01*
X177788Y343390D01*
X177457Y343255D01*
X176627Y343201D01*
X176160Y343347D01*
X175811Y344191D01*
X175142Y345063D01*
X174270Y345732D01*
X173255Y346152D01*
X172165Y346296D01*
X171076Y346152D01*
X170061Y345732D01*
X169189Y345063D01*
X168520Y344191D01*
X168224Y343477D01*
X166997Y343323D01*
X166540Y343384D01*
X156639Y353285D01*
X157291Y354859D01*
X165686D01*
X168015Y352531D01*
X167956Y352087D01*
X168100Y350997D01*
X168520Y349982D01*
X169189Y349110D01*
X170061Y348441D01*
X171076Y348021D01*
X172165Y347877D01*
X173255Y348021D01*
X174270Y348441D01*
X175142Y349110D01*
X175811Y349982D01*
X176231Y350997D01*
X176375Y352087D01*
X176231Y353176D01*
X175811Y354191D01*
X175142Y355063D01*
X174270Y355732D01*
X173255Y356153D01*
X173200Y356160D01*
X172995Y356398D01*
X173131Y357248D01*
X173488Y358118D01*
X174270Y358441D01*
X175142Y359110D01*
X175811Y359982D01*
X176160Y360826D01*
X176627Y360972D01*
X177457Y360919D01*
X177788Y360783D01*
X178197Y359795D01*
X178442Y359476D01*
X181609Y362643D01*
X184776Y365810D01*
X184457Y366055D01*
X183469Y366464D01*
X183333Y366795D01*
X183280Y367625D01*
X183426Y368092D01*
X184270Y368441D01*
X185142Y369110D01*
X185811Y369982D01*
X186231Y370997D01*
X186375Y372087D01*
X186231Y373176D01*
X185811Y374191D01*
X185142Y375063D01*
X184270Y375732D01*
X183255Y376152D01*
X182165Y376296D01*
X181076Y376152D01*
X180061Y375732D01*
X179189Y375063D01*
X178520Y374191D01*
X178100Y373176D01*
X177956Y372087D01*
X178100Y370997D01*
X178457Y370134D01*
X177912Y369519D01*
X177269Y369029D01*
X177071Y369066D01*
X176933Y369166D01*
X176165Y370836D01*
X176231Y370997D01*
X176375Y372087D01*
X176231Y373176D01*
X175811Y374191D01*
X175142Y375063D01*
X174270Y375732D01*
X173255Y376152D01*
X172165Y376296D01*
X171076Y376152D01*
X170061Y375732D01*
X169189Y375063D01*
X168520Y374191D01*
X168100Y373176D01*
X167956Y372087D01*
X168100Y370997D01*
X168520Y369982D01*
X168778Y369646D01*
X168079Y368071D01*
X167028D01*
X166628Y367992D01*
X166290Y367766D01*
X166143Y367809D01*
X165213Y369679D01*
X165412Y370160D01*
X165869Y372064D01*
X166023Y374016D01*
X165869Y375968D01*
X165412Y377872D01*
X164663Y379681D01*
X163639Y381351D01*
X162368Y382840D01*
X160879Y384112D01*
X159209Y385135D01*
X159108Y385177D01*
X159421Y386752D01*
X168803D01*
X169337Y385177D01*
X169189Y385063D01*
X168520Y384191D01*
X168100Y383176D01*
X167956Y382087D01*
X168100Y380997D01*
X168520Y379982D01*
X169189Y379110D01*
X170061Y378441D01*
X171076Y378021D01*
X172165Y377877D01*
X173255Y378021D01*
X174270Y378441D01*
X175142Y379110D01*
X175811Y379982D01*
X176231Y380997D01*
X176375Y382087D01*
X176231Y383176D01*
X175879Y384027D01*
X175881Y384343D01*
X176559Y385802D01*
X176895Y385881D01*
X178548Y384228D01*
X178520Y384191D01*
X178100Y383176D01*
X177956Y382087D01*
X178100Y380997D01*
X178520Y379982D01*
X179189Y379110D01*
X180061Y378441D01*
X181076Y378021D01*
X182165Y377877D01*
X183255Y378021D01*
X184270Y378441D01*
X185142Y379110D01*
X185811Y379982D01*
X186231Y380997D01*
X186375Y382087D01*
X186231Y383176D01*
X185811Y384191D01*
X185142Y385063D01*
X184270Y385732D01*
X183255Y386153D01*
X182165Y386296D01*
X181076Y386153D01*
X180061Y385732D01*
X180024Y385704D01*
X177539Y388189D01*
X177959Y389547D01*
X178122Y389764D01*
X192913D01*
X192913Y389764D01*
D02*
G37*
G36*
X128740Y335827D02*
Y333465D01*
X126181Y330906D01*
X118701D01*
X116142Y333465D01*
Y335827D01*
X118701Y338386D01*
X126181D01*
X128740Y335827D01*
D02*
G37*
G36*
X84529Y370651D02*
X81152Y367273D01*
X80926Y366935D01*
X80846Y366535D01*
X80846Y366535D01*
Y342126D01*
X80846Y342126D01*
X80926Y341727D01*
X81152Y341388D01*
X82057Y340483D01*
X81454Y339028D01*
X79331D01*
X79085Y338979D01*
X78877Y338840D01*
X76318Y336281D01*
X76178Y336073D01*
X76129Y335827D01*
X76129Y335827D01*
Y333465D01*
X76178Y333219D01*
X76318Y333011D01*
X76827Y332502D01*
X68977Y324652D01*
X67402Y325304D01*
Y365926D01*
X73582Y372106D01*
X83927D01*
X84529Y370651D01*
D02*
G37*
G36*
X139382Y350766D02*
X138780Y349311D01*
X121066D01*
X120667Y349232D01*
X120328Y349006D01*
X120328Y349006D01*
X112963Y341640D01*
X112737Y341301D01*
X112657Y340902D01*
X112657Y340902D01*
Y335393D01*
X103809Y326545D01*
X103583Y326207D01*
X103504Y325807D01*
X103504Y325807D01*
Y314428D01*
X101713Y312638D01*
X98189Y312638D01*
X97457Y313909D01*
Y314060D01*
X95832Y312435D01*
X94719Y313549D01*
X96343Y315173D01*
X91058D01*
X92683Y313549D01*
X91569Y312435D01*
X89945Y314060D01*
Y310828D01*
X88819Y309727D01*
X87265Y311281D01*
X87057Y311420D01*
X86811Y311469D01*
X86811Y311469D01*
X79331D01*
X79085Y311420D01*
X78877Y311281D01*
X76318Y308722D01*
X76178Y308513D01*
X76129Y308268D01*
X76129Y308268D01*
Y305906D01*
X76178Y305660D01*
X76318Y305451D01*
X76630Y305139D01*
X73802Y302312D01*
X72227Y302964D01*
Y320489D01*
X82001Y330263D01*
X86811D01*
X87057Y330312D01*
X87265Y330451D01*
X89648Y332835D01*
X96921Y332835D01*
X97913Y331602D01*
X97125Y330587D01*
X93701D01*
X93523Y330551D01*
X90315D01*
Y326929D01*
X93523D01*
X93701Y326894D01*
X98032D01*
X98738Y327034D01*
X99337Y327434D01*
X100997Y329095D01*
X103386D01*
Y333819D01*
X103386Y333898D01*
Y335394D01*
X103386Y335472D01*
Y340197D01*
X98189D01*
X97457Y341468D01*
Y341619D01*
X95832Y339995D01*
X94719Y341108D01*
X96343Y342732D01*
X91058D01*
X92683Y341108D01*
X91569Y339995D01*
X89945Y341619D01*
Y341087D01*
X89460Y340886D01*
X88370Y340611D01*
X88195Y340728D01*
X87795Y340808D01*
X87795Y340808D01*
X84684D01*
X82933Y342558D01*
Y366103D01*
X87519Y370689D01*
X119460D01*
X139382Y350766D01*
D02*
G37*
%LPC*%
G36*
X41614Y215745D02*
X40525Y215601D01*
X39510Y215181D01*
X38638Y214512D01*
X37969Y213640D01*
X37619Y212796D01*
X37153Y212650D01*
X36323Y212703D01*
X35992Y212839D01*
X35583Y213827D01*
X35338Y214146D01*
X32728Y211536D01*
X35338Y208925D01*
X35583Y209244D01*
X35992Y210232D01*
X36323Y210367D01*
X37153Y210421D01*
X37619Y210275D01*
X37969Y209431D01*
X38638Y208559D01*
X39510Y207890D01*
X40525Y207470D01*
X41614Y207326D01*
X42704Y207470D01*
X43719Y207890D01*
X44591Y208559D01*
X45259Y209431D01*
X45609Y210275D01*
X46075Y210421D01*
X46906Y210367D01*
X47236Y210232D01*
X47646Y209244D01*
X47890Y208925D01*
X50501Y211536D01*
X47890Y214146D01*
X47646Y213827D01*
X47236Y212839D01*
X46906Y212703D01*
X46075Y212650D01*
X45609Y212796D01*
X45259Y213640D01*
X44591Y214512D01*
X43719Y215181D01*
X42704Y215601D01*
X41614Y215745D01*
D02*
G37*
G36*
X121614D02*
X120525Y215601D01*
X119510Y215181D01*
X118638Y214512D01*
X117969Y213640D01*
X117619Y212796D01*
X117153Y212650D01*
X116323Y212703D01*
X115992Y212839D01*
X115583Y213827D01*
X115338Y214146D01*
X112728Y211536D01*
X115338Y208925D01*
X115583Y209244D01*
X115992Y210232D01*
X116323Y210367D01*
X117153Y210421D01*
X117619Y210275D01*
X117969Y209431D01*
X118638Y208559D01*
X119510Y207890D01*
X120525Y207470D01*
X121614Y207326D01*
X122704Y207470D01*
X123719Y207890D01*
X124591Y208559D01*
X125259Y209431D01*
X125609Y210275D01*
X126075Y210421D01*
X126906Y210367D01*
X127236Y210232D01*
X127646Y209244D01*
X127890Y208925D01*
X130501Y211536D01*
X127890Y214146D01*
X127646Y213827D01*
X127236Y212839D01*
X126906Y212703D01*
X126075Y212650D01*
X125609Y212796D01*
X125259Y213640D01*
X124591Y214512D01*
X123719Y215181D01*
X122704Y215601D01*
X121614Y215745D01*
D02*
G37*
G36*
X151614Y225745D02*
X150525Y225601D01*
X149510Y225181D01*
X148638Y224512D01*
X147969Y223640D01*
X147548Y222625D01*
X147405Y221535D01*
X147548Y220446D01*
X147969Y219431D01*
X148638Y218559D01*
X149510Y217890D01*
X150354Y217541D01*
X150499Y217074D01*
X150446Y216244D01*
X150311Y215913D01*
X149323Y215504D01*
X149004Y215259D01*
X151614Y212649D01*
X154225Y215259D01*
X153905Y215504D01*
X152918Y215913D01*
X152782Y216244D01*
X152729Y217074D01*
X152875Y217541D01*
X153719Y217890D01*
X154591Y218559D01*
X155260Y219431D01*
X155680Y220446D01*
X155824Y221535D01*
X155680Y222625D01*
X155260Y223640D01*
X154591Y224512D01*
X153719Y225181D01*
X152704Y225601D01*
X151614Y225745D01*
D02*
G37*
G36*
X165787Y225709D02*
X157441D01*
Y217362D01*
X165787D01*
Y225709D01*
D02*
G37*
G36*
X121614Y225745D02*
X120525Y225601D01*
X119510Y225181D01*
X118638Y224512D01*
X117969Y223640D01*
X117548Y222625D01*
X117405Y221535D01*
X117548Y220446D01*
X117969Y219431D01*
X118638Y218559D01*
X119510Y217890D01*
X120525Y217470D01*
X121614Y217326D01*
X122704Y217470D01*
X123719Y217890D01*
X124591Y218559D01*
X125259Y219431D01*
X125680Y220446D01*
X125823Y221535D01*
X125680Y222625D01*
X125259Y223640D01*
X124591Y224512D01*
X123719Y225181D01*
X122704Y225601D01*
X121614Y225745D01*
D02*
G37*
G36*
X141614D02*
X140525Y225601D01*
X139510Y225181D01*
X138638Y224512D01*
X137969Y223640D01*
X137548Y222625D01*
X137405Y221535D01*
X137548Y220446D01*
X137969Y219431D01*
X138638Y218559D01*
X139510Y217890D01*
X140525Y217470D01*
X141614Y217326D01*
X142704Y217470D01*
X143719Y217890D01*
X144591Y218559D01*
X145259Y219431D01*
X145680Y220446D01*
X145824Y221535D01*
X145680Y222625D01*
X145259Y223640D01*
X144591Y224512D01*
X143719Y225181D01*
X142704Y225601D01*
X141614Y225745D01*
D02*
G37*
G36*
Y215745D02*
X140525Y215601D01*
X139510Y215181D01*
X138638Y214512D01*
X137969Y213640D01*
X137619Y212796D01*
X137153Y212650D01*
X136323Y212703D01*
X135992Y212839D01*
X135583Y213827D01*
X135338Y214146D01*
X132728Y211536D01*
X135338Y208925D01*
X135583Y209244D01*
X135992Y210232D01*
X136323Y210367D01*
X137153Y210421D01*
X137619Y210275D01*
X137969Y209431D01*
X138638Y208559D01*
X139510Y207890D01*
X140525Y207470D01*
X141614Y207326D01*
X142704Y207470D01*
X143719Y207890D01*
X144591Y208559D01*
X145259Y209431D01*
X145609Y210275D01*
X146075Y210421D01*
X146906Y210367D01*
X147237Y210232D01*
X147646Y209244D01*
X147890Y208925D01*
X150501Y211536D01*
X147890Y214146D01*
X147646Y213827D01*
X147237Y212839D01*
X146906Y212703D01*
X146075Y212650D01*
X145609Y212796D01*
X145259Y213640D01*
X144591Y214512D01*
X143719Y215181D01*
X142704Y215601D01*
X141614Y215745D01*
D02*
G37*
G36*
X161614D02*
X160525Y215601D01*
X159510Y215181D01*
X158638Y214512D01*
X157969Y213640D01*
X157619Y212796D01*
X157153Y212650D01*
X156323Y212703D01*
X155992Y212839D01*
X155583Y213827D01*
X155338Y214146D01*
X152728Y211536D01*
X155338Y208925D01*
X155583Y209244D01*
X155992Y210232D01*
X156323Y210367D01*
X157153Y210421D01*
X157619Y210275D01*
X157969Y209431D01*
X158638Y208559D01*
X159510Y207890D01*
X160525Y207470D01*
X161614Y207326D01*
X162704Y207470D01*
X163719Y207890D01*
X164591Y208559D01*
X165260Y209431D01*
X165680Y210446D01*
X165823Y211536D01*
X165680Y212625D01*
X165260Y213640D01*
X164591Y214512D01*
X163719Y215181D01*
X162704Y215601D01*
X161614Y215745D01*
D02*
G37*
G36*
X131614Y225745D02*
X130525Y225601D01*
X129510Y225181D01*
X128638Y224512D01*
X127969Y223640D01*
X127548Y222625D01*
X127405Y221535D01*
X127548Y220446D01*
X127969Y219431D01*
X128638Y218559D01*
X129510Y217890D01*
X130354Y217541D01*
X130499Y217074D01*
X130446Y216244D01*
X130311Y215913D01*
X129323Y215504D01*
X129004Y215259D01*
X131614Y212649D01*
X134224Y215259D01*
X133905Y215504D01*
X132918Y215913D01*
X132782Y216244D01*
X132729Y217074D01*
X132875Y217541D01*
X133719Y217890D01*
X134591Y218559D01*
X135259Y219431D01*
X135680Y220446D01*
X135824Y221535D01*
X135680Y222625D01*
X135259Y223640D01*
X134591Y224512D01*
X133719Y225181D01*
X132704Y225601D01*
X131614Y225745D01*
D02*
G37*
G36*
X71614Y210422D02*
X69004Y207812D01*
X69323Y207567D01*
X70428Y207109D01*
X71614Y206953D01*
X72800Y207109D01*
X73905Y207567D01*
X74225Y207812D01*
X71614Y210422D01*
D02*
G37*
G36*
X131614D02*
X129004Y207812D01*
X129323Y207567D01*
X130428Y207109D01*
X131614Y206953D01*
X132800Y207109D01*
X133905Y207567D01*
X134224Y207812D01*
X131614Y210422D01*
D02*
G37*
G36*
X91614D02*
X89004Y207812D01*
X89323Y207567D01*
X90428Y207109D01*
X91614Y206953D01*
X92800Y207109D01*
X93906Y207567D01*
X94225Y207812D01*
X91614Y210422D01*
D02*
G37*
G36*
X111614D02*
X109004Y207812D01*
X109323Y207567D01*
X110428Y207109D01*
X111614Y206953D01*
X112800Y207109D01*
X113906Y207567D01*
X114225Y207812D01*
X111614Y210422D01*
D02*
G37*
G36*
X31614D02*
X29004Y207812D01*
X29323Y207567D01*
X30428Y207109D01*
X31614Y206953D01*
X32800Y207109D01*
X33906Y207567D01*
X34225Y207812D01*
X31614Y210422D01*
D02*
G37*
G36*
X111614Y225745D02*
X110525Y225601D01*
X109510Y225181D01*
X108638Y224512D01*
X107969Y223640D01*
X107548Y222625D01*
X107405Y221535D01*
X107548Y220446D01*
X107969Y219431D01*
X108638Y218559D01*
X109510Y217890D01*
X110354Y217541D01*
X110500Y217074D01*
X110446Y216244D01*
X110311Y215913D01*
X109323Y215504D01*
X109004Y215259D01*
X111614Y212649D01*
X114225Y215259D01*
X113906Y215504D01*
X112918Y215913D01*
X112782Y216244D01*
X112729Y217074D01*
X112874Y217541D01*
X113719Y217890D01*
X114591Y218559D01*
X115260Y219431D01*
X115680Y220446D01*
X115823Y221535D01*
X115680Y222625D01*
X115260Y223640D01*
X114591Y224512D01*
X113719Y225181D01*
X112704Y225601D01*
X111614Y225745D01*
D02*
G37*
G36*
X151614Y210422D02*
X149004Y207812D01*
X149323Y207567D01*
X150428Y207109D01*
X151614Y206953D01*
X152800Y207109D01*
X153905Y207567D01*
X154225Y207812D01*
X151614Y210422D01*
D02*
G37*
G36*
X51614D02*
X49004Y207812D01*
X49323Y207567D01*
X50428Y207109D01*
X51614Y206953D01*
X52800Y207109D01*
X53905Y207567D01*
X54224Y207812D01*
X51614Y210422D01*
D02*
G37*
G36*
X185889Y284697D02*
X183279Y282087D01*
X185889Y279476D01*
X186134Y279795D01*
X186592Y280901D01*
X186748Y282087D01*
X186592Y283273D01*
X186134Y284378D01*
X185889Y284697D01*
D02*
G37*
G36*
Y304697D02*
X183279Y302087D01*
X185889Y299476D01*
X186134Y299795D01*
X186592Y300901D01*
X186748Y302087D01*
X186592Y303273D01*
X186134Y304378D01*
X185889Y304697D01*
D02*
G37*
G36*
X172165Y276296D02*
X171076Y276152D01*
X170061Y275732D01*
X169189Y275063D01*
X168520Y274191D01*
X168100Y273176D01*
X167956Y272087D01*
X168100Y270997D01*
X168520Y269982D01*
X169189Y269110D01*
X170061Y268441D01*
X171076Y268021D01*
X172165Y267877D01*
X173255Y268021D01*
X174270Y268441D01*
X175142Y269110D01*
X175811Y269982D01*
X176231Y270997D01*
X176375Y272087D01*
X176231Y273176D01*
X175811Y274191D01*
X175142Y275063D01*
X174270Y275732D01*
X173255Y276152D01*
X172165Y276296D01*
D02*
G37*
G36*
Y286296D02*
X171076Y286153D01*
X170061Y285732D01*
X169189Y285063D01*
X168520Y284191D01*
X168100Y283176D01*
X167956Y282087D01*
X168100Y280997D01*
X168520Y279982D01*
X169189Y279110D01*
X170061Y278441D01*
X171076Y278021D01*
X172165Y277877D01*
X173255Y278021D01*
X174270Y278441D01*
X175142Y279110D01*
X175811Y279982D01*
X176160Y280826D01*
X176627Y280972D01*
X177457Y280919D01*
X177788Y280783D01*
X178197Y279795D01*
X178442Y279476D01*
X181052Y282087D01*
X178442Y284697D01*
X178197Y284378D01*
X177788Y283390D01*
X177457Y283255D01*
X176627Y283201D01*
X176160Y283347D01*
X175811Y284191D01*
X175142Y285063D01*
X174270Y285732D01*
X173255Y286153D01*
X172165Y286296D01*
D02*
G37*
G36*
X182165Y360973D02*
X179555Y358363D01*
X179874Y358118D01*
X180862Y357709D01*
X180997Y357378D01*
X181051Y356548D01*
X180905Y356082D01*
X180061Y355732D01*
X179189Y355063D01*
X178520Y354191D01*
X178100Y353176D01*
X177956Y352087D01*
X178100Y350997D01*
X178520Y349982D01*
X179189Y349110D01*
X180061Y348441D01*
X180905Y348092D01*
X181051Y347625D01*
X180997Y346795D01*
X180862Y346464D01*
X179874Y346055D01*
X179555Y345811D01*
X182165Y343200D01*
X184776Y345811D01*
X184457Y346055D01*
X183469Y346464D01*
X183333Y346795D01*
X183280Y347625D01*
X183426Y348092D01*
X184270Y348441D01*
X185142Y349110D01*
X185811Y349982D01*
X186231Y350997D01*
X186375Y352087D01*
X186231Y353176D01*
X185811Y354191D01*
X185142Y355063D01*
X184270Y355732D01*
X183426Y356082D01*
X183280Y356548D01*
X183333Y357378D01*
X183469Y357709D01*
X184457Y358118D01*
X184776Y358363D01*
X182165Y360973D01*
D02*
G37*
G36*
X185889Y364697D02*
X183279Y362087D01*
X185889Y359476D01*
X186134Y359795D01*
X186592Y360901D01*
X186748Y362087D01*
X186592Y363273D01*
X186134Y364378D01*
X185889Y364697D01*
D02*
G37*
G36*
Y324697D02*
X183279Y322087D01*
X185889Y319476D01*
X186134Y319795D01*
X186592Y320901D01*
X186748Y322087D01*
X186592Y323273D01*
X186134Y324378D01*
X185889Y324697D01*
D02*
G37*
G36*
Y344697D02*
X183279Y342087D01*
X185889Y339476D01*
X186134Y339795D01*
X186592Y340901D01*
X186748Y342087D01*
X186592Y343273D01*
X186134Y344378D01*
X185889Y344697D01*
D02*
G37*
G36*
X182165Y280973D02*
X179555Y278363D01*
X179874Y278118D01*
X180862Y277709D01*
X180997Y277378D01*
X181051Y276548D01*
X180905Y276082D01*
X180061Y275732D01*
X179189Y275063D01*
X178520Y274191D01*
X178100Y273176D01*
X177956Y272087D01*
X178100Y270997D01*
X178520Y269982D01*
X179189Y269110D01*
X180061Y268441D01*
X180905Y268092D01*
X181051Y267625D01*
X180997Y266795D01*
X180862Y266464D01*
X179874Y266055D01*
X179555Y265810D01*
X182165Y263200D01*
X184776Y265810D01*
X184457Y266055D01*
X183469Y266464D01*
X183333Y266795D01*
X183280Y267625D01*
X183426Y268092D01*
X184270Y268441D01*
X185142Y269110D01*
X185811Y269982D01*
X186231Y270997D01*
X186375Y272087D01*
X186231Y273176D01*
X185811Y274191D01*
X185142Y275063D01*
X184270Y275732D01*
X183426Y276082D01*
X183280Y276548D01*
X183333Y277378D01*
X183469Y277709D01*
X184457Y278118D01*
X184776Y278363D01*
X182165Y280973D01*
D02*
G37*
G36*
X172165Y246296D02*
X171076Y246152D01*
X170061Y245732D01*
X169189Y245063D01*
X168520Y244191D01*
X168100Y243176D01*
X167956Y242087D01*
X168100Y240997D01*
X168520Y239982D01*
X169189Y239110D01*
X170061Y238441D01*
X171076Y238021D01*
X172165Y237877D01*
X173255Y238021D01*
X174270Y238441D01*
X175142Y239110D01*
X175811Y239982D01*
X176160Y240826D01*
X176627Y240972D01*
X177457Y240919D01*
X177788Y240783D01*
X178197Y239795D01*
X178442Y239476D01*
X181052Y242087D01*
X178442Y244697D01*
X178197Y244378D01*
X177788Y243390D01*
X177457Y243255D01*
X176627Y243201D01*
X176160Y243347D01*
X175811Y244191D01*
X175142Y245063D01*
X174270Y245732D01*
X173255Y246152D01*
X172165Y246296D01*
D02*
G37*
G36*
X185889Y244697D02*
X183279Y242087D01*
X185889Y239476D01*
X186134Y239795D01*
X186592Y240901D01*
X186748Y242087D01*
X186592Y243273D01*
X186134Y244378D01*
X185889Y244697D01*
D02*
G37*
G36*
X182165Y240973D02*
X179555Y238363D01*
X179874Y238118D01*
X180862Y237709D01*
X180997Y237378D01*
X181051Y236548D01*
X180905Y236082D01*
X180061Y235732D01*
X179189Y235063D01*
X178520Y234191D01*
X178100Y233176D01*
X177956Y232087D01*
X178100Y230997D01*
X178520Y229982D01*
X179189Y229110D01*
X180061Y228441D01*
X181076Y228021D01*
X182165Y227877D01*
X183255Y228021D01*
X184270Y228441D01*
X185142Y229110D01*
X185811Y229982D01*
X186231Y230997D01*
X186375Y232087D01*
X186231Y233176D01*
X185811Y234191D01*
X185142Y235063D01*
X184270Y235732D01*
X183426Y236082D01*
X183280Y236548D01*
X183333Y237378D01*
X183469Y237709D01*
X184457Y238118D01*
X184776Y238363D01*
X182165Y240973D01*
D02*
G37*
G36*
X176339Y236260D02*
X167992D01*
Y227913D01*
X176339D01*
Y236260D01*
D02*
G37*
G36*
X172165Y266296D02*
X171076Y266153D01*
X170061Y265732D01*
X169189Y265063D01*
X168520Y264191D01*
X168100Y263176D01*
X167956Y262087D01*
X168100Y260997D01*
X168520Y259982D01*
X169189Y259110D01*
X170061Y258441D01*
X171076Y258021D01*
X172165Y257877D01*
X173255Y258021D01*
X174270Y258441D01*
X175142Y259110D01*
X175811Y259982D01*
X176160Y260826D01*
X176627Y260972D01*
X177457Y260919D01*
X177788Y260783D01*
X178197Y259795D01*
X178442Y259476D01*
X181052Y262087D01*
X178442Y264697D01*
X178197Y264378D01*
X177788Y263390D01*
X177457Y263255D01*
X176627Y263201D01*
X176160Y263347D01*
X175811Y264191D01*
X175142Y265063D01*
X174270Y265732D01*
X173255Y266153D01*
X172165Y266296D01*
D02*
G37*
G36*
X185889Y264697D02*
X183279Y262087D01*
X185889Y259476D01*
X186134Y259795D01*
X186592Y260901D01*
X186748Y262087D01*
X186592Y263273D01*
X186134Y264378D01*
X185889Y264697D01*
D02*
G37*
G36*
X182165Y260973D02*
X179555Y258363D01*
X179874Y258118D01*
X180862Y257709D01*
X180997Y257378D01*
X181051Y256548D01*
X180905Y256082D01*
X180061Y255732D01*
X179189Y255063D01*
X178520Y254191D01*
X178100Y253176D01*
X177956Y252087D01*
X178100Y250997D01*
X178520Y249982D01*
X179189Y249110D01*
X180061Y248441D01*
X180905Y248092D01*
X181051Y247625D01*
X180997Y246795D01*
X180862Y246464D01*
X179874Y246055D01*
X179555Y245811D01*
X182165Y243200D01*
X184776Y245811D01*
X184457Y246055D01*
X183469Y246464D01*
X183333Y246795D01*
X183280Y247625D01*
X183426Y248092D01*
X184270Y248441D01*
X185142Y249110D01*
X185811Y249982D01*
X186231Y250997D01*
X186375Y252087D01*
X186231Y253176D01*
X185811Y254191D01*
X185142Y255063D01*
X184270Y255732D01*
X183426Y256082D01*
X183280Y256548D01*
X183333Y257378D01*
X183469Y257709D01*
X184457Y258118D01*
X184776Y258363D01*
X182165Y260973D01*
D02*
G37*
G36*
X172165Y256296D02*
X171076Y256153D01*
X170061Y255732D01*
X169189Y255063D01*
X168520Y254191D01*
X168100Y253176D01*
X167956Y252087D01*
X168100Y250997D01*
X168520Y249982D01*
X169189Y249110D01*
X170061Y248441D01*
X171076Y248021D01*
X172165Y247877D01*
X173255Y248021D01*
X174270Y248441D01*
X175142Y249110D01*
X175811Y249982D01*
X176231Y250997D01*
X176375Y252087D01*
X176231Y253176D01*
X175811Y254191D01*
X175142Y255063D01*
X174270Y255732D01*
X173255Y256153D01*
X172165Y256296D01*
D02*
G37*
%LPD*%
D10*
X353543Y153543D02*
D03*
X347244D02*
D03*
X353543Y145669D02*
D03*
X347244D02*
D03*
X353543Y137795D02*
D03*
X347244D02*
D03*
X353543Y129921D02*
D03*
X347244D02*
D03*
X353543Y122047D02*
D03*
X347244D02*
D03*
X353543Y114173D02*
D03*
X347244D02*
D03*
X353543Y106299D02*
D03*
X347244D02*
D03*
X353543Y98425D02*
D03*
X347244D02*
D03*
X335827Y83465D02*
D03*
X329528D02*
D03*
X335827Y75591D02*
D03*
X329528D02*
D03*
X335827Y67717D02*
D03*
X329528D02*
D03*
X345276Y83465D02*
D03*
X351575D02*
D03*
X345276Y75591D02*
D03*
X351575D02*
D03*
X345276Y67717D02*
D03*
X351575D02*
D03*
X296063Y62992D02*
D03*
X289764D02*
D03*
X258268D02*
D03*
X264567D02*
D03*
X280315Y141732D02*
D03*
X274016D02*
D03*
X289665D02*
D03*
X295965D02*
D03*
X353543Y350394D02*
D03*
X347244D02*
D03*
X353543Y342520D02*
D03*
X347244D02*
D03*
X353543Y334646D02*
D03*
X347244D02*
D03*
X353543Y326772D02*
D03*
X347244D02*
D03*
X353543Y318898D02*
D03*
X347244D02*
D03*
X353543Y311024D02*
D03*
X347244D02*
D03*
X353543Y303150D02*
D03*
X347244D02*
D03*
X353543Y295276D02*
D03*
X347244D02*
D03*
X335827Y280315D02*
D03*
X329528D02*
D03*
X335827Y272441D02*
D03*
X329528D02*
D03*
X335827Y264567D02*
D03*
X329528D02*
D03*
X345276Y280315D02*
D03*
X351575D02*
D03*
X345276Y272441D02*
D03*
X351575D02*
D03*
X345276Y264567D02*
D03*
X351575D02*
D03*
X296063Y259843D02*
D03*
X289764D02*
D03*
X258268D02*
D03*
X264567D02*
D03*
X280315Y338583D02*
D03*
X274016D02*
D03*
X289665D02*
D03*
X295965D02*
D03*
D11*
X299213Y72244D02*
D03*
X296063D02*
D03*
X292913D02*
D03*
X289764D02*
D03*
X286614D02*
D03*
X283465D02*
D03*
X280315D02*
D03*
X277165D02*
D03*
X274016D02*
D03*
X270866D02*
D03*
X267717D02*
D03*
X264567D02*
D03*
X261417D02*
D03*
X258268D02*
D03*
X255118D02*
D03*
X251969D02*
D03*
Y132480D02*
D03*
X255118D02*
D03*
X258268D02*
D03*
X261417D02*
D03*
X264567D02*
D03*
X267717D02*
D03*
X270866D02*
D03*
X274016D02*
D03*
X277165D02*
D03*
X280315D02*
D03*
X283465D02*
D03*
X286614D02*
D03*
X289764D02*
D03*
X292913D02*
D03*
X296063D02*
D03*
X299213D02*
D03*
Y269095D02*
D03*
X296063D02*
D03*
X292913D02*
D03*
X289764D02*
D03*
X286614D02*
D03*
X283465D02*
D03*
X280315D02*
D03*
X277165D02*
D03*
X274016D02*
D03*
X270866D02*
D03*
X267717D02*
D03*
X264567D02*
D03*
X261417D02*
D03*
X258268D02*
D03*
X255118D02*
D03*
X251969D02*
D03*
Y329331D02*
D03*
X255118D02*
D03*
X258268D02*
D03*
X261417D02*
D03*
X264567D02*
D03*
X267717D02*
D03*
X270866D02*
D03*
X274016D02*
D03*
X277165D02*
D03*
X280315D02*
D03*
X283465D02*
D03*
X286614D02*
D03*
X289764D02*
D03*
X292913D02*
D03*
X296063D02*
D03*
X299213D02*
D03*
D12*
X245473Y78740D02*
D03*
Y81890D02*
D03*
Y85039D02*
D03*
Y88189D02*
D03*
Y91339D02*
D03*
Y94488D02*
D03*
Y97638D02*
D03*
Y100787D02*
D03*
Y103937D02*
D03*
Y107087D02*
D03*
Y110236D02*
D03*
Y113386D02*
D03*
Y116535D02*
D03*
Y119685D02*
D03*
Y122835D02*
D03*
Y125984D02*
D03*
X305709D02*
D03*
Y122835D02*
D03*
Y119685D02*
D03*
Y116535D02*
D03*
Y113386D02*
D03*
Y110236D02*
D03*
Y107087D02*
D03*
Y103937D02*
D03*
Y100787D02*
D03*
Y97638D02*
D03*
Y94488D02*
D03*
Y91339D02*
D03*
Y88189D02*
D03*
Y85039D02*
D03*
Y81890D02*
D03*
Y78740D02*
D03*
X245473Y275591D02*
D03*
Y278740D02*
D03*
Y281890D02*
D03*
Y285039D02*
D03*
Y288189D02*
D03*
Y291339D02*
D03*
Y294488D02*
D03*
Y297638D02*
D03*
Y300787D02*
D03*
Y303937D02*
D03*
Y307087D02*
D03*
Y310236D02*
D03*
Y313386D02*
D03*
Y316535D02*
D03*
Y319685D02*
D03*
Y322835D02*
D03*
X305709D02*
D03*
Y319685D02*
D03*
Y316535D02*
D03*
Y313386D02*
D03*
Y310236D02*
D03*
Y307087D02*
D03*
Y303937D02*
D03*
Y300787D02*
D03*
Y297638D02*
D03*
Y294488D02*
D03*
Y291339D02*
D03*
Y288189D02*
D03*
Y285039D02*
D03*
Y281890D02*
D03*
Y278740D02*
D03*
Y275591D02*
D03*
D13*
X290390Y49213D02*
D03*
X273461D02*
D03*
X290390Y246063D02*
D03*
X273461D02*
D03*
D14*
X279921Y165354D02*
D03*
Y362205D02*
D03*
D15*
X302756Y174409D02*
D03*
Y165354D02*
D03*
Y156299D02*
D03*
Y371260D02*
D03*
Y362205D02*
D03*
Y353150D02*
D03*
D16*
X244468Y155906D02*
D03*
X249468D02*
D03*
X254468D02*
D03*
X259469D02*
D03*
X244468Y174803D02*
D03*
X249468D02*
D03*
X254468D02*
D03*
X259469D02*
D03*
X244468Y352756D02*
D03*
X249468D02*
D03*
X254468D02*
D03*
X259469D02*
D03*
X244468Y371654D02*
D03*
X249468D02*
D03*
X254468D02*
D03*
X259469D02*
D03*
D17*
X278346Y30315D02*
D03*
Y36614D02*
D03*
X236221Y94488D02*
D03*
Y88189D02*
D03*
Y125984D02*
D03*
Y119685D02*
D03*
X314961Y118406D02*
D03*
Y124705D02*
D03*
X263386Y46063D02*
D03*
Y52362D02*
D03*
X300394Y46063D02*
D03*
Y52362D02*
D03*
X285433Y30315D02*
D03*
Y36614D02*
D03*
X325197Y137303D02*
D03*
Y143602D02*
D03*
X331299Y143602D02*
D03*
Y137303D02*
D03*
X278346Y227165D02*
D03*
Y233465D02*
D03*
X236221Y291339D02*
D03*
Y285039D02*
D03*
Y322835D02*
D03*
Y316535D02*
D03*
X314961Y315256D02*
D03*
Y321555D02*
D03*
X263386Y242914D02*
D03*
Y249213D02*
D03*
X300394Y242914D02*
D03*
Y249213D02*
D03*
X285433Y227165D02*
D03*
Y233465D02*
D03*
X325197Y334154D02*
D03*
Y340453D02*
D03*
X331299Y340453D02*
D03*
Y334154D02*
D03*
X61417Y134646D02*
D03*
Y140945D02*
D03*
X100787Y134646D02*
D03*
Y140945D02*
D03*
Y107087D02*
D03*
Y113386D02*
D03*
Y79528D02*
D03*
Y85827D02*
D03*
X61417Y79528D02*
D03*
Y85827D02*
D03*
Y107087D02*
D03*
Y113386D02*
D03*
X140157Y134646D02*
D03*
Y140945D02*
D03*
Y107087D02*
D03*
Y113386D02*
D03*
Y79528D02*
D03*
Y85827D02*
D03*
X61417Y331496D02*
D03*
Y337795D02*
D03*
X100787Y331496D02*
D03*
Y337795D02*
D03*
Y303937D02*
D03*
Y310236D02*
D03*
Y276378D02*
D03*
Y282677D02*
D03*
X61417Y276378D02*
D03*
Y282677D02*
D03*
Y303937D02*
D03*
Y310236D02*
D03*
X140157Y331496D02*
D03*
Y337795D02*
D03*
Y303937D02*
D03*
Y310236D02*
D03*
Y276378D02*
D03*
Y282677D02*
D03*
D18*
X328740Y157480D02*
D03*
X316929D02*
D03*
X328740Y173228D02*
D03*
X316929D02*
D03*
X328740Y354331D02*
D03*
X316929D02*
D03*
X328740Y370079D02*
D03*
X316929D02*
D03*
D19*
Y172047D02*
Y173228D01*
Y172047D02*
X320571Y168406D01*
Y148228D02*
Y168406D01*
Y148228D02*
X325197Y143602D01*
X305709Y88189D02*
X331398D01*
Y132480D02*
Y137303D01*
X331398Y137303D02*
X331398Y137303D01*
X325197Y137303D02*
X331398D01*
X338386Y144685D02*
X347244Y153543D01*
X338386Y130118D02*
Y144685D01*
X329837Y121569D02*
X338386Y130118D01*
X340650Y139075D02*
X347244Y145669D01*
X340650Y129331D02*
Y139075D01*
X331939Y120620D02*
X340650Y129331D01*
X323524Y115256D02*
X329837Y121569D01*
X311811Y115256D02*
X323524D01*
X324606Y113287D02*
X331939Y120620D01*
X305807Y113287D02*
X324606D01*
X305709Y110236D02*
X324775D01*
X342618Y128079D01*
Y133169D01*
X347244Y137795D01*
X233366Y107087D02*
X245473D01*
X231890Y108563D02*
X233366Y107087D01*
X233563Y110532D02*
X245177D01*
X245473Y110236D01*
X231004Y113091D02*
X233563Y110532D01*
X229035Y107804D02*
X232902Y103937D01*
X227067Y106988D02*
X233268Y100787D01*
X229035Y107804D02*
Y126378D01*
X232902Y103937D02*
X245473D01*
X227067Y106988D02*
Y119705D01*
X233268Y100787D02*
X245473D01*
X229331Y101378D02*
X236221Y94488D01*
X227362Y101378D02*
X229331D01*
X313484Y119685D02*
X314961Y118209D01*
Y118406D02*
X316043D01*
X231004Y113091D02*
Y135768D01*
X254468Y174803D02*
Y180965D01*
X244685Y190748D02*
X254468Y180965D01*
X217047Y190748D02*
X244685D01*
X251378Y166142D02*
X254468Y169232D01*
X239665Y166142D02*
X251378D01*
X235531Y170276D02*
X239665Y166142D01*
X216496Y170276D02*
X235531D01*
X211536Y185236D02*
X217047Y190748D01*
X249468Y174803D02*
Y181142D01*
X245374Y185236D02*
X249468Y181142D01*
X221535Y185236D02*
X245374D01*
X249468Y171122D02*
Y174803D01*
X246949Y168602D02*
X249468Y171122D01*
X241957Y168602D02*
X246949D01*
X235323Y175236D02*
X241957Y168602D01*
X221535Y175236D02*
X235323D01*
X254468Y169232D02*
Y174803D01*
X211536Y175236D02*
X216496Y170276D01*
X286319Y124508D02*
X286614Y124803D01*
X270866Y124508D02*
Y132480D01*
X267717Y124508D02*
Y132480D01*
X264567Y124508D02*
X264567Y124508D01*
X292913Y124508D02*
Y132480D01*
X296063Y124508D02*
Y132480D01*
X295276Y98425D02*
X299213Y102362D01*
X299606Y102756D01*
Y132087D01*
X289764Y124508D02*
Y132480D01*
X299213D02*
X299606Y132087D01*
X286319Y124508D02*
X286614D01*
X264567Y124508D02*
Y132480D01*
X245473Y113386D02*
X253445D01*
X245473Y116535D02*
X253445D01*
X225256Y130157D02*
X229035Y126378D01*
X219497Y130157D02*
X225256D01*
X221535Y145236D02*
X231004Y135768D01*
X231496Y78740D02*
X245473D01*
X226457Y83780D02*
X231496Y78740D01*
X226457Y83780D02*
Y87275D01*
X208720Y80158D02*
X226212D01*
X206102Y82776D02*
X208720Y80158D01*
X206102Y82776D02*
Y96763D01*
X216614Y120315D02*
Y127275D01*
X211536Y115236D02*
X216614Y120315D01*
Y127275D02*
X219497Y130157D01*
X221535Y125236D02*
X227067Y119705D01*
X209497Y100158D02*
X216457D01*
X206102Y96763D02*
X209497Y100158D01*
X243209Y72244D02*
X251969D01*
X238681Y76772D02*
X243209Y72244D01*
X229598Y76772D02*
X238681D01*
X226212Y80158D02*
X229598Y76772D01*
X216457Y100158D02*
X221535Y105236D01*
X211536Y95236D02*
X216614Y90158D01*
X231791Y81890D02*
X245473D01*
X228425Y85256D02*
X231791Y81890D01*
X228425Y85256D02*
Y88346D01*
X221535Y95236D02*
X228425Y88346D01*
X216614Y90158D02*
X223574D01*
X226457Y87275D01*
X305709Y94488D02*
X343307D01*
X347244Y98425D01*
X305709Y97638D02*
X338583D01*
X347244Y106299D01*
X305709Y100787D02*
X333858D01*
X347244Y114173D01*
X305709Y103937D02*
X329134D01*
X347244Y122047D01*
X324410Y107087D02*
X347244Y129921D01*
X305709Y107087D02*
X324410D01*
X305709Y113386D02*
X305807Y113287D01*
X310531Y116535D02*
X311811Y115256D01*
X305709Y116535D02*
X310531D01*
X305709Y119685D02*
X313484D01*
X328740Y66929D02*
X329528Y67717D01*
X298425Y66929D02*
X328740D01*
X324803Y78740D02*
X329528Y83465D01*
X326181Y72244D02*
X329528Y75591D01*
X299213Y72244D02*
X326181D01*
X305709Y78740D02*
X324803D01*
X242520Y125984D02*
X245473D01*
X239764Y128740D02*
X242520Y125984D01*
X239764Y128740D02*
Y161417D01*
X241732Y163386D01*
X247244D01*
X249468Y161161D01*
Y155906D02*
Y161161D01*
Y155906D02*
X254468D01*
X255118Y132480D02*
Y140945D01*
X259469Y145295D01*
Y155906D01*
X244468Y148839D02*
Y155906D01*
Y148839D02*
X251969Y141339D01*
Y132480D02*
Y141339D01*
X315748Y174409D02*
X316929Y173228D01*
X245473Y97638D02*
X249213D01*
X286614Y124803D02*
Y132480D01*
X305709Y125984D02*
Y132480D01*
X307087Y133858D01*
X249213Y97638D02*
X255906Y90945D01*
X250787Y80709D02*
X253150Y78347D01*
X259449D02*
X263780Y82677D01*
X253150Y78347D02*
X259449D01*
X255906Y82677D02*
Y90945D01*
X251969Y72244D02*
Y74410D01*
X281161Y65020D02*
X283071Y66929D01*
Y71851D01*
X283465Y72244D01*
X280315Y66957D02*
Y72244D01*
X279193Y65835D02*
X280315Y66957D01*
X273461Y49213D02*
Y50626D01*
X279193Y56358D01*
Y65835D01*
X281161Y59390D02*
Y65020D01*
Y59390D02*
X290390Y50161D01*
Y49213D02*
Y50161D01*
X277165Y61024D02*
Y72244D01*
X272047Y55906D02*
X277165Y61024D01*
X260236Y55906D02*
X272047D01*
X258661Y54331D02*
X260236Y55906D01*
X258661Y42520D02*
Y54331D01*
X274016Y60658D02*
Y72244D01*
X271232Y57874D02*
X274016Y60658D01*
X259421Y57874D02*
X271232D01*
X256693Y55146D02*
X259421Y57874D01*
X256693Y41704D02*
Y55146D01*
X258661Y42520D02*
X264567Y36614D01*
X278346D01*
X278346Y36614D01*
X285433D02*
X296142D01*
X287008Y57874D02*
X314173D01*
X285039Y59843D02*
X287008Y57874D01*
X285039Y59843D02*
Y62599D01*
X278346Y36614D02*
X285433D01*
X314173Y57874D02*
X329528Y42520D01*
X323228Y19528D02*
X329528Y25827D01*
Y42520D01*
X296142Y36614D02*
X303228Y29528D01*
X256693Y41704D02*
X264933Y33465D01*
X290551D01*
X299213Y24803D01*
X318504D01*
X323228Y29528D01*
X278346Y22047D02*
Y30315D01*
Y22047D02*
X289764Y10630D01*
X314331D01*
X323228Y19528D01*
X296063Y69291D02*
Y72244D01*
Y69291D02*
X298425Y66929D01*
X335827Y67717D02*
X345276D01*
X335827Y75591D02*
X345276D01*
X335827Y83465D02*
X345276D01*
X293539Y52362D02*
X300394D01*
X290390Y49213D02*
X293539Y52362D01*
X263386D02*
X270311D01*
X273461Y49213D01*
X277165Y132480D02*
Y138583D01*
X280315Y141732D01*
X239370Y122835D02*
X245473D01*
X236221Y125984D02*
X239370Y122835D01*
X239370Y91339D02*
X245473D01*
X236221Y94488D02*
X239370Y91339D01*
X261417Y66142D02*
Y72244D01*
X258268Y62992D02*
X261417Y66142D01*
X245473Y94488D02*
X248721D01*
X250787Y92421D01*
Y80709D02*
Y92421D01*
X295965Y141732D02*
Y142225D01*
X288189Y150000D02*
X295965Y142225D01*
X280315Y132480D02*
X283465D01*
X284941Y141732D02*
X289665D01*
X283465Y140256D02*
X284941Y141732D01*
X283465Y132480D02*
Y140256D01*
X316929Y368898D02*
Y370079D01*
Y368898D02*
X320571Y365256D01*
Y345079D02*
Y365256D01*
Y345079D02*
X325197Y340453D01*
X305709Y285039D02*
X331398D01*
Y329331D02*
Y334154D01*
X331398Y334154D02*
X331398Y334154D01*
X325197Y334154D02*
X331398D01*
X338386Y341535D02*
X347244Y350394D01*
X338386Y326969D02*
Y341535D01*
X329837Y318420D02*
X338386Y326969D01*
X340650Y335925D02*
X347244Y342520D01*
X340650Y326181D02*
Y335925D01*
X331939Y317471D02*
X340650Y326181D01*
X323524Y312106D02*
X329837Y318420D01*
X311811Y312106D02*
X323524D01*
X324606Y310138D02*
X331939Y317471D01*
X305807Y310138D02*
X324606D01*
X305709Y307087D02*
X324775D01*
X342618Y324930D01*
Y330020D01*
X347244Y334646D01*
X233366Y303937D02*
X245473D01*
X231890Y305414D02*
X233366Y303937D01*
X233563Y307382D02*
X245177D01*
X245473Y307087D01*
X231004Y309941D02*
X233563Y307382D01*
X229035Y304654D02*
X232902Y300787D01*
X227067Y303839D02*
X233268Y297638D01*
X229035Y304654D02*
Y323228D01*
X232902Y300787D02*
X245473D01*
X227067Y303839D02*
Y316555D01*
X233268Y297638D02*
X245473D01*
X229331Y298228D02*
X236221Y291339D01*
X227362Y298228D02*
X229331D01*
X313484Y316535D02*
X314961Y315059D01*
Y315256D02*
X316043D01*
X231004Y309941D02*
Y332618D01*
X254468Y371654D02*
Y377815D01*
X244685Y387598D02*
X254468Y377815D01*
X217047Y387598D02*
X244685D01*
X251378Y362992D02*
X254468Y366083D01*
X239665Y362992D02*
X251378D01*
X235531Y367126D02*
X239665Y362992D01*
X216496Y367126D02*
X235531D01*
X211536Y382087D02*
X217047Y387598D01*
X249468Y371654D02*
Y377992D01*
X245374Y382087D02*
X249468Y377992D01*
X221535Y382087D02*
X245374D01*
X249468Y367972D02*
Y371654D01*
X246949Y365453D02*
X249468Y367972D01*
X241957Y365453D02*
X246949D01*
X235323Y372087D02*
X241957Y365453D01*
X221535Y372087D02*
X235323D01*
X254468Y366083D02*
Y371654D01*
X211536Y372087D02*
X216496Y367126D01*
X286319Y321358D02*
X286614Y321654D01*
X270866Y321358D02*
Y329331D01*
X267717Y321358D02*
Y329331D01*
X264567Y321358D02*
X264567Y321358D01*
X292913Y321358D02*
Y329331D01*
X296063Y321358D02*
Y329331D01*
X295276Y295276D02*
X299213Y299213D01*
X299606Y299606D01*
Y328937D01*
X289764Y321358D02*
Y329331D01*
X299213D02*
X299606Y328937D01*
X286319Y321358D02*
X286614D01*
X264567Y321358D02*
Y329331D01*
X245473Y310236D02*
X253445D01*
X245473Y313386D02*
X253445D01*
X225256Y327008D02*
X229035Y323228D01*
X219497Y327008D02*
X225256D01*
X221535Y342087D02*
X231004Y332618D01*
X231496Y275591D02*
X245473D01*
X226457Y280630D02*
X231496Y275591D01*
X226457Y280630D02*
Y284125D01*
X208720Y277008D02*
X226212D01*
X206102Y279626D02*
X208720Y277008D01*
X206102Y279626D02*
Y293613D01*
X216614Y317165D02*
Y324125D01*
X211536Y312087D02*
X216614Y317165D01*
Y324125D02*
X219497Y327008D01*
X221535Y322087D02*
X227067Y316555D01*
X209497Y297008D02*
X216457D01*
X206102Y293613D02*
X209497Y297008D01*
X243209Y269095D02*
X251969D01*
X238681Y273622D02*
X243209Y269095D01*
X229598Y273622D02*
X238681D01*
X226212Y277008D02*
X229598Y273622D01*
X216457Y297008D02*
X221535Y302087D01*
X211536Y292087D02*
X216614Y287008D01*
X231791Y278740D02*
X245473D01*
X228425Y282106D02*
X231791Y278740D01*
X228425Y282106D02*
Y285197D01*
X221535Y292087D02*
X228425Y285197D01*
X216614Y287008D02*
X223574D01*
X226457Y284125D01*
X305709Y291339D02*
X343307D01*
X347244Y295276D01*
X305709Y294488D02*
X338583D01*
X347244Y303150D01*
X305709Y297638D02*
X333858D01*
X347244Y311024D01*
X305709Y300787D02*
X329134D01*
X347244Y318898D01*
X324410Y303937D02*
X347244Y326772D01*
X305709Y303937D02*
X324410D01*
X305709Y310236D02*
X305807Y310138D01*
X310531Y313386D02*
X311811Y312106D01*
X305709Y313386D02*
X310531D01*
X305709Y316535D02*
X313484D01*
X328740Y263780D02*
X329528Y264567D01*
X298425Y263780D02*
X328740D01*
X324803Y275591D02*
X329528Y280315D01*
X326181Y269095D02*
X329528Y272441D01*
X299213Y269095D02*
X326181D01*
X305709Y275591D02*
X324803D01*
X242520Y322835D02*
X245473D01*
X239764Y325591D02*
X242520Y322835D01*
X239764Y325591D02*
Y358268D01*
X241732Y360236D01*
X247244D01*
X249468Y358012D01*
Y352756D02*
Y358012D01*
Y352756D02*
X254468D01*
X255118Y329331D02*
Y337795D01*
X259469Y342146D01*
Y352756D01*
X244468Y345689D02*
Y352756D01*
Y345689D02*
X251969Y338189D01*
Y329331D02*
Y338189D01*
X315748Y371260D02*
X316929Y370079D01*
X245473Y294488D02*
X249213D01*
X286614Y321654D02*
Y329331D01*
X305709Y322835D02*
Y329331D01*
X307087Y330709D01*
X249213Y294488D02*
X255906Y287795D01*
X250787Y277559D02*
X253150Y275197D01*
X259449D02*
X263780Y279528D01*
X253150Y275197D02*
X259449D01*
X255906Y279528D02*
Y287795D01*
X251969Y269095D02*
Y271260D01*
X281161Y261870D02*
X283071Y263780D01*
Y268701D01*
X283465Y269095D01*
X280315Y263808D02*
Y269095D01*
X279193Y262685D02*
X280315Y263808D01*
X273461Y246063D02*
Y247477D01*
X279193Y253209D01*
Y262685D01*
X281161Y256240D02*
Y261870D01*
Y256240D02*
X290390Y247012D01*
Y246063D02*
Y247012D01*
X277165Y257874D02*
Y269095D01*
X272047Y252756D02*
X277165Y257874D01*
X260236Y252756D02*
X272047D01*
X258661Y251181D02*
X260236Y252756D01*
X258661Y239370D02*
Y251181D01*
X274016Y257508D02*
Y269095D01*
X271232Y254725D02*
X274016Y257508D01*
X259421Y254725D02*
X271232D01*
X256693Y251996D02*
X259421Y254725D01*
X256693Y238555D02*
Y251996D01*
X258661Y239370D02*
X264567Y233465D01*
X278346D01*
X278346Y233465D01*
X285433D02*
X296142D01*
X287008Y254725D02*
X314173D01*
X285039Y256693D02*
X287008Y254725D01*
X285039Y256693D02*
Y259449D01*
X278346Y233465D02*
X285433D01*
X314173Y254725D02*
X329528Y239370D01*
X323228Y216378D02*
X329528Y222677D01*
Y239370D01*
X296142Y233465D02*
X303228Y226378D01*
X256693Y238555D02*
X264933Y230315D01*
X290551D01*
X299213Y221654D01*
X318504D01*
X323228Y226378D01*
X278346Y218898D02*
Y227165D01*
Y218898D02*
X289764Y207480D01*
X314331D01*
X323228Y216378D01*
X296063Y266142D02*
Y269095D01*
Y266142D02*
X298425Y263780D01*
X335827Y264567D02*
X345276D01*
X335827Y272441D02*
X345276D01*
X335827Y280315D02*
X345276D01*
X293539Y249213D02*
X300394D01*
X290390Y246063D02*
X293539Y249213D01*
X263386D02*
X270311D01*
X273461Y246063D01*
X277165Y329331D02*
Y335433D01*
X280315Y338583D01*
X239370Y319685D02*
X245473D01*
X236221Y322835D02*
X239370Y319685D01*
X239370Y288189D02*
X245473D01*
X236221Y291339D02*
X239370Y288189D01*
X261417Y262992D02*
Y269095D01*
X258268Y259843D02*
X261417Y262992D01*
X245473Y291339D02*
X248721D01*
X250787Y289272D01*
Y277559D02*
Y289272D01*
X295965Y338583D02*
Y339075D01*
X288189Y346850D02*
X295965Y339075D01*
X280315Y329331D02*
X283465D01*
X284941Y338583D02*
X289665D01*
X283465Y337106D02*
X284941Y338583D01*
X283465Y329331D02*
Y337106D01*
D20*
X228150Y96260D02*
X236221Y88189D01*
X228150Y96260D02*
Y96358D01*
X236221Y114665D02*
Y119685D01*
X316929Y126673D02*
Y130315D01*
X313091Y122835D02*
X316929Y126673D01*
X305709Y122835D02*
X313091D01*
X236221Y88189D02*
X245473D01*
X236221Y88189D02*
X236221Y88189D01*
X236221Y119685D02*
X245473D01*
X274016Y132480D02*
Y141732D01*
X274016Y141732D02*
X274016Y141732D01*
X289764Y62992D02*
Y72244D01*
X289764Y62992D02*
X289764Y62992D01*
X264567Y62992D02*
Y72244D01*
X279921Y165354D02*
X302756D01*
X309055D02*
X316929Y157480D01*
X302756Y165354D02*
X309055D01*
X302756Y174409D02*
X315748D01*
X274016Y141732D02*
Y158268D01*
X279921Y164173D01*
Y165354D01*
X259469Y174803D02*
X271654D01*
X279921Y166535D01*
Y165354D02*
Y166535D01*
Y165354D02*
X288189Y157087D01*
Y150000D02*
Y157087D01*
X316929Y130315D02*
Y157480D01*
X285039Y62599D02*
X289370D01*
X289764Y62992D01*
X264567D02*
X269685D01*
X228150Y293110D02*
X236221Y285039D01*
X228150Y293110D02*
Y293209D01*
X236221Y311516D02*
Y316535D01*
X316929Y323524D02*
Y327165D01*
X313091Y319685D02*
X316929Y323524D01*
X305709Y319685D02*
X313091D01*
X236221Y285039D02*
X245473D01*
X236221Y285039D02*
X236221Y285039D01*
X236221Y316535D02*
X245473D01*
X274016Y329331D02*
Y338583D01*
X274016Y338583D02*
X274016Y338583D01*
X289764Y259843D02*
Y269095D01*
X289764Y259843D02*
X289764Y259843D01*
X264567Y259843D02*
Y269095D01*
X279921Y362205D02*
X302756D01*
X309055D02*
X316929Y354331D01*
X302756Y362205D02*
X309055D01*
X302756Y371260D02*
X315748D01*
X274016Y338583D02*
Y355118D01*
X279921Y361024D01*
Y362205D01*
X259469Y371654D02*
X271654D01*
X279921Y363386D01*
Y362205D02*
Y363386D01*
Y362205D02*
X288189Y353937D01*
Y346850D02*
Y353937D01*
X316929Y327165D02*
Y354331D01*
X285039Y259449D02*
X289370D01*
X289764Y259843D01*
X264567D02*
X269685D01*
D21*
X301969Y175197D02*
Y183465D01*
Y175197D02*
X302756Y174409D01*
X301969Y372047D02*
Y380315D01*
Y372047D02*
X302756Y371260D01*
X61614Y24685D02*
Y52681D01*
X56614Y28740D02*
Y51222D01*
X34744Y73093D02*
X56614Y51222D01*
X39370Y74925D02*
X61614Y52681D01*
X39370Y74925D02*
Y82677D01*
X34744Y73093D02*
Y103839D01*
X51614Y24685D02*
Y49764D01*
X30118Y71260D02*
X51614Y49764D01*
X30118Y71260D02*
Y126673D01*
X41240Y137795D01*
X34744Y103839D02*
X41142Y110236D01*
X39370Y82677D02*
X43307D01*
X69606Y26693D02*
X71614Y24685D01*
X78740Y33073D02*
Y81595D01*
Y33073D02*
X81614Y30199D01*
Y24685D02*
Y30199D01*
X74173Y31181D02*
X76614Y28740D01*
X96654D02*
X113524Y45610D01*
Y103780D02*
X119882Y110138D01*
X113524Y45610D02*
Y103780D01*
X108957Y126575D02*
X119390Y137008D01*
X108957Y47502D02*
Y126575D01*
X91614Y30159D02*
X108957Y47502D01*
X118110Y82776D02*
X122441D01*
X118110Y43602D02*
Y82776D01*
X101614Y27106D02*
X118110Y43602D01*
X101614Y24685D02*
Y27106D01*
X91614Y24685D02*
Y30159D01*
X119882Y110138D02*
X122146D01*
X41142Y110236D02*
X43307D01*
X41240Y137795D02*
X43307D01*
X166772Y160630D02*
X172165Y155236D01*
X171378Y165236D02*
X172165D01*
X166772Y160630D02*
X171378Y165236D01*
X36614Y30709D02*
X41614Y25709D01*
Y24685D02*
Y25709D01*
X31614Y24685D02*
Y25709D01*
X36614Y30709D01*
Y50394D01*
X145276Y160630D02*
X166772D01*
X13780Y73228D02*
X36614Y50394D01*
X13780Y73228D02*
Y140551D01*
X56299Y183071D01*
X74173Y31181D02*
Y102126D01*
X82677Y110630D01*
X69606Y26693D02*
Y124724D01*
X82677Y137795D01*
X122835Y183071D02*
X145276Y160630D01*
X56299Y183071D02*
X122835D01*
X61614Y221535D02*
Y249531D01*
X56614Y225591D02*
Y248073D01*
X34744Y269943D02*
X56614Y248073D01*
X39370Y271776D02*
X61614Y249531D01*
X39370Y271776D02*
Y279528D01*
X34744Y269943D02*
Y300689D01*
X51614Y221535D02*
Y246614D01*
X30118Y268110D02*
X51614Y246614D01*
X30118Y268110D02*
Y323524D01*
X41240Y334646D01*
X34744Y300689D02*
X41142Y307087D01*
X39370Y279528D02*
X43307D01*
X69606Y223543D02*
X71614Y221535D01*
X78740Y229923D02*
Y278445D01*
Y229923D02*
X81614Y227049D01*
Y221535D02*
Y227049D01*
X74173Y228032D02*
X76614Y225591D01*
X96654D02*
X113524Y242461D01*
Y300630D02*
X119882Y306988D01*
X113524Y242461D02*
Y300630D01*
X108957Y323425D02*
X119390Y333858D01*
X108957Y244352D02*
Y323425D01*
X91614Y227010D02*
X108957Y244352D01*
X118110Y279626D02*
X122441D01*
X118110Y240453D02*
Y279626D01*
X101614Y223957D02*
X118110Y240453D01*
X101614Y221535D02*
Y223957D01*
X91614Y221535D02*
Y227010D01*
X119882Y306988D02*
X122146D01*
X41142Y307087D02*
X43307D01*
X41240Y334646D02*
X43307D01*
X166772Y357480D02*
X172165Y352087D01*
X171378Y362087D02*
X172165D01*
X166772Y357480D02*
X171378Y362087D01*
X36614Y227559D02*
X41614Y222559D01*
Y221535D02*
Y222559D01*
X31614Y221535D02*
Y222559D01*
X36614Y227559D01*
Y247244D01*
X145276Y357480D02*
X166772D01*
X13780Y270079D02*
X36614Y247244D01*
X13780Y270079D02*
Y337402D01*
X56299Y379921D01*
X74173Y228032D02*
Y298976D01*
X82677Y307480D01*
X69606Y223543D02*
Y321575D01*
X82677Y334646D01*
X122835Y379921D02*
X145276Y357480D01*
X56299Y379921D02*
X122835D01*
D22*
X54331Y88583D02*
D03*
Y76772D02*
D03*
Y116142D02*
D03*
Y104331D02*
D03*
Y143701D02*
D03*
Y131890D02*
D03*
X93701Y143701D02*
D03*
Y131890D02*
D03*
Y116142D02*
D03*
Y104331D02*
D03*
Y88583D02*
D03*
Y76772D02*
D03*
X133071Y88583D02*
D03*
Y76772D02*
D03*
Y116142D02*
D03*
Y104331D02*
D03*
Y143701D02*
D03*
Y131890D02*
D03*
X54331Y285433D02*
D03*
Y273622D02*
D03*
Y312992D02*
D03*
Y301181D02*
D03*
Y340551D02*
D03*
Y328740D02*
D03*
X93701Y340551D02*
D03*
Y328740D02*
D03*
Y312992D02*
D03*
Y301181D02*
D03*
Y285433D02*
D03*
Y273622D02*
D03*
X133071Y285433D02*
D03*
Y273622D02*
D03*
Y312992D02*
D03*
Y301181D02*
D03*
Y340551D02*
D03*
Y328740D02*
D03*
D23*
X53543Y82677D02*
D03*
Y110236D02*
D03*
Y137795D02*
D03*
X92913D02*
D03*
Y110236D02*
D03*
Y82677D02*
D03*
X132283D02*
D03*
Y110236D02*
D03*
Y137795D02*
D03*
X53543Y279528D02*
D03*
Y307087D02*
D03*
Y334646D02*
D03*
X92913D02*
D03*
Y307087D02*
D03*
Y279528D02*
D03*
X132283D02*
D03*
Y307087D02*
D03*
Y334646D02*
D03*
D24*
X61417Y140945D02*
X62205D01*
X100787Y113386D02*
X104547Y117146D01*
X100787Y85827D02*
X105965Y91004D01*
X177402Y100000D02*
X182165Y95236D01*
X153543Y100000D02*
X177402D01*
X140157Y113386D02*
X153543Y100000D01*
X140157Y140945D02*
X147244Y133858D01*
X177244Y140157D02*
X182165Y135236D01*
X21614Y14685D02*
X26378Y19449D01*
Y29528D01*
X32520Y35669D01*
X147283Y164331D02*
X161181D01*
X167028Y170177D01*
X177106D01*
X182165Y175236D01*
X176457Y190945D02*
X182165Y185236D01*
X9843Y71301D02*
Y142126D01*
X54725Y187008D01*
X5906Y144390D02*
X52461Y190945D01*
X5906Y20394D02*
X11614Y14685D01*
X5906Y20394D02*
Y144390D01*
X9843Y71301D02*
X32520Y48623D01*
Y35669D02*
Y48623D01*
X171686Y125236D02*
X172165D01*
X176732Y120669D02*
X182165Y115236D01*
X169435Y140157D02*
X177244D01*
X166361Y145236D02*
X172165D01*
X152162Y151417D02*
X166181Y137398D01*
X151575Y150000D02*
X164764Y136811D01*
X152749Y152835D02*
X167598Y137985D01*
Y129324D02*
Y137985D01*
X154510Y157087D02*
X166361Y145236D01*
X153923Y155669D02*
X169435Y140157D01*
X172165Y135236D02*
Y135423D01*
X153336Y154252D02*
X172165Y135423D01*
X167598Y129324D02*
X171686Y125236D01*
X164764Y122638D02*
Y136811D01*
Y122638D02*
X172165Y115236D01*
X166181Y123583D02*
Y137398D01*
Y123583D02*
X169095Y120669D01*
X176732D01*
X140157Y85827D02*
X141732Y87402D01*
X164331D01*
X172165Y95236D01*
X147244Y124409D02*
Y133858D01*
Y124409D02*
X166417Y105236D01*
X172165D01*
X104547Y117146D02*
Y128957D01*
X105965Y128370D02*
X115118Y137523D01*
X104547Y128957D02*
X113701Y138110D01*
X105965Y91004D02*
Y128370D01*
X89764Y140945D02*
X100787D01*
X87795Y142913D02*
X89764Y140945D01*
X84252Y142913D02*
X87795D01*
X115118Y137523D02*
Y143465D01*
X121654Y150000D01*
X151575D01*
X113701Y144052D02*
X121066Y151417D01*
X113701Y138110D02*
Y144052D01*
X121066Y151417D02*
X152162D01*
X143701Y157087D02*
X154510D01*
X143114Y155669D02*
X153923D01*
X142527Y154252D02*
X153336D01*
X141940Y152835D02*
X152749D01*
X63524Y142264D02*
Y170682D01*
X71975Y179134D01*
X64941Y116910D02*
Y170095D01*
X72563Y177717D01*
X66358Y90768D02*
Y169508D01*
X73150Y176299D01*
X61417Y85827D02*
X66358Y90768D01*
X61417Y113386D02*
X64941Y116910D01*
X62205Y140945D02*
X63524Y142264D01*
X52461Y190945D02*
X176457D01*
X54725Y187008D02*
X124606D01*
X147283Y164331D01*
X121654Y179134D02*
X143701Y157087D01*
X121066Y177717D02*
X143114Y155669D01*
X119892Y174882D02*
X141940Y152835D01*
X120479Y176299D02*
X142527Y154252D01*
X71975Y179134D02*
X121654D01*
X72563Y177717D02*
X121066D01*
X73150Y176299D02*
X120479D01*
X87087Y174882D02*
X119892D01*
X81890Y169685D02*
X87087Y174882D01*
X81890Y145276D02*
X84252Y142913D01*
X81890Y145276D02*
Y169685D01*
X61417Y337795D02*
X62205D01*
X100787Y310236D02*
X104547Y313996D01*
X100787Y282677D02*
X105965Y287854D01*
X177402Y296850D02*
X182165Y292087D01*
X153543Y296850D02*
X177402D01*
X140157Y310236D02*
X153543Y296850D01*
X140157Y337795D02*
X147244Y330709D01*
X177244Y337008D02*
X182165Y332087D01*
X21614Y211536D02*
X26378Y216299D01*
Y226378D01*
X32520Y232520D01*
X147283Y361181D02*
X161181D01*
X167028Y367028D01*
X177106D01*
X182165Y372087D01*
X176457Y387795D02*
X182165Y382087D01*
X9843Y268151D02*
Y338976D01*
X54725Y383858D01*
X5906Y341240D02*
X52461Y387795D01*
X5906Y217244D02*
X11614Y211536D01*
X5906Y217244D02*
Y341240D01*
X9843Y268151D02*
X32520Y245474D01*
Y232520D02*
Y245474D01*
X171686Y322087D02*
X172165D01*
X176732Y317520D02*
X182165Y312087D01*
X169435Y337008D02*
X177244D01*
X166361Y342087D02*
X172165D01*
X152162Y348268D02*
X166181Y334248D01*
X151575Y346850D02*
X164764Y333662D01*
X152749Y349685D02*
X167598Y334836D01*
Y326174D02*
Y334836D01*
X154510Y353937D02*
X166361Y342087D01*
X153923Y352520D02*
X169435Y337008D01*
X172165Y332087D02*
Y332273D01*
X153336Y351102D02*
X172165Y332273D01*
X167598Y326174D02*
X171686Y322087D01*
X164764Y319488D02*
Y333662D01*
Y319488D02*
X172165Y312087D01*
X166181Y320433D02*
Y334248D01*
Y320433D02*
X169095Y317520D01*
X176732D01*
X140157Y282677D02*
X141732Y284252D01*
X164331D01*
X172165Y292087D01*
X147244Y321260D02*
Y330709D01*
Y321260D02*
X166417Y302087D01*
X172165D01*
X104547Y313996D02*
Y325807D01*
X105965Y325220D02*
X115118Y334374D01*
X104547Y325807D02*
X113701Y334961D01*
X105965Y287854D02*
Y325220D01*
X89764Y337795D02*
X100787D01*
X87795Y339764D02*
X89764Y337795D01*
X84252Y339764D02*
X87795D01*
X115118Y334374D02*
Y340315D01*
X121654Y346850D01*
X151575D01*
X113701Y340902D02*
X121066Y348268D01*
X113701Y334961D02*
Y340902D01*
X121066Y348268D02*
X152162D01*
X143701Y353937D02*
X154510D01*
X143114Y352520D02*
X153923D01*
X142527Y351102D02*
X153336D01*
X141940Y349685D02*
X152749D01*
X63524Y339114D02*
Y367532D01*
X71975Y375984D01*
X64941Y313760D02*
Y366945D01*
X72563Y374567D01*
X66358Y287618D02*
Y366358D01*
X73150Y373150D01*
X61417Y282677D02*
X66358Y287618D01*
X61417Y310236D02*
X64941Y313760D01*
X62205Y337795D02*
X63524Y339114D01*
X52461Y387795D02*
X176457D01*
X54725Y383858D02*
X124606D01*
X147283Y361181D01*
X121654Y375984D02*
X143701Y353937D01*
X121066Y374567D02*
X143114Y352520D01*
X119892Y371732D02*
X141940Y349685D01*
X120479Y373150D02*
X142527Y351102D01*
X71975Y375984D02*
X121654D01*
X72563Y374567D02*
X121066D01*
X73150Y373150D02*
X120479D01*
X87087Y371732D02*
X119892D01*
X81890Y366535D02*
X87087Y371732D01*
X81890Y342126D02*
X84252Y339764D01*
X81890Y342126D02*
Y366535D01*
D25*
X76614Y19685D02*
Y28740D01*
X96654Y19646D02*
X101614Y14685D01*
X96654Y19646D02*
Y28740D01*
X56614Y19685D02*
X61614Y14685D01*
X56614Y19685D02*
Y28740D01*
X76614Y19685D02*
X81614Y14685D01*
X76614Y216535D02*
Y225591D01*
X96654Y216496D02*
X101614Y211536D01*
X96654Y216496D02*
Y225591D01*
X56614Y216535D02*
X61614Y211536D01*
X56614Y216535D02*
Y225591D01*
X76614Y216535D02*
X81614Y211536D01*
D26*
X137402Y131890D02*
X140157Y134646D01*
X133071Y131890D02*
X137402D01*
Y104331D02*
X140157Y107087D01*
X133071Y104331D02*
X137402D01*
Y76772D02*
X140157Y79528D01*
X133071Y76772D02*
X137402D01*
X98032D02*
X100787Y79528D01*
X93701Y76772D02*
X98032D01*
Y104331D02*
X100787Y107087D01*
X93701Y104331D02*
X98032D01*
Y131890D02*
X100787Y134646D01*
X93701Y131890D02*
X98032D01*
X58662D02*
X61417Y134646D01*
X54331Y131890D02*
X58662D01*
Y104331D02*
X61417Y107087D01*
X54331Y104331D02*
X58662D01*
Y76772D02*
X61417Y79528D01*
X54331Y76772D02*
X58662D01*
X137402Y328740D02*
X140157Y331496D01*
X133071Y328740D02*
X137402D01*
Y301181D02*
X140157Y303937D01*
X133071Y301181D02*
X137402D01*
Y273622D02*
X140157Y276378D01*
X133071Y273622D02*
X137402D01*
X98032D02*
X100787Y276378D01*
X93701Y273622D02*
X98032D01*
Y301181D02*
X100787Y303937D01*
X93701Y301181D02*
X98032D01*
Y328740D02*
X100787Y331496D01*
X93701Y328740D02*
X98032D01*
X58662D02*
X61417Y331496D01*
X54331Y328740D02*
X58662D01*
Y301181D02*
X61417Y303937D01*
X54331Y301181D02*
X58662D01*
Y273622D02*
X61417Y276378D01*
X54331Y273622D02*
X58662D01*
D27*
X211536Y185236D02*
D03*
Y175236D02*
D03*
Y165236D02*
D03*
Y155236D02*
D03*
Y145236D02*
D03*
Y135236D02*
D03*
Y125236D02*
D03*
Y115236D02*
D03*
Y105236D02*
D03*
Y95236D02*
D03*
Y85236D02*
D03*
Y75236D02*
D03*
Y65236D02*
D03*
Y55236D02*
D03*
Y45236D02*
D03*
Y35236D02*
D03*
X221535Y45236D02*
D03*
Y55236D02*
D03*
Y65236D02*
D03*
Y75236D02*
D03*
Y85236D02*
D03*
Y95236D02*
D03*
Y105236D02*
D03*
Y115236D02*
D03*
Y125236D02*
D03*
Y135236D02*
D03*
Y145236D02*
D03*
Y155236D02*
D03*
Y165236D02*
D03*
Y175236D02*
D03*
Y185236D02*
D03*
X261968Y20472D02*
D03*
X251969D02*
D03*
X211536Y382087D02*
D03*
Y372087D02*
D03*
Y362087D02*
D03*
Y352087D02*
D03*
Y342087D02*
D03*
Y332087D02*
D03*
Y322087D02*
D03*
Y312087D02*
D03*
Y302087D02*
D03*
Y292087D02*
D03*
Y282087D02*
D03*
Y272087D02*
D03*
Y262087D02*
D03*
Y252087D02*
D03*
Y242087D02*
D03*
Y232087D02*
D03*
X221535Y242087D02*
D03*
Y252087D02*
D03*
Y262087D02*
D03*
Y272087D02*
D03*
Y282087D02*
D03*
Y292087D02*
D03*
Y302087D02*
D03*
Y312087D02*
D03*
Y322087D02*
D03*
Y332087D02*
D03*
Y342087D02*
D03*
Y352087D02*
D03*
Y362087D02*
D03*
Y372087D02*
D03*
Y382087D02*
D03*
X261968Y217323D02*
D03*
X251969D02*
D03*
X172165Y45236D02*
D03*
Y55236D02*
D03*
Y65236D02*
D03*
Y75236D02*
D03*
Y85236D02*
D03*
Y95236D02*
D03*
Y105236D02*
D03*
Y115236D02*
D03*
Y125236D02*
D03*
Y135236D02*
D03*
Y145236D02*
D03*
Y155236D02*
D03*
Y165236D02*
D03*
Y175236D02*
D03*
Y185236D02*
D03*
X182165Y35236D02*
D03*
Y45236D02*
D03*
Y55236D02*
D03*
Y65236D02*
D03*
Y75236D02*
D03*
Y85236D02*
D03*
Y95236D02*
D03*
Y105236D02*
D03*
Y115236D02*
D03*
Y125236D02*
D03*
Y135236D02*
D03*
Y145236D02*
D03*
Y155236D02*
D03*
Y165236D02*
D03*
Y175236D02*
D03*
Y185236D02*
D03*
X11614Y24685D02*
D03*
X21614D02*
D03*
X31614D02*
D03*
X41614D02*
D03*
X51614D02*
D03*
X61614D02*
D03*
X71614D02*
D03*
X81614D02*
D03*
X91614D02*
D03*
X101614D02*
D03*
X111614D02*
D03*
X121614D02*
D03*
X131614D02*
D03*
X141614D02*
D03*
X151614D02*
D03*
X161614Y14685D02*
D03*
X151614D02*
D03*
X141614D02*
D03*
X131614D02*
D03*
X121614D02*
D03*
X111614D02*
D03*
X101614D02*
D03*
X91614D02*
D03*
X81614D02*
D03*
X71614D02*
D03*
X61614D02*
D03*
X51614D02*
D03*
X41614D02*
D03*
X31614D02*
D03*
X21614D02*
D03*
X11614D02*
D03*
X172165Y242087D02*
D03*
Y252087D02*
D03*
Y262087D02*
D03*
Y272087D02*
D03*
Y282087D02*
D03*
Y292087D02*
D03*
Y302087D02*
D03*
Y312087D02*
D03*
Y322087D02*
D03*
Y332087D02*
D03*
Y342087D02*
D03*
Y352087D02*
D03*
Y362087D02*
D03*
Y372087D02*
D03*
Y382087D02*
D03*
X182165Y232087D02*
D03*
Y242087D02*
D03*
Y252087D02*
D03*
Y262087D02*
D03*
Y272087D02*
D03*
Y282087D02*
D03*
Y292087D02*
D03*
Y302087D02*
D03*
Y312087D02*
D03*
Y322087D02*
D03*
Y332087D02*
D03*
Y342087D02*
D03*
Y352087D02*
D03*
Y362087D02*
D03*
Y372087D02*
D03*
Y382087D02*
D03*
X11614Y221535D02*
D03*
X21614D02*
D03*
X31614D02*
D03*
X41614D02*
D03*
X51614D02*
D03*
X61614D02*
D03*
X71614D02*
D03*
X81614D02*
D03*
X91614D02*
D03*
X101614D02*
D03*
X111614D02*
D03*
X121614D02*
D03*
X131614D02*
D03*
X141614D02*
D03*
X151614D02*
D03*
X161614Y211536D02*
D03*
X151614D02*
D03*
X141614D02*
D03*
X131614D02*
D03*
X121614D02*
D03*
X111614D02*
D03*
X101614D02*
D03*
X91614D02*
D03*
X81614D02*
D03*
X71614D02*
D03*
X61614D02*
D03*
X51614D02*
D03*
X41614D02*
D03*
X31614D02*
D03*
X21614D02*
D03*
X11614D02*
D03*
D28*
X221535Y35236D02*
D03*
Y232087D02*
D03*
X172165Y35236D02*
D03*
Y232087D02*
D03*
D29*
X241968Y20472D02*
D03*
Y217323D02*
D03*
X161614Y24685D02*
D03*
Y221535D02*
D03*
D30*
X303228Y19528D02*
D03*
Y29528D02*
D03*
X313228Y19528D02*
D03*
Y29528D02*
D03*
X323228Y19528D02*
D03*
X303228Y216378D02*
D03*
Y226378D02*
D03*
X313228Y216378D02*
D03*
Y226378D02*
D03*
X323228Y216378D02*
D03*
D31*
Y29528D02*
D03*
Y226378D02*
D03*
D32*
X350394Y43307D02*
D03*
Y177165D02*
D03*
Y240158D02*
D03*
Y374016D02*
D03*
X153543Y177165D02*
D03*
X19685Y43307D02*
D03*
Y177165D02*
D03*
X153543Y374016D02*
D03*
X19685Y240158D02*
D03*
Y374016D02*
D03*
D33*
X331398Y88189D02*
D03*
Y132480D02*
D03*
X257283Y33563D02*
D03*
X231890Y108563D02*
D03*
X227362Y101378D02*
D03*
X228150Y96358D02*
D03*
X233465Y146358D02*
D03*
X265945Y165748D02*
D03*
X222244Y20965D02*
D03*
X236221Y114665D02*
D03*
X239665Y175099D02*
D03*
X270866Y124508D02*
D03*
X267717Y124508D02*
D03*
X264567D02*
D03*
X292913D02*
D03*
X296063D02*
D03*
X295276Y98425D02*
D03*
X289764Y124508D02*
D03*
X286614D02*
D03*
X253445Y113386D02*
D03*
Y116535D02*
D03*
X236516Y131595D02*
D03*
X307087Y133858D02*
D03*
X263780Y82677D02*
D03*
X301969Y183465D02*
D03*
X288189Y150000D02*
D03*
X255906Y82677D02*
D03*
X316929Y130315D02*
D03*
X285039Y62599D02*
D03*
X269685Y62992D02*
D03*
X310039Y43307D02*
D03*
X283465Y82677D02*
D03*
X307185Y147047D02*
D03*
X284941Y141732D02*
D03*
X266142Y138287D02*
D03*
X331398Y285039D02*
D03*
Y329331D02*
D03*
X257283Y230414D02*
D03*
X231890Y305414D02*
D03*
X227362Y298228D02*
D03*
X228150Y293209D02*
D03*
X233465Y343209D02*
D03*
X265945Y362598D02*
D03*
X222244Y217815D02*
D03*
X236221Y311516D02*
D03*
X239665Y371949D02*
D03*
X270866Y321358D02*
D03*
X267717Y321358D02*
D03*
X264567D02*
D03*
X292913D02*
D03*
X296063D02*
D03*
X295276Y295276D02*
D03*
X289764Y321358D02*
D03*
X286614D02*
D03*
X253445Y310236D02*
D03*
Y313386D02*
D03*
X236516Y328445D02*
D03*
X307087Y330709D02*
D03*
X263780Y279528D02*
D03*
X301969Y380315D02*
D03*
X288189Y346850D02*
D03*
X255906Y279528D02*
D03*
X316929Y327165D02*
D03*
X285039Y259449D02*
D03*
X269685Y259843D02*
D03*
X310039Y240158D02*
D03*
X283465Y279528D02*
D03*
X307185Y343898D02*
D03*
X284941Y338583D02*
D03*
X266142Y335138D02*
D03*
D34*
X179232Y16043D02*
D03*
X53150Y167717D02*
D03*
Y148819D02*
D03*
X86614Y146457D02*
D03*
X125591Y144882D02*
D03*
X162992Y116142D02*
D03*
X158661Y59449D02*
D03*
X160236Y78347D02*
D03*
X44094Y40157D02*
D03*
X20866Y81890D02*
D03*
X22047Y107480D02*
D03*
X21260Y137008D02*
D03*
X126378Y63386D02*
D03*
X87795Y40157D02*
D03*
X125984Y96457D02*
D03*
X86614D02*
D03*
X47244D02*
D03*
Y124016D02*
D03*
X86614D02*
D03*
X125984D02*
D03*
X162599Y96457D02*
D03*
X162205Y104331D02*
D03*
X86221Y69291D02*
D03*
X69882Y167717D02*
D03*
X120079D02*
D03*
X86614D02*
D03*
X103347Y167323D02*
D03*
X179232Y212894D02*
D03*
X53150Y364567D02*
D03*
Y345669D02*
D03*
X86614Y343307D02*
D03*
X125591Y341732D02*
D03*
X162992Y312992D02*
D03*
X158661Y256299D02*
D03*
X160236Y275197D02*
D03*
X44094Y237008D02*
D03*
X20866Y278740D02*
D03*
X22047Y304331D02*
D03*
X21260Y333858D02*
D03*
X126378Y260236D02*
D03*
X87795Y237008D02*
D03*
X125984Y293307D02*
D03*
X86614D02*
D03*
X47244D02*
D03*
Y320866D02*
D03*
X86614D02*
D03*
X125984D02*
D03*
X162599Y293307D02*
D03*
X162205Y301181D02*
D03*
X86221Y266142D02*
D03*
X69882Y364567D02*
D03*
X120079D02*
D03*
X86614D02*
D03*
X103347Y364173D02*
D03*
M02*
