G04 Layer_Physical_Order=1*
G04 Layer_Color=255*
%FSLAX25Y25*%
%MOIN*%
G70*
G01*
G75*
%ADD10C,0.01575*%
%ADD11R,0.07087X0.07087*%
%ADD12C,0.07087*%
%ADD13C,0.07874*%
%ADD14C,0.23622*%
%ADD15C,0.07874*%
G36*
X385827Y0D02*
X0D01*
Y90551D01*
X385827D01*
Y0D01*
D02*
G37*
%LPC*%
G36*
X10827Y42992D02*
X9635Y42835D01*
X8524Y42375D01*
X7570Y41643D01*
X6838Y40689D01*
X6377Y39578D01*
X6221Y38386D01*
X6377Y37194D01*
X6838Y36083D01*
X7570Y35129D01*
X8524Y34397D01*
X9635Y33937D01*
X10827Y33779D01*
X12019Y33937D01*
X13130Y34397D01*
X14084Y35129D01*
X14816Y36083D01*
X15276Y37194D01*
X15433Y38386D01*
X15276Y39578D01*
X14816Y40689D01*
X14084Y41643D01*
X13130Y42375D01*
X12019Y42835D01*
X10827Y42992D01*
D02*
G37*
G36*
X370079Y28227D02*
X368127Y28074D01*
X366222Y27617D01*
X364413Y26867D01*
X362744Y25844D01*
X361255Y24572D01*
X359983Y23083D01*
X358960Y21414D01*
X358210Y19604D01*
X357753Y17700D01*
X357599Y15748D01*
X357753Y13796D01*
X358210Y11892D01*
X358960Y10083D01*
X359983Y8413D01*
X361255Y6924D01*
X362744Y5652D01*
X364413Y4629D01*
X366222Y3880D01*
X368127Y3422D01*
X370079Y3269D01*
X372031Y3422D01*
X373935Y3880D01*
X375744Y4629D01*
X377414Y5652D01*
X378903Y6924D01*
X380175Y8413D01*
X381198Y10083D01*
X381947Y11892D01*
X382405Y13796D01*
X382558Y15748D01*
X382405Y17700D01*
X381947Y19604D01*
X381198Y21414D01*
X380175Y23083D01*
X378903Y24572D01*
X377414Y25844D01*
X375744Y26867D01*
X373935Y27617D01*
X372031Y28074D01*
X370079Y28227D01*
D02*
G37*
G36*
X15748D02*
X13796Y28074D01*
X11892Y27617D01*
X10083Y26867D01*
X8413Y25844D01*
X6924Y24572D01*
X5652Y23083D01*
X4629Y21414D01*
X3880Y19604D01*
X3422Y17700D01*
X3269Y15748D01*
X3422Y13796D01*
X3880Y11892D01*
X4629Y10083D01*
X5652Y8413D01*
X6924Y6924D01*
X8413Y5652D01*
X10083Y4629D01*
X11892Y3880D01*
X13796Y3422D01*
X15748Y3269D01*
X17700Y3422D01*
X19604Y3880D01*
X21414Y4629D01*
X23083Y5652D01*
X24572Y6924D01*
X25844Y8413D01*
X26867Y10083D01*
X27617Y11892D01*
X28074Y13796D01*
X28227Y15748D01*
X28074Y17700D01*
X27617Y19604D01*
X26867Y21414D01*
X25844Y23083D01*
X24572Y24572D01*
X23083Y25844D01*
X21414Y26867D01*
X19604Y27617D01*
X17700Y28074D01*
X15748Y28227D01*
D02*
G37*
G36*
X192913Y87283D02*
X190961Y87129D01*
X189057Y86672D01*
X187248Y85922D01*
X185578Y84899D01*
X184089Y83627D01*
X182817Y82138D01*
X181794Y80469D01*
X181045Y78660D01*
X180588Y76755D01*
X180434Y74803D01*
X180588Y72851D01*
X181045Y70947D01*
X181794Y69138D01*
X182817Y67468D01*
X184089Y65979D01*
X185578Y64707D01*
X187248Y63684D01*
X189057Y62935D01*
X190961Y62477D01*
X192913Y62324D01*
X194866Y62477D01*
X196770Y62935D01*
X198579Y63684D01*
X200249Y64707D01*
X201738Y65979D01*
X203010Y67468D01*
X204033Y69138D01*
X204782Y70947D01*
X205239Y72851D01*
X205393Y74803D01*
X205239Y76755D01*
X204782Y78660D01*
X204033Y80469D01*
X203010Y82138D01*
X201738Y83627D01*
X200249Y84899D01*
X198579Y85922D01*
X196770Y86672D01*
X194866Y87129D01*
X192913Y87283D01*
D02*
G37*
G36*
X157677Y80075D02*
X156588Y79932D01*
X155573Y79511D01*
X154701Y78843D01*
X154032Y77971D01*
X153611Y76956D01*
X153468Y75866D01*
X153611Y74777D01*
X154032Y73762D01*
X152782Y72805D01*
X151470Y74117D01*
X151743Y74777D01*
X151886Y75866D01*
X151743Y76956D01*
X151322Y77971D01*
X150654Y78843D01*
X149782Y79511D01*
X148767Y79932D01*
X147677Y80075D01*
X146588Y79932D01*
X145573Y79511D01*
X144701Y78843D01*
X144032Y77971D01*
X143611Y76956D01*
X143468Y75866D01*
X143611Y74777D01*
X144032Y73762D01*
X144701Y72890D01*
X145573Y72221D01*
X146588Y71800D01*
X147677Y71657D01*
X148767Y71800D01*
X149426Y72074D01*
X150738Y70762D01*
X149782Y69511D01*
X148767Y69932D01*
X147677Y70075D01*
X146588Y69932D01*
X145573Y69511D01*
X144701Y68843D01*
X144032Y67971D01*
X143611Y66956D01*
X143468Y65866D01*
X143611Y64777D01*
X144032Y63762D01*
X144701Y62890D01*
X145573Y62221D01*
X146232Y61948D01*
Y57047D01*
X146342Y56494D01*
X146655Y56025D01*
X153993Y48687D01*
X153391Y47232D01*
X138355D01*
X124616Y60971D01*
X125573Y62221D01*
X126588Y61800D01*
X127677Y61657D01*
X128767Y61800D01*
X129782Y62221D01*
X130654Y62890D01*
X131323Y63762D01*
X131743Y64777D01*
X131886Y65866D01*
X131743Y66956D01*
X131323Y67971D01*
X130654Y68843D01*
X129782Y69511D01*
X128767Y69932D01*
X127677Y70075D01*
X126588Y69932D01*
X125573Y69511D01*
X124701Y68843D01*
X124032Y67971D01*
X123611Y66956D01*
X123468Y65866D01*
X123611Y64777D01*
X124032Y63762D01*
X122782Y62805D01*
X121470Y64117D01*
X121743Y64777D01*
X121886Y65866D01*
X121743Y66956D01*
X121323Y67971D01*
X120654Y68843D01*
X119782Y69511D01*
X118767Y69932D01*
X117677Y70075D01*
X116588Y69932D01*
X115736Y69579D01*
X115102Y69813D01*
X114162Y70414D01*
Y70827D01*
X114052Y71380D01*
X113738Y71849D01*
X111470Y74117D01*
X111743Y74777D01*
X111886Y75866D01*
X111743Y76956D01*
X111322Y77971D01*
X110654Y78843D01*
X109782Y79511D01*
X108767Y79932D01*
X107677Y80075D01*
X106588Y79932D01*
X105573Y79511D01*
X104701Y78843D01*
X104032Y77971D01*
X103611Y76956D01*
X103468Y75866D01*
X103611Y74777D01*
X104032Y73762D01*
X104701Y72890D01*
X105573Y72221D01*
X106588Y71800D01*
X107677Y71657D01*
X108767Y71800D01*
X109426Y72074D01*
X110738Y70762D01*
X109782Y69511D01*
X108767Y69932D01*
X107677Y70075D01*
X106588Y69932D01*
X105573Y69511D01*
X104701Y68843D01*
X104032Y67971D01*
X103611Y66956D01*
X103468Y65866D01*
X103611Y64777D01*
X104032Y63762D01*
X104701Y62890D01*
X105573Y62221D01*
X106232Y61948D01*
Y59744D01*
X104753Y59106D01*
X104402Y59059D01*
X100648Y62813D01*
X100654Y62890D01*
X101322Y63762D01*
X101743Y64777D01*
X101886Y65866D01*
X101743Y66956D01*
X101322Y67971D01*
X100654Y68843D01*
X99782Y69511D01*
X98767Y69932D01*
X97677Y70075D01*
X96588Y69932D01*
X95736Y69579D01*
X95102Y69813D01*
X94162Y70414D01*
Y70827D01*
X94052Y71380D01*
X93738Y71849D01*
X91470Y74117D01*
X91743Y74777D01*
X91886Y75866D01*
X91743Y76956D01*
X91322Y77971D01*
X90654Y78843D01*
X89782Y79511D01*
X88767Y79932D01*
X87677Y80075D01*
X86588Y79932D01*
X85573Y79511D01*
X84701Y78843D01*
X84032Y77971D01*
X83611Y76956D01*
X83468Y75866D01*
X83611Y74777D01*
X84032Y73762D01*
X84701Y72890D01*
X85573Y72221D01*
X86588Y71800D01*
X87677Y71657D01*
X88767Y71800D01*
X89426Y72074D01*
X90738Y70762D01*
X89782Y69511D01*
X88767Y69932D01*
X87677Y70075D01*
X86588Y69932D01*
X85573Y69511D01*
X84701Y68843D01*
X84032Y67971D01*
X83611Y66956D01*
X83468Y65866D01*
X83611Y64777D01*
X84032Y63762D01*
X82782Y62805D01*
X81470Y64117D01*
X81743Y64777D01*
X81886Y65866D01*
X81743Y66956D01*
X81322Y67971D01*
X80654Y68843D01*
X79782Y69511D01*
X78767Y69932D01*
X77677Y70075D01*
X76588Y69932D01*
X75573Y69511D01*
X74083Y70353D01*
Y70906D01*
X73973Y71459D01*
X73660Y71927D01*
X71470Y74117D01*
X71743Y74777D01*
X71886Y75866D01*
X71743Y76956D01*
X71323Y77971D01*
X70654Y78843D01*
X69782Y79511D01*
X68767Y79932D01*
X67677Y80075D01*
X66588Y79932D01*
X65573Y79511D01*
X64701Y78843D01*
X64032Y77971D01*
X63611Y76956D01*
X63468Y75866D01*
X63611Y74777D01*
X64032Y73762D01*
X64701Y72890D01*
X65573Y72221D01*
X66588Y71800D01*
X67677Y71657D01*
X68767Y71800D01*
X69129Y71951D01*
X70244Y70833D01*
X69709Y69613D01*
X69618Y69579D01*
X68767Y69932D01*
X67677Y70075D01*
X66588Y69932D01*
X65573Y69511D01*
X64701Y68843D01*
X64032Y67971D01*
X63611Y66956D01*
X63468Y65866D01*
X63611Y64777D01*
X64032Y63762D01*
X62782Y62805D01*
X61470Y64117D01*
X61743Y64777D01*
X61886Y65866D01*
X61743Y66956D01*
X61322Y67971D01*
X60654Y68843D01*
X59782Y69511D01*
X58767Y69932D01*
X57677Y70075D01*
X56588Y69932D01*
X55573Y69511D01*
X54103Y70368D01*
Y70886D01*
X53993Y71439D01*
X53679Y71908D01*
X51470Y74117D01*
X51743Y74777D01*
X51886Y75866D01*
X51743Y76956D01*
X51323Y77971D01*
X50654Y78843D01*
X49782Y79511D01*
X48767Y79932D01*
X47677Y80075D01*
X46588Y79932D01*
X45573Y79511D01*
X44701Y78843D01*
X44032Y77971D01*
X43611Y76956D01*
X43468Y75866D01*
X43611Y74777D01*
X44032Y73762D01*
X44701Y72890D01*
X45573Y72221D01*
X46588Y71800D01*
X47677Y71657D01*
X48767Y71800D01*
X49227Y71991D01*
X50313Y70903D01*
X49730Y69604D01*
X49638Y69571D01*
X48767Y69932D01*
X47677Y70075D01*
X46588Y69932D01*
X45573Y69511D01*
X44701Y68843D01*
X44032Y67971D01*
X43611Y66956D01*
X43468Y65866D01*
X43611Y64777D01*
X44032Y63762D01*
X44701Y62890D01*
X45573Y62221D01*
X46232Y61948D01*
Y61870D01*
X46342Y61317D01*
X46655Y60848D01*
X85952Y21551D01*
X85352Y19978D01*
X84266Y19844D01*
X40900Y63211D01*
X41322Y63762D01*
X41743Y64777D01*
X41886Y65866D01*
X41743Y66956D01*
X41322Y67971D01*
X40654Y68843D01*
X39782Y69511D01*
X38767Y69932D01*
X37677Y70075D01*
X36588Y69932D01*
X35573Y69511D01*
X34701Y68843D01*
X34032Y67971D01*
X33611Y66956D01*
X33468Y65866D01*
X33611Y64777D01*
X34032Y63762D01*
X34701Y62890D01*
X35573Y62221D01*
X36588Y61800D01*
X37677Y61657D01*
X38286Y61737D01*
X81283Y18740D01*
X80787Y17009D01*
X80368Y16912D01*
X37597Y59683D01*
X37128Y59996D01*
X36575Y60106D01*
X33473D01*
X30669Y62910D01*
X31323Y63762D01*
X31743Y64777D01*
X31886Y65866D01*
X31743Y66956D01*
X31323Y67971D01*
X30654Y68843D01*
X29782Y69511D01*
X28767Y69932D01*
X27677Y70075D01*
X26588Y69932D01*
X25573Y69511D01*
X24616Y70762D01*
X25928Y72074D01*
X26588Y71800D01*
X27677Y71657D01*
X28767Y71800D01*
X29782Y72221D01*
X30654Y72890D01*
X31323Y73762D01*
X31743Y74777D01*
X31886Y75866D01*
X31743Y76956D01*
X31323Y77971D01*
X30654Y78843D01*
X29782Y79511D01*
X28767Y79932D01*
X27677Y80075D01*
X26588Y79932D01*
X25573Y79511D01*
X24701Y78843D01*
X24032Y77971D01*
X23611Y76956D01*
X23468Y75866D01*
X23611Y74777D01*
X23885Y74117D01*
X21616Y71849D01*
X21303Y71380D01*
X21193Y70827D01*
Y70414D01*
X20253Y69813D01*
X19618Y69579D01*
X18767Y69932D01*
X17677Y70075D01*
X16588Y69932D01*
X15717Y69571D01*
X15143Y69778D01*
X14142Y70399D01*
Y70846D01*
X14032Y71399D01*
X13719Y71868D01*
X11470Y74117D01*
X11743Y74777D01*
X11886Y75866D01*
X11743Y76956D01*
X11322Y77971D01*
X10654Y78843D01*
X9782Y79511D01*
X8767Y79932D01*
X7677Y80075D01*
X6588Y79932D01*
X5573Y79511D01*
X4701Y78843D01*
X4032Y77971D01*
X3611Y76956D01*
X3468Y75866D01*
X3611Y74777D01*
X4032Y73762D01*
X4701Y72890D01*
X5573Y72221D01*
X6588Y71800D01*
X7677Y71657D01*
X8229Y71730D01*
X8341Y71614D01*
X7675Y70039D01*
X3504D01*
Y61693D01*
X6380D01*
X6655Y61281D01*
X34736Y33201D01*
Y16156D01*
X33878Y15800D01*
X32924Y15068D01*
X32192Y14114D01*
X31732Y13003D01*
X31575Y11811D01*
X31732Y10619D01*
X32192Y9508D01*
X32924Y8554D01*
X33878Y7822D01*
X34989Y7362D01*
X36181Y7205D01*
X37373Y7362D01*
X38484Y7822D01*
X39438Y8554D01*
X40170Y9508D01*
X40329Y9891D01*
X42033D01*
X42192Y9508D01*
X42924Y8554D01*
X43878Y7822D01*
X44989Y7362D01*
X46181Y7205D01*
X47373Y7362D01*
X48484Y7822D01*
X49438Y8554D01*
X50170Y9508D01*
X50329Y9891D01*
X52033D01*
X52192Y9508D01*
X52924Y8554D01*
X53878Y7822D01*
X54989Y7362D01*
X56181Y7205D01*
X57373Y7362D01*
X58484Y7822D01*
X59438Y8554D01*
X60170Y9508D01*
X60329Y9891D01*
X62033D01*
X62192Y9508D01*
X62924Y8554D01*
X63878Y7822D01*
X64989Y7362D01*
X66181Y7205D01*
X67373Y7362D01*
X68484Y7822D01*
X69438Y8554D01*
X70170Y9508D01*
X70631Y10619D01*
X70788Y11811D01*
X70631Y13003D01*
X70170Y14114D01*
X70039Y14286D01*
X71114Y15471D01*
X71181Y15456D01*
X74047Y12590D01*
Y10039D01*
X74157Y9486D01*
X74470Y9018D01*
X78801Y4687D01*
X79270Y4374D01*
X79823Y4264D01*
X87323D01*
X87876Y4374D01*
X88345Y4687D01*
X91375Y7717D01*
X92233Y7362D01*
X93425Y7205D01*
X94617Y7362D01*
X95728Y7822D01*
X96682Y8554D01*
X97414Y9508D01*
X97573Y9891D01*
X99278D01*
X99436Y9508D01*
X100168Y8554D01*
X101122Y7822D01*
X102233Y7362D01*
X103425Y7205D01*
X104618Y7362D01*
X105728Y7822D01*
X106682Y8554D01*
X107414Y9508D01*
X107573Y9891D01*
X109277D01*
X109436Y9508D01*
X110168Y8554D01*
X111122Y7822D01*
X112233Y7362D01*
X113425Y7205D01*
X114618Y7362D01*
X115728Y7822D01*
X116682Y8554D01*
X117414Y9508D01*
X117875Y10619D01*
X118032Y11811D01*
X117875Y13003D01*
X117414Y14114D01*
X116682Y15068D01*
X115728Y15800D01*
X114618Y16261D01*
X113425Y16417D01*
X112233Y16261D01*
X111122Y15800D01*
X110168Y15068D01*
X109436Y14114D01*
X109277Y13732D01*
X107573D01*
X107414Y14114D01*
X106682Y15068D01*
X105728Y15800D01*
X104618Y16261D01*
X103425Y16417D01*
X102233Y16261D01*
X101375Y15905D01*
X98843Y18437D01*
X99495Y20012D01*
X120425D01*
X126575Y13861D01*
X126220Y13003D01*
X126063Y11811D01*
X126220Y10619D01*
X126680Y9508D01*
X127412Y8554D01*
X128366Y7822D01*
X129477Y7362D01*
X130669Y7205D01*
X131862Y7362D01*
X132973Y7822D01*
X133926Y8554D01*
X134659Y9508D01*
X134817Y9891D01*
X136522D01*
X136680Y9508D01*
X137412Y8554D01*
X138366Y7822D01*
X139477Y7362D01*
X140669Y7205D01*
X141862Y7362D01*
X142973Y7822D01*
X143927Y8554D01*
X144659Y9508D01*
X144817Y9891D01*
X146522D01*
X146680Y9508D01*
X147412Y8554D01*
X148366Y7822D01*
X149477Y7362D01*
X150669Y7205D01*
X151862Y7362D01*
X152972Y7822D01*
X153927Y8554D01*
X154658Y9508D01*
X154817Y9891D01*
X156522D01*
X156680Y9508D01*
X157412Y8554D01*
X158366Y7822D01*
X159477Y7362D01*
X160669Y7205D01*
X161862Y7362D01*
X162972Y7822D01*
X163926Y8554D01*
X164658Y9508D01*
X165119Y10619D01*
X165276Y11811D01*
X165119Y13003D01*
X164658Y14114D01*
X163926Y15068D01*
X162972Y15800D01*
X161862Y16261D01*
X160669Y16417D01*
X159477Y16261D01*
X158366Y15800D01*
X157412Y15068D01*
X156680Y14114D01*
X156522Y13732D01*
X154817D01*
X154658Y14114D01*
X153927Y15068D01*
X152972Y15800D01*
X151862Y16261D01*
X150669Y16417D01*
X149477Y16261D01*
X148619Y15905D01*
X139274Y25250D01*
X139877Y26705D01*
X160976D01*
X173819Y13861D01*
X173464Y13003D01*
X173307Y11811D01*
X173464Y10619D01*
X173924Y9508D01*
X174656Y8554D01*
X175610Y7822D01*
X176721Y7362D01*
X177913Y7205D01*
X179106Y7362D01*
X180217Y7822D01*
X181171Y8554D01*
X181903Y9508D01*
X182061Y9891D01*
X183766D01*
X183924Y9508D01*
X184656Y8554D01*
X185610Y7822D01*
X186721Y7362D01*
X187913Y7205D01*
X189106Y7362D01*
X190217Y7822D01*
X191171Y8554D01*
X191903Y9508D01*
X192061Y9891D01*
X193766D01*
X193924Y9508D01*
X194656Y8554D01*
X195610Y7822D01*
X196721Y7362D01*
X197913Y7205D01*
X199106Y7362D01*
X200217Y7822D01*
X201171Y8554D01*
X201903Y9508D01*
X202061Y9891D01*
X203766D01*
X203924Y9508D01*
X204656Y8554D01*
X205610Y7822D01*
X206721Y7362D01*
X207913Y7205D01*
X209106Y7362D01*
X210217Y7822D01*
X211171Y8554D01*
X211903Y9508D01*
X212363Y10619D01*
X212520Y11811D01*
X212363Y13003D01*
X211903Y14114D01*
X211171Y15068D01*
X210217Y15800D01*
X209106Y16261D01*
X207913Y16417D01*
X206721Y16261D01*
X205610Y15800D01*
X204656Y15068D01*
X203924Y14114D01*
X203766Y13732D01*
X202061D01*
X201903Y14114D01*
X201171Y15068D01*
X200217Y15800D01*
X199106Y16261D01*
X197913Y16417D01*
X196721Y16261D01*
X195863Y15905D01*
X179904Y31864D01*
X180507Y33319D01*
X201606D01*
X221064Y13861D01*
X220708Y13003D01*
X220551Y11811D01*
X220708Y10619D01*
X221168Y9508D01*
X221900Y8554D01*
X222854Y7822D01*
X223965Y7362D01*
X225157Y7205D01*
X226350Y7362D01*
X227461Y7822D01*
X228415Y8554D01*
X229147Y9508D01*
X229305Y9891D01*
X231010D01*
X231168Y9508D01*
X231900Y8554D01*
X232854Y7822D01*
X233965Y7362D01*
X235157Y7205D01*
X236350Y7362D01*
X237461Y7822D01*
X238415Y8554D01*
X239147Y9508D01*
X239305Y9891D01*
X241010D01*
X241168Y9508D01*
X241900Y8554D01*
X242854Y7822D01*
X243965Y7362D01*
X245158Y7205D01*
X246350Y7362D01*
X247461Y7822D01*
X248415Y8554D01*
X249147Y9508D01*
X249305Y9891D01*
X251010D01*
X251168Y9508D01*
X251900Y8554D01*
X252854Y7822D01*
X253965Y7362D01*
X255157Y7205D01*
X256350Y7362D01*
X257461Y7822D01*
X258415Y8554D01*
X259147Y9508D01*
X259607Y10619D01*
X259764Y11811D01*
X259607Y13003D01*
X259147Y14114D01*
X258415Y15068D01*
X257461Y15800D01*
X256350Y16261D01*
X255157Y16417D01*
X253965Y16261D01*
X252854Y15800D01*
X251900Y15068D01*
X251168Y14114D01*
X251010Y13732D01*
X249305D01*
X249147Y14114D01*
X248415Y15068D01*
X247461Y15800D01*
X246350Y16261D01*
X245158Y16417D01*
X243965Y16261D01*
X243107Y15905D01*
X220534Y38478D01*
X221137Y39933D01*
X242236D01*
X268308Y13861D01*
X267952Y13003D01*
X267795Y11811D01*
X267952Y10619D01*
X268412Y9508D01*
X269145Y8554D01*
X270098Y7822D01*
X271209Y7362D01*
X272402Y7205D01*
X273594Y7362D01*
X274705Y7822D01*
X275659Y8554D01*
X276391Y9508D01*
X276549Y9891D01*
X278254D01*
X278412Y9508D01*
X279145Y8554D01*
X280099Y7822D01*
X281209Y7362D01*
X282402Y7205D01*
X283594Y7362D01*
X284705Y7822D01*
X285659Y8554D01*
X286391Y9508D01*
X286549Y9891D01*
X288254D01*
X288412Y9508D01*
X289144Y8554D01*
X290099Y7822D01*
X291209Y7362D01*
X292402Y7205D01*
X293594Y7362D01*
X294705Y7822D01*
X295659Y8554D01*
X296391Y9508D01*
X296549Y9891D01*
X298254D01*
X298412Y9508D01*
X299145Y8554D01*
X300098Y7822D01*
X301209Y7362D01*
X302402Y7205D01*
X303594Y7362D01*
X304705Y7822D01*
X305659Y8554D01*
X306391Y9508D01*
X306851Y10619D01*
X307008Y11811D01*
X306851Y13003D01*
X306391Y14114D01*
X305659Y15068D01*
X304705Y15800D01*
X303594Y16261D01*
X302402Y16417D01*
X301209Y16261D01*
X300098Y15800D01*
X299145Y15068D01*
X298412Y14114D01*
X298254Y13732D01*
X296549D01*
X296391Y14114D01*
X295659Y15068D01*
X294705Y15800D01*
X293594Y16261D01*
X292402Y16417D01*
X291209Y16261D01*
X290351Y15905D01*
X261164Y45092D01*
X261767Y46547D01*
X279992D01*
X312598Y13941D01*
Y7638D01*
X320945D01*
Y12087D01*
X322520Y12695D01*
X322659Y12542D01*
X322563Y11811D01*
X322706Y10722D01*
X323126Y9707D01*
X323795Y8835D01*
X324667Y8166D01*
X325682Y7745D01*
X326772Y7602D01*
X327861Y7745D01*
X328876Y8166D01*
X329748Y8835D01*
X330417Y9707D01*
X330837Y10722D01*
X330981Y11811D01*
X330837Y12900D01*
X330417Y13916D01*
X329748Y14787D01*
X328876Y15456D01*
X327861Y15877D01*
X326772Y16020D01*
X325682Y15877D01*
X325023Y15604D01*
X291007Y49620D01*
X291609Y51075D01*
X299086D01*
X336221Y13941D01*
Y7638D01*
X344567D01*
Y12087D01*
X346142Y12695D01*
X346281Y12542D01*
X346184Y11811D01*
X346328Y10722D01*
X346748Y9706D01*
X347417Y8835D01*
X348289Y8166D01*
X349304Y7745D01*
X350394Y7602D01*
X351483Y7745D01*
X352498Y8166D01*
X353370Y8835D01*
X354039Y9706D01*
X354460Y10722D01*
X354603Y11811D01*
X354460Y12900D01*
X354039Y13916D01*
X353370Y14787D01*
X352498Y15456D01*
X351483Y15877D01*
X350394Y16020D01*
X349304Y15877D01*
X348645Y15604D01*
X308502Y55746D01*
X308033Y56060D01*
X307480Y56170D01*
X179418D01*
X161470Y74117D01*
X161743Y74777D01*
X161886Y75866D01*
X161743Y76956D01*
X161322Y77971D01*
X160654Y78843D01*
X159782Y79511D01*
X158767Y79932D01*
X157677Y80075D01*
D02*
G37*
G36*
X378937Y43977D02*
X377745Y43819D01*
X376634Y43359D01*
X375680Y42627D01*
X374948Y41673D01*
X374488Y40562D01*
X374331Y39370D01*
X374488Y38178D01*
X374948Y37067D01*
X375680Y36113D01*
X376634Y35381D01*
X377745Y34921D01*
X378937Y34764D01*
X380129Y34921D01*
X381240Y35381D01*
X382194Y36113D01*
X382926Y37067D01*
X383386Y38178D01*
X383543Y39370D01*
X383386Y40562D01*
X382926Y41673D01*
X382194Y42627D01*
X381240Y43359D01*
X380129Y43819D01*
X378937Y43977D01*
D02*
G37*
G36*
X137677Y70075D02*
X136588Y69932D01*
X135573Y69511D01*
X134701Y68843D01*
X134032Y67971D01*
X133611Y66956D01*
X133468Y65866D01*
X133611Y64777D01*
X134032Y63762D01*
X134701Y62890D01*
X135573Y62221D01*
X136588Y61800D01*
X137677Y61657D01*
X138767Y61800D01*
X139782Y62221D01*
X140654Y62890D01*
X141323Y63762D01*
X141743Y64777D01*
X141886Y65866D01*
X141743Y66956D01*
X141323Y67971D01*
X140654Y68843D01*
X139782Y69511D01*
X138767Y69932D01*
X137677Y70075D01*
D02*
G37*
%LPD*%
D10*
X171024Y52520D02*
X299685D01*
X340394Y11811D01*
X307480Y54725D02*
X350394Y11811D01*
X178819Y54725D02*
X307480D01*
X157677Y75866D02*
X178819Y54725D01*
X288386Y50197D02*
X326772Y11811D01*
X162402Y50197D02*
X288386D01*
X280591Y47992D02*
X316772Y11811D01*
X156732Y47992D02*
X280591D01*
X258425Y45787D02*
X292402Y11811D01*
X137756Y45787D02*
X258425D01*
X250630Y43583D02*
X282402Y11811D01*
X130728Y43583D02*
X250630D01*
X242835Y41378D02*
X272402Y11811D01*
X126043Y41378D02*
X242835D01*
X217795Y39173D02*
X245158Y11811D01*
X122244Y39173D02*
X217795D01*
X210000Y36968D02*
X235157Y11811D01*
X118543Y36968D02*
X210000D01*
X202205Y34764D02*
X225157Y11811D01*
X115827Y34764D02*
X202205D01*
X157677Y65866D02*
X171024Y52520D01*
X152717Y59882D02*
X162402Y50197D01*
X152717Y59882D02*
Y70827D01*
X147677Y75866D02*
X152717Y70827D01*
X147677Y57047D02*
X156732Y47992D01*
X147677Y57047D02*
Y65866D01*
X97126Y18110D02*
X103425Y11811D01*
X83957Y18110D02*
X97126D01*
X136614Y25866D02*
X150669Y11811D01*
X128819Y23662D02*
X140669Y11811D01*
X92283Y23662D02*
X128819D01*
X97677Y25866D02*
X136614D01*
X57677Y65866D02*
X97677Y25866D01*
X52658Y63288D02*
X92283Y23662D01*
X121024Y21457D02*
X130669Y11811D01*
X88091Y21457D02*
X121024D01*
X47677Y61870D02*
X88091Y21457D01*
X101870Y28150D02*
X161575D01*
X67677Y62343D02*
X101870Y28150D01*
X106161Y30354D02*
X169370D01*
X72638Y63878D02*
X106161Y30354D01*
X87677Y62913D02*
X115827Y34764D01*
X92717Y62795D02*
X118543Y36968D01*
X177165Y32559D02*
X197913Y11811D01*
X169370Y30354D02*
X187913Y11811D01*
X117677Y65866D02*
X137756Y45787D01*
X112717Y61594D02*
X130728Y43583D01*
X107677Y59744D02*
X126043Y41378D01*
X97677Y63740D02*
X122244Y39173D01*
X161575Y28150D02*
X177913Y11811D01*
X47677Y61870D02*
Y65866D01*
X92717Y62795D02*
Y70827D01*
X97677Y63740D02*
Y65866D01*
X107677Y59744D02*
Y65866D01*
X112717Y61594D02*
Y70827D01*
X107677Y75866D02*
X112717Y70827D01*
X87677Y75866D02*
X92717Y70827D01*
X87677Y62913D02*
Y65866D01*
X37677Y64390D02*
X83957Y18110D01*
X72638Y63878D02*
Y70906D01*
X67677Y75866D02*
X72638Y70906D01*
X67677Y62343D02*
Y65866D01*
X52658Y63288D02*
Y70886D01*
X47677Y75866D02*
X52658Y70886D01*
X93425Y11811D02*
Y12776D01*
X37677Y64390D02*
Y65866D01*
X7677Y75866D02*
X12697Y70846D01*
X77677Y65866D02*
X110984Y32559D01*
X111319D02*
X177165D01*
X27677Y65866D02*
X29370D01*
X36575Y58661D02*
X83425Y11811D01*
X22638Y70827D02*
X27677Y75866D01*
X22638Y62500D02*
Y70827D01*
Y62500D02*
X62402Y22736D01*
X65945D01*
X75492Y13189D01*
X27677Y63858D02*
Y65866D01*
Y63858D02*
X32874Y58661D01*
X36575D01*
X87323Y5709D02*
X93425Y11811D01*
X75492Y10039D02*
Y13189D01*
Y10039D02*
X79823Y5709D01*
X87323D01*
X17677Y62638D02*
Y65866D01*
Y62638D02*
X56181Y24134D01*
Y11811D02*
Y24134D01*
X12697Y62500D02*
Y70846D01*
Y62500D02*
X46181Y29016D01*
Y11811D02*
Y29016D01*
X7677Y62303D02*
Y65866D01*
Y62303D02*
X36181Y33799D01*
Y11811D02*
Y33799D01*
D11*
X316772Y11811D02*
D03*
X340394D02*
D03*
X7677Y65866D02*
D03*
D12*
X326772Y11811D02*
D03*
X350394D02*
D03*
X157677Y65866D02*
D03*
X147677D02*
D03*
X137677D02*
D03*
X127677D02*
D03*
X117677D02*
D03*
X107677D02*
D03*
X97677D02*
D03*
X87677D02*
D03*
X77677D02*
D03*
X67677D02*
D03*
X57677D02*
D03*
X47677D02*
D03*
X37677D02*
D03*
X27677D02*
D03*
X17677D02*
D03*
X7677Y75866D02*
D03*
X17677D02*
D03*
X27677D02*
D03*
X37677D02*
D03*
X47677D02*
D03*
X57677D02*
D03*
X67677D02*
D03*
X77677D02*
D03*
X87677D02*
D03*
X97677D02*
D03*
X107677D02*
D03*
X117677D02*
D03*
X127677D02*
D03*
X137677D02*
D03*
X147677D02*
D03*
X157677D02*
D03*
D13*
X66181Y11811D02*
D03*
X56181D02*
D03*
X46181D02*
D03*
X36181D02*
D03*
X113425D02*
D03*
X103425D02*
D03*
X93425D02*
D03*
X83425D02*
D03*
X160669D02*
D03*
X150669D02*
D03*
X140669D02*
D03*
X130669D02*
D03*
X207913D02*
D03*
X197913D02*
D03*
X187913D02*
D03*
X177913D02*
D03*
X255157D02*
D03*
X245158D02*
D03*
X235157D02*
D03*
X225157D02*
D03*
X302402D02*
D03*
X292402D02*
D03*
X282402D02*
D03*
X272402D02*
D03*
D14*
X15748Y15748D02*
D03*
X370079D02*
D03*
X192913Y74803D02*
D03*
D15*
X10827Y50197D02*
D03*
Y38386D02*
D03*
X378937Y49370D02*
D03*
Y39370D02*
D03*
M02*
