G04 Layer_Color=16711935*
%FSLAX25Y25*%
%MOIN*%
G70*
G01*
G75*
%ADD15O,0.08674X0.05013*%
%ADD16R,0.08674X0.05013*%
%ADD17R,0.06312X0.06312*%
%ADD18C,0.06312*%
%ADD19C,0.00800*%
D15*
X47244Y27185D02*
D03*
Y17185D02*
D03*
Y12185D02*
D03*
X113780Y27185D02*
D03*
Y17185D02*
D03*
Y12185D02*
D03*
X180315Y27185D02*
D03*
Y17185D02*
D03*
Y12185D02*
D03*
X246850Y27185D02*
D03*
Y17185D02*
D03*
Y12185D02*
D03*
X313386Y27185D02*
D03*
Y17185D02*
D03*
Y12185D02*
D03*
X379921Y27185D02*
D03*
Y17185D02*
D03*
Y12185D02*
D03*
X47244Y74036D02*
D03*
Y64035D02*
D03*
Y59035D02*
D03*
X113780Y74036D02*
D03*
Y64035D02*
D03*
Y59035D02*
D03*
X180315Y74036D02*
D03*
Y64035D02*
D03*
Y59035D02*
D03*
X246850Y74036D02*
D03*
Y64035D02*
D03*
Y59035D02*
D03*
X313386Y74036D02*
D03*
Y64035D02*
D03*
Y59035D02*
D03*
X379921Y74036D02*
D03*
Y64035D02*
D03*
Y59035D02*
D03*
X47244Y120886D02*
D03*
Y110886D02*
D03*
Y105886D02*
D03*
X113780Y120886D02*
D03*
Y110886D02*
D03*
Y105886D02*
D03*
X180315Y120886D02*
D03*
Y110886D02*
D03*
Y105886D02*
D03*
X246850Y120886D02*
D03*
Y110886D02*
D03*
Y105886D02*
D03*
X313386Y120886D02*
D03*
Y110886D02*
D03*
Y105886D02*
D03*
X379921Y120886D02*
D03*
Y110886D02*
D03*
Y105886D02*
D03*
X47244Y167736D02*
D03*
Y157736D02*
D03*
Y152736D02*
D03*
X113780Y167736D02*
D03*
Y157736D02*
D03*
Y152736D02*
D03*
X180315Y167736D02*
D03*
Y157736D02*
D03*
Y152736D02*
D03*
X246850Y167736D02*
D03*
Y157736D02*
D03*
Y152736D02*
D03*
X313386Y167736D02*
D03*
Y157736D02*
D03*
Y152736D02*
D03*
X379921Y167736D02*
D03*
Y157736D02*
D03*
Y152736D02*
D03*
X47244Y214587D02*
D03*
Y204587D02*
D03*
Y199587D02*
D03*
X113780Y214587D02*
D03*
Y204587D02*
D03*
Y199587D02*
D03*
X180315Y214587D02*
D03*
Y204587D02*
D03*
Y199587D02*
D03*
X246850Y214587D02*
D03*
Y204587D02*
D03*
Y199587D02*
D03*
X313386Y214587D02*
D03*
Y204587D02*
D03*
Y199587D02*
D03*
X379921Y214587D02*
D03*
Y204587D02*
D03*
Y199587D02*
D03*
X47244Y261437D02*
D03*
Y251437D02*
D03*
Y246437D02*
D03*
X113780Y261437D02*
D03*
Y251437D02*
D03*
Y246437D02*
D03*
X180315Y261437D02*
D03*
Y251437D02*
D03*
Y246437D02*
D03*
X246850Y261437D02*
D03*
Y251437D02*
D03*
Y246437D02*
D03*
X313386Y261437D02*
D03*
Y251437D02*
D03*
Y246437D02*
D03*
X379921Y261437D02*
D03*
Y251437D02*
D03*
Y246437D02*
D03*
X47244Y308287D02*
D03*
Y298287D02*
D03*
Y293287D02*
D03*
X113780Y308287D02*
D03*
Y298287D02*
D03*
Y293287D02*
D03*
X180315Y308287D02*
D03*
Y298287D02*
D03*
Y293287D02*
D03*
X246850Y308287D02*
D03*
Y298287D02*
D03*
Y293287D02*
D03*
X313386Y308287D02*
D03*
Y298287D02*
D03*
Y293287D02*
D03*
X379921Y308287D02*
D03*
Y298287D02*
D03*
Y293287D02*
D03*
X47244Y355138D02*
D03*
Y345138D02*
D03*
Y340138D02*
D03*
X113780Y355138D02*
D03*
Y345138D02*
D03*
Y340138D02*
D03*
X180315Y355138D02*
D03*
Y345138D02*
D03*
Y340138D02*
D03*
X246850Y355138D02*
D03*
Y345138D02*
D03*
Y340138D02*
D03*
X313386Y355138D02*
D03*
Y345138D02*
D03*
Y340138D02*
D03*
X379921Y355138D02*
D03*
Y345138D02*
D03*
Y340138D02*
D03*
D16*
X47244Y22185D02*
D03*
X113780D02*
D03*
X180315D02*
D03*
X246850D02*
D03*
X313386D02*
D03*
X379921D02*
D03*
X47244Y69036D02*
D03*
X113780D02*
D03*
X180315D02*
D03*
X246850D02*
D03*
X313386D02*
D03*
X379921D02*
D03*
X47244Y115886D02*
D03*
X113780D02*
D03*
X180315D02*
D03*
X246850D02*
D03*
X313386D02*
D03*
X379921D02*
D03*
X47244Y162736D02*
D03*
X113780D02*
D03*
X180315D02*
D03*
X246850D02*
D03*
X313386D02*
D03*
X379921D02*
D03*
X47244Y209587D02*
D03*
X113780D02*
D03*
X180315D02*
D03*
X246850D02*
D03*
X313386D02*
D03*
X379921D02*
D03*
X47244Y256437D02*
D03*
X113780D02*
D03*
X180315D02*
D03*
X246850D02*
D03*
X313386D02*
D03*
X379921D02*
D03*
X47244Y303287D02*
D03*
X113780D02*
D03*
X180315D02*
D03*
X246850D02*
D03*
X313386D02*
D03*
X379921D02*
D03*
X47244Y350138D02*
D03*
X113780D02*
D03*
X180315D02*
D03*
X246850D02*
D03*
X313386D02*
D03*
X379921D02*
D03*
D17*
X31496Y31496D02*
D03*
X98032D02*
D03*
X164567D02*
D03*
X231102D02*
D03*
X297638D02*
D03*
X364173D02*
D03*
X31496Y78347D02*
D03*
X98032D02*
D03*
X164567D02*
D03*
X231102D02*
D03*
X297638D02*
D03*
X364173D02*
D03*
X31496Y125197D02*
D03*
X98032D02*
D03*
X164567D02*
D03*
X231102D02*
D03*
X297638D02*
D03*
X364173D02*
D03*
X31496Y172047D02*
D03*
X98032D02*
D03*
X164567D02*
D03*
X231102D02*
D03*
X297638D02*
D03*
X364173D02*
D03*
X31496Y218898D02*
D03*
X98032D02*
D03*
X164567D02*
D03*
X231102D02*
D03*
X297638D02*
D03*
X364173D02*
D03*
X31496Y265748D02*
D03*
X98032D02*
D03*
X164567D02*
D03*
X231102D02*
D03*
X297638D02*
D03*
X364173D02*
D03*
X31496Y312598D02*
D03*
X98032D02*
D03*
X164567D02*
D03*
X231102D02*
D03*
X297638D02*
D03*
X364173D02*
D03*
X31496Y359449D02*
D03*
X98032D02*
D03*
X164567D02*
D03*
X231102D02*
D03*
X297638D02*
D03*
X364173D02*
D03*
D18*
X31496Y23622D02*
D03*
Y15748D02*
D03*
Y7874D02*
D03*
X98032Y23622D02*
D03*
Y15748D02*
D03*
Y7874D02*
D03*
X164567Y23622D02*
D03*
Y15748D02*
D03*
Y7874D02*
D03*
X231102Y23622D02*
D03*
Y15748D02*
D03*
Y7874D02*
D03*
X297638Y23622D02*
D03*
Y15748D02*
D03*
Y7874D02*
D03*
X364173Y23622D02*
D03*
Y15748D02*
D03*
Y7874D02*
D03*
X31496Y70473D02*
D03*
Y62599D02*
D03*
Y54725D02*
D03*
X98032Y70473D02*
D03*
Y62599D02*
D03*
Y54725D02*
D03*
X164567Y70473D02*
D03*
Y62599D02*
D03*
Y54725D02*
D03*
X231102Y70473D02*
D03*
Y62599D02*
D03*
Y54725D02*
D03*
X297638Y70473D02*
D03*
Y62599D02*
D03*
Y54725D02*
D03*
X364173Y70473D02*
D03*
Y62599D02*
D03*
Y54725D02*
D03*
X31496Y117323D02*
D03*
Y109449D02*
D03*
Y101575D02*
D03*
X98032Y117323D02*
D03*
Y109449D02*
D03*
Y101575D02*
D03*
X164567Y117323D02*
D03*
Y109449D02*
D03*
Y101575D02*
D03*
X231102Y117323D02*
D03*
Y109449D02*
D03*
Y101575D02*
D03*
X297638Y117323D02*
D03*
Y109449D02*
D03*
Y101575D02*
D03*
X364173Y117323D02*
D03*
Y109449D02*
D03*
Y101575D02*
D03*
X31496Y164173D02*
D03*
Y156299D02*
D03*
Y148425D02*
D03*
X98032Y164173D02*
D03*
Y156299D02*
D03*
Y148425D02*
D03*
X164567Y164173D02*
D03*
Y156299D02*
D03*
Y148425D02*
D03*
X231102Y164173D02*
D03*
Y156299D02*
D03*
Y148425D02*
D03*
X297638Y164173D02*
D03*
Y156299D02*
D03*
Y148425D02*
D03*
X364173Y164173D02*
D03*
Y156299D02*
D03*
Y148425D02*
D03*
X31496Y211024D02*
D03*
Y203150D02*
D03*
Y195276D02*
D03*
X98032Y211024D02*
D03*
Y203150D02*
D03*
Y195276D02*
D03*
X164567Y211024D02*
D03*
Y203150D02*
D03*
Y195276D02*
D03*
X231102Y211024D02*
D03*
Y203150D02*
D03*
Y195276D02*
D03*
X297638Y211024D02*
D03*
Y203150D02*
D03*
Y195276D02*
D03*
X364173Y211024D02*
D03*
Y203150D02*
D03*
Y195276D02*
D03*
X31496Y257874D02*
D03*
Y250000D02*
D03*
Y242126D02*
D03*
X98032Y257874D02*
D03*
Y250000D02*
D03*
Y242126D02*
D03*
X164567Y257874D02*
D03*
Y250000D02*
D03*
Y242126D02*
D03*
X231102Y257874D02*
D03*
Y250000D02*
D03*
Y242126D02*
D03*
X297638Y257874D02*
D03*
Y250000D02*
D03*
Y242126D02*
D03*
X364173Y257874D02*
D03*
Y250000D02*
D03*
Y242126D02*
D03*
X31496Y304724D02*
D03*
Y296850D02*
D03*
Y288976D02*
D03*
X98032Y304724D02*
D03*
Y296850D02*
D03*
Y288976D02*
D03*
X164567Y304724D02*
D03*
Y296850D02*
D03*
Y288976D02*
D03*
X231102Y304724D02*
D03*
Y296850D02*
D03*
Y288976D02*
D03*
X297638Y304724D02*
D03*
Y296850D02*
D03*
Y288976D02*
D03*
X364173Y304724D02*
D03*
Y296850D02*
D03*
Y288976D02*
D03*
X31496Y351575D02*
D03*
Y343701D02*
D03*
Y335827D02*
D03*
X98032Y351575D02*
D03*
Y343701D02*
D03*
Y335827D02*
D03*
X164567Y351575D02*
D03*
Y343701D02*
D03*
Y335827D02*
D03*
X231102Y351575D02*
D03*
Y343701D02*
D03*
Y335827D02*
D03*
X297638Y351575D02*
D03*
Y343701D02*
D03*
Y335827D02*
D03*
X364173Y351575D02*
D03*
Y343701D02*
D03*
Y335827D02*
D03*
D19*
X7874Y19685D02*
D03*
X74410D02*
D03*
X140945D02*
D03*
X207480D02*
D03*
X274016D02*
D03*
X340551D02*
D03*
X7874Y66536D02*
D03*
X74410D02*
D03*
X140945D02*
D03*
X207480D02*
D03*
X274016D02*
D03*
X340551D02*
D03*
X7874Y113386D02*
D03*
X74410D02*
D03*
X140945D02*
D03*
X207480D02*
D03*
X274016D02*
D03*
X340551D02*
D03*
X7874Y160236D02*
D03*
X74410D02*
D03*
X140945D02*
D03*
X207480D02*
D03*
X274016D02*
D03*
X340551D02*
D03*
X7874Y207087D02*
D03*
X74410D02*
D03*
X140945D02*
D03*
X207480D02*
D03*
X274016D02*
D03*
X340551D02*
D03*
X7874Y253937D02*
D03*
X74410D02*
D03*
X140945D02*
D03*
X207480D02*
D03*
X274016D02*
D03*
X340551D02*
D03*
X7874Y300787D02*
D03*
X74410D02*
D03*
X140945D02*
D03*
X207480D02*
D03*
X274016D02*
D03*
X340551D02*
D03*
X7874Y347638D02*
D03*
X74410D02*
D03*
X140945D02*
D03*
X207480D02*
D03*
X274016D02*
D03*
X340551D02*
D03*
M02*
