M48
;Layer_Color=9474304
;FILE_FORMAT=2:5
INCH,LZ
;TYPE=PLATED
T1F00S00C0.02756
T2F00S00C0.03543
;TYPE=NON_PLATED
T3F00S00C0.09843
%
T01
X0031496Y0007874
Y0015748
Y0023622
Y0031496
Y0054725
Y0062599
Y0070473
Y0078347
Y0101575
X0098032
Y0078347
Y0070473
Y0062599
Y0054725
Y0031496
Y0023622
Y0015748
Y0007874
X0164567
Y0015748
Y0023622
Y0031496
Y0054725
Y0062599
Y0070473
Y0078347
Y0101575
X0231102
Y0078347
Y0070473
Y0062599
Y0054725
Y0031496
Y0023622
Y0015748
Y0007874
X0297638
Y0015748
Y0023622
Y0031496
Y0054725
Y0062599
Y0070473
Y0078347
Y0101575
X0364173
Y0078347
Y0070473
Y0062599
Y0054725
Y0031496
Y0023622
Y0015748
Y0007874
Y0109449
Y0117323
Y0125197
Y0148425
Y0156299
Y0164173
Y0172047
Y0195276
Y020315
Y0211024
Y0218898
Y0242126
Y025
Y0257874
X0297638
Y025
Y0242126
Y0218898
Y0211024
Y020315
Y0195276
Y0172047
Y0164173
Y0156299
Y0148425
Y0125197
Y0117323
Y0109449
X0231102
Y0117323
Y0125197
Y0148425
Y0156299
Y0164173
Y0172047
Y0195276
Y020315
Y0211024
Y0218898
Y0242126
Y025
Y0257874
X0164567
Y025
Y0242126
Y0218898
Y0211024
Y020315
Y0195276
Y0172047
Y0164173
Y0156299
Y0148425
Y0125197
Y0117323
Y0109449
X0098032
Y0117323
Y0125197
Y0148425
Y0156299
Y0164173
Y0172047
Y0195276
Y020315
Y0211024
Y0218898
Y0242126
Y025
Y0257874
X0031496
Y025
Y0242126
Y0218898
Y0211024
Y020315
Y0195276
Y0172047
Y0164173
Y0156299
Y0148425
Y0125197
Y0117323
Y0109449
Y0265748
Y0288976
Y029685
Y0304724
Y0312598
Y0335827
Y0343701
Y0351575
Y0359449
X0098032
Y0351575
Y0343701
Y0335827
Y0312598
Y0304724
Y029685
Y0288976
Y0265748
X0164567
Y0288976
Y029685
Y0304724
Y0312598
Y0335827
Y0343701
Y0351575
Y0359449
X0231102
Y0351575
Y0343701
Y0335827
Y0312598
Y0304724
Y029685
Y0288976
Y0265748
X0297638
Y0288976
Y029685
Y0304724
Y0312598
Y0335827
Y0343701
Y0351575
Y0359449
X0364173
Y0351575
Y0343701
Y0335827
Y0312598
Y0304724
Y029685
Y0288976
Y0265748
T02
X0047244Y0012185
Y0017185
Y0022185
Y0027185
Y0059035
Y0064035
Y0069036
Y0074036
X011378
Y0069036
Y0064035
Y0059035
Y0027185
Y0022185
Y0017185
Y0012185
X0180315
Y0017185
Y0022185
Y0027185
Y0059035
Y0064035
Y0069036
Y0074036
X024685
Y0069036
Y0064035
Y0059035
Y0027185
Y0022185
Y0017185
Y0012185
X0313386
Y0017185
Y0022185
Y0027185
Y0059035
Y0064035
Y0069036
Y0074036
X0379921
Y0069036
Y0064035
Y0059035
Y0027185
Y0022185
Y0017185
Y0012185
Y0105886
Y0110886
Y0115886
Y0120886
Y0152736
Y0157736
Y0162736
Y0167736
Y0199587
Y0204587
Y0209587
Y0214587
Y0246437
Y0251437
Y0256437
X0313386
Y0251437
Y0246437
Y0214587
Y0209587
Y0204587
Y0199587
Y0167736
Y0162736
Y0157736
Y0152736
Y0120886
Y0115886
Y0110886
Y0105886
X024685
Y0110886
Y0115886
Y0120886
Y0152736
Y0157736
Y0162736
Y0167736
Y0199587
Y0204587
Y0209587
Y0214587
Y0246437
Y0251437
Y0256437
X0180315
Y0251437
Y0246437
Y0214587
Y0209587
Y0204587
Y0199587
Y0167736
Y0162736
Y0157736
Y0152736
Y0120886
Y0115886
Y0110886
Y0105886
X011378
Y0110886
Y0115886
Y0120886
Y0152736
Y0157736
Y0162736
Y0167736
Y0199587
Y0204587
Y0209587
Y0214587
Y0246437
Y0251437
Y0256437
X0047244
Y0251437
Y0246437
Y0214587
Y0209587
Y0204587
Y0199587
Y0167736
Y0162736
Y0157736
Y0152736
Y0120886
Y0115886
Y0110886
Y0105886
Y0261437
Y0293287
Y0298287
Y0303287
Y0308287
Y0340138
Y0345138
Y0350138
Y0355138
X011378
Y0350138
Y0345138
Y0340138
Y0308287
Y0303287
Y0298287
Y0293287
Y0261437
X0180315
Y0293287
Y0298287
Y0303287
Y0308287
Y0340138
Y0345138
Y0350138
Y0355138
X024685
Y0350138
Y0345138
Y0340138
Y0308287
Y0303287
Y0298287
Y0293287
Y0261437
X0313386
Y0293287
Y0298287
Y0303287
Y0308287
Y0340138
Y0345138
Y0350138
Y0355138
X0379921
Y0350138
Y0345138
Y0340138
Y0308287
Y0303287
Y0298287
Y0293287
Y0261437
T03
X0007874Y0019685
Y0066536
X007441
Y0019685
X0140945
Y0066536
X020748
Y0019685
X0274016
Y0066536
X0340551
Y0019685
Y0113386
Y0160236
Y0207087
Y0253937
X0274016
Y0207087
Y0160236
Y0113386
X020748
Y0160236
Y0207087
Y0253937
X0140945
Y0207087
Y0160236
Y0113386
X007441
Y0160236
Y0207087
Y0253937
X0007874
Y0207087
Y0160236
Y0113386
Y0300787
Y0347638
X007441
Y0300787
X0140945
Y0347638
X020748
Y0300787
X0274016
Y0347638
X0340551
Y0300787
M30
