G75*
G70*
%OFA0B0*%
%FSLAX24Y24*%
%IPPOS*%
%LPD*%
%AMOC8*
5,1,8,0,0,1.08239X$1,22.5*
%
%ADD10C,0.0000*%
%ADD11C,0.0100*%
%ADD12C,0.0080*%
%ADD13C,0.0010*%
D10*
X000326Y000188D02*
X000326Y028617D01*
X036598Y028617D01*
X036598Y000188D01*
X000326Y000188D01*
X001098Y001688D02*
X001100Y001738D01*
X001106Y001788D01*
X001116Y001837D01*
X001130Y001885D01*
X001147Y001932D01*
X001168Y001977D01*
X001193Y002021D01*
X001221Y002062D01*
X001253Y002101D01*
X001287Y002138D01*
X001324Y002172D01*
X001364Y002202D01*
X001406Y002229D01*
X001450Y002253D01*
X001496Y002274D01*
X001543Y002290D01*
X001591Y002303D01*
X001641Y002312D01*
X001690Y002317D01*
X001741Y002318D01*
X001791Y002315D01*
X001840Y002308D01*
X001889Y002297D01*
X001937Y002282D01*
X001983Y002264D01*
X002028Y002242D01*
X002071Y002216D01*
X002112Y002187D01*
X002151Y002155D01*
X002187Y002120D01*
X002219Y002082D01*
X002249Y002042D01*
X002276Y001999D01*
X002299Y001955D01*
X002318Y001909D01*
X002334Y001861D01*
X002346Y001812D01*
X002354Y001763D01*
X002358Y001713D01*
X002358Y001663D01*
X002354Y001613D01*
X002346Y001564D01*
X002334Y001515D01*
X002318Y001467D01*
X002299Y001421D01*
X002276Y001377D01*
X002249Y001334D01*
X002219Y001294D01*
X002187Y001256D01*
X002151Y001221D01*
X002112Y001189D01*
X002071Y001160D01*
X002028Y001134D01*
X001983Y001112D01*
X001937Y001094D01*
X001889Y001079D01*
X001840Y001068D01*
X001791Y001061D01*
X001741Y001058D01*
X001690Y001059D01*
X001641Y001064D01*
X001591Y001073D01*
X001543Y001086D01*
X001496Y001102D01*
X001450Y001123D01*
X001406Y001147D01*
X001364Y001174D01*
X001324Y001204D01*
X001287Y001238D01*
X001253Y001275D01*
X001221Y001314D01*
X001193Y001355D01*
X001168Y001399D01*
X001147Y001444D01*
X001130Y001491D01*
X001116Y001539D01*
X001106Y001588D01*
X001100Y001638D01*
X001098Y001688D01*
X012072Y026853D02*
X012072Y027294D01*
X012293Y027514D01*
X012513Y027294D01*
X012513Y026853D01*
X012513Y027184D02*
X012072Y027184D01*
X013314Y026963D02*
X013314Y026853D01*
X013424Y026853D01*
X013424Y026963D01*
X013314Y026963D01*
X013592Y027294D02*
X013812Y026853D01*
X014032Y027294D01*
X014199Y027184D02*
X014199Y027073D01*
X014640Y027073D01*
X014640Y026963D02*
X014640Y027184D01*
X014530Y027294D01*
X014310Y027294D01*
X014199Y027184D01*
X014310Y026853D02*
X014530Y026853D01*
X014640Y026963D01*
X014816Y027294D02*
X014926Y027294D01*
X015146Y027073D01*
X015146Y026853D02*
X015146Y027294D01*
X015921Y026853D02*
X016362Y026853D01*
X016555Y026853D02*
X016666Y026853D01*
X016666Y026963D01*
X016555Y026963D01*
X016555Y026853D01*
X016833Y026853D02*
X017273Y026853D01*
X017053Y026853D02*
X017053Y027514D01*
X017273Y027294D01*
X018048Y027184D02*
X018048Y026853D01*
X018048Y027184D02*
X018158Y027294D01*
X018489Y027294D01*
X018489Y026853D01*
X018656Y026963D02*
X018656Y027184D01*
X018766Y027294D01*
X018986Y027294D01*
X019096Y027184D01*
X019096Y026963D01*
X018986Y026853D01*
X018766Y026853D01*
X018656Y026963D01*
X019281Y026853D02*
X019502Y026853D01*
X019392Y026853D02*
X019392Y027294D01*
X019502Y027294D01*
X019669Y027294D02*
X019999Y027294D01*
X020109Y027184D01*
X019999Y027073D01*
X019779Y027073D01*
X019669Y026963D01*
X019779Y026853D01*
X020109Y026853D01*
X020285Y027294D02*
X020396Y027294D01*
X020616Y027073D01*
X020783Y027073D02*
X020783Y027184D01*
X020893Y027294D01*
X021113Y027294D01*
X021223Y027184D01*
X021223Y026963D01*
X021113Y026853D01*
X020893Y026853D01*
X020783Y027073D02*
X021223Y027073D01*
X021391Y027294D02*
X021611Y026853D01*
X021831Y027294D01*
X022606Y027184D02*
X023047Y027184D01*
X023830Y027294D02*
X023941Y027294D01*
X024161Y027073D01*
X024328Y027073D02*
X024328Y027184D01*
X024438Y027294D01*
X024658Y027294D01*
X024768Y027184D01*
X024768Y026963D01*
X024658Y026853D01*
X024438Y026853D01*
X024328Y027073D02*
X024768Y027073D01*
X024953Y026853D02*
X025174Y026853D01*
X025064Y026853D02*
X025064Y027514D01*
X025174Y027514D01*
X025469Y027514D02*
X025469Y026853D01*
X025579Y026853D02*
X025359Y026853D01*
X025746Y026963D02*
X025746Y027184D01*
X025856Y027294D01*
X026076Y027294D01*
X026187Y027184D01*
X026187Y026963D01*
X026076Y026853D01*
X025856Y026853D01*
X025746Y026963D01*
X025579Y027514D02*
X025469Y027514D01*
X026363Y027294D02*
X026473Y027294D01*
X026693Y027073D01*
X026693Y026853D02*
X026693Y027294D01*
X026878Y027294D02*
X027098Y027294D01*
X026988Y027404D02*
X026988Y026963D01*
X026878Y026853D01*
X027265Y026853D02*
X027265Y027184D01*
X027376Y027294D01*
X027706Y027294D01*
X027706Y026853D01*
X027873Y026963D02*
X027873Y027184D01*
X027983Y027294D01*
X028203Y027294D01*
X028314Y027184D01*
X028314Y026963D01*
X028203Y026853D01*
X027983Y026853D01*
X027873Y026963D01*
X028481Y026963D02*
X028591Y026853D01*
X028811Y026853D01*
X028921Y026963D01*
X028921Y027404D01*
X028811Y027514D01*
X028591Y027514D01*
X028481Y027404D01*
X029696Y027514D02*
X029696Y026853D01*
X030027Y026853D01*
X030137Y026963D01*
X030137Y027184D01*
X030027Y027294D01*
X029696Y027294D01*
X030304Y027184D02*
X030304Y027073D01*
X030744Y027073D01*
X030744Y026963D02*
X030744Y027184D01*
X030634Y027294D01*
X030414Y027294D01*
X030304Y027184D01*
X030414Y026853D02*
X030634Y026853D01*
X030744Y026963D01*
X030912Y026853D02*
X031352Y026853D01*
X031352Y027514D01*
X032127Y027514D02*
X032568Y026853D01*
X032735Y026853D02*
X032735Y027514D01*
X032955Y027294D01*
X033175Y027514D01*
X033175Y026853D01*
X033343Y026963D02*
X033343Y027404D01*
X033453Y027514D01*
X033783Y027514D01*
X033783Y026853D01*
X033453Y026853D01*
X033343Y026963D01*
X032568Y027514D02*
X032127Y026853D01*
X034531Y027247D02*
X034533Y027297D01*
X034539Y027347D01*
X034549Y027396D01*
X034563Y027444D01*
X034580Y027491D01*
X034601Y027536D01*
X034626Y027580D01*
X034654Y027621D01*
X034686Y027660D01*
X034720Y027697D01*
X034757Y027731D01*
X034797Y027761D01*
X034839Y027788D01*
X034883Y027812D01*
X034929Y027833D01*
X034976Y027849D01*
X035024Y027862D01*
X035074Y027871D01*
X035123Y027876D01*
X035174Y027877D01*
X035224Y027874D01*
X035273Y027867D01*
X035322Y027856D01*
X035370Y027841D01*
X035416Y027823D01*
X035461Y027801D01*
X035504Y027775D01*
X035545Y027746D01*
X035584Y027714D01*
X035620Y027679D01*
X035652Y027641D01*
X035682Y027601D01*
X035709Y027558D01*
X035732Y027514D01*
X035751Y027468D01*
X035767Y027420D01*
X035779Y027371D01*
X035787Y027322D01*
X035791Y027272D01*
X035791Y027222D01*
X035787Y027172D01*
X035779Y027123D01*
X035767Y027074D01*
X035751Y027026D01*
X035732Y026980D01*
X035709Y026936D01*
X035682Y026893D01*
X035652Y026853D01*
X035620Y026815D01*
X035584Y026780D01*
X035545Y026748D01*
X035504Y026719D01*
X035461Y026693D01*
X035416Y026671D01*
X035370Y026653D01*
X035322Y026638D01*
X035273Y026627D01*
X035224Y026620D01*
X035174Y026617D01*
X035123Y026618D01*
X035074Y026623D01*
X035024Y026632D01*
X034976Y026645D01*
X034929Y026661D01*
X034883Y026682D01*
X034839Y026706D01*
X034797Y026733D01*
X034757Y026763D01*
X034720Y026797D01*
X034686Y026834D01*
X034654Y026873D01*
X034626Y026914D01*
X034601Y026958D01*
X034580Y027003D01*
X034563Y027050D01*
X034549Y027098D01*
X034539Y027147D01*
X034533Y027197D01*
X034531Y027247D01*
X024161Y027294D02*
X024161Y026853D01*
X020616Y026853D02*
X020616Y027294D01*
X019392Y027514D02*
X019392Y027624D01*
X016362Y027294D02*
X016142Y027514D01*
X016142Y026853D01*
X001066Y027247D02*
X001068Y027297D01*
X001074Y027347D01*
X001084Y027396D01*
X001098Y027444D01*
X001115Y027491D01*
X001136Y027536D01*
X001161Y027580D01*
X001189Y027621D01*
X001221Y027660D01*
X001255Y027697D01*
X001292Y027731D01*
X001332Y027761D01*
X001374Y027788D01*
X001418Y027812D01*
X001464Y027833D01*
X001511Y027849D01*
X001559Y027862D01*
X001609Y027871D01*
X001658Y027876D01*
X001709Y027877D01*
X001759Y027874D01*
X001808Y027867D01*
X001857Y027856D01*
X001905Y027841D01*
X001951Y027823D01*
X001996Y027801D01*
X002039Y027775D01*
X002080Y027746D01*
X002119Y027714D01*
X002155Y027679D01*
X002187Y027641D01*
X002217Y027601D01*
X002244Y027558D01*
X002267Y027514D01*
X002286Y027468D01*
X002302Y027420D01*
X002314Y027371D01*
X002322Y027322D01*
X002326Y027272D01*
X002326Y027222D01*
X002322Y027172D01*
X002314Y027123D01*
X002302Y027074D01*
X002286Y027026D01*
X002267Y026980D01*
X002244Y026936D01*
X002217Y026893D01*
X002187Y026853D01*
X002155Y026815D01*
X002119Y026780D01*
X002080Y026748D01*
X002039Y026719D01*
X001996Y026693D01*
X001951Y026671D01*
X001905Y026653D01*
X001857Y026638D01*
X001808Y026627D01*
X001759Y026620D01*
X001709Y026617D01*
X001658Y026618D01*
X001609Y026623D01*
X001559Y026632D01*
X001511Y026645D01*
X001464Y026661D01*
X001418Y026682D01*
X001374Y026706D01*
X001332Y026733D01*
X001292Y026763D01*
X001255Y026797D01*
X001221Y026834D01*
X001189Y026873D01*
X001161Y026914D01*
X001136Y026958D01*
X001115Y027003D01*
X001098Y027050D01*
X001084Y027098D01*
X001074Y027147D01*
X001068Y027197D01*
X001066Y027247D01*
X034598Y001688D02*
X034600Y001738D01*
X034606Y001788D01*
X034616Y001837D01*
X034630Y001885D01*
X034647Y001932D01*
X034668Y001977D01*
X034693Y002021D01*
X034721Y002062D01*
X034753Y002101D01*
X034787Y002138D01*
X034824Y002172D01*
X034864Y002202D01*
X034906Y002229D01*
X034950Y002253D01*
X034996Y002274D01*
X035043Y002290D01*
X035091Y002303D01*
X035141Y002312D01*
X035190Y002317D01*
X035241Y002318D01*
X035291Y002315D01*
X035340Y002308D01*
X035389Y002297D01*
X035437Y002282D01*
X035483Y002264D01*
X035528Y002242D01*
X035571Y002216D01*
X035612Y002187D01*
X035651Y002155D01*
X035687Y002120D01*
X035719Y002082D01*
X035749Y002042D01*
X035776Y001999D01*
X035799Y001955D01*
X035818Y001909D01*
X035834Y001861D01*
X035846Y001812D01*
X035854Y001763D01*
X035858Y001713D01*
X035858Y001663D01*
X035854Y001613D01*
X035846Y001564D01*
X035834Y001515D01*
X035818Y001467D01*
X035799Y001421D01*
X035776Y001377D01*
X035749Y001334D01*
X035719Y001294D01*
X035687Y001256D01*
X035651Y001221D01*
X035612Y001189D01*
X035571Y001160D01*
X035528Y001134D01*
X035483Y001112D01*
X035437Y001094D01*
X035389Y001079D01*
X035340Y001068D01*
X035291Y001061D01*
X035241Y001058D01*
X035190Y001059D01*
X035141Y001064D01*
X035091Y001073D01*
X035043Y001086D01*
X034996Y001102D01*
X034950Y001123D01*
X034906Y001147D01*
X034864Y001174D01*
X034824Y001204D01*
X034787Y001238D01*
X034753Y001275D01*
X034721Y001314D01*
X034693Y001355D01*
X034668Y001399D01*
X034647Y001444D01*
X034630Y001491D01*
X034616Y001539D01*
X034606Y001588D01*
X034600Y001638D01*
X034598Y001688D01*
D11*
X033930Y001364D02*
X033780Y001214D01*
X033479Y001214D01*
X033329Y001364D01*
X033329Y002115D01*
X033009Y002115D02*
X033009Y001214D01*
X033009Y001515D02*
X032409Y002115D01*
X032088Y001815D02*
X031788Y002115D01*
X031488Y001815D01*
X031488Y001214D01*
X031167Y001214D02*
X030567Y001815D01*
X030567Y001965D01*
X030717Y002115D01*
X031017Y002115D01*
X031167Y001965D01*
X031488Y001665D02*
X032088Y001665D01*
X032088Y001815D02*
X032088Y001214D01*
X032409Y001214D02*
X032859Y001665D01*
X033930Y001364D02*
X033930Y002115D01*
X031167Y001214D02*
X030567Y001214D01*
X030247Y001364D02*
X029646Y001965D01*
X029646Y001364D01*
X029796Y001214D01*
X030097Y001214D01*
X030247Y001364D01*
X030247Y001965D01*
X030097Y002115D01*
X029796Y002115D01*
X029646Y001965D01*
X029326Y001815D02*
X029026Y002115D01*
X029026Y001214D01*
X029326Y001214D02*
X028725Y001214D01*
X028405Y001364D02*
X028255Y001214D01*
X027955Y001214D01*
X027805Y001364D01*
X027805Y001515D01*
X027955Y001665D01*
X028105Y001665D01*
X027955Y001665D02*
X027805Y001815D01*
X027805Y001965D01*
X027955Y002115D01*
X028255Y002115D01*
X028405Y001965D01*
D12*
X027933Y005452D02*
X026122Y005452D01*
X026122Y006475D01*
X027933Y006475D01*
X027933Y005452D01*
X028287Y005491D02*
X030098Y005491D01*
X030098Y006515D01*
X028287Y006515D01*
X028287Y005491D01*
X030452Y005530D02*
X032263Y005530D01*
X032263Y006554D01*
X030452Y006554D01*
X030452Y005530D01*
X021645Y005530D02*
X019834Y005530D01*
X019834Y006554D01*
X021645Y006554D01*
X021645Y005530D01*
X019480Y005491D02*
X017669Y005491D01*
X017669Y006515D01*
X019480Y006515D01*
X019480Y005491D01*
X017314Y005452D02*
X015503Y005452D01*
X015503Y006475D01*
X017314Y006475D01*
X017314Y005452D01*
X011141Y005417D02*
X009330Y005417D01*
X009330Y006440D01*
X011141Y006440D01*
X011141Y005417D01*
X008975Y005417D02*
X007164Y005417D01*
X007164Y006440D01*
X008975Y006440D01*
X008975Y005417D01*
X006811Y005416D02*
X005000Y005416D01*
X005000Y006440D01*
X006811Y006440D01*
X006811Y005416D01*
X006377Y022448D02*
X008189Y022448D01*
X008189Y023471D01*
X006377Y023471D01*
X006377Y022448D01*
X008444Y022389D02*
X010255Y022389D01*
X010255Y023412D01*
X008444Y023412D01*
X008444Y022389D01*
X010708Y022428D02*
X012519Y022428D01*
X012519Y023452D01*
X010708Y023452D01*
X010708Y022428D01*
X017252Y022365D02*
X019063Y022365D01*
X019063Y023389D01*
X017252Y023389D01*
X017252Y022365D01*
X019318Y022364D02*
X021129Y022364D01*
X021129Y023388D01*
X019318Y023388D01*
X019318Y022364D01*
X021386Y022365D02*
X023197Y022365D01*
X023197Y023389D01*
X021386Y023389D01*
X021386Y022365D01*
X027858Y022404D02*
X029669Y022404D01*
X029669Y023428D01*
X027858Y023428D01*
X027858Y022404D01*
X029925Y022404D02*
X031736Y022404D01*
X031736Y023428D01*
X029925Y023428D01*
X029925Y022404D01*
X031992Y022404D02*
X033803Y022404D01*
X033803Y023428D01*
X031992Y023428D01*
X031992Y022404D01*
D13*
X031669Y023617D02*
X031694Y023643D01*
X031694Y023743D01*
X031669Y023768D01*
X031618Y023768D01*
X031593Y023743D01*
X031593Y023643D01*
X031618Y023617D01*
X031669Y023617D01*
X031644Y023668D02*
X031593Y023617D01*
X031546Y023617D02*
X031446Y023617D01*
X031399Y023617D02*
X031399Y023643D01*
X031299Y023743D01*
X031299Y023768D01*
X031399Y023768D01*
X031496Y023768D02*
X031496Y023617D01*
X031546Y023718D02*
X031496Y023768D01*
X029627Y023743D02*
X029627Y023643D01*
X029602Y023617D01*
X029552Y023617D01*
X029527Y023643D01*
X029527Y023743D01*
X029552Y023768D01*
X029602Y023768D01*
X029627Y023743D01*
X029577Y023668D02*
X029527Y023617D01*
X029479Y023617D02*
X029379Y023617D01*
X029429Y023617D02*
X029429Y023768D01*
X029479Y023718D01*
X029332Y023718D02*
X029332Y023743D01*
X029307Y023768D01*
X029257Y023768D01*
X029232Y023743D01*
X029232Y023718D01*
X029257Y023693D01*
X029307Y023693D01*
X029332Y023718D01*
X029307Y023693D02*
X029332Y023668D01*
X029332Y023643D01*
X029307Y023617D01*
X029257Y023617D01*
X029232Y023643D01*
X029232Y023668D01*
X029257Y023693D01*
X033366Y023643D02*
X033366Y023668D01*
X033391Y023693D01*
X033466Y023693D01*
X033466Y023643D01*
X033441Y023617D01*
X033391Y023617D01*
X033366Y023643D01*
X033416Y023743D02*
X033466Y023693D01*
X033416Y023743D02*
X033366Y023768D01*
X033563Y023768D02*
X033563Y023617D01*
X033613Y023617D02*
X033513Y023617D01*
X033613Y023718D02*
X033563Y023768D01*
X033660Y023743D02*
X033660Y023643D01*
X033685Y023617D01*
X033735Y023617D01*
X033760Y023643D01*
X033760Y023743D01*
X033735Y023768D01*
X033685Y023768D01*
X033660Y023743D01*
X033710Y023668D02*
X033660Y023617D01*
X023170Y023568D02*
X023145Y023543D01*
X023095Y023543D01*
X023070Y023568D01*
X023070Y023668D01*
X023095Y023693D01*
X023145Y023693D01*
X023170Y023668D01*
X023170Y023568D01*
X023120Y023593D02*
X023070Y023543D01*
X023023Y023543D02*
X022923Y023543D01*
X022973Y023543D02*
X022973Y023693D01*
X023023Y023643D01*
X022875Y023668D02*
X022850Y023693D01*
X022800Y023693D01*
X022775Y023668D01*
X022775Y023643D01*
X022800Y023618D01*
X022775Y023593D01*
X022775Y023568D01*
X022800Y023543D01*
X022850Y023543D01*
X022875Y023568D01*
X022825Y023618D02*
X022800Y023618D01*
X021104Y023567D02*
X021104Y023667D01*
X021079Y023692D01*
X021029Y023692D01*
X021004Y023667D01*
X021004Y023567D01*
X021029Y023542D01*
X021079Y023542D01*
X021104Y023567D01*
X021054Y023592D02*
X021004Y023542D01*
X020956Y023542D02*
X020856Y023542D01*
X020906Y023542D02*
X020906Y023692D01*
X020956Y023642D01*
X020809Y023617D02*
X020709Y023617D01*
X020734Y023542D02*
X020734Y023692D01*
X020809Y023617D01*
X019036Y023568D02*
X019011Y023543D01*
X018961Y023543D01*
X018936Y023568D01*
X018936Y023668D01*
X018961Y023693D01*
X019011Y023693D01*
X019036Y023668D01*
X019036Y023568D01*
X018986Y023593D02*
X018936Y023543D01*
X018889Y023543D02*
X018789Y023543D01*
X018839Y023543D02*
X018839Y023693D01*
X018889Y023643D01*
X018742Y023618D02*
X018742Y023693D01*
X018641Y023693D01*
X018666Y023643D02*
X018641Y023618D01*
X018641Y023568D01*
X018666Y023543D01*
X018717Y023543D01*
X018742Y023568D01*
X018742Y023618D02*
X018691Y023643D01*
X018666Y023643D01*
X012575Y023619D02*
X012550Y023594D01*
X012500Y023594D01*
X012475Y023619D01*
X012475Y023719D01*
X012500Y023744D01*
X012550Y023744D01*
X012575Y023719D01*
X012575Y023619D01*
X012525Y023644D02*
X012475Y023594D01*
X012428Y023594D02*
X012328Y023594D01*
X012378Y023594D02*
X012378Y023744D01*
X012428Y023694D01*
X012281Y023719D02*
X012256Y023744D01*
X012206Y023744D01*
X012181Y023719D01*
X012281Y023619D01*
X012256Y023594D01*
X012206Y023594D01*
X012181Y023619D01*
X012181Y023719D01*
X012281Y023719D02*
X012281Y023619D01*
X010253Y023619D02*
X010228Y023594D01*
X010178Y023594D01*
X010153Y023619D01*
X010153Y023719D01*
X010178Y023744D01*
X010228Y023744D01*
X010253Y023719D01*
X010253Y023619D01*
X010203Y023644D02*
X010153Y023594D01*
X010105Y023594D02*
X010005Y023594D01*
X009958Y023594D02*
X009858Y023594D01*
X009908Y023594D02*
X009908Y023744D01*
X009958Y023694D01*
X010055Y023744D02*
X010055Y023594D01*
X010105Y023694D02*
X010055Y023744D01*
X008225Y023719D02*
X008225Y023619D01*
X008200Y023594D01*
X008150Y023594D01*
X008125Y023619D01*
X008125Y023719D01*
X008150Y023744D01*
X008200Y023744D01*
X008225Y023719D01*
X008175Y023644D02*
X008125Y023594D01*
X008078Y023594D02*
X007978Y023594D01*
X007930Y023594D02*
X007830Y023694D01*
X007830Y023719D01*
X007855Y023744D01*
X007905Y023744D01*
X007930Y023719D01*
X008028Y023744D02*
X008028Y023594D01*
X007930Y023594D02*
X007830Y023594D01*
X008028Y023744D02*
X008078Y023694D01*
X007450Y005262D02*
X007400Y005262D01*
X007375Y005237D01*
X007375Y005137D01*
X007400Y005112D01*
X007450Y005112D01*
X007476Y005137D01*
X007476Y005237D01*
X007450Y005262D01*
X007425Y005162D02*
X007375Y005112D01*
X007328Y005112D02*
X007228Y005212D01*
X007228Y005237D01*
X007253Y005262D01*
X007303Y005262D01*
X007328Y005237D01*
X007328Y005112D02*
X007228Y005112D01*
X005311Y005137D02*
X005286Y005112D01*
X005236Y005112D01*
X005211Y005137D01*
X005211Y005237D01*
X005236Y005262D01*
X005286Y005262D01*
X005311Y005237D01*
X005311Y005137D01*
X005261Y005162D02*
X005211Y005112D01*
X005163Y005112D02*
X005063Y005112D01*
X005113Y005112D02*
X005113Y005262D01*
X005163Y005212D01*
X009394Y005212D02*
X009419Y005187D01*
X009394Y005162D01*
X009394Y005137D01*
X009419Y005112D01*
X009469Y005112D01*
X009494Y005137D01*
X009541Y005137D02*
X009566Y005112D01*
X009616Y005112D01*
X009641Y005137D01*
X009641Y005237D01*
X009616Y005262D01*
X009566Y005262D01*
X009541Y005237D01*
X009541Y005137D01*
X009541Y005112D02*
X009591Y005162D01*
X009494Y005237D02*
X009469Y005262D01*
X009419Y005262D01*
X009394Y005237D01*
X009394Y005212D01*
X009419Y005187D02*
X009444Y005187D01*
X015559Y005160D02*
X015659Y005160D01*
X015584Y005235D01*
X015584Y005085D01*
X015707Y005085D02*
X015757Y005135D01*
X015782Y005085D02*
X015807Y005110D01*
X015807Y005210D01*
X015782Y005235D01*
X015732Y005235D01*
X015707Y005210D01*
X015707Y005110D01*
X015732Y005085D01*
X015782Y005085D01*
X017784Y005208D02*
X017809Y005183D01*
X017859Y005183D01*
X017884Y005208D01*
X017931Y005208D02*
X017956Y005183D01*
X018006Y005183D01*
X018031Y005208D01*
X018031Y005308D01*
X018006Y005333D01*
X017956Y005333D01*
X017931Y005308D01*
X017931Y005208D01*
X017931Y005183D02*
X017981Y005233D01*
X017884Y005258D02*
X017834Y005283D01*
X017809Y005283D01*
X017784Y005258D01*
X017784Y005208D01*
X017884Y005258D02*
X017884Y005333D01*
X017784Y005333D01*
X019910Y005333D02*
X019960Y005308D01*
X020010Y005258D01*
X019935Y005258D01*
X019910Y005233D01*
X019910Y005208D01*
X019935Y005183D01*
X019985Y005183D01*
X020010Y005208D01*
X020010Y005258D01*
X020057Y005208D02*
X020082Y005183D01*
X020132Y005183D01*
X020157Y005208D01*
X020157Y005308D01*
X020132Y005333D01*
X020082Y005333D01*
X020057Y005308D01*
X020057Y005208D01*
X020057Y005183D02*
X020107Y005233D01*
X026288Y005296D02*
X026388Y005196D01*
X026388Y005171D01*
X026435Y005171D02*
X026485Y005221D01*
X026435Y005196D02*
X026460Y005171D01*
X026510Y005171D01*
X026535Y005196D01*
X026535Y005296D01*
X026510Y005321D01*
X026460Y005321D01*
X026435Y005296D01*
X026435Y005196D01*
X026388Y005321D02*
X026288Y005321D01*
X026288Y005296D01*
X028414Y005296D02*
X028414Y005271D01*
X028439Y005246D01*
X028489Y005246D01*
X028514Y005271D01*
X028514Y005296D01*
X028489Y005321D01*
X028439Y005321D01*
X028414Y005296D01*
X028439Y005246D02*
X028414Y005221D01*
X028414Y005196D01*
X028439Y005171D01*
X028489Y005171D01*
X028514Y005196D01*
X028514Y005221D01*
X028489Y005246D01*
X028561Y005196D02*
X028586Y005171D01*
X028636Y005171D01*
X028661Y005196D01*
X028661Y005296D01*
X028636Y005321D01*
X028586Y005321D01*
X028561Y005296D01*
X028561Y005196D01*
X028561Y005171D02*
X028611Y005221D01*
X030540Y005196D02*
X030565Y005171D01*
X030615Y005171D01*
X030640Y005196D01*
X030687Y005196D02*
X030712Y005171D01*
X030762Y005171D01*
X030787Y005196D01*
X030787Y005296D01*
X030762Y005321D01*
X030712Y005321D01*
X030687Y005296D01*
X030687Y005196D01*
X030687Y005171D02*
X030737Y005221D01*
X030640Y005271D02*
X030615Y005246D01*
X030540Y005246D01*
X030540Y005196D02*
X030540Y005296D01*
X030565Y005321D01*
X030615Y005321D01*
X030640Y005296D01*
X030640Y005271D01*
M02*
