%
M48
M72
T01C0.0315
T02C0.0400
T03C0.0512
T04C0.1260
%
T01
X5338Y7463
X7503Y7463
X9669Y7463
X13507Y6774
X15771Y7562
X17937Y7562
X20102Y7562
X19807Y10219
X21381Y11302
X19118Y12286
X17838Y14255
X15968Y16223
X16362Y17897
X16362Y18979
X13803Y18487
X11933Y17897
X8783Y18487
X5830Y18487
X5830Y20652
X5535Y22227
X7897Y21440
X9964Y21440
X12228Y21440
X13901Y24097
X18626Y21440
X20791Y21440
X22858Y21440
X24728Y23408
X26106Y20751
X29354Y21440
X31421Y21440
X33488Y21440
X35063Y20751
X31618Y18389
X29551Y19176
X26893Y17503
X26007Y16420
X24433Y17503
X23744Y16026
X22267Y17503
X20889Y17503
X19905Y16223
X23350Y14156
X23251Y13271
X25122Y13467
X27189Y14452
X29157Y14452
X32011Y14452
X33488Y15830
X35161Y14550
X35063Y10023
X34767Y7562
X31913Y9924
X30732Y7562
X28566Y7562
X26401Y7562
X24137Y7365
X23547Y9137
X27484Y10219
X24925Y5003
X15968Y12188
X13015Y14550
X12326Y13566
X12622Y11893
X8881Y13763
X6814Y14452
X4748Y16026
X4157Y14747
X7011Y11893
X6027Y9432
X14098Y4609
X35358Y4314
X34964Y23900
T02
X34472Y17798
X34472Y16798
X34472Y12696
X34472Y11696
X16165Y20948
X15165Y21048
X14165Y20948
X2689Y15452
X2689Y14452
X1689Y14452
X1689Y15452
X1689Y13452
X2689Y13452
T03
X1834Y10141
X1834Y8172
X1834Y6204
X1834Y4235
X5968Y3940
X7937Y3940
X9905Y3940
X11874Y3940
X16507Y3999
X18476Y3999
X20444Y3999
X22413Y3999
X27126Y3999
X29094Y3999
X31063Y3999
X33031Y3999
X32799Y24885
X30830Y24885
X28862Y24885
X26893Y24885
X22181Y24865
X20212Y24865
X18244Y24865
X16275Y24865
X11515Y24904
X9547Y24904
X7578Y24904
X5610Y24904
X1834Y24570
X1834Y22601
X1834Y20633
X1834Y18664
T04
X1728Y1688
X1696Y27247
X35161Y27247
X35228Y1688
M30
