G75*
G70*
%OFA0B0*%
%FSLAX24Y24*%
%IPPOS*%
%LPD*%
%AMOC8*
5,1,8,0,0,1.08239X$1,22.5*
%
%ADD10C,0.0000*%
%ADD11R,0.0470X0.0220*%
%ADD12R,0.0220X0.0470*%
%ADD13R,0.0315X0.0472*%
%ADD14R,0.0472X0.0315*%
%ADD15R,0.0800X0.0260*%
%ADD16R,0.0760X0.2100*%
%ADD17R,0.0480X0.0880*%
%ADD18R,0.1417X0.0866*%
%ADD19R,0.1400X0.0700*%
%ADD20R,0.0472X0.0472*%
D10*
X000326Y000188D02*
X000326Y028617D01*
X036598Y028617D01*
X036598Y000188D01*
X000326Y000188D01*
X001098Y001688D02*
X001100Y001738D01*
X001106Y001788D01*
X001116Y001837D01*
X001130Y001885D01*
X001147Y001932D01*
X001168Y001977D01*
X001193Y002021D01*
X001221Y002062D01*
X001253Y002101D01*
X001287Y002138D01*
X001324Y002172D01*
X001364Y002202D01*
X001406Y002229D01*
X001450Y002253D01*
X001496Y002274D01*
X001543Y002290D01*
X001591Y002303D01*
X001641Y002312D01*
X001690Y002317D01*
X001741Y002318D01*
X001791Y002315D01*
X001840Y002308D01*
X001889Y002297D01*
X001937Y002282D01*
X001983Y002264D01*
X002028Y002242D01*
X002071Y002216D01*
X002112Y002187D01*
X002151Y002155D01*
X002187Y002120D01*
X002219Y002082D01*
X002249Y002042D01*
X002276Y001999D01*
X002299Y001955D01*
X002318Y001909D01*
X002334Y001861D01*
X002346Y001812D01*
X002354Y001763D01*
X002358Y001713D01*
X002358Y001663D01*
X002354Y001613D01*
X002346Y001564D01*
X002334Y001515D01*
X002318Y001467D01*
X002299Y001421D01*
X002276Y001377D01*
X002249Y001334D01*
X002219Y001294D01*
X002187Y001256D01*
X002151Y001221D01*
X002112Y001189D01*
X002071Y001160D01*
X002028Y001134D01*
X001983Y001112D01*
X001937Y001094D01*
X001889Y001079D01*
X001840Y001068D01*
X001791Y001061D01*
X001741Y001058D01*
X001690Y001059D01*
X001641Y001064D01*
X001591Y001073D01*
X001543Y001086D01*
X001496Y001102D01*
X001450Y001123D01*
X001406Y001147D01*
X001364Y001174D01*
X001324Y001204D01*
X001287Y001238D01*
X001253Y001275D01*
X001221Y001314D01*
X001193Y001355D01*
X001168Y001399D01*
X001147Y001444D01*
X001130Y001491D01*
X001116Y001539D01*
X001106Y001588D01*
X001100Y001638D01*
X001098Y001688D01*
X001066Y027247D02*
X001068Y027297D01*
X001074Y027347D01*
X001084Y027396D01*
X001098Y027444D01*
X001115Y027491D01*
X001136Y027536D01*
X001161Y027580D01*
X001189Y027621D01*
X001221Y027660D01*
X001255Y027697D01*
X001292Y027731D01*
X001332Y027761D01*
X001374Y027788D01*
X001418Y027812D01*
X001464Y027833D01*
X001511Y027849D01*
X001559Y027862D01*
X001609Y027871D01*
X001658Y027876D01*
X001709Y027877D01*
X001759Y027874D01*
X001808Y027867D01*
X001857Y027856D01*
X001905Y027841D01*
X001951Y027823D01*
X001996Y027801D01*
X002039Y027775D01*
X002080Y027746D01*
X002119Y027714D01*
X002155Y027679D01*
X002187Y027641D01*
X002217Y027601D01*
X002244Y027558D01*
X002267Y027514D01*
X002286Y027468D01*
X002302Y027420D01*
X002314Y027371D01*
X002322Y027322D01*
X002326Y027272D01*
X002326Y027222D01*
X002322Y027172D01*
X002314Y027123D01*
X002302Y027074D01*
X002286Y027026D01*
X002267Y026980D01*
X002244Y026936D01*
X002217Y026893D01*
X002187Y026853D01*
X002155Y026815D01*
X002119Y026780D01*
X002080Y026748D01*
X002039Y026719D01*
X001996Y026693D01*
X001951Y026671D01*
X001905Y026653D01*
X001857Y026638D01*
X001808Y026627D01*
X001759Y026620D01*
X001709Y026617D01*
X001658Y026618D01*
X001609Y026623D01*
X001559Y026632D01*
X001511Y026645D01*
X001464Y026661D01*
X001418Y026682D01*
X001374Y026706D01*
X001332Y026733D01*
X001292Y026763D01*
X001255Y026797D01*
X001221Y026834D01*
X001189Y026873D01*
X001161Y026914D01*
X001136Y026958D01*
X001115Y027003D01*
X001098Y027050D01*
X001084Y027098D01*
X001074Y027147D01*
X001068Y027197D01*
X001066Y027247D01*
X034531Y027247D02*
X034533Y027297D01*
X034539Y027347D01*
X034549Y027396D01*
X034563Y027444D01*
X034580Y027491D01*
X034601Y027536D01*
X034626Y027580D01*
X034654Y027621D01*
X034686Y027660D01*
X034720Y027697D01*
X034757Y027731D01*
X034797Y027761D01*
X034839Y027788D01*
X034883Y027812D01*
X034929Y027833D01*
X034976Y027849D01*
X035024Y027862D01*
X035074Y027871D01*
X035123Y027876D01*
X035174Y027877D01*
X035224Y027874D01*
X035273Y027867D01*
X035322Y027856D01*
X035370Y027841D01*
X035416Y027823D01*
X035461Y027801D01*
X035504Y027775D01*
X035545Y027746D01*
X035584Y027714D01*
X035620Y027679D01*
X035652Y027641D01*
X035682Y027601D01*
X035709Y027558D01*
X035732Y027514D01*
X035751Y027468D01*
X035767Y027420D01*
X035779Y027371D01*
X035787Y027322D01*
X035791Y027272D01*
X035791Y027222D01*
X035787Y027172D01*
X035779Y027123D01*
X035767Y027074D01*
X035751Y027026D01*
X035732Y026980D01*
X035709Y026936D01*
X035682Y026893D01*
X035652Y026853D01*
X035620Y026815D01*
X035584Y026780D01*
X035545Y026748D01*
X035504Y026719D01*
X035461Y026693D01*
X035416Y026671D01*
X035370Y026653D01*
X035322Y026638D01*
X035273Y026627D01*
X035224Y026620D01*
X035174Y026617D01*
X035123Y026618D01*
X035074Y026623D01*
X035024Y026632D01*
X034976Y026645D01*
X034929Y026661D01*
X034883Y026682D01*
X034839Y026706D01*
X034797Y026733D01*
X034757Y026763D01*
X034720Y026797D01*
X034686Y026834D01*
X034654Y026873D01*
X034626Y026914D01*
X034601Y026958D01*
X034580Y027003D01*
X034563Y027050D01*
X034549Y027098D01*
X034539Y027147D01*
X034533Y027197D01*
X034531Y027247D01*
X034598Y001688D02*
X034600Y001738D01*
X034606Y001788D01*
X034616Y001837D01*
X034630Y001885D01*
X034647Y001932D01*
X034668Y001977D01*
X034693Y002021D01*
X034721Y002062D01*
X034753Y002101D01*
X034787Y002138D01*
X034824Y002172D01*
X034864Y002202D01*
X034906Y002229D01*
X034950Y002253D01*
X034996Y002274D01*
X035043Y002290D01*
X035091Y002303D01*
X035141Y002312D01*
X035190Y002317D01*
X035241Y002318D01*
X035291Y002315D01*
X035340Y002308D01*
X035389Y002297D01*
X035437Y002282D01*
X035483Y002264D01*
X035528Y002242D01*
X035571Y002216D01*
X035612Y002187D01*
X035651Y002155D01*
X035687Y002120D01*
X035719Y002082D01*
X035749Y002042D01*
X035776Y001999D01*
X035799Y001955D01*
X035818Y001909D01*
X035834Y001861D01*
X035846Y001812D01*
X035854Y001763D01*
X035858Y001713D01*
X035858Y001663D01*
X035854Y001613D01*
X035846Y001564D01*
X035834Y001515D01*
X035818Y001467D01*
X035799Y001421D01*
X035776Y001377D01*
X035749Y001334D01*
X035719Y001294D01*
X035687Y001256D01*
X035651Y001221D01*
X035612Y001189D01*
X035571Y001160D01*
X035528Y001134D01*
X035483Y001112D01*
X035437Y001094D01*
X035389Y001079D01*
X035340Y001068D01*
X035291Y001061D01*
X035241Y001058D01*
X035190Y001059D01*
X035141Y001064D01*
X035091Y001073D01*
X035043Y001086D01*
X034996Y001102D01*
X034950Y001123D01*
X034906Y001147D01*
X034864Y001174D01*
X034824Y001204D01*
X034787Y001238D01*
X034753Y001275D01*
X034721Y001314D01*
X034693Y001355D01*
X034668Y001399D01*
X034647Y001444D01*
X034630Y001491D01*
X034616Y001539D01*
X034606Y001588D01*
X034600Y001638D01*
X034598Y001688D01*
D11*
X020944Y011853D03*
X020944Y012168D03*
X020944Y012483D03*
X020944Y012798D03*
X020944Y013113D03*
X020944Y013428D03*
X020944Y013743D03*
X020944Y014058D03*
X020944Y014373D03*
X020944Y014688D03*
X020944Y015003D03*
X020944Y015318D03*
X020944Y015633D03*
X020944Y015948D03*
X020944Y016263D03*
X020944Y016578D03*
X014803Y016578D03*
X014803Y016263D03*
X014803Y015948D03*
X014803Y015633D03*
X014803Y015318D03*
X014803Y015003D03*
X014803Y014688D03*
X014803Y014373D03*
X014803Y014058D03*
X014803Y013743D03*
X014803Y013428D03*
X014803Y013113D03*
X014803Y012798D03*
X014803Y012483D03*
X014803Y012168D03*
X014803Y011853D03*
D12*
X015511Y011145D03*
X015826Y011145D03*
X016141Y011145D03*
X016456Y011145D03*
X016771Y011145D03*
X017086Y011145D03*
X017401Y011145D03*
X017716Y011145D03*
X018031Y011145D03*
X018346Y011145D03*
X018661Y011145D03*
X018976Y011145D03*
X019291Y011145D03*
X019606Y011145D03*
X019921Y011145D03*
X020236Y011145D03*
X020236Y017286D03*
X019921Y017286D03*
X019606Y017286D03*
X019291Y017286D03*
X018976Y017286D03*
X018661Y017286D03*
X018346Y017286D03*
X018031Y017286D03*
X017716Y017286D03*
X017401Y017286D03*
X017086Y017286D03*
X016771Y017286D03*
X016456Y017286D03*
X016141Y017286D03*
X015826Y017286D03*
X015511Y017286D03*
D13*
X017948Y020670D03*
X018657Y020670D03*
X020074Y020670D03*
X020783Y020670D03*
X022200Y020670D03*
X022909Y020670D03*
X028606Y020652D03*
X029314Y020652D03*
X030771Y020652D03*
X031480Y020652D03*
X032838Y020652D03*
X033547Y020652D03*
X030889Y018881D03*
X030181Y018881D03*
X029299Y008377D03*
X028590Y008377D03*
X027133Y008376D03*
X026425Y008376D03*
X030744Y008343D03*
X031452Y008343D03*
X021423Y007589D03*
X020714Y007589D03*
X019258Y007589D03*
X018549Y007589D03*
X017092Y007589D03*
X016384Y007589D03*
X013173Y009236D03*
X013173Y009826D03*
X013173Y010417D03*
X012465Y010417D03*
X012465Y009826D03*
X012465Y009236D03*
X011037Y007494D03*
X010328Y007494D03*
X008854Y007461D03*
X008146Y007461D03*
X006608Y007495D03*
X005899Y007495D03*
X013153Y012780D03*
X013862Y012780D03*
X005514Y015079D03*
X004806Y015079D03*
X007078Y020658D03*
X007787Y020658D03*
X009283Y020647D03*
X009992Y020647D03*
X011488Y020647D03*
X012196Y020647D03*
D14*
X008942Y015433D03*
X008942Y014724D03*
X008935Y012510D03*
X008935Y011801D03*
X004194Y013390D03*
X004194Y014098D03*
X022169Y014314D03*
X022169Y013605D03*
X032011Y016952D03*
X032011Y017660D03*
D15*
X030284Y017643D03*
X030284Y018143D03*
X030284Y017143D03*
X030284Y016643D03*
X027864Y016643D03*
X027864Y017143D03*
X027864Y017643D03*
X027864Y018143D03*
D16*
X010850Y015466D03*
X010850Y011666D03*
D17*
X028247Y011066D03*
X029157Y011066D03*
X030067Y011066D03*
D18*
X029157Y013506D03*
D19*
X032011Y013486D03*
X032011Y011086D03*
X026303Y011185D03*
X026303Y013585D03*
D20*
X009098Y010417D03*
X009098Y009826D03*
X009098Y009236D03*
X008272Y009236D03*
X008272Y009826D03*
X008272Y010417D03*
M02*
