G75*
G70*
%OFA0B0*%
%FSLAX24Y24*%
%IPPOS*%
%LPD*%
%AMOC8*
5,1,8,0,0,1.08239X$1,22.5*
%
%ADD10C,0.0000*%
%ADD11C,0.0060*%
%ADD12C,0.0080*%
%ADD13C,0.0040*%
%ADD14C,0.0030*%
%ADD15C,0.0010*%
%ADD16C,0.0020*%
%ADD17C,0.0050*%
%ADD18C,0.0100*%
%ADD19R,0.0079X0.0079*%
D10*
X000326Y000188D02*
X000326Y028617D01*
X036598Y028617D01*
X036598Y000188D01*
X000326Y000188D01*
X001098Y001688D02*
X001100Y001738D01*
X001106Y001788D01*
X001116Y001837D01*
X001130Y001885D01*
X001147Y001932D01*
X001168Y001977D01*
X001193Y002021D01*
X001221Y002062D01*
X001253Y002101D01*
X001287Y002138D01*
X001324Y002172D01*
X001364Y002202D01*
X001406Y002229D01*
X001450Y002253D01*
X001496Y002274D01*
X001543Y002290D01*
X001591Y002303D01*
X001641Y002312D01*
X001690Y002317D01*
X001741Y002318D01*
X001791Y002315D01*
X001840Y002308D01*
X001889Y002297D01*
X001937Y002282D01*
X001983Y002264D01*
X002028Y002242D01*
X002071Y002216D01*
X002112Y002187D01*
X002151Y002155D01*
X002187Y002120D01*
X002219Y002082D01*
X002249Y002042D01*
X002276Y001999D01*
X002299Y001955D01*
X002318Y001909D01*
X002334Y001861D01*
X002346Y001812D01*
X002354Y001763D01*
X002358Y001713D01*
X002358Y001663D01*
X002354Y001613D01*
X002346Y001564D01*
X002334Y001515D01*
X002318Y001467D01*
X002299Y001421D01*
X002276Y001377D01*
X002249Y001334D01*
X002219Y001294D01*
X002187Y001256D01*
X002151Y001221D01*
X002112Y001189D01*
X002071Y001160D01*
X002028Y001134D01*
X001983Y001112D01*
X001937Y001094D01*
X001889Y001079D01*
X001840Y001068D01*
X001791Y001061D01*
X001741Y001058D01*
X001690Y001059D01*
X001641Y001064D01*
X001591Y001073D01*
X001543Y001086D01*
X001496Y001102D01*
X001450Y001123D01*
X001406Y001147D01*
X001364Y001174D01*
X001324Y001204D01*
X001287Y001238D01*
X001253Y001275D01*
X001221Y001314D01*
X001193Y001355D01*
X001168Y001399D01*
X001147Y001444D01*
X001130Y001491D01*
X001116Y001539D01*
X001106Y001588D01*
X001100Y001638D01*
X001098Y001688D01*
X001066Y027247D02*
X001068Y027297D01*
X001074Y027347D01*
X001084Y027396D01*
X001098Y027444D01*
X001115Y027491D01*
X001136Y027536D01*
X001161Y027580D01*
X001189Y027621D01*
X001221Y027660D01*
X001255Y027697D01*
X001292Y027731D01*
X001332Y027761D01*
X001374Y027788D01*
X001418Y027812D01*
X001464Y027833D01*
X001511Y027849D01*
X001559Y027862D01*
X001609Y027871D01*
X001658Y027876D01*
X001709Y027877D01*
X001759Y027874D01*
X001808Y027867D01*
X001857Y027856D01*
X001905Y027841D01*
X001951Y027823D01*
X001996Y027801D01*
X002039Y027775D01*
X002080Y027746D01*
X002119Y027714D01*
X002155Y027679D01*
X002187Y027641D01*
X002217Y027601D01*
X002244Y027558D01*
X002267Y027514D01*
X002286Y027468D01*
X002302Y027420D01*
X002314Y027371D01*
X002322Y027322D01*
X002326Y027272D01*
X002326Y027222D01*
X002322Y027172D01*
X002314Y027123D01*
X002302Y027074D01*
X002286Y027026D01*
X002267Y026980D01*
X002244Y026936D01*
X002217Y026893D01*
X002187Y026853D01*
X002155Y026815D01*
X002119Y026780D01*
X002080Y026748D01*
X002039Y026719D01*
X001996Y026693D01*
X001951Y026671D01*
X001905Y026653D01*
X001857Y026638D01*
X001808Y026627D01*
X001759Y026620D01*
X001709Y026617D01*
X001658Y026618D01*
X001609Y026623D01*
X001559Y026632D01*
X001511Y026645D01*
X001464Y026661D01*
X001418Y026682D01*
X001374Y026706D01*
X001332Y026733D01*
X001292Y026763D01*
X001255Y026797D01*
X001221Y026834D01*
X001189Y026873D01*
X001161Y026914D01*
X001136Y026958D01*
X001115Y027003D01*
X001098Y027050D01*
X001084Y027098D01*
X001074Y027147D01*
X001068Y027197D01*
X001066Y027247D01*
X034531Y027247D02*
X034533Y027297D01*
X034539Y027347D01*
X034549Y027396D01*
X034563Y027444D01*
X034580Y027491D01*
X034601Y027536D01*
X034626Y027580D01*
X034654Y027621D01*
X034686Y027660D01*
X034720Y027697D01*
X034757Y027731D01*
X034797Y027761D01*
X034839Y027788D01*
X034883Y027812D01*
X034929Y027833D01*
X034976Y027849D01*
X035024Y027862D01*
X035074Y027871D01*
X035123Y027876D01*
X035174Y027877D01*
X035224Y027874D01*
X035273Y027867D01*
X035322Y027856D01*
X035370Y027841D01*
X035416Y027823D01*
X035461Y027801D01*
X035504Y027775D01*
X035545Y027746D01*
X035584Y027714D01*
X035620Y027679D01*
X035652Y027641D01*
X035682Y027601D01*
X035709Y027558D01*
X035732Y027514D01*
X035751Y027468D01*
X035767Y027420D01*
X035779Y027371D01*
X035787Y027322D01*
X035791Y027272D01*
X035791Y027222D01*
X035787Y027172D01*
X035779Y027123D01*
X035767Y027074D01*
X035751Y027026D01*
X035732Y026980D01*
X035709Y026936D01*
X035682Y026893D01*
X035652Y026853D01*
X035620Y026815D01*
X035584Y026780D01*
X035545Y026748D01*
X035504Y026719D01*
X035461Y026693D01*
X035416Y026671D01*
X035370Y026653D01*
X035322Y026638D01*
X035273Y026627D01*
X035224Y026620D01*
X035174Y026617D01*
X035123Y026618D01*
X035074Y026623D01*
X035024Y026632D01*
X034976Y026645D01*
X034929Y026661D01*
X034883Y026682D01*
X034839Y026706D01*
X034797Y026733D01*
X034757Y026763D01*
X034720Y026797D01*
X034686Y026834D01*
X034654Y026873D01*
X034626Y026914D01*
X034601Y026958D01*
X034580Y027003D01*
X034563Y027050D01*
X034549Y027098D01*
X034539Y027147D01*
X034533Y027197D01*
X034531Y027247D01*
X034598Y001688D02*
X034600Y001738D01*
X034606Y001788D01*
X034616Y001837D01*
X034630Y001885D01*
X034647Y001932D01*
X034668Y001977D01*
X034693Y002021D01*
X034721Y002062D01*
X034753Y002101D01*
X034787Y002138D01*
X034824Y002172D01*
X034864Y002202D01*
X034906Y002229D01*
X034950Y002253D01*
X034996Y002274D01*
X035043Y002290D01*
X035091Y002303D01*
X035141Y002312D01*
X035190Y002317D01*
X035241Y002318D01*
X035291Y002315D01*
X035340Y002308D01*
X035389Y002297D01*
X035437Y002282D01*
X035483Y002264D01*
X035528Y002242D01*
X035571Y002216D01*
X035612Y002187D01*
X035651Y002155D01*
X035687Y002120D01*
X035719Y002082D01*
X035749Y002042D01*
X035776Y001999D01*
X035799Y001955D01*
X035818Y001909D01*
X035834Y001861D01*
X035846Y001812D01*
X035854Y001763D01*
X035858Y001713D01*
X035858Y001663D01*
X035854Y001613D01*
X035846Y001564D01*
X035834Y001515D01*
X035818Y001467D01*
X035799Y001421D01*
X035776Y001377D01*
X035749Y001334D01*
X035719Y001294D01*
X035687Y001256D01*
X035651Y001221D01*
X035612Y001189D01*
X035571Y001160D01*
X035528Y001134D01*
X035483Y001112D01*
X035437Y001094D01*
X035389Y001079D01*
X035340Y001068D01*
X035291Y001061D01*
X035241Y001058D01*
X035190Y001059D01*
X035141Y001064D01*
X035091Y001073D01*
X035043Y001086D01*
X034996Y001102D01*
X034950Y001123D01*
X034906Y001147D01*
X034864Y001174D01*
X034824Y001204D01*
X034787Y001238D01*
X034753Y001275D01*
X034721Y001314D01*
X034693Y001355D01*
X034668Y001399D01*
X034647Y001444D01*
X034630Y001491D01*
X034616Y001539D01*
X034606Y001588D01*
X034600Y001638D01*
X034598Y001688D01*
D11*
X031292Y001318D02*
X031292Y000997D01*
X030652Y000997D01*
X030652Y001318D01*
X030759Y001424D01*
X030865Y001424D01*
X030972Y001318D01*
X030972Y000997D01*
X030972Y001318D02*
X031079Y001424D01*
X031186Y001424D01*
X031292Y001318D01*
X030972Y001642D02*
X030972Y002069D01*
X029422Y001318D02*
X029422Y001104D01*
X029316Y000997D01*
X028888Y000997D01*
X028782Y001104D01*
X028782Y001318D01*
X028888Y001424D01*
X029102Y001424D02*
X029102Y001211D01*
X029102Y001424D02*
X029316Y001424D01*
X029422Y001318D01*
X029102Y001642D02*
X029102Y002069D01*
X027355Y001424D02*
X027142Y001211D01*
X027142Y001318D02*
X027142Y000997D01*
X027355Y000997D02*
X026715Y000997D01*
X026715Y001318D01*
X026822Y001424D01*
X027035Y001424D01*
X027142Y001318D01*
X027035Y001642D02*
X027035Y002069D01*
X027109Y006214D02*
X026682Y006214D01*
X026682Y006854D01*
X027109Y006854D01*
X027327Y006854D02*
X027647Y006854D01*
X027754Y006748D01*
X027754Y006321D01*
X027647Y006214D01*
X027327Y006214D01*
X027327Y006854D01*
X027971Y006748D02*
X028078Y006854D01*
X028291Y006854D01*
X028398Y006748D01*
X028398Y006641D01*
X027971Y006214D01*
X028398Y006214D01*
X026895Y006534D02*
X026682Y006534D01*
X026464Y006214D02*
X026037Y006214D01*
X026037Y006854D01*
X026661Y008140D02*
X026897Y008140D01*
X026897Y008613D02*
X026661Y008613D01*
X028827Y008613D02*
X029063Y008613D01*
X029063Y008141D02*
X028827Y008141D01*
X030980Y008107D02*
X031216Y008107D01*
X031216Y008580D02*
X030980Y008580D01*
X022405Y013841D02*
X022405Y014078D01*
X021933Y014078D02*
X021933Y013841D01*
X020644Y011445D02*
X015274Y011445D01*
X015103Y011615D01*
X015103Y016986D01*
X020644Y016986D01*
X020644Y011445D01*
X020950Y007825D02*
X021186Y007825D01*
X021186Y007352D02*
X020950Y007352D01*
X019021Y007353D02*
X018785Y007353D01*
X018785Y007825D02*
X019021Y007825D01*
X017555Y006854D02*
X017555Y006214D01*
X017768Y006214D02*
X017341Y006214D01*
X017124Y006321D02*
X017124Y006748D01*
X017017Y006854D01*
X016697Y006854D01*
X016697Y006214D01*
X017017Y006214D01*
X017124Y006321D01*
X017341Y006641D02*
X017555Y006854D01*
X016856Y007353D02*
X016620Y007353D01*
X016620Y007826D02*
X016856Y007826D01*
X016479Y006854D02*
X016052Y006854D01*
X016052Y006214D01*
X016479Y006214D01*
X016266Y006534D02*
X016052Y006534D01*
X015835Y006214D02*
X015407Y006214D01*
X015407Y006854D01*
X012937Y008999D02*
X012701Y008999D01*
X012701Y009472D02*
X012937Y009472D01*
X012937Y009590D02*
X012701Y009590D01*
X012701Y010062D02*
X012937Y010062D01*
X012937Y010181D02*
X012701Y010181D01*
X012701Y010653D02*
X012937Y010653D01*
X011800Y011416D02*
X011800Y015716D01*
X011798Y015733D01*
X011794Y015750D01*
X011787Y015766D01*
X011777Y015780D01*
X011764Y015793D01*
X011750Y015803D01*
X011734Y015810D01*
X011717Y015814D01*
X011700Y015816D01*
X011300Y015816D01*
X010400Y015816D02*
X010000Y015816D01*
X009983Y015814D01*
X009966Y015810D01*
X009950Y015803D01*
X009936Y015793D01*
X009923Y015780D01*
X009913Y015766D01*
X009906Y015750D01*
X009902Y015733D01*
X009900Y015716D01*
X009900Y011416D01*
X009902Y011399D01*
X009906Y011382D01*
X009913Y011366D01*
X009923Y011352D01*
X009936Y011339D01*
X009950Y011329D01*
X009966Y011322D01*
X009983Y011318D01*
X010000Y011316D01*
X010400Y011316D01*
X011300Y011316D02*
X011700Y011316D01*
X011717Y011318D01*
X011734Y011322D01*
X011750Y011329D01*
X011764Y011339D01*
X011777Y011352D01*
X011787Y011366D01*
X011794Y011382D01*
X011798Y011399D01*
X011800Y011416D01*
X013389Y012544D02*
X013626Y012544D01*
X013626Y013016D02*
X013389Y013016D01*
X011100Y013316D02*
X010850Y013316D01*
X010600Y013316D01*
X010600Y013466D02*
X011100Y013466D01*
X011100Y013666D01*
X010600Y013666D01*
X010600Y013466D01*
X010600Y013816D02*
X010850Y013816D01*
X011100Y013816D01*
X009178Y014960D02*
X009178Y015197D01*
X008706Y015197D02*
X008706Y014960D01*
X008698Y012274D02*
X008698Y012037D01*
X009171Y012037D02*
X009171Y012274D01*
X005278Y014843D02*
X005042Y014843D01*
X005042Y015316D02*
X005278Y015316D01*
X004431Y013862D02*
X004431Y013626D01*
X003958Y013626D02*
X003958Y013862D01*
X003189Y013702D02*
X003189Y013202D01*
X002939Y012952D01*
X001439Y012952D01*
X001189Y013202D01*
X001189Y013702D01*
X001439Y013952D01*
X002939Y013952D01*
X003189Y013702D01*
X002939Y013952D02*
X003189Y014202D01*
X003189Y014702D01*
X002939Y014952D01*
X001439Y014952D01*
X001189Y014702D01*
X001189Y014202D01*
X001439Y013952D01*
X001439Y014952D02*
X001189Y015202D01*
X001189Y015702D01*
X001439Y015952D01*
X002939Y015952D01*
X003189Y015702D01*
X003189Y015202D01*
X002939Y014952D01*
X007314Y020422D02*
X007551Y020422D01*
X007551Y020895D02*
X007314Y020895D01*
X009519Y020883D02*
X009755Y020883D01*
X009755Y020410D02*
X009519Y020410D01*
X010191Y022060D02*
X010618Y022060D01*
X010835Y022060D02*
X011263Y022060D01*
X011480Y022060D02*
X011800Y022060D01*
X011907Y022167D01*
X011907Y022594D01*
X011800Y022701D01*
X011480Y022701D01*
X011480Y022060D01*
X012125Y022167D02*
X012231Y022060D01*
X012445Y022060D01*
X012552Y022167D01*
X012552Y022274D01*
X012445Y022381D01*
X012338Y022381D01*
X012445Y022381D02*
X012552Y022487D01*
X012552Y022594D01*
X012445Y022701D01*
X012231Y022701D01*
X012125Y022594D01*
X011263Y022701D02*
X010835Y022701D01*
X010835Y022060D01*
X010835Y022381D02*
X011049Y022381D01*
X010191Y022701D02*
X010191Y022060D01*
X011724Y020883D02*
X011960Y020883D01*
X011960Y020410D02*
X011724Y020410D01*
X018185Y020434D02*
X018421Y020434D01*
X018421Y020906D02*
X018185Y020906D01*
X020311Y020906D02*
X020547Y020906D01*
X020547Y020434D02*
X020311Y020434D01*
X022437Y020434D02*
X022673Y020434D01*
X022673Y020906D02*
X022437Y020906D01*
X022430Y021962D02*
X022110Y021962D01*
X022110Y022603D01*
X022430Y022603D01*
X022537Y022496D01*
X022537Y022069D01*
X022430Y021962D01*
X022755Y022282D02*
X023182Y022282D01*
X023075Y021962D02*
X023075Y022603D01*
X022755Y022282D01*
X021892Y021962D02*
X021465Y021962D01*
X021465Y022603D01*
X021892Y022603D01*
X021679Y022282D02*
X021465Y022282D01*
X021248Y021962D02*
X020821Y021962D01*
X020821Y022603D01*
X020271Y026775D02*
X019844Y026775D01*
X019738Y026882D01*
X019738Y027096D01*
X019844Y027202D01*
X020058Y027202D02*
X020058Y026989D01*
X020058Y027202D02*
X020271Y027202D01*
X020378Y027096D01*
X020378Y026882D01*
X020271Y026775D01*
X020058Y027420D02*
X020058Y027847D01*
X018508Y027096D02*
X018508Y026775D01*
X017868Y026775D01*
X017868Y027096D01*
X017974Y027202D01*
X018081Y027202D01*
X018188Y027096D01*
X018188Y026775D01*
X018188Y027096D02*
X018295Y027202D01*
X018401Y027202D01*
X018508Y027096D01*
X018188Y027420D02*
X018188Y027847D01*
X021805Y027096D02*
X021805Y026775D01*
X022445Y026775D01*
X022232Y026775D02*
X022232Y027096D01*
X022125Y027202D01*
X021911Y027202D01*
X021805Y027096D01*
X022232Y026989D02*
X022445Y027202D01*
X022125Y027420D02*
X022125Y027847D01*
X028596Y027096D02*
X028596Y026775D01*
X029236Y026775D01*
X029236Y027096D01*
X029130Y027202D01*
X029023Y027202D01*
X028916Y027096D01*
X028916Y026775D01*
X028916Y027096D02*
X028809Y027202D01*
X028703Y027202D01*
X028596Y027096D01*
X028916Y027420D02*
X028916Y027847D01*
X030466Y027096D02*
X030466Y026882D01*
X030573Y026775D01*
X031000Y026775D01*
X031107Y026882D01*
X031107Y027096D01*
X031000Y027202D01*
X030786Y027202D01*
X030786Y026989D01*
X030573Y027202D02*
X030466Y027096D01*
X030786Y027420D02*
X030786Y027847D01*
X032533Y027096D02*
X032533Y026775D01*
X033173Y026775D01*
X032960Y026775D02*
X032960Y027096D01*
X032853Y027202D01*
X032640Y027202D01*
X032533Y027096D01*
X032960Y026989D02*
X033173Y027202D01*
X032853Y027420D02*
X032853Y027847D01*
X032740Y022603D02*
X033060Y022603D01*
X033167Y022496D01*
X033167Y022069D01*
X033060Y021962D01*
X032740Y021962D01*
X032740Y022603D01*
X032522Y022603D02*
X032095Y022603D01*
X032095Y021962D01*
X032522Y021962D01*
X032309Y022282D02*
X032095Y022282D01*
X031878Y021962D02*
X031451Y021962D01*
X031451Y022603D01*
X033384Y022603D02*
X033384Y022282D01*
X033598Y022389D01*
X033705Y022389D01*
X033811Y022282D01*
X033811Y022069D01*
X033705Y021962D01*
X033491Y021962D01*
X033384Y022069D01*
X033384Y022603D02*
X033811Y022603D01*
X033311Y020889D02*
X033074Y020889D01*
X033074Y020416D02*
X033311Y020416D01*
X031244Y020416D02*
X031007Y020416D01*
X031007Y020889D02*
X031244Y020889D01*
X030653Y019117D02*
X030417Y019117D01*
X030417Y018645D02*
X030653Y018645D01*
X029844Y018243D02*
X029844Y016543D01*
X029842Y016520D01*
X029837Y016497D01*
X029828Y016475D01*
X029815Y016455D01*
X029800Y016437D01*
X029782Y016422D01*
X029762Y016409D01*
X029740Y016400D01*
X029717Y016395D01*
X029694Y016393D01*
X028454Y016393D01*
X028431Y016395D01*
X028408Y016400D01*
X028386Y016409D01*
X028366Y016422D01*
X028348Y016437D01*
X028333Y016455D01*
X028320Y016475D01*
X028311Y016497D01*
X028306Y016520D01*
X028304Y016543D01*
X028304Y018243D01*
X028306Y018266D01*
X028311Y018289D01*
X028320Y018311D01*
X028333Y018331D01*
X028348Y018349D01*
X028366Y018364D01*
X028386Y018377D01*
X028408Y018386D01*
X028431Y018391D01*
X028454Y018393D01*
X028874Y018393D01*
X029274Y018393D01*
X029694Y018393D01*
X029717Y018391D01*
X029740Y018386D01*
X029762Y018377D01*
X029782Y018364D01*
X029800Y018349D01*
X029815Y018331D01*
X029828Y018311D01*
X029837Y018289D01*
X029842Y018266D01*
X029844Y018243D01*
X029274Y018393D02*
X029272Y018366D01*
X029267Y018339D01*
X029257Y018313D01*
X029245Y018289D01*
X029229Y018267D01*
X029211Y018247D01*
X029189Y018230D01*
X029166Y018215D01*
X029141Y018205D01*
X029115Y018197D01*
X029088Y018193D01*
X029060Y018193D01*
X029033Y018197D01*
X029007Y018205D01*
X028982Y018215D01*
X028959Y018230D01*
X028937Y018247D01*
X028919Y018267D01*
X028903Y018289D01*
X028891Y018313D01*
X028881Y018339D01*
X028876Y018366D01*
X028874Y018393D01*
X028842Y020416D02*
X029078Y020416D01*
X029078Y020889D02*
X028842Y020889D01*
X031775Y017424D02*
X031775Y017188D01*
X032248Y017188D02*
X032248Y017424D01*
X015339Y011900D02*
X015341Y011929D01*
X015347Y011958D01*
X015356Y011986D01*
X015370Y012012D01*
X015386Y012036D01*
X015406Y012058D01*
X015429Y012077D01*
X015453Y012093D01*
X015480Y012105D01*
X015508Y012114D01*
X015537Y012119D01*
X015566Y012120D01*
X015596Y012117D01*
X015624Y012110D01*
X015652Y012100D01*
X015677Y012085D01*
X015701Y012068D01*
X015722Y012048D01*
X015740Y012025D01*
X015755Y011999D01*
X015767Y011972D01*
X015775Y011944D01*
X015779Y011915D01*
X015779Y011885D01*
X015775Y011856D01*
X015767Y011828D01*
X015755Y011801D01*
X015740Y011775D01*
X015722Y011752D01*
X015701Y011732D01*
X015677Y011715D01*
X015652Y011700D01*
X015624Y011690D01*
X015596Y011683D01*
X015566Y011680D01*
X015537Y011681D01*
X015508Y011686D01*
X015480Y011695D01*
X015453Y011707D01*
X015429Y011723D01*
X015406Y011742D01*
X015386Y011764D01*
X015370Y011788D01*
X015356Y011814D01*
X015347Y011842D01*
X015341Y011871D01*
X015339Y011900D01*
X010801Y007731D02*
X010564Y007731D01*
X010564Y007258D02*
X010801Y007258D01*
X008618Y007225D02*
X008382Y007225D01*
X008382Y007698D02*
X008618Y007698D01*
X007237Y006748D02*
X006810Y006321D01*
X006916Y006214D01*
X007130Y006214D01*
X007237Y006321D01*
X007237Y006748D01*
X007130Y006854D01*
X006916Y006854D01*
X006810Y006748D01*
X006810Y006321D01*
X006592Y006321D02*
X006592Y006748D01*
X006485Y006854D01*
X006165Y006854D01*
X006165Y006214D01*
X006485Y006214D01*
X006592Y006321D01*
X005948Y006214D02*
X005521Y006214D01*
X005521Y006854D01*
X005948Y006854D01*
X005734Y006534D02*
X005521Y006534D01*
X005303Y006214D02*
X004876Y006214D01*
X004876Y006854D01*
X006135Y007258D02*
X006372Y007258D01*
X006372Y007731D02*
X006135Y007731D01*
X005874Y002069D02*
X005874Y001642D01*
X005874Y001424D02*
X005980Y001318D01*
X005980Y000997D01*
X005980Y001211D02*
X006194Y001424D01*
X005874Y001424D02*
X005660Y001424D01*
X005553Y001318D01*
X005553Y000997D01*
X006194Y000997D01*
X007620Y001104D02*
X007727Y000997D01*
X008154Y000997D01*
X008261Y001104D01*
X008261Y001318D01*
X008154Y001424D01*
X007941Y001424D01*
X007941Y001211D01*
X007727Y001424D02*
X007620Y001318D01*
X007620Y001104D01*
X007941Y001642D02*
X007941Y002069D01*
X009490Y001318D02*
X009490Y000997D01*
X010131Y000997D01*
X010131Y001318D01*
X010024Y001424D01*
X009917Y001424D01*
X009811Y001318D01*
X009811Y000997D01*
X009811Y001318D02*
X009704Y001424D01*
X009597Y001424D01*
X009490Y001318D01*
X009811Y001642D02*
X009811Y002069D01*
X016085Y001318D02*
X016085Y000997D01*
X016725Y000997D01*
X016512Y000997D02*
X016512Y001318D01*
X016405Y001424D01*
X016192Y001424D01*
X016085Y001318D01*
X016512Y001211D02*
X016725Y001424D01*
X016405Y001642D02*
X016405Y002069D01*
X018152Y001318D02*
X018152Y001104D01*
X018259Y000997D01*
X018686Y000997D01*
X018792Y001104D01*
X018792Y001318D01*
X018686Y001424D01*
X018472Y001424D01*
X018472Y001211D01*
X018259Y001424D02*
X018152Y001318D01*
X018472Y001642D02*
X018472Y002069D01*
X020022Y001318D02*
X020022Y000997D01*
X020662Y000997D01*
X020662Y001318D01*
X020556Y001424D01*
X020449Y001424D01*
X020342Y001318D01*
X020342Y000997D01*
X020342Y001318D02*
X020235Y001424D01*
X020129Y001424D01*
X020022Y001318D01*
X020342Y001642D02*
X020342Y002069D01*
X011815Y026775D02*
X011175Y026775D01*
X011175Y027096D01*
X011281Y027202D01*
X011495Y027202D01*
X011602Y027096D01*
X011602Y026775D01*
X011602Y026989D02*
X011815Y027202D01*
X011495Y027420D02*
X011495Y027847D01*
X009748Y027096D02*
X009642Y027202D01*
X009428Y027202D01*
X009428Y026989D01*
X009214Y027202D02*
X009108Y027096D01*
X009108Y026882D01*
X009214Y026775D01*
X009642Y026775D01*
X009748Y026882D01*
X009748Y027096D01*
X009428Y027420D02*
X009428Y027847D01*
X007878Y027096D02*
X007878Y026775D01*
X007238Y026775D01*
X007238Y027096D01*
X007344Y027202D01*
X007451Y027202D01*
X007558Y027096D01*
X007558Y026775D01*
X007558Y027096D02*
X007665Y027202D01*
X007771Y027202D01*
X007878Y027096D01*
X007558Y027420D02*
X007558Y027847D01*
D12*
X006988Y026479D02*
X006200Y026479D01*
X005453Y027326D02*
X005453Y027940D01*
X005146Y027633D02*
X005760Y027633D01*
X005019Y026479D02*
X004626Y026479D01*
X004626Y022936D01*
X012500Y022936D01*
X012500Y026479D01*
X012106Y026479D01*
X010925Y026479D02*
X010137Y026479D01*
X008956Y026479D02*
X008169Y026479D01*
X003803Y025554D02*
X003803Y017680D01*
X000259Y017680D01*
X000259Y018074D01*
X000259Y019255D02*
X000259Y020042D01*
X000259Y021223D02*
X000259Y022011D01*
X000259Y023192D02*
X000259Y023979D01*
X000259Y025160D02*
X000259Y025554D01*
X003803Y025554D01*
X013665Y021388D02*
X013665Y020998D01*
X013665Y020608D01*
X013775Y020498D01*
X013765Y020998D02*
X013665Y020998D01*
X013665Y021388D02*
X013775Y021498D01*
X014565Y020998D02*
X014765Y020998D01*
X015565Y020998D02*
X015765Y020998D01*
X016565Y020998D02*
X016665Y020998D01*
X016665Y021388D01*
X016555Y021498D01*
X016665Y020998D02*
X016665Y020608D01*
X016555Y020498D01*
X015291Y022897D02*
X015291Y026440D01*
X015685Y026440D01*
X016182Y027228D02*
X016182Y027842D01*
X015875Y027535D02*
X016489Y027535D01*
X016866Y026440D02*
X017653Y026440D01*
X018834Y026440D02*
X019622Y026440D01*
X020803Y026440D02*
X021590Y026440D01*
X022771Y026440D02*
X023165Y026440D01*
X023165Y022897D01*
X015291Y022897D01*
X025909Y022916D02*
X025909Y026460D01*
X026303Y026460D01*
X026713Y027326D02*
X026713Y027940D01*
X026406Y027633D02*
X027020Y027633D01*
X027484Y026460D02*
X028271Y026460D01*
X029452Y026460D02*
X030240Y026460D01*
X031421Y026460D02*
X032208Y026460D01*
X033389Y026460D02*
X033783Y026460D01*
X033783Y022916D01*
X025909Y022916D01*
X025988Y015436D02*
X026618Y015436D01*
X026618Y015435D02*
X026634Y015430D01*
X026650Y015422D01*
X026664Y015412D01*
X026676Y015400D01*
X026686Y015385D01*
X026693Y015369D01*
X026697Y015352D01*
X026698Y015335D01*
X026696Y015317D01*
X026696Y014767D02*
X026698Y014749D01*
X026697Y014732D01*
X026693Y014715D01*
X026686Y014699D01*
X026676Y014684D01*
X026664Y014672D01*
X026650Y014662D01*
X026634Y014654D01*
X026618Y014649D01*
X025988Y014649D01*
X025987Y014649D02*
X025971Y014654D01*
X025955Y014662D01*
X025941Y014672D01*
X025929Y014684D01*
X025919Y014699D01*
X025912Y014715D01*
X025908Y014732D01*
X025907Y014749D01*
X025909Y014767D01*
X025909Y015317D02*
X025907Y015335D01*
X025908Y015352D01*
X025912Y015369D01*
X025919Y015385D01*
X025929Y015400D01*
X025941Y015412D01*
X025955Y015422D01*
X025971Y015430D01*
X025987Y015435D01*
X027867Y012986D02*
X030447Y012986D01*
X030447Y011586D01*
X027867Y011586D01*
X027867Y012986D01*
X026141Y005967D02*
X034015Y005967D01*
X034015Y002424D01*
X033622Y002424D01*
X033047Y001873D02*
X033047Y001259D01*
X032740Y001566D02*
X033354Y001566D01*
X032440Y002424D02*
X031653Y002424D01*
X030472Y002424D02*
X029685Y002424D01*
X028503Y002424D02*
X027716Y002424D01*
X026535Y002424D02*
X026141Y002424D01*
X026141Y005967D01*
X023397Y005967D02*
X023397Y002424D01*
X023003Y002424D01*
X022417Y001775D02*
X022417Y001161D01*
X022110Y001468D02*
X022724Y001468D01*
X021822Y002424D02*
X021035Y002424D01*
X019854Y002424D02*
X019066Y002424D01*
X017885Y002424D02*
X017098Y002424D01*
X015917Y002424D02*
X015523Y002424D01*
X015523Y005967D01*
X023397Y005967D01*
X012858Y005908D02*
X012858Y002365D01*
X012464Y002365D01*
X011787Y001775D02*
X011787Y001161D01*
X011480Y001468D02*
X012094Y001468D01*
X011283Y002365D02*
X010496Y002365D01*
X009314Y002365D02*
X008527Y002365D01*
X007346Y002365D02*
X006559Y002365D01*
X005377Y002365D02*
X004984Y002365D01*
X004984Y005908D01*
X012858Y005908D01*
X003803Y003251D02*
X000259Y003251D01*
X000259Y003645D01*
X000259Y004826D02*
X000259Y005613D01*
X000259Y006794D02*
X000259Y007582D01*
X000259Y008763D02*
X000259Y009550D01*
X000259Y010731D02*
X000259Y011125D01*
X003803Y011125D01*
X003803Y003251D01*
D13*
X003980Y003642D02*
X004210Y003642D01*
X004133Y003795D01*
X004133Y003872D01*
X004210Y003949D01*
X004363Y003949D01*
X004440Y003872D01*
X004440Y003718D01*
X004363Y003642D01*
X003980Y003642D02*
X003980Y003949D01*
X003980Y004102D02*
X004287Y004102D01*
X004440Y004256D01*
X004287Y004409D01*
X003980Y004409D01*
X004210Y004562D02*
X004210Y004869D01*
X004363Y004716D02*
X004056Y004716D01*
X003980Y005413D02*
X004210Y005413D01*
X004133Y005567D01*
X004133Y005644D01*
X004210Y005720D01*
X004363Y005720D01*
X004440Y005644D01*
X004440Y005490D01*
X004363Y005413D01*
X003980Y005413D02*
X003980Y005720D01*
X003980Y005874D02*
X004287Y005874D01*
X004440Y006027D01*
X004287Y006181D01*
X003980Y006181D01*
X004210Y006334D02*
X004210Y006641D01*
X004363Y006488D02*
X004056Y006488D01*
X004049Y007385D02*
X004356Y007385D01*
X004432Y007462D01*
X004432Y007615D01*
X004356Y007692D01*
X004202Y007692D01*
X004202Y007539D01*
X004049Y007692D02*
X003972Y007615D01*
X003972Y007462D01*
X004049Y007385D01*
X003972Y007845D02*
X004432Y008152D01*
X003972Y008152D01*
X003972Y008306D02*
X003972Y008536D01*
X004049Y008613D01*
X004356Y008613D01*
X004432Y008536D01*
X004432Y008306D01*
X003972Y008306D01*
X003972Y007845D02*
X004432Y007845D01*
X005985Y008846D02*
X006292Y008846D01*
X006446Y008846D02*
X006753Y008846D01*
X006906Y008846D02*
X007136Y008846D01*
X007213Y008923D01*
X007213Y009230D01*
X007136Y009307D01*
X006906Y009307D01*
X006906Y008846D01*
X006599Y009076D02*
X006446Y009076D01*
X006446Y008846D02*
X006446Y009307D01*
X006753Y009307D01*
X006753Y009535D02*
X006446Y009535D01*
X006446Y009996D01*
X006753Y009996D01*
X006906Y009996D02*
X007136Y009996D01*
X007213Y009919D01*
X007213Y009612D01*
X007136Y009535D01*
X006906Y009535D01*
X006906Y009996D01*
X006906Y010224D02*
X007136Y010224D01*
X007213Y010301D01*
X007213Y010608D01*
X007136Y010685D01*
X006906Y010685D01*
X006906Y010224D01*
X006753Y010224D02*
X006446Y010224D01*
X006446Y010685D01*
X006753Y010685D01*
X006599Y010454D02*
X006446Y010454D01*
X006292Y010224D02*
X005985Y010224D01*
X005985Y010685D01*
X005985Y009996D02*
X005985Y009535D01*
X006292Y009535D01*
X006446Y009765D02*
X006599Y009765D01*
X005985Y009307D02*
X005985Y008846D01*
X007367Y008923D02*
X007443Y008846D01*
X007597Y008846D01*
X007674Y008923D01*
X007674Y009000D01*
X007597Y009076D01*
X007520Y009076D01*
X007597Y009076D02*
X007674Y009153D01*
X007674Y009230D01*
X007597Y009307D01*
X007443Y009307D01*
X007367Y009230D01*
X007367Y009535D02*
X007674Y009842D01*
X007674Y009919D01*
X007597Y009996D01*
X007443Y009996D01*
X007367Y009919D01*
X007367Y010224D02*
X007674Y010224D01*
X007520Y010224D02*
X007520Y010685D01*
X007367Y010531D01*
X007367Y009535D02*
X007674Y009535D01*
X004432Y009529D02*
X004432Y009682D01*
X004356Y009759D01*
X004202Y009759D01*
X004202Y009605D01*
X004049Y009452D02*
X004356Y009452D01*
X004432Y009529D01*
X004432Y009912D02*
X003972Y009912D01*
X004432Y010219D01*
X003972Y010219D01*
X003972Y010373D02*
X003972Y010603D01*
X004049Y010680D01*
X004356Y010680D01*
X004432Y010603D01*
X004432Y010373D01*
X003972Y010373D01*
X004049Y009759D02*
X003972Y009682D01*
X003972Y009529D01*
X004049Y009452D01*
X002228Y011342D02*
X001921Y011342D01*
X002074Y011342D02*
X002074Y011802D01*
X001921Y011649D01*
X001767Y011802D02*
X001460Y011342D01*
X001767Y011342D02*
X001460Y011802D01*
X001716Y012306D02*
X001716Y012767D01*
X001947Y012767D01*
X002023Y012690D01*
X002023Y012536D01*
X001947Y012460D01*
X001716Y012460D01*
X002177Y012306D02*
X002407Y012306D01*
X002484Y012383D01*
X002484Y012690D01*
X002407Y012767D01*
X002177Y012767D01*
X002177Y012306D01*
X002637Y012306D02*
X002791Y012306D01*
X002714Y012306D02*
X002714Y012767D01*
X002637Y012767D02*
X002791Y012767D01*
X004049Y017917D02*
X004356Y017917D01*
X004432Y017993D01*
X004432Y018147D01*
X004356Y018223D01*
X004202Y018223D01*
X004202Y018070D01*
X004049Y018223D02*
X003972Y018147D01*
X003972Y017993D01*
X004049Y017917D01*
X003972Y018377D02*
X004432Y018684D01*
X003972Y018684D01*
X003972Y018837D02*
X003972Y019068D01*
X004049Y019144D01*
X004356Y019144D01*
X004432Y019068D01*
X004432Y018837D01*
X003972Y018837D01*
X003972Y018377D02*
X004432Y018377D01*
X004356Y019983D02*
X004049Y019983D01*
X003972Y020060D01*
X003972Y020214D01*
X004049Y020290D01*
X004202Y020290D02*
X004202Y020137D01*
X004202Y020290D02*
X004356Y020290D01*
X004432Y020214D01*
X004432Y020060D01*
X004356Y019983D01*
X004432Y020444D02*
X003972Y020444D01*
X004432Y020751D01*
X003972Y020751D01*
X003972Y020904D02*
X003972Y021134D01*
X004049Y021211D01*
X004356Y021211D01*
X004432Y021134D01*
X004432Y020904D01*
X003972Y020904D01*
X003980Y021850D02*
X004210Y021850D01*
X004133Y022004D01*
X004133Y022081D01*
X004210Y022157D01*
X004363Y022157D01*
X004440Y022081D01*
X004440Y021927D01*
X004363Y021850D01*
X003980Y021850D02*
X003980Y022157D01*
X003980Y022311D02*
X004287Y022311D01*
X004440Y022464D01*
X004287Y022618D01*
X003980Y022618D01*
X004210Y022771D02*
X004210Y023078D01*
X004363Y022925D02*
X004056Y022925D01*
X003980Y023917D02*
X004210Y023917D01*
X004133Y024071D01*
X004133Y024147D01*
X004210Y024224D01*
X004363Y024224D01*
X004440Y024147D01*
X004440Y023994D01*
X004363Y023917D01*
X003980Y023917D02*
X003980Y024224D01*
X003980Y024378D02*
X004287Y024378D01*
X004440Y024531D01*
X004287Y024685D01*
X003980Y024685D01*
X004210Y024838D02*
X004210Y025145D01*
X004056Y024991D02*
X004363Y024991D01*
X002326Y025672D02*
X002019Y025672D01*
X002326Y025979D01*
X002326Y026056D01*
X002249Y026133D01*
X002096Y026133D01*
X002019Y026056D01*
X001866Y026133D02*
X001559Y025672D01*
X001866Y025672D02*
X001559Y026133D01*
X012716Y026116D02*
X012716Y026269D01*
X012793Y026346D01*
X012869Y026346D01*
X012946Y026269D01*
X013023Y026346D01*
X013100Y026346D01*
X013176Y026269D01*
X013176Y026116D01*
X013100Y026039D01*
X013176Y025885D02*
X013176Y025578D01*
X012716Y025578D01*
X012793Y026039D02*
X012716Y026116D01*
X012946Y026192D02*
X012946Y026269D01*
X013027Y021868D02*
X013027Y021561D01*
X013027Y021715D02*
X013487Y021715D01*
X013487Y021408D02*
X013334Y021255D01*
X013334Y021331D02*
X013334Y021101D01*
X013487Y021101D02*
X013027Y021101D01*
X013027Y021331D01*
X013104Y021408D01*
X013257Y021408D01*
X013334Y021331D01*
X013257Y020948D02*
X013257Y020641D01*
X013180Y020641D02*
X013027Y020794D01*
X013180Y020948D01*
X013487Y020948D01*
X013487Y020641D02*
X013180Y020641D01*
X013027Y020487D02*
X013411Y020487D01*
X013487Y020411D01*
X013487Y020257D01*
X013411Y020180D01*
X013027Y020180D01*
X015304Y019844D02*
X015380Y019768D01*
X015457Y019768D01*
X015534Y019844D01*
X015534Y020228D01*
X015457Y020228D02*
X015611Y020228D01*
X015764Y020228D02*
X015994Y020228D01*
X016071Y020151D01*
X016071Y019998D01*
X015994Y019921D01*
X015764Y019921D01*
X015764Y019768D02*
X015764Y020228D01*
X016224Y020151D02*
X016301Y020228D01*
X016455Y020228D01*
X016531Y020151D01*
X016531Y020075D01*
X016224Y019768D01*
X016531Y019768D01*
X023381Y025539D02*
X023842Y025539D01*
X023842Y025846D01*
X023612Y025999D02*
X023381Y026230D01*
X023842Y026230D01*
X023612Y026306D02*
X023612Y025999D01*
X033705Y019263D02*
X033705Y018802D01*
X033935Y018802D01*
X034011Y018879D01*
X034011Y019186D01*
X033935Y019263D01*
X033705Y019263D01*
X034165Y019263D02*
X034165Y018802D01*
X034472Y018802D02*
X034472Y019263D01*
X034318Y019109D01*
X034165Y019263D01*
X034625Y019263D02*
X034932Y018802D01*
X034625Y018802D02*
X034932Y019263D01*
X034954Y014046D02*
X034954Y013739D01*
X035107Y013586D01*
X035261Y013739D01*
X035261Y014046D01*
X035414Y013816D02*
X035721Y013816D01*
X035568Y013969D02*
X035568Y013663D01*
X034801Y013663D02*
X034724Y013586D01*
X034570Y013586D01*
X034494Y013663D01*
X034340Y013663D02*
X034340Y013586D01*
X034263Y013586D01*
X034263Y013663D01*
X034340Y013663D01*
X034110Y013663D02*
X034033Y013586D01*
X033880Y013586D01*
X033803Y013663D01*
X033956Y013816D02*
X034033Y013816D01*
X034110Y013739D01*
X034110Y013663D01*
X034033Y013816D02*
X034110Y013893D01*
X034110Y013969D01*
X034033Y014046D01*
X033880Y014046D01*
X033803Y013969D01*
X034494Y013969D02*
X034570Y014046D01*
X034724Y014046D01*
X034801Y013969D01*
X034801Y013893D01*
X034724Y013816D01*
X034801Y013739D01*
X034801Y013663D01*
X034724Y013816D02*
X034647Y013816D01*
X034570Y010995D02*
X034570Y010535D01*
X034263Y010995D01*
X034263Y010535D01*
X034110Y010611D02*
X034110Y010765D01*
X033956Y010765D01*
X033803Y010918D02*
X033803Y010611D01*
X033880Y010535D01*
X034033Y010535D01*
X034110Y010611D01*
X034110Y010918D02*
X034033Y010995D01*
X033880Y010995D01*
X033803Y010918D01*
X034724Y010995D02*
X034724Y010535D01*
X034954Y010535D01*
X035031Y010611D01*
X035031Y010918D01*
X034954Y010995D01*
X034724Y010995D01*
X027715Y011708D02*
X027715Y011861D01*
X027715Y011785D02*
X027255Y011785D01*
X027255Y011861D02*
X027255Y011708D01*
X027332Y012015D02*
X027255Y012092D01*
X027255Y012245D01*
X027332Y012322D01*
X027332Y012475D02*
X027255Y012552D01*
X027255Y012705D01*
X027332Y012782D01*
X027409Y012782D01*
X027485Y012705D01*
X027562Y012782D01*
X027639Y012782D01*
X027715Y012705D01*
X027715Y012552D01*
X027639Y012475D01*
X027639Y012322D02*
X027715Y012245D01*
X027715Y012092D01*
X027639Y012015D01*
X027332Y012015D01*
X027485Y012629D02*
X027485Y012705D01*
X016274Y010266D02*
X015967Y010266D01*
X016120Y010266D02*
X016120Y010726D01*
X015967Y010573D01*
X015813Y010650D02*
X015736Y010726D01*
X015583Y010726D01*
X015506Y010650D01*
X015506Y010343D01*
X015583Y010266D01*
X015736Y010266D01*
X015813Y010343D01*
X015353Y010266D02*
X015199Y010266D01*
X015276Y010266D02*
X015276Y010726D01*
X015199Y010726D02*
X015353Y010726D01*
X015306Y003211D02*
X015306Y002904D01*
X015306Y002751D02*
X015306Y002444D01*
X014846Y002444D01*
X014999Y002904D02*
X014846Y003058D01*
X015306Y003058D01*
X025464Y002981D02*
X025541Y002904D01*
X025464Y002981D02*
X025464Y003135D01*
X025541Y003211D01*
X025617Y003211D01*
X025924Y002904D01*
X025924Y003211D01*
X025924Y002751D02*
X025924Y002444D01*
X025464Y002444D01*
X004767Y002385D02*
X004767Y002692D01*
X004690Y002845D02*
X004383Y003152D01*
X004690Y003152D01*
X004767Y003076D01*
X004767Y002922D01*
X004690Y002845D01*
X004383Y002845D01*
X004307Y002922D01*
X004307Y003076D01*
X004383Y003152D01*
X004307Y002385D02*
X004767Y002385D01*
X033999Y025559D02*
X034460Y025559D01*
X034460Y025866D01*
X034383Y026019D02*
X034460Y026096D01*
X034460Y026249D01*
X034383Y026326D01*
X034230Y026326D01*
X034153Y026249D01*
X034153Y026173D01*
X034230Y026019D01*
X033999Y026019D01*
X033999Y026326D01*
D14*
X026548Y015847D02*
X026451Y015751D01*
X026548Y015847D02*
X026548Y015557D01*
X026451Y015557D02*
X026645Y015557D01*
X026302Y015606D02*
X026302Y015847D01*
X026350Y015847D02*
X026253Y015847D01*
X026055Y015799D02*
X026007Y015847D01*
X025910Y015847D01*
X025862Y015799D01*
X025862Y015751D01*
X025910Y015702D01*
X026007Y015702D01*
X026055Y015654D01*
X026055Y015606D01*
X026007Y015557D01*
X025910Y015557D01*
X025862Y015606D01*
X026156Y015606D02*
X026205Y015557D01*
X026253Y015557D01*
X026302Y015606D01*
X025277Y011252D02*
X025325Y011204D01*
X025325Y011107D01*
X025277Y011059D01*
X025228Y011059D01*
X025180Y011107D01*
X025180Y011204D01*
X025228Y011252D01*
X025277Y011252D01*
X025180Y011204D02*
X025132Y011252D01*
X025083Y011252D01*
X025035Y011204D01*
X025035Y011107D01*
X025083Y011059D01*
X025132Y011059D01*
X025180Y011107D01*
X025277Y010957D02*
X025325Y010909D01*
X025325Y010812D01*
X025277Y010764D01*
X025083Y010764D01*
X025035Y010812D01*
X025035Y010909D01*
X025083Y010957D01*
X032909Y010960D02*
X033054Y010960D01*
X033006Y011057D01*
X033006Y011105D01*
X033054Y011154D01*
X033151Y011154D01*
X033199Y011105D01*
X033199Y011008D01*
X033151Y010960D01*
X033151Y010859D02*
X033199Y010811D01*
X033199Y010714D01*
X033151Y010665D01*
X032957Y010665D01*
X032909Y010714D01*
X032909Y010811D01*
X032957Y010859D01*
X032909Y010960D02*
X032909Y011154D01*
X016248Y021849D02*
X015958Y021849D01*
X015958Y021994D01*
X016006Y022042D01*
X016103Y022042D01*
X016152Y021994D01*
X016152Y021849D01*
X016152Y021945D02*
X016248Y022042D01*
X016248Y022143D02*
X015958Y022337D01*
X015958Y022143D02*
X016248Y022337D01*
X015264Y022337D02*
X014974Y022143D01*
X014974Y022042D02*
X014974Y021849D01*
X014974Y021945D02*
X015264Y021945D01*
X015264Y022143D02*
X014974Y022337D01*
X014280Y022337D02*
X013990Y022337D01*
X013990Y022438D02*
X013990Y022583D01*
X014038Y022631D01*
X014231Y022631D01*
X014280Y022583D01*
X014280Y022438D01*
X013990Y022438D01*
X013990Y022143D02*
X014280Y022337D01*
X014280Y022143D02*
X013990Y022143D01*
X014038Y022042D02*
X013990Y021994D01*
X013990Y021897D01*
X014038Y021849D01*
X014231Y021849D01*
X014280Y021897D01*
X014280Y021994D01*
X014231Y022042D01*
X014135Y022042D01*
X014135Y021945D01*
D15*
X011892Y021127D02*
X011892Y020977D01*
X011842Y020977D02*
X011942Y020977D01*
X011842Y021077D02*
X011892Y021127D01*
X011744Y021127D02*
X011744Y020977D01*
X011694Y020977D02*
X011794Y020977D01*
X011694Y021077D02*
X011744Y021127D01*
X011647Y021102D02*
X011647Y021052D01*
X011622Y021027D01*
X011547Y021027D01*
X011597Y021027D02*
X011647Y020977D01*
X011547Y020977D02*
X011547Y021127D01*
X011622Y021127D01*
X011647Y021102D01*
X009737Y021102D02*
X009712Y021127D01*
X009662Y021127D01*
X009637Y021102D01*
X009737Y021102D02*
X009737Y021077D01*
X009637Y020977D01*
X009737Y020977D01*
X009590Y020977D02*
X009490Y020977D01*
X009442Y020977D02*
X009392Y021027D01*
X009417Y021027D02*
X009342Y021027D01*
X009342Y020977D02*
X009342Y021127D01*
X009417Y021127D01*
X009442Y021102D01*
X009442Y021052D01*
X009417Y021027D01*
X009490Y021077D02*
X009540Y021127D01*
X009540Y020977D01*
X007532Y021013D02*
X007507Y020988D01*
X007457Y020988D01*
X007432Y021013D01*
X007385Y020988D02*
X007285Y020988D01*
X007238Y020988D02*
X007188Y021038D01*
X007213Y021038D02*
X007138Y021038D01*
X007138Y020988D02*
X007138Y021138D01*
X007213Y021138D01*
X007238Y021113D01*
X007238Y021063D01*
X007213Y021038D01*
X007285Y021088D02*
X007335Y021138D01*
X007335Y020988D01*
X007432Y021113D02*
X007457Y021138D01*
X007507Y021138D01*
X007532Y021113D01*
X007532Y021088D01*
X007507Y021063D01*
X007532Y021038D01*
X007532Y021013D01*
X007507Y021063D02*
X007482Y021063D01*
X005259Y015560D02*
X005259Y015409D01*
X005209Y015409D02*
X005309Y015409D01*
X005209Y015510D02*
X005259Y015560D01*
X005162Y015535D02*
X005162Y015485D01*
X005137Y015460D01*
X005062Y015460D01*
X005112Y015460D02*
X005162Y015409D01*
X005062Y015409D02*
X005062Y015560D01*
X005137Y015560D01*
X005162Y015535D01*
X003864Y013893D02*
X003864Y013793D01*
X003864Y013843D02*
X003714Y013843D01*
X003764Y013793D01*
X003739Y013746D02*
X003714Y013721D01*
X003714Y013671D01*
X003739Y013646D01*
X003839Y013646D01*
X003864Y013671D01*
X003864Y013721D01*
X003839Y013746D01*
X008386Y014917D02*
X008411Y014892D01*
X008511Y014892D01*
X008536Y014917D01*
X008536Y014967D01*
X008511Y014992D01*
X008536Y015039D02*
X008436Y015139D01*
X008411Y015139D01*
X008386Y015114D01*
X008386Y015064D01*
X008411Y015039D01*
X008411Y014992D02*
X008386Y014967D01*
X008386Y014917D01*
X008536Y015039D02*
X008536Y015139D01*
X008481Y012206D02*
X008456Y012206D01*
X008431Y012181D01*
X008431Y012156D01*
X008431Y012181D02*
X008406Y012206D01*
X008381Y012206D01*
X008356Y012181D01*
X008356Y012131D01*
X008381Y012106D01*
X008381Y012059D02*
X008356Y012034D01*
X008356Y011984D01*
X008381Y011959D01*
X008481Y011959D01*
X008506Y011984D01*
X008506Y012034D01*
X008481Y012059D01*
X008481Y012106D02*
X008506Y012131D01*
X008506Y012181D01*
X008481Y012206D01*
X011698Y010481D02*
X011698Y010330D01*
X011698Y010381D02*
X011773Y010381D01*
X011798Y010406D01*
X011798Y010456D01*
X011773Y010481D01*
X011698Y010481D01*
X011748Y010381D02*
X011798Y010330D01*
X011845Y010330D02*
X011945Y010431D01*
X011945Y010456D01*
X011920Y010481D01*
X011870Y010481D01*
X011845Y010456D01*
X011845Y010330D02*
X011945Y010330D01*
X011992Y010330D02*
X012093Y010330D01*
X012042Y010330D02*
X012042Y010481D01*
X011992Y010431D01*
X012017Y009890D02*
X011992Y009865D01*
X012017Y009890D02*
X012068Y009890D01*
X012093Y009865D01*
X012093Y009840D01*
X011992Y009740D01*
X012093Y009740D01*
X011945Y009740D02*
X011845Y009740D01*
X011945Y009840D01*
X011945Y009865D01*
X011920Y009890D01*
X011870Y009890D01*
X011845Y009865D01*
X011798Y009865D02*
X011798Y009815D01*
X011773Y009790D01*
X011698Y009790D01*
X011748Y009790D02*
X011798Y009740D01*
X011698Y009740D02*
X011698Y009890D01*
X011773Y009890D01*
X011798Y009865D01*
X011773Y009299D02*
X011798Y009274D01*
X011798Y009224D01*
X011773Y009199D01*
X011698Y009199D01*
X011698Y009149D02*
X011698Y009299D01*
X011773Y009299D01*
X011845Y009274D02*
X011870Y009299D01*
X011920Y009299D01*
X011945Y009274D01*
X011945Y009249D01*
X011845Y009149D01*
X011945Y009149D01*
X011992Y009174D02*
X012017Y009149D01*
X012068Y009149D01*
X012093Y009174D01*
X012093Y009199D01*
X012068Y009224D01*
X012042Y009224D01*
X012068Y009224D02*
X012093Y009249D01*
X012093Y009274D01*
X012068Y009299D01*
X012017Y009299D01*
X011992Y009274D01*
X011798Y009149D02*
X011748Y009199D01*
X010915Y007164D02*
X010840Y007089D01*
X010940Y007089D01*
X010915Y007014D02*
X010915Y007164D01*
X010793Y007139D02*
X010793Y007089D01*
X010768Y007064D01*
X010693Y007064D01*
X010693Y007014D02*
X010693Y007164D01*
X010768Y007164D01*
X010793Y007139D01*
X010743Y007064D02*
X010793Y007014D01*
X008758Y007006D02*
X008733Y006981D01*
X008683Y006981D01*
X008658Y007006D01*
X008611Y006981D02*
X008561Y007031D01*
X008586Y007031D02*
X008510Y007031D01*
X008510Y006981D02*
X008510Y007131D01*
X008586Y007131D01*
X008611Y007106D01*
X008611Y007056D01*
X008586Y007031D01*
X008658Y007106D02*
X008683Y007131D01*
X008733Y007131D01*
X008758Y007106D01*
X008758Y007081D01*
X008733Y007056D01*
X008758Y007031D01*
X008758Y007006D01*
X008733Y007056D02*
X008708Y007056D01*
X006511Y007015D02*
X006411Y007015D01*
X006511Y007115D01*
X006511Y007140D01*
X006486Y007165D01*
X006436Y007165D01*
X006411Y007140D01*
X006364Y007140D02*
X006364Y007090D01*
X006339Y007065D01*
X006264Y007065D01*
X006314Y007065D02*
X006364Y007015D01*
X006264Y007015D02*
X006264Y007165D01*
X006339Y007165D01*
X006364Y007140D01*
X013321Y013112D02*
X013346Y013087D01*
X013396Y013087D01*
X013421Y013112D01*
X013468Y013162D02*
X013568Y013162D01*
X013543Y013087D02*
X013543Y013237D01*
X013468Y013162D01*
X013421Y013212D02*
X013396Y013237D01*
X013346Y013237D01*
X013321Y013212D01*
X013321Y013112D01*
X016748Y007259D02*
X016823Y007259D01*
X016848Y007234D01*
X016848Y007184D01*
X016823Y007159D01*
X016748Y007159D01*
X016748Y007109D02*
X016748Y007259D01*
X016798Y007159D02*
X016848Y007109D01*
X016896Y007134D02*
X016921Y007109D01*
X016971Y007109D01*
X016996Y007134D01*
X016996Y007184D01*
X016971Y007209D01*
X016946Y007209D01*
X016896Y007184D01*
X016896Y007259D01*
X016996Y007259D01*
X018914Y007259D02*
X018914Y007109D01*
X018914Y007159D02*
X018989Y007159D01*
X019014Y007184D01*
X019014Y007234D01*
X018989Y007259D01*
X018914Y007259D01*
X018964Y007159D02*
X019014Y007109D01*
X019061Y007134D02*
X019086Y007109D01*
X019136Y007109D01*
X019161Y007134D01*
X019161Y007159D01*
X019136Y007184D01*
X019061Y007184D01*
X019061Y007134D01*
X019061Y007184D02*
X019111Y007234D01*
X019161Y007259D01*
X021079Y007259D02*
X021079Y007109D01*
X021079Y007159D02*
X021154Y007159D01*
X021179Y007184D01*
X021179Y007234D01*
X021154Y007259D01*
X021079Y007259D01*
X021129Y007159D02*
X021179Y007109D01*
X021226Y007109D02*
X021226Y007134D01*
X021326Y007234D01*
X021326Y007259D01*
X021226Y007259D01*
X026789Y007896D02*
X026789Y008047D01*
X026864Y008047D01*
X026889Y008022D01*
X026889Y007971D01*
X026864Y007946D01*
X026789Y007946D01*
X026839Y007946D02*
X026889Y007896D01*
X026937Y007921D02*
X026937Y007946D01*
X026962Y007971D01*
X027012Y007971D01*
X027037Y007946D01*
X027037Y007921D01*
X027012Y007896D01*
X026962Y007896D01*
X026937Y007921D01*
X026962Y007971D02*
X026937Y007997D01*
X026937Y008022D01*
X026962Y008047D01*
X027012Y008047D01*
X027037Y008022D01*
X027037Y007997D01*
X027012Y007971D01*
X028955Y007947D02*
X029030Y007947D01*
X029055Y007972D01*
X029055Y008022D01*
X029030Y008047D01*
X028955Y008047D01*
X028955Y007897D01*
X029005Y007947D02*
X029055Y007897D01*
X029102Y007922D02*
X029127Y007897D01*
X029177Y007897D01*
X029202Y007922D01*
X029202Y008022D01*
X029177Y008047D01*
X029127Y008047D01*
X029102Y008022D01*
X029102Y007997D01*
X029127Y007972D01*
X029202Y007972D01*
X030961Y008014D02*
X031036Y008014D01*
X031061Y007988D01*
X031061Y007938D01*
X031036Y007913D01*
X030961Y007913D01*
X030961Y007863D02*
X030961Y008014D01*
X031011Y007913D02*
X031061Y007863D01*
X031108Y007863D02*
X031208Y007863D01*
X031158Y007863D02*
X031158Y008014D01*
X031108Y007963D01*
X031256Y007988D02*
X031281Y008014D01*
X031331Y008014D01*
X031356Y007988D01*
X031256Y007888D01*
X031281Y007863D01*
X031331Y007863D01*
X031356Y007888D01*
X031356Y007988D01*
X031256Y007988D02*
X031256Y007888D01*
X022649Y013798D02*
X022649Y013848D01*
X022624Y013873D01*
X022624Y013920D02*
X022649Y013945D01*
X022649Y013995D01*
X022624Y014020D01*
X022599Y014020D01*
X022574Y013995D01*
X022574Y013920D01*
X022624Y013920D01*
X022574Y013920D02*
X022524Y013970D01*
X022499Y014020D01*
X022524Y013873D02*
X022499Y013848D01*
X022499Y013798D01*
X022524Y013773D01*
X022624Y013773D01*
X022649Y013798D01*
X030348Y019213D02*
X030373Y019188D01*
X030424Y019188D01*
X030449Y019213D01*
X030496Y019213D02*
X030496Y019188D01*
X030496Y019213D02*
X030596Y019313D01*
X030596Y019338D01*
X030496Y019338D01*
X030449Y019313D02*
X030424Y019338D01*
X030373Y019338D01*
X030348Y019313D01*
X030348Y019213D01*
X030831Y020982D02*
X030831Y021133D01*
X030906Y021133D01*
X030931Y021108D01*
X030931Y021058D01*
X030906Y021032D01*
X030831Y021032D01*
X030881Y021032D02*
X030931Y020982D01*
X030978Y020982D02*
X031078Y020982D01*
X031028Y020982D02*
X031028Y021133D01*
X030978Y021083D01*
X031125Y021083D02*
X031125Y021108D01*
X031150Y021133D01*
X031200Y021133D01*
X031225Y021108D01*
X031225Y021083D01*
X031200Y021058D01*
X031150Y021058D01*
X031125Y021083D01*
X031150Y021058D02*
X031125Y021032D01*
X031125Y021007D01*
X031150Y020982D01*
X031200Y020982D01*
X031225Y021007D01*
X031225Y021032D01*
X031200Y021058D01*
X032897Y021032D02*
X032973Y021032D01*
X032998Y021058D01*
X032998Y021108D01*
X032973Y021133D01*
X032897Y021133D01*
X032897Y020982D01*
X032947Y021032D02*
X032998Y020982D01*
X033045Y020982D02*
X033145Y020982D01*
X033192Y020982D02*
X033192Y021007D01*
X033292Y021108D01*
X033292Y021133D01*
X033192Y021133D01*
X033095Y021133D02*
X033095Y020982D01*
X033045Y021083D02*
X033095Y021133D01*
X029060Y021108D02*
X029060Y021007D01*
X029035Y020982D01*
X028985Y020982D01*
X028960Y021007D01*
X028913Y020982D02*
X028812Y020982D01*
X028765Y020982D02*
X028715Y021032D01*
X028740Y021032D02*
X028665Y021032D01*
X028665Y020982D02*
X028665Y021133D01*
X028740Y021133D01*
X028765Y021108D01*
X028765Y021058D01*
X028740Y021032D01*
X028812Y021083D02*
X028863Y021133D01*
X028863Y020982D01*
X028960Y021083D02*
X028985Y021058D01*
X029060Y021058D01*
X029060Y021108D02*
X029035Y021133D01*
X028985Y021133D01*
X028960Y021108D01*
X028960Y021083D01*
X032366Y017564D02*
X032466Y017464D01*
X032491Y017489D01*
X032491Y017539D01*
X032466Y017564D01*
X032366Y017564D01*
X032341Y017539D01*
X032341Y017489D01*
X032366Y017464D01*
X032466Y017464D01*
X032491Y017416D02*
X032491Y017316D01*
X032391Y017416D01*
X032366Y017416D01*
X032341Y017391D01*
X032341Y017341D01*
X032366Y017316D01*
X032366Y017269D02*
X032416Y017269D01*
X032441Y017244D01*
X032441Y017169D01*
X032441Y017219D02*
X032491Y017269D01*
X032491Y017169D02*
X032341Y017169D01*
X032341Y017244D01*
X032366Y017269D01*
X022629Y021000D02*
X022629Y021150D01*
X022554Y021075D01*
X022654Y021075D01*
X022507Y021000D02*
X022407Y021000D01*
X022360Y021000D02*
X022310Y021050D01*
X022335Y021050D02*
X022260Y021050D01*
X022260Y021000D02*
X022260Y021150D01*
X022335Y021150D01*
X022360Y021125D01*
X022360Y021075D01*
X022335Y021050D01*
X022407Y021100D02*
X022457Y021150D01*
X022457Y021000D01*
X020528Y021025D02*
X020503Y021000D01*
X020453Y021000D01*
X020428Y021025D01*
X020428Y021075D02*
X020478Y021100D01*
X020503Y021100D01*
X020528Y021075D01*
X020528Y021025D01*
X020428Y021075D02*
X020428Y021150D01*
X020528Y021150D01*
X020331Y021150D02*
X020331Y021000D01*
X020281Y021000D02*
X020381Y021000D01*
X020281Y021100D02*
X020331Y021150D01*
X020234Y021125D02*
X020234Y021075D01*
X020209Y021050D01*
X020134Y021050D01*
X020184Y021050D02*
X020234Y021000D01*
X020134Y021000D02*
X020134Y021150D01*
X020209Y021150D01*
X020234Y021125D01*
X018402Y021150D02*
X018352Y021125D01*
X018302Y021075D01*
X018377Y021075D01*
X018402Y021050D01*
X018402Y021025D01*
X018377Y021000D01*
X018327Y021000D01*
X018302Y021025D01*
X018302Y021075D01*
X018255Y021000D02*
X018155Y021000D01*
X018108Y021000D02*
X018058Y021050D01*
X018083Y021050D02*
X018008Y021050D01*
X018008Y021000D02*
X018008Y021150D01*
X018083Y021150D01*
X018108Y021125D01*
X018108Y021075D01*
X018083Y021050D01*
X018155Y021100D02*
X018205Y021150D01*
X018205Y021000D01*
D16*
X011650Y014916D02*
X011650Y012216D01*
X011350Y012216D02*
X011350Y014916D01*
X011349Y014954D01*
X011344Y014991D01*
X011337Y015028D01*
X011328Y015064D01*
X011315Y015100D01*
X011300Y015134D01*
X010400Y015577D02*
X010355Y015545D01*
X010313Y015509D01*
X010273Y015470D01*
X010236Y015428D01*
X010202Y015385D01*
X010171Y015338D01*
X010143Y015290D01*
X010119Y015240D01*
X010098Y015189D01*
X010081Y015136D01*
X010067Y015082D01*
X010058Y015027D01*
X010052Y014972D01*
X010050Y014916D01*
X010050Y012216D01*
X010350Y012216D02*
X010350Y014916D01*
X010351Y014954D01*
X010356Y014991D01*
X010363Y015028D01*
X010372Y015064D01*
X010385Y015100D01*
X010400Y015134D01*
X011300Y015577D02*
X011345Y015545D01*
X011387Y015509D01*
X011427Y015470D01*
X011464Y015429D01*
X011498Y015385D01*
X011529Y015338D01*
X011557Y015290D01*
X011581Y015240D01*
X011602Y015189D01*
X011619Y015136D01*
X011633Y015082D01*
X011642Y015027D01*
X011648Y014972D01*
X011650Y014916D01*
X010850Y013966D02*
X010850Y013816D01*
X010850Y013316D02*
X010850Y013166D01*
X010050Y012216D02*
X010052Y012160D01*
X010058Y012105D01*
X010067Y012050D01*
X010081Y011996D01*
X010098Y011943D01*
X010119Y011892D01*
X010143Y011842D01*
X010171Y011794D01*
X010202Y011747D01*
X010236Y011703D01*
X010273Y011662D01*
X010313Y011623D01*
X010355Y011587D01*
X010400Y011555D01*
X011300Y011555D02*
X011345Y011587D01*
X011387Y011623D01*
X011427Y011662D01*
X011464Y011704D01*
X011498Y011747D01*
X011529Y011794D01*
X011557Y011842D01*
X011581Y011892D01*
X011602Y011943D01*
X011619Y011996D01*
X011633Y012050D01*
X011642Y012105D01*
X011648Y012160D01*
X011650Y012216D01*
X011350Y012216D02*
X011349Y012178D01*
X011344Y012141D01*
X011337Y012104D01*
X011328Y012068D01*
X011315Y012032D01*
X011300Y011998D01*
X010400Y011998D02*
X010385Y012032D01*
X010372Y012068D01*
X010363Y012104D01*
X010356Y012141D01*
X010351Y012178D01*
X010350Y012216D01*
X028444Y016393D02*
X028444Y018393D01*
D17*
X028424Y018568D02*
X028424Y019018D01*
X028349Y019018D02*
X028499Y019018D01*
X028656Y018943D02*
X028656Y018643D01*
X028731Y018568D01*
X028881Y018568D01*
X028957Y018643D01*
X029117Y018568D02*
X029417Y018868D01*
X029417Y018943D01*
X029342Y019018D01*
X029192Y019018D01*
X029117Y018943D01*
X028957Y018943D02*
X028881Y019018D01*
X028731Y019018D01*
X028656Y018943D01*
X028499Y018568D02*
X028349Y018568D01*
X029117Y018568D02*
X029417Y018568D01*
X031201Y013976D02*
X031201Y010596D01*
X032821Y010596D01*
X032821Y013976D01*
X031201Y013976D01*
X027113Y014075D02*
X027113Y010695D01*
X025493Y010695D01*
X025493Y014075D01*
X027113Y014075D01*
X012425Y014535D02*
X012350Y014460D01*
X012050Y014460D01*
X011975Y014535D01*
X011975Y014685D01*
X012050Y014760D01*
X012350Y014760D01*
X012425Y014685D01*
X012425Y014535D01*
X012275Y014610D02*
X012425Y014760D01*
X012425Y014920D02*
X012425Y015220D01*
X012425Y015070D02*
X011975Y015070D01*
X012125Y014920D01*
X012125Y015380D02*
X012200Y015455D01*
X012200Y015681D01*
X012350Y015681D02*
X012050Y015681D01*
X011975Y015606D01*
X011975Y015455D01*
X012050Y015380D01*
X012125Y015380D01*
X012350Y015380D02*
X012425Y015455D01*
X012425Y015606D01*
X012350Y015681D01*
X003914Y015666D02*
X003463Y015666D01*
X003613Y015516D01*
X003538Y015356D02*
X003688Y015356D01*
X003763Y015281D01*
X003763Y015056D01*
X003914Y015056D02*
X003463Y015056D01*
X003463Y015281D01*
X003538Y015356D01*
X003914Y015516D02*
X003914Y015817D01*
X003838Y014821D02*
X003463Y014821D01*
X003463Y014746D02*
X003463Y014896D01*
X003838Y014821D02*
X003914Y014746D01*
X003914Y014671D01*
X003838Y014595D01*
D18*
X026303Y013135D02*
X026303Y012885D01*
X032011Y011786D02*
X032011Y011536D01*
D19*
X008646Y010417D03*
X008646Y009826D03*
X008646Y009236D03*
M02*
