G75*
G70*
%OFA0B0*%
%FSLAX24Y24*%
%IPPOS*%
%LPD*%
%AMOC8*
5,1,8,0,0,1.08239X$1,22.5*
%
%ADD10C,0.0000*%
%ADD11R,0.0470X0.0220*%
%ADD12R,0.0220X0.0470*%
%ADD13R,0.0315X0.0472*%
%ADD14R,0.0472X0.0315*%
%ADD15R,0.0800X0.0260*%
%ADD16C,0.1500*%
%ADD17R,0.0760X0.2100*%
%ADD18OC8,0.0740*%
%ADD19C,0.0600*%
%ADD20C,0.0740*%
%ADD21R,0.0480X0.0880*%
%ADD22R,0.1417X0.0866*%
%ADD23R,0.0250X0.0500*%
%ADD24R,0.1400X0.0700*%
%ADD25R,0.0472X0.0472*%
%ADD26C,0.0475*%
%ADD27C,0.0100*%
%ADD28C,0.0160*%
%ADD29C,0.0120*%
%ADD30C,0.0240*%
D10*
X000326Y000188D02*
X000326Y028617D01*
X036598Y028617D01*
X036598Y000188D01*
X000326Y000188D01*
X001098Y001688D02*
X001100Y001738D01*
X001106Y001788D01*
X001116Y001837D01*
X001130Y001885D01*
X001147Y001932D01*
X001168Y001977D01*
X001193Y002021D01*
X001221Y002062D01*
X001253Y002101D01*
X001287Y002138D01*
X001324Y002172D01*
X001364Y002202D01*
X001406Y002229D01*
X001450Y002253D01*
X001496Y002274D01*
X001543Y002290D01*
X001591Y002303D01*
X001641Y002312D01*
X001690Y002317D01*
X001741Y002318D01*
X001791Y002315D01*
X001840Y002308D01*
X001889Y002297D01*
X001937Y002282D01*
X001983Y002264D01*
X002028Y002242D01*
X002071Y002216D01*
X002112Y002187D01*
X002151Y002155D01*
X002187Y002120D01*
X002219Y002082D01*
X002249Y002042D01*
X002276Y001999D01*
X002299Y001955D01*
X002318Y001909D01*
X002334Y001861D01*
X002346Y001812D01*
X002354Y001763D01*
X002358Y001713D01*
X002358Y001663D01*
X002354Y001613D01*
X002346Y001564D01*
X002334Y001515D01*
X002318Y001467D01*
X002299Y001421D01*
X002276Y001377D01*
X002249Y001334D01*
X002219Y001294D01*
X002187Y001256D01*
X002151Y001221D01*
X002112Y001189D01*
X002071Y001160D01*
X002028Y001134D01*
X001983Y001112D01*
X001937Y001094D01*
X001889Y001079D01*
X001840Y001068D01*
X001791Y001061D01*
X001741Y001058D01*
X001690Y001059D01*
X001641Y001064D01*
X001591Y001073D01*
X001543Y001086D01*
X001496Y001102D01*
X001450Y001123D01*
X001406Y001147D01*
X001364Y001174D01*
X001324Y001204D01*
X001287Y001238D01*
X001253Y001275D01*
X001221Y001314D01*
X001193Y001355D01*
X001168Y001399D01*
X001147Y001444D01*
X001130Y001491D01*
X001116Y001539D01*
X001106Y001588D01*
X001100Y001638D01*
X001098Y001688D01*
X001066Y027247D02*
X001068Y027297D01*
X001074Y027347D01*
X001084Y027396D01*
X001098Y027444D01*
X001115Y027491D01*
X001136Y027536D01*
X001161Y027580D01*
X001189Y027621D01*
X001221Y027660D01*
X001255Y027697D01*
X001292Y027731D01*
X001332Y027761D01*
X001374Y027788D01*
X001418Y027812D01*
X001464Y027833D01*
X001511Y027849D01*
X001559Y027862D01*
X001609Y027871D01*
X001658Y027876D01*
X001709Y027877D01*
X001759Y027874D01*
X001808Y027867D01*
X001857Y027856D01*
X001905Y027841D01*
X001951Y027823D01*
X001996Y027801D01*
X002039Y027775D01*
X002080Y027746D01*
X002119Y027714D01*
X002155Y027679D01*
X002187Y027641D01*
X002217Y027601D01*
X002244Y027558D01*
X002267Y027514D01*
X002286Y027468D01*
X002302Y027420D01*
X002314Y027371D01*
X002322Y027322D01*
X002326Y027272D01*
X002326Y027222D01*
X002322Y027172D01*
X002314Y027123D01*
X002302Y027074D01*
X002286Y027026D01*
X002267Y026980D01*
X002244Y026936D01*
X002217Y026893D01*
X002187Y026853D01*
X002155Y026815D01*
X002119Y026780D01*
X002080Y026748D01*
X002039Y026719D01*
X001996Y026693D01*
X001951Y026671D01*
X001905Y026653D01*
X001857Y026638D01*
X001808Y026627D01*
X001759Y026620D01*
X001709Y026617D01*
X001658Y026618D01*
X001609Y026623D01*
X001559Y026632D01*
X001511Y026645D01*
X001464Y026661D01*
X001418Y026682D01*
X001374Y026706D01*
X001332Y026733D01*
X001292Y026763D01*
X001255Y026797D01*
X001221Y026834D01*
X001189Y026873D01*
X001161Y026914D01*
X001136Y026958D01*
X001115Y027003D01*
X001098Y027050D01*
X001084Y027098D01*
X001074Y027147D01*
X001068Y027197D01*
X001066Y027247D01*
X034531Y027247D02*
X034533Y027297D01*
X034539Y027347D01*
X034549Y027396D01*
X034563Y027444D01*
X034580Y027491D01*
X034601Y027536D01*
X034626Y027580D01*
X034654Y027621D01*
X034686Y027660D01*
X034720Y027697D01*
X034757Y027731D01*
X034797Y027761D01*
X034839Y027788D01*
X034883Y027812D01*
X034929Y027833D01*
X034976Y027849D01*
X035024Y027862D01*
X035074Y027871D01*
X035123Y027876D01*
X035174Y027877D01*
X035224Y027874D01*
X035273Y027867D01*
X035322Y027856D01*
X035370Y027841D01*
X035416Y027823D01*
X035461Y027801D01*
X035504Y027775D01*
X035545Y027746D01*
X035584Y027714D01*
X035620Y027679D01*
X035652Y027641D01*
X035682Y027601D01*
X035709Y027558D01*
X035732Y027514D01*
X035751Y027468D01*
X035767Y027420D01*
X035779Y027371D01*
X035787Y027322D01*
X035791Y027272D01*
X035791Y027222D01*
X035787Y027172D01*
X035779Y027123D01*
X035767Y027074D01*
X035751Y027026D01*
X035732Y026980D01*
X035709Y026936D01*
X035682Y026893D01*
X035652Y026853D01*
X035620Y026815D01*
X035584Y026780D01*
X035545Y026748D01*
X035504Y026719D01*
X035461Y026693D01*
X035416Y026671D01*
X035370Y026653D01*
X035322Y026638D01*
X035273Y026627D01*
X035224Y026620D01*
X035174Y026617D01*
X035123Y026618D01*
X035074Y026623D01*
X035024Y026632D01*
X034976Y026645D01*
X034929Y026661D01*
X034883Y026682D01*
X034839Y026706D01*
X034797Y026733D01*
X034757Y026763D01*
X034720Y026797D01*
X034686Y026834D01*
X034654Y026873D01*
X034626Y026914D01*
X034601Y026958D01*
X034580Y027003D01*
X034563Y027050D01*
X034549Y027098D01*
X034539Y027147D01*
X034533Y027197D01*
X034531Y027247D01*
X034598Y001688D02*
X034600Y001738D01*
X034606Y001788D01*
X034616Y001837D01*
X034630Y001885D01*
X034647Y001932D01*
X034668Y001977D01*
X034693Y002021D01*
X034721Y002062D01*
X034753Y002101D01*
X034787Y002138D01*
X034824Y002172D01*
X034864Y002202D01*
X034906Y002229D01*
X034950Y002253D01*
X034996Y002274D01*
X035043Y002290D01*
X035091Y002303D01*
X035141Y002312D01*
X035190Y002317D01*
X035241Y002318D01*
X035291Y002315D01*
X035340Y002308D01*
X035389Y002297D01*
X035437Y002282D01*
X035483Y002264D01*
X035528Y002242D01*
X035571Y002216D01*
X035612Y002187D01*
X035651Y002155D01*
X035687Y002120D01*
X035719Y002082D01*
X035749Y002042D01*
X035776Y001999D01*
X035799Y001955D01*
X035818Y001909D01*
X035834Y001861D01*
X035846Y001812D01*
X035854Y001763D01*
X035858Y001713D01*
X035858Y001663D01*
X035854Y001613D01*
X035846Y001564D01*
X035834Y001515D01*
X035818Y001467D01*
X035799Y001421D01*
X035776Y001377D01*
X035749Y001334D01*
X035719Y001294D01*
X035687Y001256D01*
X035651Y001221D01*
X035612Y001189D01*
X035571Y001160D01*
X035528Y001134D01*
X035483Y001112D01*
X035437Y001094D01*
X035389Y001079D01*
X035340Y001068D01*
X035291Y001061D01*
X035241Y001058D01*
X035190Y001059D01*
X035141Y001064D01*
X035091Y001073D01*
X035043Y001086D01*
X034996Y001102D01*
X034950Y001123D01*
X034906Y001147D01*
X034864Y001174D01*
X034824Y001204D01*
X034787Y001238D01*
X034753Y001275D01*
X034721Y001314D01*
X034693Y001355D01*
X034668Y001399D01*
X034647Y001444D01*
X034630Y001491D01*
X034616Y001539D01*
X034606Y001588D01*
X034600Y001638D01*
X034598Y001688D01*
D11*
X020944Y011853D03*
X020944Y012168D03*
X020944Y012483D03*
X020944Y012798D03*
X020944Y013113D03*
X020944Y013428D03*
X020944Y013743D03*
X020944Y014058D03*
X020944Y014373D03*
X020944Y014688D03*
X020944Y015003D03*
X020944Y015318D03*
X020944Y015633D03*
X020944Y015948D03*
X020944Y016263D03*
X020944Y016578D03*
X014803Y016578D03*
X014803Y016263D03*
X014803Y015948D03*
X014803Y015633D03*
X014803Y015318D03*
X014803Y015003D03*
X014803Y014688D03*
X014803Y014373D03*
X014803Y014058D03*
X014803Y013743D03*
X014803Y013428D03*
X014803Y013113D03*
X014803Y012798D03*
X014803Y012483D03*
X014803Y012168D03*
X014803Y011853D03*
D12*
X015511Y011145D03*
X015826Y011145D03*
X016141Y011145D03*
X016456Y011145D03*
X016771Y011145D03*
X017086Y011145D03*
X017401Y011145D03*
X017716Y011145D03*
X018031Y011145D03*
X018346Y011145D03*
X018661Y011145D03*
X018976Y011145D03*
X019291Y011145D03*
X019606Y011145D03*
X019921Y011145D03*
X020236Y011145D03*
X020236Y017286D03*
X019921Y017286D03*
X019606Y017286D03*
X019291Y017286D03*
X018976Y017286D03*
X018661Y017286D03*
X018346Y017286D03*
X018031Y017286D03*
X017716Y017286D03*
X017401Y017286D03*
X017086Y017286D03*
X016771Y017286D03*
X016456Y017286D03*
X016141Y017286D03*
X015826Y017286D03*
X015511Y017286D03*
D13*
X017948Y020670D03*
X018657Y020670D03*
X020074Y020670D03*
X020783Y020670D03*
X022200Y020670D03*
X022909Y020670D03*
X028606Y020652D03*
X029314Y020652D03*
X030771Y020652D03*
X031480Y020652D03*
X032838Y020652D03*
X033547Y020652D03*
X030889Y018881D03*
X030181Y018881D03*
X029299Y008377D03*
X028590Y008377D03*
X027133Y008376D03*
X026425Y008376D03*
X030744Y008343D03*
X031452Y008343D03*
X021423Y007589D03*
X020714Y007589D03*
X019258Y007589D03*
X018549Y007589D03*
X017092Y007589D03*
X016384Y007589D03*
X013173Y009236D03*
X013173Y009826D03*
X013173Y010417D03*
X012465Y010417D03*
X012465Y009826D03*
X012465Y009236D03*
X011037Y007494D03*
X010328Y007494D03*
X008854Y007461D03*
X008146Y007461D03*
X006608Y007495D03*
X005899Y007495D03*
X013153Y012780D03*
X013862Y012780D03*
X005514Y015079D03*
X004806Y015079D03*
X007078Y020658D03*
X007787Y020658D03*
X009283Y020647D03*
X009992Y020647D03*
X011488Y020647D03*
X012196Y020647D03*
D14*
X008942Y015433D03*
X008942Y014724D03*
X008935Y012510D03*
X008935Y011801D03*
X004194Y013390D03*
X004194Y014098D03*
X022169Y014314D03*
X022169Y013605D03*
X032011Y016952D03*
X032011Y017660D03*
D15*
X030284Y017643D03*
X030284Y018143D03*
X030284Y017143D03*
X030284Y016643D03*
X027864Y016643D03*
X027864Y017143D03*
X027864Y017643D03*
X027864Y018143D03*
D16*
X026893Y024885D03*
X028862Y024885D03*
X030830Y024885D03*
X032799Y024885D03*
X022181Y024865D03*
X020212Y024865D03*
X018244Y024865D03*
X016275Y024865D03*
X011515Y024904D03*
X009547Y024904D03*
X007578Y024904D03*
X005610Y024904D03*
X001834Y024570D03*
X001834Y022601D03*
X001834Y020633D03*
X001834Y018664D03*
X001834Y010141D03*
X001834Y008172D03*
X001834Y006204D03*
X001834Y004235D03*
X005968Y003940D03*
X007937Y003940D03*
X009905Y003940D03*
X011874Y003940D03*
X016507Y003999D03*
X018476Y003999D03*
X020444Y003999D03*
X022413Y003999D03*
X027126Y003999D03*
X029094Y003999D03*
X031063Y003999D03*
X033031Y003999D03*
D17*
X010850Y011666D03*
X010850Y015466D03*
D18*
X002689Y015452D03*
X002689Y014452D03*
X001689Y014452D03*
X001689Y015452D03*
X001689Y013452D03*
X002689Y013452D03*
D19*
X014165Y020648D02*
X014165Y021248D01*
X015165Y021348D02*
X015165Y020748D01*
X016165Y020648D02*
X016165Y021248D01*
D20*
X034102Y017798D02*
X034842Y017798D01*
X034842Y016798D02*
X034102Y016798D01*
X034102Y012696D02*
X034842Y012696D01*
X034842Y011696D02*
X034102Y011696D01*
D21*
X030067Y011066D03*
X029157Y011066D03*
X028247Y011066D03*
D22*
X029157Y013506D03*
D23*
X026480Y015042D03*
X026126Y015042D03*
D24*
X026303Y013585D03*
X026303Y011185D03*
X032011Y011086D03*
X032011Y013486D03*
D25*
X009098Y010417D03*
X009098Y009826D03*
X009098Y009236D03*
X008272Y009236D03*
X008272Y009826D03*
X008272Y010417D03*
D26*
X007011Y011893D03*
X008881Y013763D03*
X006814Y014452D03*
X004748Y016026D03*
X004157Y014747D03*
X005830Y018487D03*
X005830Y020652D03*
X005535Y022227D03*
X007897Y021440D03*
X009964Y021440D03*
X012228Y021440D03*
X013901Y024097D03*
X018626Y021440D03*
X020791Y021440D03*
X022858Y021440D03*
X024728Y023408D03*
X026106Y020751D03*
X029354Y021440D03*
X031421Y021440D03*
X033488Y021440D03*
X035063Y020751D03*
X031618Y018389D03*
X029551Y019176D03*
X026893Y017503D03*
X026007Y016420D03*
X024433Y017503D03*
X023744Y016026D03*
X022267Y017503D03*
X020889Y017503D03*
X019905Y016223D03*
X017838Y014255D03*
X019118Y012286D03*
X019807Y010219D03*
X021381Y011302D03*
X023251Y013271D03*
X023350Y014156D03*
X025122Y013467D03*
X027189Y014452D03*
X029157Y014452D03*
X032011Y014452D03*
X033488Y015830D03*
X035161Y014550D03*
X035063Y010023D03*
X034767Y007562D03*
X031913Y009924D03*
X030732Y007562D03*
X028566Y007562D03*
X026401Y007562D03*
X024137Y007365D03*
X023547Y009137D03*
X020102Y007562D03*
X017937Y007562D03*
X015771Y007562D03*
X013507Y006774D03*
X014098Y004609D03*
X009669Y007463D03*
X007503Y007463D03*
X005338Y007463D03*
X006027Y009432D03*
X012326Y013566D03*
X013015Y014550D03*
X015968Y016223D03*
X016362Y017897D03*
X016362Y018979D03*
X013803Y018487D03*
X011933Y017897D03*
X008783Y018487D03*
X015968Y012188D03*
X012622Y011893D03*
X024925Y005003D03*
X027484Y010219D03*
X035358Y004314D03*
X034964Y023900D03*
D27*
X036148Y024411D02*
X033577Y024411D01*
X033562Y024375D02*
X033699Y024706D01*
X033699Y025064D01*
X033562Y025395D01*
X033309Y025648D01*
X032978Y025785D01*
X032620Y025785D01*
X032289Y025648D01*
X032036Y025395D01*
X031899Y025064D01*
X031899Y024706D01*
X032036Y024375D01*
X032289Y024122D01*
X032620Y023985D01*
X032978Y023985D01*
X033309Y024122D01*
X033562Y024375D01*
X033500Y024313D02*
X036148Y024313D01*
X036148Y024214D02*
X033401Y024214D01*
X033295Y024116D02*
X036148Y024116D01*
X036148Y024017D02*
X033057Y024017D01*
X032541Y024017D02*
X031088Y024017D01*
X031009Y023985D02*
X031340Y024122D01*
X031593Y024375D01*
X031730Y024706D01*
X031730Y025064D01*
X031593Y025395D01*
X031340Y025648D01*
X031009Y025785D01*
X030651Y025785D01*
X030320Y025648D01*
X030067Y025395D01*
X029930Y025064D01*
X029930Y024706D01*
X030067Y024375D01*
X030320Y024122D01*
X030651Y023985D01*
X031009Y023985D01*
X031326Y024116D02*
X032303Y024116D01*
X032196Y024214D02*
X031433Y024214D01*
X031531Y024313D02*
X032098Y024313D01*
X032021Y024411D02*
X031608Y024411D01*
X031649Y024510D02*
X031980Y024510D01*
X031939Y024608D02*
X031690Y024608D01*
X031730Y024707D02*
X031899Y024707D01*
X031899Y024805D02*
X031730Y024805D01*
X031730Y024904D02*
X031899Y024904D01*
X031899Y025002D02*
X031730Y025002D01*
X031715Y025101D02*
X031914Y025101D01*
X031955Y025199D02*
X031674Y025199D01*
X031633Y025298D02*
X031996Y025298D01*
X032038Y025396D02*
X031591Y025396D01*
X031493Y025495D02*
X032136Y025495D01*
X032235Y025593D02*
X031394Y025593D01*
X031233Y025692D02*
X032396Y025692D01*
X033202Y025692D02*
X036148Y025692D01*
X036148Y025790D02*
X011728Y025790D01*
X011694Y025804D02*
X011336Y025804D01*
X011005Y025667D01*
X010752Y025414D01*
X010615Y025083D01*
X010615Y024725D01*
X010752Y024395D01*
X011005Y024141D01*
X011336Y024004D01*
X011694Y024004D01*
X012025Y024141D01*
X012278Y024395D01*
X012415Y024725D01*
X012415Y025083D01*
X012278Y025414D01*
X012025Y025667D01*
X011694Y025804D01*
X011966Y025692D02*
X015920Y025692D01*
X015765Y025628D02*
X016096Y025765D01*
X016454Y025765D01*
X016785Y025628D01*
X017038Y025375D01*
X017175Y025044D01*
X017175Y024686D01*
X017038Y024355D01*
X016785Y024102D01*
X016454Y023965D01*
X016096Y023965D01*
X015765Y024102D01*
X015512Y024355D01*
X015375Y024686D01*
X015375Y025044D01*
X015512Y025375D01*
X015765Y025628D01*
X015731Y025593D02*
X012099Y025593D01*
X012198Y025495D02*
X015632Y025495D01*
X015534Y025396D02*
X012286Y025396D01*
X012326Y025298D02*
X015480Y025298D01*
X015439Y025199D02*
X012367Y025199D01*
X012408Y025101D02*
X015399Y025101D01*
X015375Y025002D02*
X012415Y025002D01*
X012415Y024904D02*
X015375Y024904D01*
X015375Y024805D02*
X012415Y024805D01*
X012408Y024707D02*
X015375Y024707D01*
X015407Y024608D02*
X012367Y024608D01*
X012326Y024510D02*
X015448Y024510D01*
X015489Y024411D02*
X012285Y024411D01*
X012197Y024313D02*
X015554Y024313D01*
X015653Y024214D02*
X012098Y024214D01*
X011964Y024116D02*
X015751Y024116D01*
X015970Y024017D02*
X011726Y024017D01*
X011305Y024017D02*
X009757Y024017D01*
X009726Y024004D02*
X010057Y024141D01*
X010310Y024395D01*
X010447Y024725D01*
X010447Y025083D01*
X010310Y025414D01*
X010057Y025667D01*
X009726Y025804D01*
X009368Y025804D01*
X009037Y025667D01*
X008784Y025414D01*
X008647Y025083D01*
X008647Y024725D01*
X008784Y024395D01*
X009037Y024141D01*
X009368Y024004D01*
X009726Y024004D01*
X009995Y024116D02*
X011067Y024116D01*
X010932Y024214D02*
X010130Y024214D01*
X010228Y024313D02*
X010834Y024313D01*
X010745Y024411D02*
X010317Y024411D01*
X010358Y024510D02*
X010705Y024510D01*
X010664Y024608D02*
X010398Y024608D01*
X010439Y024707D02*
X010623Y024707D01*
X010615Y024805D02*
X010447Y024805D01*
X010447Y024904D02*
X010615Y024904D01*
X010615Y025002D02*
X010447Y025002D01*
X010440Y025101D02*
X010623Y025101D01*
X010663Y025199D02*
X010399Y025199D01*
X010358Y025298D02*
X010704Y025298D01*
X010745Y025396D02*
X010317Y025396D01*
X010229Y025495D02*
X010833Y025495D01*
X010932Y025593D02*
X010131Y025593D01*
X009997Y025692D02*
X011065Y025692D01*
X011303Y025790D02*
X009760Y025790D01*
X009334Y025790D02*
X007791Y025790D01*
X007757Y025804D02*
X007399Y025804D01*
X007068Y025667D01*
X006815Y025414D01*
X006678Y025083D01*
X006678Y024725D01*
X006815Y024395D01*
X007068Y024141D01*
X007399Y024004D01*
X007757Y024004D01*
X008088Y024141D01*
X008341Y024395D01*
X008478Y024725D01*
X008478Y025083D01*
X008341Y025414D01*
X008088Y025667D01*
X007757Y025804D01*
X008029Y025692D02*
X009096Y025692D01*
X008963Y025593D02*
X008162Y025593D01*
X008261Y025495D02*
X008865Y025495D01*
X008776Y025396D02*
X008349Y025396D01*
X008389Y025298D02*
X008736Y025298D01*
X008695Y025199D02*
X008430Y025199D01*
X008471Y025101D02*
X008654Y025101D01*
X008647Y025002D02*
X008478Y025002D01*
X008478Y024904D02*
X008647Y024904D01*
X008647Y024805D02*
X008478Y024805D01*
X008471Y024707D02*
X008654Y024707D01*
X008695Y024608D02*
X008430Y024608D01*
X008389Y024510D02*
X008736Y024510D01*
X008777Y024411D02*
X008348Y024411D01*
X008260Y024313D02*
X008865Y024313D01*
X008964Y024214D02*
X008161Y024214D01*
X008027Y024116D02*
X009099Y024116D01*
X009336Y024017D02*
X007789Y024017D01*
X007368Y024017D02*
X005820Y024017D01*
X005789Y024004D02*
X006120Y024141D01*
X006373Y024395D01*
X006510Y024725D01*
X006510Y025083D01*
X006373Y025414D01*
X006120Y025667D01*
X005789Y025804D01*
X005431Y025804D01*
X005100Y025667D01*
X004847Y025414D01*
X004710Y025083D01*
X004710Y024725D01*
X004847Y024395D01*
X005100Y024141D01*
X005431Y024004D01*
X005789Y024004D01*
X006058Y024116D02*
X007130Y024116D01*
X006995Y024214D02*
X006193Y024214D01*
X006291Y024313D02*
X006897Y024313D01*
X006808Y024411D02*
X006380Y024411D01*
X006421Y024510D02*
X006768Y024510D01*
X006727Y024608D02*
X006461Y024608D01*
X006502Y024707D02*
X006686Y024707D01*
X006678Y024805D02*
X006510Y024805D01*
X006510Y024904D02*
X006678Y024904D01*
X006678Y025002D02*
X006510Y025002D01*
X006503Y025101D02*
X006686Y025101D01*
X006726Y025199D02*
X006462Y025199D01*
X006421Y025298D02*
X006767Y025298D01*
X006808Y025396D02*
X006380Y025396D01*
X006292Y025495D02*
X006896Y025495D01*
X006995Y025593D02*
X006194Y025593D01*
X006060Y025692D02*
X007128Y025692D01*
X007366Y025790D02*
X005823Y025790D01*
X005397Y025790D02*
X000776Y025790D01*
X000776Y025692D02*
X005159Y025692D01*
X005026Y025593D02*
X000776Y025593D01*
X000776Y025495D02*
X004928Y025495D01*
X004839Y025396D02*
X002190Y025396D01*
X002344Y025333D02*
X002013Y025470D01*
X001655Y025470D01*
X001324Y025333D01*
X001071Y025080D01*
X000934Y024749D01*
X000934Y024391D01*
X001071Y024060D01*
X001324Y023807D01*
X001655Y023670D01*
X002013Y023670D01*
X002344Y023807D01*
X002597Y024060D01*
X002734Y024391D01*
X002734Y024749D01*
X002597Y025080D01*
X002344Y025333D01*
X002379Y025298D02*
X004799Y025298D01*
X004758Y025199D02*
X002477Y025199D01*
X002576Y025101D02*
X004717Y025101D01*
X004710Y025002D02*
X002629Y025002D01*
X002670Y024904D02*
X004710Y024904D01*
X004710Y024805D02*
X002711Y024805D01*
X002734Y024707D02*
X004717Y024707D01*
X004758Y024608D02*
X002734Y024608D01*
X002734Y024510D02*
X004799Y024510D01*
X004840Y024411D02*
X002734Y024411D01*
X002702Y024313D02*
X004928Y024313D01*
X005027Y024214D02*
X002661Y024214D01*
X002620Y024116D02*
X005161Y024116D01*
X005399Y024017D02*
X002555Y024017D01*
X002456Y023919D02*
X036148Y023919D01*
X036148Y023820D02*
X002358Y023820D01*
X002139Y023722D02*
X036148Y023722D01*
X036148Y023623D02*
X000776Y023623D01*
X000776Y023525D02*
X036148Y023525D01*
X036148Y023426D02*
X002194Y023426D01*
X002344Y023364D02*
X002013Y023501D01*
X001655Y023501D01*
X001324Y023364D01*
X001071Y023111D01*
X000934Y022780D01*
X000934Y022422D01*
X001071Y022091D01*
X001324Y021838D01*
X001655Y021701D01*
X002013Y021701D01*
X002344Y021838D01*
X002597Y022091D01*
X002734Y022422D01*
X002734Y022780D01*
X002597Y023111D01*
X002344Y023364D01*
X002380Y023328D02*
X036148Y023328D01*
X036148Y023229D02*
X002479Y023229D01*
X002577Y023131D02*
X036148Y023131D01*
X036148Y023032D02*
X002630Y023032D01*
X002671Y022934D02*
X036148Y022934D01*
X036148Y022835D02*
X002711Y022835D01*
X002734Y022737D02*
X036148Y022737D01*
X036148Y022638D02*
X002734Y022638D01*
X002734Y022540D02*
X036148Y022540D01*
X036148Y022441D02*
X002734Y022441D01*
X002701Y022343D02*
X036148Y022343D01*
X036148Y022244D02*
X002661Y022244D01*
X002620Y022146D02*
X036148Y022146D01*
X036148Y022047D02*
X002553Y022047D01*
X002455Y021949D02*
X036148Y021949D01*
X036148Y021850D02*
X002356Y021850D01*
X002136Y021752D02*
X007661Y021752D01*
X007678Y021768D02*
X007569Y021659D01*
X007510Y021517D01*
X007510Y021363D01*
X007569Y021220D01*
X007577Y021212D01*
X007577Y021045D01*
X007567Y021045D01*
X007479Y020957D01*
X007479Y020360D01*
X007567Y020272D01*
X008007Y020272D01*
X008094Y020360D01*
X008094Y020957D01*
X008007Y021045D01*
X007997Y021045D01*
X007997Y021062D01*
X008117Y021111D01*
X008226Y021220D01*
X008285Y021363D01*
X008285Y021517D01*
X008226Y021659D01*
X008117Y021768D01*
X007974Y021827D01*
X007820Y021827D01*
X007678Y021768D01*
X007566Y021653D02*
X000776Y021653D01*
X000776Y021555D02*
X007525Y021555D01*
X007510Y021456D02*
X002197Y021456D01*
X002233Y021442D02*
X002124Y021487D01*
X002010Y021517D01*
X001893Y021533D01*
X001884Y021533D01*
X001884Y020683D01*
X001784Y020683D01*
X001784Y021533D01*
X001775Y021533D01*
X001658Y021517D01*
X001544Y021487D01*
X001435Y021442D01*
X001333Y021383D01*
X001239Y021311D01*
X001156Y021227D01*
X001084Y021134D01*
X001025Y021032D01*
X000980Y020923D01*
X000950Y020809D01*
X000934Y020692D01*
X000934Y020683D01*
X001784Y020683D01*
X001784Y020583D01*
X000934Y020583D01*
X000934Y020574D01*
X000950Y020457D01*
X000980Y020343D01*
X001025Y020234D01*
X001084Y020132D01*
X001156Y020038D01*
X001239Y019955D01*
X001333Y019883D01*
X001435Y019824D01*
X001544Y019779D01*
X001658Y019748D01*
X001775Y019733D01*
X001784Y019733D01*
X001784Y020583D01*
X001884Y020583D01*
X001884Y020683D01*
X002734Y020683D01*
X002734Y020692D01*
X002719Y020809D01*
X002688Y020923D01*
X002643Y021032D01*
X002584Y021134D01*
X002512Y021227D01*
X002429Y021311D01*
X002335Y021383D01*
X002233Y021442D01*
X002368Y021358D02*
X007512Y021358D01*
X007552Y021259D02*
X002480Y021259D01*
X002563Y021161D02*
X007577Y021161D01*
X007577Y021062D02*
X002625Y021062D01*
X002671Y020964D02*
X006778Y020964D01*
X006771Y020957D02*
X006771Y020360D01*
X006859Y020272D01*
X006900Y020272D01*
X006900Y020270D01*
X007023Y020147D01*
X007613Y019557D01*
X010763Y019557D01*
X012054Y018266D01*
X012010Y018284D01*
X011856Y018284D01*
X011713Y018225D01*
X011604Y018116D01*
X011545Y017974D01*
X011545Y017819D01*
X011604Y017677D01*
X011713Y017568D01*
X011856Y017509D01*
X012010Y017509D01*
X012019Y017513D01*
X012115Y017418D01*
X009385Y017418D01*
X009262Y017295D01*
X008696Y016729D01*
X002298Y016729D01*
X002175Y016606D01*
X001541Y015972D01*
X001473Y015972D01*
X001169Y015667D01*
X001169Y015236D01*
X001453Y014952D01*
X001169Y014667D01*
X001169Y014236D01*
X001453Y013952D01*
X001169Y013667D01*
X001169Y013236D01*
X001473Y012932D01*
X001486Y012932D01*
X001486Y012396D01*
X001609Y012273D01*
X002003Y011879D01*
X002964Y011879D01*
X003087Y012002D01*
X004167Y013082D01*
X004493Y013082D01*
X004581Y013170D01*
X004581Y013180D01*
X004855Y013180D01*
X005622Y013946D01*
X005745Y014069D01*
X005745Y014704D01*
X005822Y014781D01*
X005822Y014934D01*
X006901Y016013D01*
X009067Y016013D01*
X009190Y016136D01*
X009756Y016702D01*
X011944Y016702D01*
X013396Y015250D01*
X013396Y014660D01*
X012345Y014660D01*
X012443Y014561D02*
X013494Y014561D01*
X013519Y014537D02*
X014083Y013973D01*
X013130Y013973D01*
X013111Y013993D01*
X013012Y013993D01*
X011474Y015531D01*
X011380Y015625D01*
X011380Y016578D01*
X011292Y016666D01*
X010408Y016666D01*
X010320Y016578D01*
X010320Y015696D01*
X009285Y015696D01*
X009240Y015740D01*
X008644Y015740D01*
X008556Y015652D01*
X008556Y015213D01*
X008644Y015125D01*
X009240Y015125D01*
X009328Y015213D01*
X009328Y015236D01*
X010320Y015236D01*
X010320Y014354D01*
X010408Y014266D01*
X011292Y014266D01*
X012088Y014266D01*
X011990Y014364D02*
X011380Y014364D01*
X011380Y014354D02*
X011380Y014974D01*
X012798Y013556D01*
X012763Y013521D01*
X011380Y012138D01*
X011380Y012778D01*
X011292Y012866D01*
X010408Y012866D01*
X010320Y012778D01*
X010320Y012031D01*
X009310Y012031D01*
X009233Y012109D01*
X008636Y012109D01*
X008548Y012021D01*
X008548Y011582D01*
X008636Y011494D01*
X009233Y011494D01*
X009310Y011571D01*
X010320Y011571D01*
X010320Y010584D01*
X010257Y010647D01*
X009485Y010647D01*
X009485Y010715D01*
X009397Y010803D01*
X008800Y010803D01*
X008712Y010715D01*
X008712Y010125D01*
X008712Y010125D01*
X008712Y008937D01*
X008795Y008855D01*
X008547Y008855D01*
X008566Y008860D01*
X008600Y008879D01*
X008628Y008907D01*
X008648Y008941D01*
X008658Y008980D01*
X008658Y009186D01*
X008322Y009186D01*
X008322Y009286D01*
X008658Y009286D01*
X008658Y009492D01*
X008648Y009530D01*
X008647Y009531D01*
X008648Y009532D01*
X008658Y009570D01*
X008658Y009776D01*
X008322Y009776D01*
X008322Y009876D01*
X008658Y009876D01*
X008658Y010082D01*
X008648Y010120D01*
X008647Y010121D01*
X008648Y010123D01*
X008658Y010161D01*
X008658Y010367D01*
X008322Y010367D01*
X008322Y010467D01*
X008658Y010467D01*
X008658Y010673D01*
X008648Y010711D01*
X008628Y010745D01*
X008600Y010773D01*
X008566Y010793D01*
X008528Y010803D01*
X008322Y010803D01*
X008322Y010467D01*
X008222Y010467D01*
X008222Y010803D01*
X008016Y010803D01*
X007978Y010793D01*
X007943Y010773D01*
X007915Y010745D01*
X007896Y010711D01*
X007885Y010673D01*
X007885Y010467D01*
X008222Y010467D01*
X008222Y010367D01*
X008322Y010367D01*
X008322Y010212D01*
X008322Y010212D01*
X008322Y009876D01*
X008222Y009876D01*
X008222Y010031D01*
X008222Y010367D01*
X007885Y010367D01*
X007885Y010161D01*
X007896Y010123D01*
X007896Y010121D01*
X007896Y010120D01*
X007885Y010082D01*
X007885Y009876D01*
X008222Y009876D01*
X008222Y009776D01*
X008322Y009776D01*
X008322Y009286D01*
X008222Y009286D01*
X008222Y009622D01*
X008222Y009776D01*
X007885Y009776D01*
X007885Y009570D01*
X007896Y009532D01*
X007896Y009531D01*
X007896Y009530D01*
X007885Y009492D01*
X007885Y009286D01*
X008222Y009286D01*
X008222Y009186D01*
X007885Y009186D01*
X007885Y008980D01*
X007896Y008941D01*
X007915Y008907D01*
X007943Y008879D01*
X007977Y008860D01*
X007996Y008855D01*
X007886Y008855D01*
X007806Y008855D01*
X007712Y008855D01*
X007712Y008855D01*
X007175Y008855D01*
X007158Y008867D01*
X007094Y008855D01*
X007029Y008857D01*
X007027Y008855D01*
X007023Y008855D01*
X007008Y008839D01*
X006986Y008835D01*
X006950Y008782D01*
X006903Y008738D01*
X006902Y008734D01*
X006900Y008732D01*
X006900Y008710D01*
X006459Y008071D01*
X006411Y008026D01*
X006411Y008002D01*
X006397Y007981D01*
X006409Y007917D01*
X006408Y007881D01*
X006388Y007881D01*
X006300Y007793D01*
X006300Y007196D01*
X006388Y007108D01*
X006828Y007108D01*
X006915Y007196D01*
X006915Y007793D01*
X006834Y007875D01*
X007220Y008435D01*
X007807Y008435D01*
X008105Y008435D01*
X008105Y008435D01*
X008185Y008435D01*
X008279Y008435D01*
X010369Y008435D01*
X010369Y008435D01*
X010457Y008435D01*
X010543Y008435D01*
X010554Y008435D01*
X013496Y008435D01*
X013571Y008426D01*
X013581Y008435D01*
X013594Y008435D01*
X013648Y008488D01*
X014565Y009222D01*
X014758Y009222D01*
X013727Y008362D01*
X010445Y008362D01*
X010445Y008362D01*
X010340Y008362D01*
X010271Y008362D01*
X009163Y008362D01*
X009161Y008364D01*
X009076Y008362D01*
X008991Y008362D01*
X008989Y008361D01*
X008987Y008361D01*
X008928Y008299D01*
X008868Y008239D01*
X008868Y008237D01*
X008717Y008079D01*
X008657Y008022D01*
X008657Y008016D01*
X008653Y008013D01*
X008655Y007930D01*
X008653Y007848D01*
X008635Y007848D01*
X008547Y007760D01*
X008547Y007163D01*
X008635Y007075D01*
X009074Y007075D01*
X009162Y007163D01*
X009162Y007760D01*
X009075Y007846D01*
X009168Y007942D01*
X010342Y007942D01*
X013793Y007942D01*
X013870Y007935D01*
X013879Y007942D01*
X013890Y007942D01*
X013944Y007997D01*
X015060Y008927D01*
X015255Y008927D01*
X013869Y007707D01*
X012383Y007707D01*
X012383Y007708D01*
X012296Y007707D01*
X012209Y007707D01*
X011344Y007705D01*
X011344Y007793D01*
X011256Y007881D01*
X010817Y007881D01*
X010729Y007793D01*
X010729Y007196D01*
X010817Y007108D01*
X011256Y007108D01*
X011344Y007196D01*
X011344Y007285D01*
X012297Y007287D01*
X013942Y007287D01*
X014022Y007282D01*
X014028Y007287D01*
X014035Y007287D01*
X014092Y007344D01*
X015555Y008631D01*
X017323Y008631D01*
X017020Y008362D01*
X017013Y008362D01*
X016956Y008305D01*
X016895Y008252D01*
X016895Y008244D01*
X016890Y008239D01*
X016890Y008159D01*
X015018Y008159D01*
X014906Y008060D02*
X016890Y008060D01*
X016890Y008073D02*
X016890Y007976D01*
X016873Y007976D01*
X016785Y007888D01*
X016785Y007291D01*
X016873Y007203D01*
X017312Y007203D01*
X017400Y007291D01*
X017400Y007888D01*
X017312Y007976D01*
X017310Y007976D01*
X017310Y008058D01*
X017623Y008336D01*
X019203Y008336D01*
X019203Y008324D01*
X019093Y008186D01*
X019040Y008131D01*
X019040Y008119D01*
X019033Y008109D01*
X019041Y008033D01*
X019042Y007975D01*
X019038Y007975D01*
X018950Y007888D01*
X018950Y007291D01*
X019038Y007203D01*
X019477Y007203D01*
X019565Y007291D01*
X019565Y007888D01*
X019477Y007975D01*
X019463Y007975D01*
X019514Y008041D01*
X021181Y008041D01*
X021265Y008038D01*
X021268Y008041D01*
X021272Y008041D01*
X021331Y008100D01*
X022842Y009517D01*
X022845Y009517D01*
X022845Y008933D01*
X021723Y007894D01*
X021642Y007975D01*
X021203Y007975D01*
X021115Y007887D01*
X021115Y007290D01*
X021203Y007202D01*
X021642Y007202D01*
X021730Y007290D01*
X021730Y007393D01*
X021798Y007391D01*
X021801Y007394D01*
X021806Y007394D01*
X021865Y007453D01*
X023137Y008631D01*
X023142Y008631D01*
X023200Y008690D01*
X023261Y008746D01*
X023261Y008751D01*
X023265Y008754D01*
X023265Y008837D01*
X023268Y008920D01*
X023265Y008924D01*
X023265Y012472D01*
X023142Y012595D01*
X022436Y013301D01*
X022463Y013308D01*
X022497Y013328D01*
X022525Y013356D01*
X022545Y013390D01*
X022555Y013428D01*
X022555Y013576D01*
X023730Y013576D01*
X023730Y013478D02*
X022555Y013478D01*
X022555Y013576D02*
X022198Y013576D01*
X022198Y013634D01*
X022555Y013634D01*
X022555Y013782D01*
X022545Y013821D01*
X022525Y013855D01*
X022497Y013883D01*
X022463Y013902D01*
X022425Y013913D01*
X022198Y013913D01*
X022198Y013634D01*
X022140Y013634D01*
X022140Y013576D01*
X021783Y013576D01*
X021329Y013576D01*
X021329Y013478D02*
X021783Y013478D01*
X021783Y013428D02*
X021793Y013390D01*
X021813Y013356D01*
X021840Y013328D01*
X021848Y013323D01*
X021329Y013323D01*
X021329Y013915D01*
X021327Y013918D01*
X021329Y013928D01*
X021329Y014053D01*
X020949Y014053D01*
X020949Y014063D01*
X021329Y014063D01*
X021329Y014143D01*
X021783Y014143D01*
X021783Y014094D01*
X021870Y014006D01*
X022467Y014006D01*
X022545Y014084D01*
X022962Y014084D01*
X022962Y014079D01*
X023021Y013937D01*
X023130Y013828D01*
X023273Y013769D01*
X023427Y013769D01*
X023569Y013828D01*
X023678Y013937D01*
X023730Y014063D01*
X023730Y009936D01*
X024813Y008853D01*
X024936Y008730D01*
X026172Y008730D01*
X026117Y008675D01*
X026117Y008078D01*
X026205Y007990D01*
X026215Y007990D01*
X026215Y007904D01*
X026182Y007890D01*
X026073Y007781D01*
X026014Y007639D01*
X026014Y007485D01*
X026073Y007342D01*
X026182Y007233D01*
X026324Y007174D01*
X026478Y007174D01*
X026621Y007233D01*
X026730Y007342D01*
X026789Y007485D01*
X026789Y007639D01*
X026730Y007781D01*
X026635Y007876D01*
X026635Y007990D01*
X026644Y007990D01*
X026732Y008078D01*
X026732Y008675D01*
X026677Y008730D01*
X026880Y008730D01*
X026880Y008729D01*
X026826Y008675D01*
X026826Y008078D01*
X026914Y007990D01*
X027353Y007990D01*
X027441Y008078D01*
X027441Y008675D01*
X027353Y008763D01*
X027300Y008763D01*
X027300Y008928D01*
X027177Y009051D01*
X027105Y009124D01*
X028873Y009124D01*
X029045Y008951D01*
X029045Y008730D01*
X028991Y008676D01*
X028991Y008079D01*
X029079Y007991D01*
X029519Y007991D01*
X029606Y008079D01*
X029606Y008676D01*
X029519Y008763D01*
X029465Y008763D01*
X029465Y009125D01*
X029342Y009248D01*
X029172Y009419D01*
X030743Y009419D01*
X031211Y008951D01*
X031211Y008708D01*
X031145Y008642D01*
X031145Y008045D01*
X031233Y007957D01*
X031672Y007957D01*
X031760Y008045D01*
X031760Y008642D01*
X031672Y008730D01*
X031631Y008730D01*
X031631Y009125D01*
X031508Y009248D01*
X030917Y009839D01*
X025405Y009839D01*
X024741Y010503D01*
X024741Y014932D01*
X024618Y015055D01*
X024146Y015528D01*
X021329Y015528D01*
X021329Y016370D01*
X022635Y016370D01*
X022758Y016493D01*
X024198Y017933D01*
X027332Y017933D01*
X027372Y017893D01*
X027344Y017865D01*
X027325Y017830D01*
X027314Y017792D01*
X027314Y017658D01*
X027849Y017658D01*
X027849Y017628D01*
X027314Y017628D01*
X027314Y017493D01*
X027325Y017455D01*
X027344Y017420D01*
X027372Y017393D01*
X027344Y017365D01*
X027325Y017330D01*
X027314Y017292D01*
X027314Y017158D01*
X027849Y017158D01*
X027849Y017363D01*
X027849Y017628D01*
X027879Y017628D01*
X027879Y017658D01*
X028414Y017658D01*
X028414Y017792D01*
X028404Y017830D01*
X028384Y017865D01*
X028356Y017893D01*
X028414Y017950D01*
X028414Y018335D01*
X028326Y018423D01*
X027402Y018423D01*
X027332Y018353D01*
X024024Y018353D01*
X022461Y016790D01*
X021289Y016790D01*
X021242Y016838D01*
X020647Y016838D01*
X020559Y016750D01*
X020559Y014563D01*
X020310Y014563D01*
X020187Y014440D01*
X019990Y014243D01*
X019990Y011980D01*
X019711Y011700D01*
X019711Y011530D01*
X019611Y011530D01*
X019611Y011150D01*
X019601Y011150D01*
X019601Y011530D01*
X019476Y011530D01*
X019466Y011527D01*
X019463Y011530D01*
X015339Y011530D01*
X015251Y011442D01*
X015251Y011210D01*
X015033Y010991D01*
X015033Y011593D01*
X015100Y011593D01*
X015188Y011681D01*
X015188Y012568D01*
X015268Y012568D01*
X015391Y012691D01*
X015587Y012888D01*
X015587Y015228D01*
X015464Y015351D01*
X015287Y015528D01*
X015188Y015528D01*
X015188Y015628D01*
X014808Y015628D01*
X014808Y015638D01*
X015188Y015638D01*
X015188Y015763D01*
X015185Y015773D01*
X015188Y015776D01*
X015188Y016750D01*
X015100Y016838D01*
X014506Y016838D01*
X014456Y016788D01*
X014126Y016788D01*
X012144Y018769D01*
X014700Y018769D01*
X015301Y018168D01*
X015301Y017633D01*
X015251Y017583D01*
X015251Y016989D01*
X015339Y016901D01*
X016628Y016901D01*
X016631Y016904D01*
X016641Y016901D01*
X016766Y016901D01*
X016766Y017281D01*
X016776Y017281D01*
X016776Y016901D01*
X016901Y016901D01*
X016911Y016904D01*
X016914Y016901D01*
X019778Y016901D01*
X019781Y016904D01*
X019791Y016901D01*
X019916Y016901D01*
X019916Y017281D01*
X019926Y017281D01*
X019926Y016901D01*
X020051Y016901D01*
X020061Y016904D01*
X020064Y016901D01*
X020408Y016901D01*
X020496Y016989D01*
X020496Y017583D01*
X020408Y017671D01*
X020064Y017671D01*
X020061Y017669D01*
X020051Y017671D01*
X019926Y017671D01*
X019926Y017291D01*
X019916Y017291D01*
X019916Y017671D01*
X019878Y017671D01*
X019894Y017687D01*
X020409Y017687D01*
X020506Y017589D01*
X020502Y017580D01*
X020502Y017426D01*
X020561Y017283D01*
X020670Y017174D01*
X020812Y017115D01*
X020966Y017115D01*
X021109Y017174D01*
X021218Y017283D01*
X021277Y017426D01*
X021277Y017580D01*
X021218Y017722D01*
X021109Y017831D01*
X020966Y017890D01*
X020812Y017890D01*
X020803Y017886D01*
X020707Y017982D01*
X023043Y017982D01*
X023634Y018572D01*
X028161Y018572D01*
X028949Y019360D01*
X032394Y019360D01*
X032886Y019852D01*
X033009Y019975D01*
X033009Y020266D01*
X033058Y020266D01*
X033146Y020354D01*
X033146Y020951D01*
X033058Y021039D01*
X032618Y021039D01*
X032531Y020951D01*
X032531Y020354D01*
X032589Y020296D01*
X032589Y020149D01*
X032220Y019780D01*
X030610Y019780D01*
X030857Y020026D01*
X030980Y020149D01*
X030980Y020266D01*
X030991Y020266D01*
X031079Y020354D01*
X031079Y020951D01*
X030991Y021039D01*
X030552Y021039D01*
X030464Y020951D01*
X030464Y020354D01*
X030527Y020291D01*
X030312Y020075D01*
X028810Y020075D01*
X028810Y020266D01*
X028825Y020266D01*
X028913Y020354D01*
X028913Y020951D01*
X028825Y021039D01*
X028386Y021039D01*
X028298Y020951D01*
X028298Y020354D01*
X028386Y020266D01*
X028390Y020266D01*
X028390Y020196D01*
X027777Y019583D01*
X023263Y019583D01*
X023140Y019460D01*
X023140Y019460D01*
X022672Y018992D01*
X022184Y018992D01*
X022256Y019064D01*
X022379Y019188D01*
X022379Y020284D01*
X022420Y020284D01*
X022508Y020372D01*
X022508Y020969D01*
X022420Y021056D01*
X021981Y021056D01*
X021893Y020969D01*
X021893Y020372D01*
X021959Y020306D01*
X021959Y019361D01*
X021885Y019288D01*
X020034Y019288D01*
X020129Y019382D01*
X020252Y019505D01*
X020252Y020284D01*
X020294Y020284D01*
X020382Y020372D01*
X020382Y020969D01*
X020294Y021056D01*
X019855Y021056D01*
X019767Y020969D01*
X019767Y020372D01*
X019832Y020307D01*
X019832Y019679D01*
X019735Y019583D01*
X019031Y019583D01*
X018908Y019460D01*
X017950Y018502D01*
X017950Y019876D01*
X018024Y019950D01*
X018147Y020073D01*
X018147Y020284D01*
X018168Y020284D01*
X018256Y020372D01*
X018256Y020969D01*
X018168Y021056D01*
X017729Y021056D01*
X017641Y020969D01*
X017641Y020372D01*
X017727Y020286D01*
X017727Y020247D01*
X017530Y020050D01*
X017530Y019880D01*
X016615Y020795D01*
X016615Y021337D01*
X016546Y021503D01*
X016420Y021629D01*
X016254Y021698D01*
X016075Y021698D01*
X015910Y021629D01*
X015783Y021503D01*
X015715Y021337D01*
X015715Y020558D01*
X015783Y020393D01*
X015910Y020266D01*
X016075Y020198D01*
X016254Y020198D01*
X016420Y020266D01*
X016485Y020331D01*
X016741Y020075D01*
X015661Y020075D01*
X015391Y020346D01*
X015391Y020354D01*
X015420Y020366D01*
X015546Y020493D01*
X015615Y020658D01*
X015615Y021437D01*
X015546Y021603D01*
X015420Y021729D01*
X015254Y021798D01*
X015075Y021798D01*
X014910Y021729D01*
X014783Y021603D01*
X014715Y021437D01*
X014715Y020658D01*
X014783Y020493D01*
X014910Y020366D01*
X014971Y020341D01*
X014971Y020172D01*
X015094Y020049D01*
X015487Y019655D01*
X016668Y019655D01*
X016876Y019447D01*
X016876Y017671D01*
X016776Y017671D01*
X016776Y017291D01*
X016766Y017291D01*
X016766Y017671D01*
X016684Y017671D01*
X016690Y017677D01*
X016749Y017819D01*
X016749Y017974D01*
X016690Y018116D01*
X016581Y018225D01*
X016439Y018284D01*
X016285Y018284D01*
X016142Y018225D01*
X016036Y018119D01*
X016036Y018421D01*
X015095Y019361D01*
X014972Y019484D01*
X012216Y019484D01*
X011749Y019952D01*
X011749Y020302D01*
X011795Y020348D01*
X011795Y020945D01*
X011707Y021033D01*
X011268Y021033D01*
X011180Y020945D01*
X011180Y020348D01*
X011268Y020260D01*
X011329Y020260D01*
X011329Y019978D01*
X011158Y020149D01*
X011035Y020272D01*
X010223Y020272D01*
X010299Y020348D01*
X010299Y020945D01*
X010211Y021033D01*
X010202Y021033D01*
X010202Y021129D01*
X010293Y021220D01*
X010352Y021363D01*
X010352Y021517D01*
X010293Y021659D01*
X010184Y021768D01*
X010041Y021827D01*
X009887Y021827D01*
X009745Y021768D01*
X009636Y021659D01*
X009577Y021517D01*
X009577Y021363D01*
X009636Y021220D01*
X009745Y021111D01*
X009782Y021096D01*
X009782Y021033D01*
X009772Y021033D01*
X009684Y020945D01*
X009684Y020348D01*
X009760Y020272D01*
X009657Y020272D01*
X009586Y020343D01*
X009590Y020348D01*
X009590Y020945D01*
X009503Y021033D01*
X009063Y021033D01*
X008976Y020945D01*
X008976Y020348D01*
X009063Y020260D01*
X009075Y020260D01*
X009188Y020147D01*
X009359Y019977D01*
X007787Y019977D01*
X007386Y020378D01*
X007386Y020957D01*
X007298Y021045D01*
X006859Y021045D01*
X006771Y020957D01*
X006771Y020865D02*
X002704Y020865D01*
X002724Y020767D02*
X006771Y020767D01*
X006771Y020668D02*
X001884Y020668D01*
X001884Y020583D02*
X002734Y020583D01*
X002734Y020574D01*
X002719Y020457D01*
X002688Y020343D01*
X002643Y020234D01*
X002584Y020132D01*
X002512Y020038D01*
X002429Y019955D01*
X002335Y019883D01*
X002233Y019824D01*
X002124Y019779D01*
X002010Y019748D01*
X001893Y019733D01*
X001884Y019733D01*
X001884Y020583D01*
X001884Y020570D02*
X001784Y020570D01*
X001784Y020668D02*
X000776Y020668D01*
X000776Y020570D02*
X000935Y020570D01*
X000948Y020471D02*
X000776Y020471D01*
X000776Y020373D02*
X000972Y020373D01*
X001008Y020274D02*
X000776Y020274D01*
X000776Y020176D02*
X001059Y020176D01*
X001126Y020077D02*
X000776Y020077D01*
X000776Y019979D02*
X001215Y019979D01*
X001337Y019880D02*
X000776Y019880D01*
X000776Y019782D02*
X001536Y019782D01*
X001784Y019782D02*
X001884Y019782D01*
X001884Y019880D02*
X001784Y019880D01*
X001784Y019979D02*
X001884Y019979D01*
X001884Y020077D02*
X001784Y020077D01*
X001784Y020176D02*
X001884Y020176D01*
X001884Y020274D02*
X001784Y020274D01*
X001784Y020373D02*
X001884Y020373D01*
X001884Y020471D02*
X001784Y020471D01*
X001784Y020767D02*
X001884Y020767D01*
X001884Y020865D02*
X001784Y020865D01*
X001784Y020964D02*
X001884Y020964D01*
X001884Y021062D02*
X001784Y021062D01*
X001784Y021161D02*
X001884Y021161D01*
X001884Y021259D02*
X001784Y021259D01*
X001784Y021358D02*
X001884Y021358D01*
X001884Y021456D02*
X001784Y021456D01*
X001471Y021456D02*
X000776Y021456D01*
X000776Y021358D02*
X001301Y021358D01*
X001188Y021259D02*
X000776Y021259D01*
X000776Y021161D02*
X001105Y021161D01*
X001043Y021062D02*
X000776Y021062D01*
X000776Y020964D02*
X000997Y020964D01*
X000965Y020865D02*
X000776Y020865D01*
X000776Y020767D02*
X000944Y020767D01*
X000776Y019683D02*
X007487Y019683D01*
X007585Y019585D02*
X000776Y019585D01*
X000776Y019486D02*
X001467Y019486D01*
X001435Y019473D02*
X001333Y019414D01*
X001239Y019342D01*
X001156Y019259D01*
X001084Y019165D01*
X001025Y019063D01*
X000980Y018954D01*
X000950Y018840D01*
X000934Y018723D01*
X000934Y018714D01*
X001784Y018714D01*
X001784Y018614D01*
X001884Y018614D01*
X001884Y017764D01*
X001893Y017764D01*
X002010Y017780D01*
X002124Y017810D01*
X002233Y017855D01*
X002335Y017914D01*
X002429Y017986D01*
X002512Y018070D01*
X002584Y018163D01*
X002643Y018265D01*
X002688Y018374D01*
X002719Y018488D01*
X002734Y018605D01*
X002734Y018614D01*
X001884Y018614D01*
X001884Y018714D01*
X002734Y018714D01*
X002734Y018723D01*
X002719Y018840D01*
X002688Y018954D01*
X002643Y019063D01*
X002584Y019165D01*
X002512Y019259D01*
X002429Y019342D01*
X002335Y019414D01*
X002233Y019473D01*
X002124Y019518D01*
X002010Y019549D01*
X001893Y019564D01*
X001884Y019564D01*
X001884Y018714D01*
X001784Y018714D01*
X001784Y019564D01*
X001775Y019564D01*
X001658Y019549D01*
X001544Y019518D01*
X001435Y019473D01*
X001299Y019388D02*
X000776Y019388D01*
X000776Y019289D02*
X001187Y019289D01*
X001104Y019191D02*
X000776Y019191D01*
X000776Y019092D02*
X001042Y019092D01*
X000997Y018994D02*
X000776Y018994D01*
X000776Y018895D02*
X000964Y018895D01*
X000944Y018797D02*
X000776Y018797D01*
X000776Y018698D02*
X001784Y018698D01*
X001784Y018614D02*
X000934Y018614D01*
X000934Y018605D01*
X000950Y018488D01*
X000980Y018374D01*
X001025Y018265D01*
X001084Y018163D01*
X001156Y018070D01*
X001239Y017986D01*
X001333Y017914D01*
X001435Y017855D01*
X001544Y017810D01*
X001658Y017780D01*
X001775Y017764D01*
X001784Y017764D01*
X001784Y018614D01*
X001784Y018600D02*
X001884Y018600D01*
X001884Y018698D02*
X011621Y018698D01*
X011720Y018600D02*
X002733Y018600D01*
X002721Y018501D02*
X011818Y018501D01*
X011917Y018403D02*
X002696Y018403D01*
X002659Y018304D02*
X012015Y018304D01*
X011694Y018206D02*
X002609Y018206D01*
X002541Y018107D02*
X011601Y018107D01*
X011560Y018009D02*
X002452Y018009D01*
X002328Y017910D02*
X011545Y017910D01*
X011548Y017812D02*
X002128Y017812D01*
X001884Y017812D02*
X001784Y017812D01*
X001784Y017910D02*
X001884Y017910D01*
X001884Y018009D02*
X001784Y018009D01*
X001784Y018107D02*
X001884Y018107D01*
X001884Y018206D02*
X001784Y018206D01*
X001784Y018304D02*
X001884Y018304D01*
X001884Y018403D02*
X001784Y018403D01*
X001784Y018501D02*
X001884Y018501D01*
X001884Y018797D02*
X001784Y018797D01*
X001784Y018895D02*
X001884Y018895D01*
X001884Y018994D02*
X001784Y018994D01*
X001784Y019092D02*
X001884Y019092D01*
X001884Y019191D02*
X001784Y019191D01*
X001784Y019289D02*
X001884Y019289D01*
X001884Y019388D02*
X001784Y019388D01*
X001784Y019486D02*
X001884Y019486D01*
X002201Y019486D02*
X010833Y019486D01*
X010932Y019388D02*
X002369Y019388D01*
X002482Y019289D02*
X011030Y019289D01*
X011129Y019191D02*
X002564Y019191D01*
X002626Y019092D02*
X011227Y019092D01*
X011326Y018994D02*
X002672Y018994D01*
X002704Y018895D02*
X011424Y018895D01*
X011523Y018797D02*
X002724Y018797D01*
X002132Y019782D02*
X007388Y019782D01*
X007290Y019880D02*
X002331Y019880D01*
X002453Y019979D02*
X007191Y019979D01*
X007093Y020077D02*
X002542Y020077D01*
X002610Y020176D02*
X006994Y020176D01*
X006856Y020274D02*
X002660Y020274D01*
X002696Y020373D02*
X006771Y020373D01*
X006771Y020471D02*
X002721Y020471D01*
X002734Y020570D02*
X006771Y020570D01*
X007386Y020570D02*
X007479Y020570D01*
X007479Y020668D02*
X007386Y020668D01*
X007386Y020767D02*
X007479Y020767D01*
X007479Y020865D02*
X007386Y020865D01*
X007379Y020964D02*
X007487Y020964D01*
X007999Y021062D02*
X009782Y021062D01*
X009703Y020964D02*
X009571Y020964D01*
X009590Y020865D02*
X009684Y020865D01*
X009684Y020767D02*
X009590Y020767D01*
X009590Y020668D02*
X009684Y020668D01*
X009684Y020570D02*
X009590Y020570D01*
X009590Y020471D02*
X009684Y020471D01*
X009684Y020373D02*
X009590Y020373D01*
X009655Y020274D02*
X009758Y020274D01*
X010225Y020274D02*
X011254Y020274D01*
X011180Y020373D02*
X010299Y020373D01*
X010299Y020471D02*
X011180Y020471D01*
X011180Y020570D02*
X010299Y020570D01*
X010299Y020668D02*
X011180Y020668D01*
X011180Y020767D02*
X010299Y020767D01*
X010299Y020865D02*
X011180Y020865D01*
X011199Y020964D02*
X010280Y020964D01*
X010202Y021062D02*
X011986Y021062D01*
X011986Y021033D02*
X011986Y021133D01*
X011899Y021220D01*
X011840Y021363D01*
X011840Y021517D01*
X011899Y021659D01*
X012008Y021768D01*
X012151Y021827D01*
X012305Y021827D01*
X012447Y021768D01*
X012556Y021659D01*
X012615Y021517D01*
X012615Y021363D01*
X012556Y021220D01*
X012447Y021111D01*
X012406Y021094D01*
X012406Y021033D01*
X012416Y021033D01*
X012504Y020945D01*
X012504Y020348D01*
X012416Y020260D01*
X011977Y020260D01*
X011889Y020348D01*
X011889Y020945D01*
X011977Y021033D01*
X011986Y021033D01*
X011908Y020964D02*
X011776Y020964D01*
X011795Y020865D02*
X011889Y020865D01*
X011889Y020767D02*
X011795Y020767D01*
X011795Y020668D02*
X011889Y020668D01*
X011889Y020570D02*
X011795Y020570D01*
X011795Y020471D02*
X011889Y020471D01*
X011889Y020373D02*
X011795Y020373D01*
X011749Y020274D02*
X011963Y020274D01*
X011749Y020176D02*
X014971Y020176D01*
X014971Y020274D02*
X014417Y020274D01*
X014401Y020263D02*
X014458Y020304D01*
X014508Y020355D01*
X014550Y020412D01*
X014582Y020475D01*
X014604Y020542D01*
X014615Y020612D01*
X014615Y020898D01*
X014215Y020898D01*
X014215Y020998D01*
X014115Y020998D01*
X014115Y021695D01*
X014060Y021687D01*
X013992Y021665D01*
X013929Y021633D01*
X013872Y021591D01*
X013822Y021541D01*
X013780Y021484D01*
X013748Y021420D01*
X013726Y021353D01*
X013715Y021283D01*
X013715Y020998D01*
X014115Y020998D01*
X014115Y020898D01*
X013715Y020898D01*
X013715Y020612D01*
X013726Y020542D01*
X013748Y020475D01*
X013780Y020412D01*
X013822Y020355D01*
X013872Y020304D01*
X013929Y020263D01*
X013992Y020231D01*
X014060Y020209D01*
X014115Y020200D01*
X014115Y020898D01*
X014215Y020898D01*
X014215Y020200D01*
X014270Y020209D01*
X014338Y020231D01*
X014401Y020263D01*
X014521Y020373D02*
X014903Y020373D01*
X014805Y020471D02*
X014580Y020471D01*
X014608Y020570D02*
X014751Y020570D01*
X014715Y020668D02*
X014615Y020668D01*
X014615Y020767D02*
X014715Y020767D01*
X014715Y020865D02*
X014615Y020865D01*
X014615Y020998D02*
X014615Y021283D01*
X014604Y021353D01*
X014582Y021420D01*
X014550Y021484D01*
X014508Y021541D01*
X014458Y021591D01*
X014401Y021633D01*
X014338Y021665D01*
X014270Y021687D01*
X014215Y021695D01*
X014215Y020998D01*
X014615Y020998D01*
X014615Y021062D02*
X014715Y021062D01*
X014715Y020964D02*
X014215Y020964D01*
X014215Y021062D02*
X014115Y021062D01*
X014115Y020964D02*
X012485Y020964D01*
X012504Y020865D02*
X013715Y020865D01*
X013715Y020767D02*
X012504Y020767D01*
X012504Y020668D02*
X013715Y020668D01*
X013722Y020570D02*
X012504Y020570D01*
X012504Y020471D02*
X013750Y020471D01*
X013808Y020373D02*
X012504Y020373D01*
X012430Y020274D02*
X013913Y020274D01*
X014115Y020274D02*
X014215Y020274D01*
X014215Y020373D02*
X014115Y020373D01*
X014115Y020471D02*
X014215Y020471D01*
X014215Y020570D02*
X014115Y020570D01*
X014115Y020668D02*
X014215Y020668D01*
X014215Y020767D02*
X014115Y020767D01*
X014115Y020865D02*
X014215Y020865D01*
X014215Y021161D02*
X014115Y021161D01*
X014115Y021259D02*
X014215Y021259D01*
X014215Y021358D02*
X014115Y021358D01*
X014115Y021456D02*
X014215Y021456D01*
X014215Y021555D02*
X014115Y021555D01*
X014115Y021653D02*
X014215Y021653D01*
X014360Y021653D02*
X014834Y021653D01*
X014764Y021555D02*
X014494Y021555D01*
X014564Y021456D02*
X014723Y021456D01*
X014715Y021358D02*
X014602Y021358D01*
X014615Y021259D02*
X014715Y021259D01*
X014715Y021161D02*
X014615Y021161D01*
X014965Y021752D02*
X012464Y021752D01*
X012559Y021653D02*
X013970Y021653D01*
X013836Y021555D02*
X012600Y021555D01*
X012615Y021456D02*
X013766Y021456D01*
X013728Y021358D02*
X012613Y021358D01*
X012573Y021259D02*
X013715Y021259D01*
X013715Y021161D02*
X012497Y021161D01*
X012406Y021062D02*
X013715Y021062D01*
X015065Y020077D02*
X011749Y020077D01*
X011749Y019979D02*
X015163Y019979D01*
X015262Y019880D02*
X011820Y019880D01*
X011919Y019782D02*
X015360Y019782D01*
X015459Y019683D02*
X012017Y019683D01*
X012116Y019585D02*
X016739Y019585D01*
X016837Y019486D02*
X012214Y019486D01*
X012215Y018698D02*
X014771Y018698D01*
X014869Y018600D02*
X012314Y018600D01*
X012412Y018501D02*
X014968Y018501D01*
X015066Y018403D02*
X012511Y018403D01*
X012609Y018304D02*
X015165Y018304D01*
X015263Y018206D02*
X012708Y018206D01*
X012806Y018107D02*
X015301Y018107D01*
X015301Y018009D02*
X012905Y018009D01*
X013003Y017910D02*
X015301Y017910D01*
X015301Y017812D02*
X013102Y017812D01*
X013200Y017713D02*
X015301Y017713D01*
X015283Y017615D02*
X013299Y017615D01*
X013397Y017516D02*
X015251Y017516D01*
X015251Y017418D02*
X013496Y017418D01*
X013594Y017319D02*
X015251Y017319D01*
X015251Y017221D02*
X013693Y017221D01*
X013791Y017122D02*
X015251Y017122D01*
X015251Y017024D02*
X013890Y017024D01*
X013988Y016925D02*
X015315Y016925D01*
X015111Y016827D02*
X020637Y016827D01*
X020559Y016728D02*
X015188Y016728D01*
X015188Y016630D02*
X020559Y016630D01*
X020559Y016531D02*
X015188Y016531D01*
X015188Y016433D02*
X020559Y016433D01*
X020559Y016334D02*
X015188Y016334D01*
X015188Y016236D02*
X020559Y016236D01*
X020559Y016137D02*
X015188Y016137D01*
X015188Y016039D02*
X020559Y016039D01*
X020559Y015940D02*
X015188Y015940D01*
X015188Y015842D02*
X020559Y015842D01*
X020559Y015743D02*
X015188Y015743D01*
X015188Y015645D02*
X020559Y015645D01*
X020559Y015546D02*
X015188Y015546D01*
X015367Y015448D02*
X020559Y015448D01*
X020559Y015349D02*
X015466Y015349D01*
X015564Y015251D02*
X020559Y015251D01*
X020559Y015152D02*
X015587Y015152D01*
X015587Y015054D02*
X020559Y015054D01*
X020559Y014955D02*
X015587Y014955D01*
X015587Y014857D02*
X020559Y014857D01*
X020559Y014758D02*
X015587Y014758D01*
X015587Y014660D02*
X020559Y014660D01*
X020308Y014561D02*
X015587Y014561D01*
X015587Y014463D02*
X020210Y014463D01*
X020111Y014364D02*
X015587Y014364D01*
X015587Y014266D02*
X020013Y014266D01*
X019990Y014167D02*
X015587Y014167D01*
X015587Y014069D02*
X019990Y014069D01*
X019990Y013970D02*
X015587Y013970D01*
X015587Y013872D02*
X019990Y013872D01*
X019990Y013773D02*
X015587Y013773D01*
X015587Y013675D02*
X019990Y013675D01*
X019990Y013576D02*
X015587Y013576D01*
X015587Y013478D02*
X019990Y013478D01*
X019990Y013379D02*
X015587Y013379D01*
X015587Y013281D02*
X019990Y013281D01*
X019990Y013182D02*
X015587Y013182D01*
X015587Y013084D02*
X019990Y013084D01*
X019990Y012985D02*
X015587Y012985D01*
X015586Y012887D02*
X019990Y012887D01*
X019990Y012788D02*
X015488Y012788D01*
X015389Y012690D02*
X019990Y012690D01*
X019990Y012591D02*
X015291Y012591D01*
X015188Y012493D02*
X019990Y012493D01*
X019990Y012394D02*
X015188Y012394D01*
X015188Y012296D02*
X019990Y012296D01*
X019990Y012197D02*
X015188Y012197D01*
X015188Y012099D02*
X019990Y012099D01*
X019990Y012000D02*
X015188Y012000D01*
X015188Y011902D02*
X019913Y011902D01*
X019814Y011803D02*
X015188Y011803D01*
X015188Y011705D02*
X019716Y011705D01*
X019711Y011606D02*
X015113Y011606D01*
X015033Y011508D02*
X015318Y011508D01*
X015251Y011409D02*
X015033Y011409D01*
X015033Y011311D02*
X015251Y011311D01*
X015251Y011212D02*
X015033Y011212D01*
X015033Y011114D02*
X015155Y011114D01*
X015057Y011015D02*
X015033Y011015D01*
X015412Y010720D02*
X020975Y010720D01*
X020975Y010818D02*
X020467Y010818D01*
X020496Y010847D02*
X020496Y010935D01*
X020766Y010935D01*
X020769Y010932D01*
X020853Y010935D01*
X020866Y010935D01*
X020975Y010823D01*
X020976Y009913D01*
X020704Y009642D01*
X014503Y009642D01*
X014428Y009650D01*
X014418Y009642D01*
X014405Y009642D01*
X014351Y009589D01*
X014019Y009323D01*
X014686Y009990D01*
X014821Y010125D01*
X014821Y010129D01*
X020975Y010129D01*
X020975Y010227D02*
X014919Y010227D01*
X014821Y010129D02*
X015452Y010760D01*
X015683Y010760D01*
X019463Y010760D01*
X019466Y010762D01*
X019476Y010760D01*
X019601Y010760D01*
X019601Y011140D01*
X019611Y011140D01*
X019611Y010760D01*
X019736Y010760D01*
X019746Y010762D01*
X019749Y010760D01*
X020408Y010760D01*
X020496Y010847D01*
X020496Y010917D02*
X020884Y010917D01*
X020975Y010621D02*
X015313Y010621D01*
X015215Y010523D02*
X020975Y010523D01*
X020975Y010424D02*
X015116Y010424D01*
X015018Y010326D02*
X020975Y010326D01*
X020975Y010030D02*
X014727Y010030D01*
X014628Y009932D02*
X020976Y009932D01*
X020896Y009833D02*
X014530Y009833D01*
X014431Y009735D02*
X020797Y009735D01*
X021396Y009875D02*
X021664Y010116D01*
X021664Y011643D01*
X021292Y011643D01*
X021242Y011593D01*
X020647Y011593D01*
X020559Y011681D01*
X020559Y013915D01*
X020562Y013918D01*
X020559Y013928D01*
X020559Y014053D01*
X020939Y014053D01*
X020939Y014063D01*
X020559Y014063D01*
X020559Y014143D01*
X020484Y014143D01*
X020410Y014069D01*
X020559Y014069D01*
X020559Y013970D02*
X020410Y013970D01*
X020410Y013872D02*
X020559Y013872D01*
X020559Y013773D02*
X020410Y013773D01*
X020410Y013675D02*
X020559Y013675D01*
X020559Y013576D02*
X020410Y013576D01*
X020410Y013478D02*
X020559Y013478D01*
X020559Y013379D02*
X020410Y013379D01*
X020410Y013281D02*
X020559Y013281D01*
X020559Y013182D02*
X020410Y013182D01*
X020410Y013084D02*
X020559Y013084D01*
X020559Y012985D02*
X020410Y012985D01*
X020410Y012887D02*
X020559Y012887D01*
X020559Y012788D02*
X020410Y012788D01*
X020410Y012690D02*
X020559Y012690D01*
X020559Y012591D02*
X020410Y012591D01*
X020410Y012493D02*
X020559Y012493D01*
X020559Y012394D02*
X020410Y012394D01*
X020410Y012296D02*
X020559Y012296D01*
X020559Y012197D02*
X020410Y012197D01*
X020410Y012099D02*
X020559Y012099D01*
X020559Y012000D02*
X020410Y012000D01*
X020410Y011902D02*
X020559Y011902D01*
X020559Y011803D02*
X020408Y011803D01*
X020410Y011806D02*
X020410Y014069D01*
X021329Y014069D02*
X021808Y014069D01*
X021875Y013902D02*
X021840Y013883D01*
X021813Y013855D01*
X021793Y013821D01*
X021783Y013782D01*
X021783Y013634D01*
X022140Y013634D01*
X022140Y013913D01*
X021913Y013913D01*
X021875Y013902D01*
X021830Y013872D02*
X021329Y013872D01*
X021329Y013970D02*
X023008Y013970D01*
X022967Y014069D02*
X022530Y014069D01*
X022508Y013872D02*
X023086Y013872D01*
X023262Y013773D02*
X022555Y013773D01*
X022555Y013675D02*
X023730Y013675D01*
X023730Y013773D02*
X023438Y013773D01*
X023613Y013872D02*
X023730Y013872D01*
X023730Y013970D02*
X023692Y013970D01*
X023730Y013379D02*
X022539Y013379D01*
X022455Y013281D02*
X023730Y013281D01*
X023730Y013182D02*
X022554Y013182D01*
X022652Y013084D02*
X023730Y013084D01*
X023730Y012985D02*
X022751Y012985D01*
X022849Y012887D02*
X023730Y012887D01*
X023730Y012788D02*
X022948Y012788D01*
X023046Y012690D02*
X023730Y012690D01*
X023730Y012591D02*
X023145Y012591D01*
X023243Y012493D02*
X023730Y012493D01*
X023730Y012394D02*
X023265Y012394D01*
X023265Y012296D02*
X023730Y012296D01*
X023730Y012197D02*
X023265Y012197D01*
X023265Y012099D02*
X023730Y012099D01*
X023730Y012000D02*
X023265Y012000D01*
X023265Y011902D02*
X023730Y011902D01*
X023730Y011803D02*
X023265Y011803D01*
X023265Y011705D02*
X023730Y011705D01*
X023730Y011606D02*
X023265Y011606D01*
X023265Y011508D02*
X023730Y011508D01*
X023730Y011409D02*
X023265Y011409D01*
X023265Y011311D02*
X023730Y011311D01*
X023730Y011212D02*
X023265Y011212D01*
X023265Y011114D02*
X023730Y011114D01*
X023730Y011015D02*
X023265Y011015D01*
X023265Y010917D02*
X023730Y010917D01*
X023730Y010818D02*
X023265Y010818D01*
X023265Y010720D02*
X023730Y010720D01*
X023730Y010621D02*
X023265Y010621D01*
X023265Y010523D02*
X023730Y010523D01*
X023730Y010424D02*
X023265Y010424D01*
X023265Y010326D02*
X023730Y010326D01*
X023730Y010227D02*
X023265Y010227D01*
X023265Y010129D02*
X023730Y010129D01*
X023730Y010030D02*
X023265Y010030D01*
X023265Y009932D02*
X023734Y009932D01*
X023833Y009833D02*
X023265Y009833D01*
X023265Y009735D02*
X023931Y009735D01*
X024030Y009636D02*
X023265Y009636D01*
X023265Y009538D02*
X024128Y009538D01*
X024227Y009439D02*
X023265Y009439D01*
X023265Y009341D02*
X024325Y009341D01*
X024424Y009242D02*
X023265Y009242D01*
X023265Y009144D02*
X024522Y009144D01*
X024621Y009045D02*
X023265Y009045D01*
X023265Y008947D02*
X024719Y008947D01*
X024818Y008848D02*
X023265Y008848D01*
X023261Y008750D02*
X024916Y008750D01*
X026117Y008651D02*
X023162Y008651D01*
X023052Y008553D02*
X026117Y008553D01*
X026117Y008454D02*
X022946Y008454D01*
X022840Y008356D02*
X026117Y008356D01*
X026117Y008257D02*
X022733Y008257D01*
X022627Y008159D02*
X026117Y008159D01*
X026135Y008060D02*
X022521Y008060D01*
X022414Y007962D02*
X026215Y007962D01*
X026155Y007863D02*
X022308Y007863D01*
X022202Y007765D02*
X026066Y007765D01*
X026025Y007666D02*
X022095Y007666D01*
X021989Y007568D02*
X026014Y007568D01*
X026020Y007469D02*
X021883Y007469D01*
X021730Y007371D02*
X026061Y007371D01*
X026143Y007272D02*
X021712Y007272D01*
X021133Y007272D02*
X021004Y007272D01*
X021022Y007290D02*
X020934Y007202D01*
X020494Y007202D01*
X020407Y007290D01*
X020407Y007319D01*
X020321Y007233D01*
X020179Y007174D01*
X020025Y007174D01*
X019882Y007233D01*
X019773Y007342D01*
X019714Y007485D01*
X019714Y007639D01*
X019773Y007781D01*
X019882Y007890D01*
X020025Y007949D01*
X020179Y007949D01*
X020321Y007890D01*
X020407Y007805D01*
X020407Y007887D01*
X020494Y007975D01*
X020934Y007975D01*
X021022Y007887D01*
X021022Y007290D01*
X021022Y007371D02*
X021115Y007371D01*
X021115Y007469D02*
X021022Y007469D01*
X021022Y007568D02*
X021115Y007568D01*
X021115Y007666D02*
X021022Y007666D01*
X021022Y007765D02*
X021115Y007765D01*
X021115Y007863D02*
X021022Y007863D01*
X020947Y007962D02*
X021190Y007962D01*
X021291Y008060D02*
X021903Y008060D01*
X022009Y008159D02*
X021394Y008159D01*
X021499Y008257D02*
X022115Y008257D01*
X022222Y008356D02*
X021604Y008356D01*
X021709Y008454D02*
X022328Y008454D01*
X022434Y008553D02*
X021814Y008553D01*
X021919Y008651D02*
X022541Y008651D01*
X022647Y008750D02*
X022024Y008750D01*
X022129Y008848D02*
X022753Y008848D01*
X022845Y008947D02*
X022234Y008947D01*
X022339Y009045D02*
X022845Y009045D01*
X022845Y009144D02*
X022444Y009144D01*
X022549Y009242D02*
X022845Y009242D01*
X022845Y009341D02*
X022654Y009341D01*
X022759Y009439D02*
X022845Y009439D01*
X021664Y010129D02*
X021395Y010129D01*
X021395Y010227D02*
X021664Y010227D01*
X021664Y010326D02*
X021395Y010326D01*
X021395Y010424D02*
X021664Y010424D01*
X021664Y010523D02*
X021395Y010523D01*
X021395Y010621D02*
X021664Y010621D01*
X021664Y010720D02*
X021395Y010720D01*
X021395Y010818D02*
X021664Y010818D01*
X021664Y010917D02*
X021395Y010917D01*
X021395Y010907D02*
X021396Y010992D01*
X021394Y010994D01*
X021394Y010996D01*
X021334Y011056D01*
X021160Y011235D01*
X021160Y011240D01*
X021100Y011297D01*
X021042Y011356D01*
X021037Y011356D01*
X021034Y011360D01*
X020951Y011357D01*
X020869Y011359D01*
X020865Y011355D01*
X020847Y011355D01*
X020496Y011355D01*
X020496Y011442D01*
X020408Y011530D01*
X020134Y011530D01*
X020287Y011683D01*
X020410Y011806D01*
X020310Y011705D02*
X020559Y011705D01*
X020634Y011606D02*
X020211Y011606D01*
X020430Y011508D02*
X021664Y011508D01*
X021664Y011606D02*
X021255Y011606D01*
X021086Y011311D02*
X021664Y011311D01*
X021664Y011409D02*
X020496Y011409D01*
X021182Y011212D02*
X021664Y011212D01*
X021664Y011114D02*
X021278Y011114D01*
X021375Y011015D02*
X021664Y011015D01*
X021395Y010907D02*
X021396Y009913D01*
X021396Y009875D01*
X021396Y009913D02*
X021396Y009913D01*
X021396Y009932D02*
X021459Y009932D01*
X021395Y010030D02*
X021568Y010030D01*
X019611Y010818D02*
X019601Y010818D01*
X019601Y010917D02*
X019611Y010917D01*
X019601Y011015D02*
X019611Y011015D01*
X019601Y011114D02*
X019611Y011114D01*
X019601Y011212D02*
X019611Y011212D01*
X019601Y011311D02*
X019611Y011311D01*
X019601Y011409D02*
X019611Y011409D01*
X019601Y011508D02*
X019611Y011508D01*
X021329Y013379D02*
X021799Y013379D01*
X021783Y013428D02*
X021783Y013576D01*
X021783Y013675D02*
X021329Y013675D01*
X021329Y013773D02*
X021783Y013773D01*
X022140Y013773D02*
X022198Y013773D01*
X022198Y013675D02*
X022140Y013675D01*
X022140Y013872D02*
X022198Y013872D01*
X021329Y015546D02*
X035620Y015546D01*
X035620Y015448D02*
X024225Y015448D01*
X024324Y015349D02*
X025851Y015349D01*
X025851Y015354D02*
X025851Y015112D01*
X025836Y015076D01*
X025836Y014085D01*
X025541Y014085D01*
X025453Y013997D01*
X025453Y013173D01*
X025541Y013085D01*
X027065Y013085D01*
X027153Y013173D01*
X027153Y013236D01*
X028298Y013236D01*
X028298Y013011D01*
X028386Y012923D01*
X028887Y012923D01*
X028887Y011656D01*
X028855Y011656D01*
X028767Y011568D01*
X028767Y010564D01*
X028855Y010476D01*
X029459Y010476D01*
X029547Y010564D01*
X029547Y011568D01*
X029459Y011656D01*
X029427Y011656D01*
X029427Y012923D01*
X029928Y012923D01*
X030016Y013011D01*
X030016Y014002D01*
X029928Y014089D01*
X028386Y014089D01*
X028298Y014002D01*
X028298Y013776D01*
X027153Y013776D01*
X027153Y013997D01*
X027067Y014083D01*
X027111Y014064D01*
X027266Y014064D01*
X027408Y014123D01*
X027517Y014232D01*
X027576Y014375D01*
X027576Y014529D01*
X027517Y014671D01*
X027408Y014780D01*
X027331Y014812D01*
X033688Y014812D01*
X034242Y014258D01*
X034242Y013216D01*
X033999Y013216D01*
X033807Y013137D01*
X033661Y012990D01*
X033582Y012799D01*
X033582Y012592D01*
X033661Y012401D01*
X033807Y012255D01*
X033954Y012194D01*
X033902Y012178D01*
X033829Y012140D01*
X033763Y012092D01*
X033705Y012035D01*
X033657Y011968D01*
X033620Y011895D01*
X033595Y011818D01*
X033583Y011746D01*
X034422Y011746D01*
X034422Y011646D01*
X033583Y011646D01*
X033595Y011574D01*
X033620Y011496D01*
X033657Y011423D01*
X033705Y011357D01*
X033763Y011299D01*
X033829Y011251D01*
X033902Y011214D01*
X033980Y011189D01*
X034061Y011176D01*
X034422Y011176D01*
X034422Y011646D01*
X034522Y011646D01*
X034522Y011746D01*
X035361Y011746D01*
X035349Y011818D01*
X035324Y011895D01*
X035287Y011968D01*
X035239Y012035D01*
X035181Y012092D01*
X035115Y012140D01*
X035042Y012178D01*
X034990Y012194D01*
X035137Y012255D01*
X035283Y012401D01*
X035362Y012592D01*
X035362Y012799D01*
X035283Y012990D01*
X035187Y013086D01*
X036080Y013978D01*
X036080Y018582D01*
X035945Y018717D01*
X035586Y019077D01*
X035586Y019080D01*
X035519Y019144D01*
X035453Y019209D01*
X035450Y019209D01*
X035448Y019211D01*
X035355Y019209D01*
X035263Y019209D01*
X035260Y019207D01*
X031197Y019118D01*
X031197Y019179D01*
X031109Y019267D01*
X030670Y019267D01*
X030582Y019179D01*
X030582Y018582D01*
X030670Y018495D01*
X030699Y018495D01*
X030699Y018484D01*
X030637Y018423D01*
X029822Y018423D01*
X029734Y018335D01*
X029734Y017950D01*
X029792Y017893D01*
X029734Y017835D01*
X029734Y017450D01*
X029792Y017393D01*
X029734Y017335D01*
X029734Y016950D01*
X029792Y016893D01*
X029764Y016865D01*
X029745Y016830D01*
X029734Y016792D01*
X029734Y016658D01*
X030269Y016658D01*
X030269Y016628D01*
X029734Y016628D01*
X029734Y016493D01*
X029745Y016455D01*
X029764Y016420D01*
X029792Y016393D01*
X029826Y016373D01*
X029865Y016363D01*
X030269Y016363D01*
X030269Y016628D01*
X030299Y016628D01*
X030299Y016658D01*
X030834Y016658D01*
X030834Y016792D01*
X030824Y016830D01*
X030804Y016865D01*
X030796Y016873D01*
X031374Y016873D01*
X031487Y016759D01*
X031563Y016683D01*
X031662Y016642D01*
X032026Y016642D01*
X032030Y016644D01*
X032310Y016644D01*
X032347Y016682D01*
X033587Y016682D01*
X033661Y016504D01*
X033807Y016357D01*
X033999Y016278D01*
X034945Y016278D01*
X035137Y016357D01*
X035283Y016504D01*
X035362Y016695D01*
X035362Y016902D01*
X035283Y017093D01*
X035137Y017239D01*
X034994Y017298D01*
X035137Y017357D01*
X035283Y017504D01*
X035362Y017695D01*
X035362Y017902D01*
X035283Y018093D01*
X035137Y018239D01*
X034945Y018318D01*
X033999Y018318D01*
X033807Y018239D01*
X033661Y018093D01*
X033651Y018068D01*
X032095Y018068D01*
X031996Y018027D01*
X031937Y017968D01*
X031713Y017968D01*
X031658Y017913D01*
X030796Y017913D01*
X030834Y017950D01*
X030834Y017969D01*
X031024Y018159D01*
X031159Y018293D01*
X031159Y018544D01*
X031197Y018582D01*
X031197Y018658D01*
X035265Y018747D01*
X035620Y018392D01*
X035620Y014169D01*
X034702Y013251D01*
X034702Y014448D01*
X034013Y015137D01*
X034013Y015137D01*
X033878Y015272D01*
X026755Y015272D01*
X026755Y015354D01*
X026667Y015442D01*
X025938Y015442D01*
X025851Y015354D01*
X025851Y015251D02*
X024422Y015251D01*
X024521Y015152D02*
X025851Y015152D01*
X025836Y015054D02*
X024619Y015054D01*
X024718Y014955D02*
X025836Y014955D01*
X025836Y014857D02*
X024741Y014857D01*
X024741Y014758D02*
X025836Y014758D01*
X025836Y014660D02*
X024741Y014660D01*
X024741Y014561D02*
X025836Y014561D01*
X025836Y014463D02*
X024741Y014463D01*
X024741Y014364D02*
X025836Y014364D01*
X025836Y014266D02*
X024741Y014266D01*
X024741Y014167D02*
X025836Y014167D01*
X025525Y014069D02*
X024741Y014069D01*
X024741Y013970D02*
X025453Y013970D01*
X025453Y013872D02*
X024741Y013872D01*
X024741Y013773D02*
X025453Y013773D01*
X025453Y013675D02*
X024741Y013675D01*
X024741Y013576D02*
X025453Y013576D01*
X025453Y013478D02*
X024741Y013478D01*
X024741Y013379D02*
X025453Y013379D01*
X025453Y013281D02*
X024741Y013281D01*
X024741Y013182D02*
X025453Y013182D01*
X024741Y013084D02*
X028298Y013084D01*
X028298Y013182D02*
X027153Y013182D01*
X027153Y013872D02*
X028298Y013872D01*
X028298Y013970D02*
X027153Y013970D01*
X027100Y014069D02*
X027081Y014069D01*
X027277Y014069D02*
X028366Y014069D01*
X027572Y014364D02*
X034136Y014364D01*
X034234Y014266D02*
X027531Y014266D01*
X027452Y014167D02*
X034242Y014167D01*
X034242Y014069D02*
X029948Y014069D01*
X030016Y013970D02*
X031244Y013970D01*
X031253Y013976D02*
X031219Y013956D01*
X031191Y013928D01*
X031172Y013894D01*
X031161Y013856D01*
X031161Y013536D01*
X031961Y013536D01*
X031961Y013436D01*
X031161Y013436D01*
X031161Y013117D01*
X031172Y013078D01*
X031191Y013044D01*
X031219Y013016D01*
X031253Y012997D01*
X031292Y012986D01*
X031961Y012986D01*
X031961Y013436D01*
X032061Y013436D01*
X032061Y012986D01*
X032731Y012986D01*
X032769Y012997D01*
X032803Y013016D01*
X032831Y013044D01*
X032851Y013078D01*
X032861Y013117D01*
X032861Y013436D01*
X032061Y013436D01*
X032061Y013536D01*
X031961Y013536D01*
X031961Y013986D01*
X031292Y013986D01*
X031253Y013976D01*
X031166Y013872D02*
X030016Y013872D01*
X030016Y013773D02*
X031161Y013773D01*
X031161Y013675D02*
X030016Y013675D01*
X030016Y013576D02*
X031161Y013576D01*
X031161Y013379D02*
X030016Y013379D01*
X030016Y013281D02*
X031161Y013281D01*
X031161Y013182D02*
X030016Y013182D01*
X030016Y013084D02*
X031170Y013084D01*
X031961Y013084D02*
X032061Y013084D01*
X032061Y013182D02*
X031961Y013182D01*
X031961Y013281D02*
X032061Y013281D01*
X032061Y013379D02*
X031961Y013379D01*
X031961Y013478D02*
X030016Y013478D01*
X029990Y012985D02*
X033659Y012985D01*
X033618Y012887D02*
X029427Y012887D01*
X029427Y012788D02*
X033582Y012788D01*
X033582Y012690D02*
X029427Y012690D01*
X029427Y012591D02*
X033582Y012591D01*
X033623Y012493D02*
X029427Y012493D01*
X029427Y012394D02*
X033668Y012394D01*
X033766Y012296D02*
X029427Y012296D01*
X029427Y012197D02*
X033946Y012197D01*
X033772Y012099D02*
X029427Y012099D01*
X029427Y012000D02*
X033681Y012000D01*
X033623Y011902D02*
X029427Y011902D01*
X029427Y011803D02*
X033593Y011803D01*
X033590Y011606D02*
X030419Y011606D01*
X030457Y011568D02*
X030369Y011656D01*
X029765Y011656D01*
X029677Y011568D01*
X029677Y010564D01*
X029765Y010476D01*
X030369Y010476D01*
X030457Y010564D01*
X030457Y010796D01*
X031161Y010796D01*
X031161Y010674D01*
X031249Y010586D01*
X032345Y010586D01*
X032726Y010206D01*
X032726Y004847D01*
X032521Y004762D01*
X032268Y004509D01*
X032131Y004178D01*
X032131Y003820D01*
X032268Y003489D01*
X032521Y003236D01*
X032852Y003099D01*
X033210Y003099D01*
X033541Y003236D01*
X033794Y003489D01*
X033931Y003820D01*
X033931Y004178D01*
X033794Y004509D01*
X033541Y004762D01*
X033266Y004876D01*
X033266Y010372D01*
X033224Y010471D01*
X033149Y010547D01*
X032861Y010834D01*
X032861Y011498D01*
X032773Y011586D01*
X031249Y011586D01*
X031161Y011498D01*
X031161Y011336D01*
X030457Y011336D01*
X030457Y011568D01*
X030457Y011508D02*
X031171Y011508D01*
X031161Y011409D02*
X030457Y011409D01*
X030457Y010720D02*
X031161Y010720D01*
X031214Y010621D02*
X030457Y010621D01*
X030416Y010523D02*
X032409Y010523D01*
X032507Y010424D02*
X024820Y010424D01*
X024741Y010523D02*
X027898Y010523D01*
X027887Y010534D02*
X027915Y010506D01*
X027949Y010486D01*
X027987Y010476D01*
X028197Y010476D01*
X028197Y011016D01*
X028297Y011016D01*
X028297Y010476D01*
X028507Y010476D01*
X028545Y010486D01*
X028579Y010506D01*
X028607Y010534D01*
X028627Y010568D01*
X028637Y010607D01*
X028637Y011016D01*
X028297Y011016D01*
X028297Y011116D01*
X028637Y011116D01*
X028637Y011526D01*
X028627Y011564D01*
X028607Y011598D01*
X028579Y011626D01*
X028545Y011646D01*
X028507Y011656D01*
X028297Y011656D01*
X028297Y011116D01*
X028197Y011116D01*
X028197Y011016D01*
X027857Y011016D01*
X027857Y010607D01*
X027867Y010568D01*
X027887Y010534D01*
X027857Y010621D02*
X024741Y010621D01*
X024741Y010720D02*
X025505Y010720D01*
X025511Y010715D02*
X025545Y010695D01*
X025583Y010685D01*
X026253Y010685D01*
X026253Y011135D01*
X026353Y011135D01*
X026353Y011235D01*
X027153Y011235D01*
X027153Y011554D01*
X027142Y011593D01*
X027123Y011627D01*
X027095Y011655D01*
X027061Y011675D01*
X027022Y011685D01*
X026353Y011685D01*
X026353Y011235D01*
X026253Y011235D01*
X026253Y011685D01*
X025583Y011685D01*
X025545Y011675D01*
X025511Y011655D01*
X025483Y011627D01*
X025463Y011593D01*
X025453Y011554D01*
X025453Y011235D01*
X026253Y011235D01*
X026253Y011135D01*
X025453Y011135D01*
X025453Y010815D01*
X025463Y010777D01*
X025483Y010743D01*
X025511Y010715D01*
X025453Y010818D02*
X024741Y010818D01*
X024741Y010917D02*
X025453Y010917D01*
X025453Y011015D02*
X024741Y011015D01*
X024741Y011114D02*
X025453Y011114D01*
X025453Y011311D02*
X024741Y011311D01*
X024741Y011409D02*
X025453Y011409D01*
X025453Y011508D02*
X024741Y011508D01*
X024741Y011606D02*
X025471Y011606D01*
X024741Y011705D02*
X028887Y011705D01*
X028887Y011803D02*
X024741Y011803D01*
X024741Y011902D02*
X028887Y011902D01*
X028887Y012000D02*
X024741Y012000D01*
X024741Y012099D02*
X028887Y012099D01*
X028887Y012197D02*
X024741Y012197D01*
X024741Y012296D02*
X028887Y012296D01*
X028887Y012394D02*
X024741Y012394D01*
X024741Y012493D02*
X028887Y012493D01*
X028887Y012591D02*
X024741Y012591D01*
X024741Y012690D02*
X028887Y012690D01*
X028887Y012788D02*
X024741Y012788D01*
X024741Y012887D02*
X028887Y012887D01*
X028324Y012985D02*
X024741Y012985D01*
X026253Y011606D02*
X026353Y011606D01*
X026353Y011508D02*
X026253Y011508D01*
X026253Y011409D02*
X026353Y011409D01*
X026353Y011311D02*
X026253Y011311D01*
X026253Y011212D02*
X024741Y011212D01*
X024918Y010326D02*
X032606Y010326D01*
X032704Y010227D02*
X025017Y010227D01*
X025115Y010129D02*
X032726Y010129D01*
X032726Y010030D02*
X025214Y010030D01*
X025312Y009932D02*
X032726Y009932D01*
X032726Y009833D02*
X030923Y009833D01*
X031021Y009735D02*
X032726Y009735D01*
X032726Y009636D02*
X031120Y009636D01*
X031218Y009538D02*
X032726Y009538D01*
X032726Y009439D02*
X031317Y009439D01*
X031415Y009341D02*
X032726Y009341D01*
X032726Y009242D02*
X031514Y009242D01*
X031612Y009144D02*
X032726Y009144D01*
X032726Y009045D02*
X031631Y009045D01*
X031631Y008947D02*
X032726Y008947D01*
X032726Y008848D02*
X031631Y008848D01*
X031631Y008750D02*
X032726Y008750D01*
X032726Y008651D02*
X031750Y008651D01*
X031760Y008553D02*
X032726Y008553D01*
X032726Y008454D02*
X031760Y008454D01*
X031760Y008356D02*
X032726Y008356D01*
X032726Y008257D02*
X031760Y008257D01*
X031760Y008159D02*
X032726Y008159D01*
X032726Y008060D02*
X031760Y008060D01*
X031677Y007962D02*
X032726Y007962D01*
X032726Y007863D02*
X030978Y007863D01*
X030951Y007890D02*
X031060Y007781D01*
X031119Y007639D01*
X031119Y007485D01*
X031060Y007342D01*
X030951Y007233D01*
X030809Y007174D01*
X030655Y007174D01*
X030512Y007233D01*
X030403Y007342D01*
X030344Y007485D01*
X030344Y007639D01*
X030403Y007781D01*
X030512Y007890D01*
X030522Y007894D01*
X030522Y007959D01*
X030436Y008045D01*
X030436Y008642D01*
X030524Y008730D01*
X030963Y008730D01*
X031051Y008642D01*
X031051Y008045D01*
X030963Y007957D01*
X030942Y007957D01*
X030942Y007894D01*
X030951Y007890D01*
X030968Y007962D02*
X031228Y007962D01*
X031145Y008060D02*
X031051Y008060D01*
X031051Y008159D02*
X031145Y008159D01*
X031145Y008257D02*
X031051Y008257D01*
X031051Y008356D02*
X031145Y008356D01*
X031145Y008454D02*
X031051Y008454D01*
X031051Y008553D02*
X031145Y008553D01*
X031154Y008651D02*
X031041Y008651D01*
X031211Y008750D02*
X029532Y008750D01*
X029465Y008848D02*
X031211Y008848D01*
X031211Y008947D02*
X029465Y008947D01*
X029465Y009045D02*
X031117Y009045D01*
X031018Y009144D02*
X029447Y009144D01*
X029348Y009242D02*
X030920Y009242D01*
X030821Y009341D02*
X029250Y009341D01*
X028951Y009045D02*
X027183Y009045D01*
X027282Y008947D02*
X029045Y008947D01*
X029045Y008848D02*
X027300Y008848D01*
X027366Y008750D02*
X028357Y008750D01*
X028371Y008763D02*
X028283Y008676D01*
X028283Y008079D01*
X028371Y007991D01*
X028380Y007991D01*
X028380Y007904D01*
X028347Y007890D01*
X028238Y007781D01*
X028179Y007639D01*
X028179Y007485D01*
X028238Y007342D01*
X028347Y007233D01*
X028489Y007174D01*
X028644Y007174D01*
X028786Y007233D01*
X028895Y007342D01*
X028954Y007485D01*
X028954Y007639D01*
X028895Y007781D01*
X028800Y007876D01*
X028800Y007991D01*
X028810Y007991D01*
X028898Y008079D01*
X028898Y008676D01*
X028810Y008763D01*
X028371Y008763D01*
X028283Y008651D02*
X027441Y008651D01*
X027441Y008553D02*
X028283Y008553D01*
X028283Y008454D02*
X027441Y008454D01*
X027441Y008356D02*
X028283Y008356D01*
X028283Y008257D02*
X027441Y008257D01*
X027441Y008159D02*
X028283Y008159D01*
X028301Y008060D02*
X027423Y008060D01*
X026844Y008060D02*
X026715Y008060D01*
X026732Y008159D02*
X026826Y008159D01*
X026826Y008257D02*
X026732Y008257D01*
X026732Y008356D02*
X026826Y008356D01*
X026826Y008454D02*
X026732Y008454D01*
X026732Y008553D02*
X026826Y008553D01*
X026826Y008651D02*
X026732Y008651D01*
X026635Y007962D02*
X028380Y007962D01*
X028320Y007863D02*
X026648Y007863D01*
X026736Y007765D02*
X028231Y007765D01*
X028190Y007666D02*
X026777Y007666D01*
X026789Y007568D02*
X028179Y007568D01*
X028185Y007469D02*
X026782Y007469D01*
X026741Y007371D02*
X028226Y007371D01*
X028308Y007272D02*
X026660Y007272D01*
X028825Y007272D02*
X030473Y007272D01*
X030392Y007371D02*
X028907Y007371D01*
X028948Y007469D02*
X030351Y007469D01*
X030344Y007568D02*
X028954Y007568D01*
X028943Y007666D02*
X030356Y007666D01*
X030396Y007765D02*
X028902Y007765D01*
X028813Y007863D02*
X030485Y007863D01*
X030519Y007962D02*
X028800Y007962D01*
X028879Y008060D02*
X029010Y008060D01*
X028991Y008159D02*
X028898Y008159D01*
X028898Y008257D02*
X028991Y008257D01*
X028991Y008356D02*
X028898Y008356D01*
X028898Y008454D02*
X028991Y008454D01*
X028991Y008553D02*
X028898Y008553D01*
X028898Y008651D02*
X028991Y008651D01*
X029045Y008750D02*
X028823Y008750D01*
X029606Y008651D02*
X030446Y008651D01*
X030436Y008553D02*
X029606Y008553D01*
X029606Y008454D02*
X030436Y008454D01*
X030436Y008356D02*
X029606Y008356D01*
X029606Y008257D02*
X030436Y008257D01*
X030436Y008159D02*
X029606Y008159D01*
X029588Y008060D02*
X030436Y008060D01*
X031067Y007765D02*
X032726Y007765D01*
X032726Y007666D02*
X031108Y007666D01*
X031119Y007568D02*
X032726Y007568D01*
X032726Y007469D02*
X031113Y007469D01*
X031072Y007371D02*
X032726Y007371D01*
X032726Y007272D02*
X030990Y007272D01*
X032726Y007174D02*
X011322Y007174D01*
X011344Y007272D02*
X015513Y007272D01*
X015552Y007233D02*
X015694Y007174D01*
X015848Y007174D01*
X015991Y007233D01*
X016076Y007319D01*
X016076Y007291D01*
X016164Y007203D01*
X016603Y007203D01*
X016691Y007291D01*
X016691Y007888D01*
X016603Y007976D01*
X016164Y007976D01*
X016076Y007888D01*
X016076Y007805D01*
X015991Y007890D01*
X015848Y007949D01*
X015694Y007949D01*
X015552Y007890D01*
X015443Y007781D01*
X015384Y007639D01*
X015384Y007485D01*
X015443Y007342D01*
X015552Y007233D01*
X015431Y007371D02*
X014123Y007371D01*
X014234Y007469D02*
X015390Y007469D01*
X015384Y007568D02*
X014346Y007568D01*
X014458Y007666D02*
X015395Y007666D01*
X015436Y007765D02*
X014570Y007765D01*
X014682Y007863D02*
X015525Y007863D01*
X016018Y007863D02*
X016076Y007863D01*
X016150Y007962D02*
X014794Y007962D01*
X014494Y008257D02*
X014257Y008257D01*
X014375Y008356D02*
X014606Y008356D01*
X014718Y008454D02*
X014493Y008454D01*
X014611Y008553D02*
X014830Y008553D01*
X014729Y008651D02*
X014942Y008651D01*
X014848Y008750D02*
X015054Y008750D01*
X014966Y008848D02*
X015166Y008848D01*
X015466Y008553D02*
X017234Y008553D01*
X017124Y008454D02*
X015354Y008454D01*
X015242Y008356D02*
X017006Y008356D01*
X016902Y008257D02*
X015130Y008257D01*
X014382Y008159D02*
X014138Y008159D01*
X014020Y008060D02*
X014270Y008060D01*
X014158Y007962D02*
X013909Y007962D01*
X014046Y007863D02*
X011274Y007863D01*
X011344Y007765D02*
X013934Y007765D01*
X013837Y008454D02*
X013614Y008454D01*
X013729Y008553D02*
X013955Y008553D01*
X013852Y008651D02*
X014073Y008651D01*
X013975Y008750D02*
X014192Y008750D01*
X014098Y008848D02*
X014310Y008848D01*
X014221Y008947D02*
X014428Y008947D01*
X014345Y009045D02*
X014546Y009045D01*
X014468Y009144D02*
X014664Y009144D01*
X014165Y009439D02*
X014136Y009439D01*
X014042Y009341D02*
X014037Y009341D01*
X014234Y009538D02*
X014288Y009538D01*
X014333Y009636D02*
X014399Y009636D01*
X012949Y008855D02*
X012690Y008855D01*
X012772Y008937D01*
X012772Y009534D01*
X012772Y010118D01*
X012772Y010118D01*
X012772Y010715D01*
X012684Y010803D01*
X012245Y010803D01*
X012157Y010715D01*
X012157Y010647D01*
X011444Y010647D01*
X011380Y010582D01*
X011380Y011488D01*
X011463Y011571D01*
X012846Y012954D01*
X012846Y012808D01*
X013124Y012808D01*
X013124Y012751D01*
X012846Y012751D01*
X012846Y012524D01*
X012856Y012486D01*
X012876Y012451D01*
X012904Y012424D01*
X012938Y012404D01*
X012976Y012394D01*
X013124Y012394D01*
X013182Y012394D01*
X013330Y012394D01*
X013369Y012404D01*
X013403Y012424D01*
X013431Y012451D01*
X013450Y012486D01*
X013461Y012524D01*
X013461Y012751D01*
X013182Y012751D01*
X013182Y012808D01*
X013461Y012808D01*
X013461Y013036D01*
X013450Y013074D01*
X013431Y013108D01*
X013403Y013136D01*
X013369Y013156D01*
X013330Y013166D01*
X013182Y013166D01*
X013182Y012809D01*
X013124Y012809D01*
X013124Y013166D01*
X013058Y013166D01*
X013088Y013196D01*
X014418Y013196D01*
X014418Y013118D01*
X014798Y013118D01*
X014798Y013108D01*
X014418Y013108D01*
X014418Y013008D01*
X014169Y013008D01*
X014169Y013078D01*
X014081Y013166D01*
X013642Y013166D01*
X013554Y013078D01*
X013554Y012481D01*
X013642Y012394D01*
X014077Y012394D01*
X013019Y011336D01*
X012884Y011201D01*
X012884Y010734D01*
X012866Y010715D01*
X012866Y010125D01*
X012866Y010125D01*
X012866Y009528D01*
X012866Y008937D01*
X012949Y008855D01*
X012866Y008947D02*
X012772Y008947D01*
X012772Y009045D02*
X012866Y009045D01*
X012866Y009144D02*
X012772Y009144D01*
X012772Y009242D02*
X012866Y009242D01*
X012866Y009341D02*
X012772Y009341D01*
X012772Y009439D02*
X012866Y009439D01*
X012866Y009528D02*
X012866Y009528D01*
X012866Y009538D02*
X012772Y009538D01*
X012772Y009534D02*
X012772Y009534D01*
X012772Y009636D02*
X012866Y009636D01*
X012866Y009735D02*
X012772Y009735D01*
X012772Y009833D02*
X012866Y009833D01*
X012866Y009932D02*
X012772Y009932D01*
X012772Y010030D02*
X012866Y010030D01*
X012866Y010129D02*
X012772Y010129D01*
X012772Y010227D02*
X012866Y010227D01*
X012866Y010326D02*
X012772Y010326D01*
X012772Y010424D02*
X012866Y010424D01*
X012866Y010523D02*
X012772Y010523D01*
X012772Y010621D02*
X012866Y010621D01*
X012871Y010720D02*
X012767Y010720D01*
X012884Y010818D02*
X011380Y010818D01*
X011380Y010720D02*
X012162Y010720D01*
X012884Y010917D02*
X011380Y010917D01*
X011380Y011015D02*
X012884Y011015D01*
X012884Y011114D02*
X011380Y011114D01*
X011380Y011212D02*
X012896Y011212D01*
X012994Y011311D02*
X011380Y011311D01*
X011380Y011409D02*
X013093Y011409D01*
X013191Y011508D02*
X011400Y011508D01*
X011463Y011571D02*
X011463Y011571D01*
X011498Y011606D02*
X013290Y011606D01*
X013388Y011705D02*
X011597Y011705D01*
X011695Y011803D02*
X013487Y011803D01*
X013585Y011902D02*
X011794Y011902D01*
X011892Y012000D02*
X013684Y012000D01*
X013782Y012099D02*
X011991Y012099D01*
X012089Y012197D02*
X013881Y012197D01*
X013979Y012296D02*
X012188Y012296D01*
X012286Y012394D02*
X012973Y012394D01*
X013124Y012394D02*
X013124Y012751D01*
X013182Y012751D01*
X013182Y012394D01*
X013182Y012493D02*
X013124Y012493D01*
X013124Y012591D02*
X013182Y012591D01*
X013182Y012690D02*
X013124Y012690D01*
X013124Y012788D02*
X012680Y012788D01*
X012582Y012690D02*
X012846Y012690D01*
X012846Y012591D02*
X012483Y012591D01*
X012385Y012493D02*
X012854Y012493D01*
X012846Y012887D02*
X012779Y012887D01*
X013124Y012887D02*
X013182Y012887D01*
X013182Y012985D02*
X013124Y012985D01*
X013124Y013084D02*
X013182Y013084D01*
X013074Y013182D02*
X014418Y013182D01*
X014418Y013084D02*
X014163Y013084D01*
X013560Y013084D02*
X013445Y013084D01*
X013461Y012985D02*
X013554Y012985D01*
X013554Y012887D02*
X013461Y012887D01*
X013554Y012788D02*
X013182Y012788D01*
X013461Y012690D02*
X013554Y012690D01*
X013554Y012591D02*
X013461Y012591D01*
X013452Y012493D02*
X013554Y012493D01*
X013641Y012394D02*
X013334Y012394D01*
X012424Y013182D02*
X004858Y013182D01*
X004956Y013281D02*
X012522Y013281D01*
X012621Y013379D02*
X005055Y013379D01*
X005153Y013478D02*
X012719Y013478D01*
X012763Y013521D02*
X012763Y013521D01*
X012778Y013576D02*
X005252Y013576D01*
X005350Y013675D02*
X012679Y013675D01*
X012581Y013773D02*
X005449Y013773D01*
X005547Y013872D02*
X012482Y013872D01*
X012384Y013970D02*
X005646Y013970D01*
X005744Y014069D02*
X012285Y014069D01*
X012187Y014167D02*
X005745Y014167D01*
X005745Y014266D02*
X010408Y014266D01*
X010320Y014364D02*
X005745Y014364D01*
X005745Y014463D02*
X008597Y014463D01*
X008586Y014475D02*
X008614Y014447D01*
X008648Y014427D01*
X008686Y014417D01*
X008913Y014417D01*
X008913Y014695D01*
X008971Y014695D01*
X008971Y014417D01*
X009198Y014417D01*
X009236Y014427D01*
X009270Y014447D01*
X009298Y014475D01*
X009318Y014509D01*
X009328Y014547D01*
X009328Y014695D01*
X008971Y014695D01*
X008971Y014753D01*
X009328Y014753D01*
X009328Y014901D01*
X009318Y014940D01*
X009298Y014974D01*
X009270Y015002D01*
X009236Y015021D01*
X009198Y015032D01*
X008971Y015032D01*
X008971Y014753D01*
X008913Y014753D01*
X008913Y014695D01*
X008556Y014695D01*
X008556Y014547D01*
X008566Y014509D01*
X008586Y014475D01*
X008556Y014561D02*
X005745Y014561D01*
X005745Y014660D02*
X008556Y014660D01*
X008556Y014753D02*
X008913Y014753D01*
X008913Y015032D01*
X008686Y015032D01*
X008648Y015021D01*
X008614Y015002D01*
X008586Y014974D01*
X008566Y014940D01*
X008556Y014901D01*
X008556Y014753D01*
X008556Y014758D02*
X005799Y014758D01*
X005822Y014857D02*
X008556Y014857D01*
X008575Y014955D02*
X005844Y014955D01*
X005942Y015054D02*
X010320Y015054D01*
X010320Y015152D02*
X009267Y015152D01*
X009309Y014955D02*
X010320Y014955D01*
X010320Y014857D02*
X009328Y014857D01*
X009328Y014758D02*
X010320Y014758D01*
X010320Y014660D02*
X009328Y014660D01*
X009328Y014561D02*
X010320Y014561D01*
X010320Y014463D02*
X009287Y014463D01*
X008971Y014463D02*
X008913Y014463D01*
X008913Y014561D02*
X008971Y014561D01*
X008971Y014660D02*
X008913Y014660D01*
X008913Y014758D02*
X008971Y014758D01*
X008971Y014857D02*
X008913Y014857D01*
X008913Y014955D02*
X008971Y014955D01*
X008617Y015152D02*
X006041Y015152D01*
X006139Y015251D02*
X008556Y015251D01*
X008556Y015349D02*
X006238Y015349D01*
X006336Y015448D02*
X008556Y015448D01*
X008556Y015546D02*
X006435Y015546D01*
X006533Y015645D02*
X008556Y015645D01*
X009092Y016039D02*
X010320Y016039D01*
X010320Y016137D02*
X009191Y016137D01*
X009289Y016236D02*
X010320Y016236D01*
X010320Y016334D02*
X009388Y016334D01*
X009486Y016433D02*
X010320Y016433D01*
X010320Y016531D02*
X009585Y016531D01*
X009683Y016630D02*
X010372Y016630D01*
X010320Y015940D02*
X006829Y015940D01*
X006730Y015842D02*
X010320Y015842D01*
X010320Y015743D02*
X006632Y015743D01*
X006333Y016039D02*
X002203Y016039D01*
X002301Y016137D02*
X006432Y016137D01*
X006530Y016236D02*
X002400Y016236D01*
X002472Y016309D02*
X006603Y016309D01*
X005747Y015453D01*
X005734Y015466D01*
X005295Y015466D01*
X005207Y015378D01*
X005207Y014781D01*
X005295Y014693D01*
X005325Y014693D01*
X005325Y014243D01*
X004681Y013600D01*
X004581Y013600D01*
X004581Y013609D01*
X004493Y013697D01*
X003896Y013697D01*
X003808Y013609D01*
X003808Y013317D01*
X002790Y012299D01*
X002177Y012299D01*
X001906Y012570D01*
X001906Y012934D01*
X002189Y013216D01*
X002473Y012932D01*
X002639Y012932D01*
X002639Y013402D01*
X002739Y013402D01*
X002739Y013502D01*
X003209Y013502D01*
X003209Y013667D01*
X002924Y013952D01*
X003209Y014236D01*
X003209Y014667D01*
X002924Y014952D01*
X003209Y015236D01*
X003209Y015242D01*
X004347Y015242D01*
X004498Y015090D01*
X004498Y014781D01*
X004586Y014693D01*
X005025Y014693D01*
X005113Y014781D01*
X005113Y015378D01*
X005025Y015466D01*
X004716Y015466D01*
X004520Y015662D01*
X003209Y015662D01*
X003209Y015667D01*
X002904Y015972D01*
X002473Y015972D01*
X002189Y015687D01*
X002020Y015856D01*
X002472Y016309D01*
X002442Y015940D02*
X002104Y015940D01*
X002034Y015842D02*
X002343Y015842D01*
X002245Y015743D02*
X002132Y015743D01*
X001707Y016137D02*
X000776Y016137D01*
X000776Y016039D02*
X001609Y016039D01*
X001442Y015940D02*
X000776Y015940D01*
X000776Y015842D02*
X001343Y015842D01*
X001245Y015743D02*
X000776Y015743D01*
X000776Y015645D02*
X001169Y015645D01*
X001169Y015546D02*
X000776Y015546D01*
X000776Y015448D02*
X001169Y015448D01*
X001169Y015349D02*
X000776Y015349D01*
X000776Y015251D02*
X001169Y015251D01*
X001252Y015152D02*
X000776Y015152D01*
X000776Y015054D02*
X001351Y015054D01*
X001449Y014955D02*
X000776Y014955D01*
X000776Y014857D02*
X001358Y014857D01*
X001260Y014758D02*
X000776Y014758D01*
X000776Y014660D02*
X001169Y014660D01*
X001169Y014561D02*
X000776Y014561D01*
X000776Y014463D02*
X001169Y014463D01*
X001169Y014364D02*
X000776Y014364D01*
X000776Y014266D02*
X001169Y014266D01*
X001237Y014167D02*
X000776Y014167D01*
X000776Y014069D02*
X001336Y014069D01*
X001434Y013970D02*
X000776Y013970D01*
X000776Y013872D02*
X001373Y013872D01*
X001275Y013773D02*
X000776Y013773D01*
X000776Y013675D02*
X001176Y013675D01*
X001169Y013576D02*
X000776Y013576D01*
X000776Y013478D02*
X001169Y013478D01*
X001169Y013379D02*
X000776Y013379D01*
X000776Y013281D02*
X001169Y013281D01*
X001222Y013182D02*
X000776Y013182D01*
X000776Y013084D02*
X001321Y013084D01*
X001419Y012985D02*
X000776Y012985D01*
X000776Y012887D02*
X001486Y012887D01*
X001486Y012788D02*
X000776Y012788D01*
X000776Y012690D02*
X001486Y012690D01*
X001486Y012591D02*
X000776Y012591D01*
X000776Y012493D02*
X001486Y012493D01*
X001488Y012394D02*
X000776Y012394D01*
X000776Y012296D02*
X001587Y012296D01*
X001685Y012197D02*
X000776Y012197D01*
X000776Y012099D02*
X001784Y012099D01*
X001882Y012000D02*
X000776Y012000D01*
X000776Y011902D02*
X001981Y011902D01*
X002082Y012394D02*
X002885Y012394D01*
X002984Y012493D02*
X001984Y012493D01*
X001906Y012591D02*
X003082Y012591D01*
X003181Y012690D02*
X001906Y012690D01*
X001906Y012788D02*
X003279Y012788D01*
X003378Y012887D02*
X001906Y012887D01*
X001958Y012985D02*
X002419Y012985D01*
X002321Y013084D02*
X002056Y013084D01*
X002155Y013182D02*
X002222Y013182D01*
X002639Y013182D02*
X002739Y013182D01*
X002739Y013084D02*
X002639Y013084D01*
X002639Y012985D02*
X002739Y012985D01*
X002739Y012932D02*
X002904Y012932D01*
X003209Y013236D01*
X003209Y013402D01*
X002739Y013402D01*
X002739Y012932D01*
X002958Y012985D02*
X003476Y012985D01*
X003575Y013084D02*
X003056Y013084D01*
X003155Y013182D02*
X003673Y013182D01*
X003772Y013281D02*
X003209Y013281D01*
X003209Y013379D02*
X003808Y013379D01*
X003808Y013478D02*
X002739Y013478D01*
X002739Y013379D02*
X002639Y013379D01*
X002639Y013281D02*
X002739Y013281D01*
X003209Y013576D02*
X003808Y013576D01*
X003874Y013675D02*
X003201Y013675D01*
X003102Y013773D02*
X004855Y013773D01*
X004757Y013675D02*
X004515Y013675D01*
X004489Y013801D02*
X004523Y013821D01*
X004551Y013849D01*
X004570Y013883D01*
X004581Y013921D01*
X004581Y014070D01*
X004223Y014070D01*
X004223Y014127D01*
X004166Y014127D01*
X004166Y014406D01*
X003938Y014406D01*
X003900Y014396D01*
X003866Y014376D01*
X003838Y014348D01*
X003818Y014314D01*
X003808Y014276D01*
X003808Y014127D01*
X004166Y014127D01*
X004166Y014070D01*
X003808Y014070D01*
X003808Y013921D01*
X003818Y013883D01*
X003838Y013849D01*
X003866Y013821D01*
X003900Y013801D01*
X003938Y013791D01*
X004166Y013791D01*
X004166Y014070D01*
X004223Y014070D01*
X004223Y013791D01*
X004450Y013791D01*
X004489Y013801D01*
X004564Y013872D02*
X004954Y013872D01*
X005052Y013970D02*
X004581Y013970D01*
X004581Y014069D02*
X005151Y014069D01*
X005249Y014167D02*
X004581Y014167D01*
X004581Y014127D02*
X004581Y014276D01*
X004570Y014314D01*
X004551Y014348D01*
X004523Y014376D01*
X004489Y014396D01*
X004450Y014406D01*
X004223Y014406D01*
X004223Y014127D01*
X004581Y014127D01*
X004581Y014266D02*
X005325Y014266D01*
X005325Y014364D02*
X004534Y014364D01*
X004223Y014364D02*
X004166Y014364D01*
X004166Y014266D02*
X004223Y014266D01*
X004223Y014167D02*
X004166Y014167D01*
X004166Y014069D02*
X004223Y014069D01*
X004223Y013970D02*
X004166Y013970D01*
X004166Y013872D02*
X004223Y013872D01*
X003825Y013872D02*
X003004Y013872D01*
X002943Y013970D02*
X003808Y013970D01*
X003808Y014069D02*
X003041Y014069D01*
X003140Y014167D02*
X003808Y014167D01*
X003808Y014266D02*
X003209Y014266D01*
X003209Y014364D02*
X003855Y014364D01*
X003209Y014463D02*
X005325Y014463D01*
X005325Y014561D02*
X003209Y014561D01*
X003209Y014660D02*
X005325Y014660D01*
X005230Y014758D02*
X005090Y014758D01*
X005113Y014857D02*
X005207Y014857D01*
X005207Y014955D02*
X005113Y014955D01*
X005113Y015054D02*
X005207Y015054D01*
X005207Y015152D02*
X005113Y015152D01*
X005113Y015251D02*
X005207Y015251D01*
X005207Y015349D02*
X005113Y015349D01*
X005043Y015448D02*
X005277Y015448D01*
X005841Y015546D02*
X004636Y015546D01*
X004537Y015645D02*
X005939Y015645D01*
X006038Y015743D02*
X003132Y015743D01*
X003034Y015842D02*
X006136Y015842D01*
X006235Y015940D02*
X002935Y015940D01*
X002200Y016630D02*
X000776Y016630D01*
X000776Y016728D02*
X002298Y016728D01*
X002101Y016531D02*
X000776Y016531D01*
X000776Y016433D02*
X002003Y016433D01*
X001904Y016334D02*
X000776Y016334D01*
X000776Y016236D02*
X001806Y016236D01*
X000776Y016827D02*
X008794Y016827D01*
X008893Y016925D02*
X000776Y016925D01*
X000776Y017024D02*
X008991Y017024D01*
X009090Y017122D02*
X000776Y017122D01*
X000776Y017221D02*
X009188Y017221D01*
X009287Y017319D02*
X000776Y017319D01*
X000776Y017418D02*
X012114Y017418D01*
X011838Y017516D02*
X000776Y017516D01*
X000776Y017615D02*
X011666Y017615D01*
X011589Y017713D02*
X000776Y017713D01*
X000776Y017812D02*
X001540Y017812D01*
X001340Y017910D02*
X000776Y017910D01*
X000776Y018009D02*
X001217Y018009D01*
X001127Y018107D02*
X000776Y018107D01*
X000776Y018206D02*
X001060Y018206D01*
X001009Y018304D02*
X000776Y018304D01*
X000776Y018403D02*
X000972Y018403D01*
X000948Y018501D02*
X000776Y018501D01*
X000776Y018600D02*
X000935Y018600D01*
X000776Y021752D02*
X001533Y021752D01*
X001312Y021850D02*
X000776Y021850D01*
X000776Y021949D02*
X001214Y021949D01*
X001115Y022047D02*
X000776Y022047D01*
X000776Y022146D02*
X001049Y022146D01*
X001008Y022244D02*
X000776Y022244D01*
X000776Y022343D02*
X000967Y022343D01*
X000934Y022441D02*
X000776Y022441D01*
X000776Y022540D02*
X000934Y022540D01*
X000934Y022638D02*
X000776Y022638D01*
X000776Y022737D02*
X000934Y022737D01*
X000957Y022835D02*
X000776Y022835D01*
X000776Y022934D02*
X000998Y022934D01*
X001039Y023032D02*
X000776Y023032D01*
X000776Y023131D02*
X001091Y023131D01*
X001190Y023229D02*
X000776Y023229D01*
X000776Y023328D02*
X001288Y023328D01*
X001475Y023426D02*
X000776Y023426D01*
X000776Y023722D02*
X001529Y023722D01*
X001311Y023820D02*
X000776Y023820D01*
X000776Y023919D02*
X001212Y023919D01*
X001114Y024017D02*
X000776Y024017D01*
X000776Y024116D02*
X001048Y024116D01*
X001007Y024214D02*
X000776Y024214D01*
X000776Y024313D02*
X000966Y024313D01*
X000934Y024411D02*
X000776Y024411D01*
X000776Y024510D02*
X000934Y024510D01*
X000934Y024608D02*
X000776Y024608D01*
X000776Y024707D02*
X000934Y024707D01*
X000958Y024805D02*
X000776Y024805D01*
X000776Y024904D02*
X000998Y024904D01*
X001039Y025002D02*
X000776Y025002D01*
X000776Y025101D02*
X001093Y025101D01*
X001191Y025199D02*
X000776Y025199D01*
X000776Y025298D02*
X001290Y025298D01*
X001478Y025396D02*
X000776Y025396D01*
X000776Y025889D02*
X036148Y025889D01*
X036148Y025987D02*
X000776Y025987D01*
X000776Y026086D02*
X036148Y026086D01*
X036148Y026184D02*
X035368Y026184D01*
X035303Y026167D02*
X035578Y026241D01*
X035824Y026383D01*
X036025Y026584D01*
X036148Y026797D01*
X036148Y002254D01*
X036092Y002351D01*
X035891Y002552D01*
X035645Y002694D01*
X035370Y002768D01*
X035086Y002768D01*
X034811Y002694D01*
X034565Y002552D01*
X034364Y002351D01*
X034222Y002105D01*
X034148Y001830D01*
X034148Y001546D01*
X034222Y001271D01*
X034364Y001025D01*
X034565Y000824D01*
X034811Y000682D01*
X034974Y000638D01*
X001982Y000638D01*
X002145Y000682D01*
X002391Y000824D01*
X002592Y001025D01*
X002734Y001271D01*
X002808Y001546D01*
X002808Y001830D01*
X002734Y002105D01*
X002592Y002351D01*
X002391Y002552D01*
X002145Y002694D01*
X001870Y002768D01*
X001586Y002768D01*
X001311Y002694D01*
X001065Y002552D01*
X000864Y002351D01*
X000776Y002200D01*
X000776Y026681D01*
X000832Y026584D01*
X001033Y026383D01*
X001280Y026241D01*
X001554Y026167D01*
X001839Y026167D01*
X002113Y026241D01*
X002359Y026383D01*
X002561Y026584D01*
X002703Y026830D01*
X002776Y027105D01*
X002776Y027389D01*
X002703Y027664D01*
X002561Y027910D01*
X002359Y028111D01*
X002263Y028167D01*
X034595Y028167D01*
X034498Y028111D01*
X034297Y027910D01*
X034155Y027664D01*
X034081Y027389D01*
X034081Y027105D01*
X034155Y026830D01*
X034297Y026584D01*
X034498Y026383D01*
X034744Y026241D01*
X035019Y026167D01*
X035303Y026167D01*
X034954Y026184D02*
X001904Y026184D01*
X002187Y026283D02*
X034671Y026283D01*
X034500Y026381D02*
X002357Y026381D01*
X002457Y026480D02*
X034401Y026480D01*
X034302Y026578D02*
X002555Y026578D01*
X002614Y026677D02*
X034243Y026677D01*
X034186Y026775D02*
X002671Y026775D01*
X002714Y026874D02*
X034143Y026874D01*
X034116Y026972D02*
X002741Y026972D01*
X002767Y027071D02*
X034090Y027071D01*
X034081Y027169D02*
X002776Y027169D01*
X002776Y027268D02*
X034081Y027268D01*
X034081Y027366D02*
X002776Y027366D01*
X002756Y027465D02*
X034101Y027465D01*
X034128Y027563D02*
X002730Y027563D01*
X002703Y027662D02*
X034154Y027662D01*
X034210Y027760D02*
X002647Y027760D01*
X002590Y027859D02*
X034267Y027859D01*
X034344Y027957D02*
X002513Y027957D01*
X002415Y028056D02*
X034443Y028056D01*
X034573Y028154D02*
X002284Y028154D01*
X000778Y026677D02*
X000776Y026677D01*
X000776Y026578D02*
X000838Y026578D01*
X000776Y026480D02*
X000936Y026480D01*
X001036Y026381D02*
X000776Y026381D01*
X000776Y026283D02*
X001206Y026283D01*
X001489Y026184D02*
X000776Y026184D01*
X008087Y020964D02*
X008995Y020964D01*
X008976Y020865D02*
X008094Y020865D01*
X008094Y020767D02*
X008976Y020767D01*
X008976Y020668D02*
X008094Y020668D01*
X008094Y020570D02*
X008976Y020570D01*
X008976Y020471D02*
X008094Y020471D01*
X008094Y020373D02*
X008976Y020373D01*
X009049Y020274D02*
X008009Y020274D01*
X007785Y019979D02*
X009356Y019979D01*
X009258Y020077D02*
X007686Y020077D01*
X007588Y020176D02*
X009159Y020176D01*
X009695Y021161D02*
X008166Y021161D01*
X008242Y021259D02*
X009619Y021259D01*
X009579Y021358D02*
X008283Y021358D01*
X008285Y021456D02*
X009577Y021456D01*
X009592Y021555D02*
X008269Y021555D01*
X008228Y021653D02*
X009633Y021653D01*
X009728Y021752D02*
X008133Y021752D01*
X007479Y020471D02*
X007386Y020471D01*
X007391Y020373D02*
X007479Y020373D01*
X007489Y020274D02*
X007565Y020274D01*
X010233Y021161D02*
X011959Y021161D01*
X011883Y021259D02*
X010309Y021259D01*
X010350Y021358D02*
X011842Y021358D01*
X011840Y021456D02*
X010352Y021456D01*
X010336Y021555D02*
X011856Y021555D01*
X011897Y021653D02*
X010295Y021653D01*
X010200Y021752D02*
X011992Y021752D01*
X011329Y020176D02*
X011131Y020176D01*
X011230Y020077D02*
X011329Y020077D01*
X011328Y019979D02*
X011329Y019979D01*
X015069Y019388D02*
X016876Y019388D01*
X016876Y019289D02*
X015167Y019289D01*
X015266Y019191D02*
X016876Y019191D01*
X016876Y019092D02*
X015364Y019092D01*
X015463Y018994D02*
X016876Y018994D01*
X016876Y018895D02*
X015561Y018895D01*
X015660Y018797D02*
X016876Y018797D01*
X016876Y018698D02*
X015758Y018698D01*
X015857Y018600D02*
X016876Y018600D01*
X016876Y018501D02*
X015955Y018501D01*
X016036Y018403D02*
X016876Y018403D01*
X016876Y018304D02*
X016036Y018304D01*
X016036Y018206D02*
X016123Y018206D01*
X016600Y018206D02*
X016876Y018206D01*
X016876Y018107D02*
X016694Y018107D01*
X016735Y018009D02*
X016876Y018009D01*
X016876Y017910D02*
X016749Y017910D01*
X016746Y017812D02*
X016876Y017812D01*
X016876Y017713D02*
X016705Y017713D01*
X016766Y017615D02*
X016776Y017615D01*
X016766Y017516D02*
X016776Y017516D01*
X016766Y017418D02*
X016776Y017418D01*
X016766Y017319D02*
X016776Y017319D01*
X016766Y017221D02*
X016776Y017221D01*
X016766Y017122D02*
X016776Y017122D01*
X016766Y017024D02*
X016776Y017024D01*
X016766Y016925D02*
X016776Y016925D01*
X017950Y018600D02*
X018048Y018600D01*
X017950Y018698D02*
X018146Y018698D01*
X018245Y018797D02*
X017950Y018797D01*
X017950Y018895D02*
X018343Y018895D01*
X018442Y018994D02*
X017950Y018994D01*
X017950Y019092D02*
X018540Y019092D01*
X018639Y019191D02*
X017950Y019191D01*
X017950Y019289D02*
X018737Y019289D01*
X018836Y019388D02*
X017950Y019388D01*
X017950Y019486D02*
X018934Y019486D01*
X019737Y019585D02*
X017950Y019585D01*
X017950Y019683D02*
X019832Y019683D01*
X019832Y019782D02*
X017950Y019782D01*
X017954Y019880D02*
X019832Y019880D01*
X019832Y019979D02*
X018052Y019979D01*
X018147Y020077D02*
X019832Y020077D01*
X019832Y020176D02*
X018147Y020176D01*
X018147Y020274D02*
X019832Y020274D01*
X019767Y020373D02*
X018964Y020373D01*
X018964Y020372D02*
X018964Y020969D01*
X018877Y021056D01*
X018867Y021056D01*
X018867Y021133D01*
X018954Y021220D01*
X019013Y021363D01*
X019013Y021517D01*
X018954Y021659D01*
X018845Y021768D01*
X018703Y021827D01*
X018548Y021827D01*
X018406Y021768D01*
X018297Y021659D01*
X018238Y021517D01*
X018238Y021363D01*
X018297Y021220D01*
X018406Y021111D01*
X018447Y021094D01*
X018447Y021056D01*
X018437Y021056D01*
X018350Y020969D01*
X018350Y020372D01*
X018437Y020284D01*
X018877Y020284D01*
X018964Y020372D01*
X018964Y020471D02*
X019767Y020471D01*
X019767Y020570D02*
X018964Y020570D01*
X018964Y020668D02*
X019767Y020668D01*
X019767Y020767D02*
X018964Y020767D01*
X018964Y020865D02*
X019767Y020865D01*
X019767Y020964D02*
X018964Y020964D01*
X018867Y021062D02*
X020581Y021062D01*
X020581Y021056D02*
X020581Y021107D01*
X020571Y021111D01*
X020462Y021220D01*
X020403Y021363D01*
X020403Y021517D01*
X020462Y021659D01*
X020571Y021768D01*
X020714Y021827D01*
X020868Y021827D01*
X021010Y021768D01*
X021119Y021659D01*
X021178Y021517D01*
X021178Y021363D01*
X021119Y021220D01*
X021010Y021111D01*
X021001Y021107D01*
X021001Y021056D01*
X021003Y021056D01*
X021090Y020969D01*
X021090Y020372D01*
X021003Y020284D01*
X020563Y020284D01*
X020476Y020372D01*
X020476Y020969D01*
X020563Y021056D01*
X020581Y021056D01*
X020522Y021161D02*
X018895Y021161D01*
X018970Y021259D02*
X020446Y021259D01*
X020405Y021358D02*
X019011Y021358D01*
X019013Y021456D02*
X020403Y021456D01*
X020419Y021555D02*
X018997Y021555D01*
X018956Y021653D02*
X020460Y021653D01*
X020555Y021752D02*
X018861Y021752D01*
X018390Y021752D02*
X015365Y021752D01*
X015496Y021653D02*
X015968Y021653D01*
X015836Y021555D02*
X015566Y021555D01*
X015607Y021456D02*
X015764Y021456D01*
X015723Y021358D02*
X015615Y021358D01*
X015615Y021259D02*
X015715Y021259D01*
X015715Y021161D02*
X015615Y021161D01*
X015615Y021062D02*
X015715Y021062D01*
X015715Y020964D02*
X015615Y020964D01*
X015615Y020865D02*
X015715Y020865D01*
X015715Y020767D02*
X015615Y020767D01*
X015615Y020668D02*
X015715Y020668D01*
X015715Y020570D02*
X015578Y020570D01*
X015525Y020471D02*
X015751Y020471D01*
X015803Y020373D02*
X015426Y020373D01*
X015462Y020274D02*
X015902Y020274D01*
X015659Y020077D02*
X016738Y020077D01*
X016640Y020176D02*
X015560Y020176D01*
X016428Y020274D02*
X016541Y020274D01*
X016840Y020570D02*
X017641Y020570D01*
X017641Y020668D02*
X016741Y020668D01*
X016643Y020767D02*
X017641Y020767D01*
X017641Y020865D02*
X016615Y020865D01*
X016615Y020964D02*
X017641Y020964D01*
X017641Y020471D02*
X016938Y020471D01*
X017037Y020373D02*
X017641Y020373D01*
X017727Y020274D02*
X017135Y020274D01*
X017234Y020176D02*
X017655Y020176D01*
X017557Y020077D02*
X017332Y020077D01*
X017431Y019979D02*
X017530Y019979D01*
X017529Y019880D02*
X017530Y019880D01*
X018256Y020373D02*
X018350Y020373D01*
X018350Y020471D02*
X018256Y020471D01*
X018256Y020570D02*
X018350Y020570D01*
X018350Y020668D02*
X018256Y020668D01*
X018256Y020767D02*
X018350Y020767D01*
X018350Y020865D02*
X018256Y020865D01*
X018256Y020964D02*
X018350Y020964D01*
X018447Y021062D02*
X016615Y021062D01*
X016615Y021161D02*
X018356Y021161D01*
X018281Y021259D02*
X016615Y021259D01*
X016606Y021358D02*
X018240Y021358D01*
X018238Y021456D02*
X016566Y021456D01*
X016494Y021555D02*
X018254Y021555D01*
X018295Y021653D02*
X016361Y021653D01*
X016581Y024017D02*
X017938Y024017D01*
X018065Y023965D02*
X017734Y024102D01*
X017481Y024355D01*
X017344Y024686D01*
X017344Y025044D01*
X017481Y025375D01*
X017734Y025628D01*
X018065Y025765D01*
X018423Y025765D01*
X018753Y025628D01*
X019007Y025375D01*
X019144Y025044D01*
X019144Y024686D01*
X019007Y024355D01*
X018753Y024102D01*
X018423Y023965D01*
X018065Y023965D01*
X017720Y024116D02*
X016799Y024116D01*
X016897Y024214D02*
X017621Y024214D01*
X017523Y024313D02*
X016996Y024313D01*
X017061Y024411D02*
X017457Y024411D01*
X017417Y024510D02*
X017102Y024510D01*
X017143Y024608D02*
X017376Y024608D01*
X017344Y024707D02*
X017175Y024707D01*
X017175Y024805D02*
X017344Y024805D01*
X017344Y024904D02*
X017175Y024904D01*
X017175Y025002D02*
X017344Y025002D01*
X017367Y025101D02*
X017152Y025101D01*
X017111Y025199D02*
X017408Y025199D01*
X017449Y025298D02*
X017070Y025298D01*
X017017Y025396D02*
X017502Y025396D01*
X017601Y025495D02*
X016918Y025495D01*
X016820Y025593D02*
X017699Y025593D01*
X017888Y025692D02*
X016631Y025692D01*
X018599Y025692D02*
X019857Y025692D01*
X019702Y025628D02*
X019449Y025375D01*
X019312Y025044D01*
X019312Y024686D01*
X019449Y024355D01*
X019702Y024102D01*
X020033Y023965D01*
X020391Y023965D01*
X020722Y024102D01*
X020975Y024355D01*
X021112Y024686D01*
X021112Y025044D01*
X020975Y025375D01*
X020722Y025628D01*
X020391Y025765D01*
X020033Y025765D01*
X019702Y025628D01*
X019668Y025593D02*
X018788Y025593D01*
X018887Y025495D02*
X019569Y025495D01*
X019471Y025396D02*
X018985Y025396D01*
X019038Y025298D02*
X019417Y025298D01*
X019376Y025199D02*
X019079Y025199D01*
X019120Y025101D02*
X019336Y025101D01*
X019312Y025002D02*
X019144Y025002D01*
X019144Y024904D02*
X019312Y024904D01*
X019312Y024805D02*
X019144Y024805D01*
X019144Y024707D02*
X019312Y024707D01*
X019344Y024608D02*
X019111Y024608D01*
X019071Y024510D02*
X019385Y024510D01*
X019426Y024411D02*
X019030Y024411D01*
X018964Y024313D02*
X019491Y024313D01*
X019590Y024214D02*
X018866Y024214D01*
X018767Y024116D02*
X019688Y024116D01*
X019907Y024017D02*
X018549Y024017D01*
X020518Y024017D02*
X021875Y024017D01*
X022002Y023965D02*
X022360Y023965D01*
X022690Y024102D01*
X022944Y024355D01*
X023081Y024686D01*
X023081Y025044D01*
X022944Y025375D01*
X022690Y025628D01*
X022360Y025765D01*
X022002Y025765D01*
X021671Y025628D01*
X021418Y025375D01*
X021281Y025044D01*
X021281Y024686D01*
X021418Y024355D01*
X021671Y024102D01*
X022002Y023965D01*
X021657Y024116D02*
X020736Y024116D01*
X020834Y024214D02*
X021558Y024214D01*
X021460Y024313D02*
X020933Y024313D01*
X020998Y024411D02*
X021394Y024411D01*
X021354Y024510D02*
X021039Y024510D01*
X021080Y024608D02*
X021313Y024608D01*
X021281Y024707D02*
X021112Y024707D01*
X021112Y024805D02*
X021281Y024805D01*
X021281Y024904D02*
X021112Y024904D01*
X021112Y025002D02*
X021281Y025002D01*
X021304Y025101D02*
X021089Y025101D01*
X021048Y025199D02*
X021345Y025199D01*
X021386Y025298D02*
X021007Y025298D01*
X020954Y025396D02*
X021439Y025396D01*
X021538Y025495D02*
X020855Y025495D01*
X020757Y025593D02*
X021636Y025593D01*
X021825Y025692D02*
X020568Y025692D01*
X022536Y025692D02*
X026490Y025692D01*
X026383Y025648D02*
X026130Y025395D01*
X025993Y025064D01*
X025993Y024706D01*
X026130Y024375D01*
X026383Y024122D01*
X026714Y023985D01*
X027072Y023985D01*
X027403Y024122D01*
X027656Y024375D01*
X027793Y024706D01*
X027793Y025064D01*
X027656Y025395D01*
X027403Y025648D01*
X027072Y025785D01*
X026714Y025785D01*
X026383Y025648D01*
X026329Y025593D02*
X022725Y025593D01*
X022824Y025495D02*
X026231Y025495D01*
X026132Y025396D02*
X022922Y025396D01*
X022975Y025298D02*
X026090Y025298D01*
X026049Y025199D02*
X023016Y025199D01*
X023057Y025101D02*
X026009Y025101D01*
X025993Y025002D02*
X023081Y025002D01*
X023081Y024904D02*
X025993Y024904D01*
X025993Y024805D02*
X023081Y024805D01*
X023081Y024707D02*
X025993Y024707D01*
X026034Y024608D02*
X023048Y024608D01*
X023008Y024510D02*
X026074Y024510D01*
X026115Y024411D02*
X022967Y024411D01*
X022901Y024313D02*
X026192Y024313D01*
X026291Y024214D02*
X022803Y024214D01*
X022704Y024116D02*
X026397Y024116D01*
X026635Y024017D02*
X022486Y024017D01*
X022781Y021827D02*
X022638Y021768D01*
X022529Y021659D01*
X022470Y021517D01*
X022470Y021363D01*
X022529Y021220D01*
X022638Y021111D01*
X022648Y021107D01*
X022648Y021015D01*
X022601Y020969D01*
X022601Y020372D01*
X022689Y020284D01*
X023129Y020284D01*
X023216Y020372D01*
X023216Y020969D01*
X023129Y021056D01*
X023068Y021056D01*
X023068Y021107D01*
X023077Y021111D01*
X023186Y021220D01*
X023245Y021363D01*
X023245Y021517D01*
X023186Y021659D01*
X023077Y021768D01*
X022935Y021827D01*
X022781Y021827D01*
X022622Y021752D02*
X021027Y021752D01*
X021122Y021653D02*
X022527Y021653D01*
X022486Y021555D02*
X021163Y021555D01*
X021178Y021456D02*
X022470Y021456D01*
X022472Y021358D02*
X021176Y021358D01*
X021136Y021259D02*
X022513Y021259D01*
X022589Y021161D02*
X021060Y021161D01*
X021001Y021062D02*
X022648Y021062D01*
X022601Y020964D02*
X022508Y020964D01*
X022508Y020865D02*
X022601Y020865D01*
X022601Y020767D02*
X022508Y020767D01*
X022508Y020668D02*
X022601Y020668D01*
X022601Y020570D02*
X022508Y020570D01*
X022508Y020471D02*
X022601Y020471D01*
X022601Y020373D02*
X022508Y020373D01*
X022379Y020274D02*
X028378Y020274D01*
X028370Y020176D02*
X022379Y020176D01*
X022379Y020077D02*
X028271Y020077D01*
X028173Y019979D02*
X022379Y019979D01*
X022379Y019880D02*
X028074Y019880D01*
X027976Y019782D02*
X022379Y019782D01*
X022379Y019683D02*
X027877Y019683D01*
X027779Y019585D02*
X022379Y019585D01*
X022379Y019486D02*
X023166Y019486D01*
X023068Y019388D02*
X022379Y019388D01*
X022379Y019289D02*
X022969Y019289D01*
X022871Y019191D02*
X022379Y019191D01*
X022284Y019092D02*
X022772Y019092D01*
X022674Y018994D02*
X022185Y018994D01*
X021887Y019289D02*
X020036Y019289D01*
X020134Y019388D02*
X021959Y019388D01*
X021959Y019486D02*
X020233Y019486D01*
X020252Y019585D02*
X021959Y019585D01*
X021959Y019683D02*
X020252Y019683D01*
X020252Y019782D02*
X021959Y019782D01*
X021959Y019880D02*
X020252Y019880D01*
X020252Y019979D02*
X021959Y019979D01*
X021959Y020077D02*
X020252Y020077D01*
X020252Y020176D02*
X021959Y020176D01*
X021959Y020274D02*
X020252Y020274D01*
X020382Y020373D02*
X020476Y020373D01*
X020476Y020471D02*
X020382Y020471D01*
X020382Y020570D02*
X020476Y020570D01*
X020476Y020668D02*
X020382Y020668D01*
X020382Y020767D02*
X020476Y020767D01*
X020476Y020865D02*
X020382Y020865D01*
X020382Y020964D02*
X020476Y020964D01*
X021090Y020964D02*
X021893Y020964D01*
X021893Y020865D02*
X021090Y020865D01*
X021090Y020767D02*
X021893Y020767D01*
X021893Y020668D02*
X021090Y020668D01*
X021090Y020570D02*
X021893Y020570D01*
X021893Y020471D02*
X021090Y020471D01*
X021090Y020373D02*
X021893Y020373D01*
X023216Y020373D02*
X028298Y020373D01*
X028298Y020471D02*
X023216Y020471D01*
X023216Y020570D02*
X028298Y020570D01*
X028298Y020668D02*
X023216Y020668D01*
X023216Y020767D02*
X028298Y020767D01*
X028298Y020865D02*
X023216Y020865D01*
X023216Y020964D02*
X028311Y020964D01*
X028900Y020964D02*
X029020Y020964D01*
X029007Y020951D02*
X029007Y020354D01*
X029095Y020266D01*
X029534Y020266D01*
X029622Y020354D01*
X029622Y020951D01*
X029564Y021009D01*
X029564Y021107D01*
X029573Y021111D01*
X029682Y021220D01*
X029741Y021363D01*
X029741Y021517D01*
X029682Y021659D01*
X029573Y021768D01*
X029431Y021827D01*
X029277Y021827D01*
X029134Y021768D01*
X029025Y021659D01*
X028966Y021517D01*
X028966Y021363D01*
X029025Y021220D01*
X029134Y021111D01*
X029144Y021107D01*
X029144Y021039D01*
X029095Y021039D01*
X029007Y020951D01*
X029007Y020865D02*
X028913Y020865D01*
X028913Y020767D02*
X029007Y020767D01*
X029007Y020668D02*
X028913Y020668D01*
X028913Y020570D02*
X029007Y020570D01*
X029007Y020471D02*
X028913Y020471D01*
X028913Y020373D02*
X029007Y020373D01*
X029087Y020274D02*
X028834Y020274D01*
X028810Y020176D02*
X030413Y020176D01*
X030511Y020274D02*
X029542Y020274D01*
X029622Y020373D02*
X030464Y020373D01*
X030464Y020471D02*
X029622Y020471D01*
X029622Y020570D02*
X030464Y020570D01*
X030464Y020668D02*
X029622Y020668D01*
X029622Y020767D02*
X030464Y020767D01*
X030464Y020865D02*
X029622Y020865D01*
X029609Y020964D02*
X030477Y020964D01*
X031066Y020964D02*
X031185Y020964D01*
X031172Y020951D02*
X031172Y020354D01*
X031260Y020266D01*
X031699Y020266D01*
X031787Y020354D01*
X031787Y020951D01*
X031699Y021039D01*
X031631Y021039D01*
X031631Y021107D01*
X031640Y021111D01*
X031749Y021220D01*
X031808Y021363D01*
X031808Y021517D01*
X031749Y021659D01*
X031640Y021768D01*
X031498Y021827D01*
X031344Y021827D01*
X031201Y021768D01*
X031092Y021659D01*
X031033Y021517D01*
X031033Y021363D01*
X031092Y021220D01*
X031201Y021111D01*
X031211Y021107D01*
X031211Y020989D01*
X031172Y020951D01*
X031172Y020865D02*
X031079Y020865D01*
X031079Y020767D02*
X031172Y020767D01*
X031172Y020668D02*
X031079Y020668D01*
X031079Y020570D02*
X031172Y020570D01*
X031172Y020471D02*
X031079Y020471D01*
X031079Y020373D02*
X031172Y020373D01*
X031252Y020274D02*
X030999Y020274D01*
X030980Y020176D02*
X032589Y020176D01*
X032589Y020274D02*
X031708Y020274D01*
X031787Y020373D02*
X032531Y020373D01*
X032531Y020471D02*
X031787Y020471D01*
X031787Y020570D02*
X032531Y020570D01*
X032531Y020668D02*
X031787Y020668D01*
X031787Y020767D02*
X032531Y020767D01*
X032531Y020865D02*
X031787Y020865D01*
X031774Y020964D02*
X032544Y020964D01*
X033132Y020964D02*
X033252Y020964D01*
X033239Y020951D02*
X033239Y020354D01*
X033327Y020266D01*
X033766Y020266D01*
X033854Y020354D01*
X033854Y020951D01*
X033766Y021039D01*
X033698Y021039D01*
X033698Y021107D01*
X033707Y021111D01*
X033816Y021220D01*
X033875Y021363D01*
X033875Y021517D01*
X033816Y021659D01*
X033707Y021768D01*
X033565Y021827D01*
X033411Y021827D01*
X033268Y021768D01*
X033159Y021659D01*
X033100Y021517D01*
X033100Y021363D01*
X033159Y021220D01*
X033268Y021111D01*
X033278Y021107D01*
X033278Y020989D01*
X033239Y020951D01*
X033239Y020865D02*
X033146Y020865D01*
X033146Y020767D02*
X033239Y020767D01*
X033239Y020668D02*
X033146Y020668D01*
X033146Y020570D02*
X033239Y020570D01*
X033239Y020471D02*
X033146Y020471D01*
X033146Y020373D02*
X033239Y020373D01*
X033319Y020274D02*
X033066Y020274D01*
X033009Y020176D02*
X036148Y020176D01*
X036148Y020274D02*
X033775Y020274D01*
X033854Y020373D02*
X036148Y020373D01*
X036148Y020471D02*
X033854Y020471D01*
X033854Y020570D02*
X036148Y020570D01*
X036148Y020668D02*
X033854Y020668D01*
X033854Y020767D02*
X036148Y020767D01*
X036148Y020865D02*
X033854Y020865D01*
X033841Y020964D02*
X036148Y020964D01*
X036148Y021062D02*
X033698Y021062D01*
X033757Y021161D02*
X036148Y021161D01*
X036148Y021259D02*
X033832Y021259D01*
X033873Y021358D02*
X036148Y021358D01*
X036148Y021456D02*
X033875Y021456D01*
X033859Y021555D02*
X036148Y021555D01*
X036148Y021653D02*
X033819Y021653D01*
X033724Y021752D02*
X036148Y021752D01*
X036148Y020077D02*
X033009Y020077D01*
X033009Y019979D02*
X036148Y019979D01*
X036148Y019880D02*
X032914Y019880D01*
X032816Y019782D02*
X036148Y019782D01*
X036148Y019683D02*
X032717Y019683D01*
X032619Y019585D02*
X036148Y019585D01*
X036148Y019486D02*
X032520Y019486D01*
X032422Y019388D02*
X036148Y019388D01*
X036148Y019289D02*
X028878Y019289D01*
X028780Y019191D02*
X029893Y019191D01*
X029883Y019175D02*
X029873Y019137D01*
X029873Y018910D01*
X030152Y018910D01*
X030152Y019267D01*
X030003Y019267D01*
X029965Y019257D01*
X029931Y019237D01*
X029903Y019209D01*
X029883Y019175D01*
X029873Y019092D02*
X028681Y019092D01*
X028583Y018994D02*
X029873Y018994D01*
X029873Y018852D02*
X029873Y018625D01*
X029883Y018587D01*
X029903Y018552D01*
X029931Y018525D01*
X029965Y018505D01*
X030003Y018495D01*
X030152Y018495D01*
X030152Y018852D01*
X030209Y018852D01*
X030209Y018495D01*
X030358Y018495D01*
X030396Y018505D01*
X030430Y018525D01*
X030458Y018552D01*
X030478Y018587D01*
X030488Y018625D01*
X030488Y018852D01*
X030209Y018852D01*
X030209Y018910D01*
X030152Y018910D01*
X030152Y018852D01*
X029873Y018852D01*
X029873Y018797D02*
X028386Y018797D01*
X028484Y018895D02*
X030152Y018895D01*
X030209Y018895D02*
X030582Y018895D01*
X030488Y018910D02*
X030488Y019137D01*
X030478Y019175D01*
X030458Y019209D01*
X030430Y019237D01*
X030396Y019257D01*
X030358Y019267D01*
X030209Y019267D01*
X030209Y018910D01*
X030488Y018910D01*
X030488Y018994D02*
X030582Y018994D01*
X030582Y019092D02*
X030488Y019092D01*
X030469Y019191D02*
X030594Y019191D01*
X030582Y018797D02*
X030488Y018797D01*
X030488Y018698D02*
X030582Y018698D01*
X030582Y018600D02*
X030481Y018600D01*
X030383Y018501D02*
X030663Y018501D01*
X031159Y018501D02*
X035510Y018501D01*
X035609Y018403D02*
X031159Y018403D01*
X031159Y018304D02*
X033965Y018304D01*
X033774Y018206D02*
X031071Y018206D01*
X030973Y018107D02*
X033676Y018107D01*
X033054Y018698D02*
X035313Y018698D01*
X035412Y018600D02*
X031197Y018600D01*
X031185Y019191D02*
X034525Y019191D01*
X035471Y019191D02*
X036148Y019191D01*
X036148Y019092D02*
X035572Y019092D01*
X035668Y018994D02*
X036148Y018994D01*
X036148Y018895D02*
X035767Y018895D01*
X035865Y018797D02*
X036148Y018797D01*
X036148Y018698D02*
X035964Y018698D01*
X036062Y018600D02*
X036148Y018600D01*
X036148Y018501D02*
X036080Y018501D01*
X036080Y018403D02*
X036148Y018403D01*
X036148Y018304D02*
X036080Y018304D01*
X036080Y018206D02*
X036148Y018206D01*
X036148Y018107D02*
X036080Y018107D01*
X036080Y018009D02*
X036148Y018009D01*
X036148Y017910D02*
X036080Y017910D01*
X036080Y017812D02*
X036148Y017812D01*
X036148Y017713D02*
X036080Y017713D01*
X036080Y017615D02*
X036148Y017615D01*
X036148Y017516D02*
X036080Y017516D01*
X036080Y017418D02*
X036148Y017418D01*
X036148Y017319D02*
X036080Y017319D01*
X036080Y017221D02*
X036148Y017221D01*
X036148Y017122D02*
X036080Y017122D01*
X036080Y017024D02*
X036148Y017024D01*
X036148Y016925D02*
X036080Y016925D01*
X036080Y016827D02*
X036148Y016827D01*
X036148Y016728D02*
X036080Y016728D01*
X036080Y016630D02*
X036148Y016630D01*
X036148Y016531D02*
X036080Y016531D01*
X036080Y016433D02*
X036148Y016433D01*
X036148Y016334D02*
X036080Y016334D01*
X036080Y016236D02*
X036148Y016236D01*
X036148Y016137D02*
X036080Y016137D01*
X036080Y016039D02*
X036148Y016039D01*
X036148Y015940D02*
X036080Y015940D01*
X036080Y015842D02*
X036148Y015842D01*
X036148Y015743D02*
X036080Y015743D01*
X036080Y015645D02*
X036148Y015645D01*
X036148Y015546D02*
X036080Y015546D01*
X036080Y015448D02*
X036148Y015448D01*
X036148Y015349D02*
X036080Y015349D01*
X036080Y015251D02*
X036148Y015251D01*
X036148Y015152D02*
X036080Y015152D01*
X036080Y015054D02*
X036148Y015054D01*
X036148Y014955D02*
X036080Y014955D01*
X036080Y014857D02*
X036148Y014857D01*
X036148Y014758D02*
X036080Y014758D01*
X036080Y014660D02*
X036148Y014660D01*
X036148Y014561D02*
X036080Y014561D01*
X036080Y014463D02*
X036148Y014463D01*
X036148Y014364D02*
X036080Y014364D01*
X036080Y014266D02*
X036148Y014266D01*
X036148Y014167D02*
X036080Y014167D01*
X036080Y014069D02*
X036148Y014069D01*
X036148Y013970D02*
X036072Y013970D01*
X036148Y013872D02*
X035973Y013872D01*
X035875Y013773D02*
X036148Y013773D01*
X036148Y013675D02*
X035776Y013675D01*
X035678Y013576D02*
X036148Y013576D01*
X036148Y013478D02*
X035579Y013478D01*
X035481Y013379D02*
X036148Y013379D01*
X036148Y013281D02*
X035382Y013281D01*
X035284Y013182D02*
X036148Y013182D01*
X036148Y013084D02*
X035189Y013084D01*
X035285Y012985D02*
X036148Y012985D01*
X036148Y012887D02*
X035326Y012887D01*
X035362Y012788D02*
X036148Y012788D01*
X036148Y012690D02*
X035362Y012690D01*
X035362Y012591D02*
X036148Y012591D01*
X036148Y012493D02*
X035321Y012493D01*
X035276Y012394D02*
X036148Y012394D01*
X036148Y012296D02*
X035178Y012296D01*
X035172Y012099D02*
X036148Y012099D01*
X036148Y012197D02*
X034998Y012197D01*
X035263Y012000D02*
X036148Y012000D01*
X036148Y011902D02*
X035321Y011902D01*
X035351Y011803D02*
X036148Y011803D01*
X036148Y011705D02*
X034522Y011705D01*
X034522Y011646D02*
X035361Y011646D01*
X035349Y011574D01*
X035324Y011496D01*
X035287Y011423D01*
X035239Y011357D01*
X035181Y011299D01*
X035115Y011251D01*
X035042Y011214D01*
X034964Y011189D01*
X034883Y011176D01*
X034522Y011176D01*
X034522Y011646D01*
X034522Y011606D02*
X034422Y011606D01*
X034422Y011508D02*
X034522Y011508D01*
X034522Y011409D02*
X034422Y011409D01*
X034422Y011311D02*
X034522Y011311D01*
X034522Y011212D02*
X034422Y011212D01*
X034422Y011705D02*
X029427Y011705D01*
X029509Y011606D02*
X029715Y011606D01*
X029677Y011508D02*
X029547Y011508D01*
X029547Y011409D02*
X029677Y011409D01*
X029677Y011311D02*
X029547Y011311D01*
X029547Y011212D02*
X029677Y011212D01*
X029677Y011114D02*
X029547Y011114D01*
X029547Y011015D02*
X029677Y011015D01*
X029677Y010917D02*
X029547Y010917D01*
X029547Y010818D02*
X029677Y010818D01*
X029677Y010720D02*
X029547Y010720D01*
X029547Y010621D02*
X029677Y010621D01*
X029718Y010523D02*
X029506Y010523D01*
X028808Y010523D02*
X028596Y010523D01*
X028637Y010621D02*
X028767Y010621D01*
X028767Y010720D02*
X028637Y010720D01*
X028637Y010818D02*
X028767Y010818D01*
X028767Y010917D02*
X028637Y010917D01*
X028637Y011015D02*
X028767Y011015D01*
X028767Y011114D02*
X028297Y011114D01*
X028297Y011212D02*
X028197Y011212D01*
X028197Y011116D02*
X028197Y011656D01*
X027987Y011656D01*
X027949Y011646D01*
X027915Y011626D01*
X027887Y011598D01*
X027867Y011564D01*
X027857Y011526D01*
X027857Y011116D01*
X028197Y011116D01*
X028197Y011114D02*
X027153Y011114D01*
X027153Y011135D02*
X026353Y011135D01*
X026353Y010685D01*
X027022Y010685D01*
X027061Y010695D01*
X027095Y010715D01*
X027123Y010743D01*
X027142Y010777D01*
X027153Y010815D01*
X027153Y011135D01*
X027153Y011015D02*
X027857Y011015D01*
X027857Y010917D02*
X027153Y010917D01*
X027153Y010818D02*
X027857Y010818D01*
X027857Y010720D02*
X027100Y010720D01*
X027153Y011311D02*
X027857Y011311D01*
X027857Y011409D02*
X027153Y011409D01*
X027153Y011508D02*
X027857Y011508D01*
X027895Y011606D02*
X027134Y011606D01*
X027857Y011212D02*
X026353Y011212D01*
X026353Y011114D02*
X026253Y011114D01*
X026253Y011015D02*
X026353Y011015D01*
X026353Y010917D02*
X026253Y010917D01*
X026253Y010818D02*
X026353Y010818D01*
X026353Y010720D02*
X026253Y010720D01*
X028197Y010720D02*
X028297Y010720D01*
X028297Y010818D02*
X028197Y010818D01*
X028197Y010917D02*
X028297Y010917D01*
X028297Y011015D02*
X028197Y011015D01*
X028197Y011311D02*
X028297Y011311D01*
X028297Y011409D02*
X028197Y011409D01*
X028197Y011508D02*
X028297Y011508D01*
X028297Y011606D02*
X028197Y011606D01*
X028599Y011606D02*
X028805Y011606D01*
X028767Y011508D02*
X028637Y011508D01*
X028637Y011409D02*
X028767Y011409D01*
X028767Y011311D02*
X028637Y011311D01*
X028637Y011212D02*
X028767Y011212D01*
X028297Y010621D02*
X028197Y010621D01*
X028197Y010523D02*
X028297Y010523D01*
X032061Y013478D02*
X034242Y013478D01*
X034242Y013576D02*
X032861Y013576D01*
X032861Y013536D02*
X032861Y013856D01*
X032851Y013894D01*
X032831Y013928D01*
X032803Y013956D01*
X032769Y013976D01*
X032731Y013986D01*
X032061Y013986D01*
X032061Y013536D01*
X032861Y013536D01*
X032861Y013675D02*
X034242Y013675D01*
X034242Y013773D02*
X032861Y013773D01*
X032857Y013872D02*
X034242Y013872D01*
X034242Y013970D02*
X032779Y013970D01*
X032861Y013379D02*
X034242Y013379D01*
X034242Y013281D02*
X032861Y013281D01*
X032861Y013182D02*
X033918Y013182D01*
X033755Y013084D02*
X032853Y013084D01*
X032061Y013576D02*
X031961Y013576D01*
X031961Y013675D02*
X032061Y013675D01*
X032061Y013773D02*
X031961Y013773D01*
X031961Y013872D02*
X032061Y013872D01*
X032061Y013970D02*
X031961Y013970D01*
X033742Y014758D02*
X027430Y014758D01*
X027522Y014660D02*
X033840Y014660D01*
X033939Y014561D02*
X027562Y014561D01*
X027576Y014463D02*
X034037Y014463D01*
X034392Y014758D02*
X035620Y014758D01*
X035620Y014660D02*
X034491Y014660D01*
X034589Y014561D02*
X035620Y014561D01*
X035620Y014463D02*
X034688Y014463D01*
X034702Y014364D02*
X035620Y014364D01*
X035620Y014266D02*
X034702Y014266D01*
X034702Y014167D02*
X035618Y014167D01*
X035520Y014069D02*
X034702Y014069D01*
X034702Y013970D02*
X035421Y013970D01*
X035323Y013872D02*
X034702Y013872D01*
X034702Y013773D02*
X035224Y013773D01*
X035126Y013675D02*
X034702Y013675D01*
X034702Y013576D02*
X035027Y013576D01*
X034929Y013478D02*
X034702Y013478D01*
X034702Y013379D02*
X034830Y013379D01*
X034732Y013281D02*
X034702Y013281D01*
X034294Y014857D02*
X035620Y014857D01*
X035620Y014955D02*
X034195Y014955D01*
X034097Y015054D02*
X035620Y015054D01*
X035620Y015152D02*
X033998Y015152D01*
X033900Y015251D02*
X035620Y015251D01*
X035620Y015349D02*
X026755Y015349D01*
X027372Y016393D02*
X027406Y016373D01*
X027445Y016363D01*
X027849Y016363D01*
X027849Y016628D01*
X027314Y016628D01*
X027314Y016493D01*
X027325Y016455D01*
X027344Y016420D01*
X027372Y016393D01*
X027337Y016433D02*
X022698Y016433D01*
X022796Y016531D02*
X027314Y016531D01*
X027314Y016658D02*
X027849Y016658D01*
X027849Y016923D01*
X027849Y017128D01*
X027314Y017128D01*
X027314Y016993D01*
X027325Y016955D01*
X027344Y016920D01*
X027372Y016893D01*
X027344Y016865D01*
X027325Y016830D01*
X027314Y016792D01*
X027314Y016658D01*
X027314Y016728D02*
X022993Y016728D01*
X022895Y016630D02*
X027849Y016630D01*
X027849Y016628D02*
X027849Y016658D01*
X027879Y016658D01*
X027879Y017128D01*
X027879Y017158D01*
X027849Y017158D01*
X027849Y017128D01*
X027879Y017128D01*
X028414Y017128D01*
X028414Y016993D01*
X028404Y016955D01*
X028384Y016920D01*
X028356Y016893D01*
X028384Y016865D01*
X028404Y016830D01*
X028414Y016792D01*
X028414Y016658D01*
X027879Y016658D01*
X027879Y016628D01*
X028414Y016628D01*
X028414Y016493D01*
X028404Y016455D01*
X028384Y016420D01*
X028356Y016393D01*
X028322Y016373D01*
X028284Y016363D01*
X027879Y016363D01*
X027879Y016628D01*
X027849Y016628D01*
X027879Y016630D02*
X030269Y016630D01*
X030299Y016630D02*
X033609Y016630D01*
X033650Y016531D02*
X030834Y016531D01*
X030834Y016493D02*
X030834Y016628D01*
X030299Y016628D01*
X030299Y016363D01*
X030704Y016363D01*
X030742Y016373D01*
X030776Y016393D01*
X030804Y016420D01*
X030824Y016455D01*
X030834Y016493D01*
X030812Y016433D02*
X033732Y016433D01*
X033863Y016334D02*
X021329Y016334D01*
X021329Y016236D02*
X035620Y016236D01*
X035620Y016334D02*
X035081Y016334D01*
X035212Y016433D02*
X035620Y016433D01*
X035620Y016531D02*
X035294Y016531D01*
X035335Y016630D02*
X035620Y016630D01*
X035620Y016728D02*
X035362Y016728D01*
X035362Y016827D02*
X035620Y016827D01*
X035620Y016925D02*
X035352Y016925D01*
X035311Y017024D02*
X035620Y017024D01*
X035620Y017122D02*
X035253Y017122D01*
X035155Y017221D02*
X035620Y017221D01*
X035620Y017319D02*
X035045Y017319D01*
X035197Y017418D02*
X035620Y017418D01*
X035620Y017516D02*
X035288Y017516D01*
X035329Y017615D02*
X035620Y017615D01*
X035620Y017713D02*
X035362Y017713D01*
X035362Y017812D02*
X035620Y017812D01*
X035620Y017910D02*
X035358Y017910D01*
X035317Y018009D02*
X035620Y018009D01*
X035620Y018107D02*
X035268Y018107D01*
X035170Y018206D02*
X035620Y018206D01*
X035620Y018304D02*
X034978Y018304D01*
X032517Y020077D02*
X030908Y020077D01*
X030810Y019979D02*
X032419Y019979D01*
X032320Y019880D02*
X030711Y019880D01*
X030613Y019782D02*
X032222Y019782D01*
X031631Y021062D02*
X033278Y021062D01*
X033219Y021161D02*
X031690Y021161D01*
X031765Y021259D02*
X033143Y021259D01*
X033102Y021358D02*
X031806Y021358D01*
X031808Y021456D02*
X033100Y021456D01*
X033116Y021555D02*
X031793Y021555D01*
X031752Y021653D02*
X033157Y021653D01*
X033252Y021752D02*
X031657Y021752D01*
X031185Y021752D02*
X029590Y021752D01*
X029685Y021653D02*
X031090Y021653D01*
X031049Y021555D02*
X029726Y021555D01*
X029741Y021456D02*
X031033Y021456D01*
X031035Y021358D02*
X029739Y021358D01*
X029699Y021259D02*
X031076Y021259D01*
X031152Y021161D02*
X029623Y021161D01*
X029564Y021062D02*
X031211Y021062D01*
X030314Y020077D02*
X028810Y020077D01*
X030152Y019191D02*
X030209Y019191D01*
X030209Y019092D02*
X030152Y019092D01*
X030152Y018994D02*
X030209Y018994D01*
X030209Y018797D02*
X030152Y018797D01*
X030152Y018698D02*
X030209Y018698D01*
X030209Y018600D02*
X030152Y018600D01*
X030152Y018501D02*
X030209Y018501D01*
X029978Y018501D02*
X023563Y018501D01*
X023464Y018403D02*
X027383Y018403D01*
X027354Y017910D02*
X024175Y017910D01*
X024077Y017812D02*
X027320Y017812D01*
X027314Y017713D02*
X023978Y017713D01*
X023880Y017615D02*
X027314Y017615D01*
X027314Y017516D02*
X023781Y017516D01*
X023683Y017418D02*
X027347Y017418D01*
X027322Y017319D02*
X023584Y017319D01*
X023486Y017221D02*
X027314Y017221D01*
X027314Y017122D02*
X023387Y017122D01*
X023289Y017024D02*
X027314Y017024D01*
X027341Y016925D02*
X023190Y016925D01*
X023092Y016827D02*
X027324Y016827D01*
X027849Y016827D02*
X027879Y016827D01*
X027879Y016925D02*
X027849Y016925D01*
X027849Y017024D02*
X027879Y017024D01*
X027879Y017122D02*
X027849Y017122D01*
X027879Y017158D02*
X028414Y017158D01*
X028414Y017292D01*
X028404Y017330D01*
X028384Y017365D01*
X028356Y017393D01*
X028384Y017420D01*
X028404Y017455D01*
X028414Y017493D01*
X028414Y017628D01*
X027879Y017628D01*
X027879Y017158D01*
X027879Y017221D02*
X027849Y017221D01*
X027849Y017319D02*
X027879Y017319D01*
X027879Y017418D02*
X027849Y017418D01*
X027849Y017516D02*
X027879Y017516D01*
X027879Y017615D02*
X027849Y017615D01*
X028374Y017910D02*
X029774Y017910D01*
X029734Y017812D02*
X028409Y017812D01*
X028414Y017713D02*
X029734Y017713D01*
X029734Y017615D02*
X028414Y017615D01*
X028414Y017516D02*
X029734Y017516D01*
X029767Y017418D02*
X028382Y017418D01*
X028407Y017319D02*
X029734Y017319D01*
X029734Y017221D02*
X028414Y017221D01*
X028414Y017122D02*
X029734Y017122D01*
X029734Y017024D02*
X028414Y017024D01*
X028387Y016925D02*
X029759Y016925D01*
X029744Y016827D02*
X028405Y016827D01*
X028414Y016728D02*
X029734Y016728D01*
X029734Y016531D02*
X028414Y016531D01*
X028392Y016433D02*
X029757Y016433D01*
X030269Y016433D02*
X030299Y016433D01*
X030299Y016531D02*
X030269Y016531D01*
X030834Y016728D02*
X031518Y016728D01*
X031420Y016827D02*
X030825Y016827D01*
X030874Y018009D02*
X031978Y018009D01*
X029880Y018600D02*
X028189Y018600D01*
X028287Y018698D02*
X029873Y018698D01*
X029803Y018403D02*
X028346Y018403D01*
X028414Y018304D02*
X029734Y018304D01*
X029734Y018206D02*
X028414Y018206D01*
X028414Y018107D02*
X029734Y018107D01*
X029734Y018009D02*
X028414Y018009D01*
X027879Y016728D02*
X027849Y016728D01*
X027849Y016531D02*
X027879Y016531D01*
X027879Y016433D02*
X027849Y016433D01*
X023976Y018304D02*
X023366Y018304D01*
X023267Y018206D02*
X023877Y018206D01*
X023779Y018107D02*
X023169Y018107D01*
X023070Y018009D02*
X023680Y018009D01*
X023582Y017910D02*
X020779Y017910D01*
X021128Y017812D02*
X023483Y017812D01*
X023385Y017713D02*
X021221Y017713D01*
X021262Y017615D02*
X023286Y017615D01*
X023188Y017516D02*
X021277Y017516D01*
X021274Y017418D02*
X023089Y017418D01*
X022991Y017319D02*
X021233Y017319D01*
X021155Y017221D02*
X022892Y017221D01*
X022794Y017122D02*
X020983Y017122D01*
X020795Y017122D02*
X020496Y017122D01*
X020496Y017024D02*
X022695Y017024D01*
X022597Y016925D02*
X020432Y016925D01*
X020496Y017221D02*
X020623Y017221D01*
X020546Y017319D02*
X020496Y017319D01*
X020496Y017418D02*
X020505Y017418D01*
X020496Y017516D02*
X020502Y017516D01*
X020480Y017615D02*
X020464Y017615D01*
X019926Y017615D02*
X019916Y017615D01*
X019916Y017516D02*
X019926Y017516D01*
X019916Y017418D02*
X019926Y017418D01*
X019916Y017319D02*
X019926Y017319D01*
X019916Y017221D02*
X019926Y017221D01*
X019916Y017122D02*
X019926Y017122D01*
X019916Y017024D02*
X019926Y017024D01*
X019916Y016925D02*
X019926Y016925D01*
X021252Y016827D02*
X022498Y016827D01*
X021329Y016137D02*
X035620Y016137D01*
X035620Y016039D02*
X021329Y016039D01*
X021329Y015940D02*
X035620Y015940D01*
X035620Y015842D02*
X021329Y015842D01*
X021329Y015743D02*
X035620Y015743D01*
X035620Y015645D02*
X021329Y015645D01*
X014495Y016827D02*
X014087Y016827D01*
X013001Y015645D02*
X011380Y015645D01*
X011380Y015743D02*
X012903Y015743D01*
X012804Y015842D02*
X011380Y015842D01*
X011380Y015940D02*
X012706Y015940D01*
X012607Y016039D02*
X011380Y016039D01*
X011380Y016137D02*
X012509Y016137D01*
X012410Y016236D02*
X011380Y016236D01*
X011380Y016334D02*
X012312Y016334D01*
X012213Y016433D02*
X011380Y016433D01*
X011380Y016531D02*
X012115Y016531D01*
X012016Y016630D02*
X011328Y016630D01*
X011458Y015546D02*
X013100Y015546D01*
X013198Y015448D02*
X011557Y015448D01*
X011655Y015349D02*
X013297Y015349D01*
X013395Y015251D02*
X011754Y015251D01*
X011852Y015152D02*
X013396Y015152D01*
X013396Y015054D02*
X011951Y015054D01*
X012049Y014955D02*
X013396Y014955D01*
X013396Y014857D02*
X012148Y014857D01*
X012246Y014758D02*
X013396Y014758D01*
X013396Y014660D02*
X013519Y014537D01*
X013593Y014463D02*
X012542Y014463D01*
X012640Y014364D02*
X013691Y014364D01*
X013790Y014266D02*
X012739Y014266D01*
X012837Y014167D02*
X013888Y014167D01*
X013987Y014069D02*
X012936Y014069D01*
X011891Y014463D02*
X011380Y014463D01*
X011380Y014561D02*
X011793Y014561D01*
X011694Y014660D02*
X011380Y014660D01*
X011380Y014758D02*
X011596Y014758D01*
X011497Y014857D02*
X011380Y014857D01*
X011380Y014955D02*
X011399Y014955D01*
X011380Y014354D02*
X011292Y014266D01*
X012325Y013084D02*
X004495Y013084D01*
X004070Y012985D02*
X012227Y012985D01*
X012128Y012887D02*
X003972Y012887D01*
X003873Y012788D02*
X008608Y012788D01*
X008606Y012787D02*
X008578Y012759D01*
X008559Y012725D01*
X008548Y012687D01*
X008548Y012539D01*
X008906Y012539D01*
X008906Y012817D01*
X008679Y012817D01*
X008640Y012807D01*
X008606Y012787D01*
X008549Y012690D02*
X003775Y012690D01*
X003676Y012591D02*
X008548Y012591D01*
X008548Y012481D02*
X008548Y012333D01*
X008559Y012294D01*
X008578Y012260D01*
X008606Y012232D01*
X008640Y012213D01*
X008679Y012202D01*
X008906Y012202D01*
X008906Y012481D01*
X008963Y012481D01*
X008963Y012202D01*
X009191Y012202D01*
X009229Y012213D01*
X009263Y012232D01*
X009291Y012260D01*
X009311Y012294D01*
X009321Y012333D01*
X009321Y012481D01*
X008963Y012481D01*
X008963Y012539D01*
X008906Y012539D01*
X008906Y012481D01*
X008548Y012481D01*
X008548Y012394D02*
X003479Y012394D01*
X003381Y012296D02*
X008558Y012296D01*
X008626Y012099D02*
X003184Y012099D01*
X003282Y012197D02*
X010320Y012197D01*
X010320Y012099D02*
X009243Y012099D01*
X009311Y012296D02*
X010320Y012296D01*
X010320Y012394D02*
X009321Y012394D01*
X009321Y012539D02*
X008963Y012539D01*
X008963Y012817D01*
X009191Y012817D01*
X009229Y012807D01*
X009263Y012787D01*
X009291Y012759D01*
X009311Y012725D01*
X009321Y012687D01*
X009321Y012539D01*
X009321Y012591D02*
X010320Y012591D01*
X010320Y012493D02*
X008963Y012493D01*
X008906Y012493D02*
X003578Y012493D01*
X003085Y012000D02*
X008548Y012000D01*
X008548Y011902D02*
X002987Y011902D01*
X002233Y010950D02*
X002124Y010995D01*
X002010Y011025D01*
X001893Y011041D01*
X001884Y011041D01*
X001884Y010191D01*
X001784Y010191D01*
X001784Y011041D01*
X001775Y011041D01*
X001658Y011025D01*
X001544Y010995D01*
X001435Y010950D01*
X001333Y010891D01*
X001239Y010819D01*
X001156Y010735D01*
X001084Y010642D01*
X001025Y010540D01*
X000980Y010431D01*
X000950Y010317D01*
X000934Y010200D01*
X000934Y010191D01*
X001784Y010191D01*
X001784Y010091D01*
X000934Y010091D01*
X000934Y010082D01*
X000950Y009965D01*
X000980Y009851D01*
X001025Y009742D01*
X001084Y009640D01*
X001156Y009546D01*
X001239Y009463D01*
X001333Y009391D01*
X001435Y009332D01*
X001544Y009287D01*
X001658Y009256D01*
X001775Y009241D01*
X001784Y009241D01*
X001784Y010091D01*
X001884Y010091D01*
X001884Y010191D01*
X002734Y010191D01*
X002734Y010200D01*
X002719Y010317D01*
X002688Y010431D01*
X002643Y010540D01*
X002584Y010642D01*
X002512Y010735D01*
X002429Y010819D01*
X002335Y010891D01*
X002233Y010950D01*
X002290Y010917D02*
X010320Y010917D01*
X010320Y011015D02*
X002047Y011015D01*
X001884Y011015D02*
X001784Y011015D01*
X001784Y010917D02*
X001884Y010917D01*
X001884Y010818D02*
X001784Y010818D01*
X001784Y010720D02*
X001884Y010720D01*
X001884Y010621D02*
X001784Y010621D01*
X001784Y010523D02*
X001884Y010523D01*
X001884Y010424D02*
X001784Y010424D01*
X001784Y010326D02*
X001884Y010326D01*
X001884Y010227D02*
X001784Y010227D01*
X001784Y010129D02*
X000776Y010129D01*
X000776Y010227D02*
X000938Y010227D01*
X000952Y010326D02*
X000776Y010326D01*
X000776Y010424D02*
X000978Y010424D01*
X001018Y010523D02*
X000776Y010523D01*
X000776Y010621D02*
X001073Y010621D01*
X001144Y010720D02*
X000776Y010720D01*
X000776Y010818D02*
X001239Y010818D01*
X001379Y010917D02*
X000776Y010917D01*
X000776Y011015D02*
X001622Y011015D01*
X002429Y010818D02*
X010320Y010818D01*
X010320Y010720D02*
X009480Y010720D01*
X008717Y010720D02*
X008642Y010720D01*
X008658Y010621D02*
X008712Y010621D01*
X008712Y010523D02*
X008658Y010523D01*
X008712Y010424D02*
X008322Y010424D01*
X008322Y010326D02*
X008222Y010326D01*
X008222Y010424D02*
X002690Y010424D01*
X002716Y010326D02*
X007885Y010326D01*
X007885Y010227D02*
X002731Y010227D01*
X002734Y010091D02*
X001884Y010091D01*
X001884Y009241D01*
X001893Y009241D01*
X002010Y009256D01*
X002124Y009287D01*
X002233Y009332D01*
X002335Y009391D01*
X002429Y009463D01*
X002512Y009546D01*
X002584Y009640D01*
X002643Y009742D01*
X002688Y009851D01*
X002719Y009965D01*
X002734Y010082D01*
X002734Y010091D01*
X002727Y010030D02*
X007885Y010030D01*
X007885Y009932D02*
X002710Y009932D01*
X002681Y009833D02*
X008222Y009833D01*
X008222Y009735D02*
X008322Y009735D01*
X008322Y009833D02*
X008712Y009833D01*
X008712Y009735D02*
X008658Y009735D01*
X008658Y009636D02*
X008712Y009636D01*
X008712Y009538D02*
X008649Y009538D01*
X008658Y009439D02*
X008712Y009439D01*
X008712Y009341D02*
X008658Y009341D01*
X008712Y009242D02*
X008322Y009242D01*
X008322Y009341D02*
X008222Y009341D01*
X008222Y009439D02*
X008322Y009439D01*
X008322Y009538D02*
X008222Y009538D01*
X008222Y009636D02*
X008322Y009636D01*
X008322Y009932D02*
X008222Y009932D01*
X008222Y010030D02*
X008322Y010030D01*
X008322Y010129D02*
X008222Y010129D01*
X008222Y010227D02*
X008322Y010227D01*
X008222Y010031D02*
X008222Y010031D01*
X007894Y010129D02*
X001884Y010129D01*
X001884Y010030D02*
X001784Y010030D01*
X001784Y009932D02*
X001884Y009932D01*
X001884Y009833D02*
X001784Y009833D01*
X001784Y009735D02*
X001884Y009735D01*
X001884Y009636D02*
X001784Y009636D01*
X001784Y009538D02*
X001884Y009538D01*
X001884Y009439D02*
X001784Y009439D01*
X001784Y009341D02*
X001884Y009341D01*
X001884Y009242D02*
X001784Y009242D01*
X001762Y009242D02*
X000776Y009242D01*
X000776Y009144D02*
X007885Y009144D01*
X007885Y009045D02*
X002052Y009045D01*
X002010Y009057D02*
X001893Y009072D01*
X001884Y009072D01*
X001884Y008222D01*
X001784Y008222D01*
X001784Y008122D01*
X000934Y008122D01*
X000934Y008113D01*
X000950Y007996D01*
X000980Y007882D01*
X001025Y007773D01*
X001084Y007671D01*
X001156Y007577D01*
X001239Y007494D01*
X001333Y007422D01*
X001435Y007363D01*
X001544Y007318D01*
X001658Y007288D01*
X001775Y007272D01*
X001784Y007272D01*
X001784Y008122D01*
X001884Y008122D01*
X001884Y007272D01*
X001893Y007272D01*
X002010Y007288D01*
X002124Y007318D01*
X002233Y007363D01*
X002335Y007422D01*
X002429Y007494D01*
X002512Y007577D01*
X002584Y007671D01*
X002643Y007773D01*
X002688Y007882D01*
X002719Y007996D01*
X002734Y008113D01*
X002734Y008122D01*
X001884Y008122D01*
X001884Y008222D01*
X002734Y008222D01*
X002734Y008231D01*
X002719Y008348D01*
X002688Y008462D01*
X002643Y008571D01*
X002584Y008673D01*
X002512Y008767D01*
X002429Y008850D01*
X002335Y008922D01*
X002233Y008981D01*
X002124Y009026D01*
X002010Y009057D01*
X001884Y009045D02*
X001784Y009045D01*
X001784Y009072D02*
X001775Y009072D01*
X001658Y009057D01*
X001544Y009026D01*
X001435Y008981D01*
X001333Y008922D01*
X001239Y008850D01*
X001156Y008767D01*
X001084Y008673D01*
X001025Y008571D01*
X000980Y008462D01*
X000950Y008348D01*
X000934Y008231D01*
X000934Y008222D01*
X001784Y008222D01*
X001784Y009072D01*
X001784Y008947D02*
X001884Y008947D01*
X001884Y008848D02*
X001784Y008848D01*
X001784Y008750D02*
X001884Y008750D01*
X001884Y008651D02*
X001784Y008651D01*
X001784Y008553D02*
X001884Y008553D01*
X001884Y008454D02*
X001784Y008454D01*
X001784Y008356D02*
X001884Y008356D01*
X001884Y008257D02*
X001784Y008257D01*
X001784Y008159D02*
X000776Y008159D01*
X000776Y008257D02*
X000938Y008257D01*
X000952Y008356D02*
X000776Y008356D01*
X000776Y008454D02*
X000978Y008454D01*
X001018Y008553D02*
X000776Y008553D01*
X000776Y008651D02*
X001072Y008651D01*
X001143Y008750D02*
X000776Y008750D01*
X000776Y008848D02*
X001238Y008848D01*
X001376Y008947D02*
X000776Y008947D01*
X000776Y009045D02*
X001616Y009045D01*
X001907Y009242D02*
X008222Y009242D01*
X007885Y009341D02*
X002249Y009341D01*
X002399Y009439D02*
X007885Y009439D01*
X007894Y009538D02*
X002504Y009538D01*
X002582Y009636D02*
X007885Y009636D01*
X007885Y009735D02*
X002639Y009735D01*
X002292Y008947D02*
X007894Y008947D01*
X007886Y008855D02*
X007886Y008855D01*
X008279Y008435D02*
X008279Y008435D01*
X008794Y008159D02*
X007030Y008159D01*
X007098Y008257D02*
X008886Y008257D01*
X008982Y008356D02*
X007166Y008356D01*
X006962Y008060D02*
X008698Y008060D01*
X008654Y007962D02*
X006894Y007962D01*
X006845Y007863D02*
X008653Y007863D01*
X008552Y007765D02*
X008448Y007765D01*
X008453Y007760D02*
X008365Y007848D01*
X007926Y007848D01*
X007838Y007760D01*
X007838Y007672D01*
X007836Y007672D01*
X007832Y007683D01*
X007723Y007792D01*
X007581Y007851D01*
X007426Y007851D01*
X007284Y007792D01*
X007175Y007683D01*
X007116Y007541D01*
X007116Y007386D01*
X007175Y007244D01*
X007284Y007135D01*
X007426Y007076D01*
X007581Y007076D01*
X007723Y007135D01*
X007832Y007244D01*
X007835Y007252D01*
X007838Y007252D01*
X007838Y007163D01*
X007926Y007075D01*
X008365Y007075D01*
X008453Y007163D01*
X008453Y007760D01*
X008453Y007666D02*
X008547Y007666D01*
X008547Y007568D02*
X008453Y007568D01*
X008453Y007469D02*
X008547Y007469D01*
X008547Y007371D02*
X008453Y007371D01*
X008453Y007272D02*
X008547Y007272D01*
X008547Y007174D02*
X008453Y007174D01*
X008366Y007075D02*
X008635Y007075D01*
X009074Y007075D02*
X032726Y007075D01*
X032726Y006977D02*
X002319Y006977D01*
X002344Y006967D02*
X002013Y007104D01*
X001655Y007104D01*
X001324Y006967D01*
X001071Y006713D01*
X000934Y006383D01*
X000934Y006025D01*
X001071Y005694D01*
X001324Y005441D01*
X001655Y005304D01*
X002013Y005304D01*
X002344Y005441D01*
X002597Y005694D01*
X002734Y006025D01*
X002734Y006383D01*
X002597Y006713D01*
X002344Y006967D01*
X002432Y006878D02*
X032726Y006878D01*
X032726Y006780D02*
X002531Y006780D01*
X002610Y006681D02*
X032726Y006681D01*
X032726Y006583D02*
X002651Y006583D01*
X002692Y006484D02*
X032726Y006484D01*
X032726Y006386D02*
X002733Y006386D01*
X002734Y006287D02*
X032726Y006287D01*
X032726Y006189D02*
X002734Y006189D01*
X002734Y006090D02*
X032726Y006090D01*
X032726Y005992D02*
X002721Y005992D01*
X002680Y005893D02*
X032726Y005893D01*
X032726Y005795D02*
X002639Y005795D01*
X002598Y005696D02*
X032726Y005696D01*
X032726Y005598D02*
X002501Y005598D01*
X002403Y005499D02*
X032726Y005499D01*
X032726Y005401D02*
X002248Y005401D01*
X002085Y005105D02*
X032726Y005105D01*
X032726Y005007D02*
X002323Y005007D01*
X002344Y004998D02*
X002013Y005135D01*
X001655Y005135D01*
X001324Y004998D01*
X001071Y004745D01*
X000934Y004414D01*
X000934Y004056D01*
X001071Y003725D01*
X001324Y003472D01*
X001655Y003335D01*
X002013Y003335D01*
X002344Y003472D01*
X002597Y003725D01*
X002734Y004056D01*
X002734Y004414D01*
X002597Y004745D01*
X002344Y004998D01*
X002434Y004908D02*
X032726Y004908D01*
X032637Y004810D02*
X031456Y004810D01*
X031572Y004762D02*
X031242Y004899D01*
X030883Y004899D01*
X030553Y004762D01*
X030300Y004509D01*
X030163Y004178D01*
X030163Y003820D01*
X030300Y003489D01*
X030553Y003236D01*
X030883Y003099D01*
X031242Y003099D01*
X031572Y003236D01*
X031826Y003489D01*
X031963Y003820D01*
X031963Y004178D01*
X031826Y004509D01*
X031572Y004762D01*
X031623Y004711D02*
X032471Y004711D01*
X032372Y004613D02*
X031721Y004613D01*
X031820Y004514D02*
X032274Y004514D01*
X032230Y004416D02*
X031864Y004416D01*
X031905Y004317D02*
X032189Y004317D01*
X032148Y004219D02*
X031946Y004219D01*
X031963Y004120D02*
X032131Y004120D01*
X032131Y004022D02*
X031963Y004022D01*
X031963Y003923D02*
X032131Y003923D01*
X032131Y003825D02*
X031963Y003825D01*
X031924Y003726D02*
X032170Y003726D01*
X032211Y003628D02*
X031883Y003628D01*
X031842Y003529D02*
X032251Y003529D01*
X032326Y003431D02*
X031767Y003431D01*
X031669Y003332D02*
X032425Y003332D01*
X032526Y003234D02*
X031567Y003234D01*
X031330Y003135D02*
X032764Y003135D01*
X033298Y003135D02*
X036148Y003135D01*
X036148Y003037D02*
X000776Y003037D01*
X000776Y003135D02*
X005558Y003135D01*
X005458Y003177D02*
X005789Y003040D01*
X006147Y003040D01*
X006478Y003177D01*
X006731Y003430D01*
X006868Y003761D01*
X006868Y004119D01*
X006731Y004450D01*
X006478Y004703D01*
X006147Y004840D01*
X005789Y004840D01*
X005458Y004703D01*
X005205Y004450D01*
X005068Y004119D01*
X005068Y003761D01*
X005205Y003430D01*
X005458Y003177D01*
X005401Y003234D02*
X000776Y003234D01*
X000776Y003332D02*
X005303Y003332D01*
X005205Y003431D02*
X002244Y003431D01*
X002401Y003529D02*
X005164Y003529D01*
X005123Y003628D02*
X002500Y003628D01*
X002598Y003726D02*
X005082Y003726D01*
X005068Y003825D02*
X002638Y003825D01*
X002679Y003923D02*
X005068Y003923D01*
X005068Y004022D02*
X002720Y004022D01*
X002734Y004120D02*
X005069Y004120D01*
X005109Y004219D02*
X002734Y004219D01*
X002734Y004317D02*
X005150Y004317D01*
X005191Y004416D02*
X002733Y004416D01*
X002693Y004514D02*
X005270Y004514D01*
X005368Y004613D02*
X002652Y004613D01*
X002611Y004711D02*
X005479Y004711D01*
X005717Y004810D02*
X002532Y004810D01*
X001583Y005105D02*
X000776Y005105D01*
X000776Y005007D02*
X001346Y005007D01*
X001235Y004908D02*
X000776Y004908D01*
X000776Y004810D02*
X001136Y004810D01*
X001057Y004711D02*
X000776Y004711D01*
X000776Y004613D02*
X001016Y004613D01*
X000976Y004514D02*
X000776Y004514D01*
X000776Y004416D02*
X000935Y004416D01*
X000934Y004317D02*
X000776Y004317D01*
X000776Y004219D02*
X000934Y004219D01*
X000934Y004120D02*
X000776Y004120D01*
X000776Y004022D02*
X000948Y004022D01*
X000989Y003923D02*
X000776Y003923D01*
X000776Y003825D02*
X001030Y003825D01*
X001071Y003726D02*
X000776Y003726D01*
X000776Y003628D02*
X001169Y003628D01*
X001267Y003529D02*
X000776Y003529D01*
X000776Y003431D02*
X001424Y003431D01*
X000776Y002938D02*
X036148Y002938D01*
X036148Y002840D02*
X000776Y002840D01*
X000776Y002741D02*
X001487Y002741D01*
X001222Y002643D02*
X000776Y002643D01*
X000776Y002544D02*
X001057Y002544D01*
X000959Y002446D02*
X000776Y002446D01*
X000776Y002347D02*
X000862Y002347D01*
X000805Y002249D02*
X000776Y002249D01*
X001969Y002741D02*
X034987Y002741D01*
X034722Y002643D02*
X002234Y002643D01*
X002399Y002544D02*
X034557Y002544D01*
X034459Y002446D02*
X002497Y002446D01*
X002594Y002347D02*
X034362Y002347D01*
X034305Y002249D02*
X002651Y002249D01*
X002708Y002150D02*
X034248Y002150D01*
X034207Y002052D02*
X002748Y002052D01*
X002775Y001953D02*
X034181Y001953D01*
X034155Y001855D02*
X002801Y001855D01*
X002808Y001756D02*
X034148Y001756D01*
X034148Y001658D02*
X002808Y001658D01*
X002808Y001559D02*
X034148Y001559D01*
X034171Y001461D02*
X002785Y001461D01*
X002759Y001362D02*
X034197Y001362D01*
X034226Y001264D02*
X002730Y001264D01*
X002673Y001165D02*
X034283Y001165D01*
X034339Y001067D02*
X002616Y001067D01*
X002536Y000968D02*
X034420Y000968D01*
X034519Y000870D02*
X002437Y000870D01*
X002300Y000771D02*
X034655Y000771D01*
X034843Y000673D02*
X002112Y000673D01*
X006378Y003135D02*
X007527Y003135D01*
X007427Y003177D02*
X007174Y003430D01*
X007037Y003761D01*
X007037Y004119D01*
X007174Y004450D01*
X007427Y004703D01*
X007758Y004840D01*
X008116Y004840D01*
X008446Y004703D01*
X008700Y004450D01*
X008837Y004119D01*
X008837Y003761D01*
X008700Y003430D01*
X008446Y003177D01*
X008116Y003040D01*
X007758Y003040D01*
X007427Y003177D01*
X007370Y003234D02*
X006535Y003234D01*
X006633Y003332D02*
X007271Y003332D01*
X007173Y003431D02*
X006731Y003431D01*
X006772Y003529D02*
X007132Y003529D01*
X007092Y003628D02*
X006813Y003628D01*
X006854Y003726D02*
X007051Y003726D01*
X007037Y003825D02*
X006868Y003825D01*
X006868Y003923D02*
X007037Y003923D01*
X007037Y004022D02*
X006868Y004022D01*
X006867Y004120D02*
X007037Y004120D01*
X007078Y004219D02*
X006827Y004219D01*
X006786Y004317D02*
X007119Y004317D01*
X007160Y004416D02*
X006745Y004416D01*
X006666Y004514D02*
X007238Y004514D01*
X007337Y004613D02*
X006568Y004613D01*
X006457Y004711D02*
X007447Y004711D01*
X007685Y004810D02*
X006219Y004810D01*
X008188Y004810D02*
X009654Y004810D01*
X009726Y004840D02*
X009395Y004703D01*
X009142Y004450D01*
X009005Y004119D01*
X009005Y003761D01*
X009142Y003430D01*
X009395Y003177D01*
X009726Y003040D01*
X010084Y003040D01*
X010415Y003177D01*
X010668Y003430D01*
X010805Y003761D01*
X010805Y004119D01*
X010668Y004450D01*
X010415Y004703D01*
X010084Y004840D01*
X009726Y004840D01*
X009416Y004711D02*
X008426Y004711D01*
X008536Y004613D02*
X009305Y004613D01*
X009207Y004514D02*
X008635Y004514D01*
X008714Y004416D02*
X009128Y004416D01*
X009087Y004317D02*
X008754Y004317D01*
X008795Y004219D02*
X009046Y004219D01*
X009006Y004120D02*
X008836Y004120D01*
X008837Y004022D02*
X009005Y004022D01*
X009005Y003923D02*
X008837Y003923D01*
X008837Y003825D02*
X009005Y003825D01*
X009019Y003726D02*
X008822Y003726D01*
X008781Y003628D02*
X009060Y003628D01*
X009101Y003529D02*
X008741Y003529D01*
X008700Y003431D02*
X009142Y003431D01*
X009240Y003332D02*
X008602Y003332D01*
X008503Y003234D02*
X009338Y003234D01*
X009495Y003135D02*
X008346Y003135D01*
X010315Y003135D02*
X011464Y003135D01*
X011364Y003177D02*
X011695Y003040D01*
X012053Y003040D01*
X012383Y003177D01*
X012637Y003430D01*
X012774Y003761D01*
X012774Y004119D01*
X012637Y004450D01*
X012383Y004703D01*
X012053Y004840D01*
X011695Y004840D01*
X011364Y004703D01*
X011111Y004450D01*
X010974Y004119D01*
X010974Y003761D01*
X011111Y003430D01*
X011364Y003177D01*
X011307Y003234D02*
X010472Y003234D01*
X010570Y003332D02*
X011208Y003332D01*
X011110Y003431D02*
X010668Y003431D01*
X010709Y003529D02*
X011069Y003529D01*
X011029Y003628D02*
X010750Y003628D01*
X010791Y003726D02*
X010988Y003726D01*
X010974Y003825D02*
X010805Y003825D01*
X010805Y003923D02*
X010974Y003923D01*
X010974Y004022D02*
X010805Y004022D01*
X010804Y004120D02*
X010974Y004120D01*
X011015Y004219D02*
X010764Y004219D01*
X010723Y004317D02*
X011056Y004317D01*
X011097Y004416D02*
X010682Y004416D01*
X010603Y004514D02*
X011175Y004514D01*
X011274Y004613D02*
X010505Y004613D01*
X010394Y004711D02*
X011384Y004711D01*
X011622Y004810D02*
X010156Y004810D01*
X012125Y004810D02*
X016113Y004810D01*
X015998Y004762D02*
X015744Y004509D01*
X015607Y004178D01*
X015607Y003820D01*
X015744Y003489D01*
X015998Y003236D01*
X016328Y003099D01*
X016686Y003099D01*
X017017Y003236D01*
X017270Y003489D01*
X017407Y003820D01*
X017407Y004178D01*
X017270Y004509D01*
X017017Y004762D01*
X016686Y004899D01*
X016328Y004899D01*
X015998Y004762D01*
X015947Y004711D02*
X012363Y004711D01*
X012473Y004613D02*
X015849Y004613D01*
X015750Y004514D02*
X012572Y004514D01*
X012651Y004416D02*
X015706Y004416D01*
X015665Y004317D02*
X012691Y004317D01*
X012732Y004219D02*
X015624Y004219D01*
X015607Y004120D02*
X012773Y004120D01*
X012774Y004022D02*
X015607Y004022D01*
X015607Y003923D02*
X012774Y003923D01*
X012774Y003825D02*
X015607Y003825D01*
X015646Y003726D02*
X012759Y003726D01*
X012718Y003628D02*
X015687Y003628D01*
X015728Y003529D02*
X012678Y003529D01*
X012637Y003431D02*
X015803Y003431D01*
X015901Y003332D02*
X012539Y003332D01*
X012440Y003234D02*
X016002Y003234D01*
X016240Y003135D02*
X012283Y003135D01*
X016775Y003135D02*
X018209Y003135D01*
X018297Y003099D02*
X018655Y003099D01*
X018986Y003236D01*
X019239Y003489D01*
X019376Y003820D01*
X019376Y004178D01*
X019239Y004509D01*
X018986Y004762D01*
X018655Y004899D01*
X018297Y004899D01*
X017966Y004762D01*
X017713Y004509D01*
X017576Y004178D01*
X017576Y003820D01*
X017713Y003489D01*
X017966Y003236D01*
X018297Y003099D01*
X017971Y003234D02*
X017012Y003234D01*
X017114Y003332D02*
X017870Y003332D01*
X017771Y003431D02*
X017212Y003431D01*
X017287Y003529D02*
X017696Y003529D01*
X017655Y003628D02*
X017328Y003628D01*
X017369Y003726D02*
X017615Y003726D01*
X017576Y003825D02*
X017407Y003825D01*
X017407Y003923D02*
X017576Y003923D01*
X017576Y004022D02*
X017407Y004022D01*
X017407Y004120D02*
X017576Y004120D01*
X017593Y004219D02*
X017390Y004219D01*
X017350Y004317D02*
X017634Y004317D01*
X017674Y004416D02*
X017309Y004416D01*
X017265Y004514D02*
X017719Y004514D01*
X017817Y004613D02*
X017166Y004613D01*
X017068Y004711D02*
X017916Y004711D01*
X018082Y004810D02*
X016901Y004810D01*
X018870Y004810D02*
X020050Y004810D01*
X019935Y004762D02*
X019681Y004509D01*
X019544Y004178D01*
X019544Y003820D01*
X019681Y003489D01*
X019935Y003236D01*
X020265Y003099D01*
X020623Y003099D01*
X020954Y003236D01*
X021207Y003489D01*
X021344Y003820D01*
X021344Y004178D01*
X021207Y004509D01*
X020954Y004762D01*
X020623Y004899D01*
X020265Y004899D01*
X019935Y004762D01*
X019884Y004711D02*
X019036Y004711D01*
X019135Y004613D02*
X019786Y004613D01*
X019687Y004514D02*
X019233Y004514D01*
X019277Y004416D02*
X019643Y004416D01*
X019602Y004317D02*
X019318Y004317D01*
X019359Y004219D02*
X019561Y004219D01*
X019544Y004120D02*
X019376Y004120D01*
X019376Y004022D02*
X019544Y004022D01*
X019544Y003923D02*
X019376Y003923D01*
X019376Y003825D02*
X019544Y003825D01*
X019583Y003726D02*
X019337Y003726D01*
X019296Y003628D02*
X019624Y003628D01*
X019665Y003529D02*
X019256Y003529D01*
X019181Y003431D02*
X019740Y003431D01*
X019838Y003332D02*
X019082Y003332D01*
X018981Y003234D02*
X019940Y003234D01*
X020177Y003135D02*
X018743Y003135D01*
X020712Y003135D02*
X022146Y003135D01*
X022234Y003099D02*
X022592Y003099D01*
X022923Y003236D01*
X023176Y003489D01*
X023313Y003820D01*
X023313Y004178D01*
X023176Y004509D01*
X022923Y004762D01*
X022592Y004899D01*
X022234Y004899D01*
X021903Y004762D01*
X021650Y004509D01*
X021513Y004178D01*
X021513Y003820D01*
X021650Y003489D01*
X021903Y003236D01*
X022234Y003099D01*
X021908Y003234D02*
X020949Y003234D01*
X021051Y003332D02*
X021807Y003332D01*
X021708Y003431D02*
X021149Y003431D01*
X021224Y003529D02*
X021633Y003529D01*
X021592Y003628D02*
X021265Y003628D01*
X021306Y003726D02*
X021552Y003726D01*
X021513Y003825D02*
X021344Y003825D01*
X021344Y003923D02*
X021513Y003923D01*
X021513Y004022D02*
X021344Y004022D01*
X021344Y004120D02*
X021513Y004120D01*
X021530Y004219D02*
X021327Y004219D01*
X021287Y004317D02*
X021571Y004317D01*
X021611Y004416D02*
X021246Y004416D01*
X021202Y004514D02*
X021656Y004514D01*
X021754Y004613D02*
X021103Y004613D01*
X021005Y004711D02*
X021853Y004711D01*
X022019Y004810D02*
X020838Y004810D01*
X022807Y004810D02*
X026732Y004810D01*
X026616Y004762D02*
X026363Y004509D01*
X026226Y004178D01*
X026226Y003820D01*
X026363Y003489D01*
X026616Y003236D01*
X026946Y003099D01*
X027305Y003099D01*
X027635Y003236D01*
X027888Y003489D01*
X028026Y003820D01*
X028026Y004178D01*
X027888Y004509D01*
X027635Y004762D01*
X027305Y004899D01*
X026946Y004899D01*
X026616Y004762D01*
X026565Y004711D02*
X022973Y004711D01*
X023072Y004613D02*
X026467Y004613D01*
X026368Y004514D02*
X023170Y004514D01*
X023214Y004416D02*
X026324Y004416D01*
X026283Y004317D02*
X023255Y004317D01*
X023296Y004219D02*
X026242Y004219D01*
X026226Y004120D02*
X023313Y004120D01*
X023313Y004022D02*
X026226Y004022D01*
X026226Y003923D02*
X023313Y003923D01*
X023313Y003825D02*
X026226Y003825D01*
X026264Y003726D02*
X023274Y003726D01*
X023233Y003628D02*
X026305Y003628D01*
X026346Y003529D02*
X023193Y003529D01*
X023118Y003431D02*
X026421Y003431D01*
X026519Y003332D02*
X023019Y003332D01*
X022918Y003234D02*
X026621Y003234D01*
X026858Y003135D02*
X022680Y003135D01*
X027393Y003135D02*
X028827Y003135D01*
X028915Y003099D02*
X029273Y003099D01*
X029604Y003236D01*
X029857Y003489D01*
X029994Y003820D01*
X029994Y004178D01*
X029857Y004509D01*
X029604Y004762D01*
X029273Y004899D01*
X028915Y004899D01*
X028584Y004762D01*
X028331Y004509D01*
X028194Y004178D01*
X028194Y003820D01*
X028331Y003489D01*
X028584Y003236D01*
X028915Y003099D01*
X028589Y003234D02*
X027630Y003234D01*
X027732Y003332D02*
X028488Y003332D01*
X028389Y003431D02*
X027830Y003431D01*
X027905Y003529D02*
X028314Y003529D01*
X028274Y003628D02*
X027946Y003628D01*
X027987Y003726D02*
X028233Y003726D01*
X028194Y003825D02*
X028026Y003825D01*
X028026Y003923D02*
X028194Y003923D01*
X028194Y004022D02*
X028026Y004022D01*
X028026Y004120D02*
X028194Y004120D01*
X028211Y004219D02*
X028009Y004219D01*
X027968Y004317D02*
X028252Y004317D01*
X028293Y004416D02*
X027927Y004416D01*
X027883Y004514D02*
X028337Y004514D01*
X028435Y004613D02*
X027784Y004613D01*
X027686Y004711D02*
X028534Y004711D01*
X028700Y004810D02*
X027519Y004810D01*
X029488Y004810D02*
X030669Y004810D01*
X030502Y004711D02*
X029654Y004711D01*
X029753Y004613D02*
X030404Y004613D01*
X030305Y004514D02*
X029851Y004514D01*
X029895Y004416D02*
X030261Y004416D01*
X030220Y004317D02*
X029936Y004317D01*
X029977Y004219D02*
X030179Y004219D01*
X030163Y004120D02*
X029994Y004120D01*
X029994Y004022D02*
X030163Y004022D01*
X030163Y003923D02*
X029994Y003923D01*
X029994Y003825D02*
X030163Y003825D01*
X030201Y003726D02*
X029955Y003726D01*
X029914Y003628D02*
X030242Y003628D01*
X030283Y003529D02*
X029874Y003529D01*
X029799Y003431D02*
X030358Y003431D01*
X030456Y003332D02*
X029700Y003332D01*
X029599Y003234D02*
X030558Y003234D01*
X030795Y003135D02*
X029361Y003135D01*
X032726Y005204D02*
X000776Y005204D01*
X000776Y005302D02*
X032726Y005302D01*
X033266Y005302D02*
X036148Y005302D01*
X036148Y005204D02*
X033266Y005204D01*
X033266Y005105D02*
X036148Y005105D01*
X036148Y005007D02*
X033266Y005007D01*
X033266Y004908D02*
X036148Y004908D01*
X036148Y004810D02*
X033425Y004810D01*
X033591Y004711D02*
X036148Y004711D01*
X036148Y004613D02*
X033690Y004613D01*
X033788Y004514D02*
X036148Y004514D01*
X036148Y004416D02*
X033832Y004416D01*
X033873Y004317D02*
X036148Y004317D01*
X036148Y004219D02*
X033914Y004219D01*
X033931Y004120D02*
X036148Y004120D01*
X036148Y004022D02*
X033931Y004022D01*
X033931Y003923D02*
X036148Y003923D01*
X036148Y003825D02*
X033931Y003825D01*
X033892Y003726D02*
X036148Y003726D01*
X036148Y003628D02*
X033851Y003628D01*
X033811Y003529D02*
X036148Y003529D01*
X036148Y003431D02*
X033736Y003431D01*
X033637Y003332D02*
X036148Y003332D01*
X036148Y003234D02*
X033536Y003234D01*
X035469Y002741D02*
X036148Y002741D01*
X036148Y002643D02*
X035734Y002643D01*
X035899Y002544D02*
X036148Y002544D01*
X036148Y002446D02*
X035997Y002446D01*
X036094Y002347D02*
X036148Y002347D01*
X036148Y005401D02*
X033266Y005401D01*
X033266Y005499D02*
X036148Y005499D01*
X036148Y005598D02*
X033266Y005598D01*
X033266Y005696D02*
X036148Y005696D01*
X036148Y005795D02*
X033266Y005795D01*
X033266Y005893D02*
X036148Y005893D01*
X036148Y005992D02*
X033266Y005992D01*
X033266Y006090D02*
X036148Y006090D01*
X036148Y006189D02*
X033266Y006189D01*
X033266Y006287D02*
X036148Y006287D01*
X036148Y006386D02*
X033266Y006386D01*
X033266Y006484D02*
X036148Y006484D01*
X036148Y006583D02*
X033266Y006583D01*
X033266Y006681D02*
X036148Y006681D01*
X036148Y006780D02*
X033266Y006780D01*
X033266Y006878D02*
X036148Y006878D01*
X036148Y006977D02*
X033266Y006977D01*
X033266Y007075D02*
X036148Y007075D01*
X036148Y007174D02*
X033266Y007174D01*
X033266Y007272D02*
X036148Y007272D01*
X036148Y007371D02*
X033266Y007371D01*
X033266Y007469D02*
X036148Y007469D01*
X036148Y007568D02*
X033266Y007568D01*
X033266Y007666D02*
X036148Y007666D01*
X036148Y007765D02*
X033266Y007765D01*
X033266Y007863D02*
X036148Y007863D01*
X036148Y007962D02*
X033266Y007962D01*
X033266Y008060D02*
X036148Y008060D01*
X036148Y008159D02*
X033266Y008159D01*
X033266Y008257D02*
X036148Y008257D01*
X036148Y008356D02*
X033266Y008356D01*
X033266Y008454D02*
X036148Y008454D01*
X036148Y008553D02*
X033266Y008553D01*
X033266Y008651D02*
X036148Y008651D01*
X036148Y008750D02*
X033266Y008750D01*
X033266Y008848D02*
X036148Y008848D01*
X036148Y008947D02*
X033266Y008947D01*
X033266Y009045D02*
X036148Y009045D01*
X036148Y009144D02*
X033266Y009144D01*
X033266Y009242D02*
X036148Y009242D01*
X036148Y009341D02*
X033266Y009341D01*
X033266Y009439D02*
X036148Y009439D01*
X036148Y009538D02*
X033266Y009538D01*
X033266Y009636D02*
X036148Y009636D01*
X036148Y009735D02*
X033266Y009735D01*
X033266Y009833D02*
X036148Y009833D01*
X036148Y009932D02*
X033266Y009932D01*
X033266Y010030D02*
X036148Y010030D01*
X036148Y010129D02*
X033266Y010129D01*
X033266Y010227D02*
X036148Y010227D01*
X036148Y010326D02*
X033266Y010326D01*
X033244Y010424D02*
X036148Y010424D01*
X036148Y010523D02*
X033172Y010523D01*
X033074Y010621D02*
X036148Y010621D01*
X036148Y010720D02*
X032975Y010720D01*
X032877Y010818D02*
X036148Y010818D01*
X036148Y010917D02*
X032861Y010917D01*
X032861Y011015D02*
X036148Y011015D01*
X036148Y011114D02*
X032861Y011114D01*
X032861Y011212D02*
X033907Y011212D01*
X033751Y011311D02*
X032861Y011311D01*
X032861Y011409D02*
X033667Y011409D01*
X033616Y011508D02*
X032852Y011508D01*
X035037Y011212D02*
X036148Y011212D01*
X036148Y011311D02*
X035193Y011311D01*
X035277Y011409D02*
X036148Y011409D01*
X036148Y011508D02*
X035328Y011508D01*
X035354Y011606D02*
X036148Y011606D01*
X029144Y021062D02*
X023068Y021062D01*
X023127Y021161D02*
X029085Y021161D01*
X029009Y021259D02*
X023202Y021259D01*
X023243Y021358D02*
X028968Y021358D01*
X028966Y021456D02*
X023245Y021456D01*
X023230Y021555D02*
X028982Y021555D01*
X029023Y021653D02*
X023189Y021653D01*
X023094Y021752D02*
X029118Y021752D01*
X029041Y023985D02*
X028683Y023985D01*
X028352Y024122D01*
X028099Y024375D01*
X027962Y024706D01*
X027962Y025064D01*
X028099Y025395D01*
X028352Y025648D01*
X028683Y025785D01*
X029041Y025785D01*
X029372Y025648D01*
X029625Y025395D01*
X029762Y025064D01*
X029762Y024706D01*
X029625Y024375D01*
X029372Y024122D01*
X029041Y023985D01*
X029120Y024017D02*
X030572Y024017D01*
X030334Y024116D02*
X029358Y024116D01*
X029464Y024214D02*
X030228Y024214D01*
X030129Y024313D02*
X029563Y024313D01*
X029640Y024411D02*
X030052Y024411D01*
X030011Y024510D02*
X029681Y024510D01*
X029721Y024608D02*
X029971Y024608D01*
X029930Y024707D02*
X029762Y024707D01*
X029762Y024805D02*
X029930Y024805D01*
X029930Y024904D02*
X029762Y024904D01*
X029762Y025002D02*
X029930Y025002D01*
X029946Y025101D02*
X029746Y025101D01*
X029706Y025199D02*
X029986Y025199D01*
X030027Y025298D02*
X029665Y025298D01*
X029623Y025396D02*
X030069Y025396D01*
X030168Y025495D02*
X029524Y025495D01*
X029426Y025593D02*
X030266Y025593D01*
X030427Y025692D02*
X029265Y025692D01*
X028459Y025692D02*
X027296Y025692D01*
X027457Y025593D02*
X028298Y025593D01*
X028199Y025495D02*
X027556Y025495D01*
X027654Y025396D02*
X028101Y025396D01*
X028059Y025298D02*
X027696Y025298D01*
X027737Y025199D02*
X028018Y025199D01*
X027977Y025101D02*
X027778Y025101D01*
X027793Y025002D02*
X027962Y025002D01*
X027962Y024904D02*
X027793Y024904D01*
X027793Y024805D02*
X027962Y024805D01*
X027962Y024707D02*
X027793Y024707D01*
X027753Y024608D02*
X028002Y024608D01*
X028043Y024510D02*
X027712Y024510D01*
X027671Y024411D02*
X028084Y024411D01*
X028161Y024313D02*
X027594Y024313D01*
X027496Y024214D02*
X028259Y024214D01*
X028366Y024116D02*
X027389Y024116D01*
X027151Y024017D02*
X028604Y024017D01*
X033363Y025593D02*
X036148Y025593D01*
X036148Y025495D02*
X033461Y025495D01*
X033560Y025396D02*
X036148Y025396D01*
X036148Y025298D02*
X033602Y025298D01*
X033643Y025199D02*
X036148Y025199D01*
X036148Y025101D02*
X033683Y025101D01*
X033699Y025002D02*
X036148Y025002D01*
X036148Y024904D02*
X033699Y024904D01*
X033699Y024805D02*
X036148Y024805D01*
X036148Y024707D02*
X033699Y024707D01*
X033658Y024608D02*
X036148Y024608D01*
X036148Y024510D02*
X033618Y024510D01*
X035651Y026283D02*
X036148Y026283D01*
X036148Y026381D02*
X035822Y026381D01*
X035921Y026480D02*
X036148Y026480D01*
X036148Y026578D02*
X036020Y026578D01*
X036079Y026677D02*
X036148Y026677D01*
X036136Y026775D02*
X036148Y026775D01*
X019150Y008257D02*
X017534Y008257D01*
X017423Y008159D02*
X019067Y008159D01*
X019038Y008060D02*
X017313Y008060D01*
X017326Y007962D02*
X018316Y007962D01*
X018329Y007975D02*
X018241Y007888D01*
X018241Y007805D01*
X018156Y007890D01*
X018014Y007949D01*
X017859Y007949D01*
X017717Y007890D01*
X017608Y007781D01*
X017549Y007639D01*
X017549Y007485D01*
X017608Y007342D01*
X017717Y007233D01*
X017859Y007174D01*
X018014Y007174D01*
X018156Y007233D01*
X018241Y007319D01*
X018241Y007291D01*
X018329Y007203D01*
X018768Y007203D01*
X018856Y007291D01*
X018856Y007888D01*
X018768Y007975D01*
X018329Y007975D01*
X018241Y007863D02*
X018183Y007863D01*
X018782Y007962D02*
X019024Y007962D01*
X018950Y007863D02*
X018856Y007863D01*
X018856Y007765D02*
X018950Y007765D01*
X018950Y007666D02*
X018856Y007666D01*
X018856Y007568D02*
X018950Y007568D01*
X018950Y007469D02*
X018856Y007469D01*
X018856Y007371D02*
X018950Y007371D01*
X018969Y007272D02*
X018838Y007272D01*
X018260Y007272D02*
X018195Y007272D01*
X017678Y007272D02*
X017381Y007272D01*
X017400Y007371D02*
X017596Y007371D01*
X017555Y007469D02*
X017400Y007469D01*
X017400Y007568D02*
X017549Y007568D01*
X017560Y007666D02*
X017400Y007666D01*
X017400Y007765D02*
X017601Y007765D01*
X017690Y007863D02*
X017400Y007863D01*
X016859Y007962D02*
X016617Y007962D01*
X016691Y007863D02*
X016785Y007863D01*
X016785Y007765D02*
X016691Y007765D01*
X016691Y007666D02*
X016785Y007666D01*
X016785Y007568D02*
X016691Y007568D01*
X016691Y007469D02*
X016785Y007469D01*
X016785Y007371D02*
X016691Y007371D01*
X016673Y007272D02*
X016803Y007272D01*
X016095Y007272D02*
X016030Y007272D01*
X016885Y008078D02*
X016890Y008073D01*
X016885Y008078D02*
X016890Y008159D01*
X019491Y007962D02*
X020481Y007962D01*
X020407Y007863D02*
X020348Y007863D01*
X019855Y007863D02*
X019565Y007863D01*
X019565Y007765D02*
X019767Y007765D01*
X019726Y007666D02*
X019565Y007666D01*
X019565Y007568D02*
X019714Y007568D01*
X019721Y007469D02*
X019565Y007469D01*
X019565Y007371D02*
X019762Y007371D01*
X019843Y007272D02*
X019546Y007272D01*
X020360Y007272D02*
X020424Y007272D01*
X021655Y007962D02*
X021796Y007962D01*
X012209Y007707D02*
X012209Y007707D01*
X010800Y007863D02*
X010565Y007863D01*
X010548Y007881D02*
X010109Y007881D01*
X010021Y007793D01*
X010021Y007691D01*
X009991Y007689D01*
X009888Y007792D01*
X009746Y007851D01*
X009592Y007851D01*
X009449Y007792D01*
X009340Y007683D01*
X009281Y007541D01*
X009281Y007386D01*
X009340Y007244D01*
X009449Y007135D01*
X009592Y007076D01*
X009746Y007076D01*
X009888Y007135D01*
X009997Y007244D01*
X010008Y007270D01*
X010021Y007270D01*
X010021Y007196D01*
X010109Y007108D01*
X010548Y007108D01*
X010636Y007196D01*
X010636Y007793D01*
X010548Y007881D01*
X010636Y007765D02*
X010729Y007765D01*
X010729Y007666D02*
X010636Y007666D01*
X010636Y007568D02*
X010729Y007568D01*
X010729Y007469D02*
X010636Y007469D01*
X010636Y007371D02*
X010729Y007371D01*
X010729Y007272D02*
X010636Y007272D01*
X010614Y007174D02*
X010752Y007174D01*
X010043Y007174D02*
X009927Y007174D01*
X009410Y007174D02*
X009162Y007174D01*
X009162Y007272D02*
X009329Y007272D01*
X009288Y007371D02*
X009162Y007371D01*
X009162Y007469D02*
X009281Y007469D01*
X009293Y007568D02*
X009162Y007568D01*
X009162Y007666D02*
X009333Y007666D01*
X009422Y007765D02*
X009157Y007765D01*
X009092Y007863D02*
X010091Y007863D01*
X010021Y007765D02*
X009915Y007765D01*
X010271Y008362D02*
X010271Y008362D01*
X010543Y008435D02*
X010543Y008435D01*
X008712Y008947D02*
X008649Y008947D01*
X008658Y009045D02*
X008712Y009045D01*
X008712Y009144D02*
X008658Y009144D01*
X008658Y009932D02*
X008712Y009932D01*
X008712Y010030D02*
X008658Y010030D01*
X008649Y010129D02*
X008712Y010129D01*
X008712Y010227D02*
X008658Y010227D01*
X008658Y010326D02*
X008712Y010326D01*
X008322Y010523D02*
X008222Y010523D01*
X008222Y010621D02*
X008322Y010621D01*
X008322Y010720D02*
X008222Y010720D01*
X007901Y010720D02*
X002524Y010720D01*
X002596Y010621D02*
X007885Y010621D01*
X007885Y010523D02*
X002650Y010523D01*
X001419Y009341D02*
X000776Y009341D01*
X000776Y009439D02*
X001270Y009439D01*
X001164Y009538D02*
X000776Y009538D01*
X000776Y009636D02*
X001087Y009636D01*
X001029Y009735D02*
X000776Y009735D01*
X000776Y009833D02*
X000987Y009833D01*
X000958Y009932D02*
X000776Y009932D01*
X000776Y010030D02*
X000941Y010030D01*
X000776Y011114D02*
X010320Y011114D01*
X010320Y011212D02*
X000776Y011212D01*
X000776Y011311D02*
X010320Y011311D01*
X010320Y011409D02*
X000776Y011409D01*
X000776Y011508D02*
X008622Y011508D01*
X008548Y011606D02*
X000776Y011606D01*
X000776Y011705D02*
X008548Y011705D01*
X008548Y011803D02*
X000776Y011803D01*
X002431Y008848D02*
X007017Y008848D01*
X006915Y008750D02*
X002525Y008750D01*
X002597Y008651D02*
X006859Y008651D01*
X006791Y008553D02*
X002651Y008553D01*
X002690Y008454D02*
X006723Y008454D01*
X006655Y008356D02*
X002717Y008356D01*
X002731Y008257D02*
X006587Y008257D01*
X006519Y008159D02*
X001884Y008159D01*
X001884Y008060D02*
X001784Y008060D01*
X001784Y007962D02*
X001884Y007962D01*
X001884Y007863D02*
X001784Y007863D01*
X001784Y007765D02*
X001884Y007765D01*
X001884Y007666D02*
X001784Y007666D01*
X001784Y007568D02*
X001884Y007568D01*
X001884Y007469D02*
X001784Y007469D01*
X001784Y007371D02*
X001884Y007371D01*
X001884Y007272D02*
X001784Y007272D01*
X001773Y007272D02*
X000776Y007272D01*
X000776Y007174D02*
X005080Y007174D01*
X005119Y007135D02*
X005261Y007076D01*
X005415Y007076D01*
X005558Y007135D01*
X005605Y007183D01*
X005680Y007108D01*
X006119Y007108D01*
X006207Y007196D01*
X006207Y007793D01*
X006119Y007881D01*
X005680Y007881D01*
X005592Y007793D01*
X005592Y007758D01*
X005558Y007792D01*
X005415Y007851D01*
X005261Y007851D01*
X005119Y007792D01*
X005010Y007683D01*
X004951Y007541D01*
X004951Y007386D01*
X005010Y007244D01*
X005119Y007135D01*
X004998Y007272D02*
X001895Y007272D01*
X002081Y007075D02*
X007926Y007075D01*
X007838Y007174D02*
X007762Y007174D01*
X007245Y007174D02*
X006893Y007174D01*
X006915Y007272D02*
X007163Y007272D01*
X007122Y007371D02*
X006915Y007371D01*
X006915Y007469D02*
X007116Y007469D01*
X007127Y007568D02*
X006915Y007568D01*
X006915Y007666D02*
X007168Y007666D01*
X007257Y007765D02*
X006915Y007765D01*
X006400Y007962D02*
X002710Y007962D01*
X002727Y008060D02*
X006448Y008060D01*
X006371Y007863D02*
X006136Y007863D01*
X006207Y007765D02*
X006300Y007765D01*
X006300Y007666D02*
X006207Y007666D01*
X006207Y007568D02*
X006300Y007568D01*
X006300Y007469D02*
X006207Y007469D01*
X006207Y007371D02*
X006300Y007371D01*
X006300Y007272D02*
X006207Y007272D01*
X006184Y007174D02*
X006323Y007174D01*
X005614Y007174D02*
X005597Y007174D01*
X005585Y007765D02*
X005592Y007765D01*
X005662Y007863D02*
X002680Y007863D01*
X002638Y007765D02*
X005092Y007765D01*
X005003Y007666D02*
X002581Y007666D01*
X002503Y007568D02*
X004962Y007568D01*
X004951Y007469D02*
X002397Y007469D01*
X002246Y007371D02*
X004957Y007371D01*
X007750Y007765D02*
X007844Y007765D01*
X010282Y010621D02*
X010320Y010621D01*
X010320Y011508D02*
X009247Y011508D01*
X008963Y012296D02*
X008906Y012296D01*
X008906Y012394D02*
X008963Y012394D01*
X008963Y012591D02*
X008906Y012591D01*
X008906Y012690D02*
X008963Y012690D01*
X008963Y012788D02*
X008906Y012788D01*
X009261Y012788D02*
X010330Y012788D01*
X010320Y012690D02*
X009320Y012690D01*
X011369Y012788D02*
X012030Y012788D01*
X011931Y012690D02*
X011380Y012690D01*
X011380Y012591D02*
X011833Y012591D01*
X011734Y012493D02*
X011380Y012493D01*
X011380Y012394D02*
X011636Y012394D01*
X011537Y012296D02*
X011380Y012296D01*
X011380Y012197D02*
X011439Y012197D01*
X011419Y010621D02*
X011380Y010621D01*
X004521Y014758D02*
X003117Y014758D01*
X003019Y014857D02*
X004498Y014857D01*
X004498Y014955D02*
X002928Y014955D01*
X003026Y015054D02*
X004498Y015054D01*
X004436Y015152D02*
X003125Y015152D01*
X000941Y008060D02*
X000776Y008060D01*
X000776Y007962D02*
X000959Y007962D01*
X000988Y007863D02*
X000776Y007863D01*
X000776Y007765D02*
X001030Y007765D01*
X001088Y007666D02*
X000776Y007666D01*
X000776Y007568D02*
X001166Y007568D01*
X001272Y007469D02*
X000776Y007469D01*
X000776Y007371D02*
X001422Y007371D01*
X001587Y007075D02*
X000776Y007075D01*
X000776Y006977D02*
X001349Y006977D01*
X001236Y006878D02*
X000776Y006878D01*
X000776Y006780D02*
X001138Y006780D01*
X001058Y006681D02*
X000776Y006681D01*
X000776Y006583D02*
X001017Y006583D01*
X000976Y006484D02*
X000776Y006484D01*
X000776Y006386D02*
X000936Y006386D01*
X000934Y006287D02*
X000776Y006287D01*
X000776Y006189D02*
X000934Y006189D01*
X000934Y006090D02*
X000776Y006090D01*
X000776Y005992D02*
X000948Y005992D01*
X000989Y005893D02*
X000776Y005893D01*
X000776Y005795D02*
X001029Y005795D01*
X001070Y005696D02*
X000776Y005696D01*
X000776Y005598D02*
X001167Y005598D01*
X001266Y005499D02*
X000776Y005499D01*
X000776Y005401D02*
X001420Y005401D01*
D28*
X009098Y009236D02*
X012465Y009236D01*
X012465Y009826D02*
X012465Y009826D01*
X009098Y009826D01*
X009098Y010417D02*
X010161Y010417D01*
X010358Y010220D01*
X011343Y010220D01*
X011539Y010417D01*
X012465Y010417D01*
X013114Y010476D02*
X013114Y011106D01*
X014177Y012168D01*
X014803Y012168D01*
X014803Y011853D02*
X014803Y011022D01*
X013607Y009826D01*
X013173Y009826D01*
X013173Y009236D02*
X013607Y009236D01*
X014591Y010220D01*
X014591Y010224D01*
X015511Y011145D01*
X013173Y010417D02*
X013114Y010476D01*
X011233Y011666D02*
X012993Y013426D01*
X014801Y013426D01*
X014803Y013428D01*
X014803Y013743D02*
X013035Y013743D01*
X013015Y013763D01*
X012917Y013763D01*
X011244Y015436D01*
X010880Y015436D01*
X010850Y015466D01*
X008975Y015466D01*
X008942Y015433D01*
X008935Y011801D02*
X010715Y011801D01*
X010850Y011666D01*
X011233Y011666D01*
X020944Y014373D02*
X022110Y014373D01*
X022169Y014314D01*
X023192Y014314D01*
X023350Y014156D01*
X026480Y015042D02*
X027070Y014452D01*
X027189Y014452D01*
X026480Y015042D02*
X033783Y015042D01*
X034472Y014353D01*
X034472Y012696D01*
X035850Y014074D01*
X035850Y018487D01*
X035358Y018979D01*
X030889Y018881D01*
X030929Y018940D01*
X030929Y018389D01*
X030683Y018143D01*
X030284Y018143D01*
D29*
X028862Y019570D02*
X032307Y019570D01*
X032799Y020062D01*
X032799Y020613D01*
X032838Y020652D01*
X033488Y020711D02*
X033547Y020652D01*
X033488Y020711D02*
X033488Y021440D01*
X031421Y021440D02*
X031421Y020711D01*
X031480Y020652D01*
X030771Y020652D02*
X030770Y020651D01*
X030770Y020236D01*
X030399Y019865D01*
X028763Y019865D01*
X027976Y019078D01*
X023448Y019078D01*
X022858Y018487D01*
X019413Y018487D01*
X018976Y018050D01*
X018976Y017286D01*
X019291Y017286D02*
X019291Y017971D01*
X019511Y018192D01*
X022956Y018192D01*
X023547Y018782D01*
X028074Y018782D01*
X028862Y019570D01*
X028600Y020109D02*
X028600Y020646D01*
X028606Y020652D01*
X028600Y020109D02*
X027864Y019373D01*
X023350Y019373D01*
X022759Y018782D01*
X019314Y018782D01*
X018661Y018129D01*
X018661Y017286D01*
X018346Y017286D02*
X018346Y018208D01*
X019216Y019078D01*
X021972Y019078D01*
X022169Y019274D01*
X022169Y020639D01*
X022200Y020670D01*
X022858Y020721D02*
X022909Y020670D01*
X022858Y020721D02*
X022858Y021440D01*
X020791Y021440D02*
X020791Y020678D01*
X020783Y020670D01*
X020074Y020670D02*
X020042Y020638D01*
X020042Y019592D01*
X019822Y019373D01*
X019118Y019373D01*
X018031Y018286D01*
X018031Y017286D01*
X017740Y017404D02*
X017740Y019963D01*
X017937Y020160D01*
X017937Y020658D01*
X017948Y020670D01*
X018657Y020670D02*
X018657Y021440D01*
X018626Y021440D01*
X017401Y019711D02*
X016165Y020948D01*
X015181Y021032D02*
X015181Y020259D01*
X015574Y019865D01*
X016755Y019865D01*
X017086Y019534D01*
X017086Y017286D01*
X017401Y017286D02*
X017401Y019711D01*
X015826Y018334D02*
X014885Y019274D01*
X012129Y019274D01*
X011539Y019865D01*
X011539Y020595D01*
X011488Y020647D01*
X012196Y020647D02*
X012196Y021440D01*
X012228Y021440D01*
X010948Y020062D02*
X009570Y020062D01*
X009275Y020357D01*
X009275Y020639D01*
X009283Y020647D01*
X009992Y020647D02*
X009992Y021440D01*
X009964Y021440D01*
X010948Y020062D02*
X012031Y018979D01*
X014787Y018979D01*
X015511Y018255D01*
X015511Y017286D01*
X015826Y017286D02*
X015826Y018334D01*
X016362Y017897D02*
X016460Y017798D01*
X016460Y017306D01*
X017716Y017286D02*
X017716Y017381D01*
X017740Y017404D01*
X019606Y017286D02*
X019606Y017696D01*
X019807Y017897D01*
X020496Y017897D01*
X020889Y017503D01*
X020947Y016580D02*
X020944Y016578D01*
X020947Y016580D02*
X022548Y016580D01*
X024111Y018143D01*
X027864Y018143D01*
X029314Y020652D02*
X029354Y020692D01*
X029354Y021440D01*
X024059Y015318D02*
X024531Y014845D01*
X024531Y010416D01*
X025318Y009629D01*
X030830Y009629D01*
X031421Y009038D01*
X031421Y008375D01*
X031452Y008343D01*
X030744Y008343D02*
X030732Y008332D01*
X030732Y007562D01*
X029299Y008377D02*
X029255Y008421D01*
X029255Y009038D01*
X028960Y009334D01*
X025122Y009334D01*
X024236Y010219D01*
X024236Y014649D01*
X023881Y015003D01*
X020944Y015003D01*
X020944Y015318D02*
X024059Y015318D01*
X023704Y014688D02*
X023940Y014452D01*
X023940Y010023D01*
X025023Y008940D01*
X026992Y008940D01*
X027090Y008841D01*
X027090Y008420D01*
X027133Y008376D01*
X026425Y008376D02*
X026425Y007562D01*
X026401Y007562D01*
X028566Y007562D02*
X028590Y007562D01*
X028590Y008377D01*
X023055Y008841D02*
X021719Y007604D01*
X021424Y007604D01*
X021381Y007646D01*
X021423Y007589D01*
X021424Y007604D02*
X021381Y007562D01*
X020714Y007589D02*
X020123Y007562D01*
X020102Y007562D01*
X019258Y007589D02*
X019258Y007588D01*
X019251Y008047D01*
X019413Y008251D01*
X021185Y008251D01*
X022759Y009727D01*
X022759Y012286D01*
X022248Y012798D01*
X020944Y012798D01*
X020944Y012483D02*
X022169Y012483D01*
X022464Y012188D01*
X022464Y009826D01*
X021086Y008546D01*
X020988Y008546D01*
X020693Y008547D01*
X017543Y008546D01*
X017100Y008152D01*
X017100Y007646D01*
X017092Y007589D01*
X016384Y007589D02*
X015793Y007562D01*
X015771Y007562D01*
X015476Y008841D02*
X013948Y007497D01*
X012296Y007497D01*
X011037Y007494D01*
X010328Y007494D02*
X009639Y007463D01*
X009669Y007463D01*
X008854Y007461D02*
X008865Y007930D01*
X009078Y008152D01*
X010358Y008152D01*
X013803Y008152D01*
X014984Y009137D01*
X020889Y009137D01*
X021874Y010022D01*
X021874Y011794D01*
X021814Y011853D01*
X020944Y011853D01*
X020944Y012168D02*
X022090Y012168D01*
X022169Y012089D01*
X022169Y009924D01*
X020988Y008841D01*
X015476Y008841D01*
X014492Y009432D02*
X013507Y008645D01*
X010555Y008645D01*
X010456Y008645D01*
X008192Y008645D01*
X007799Y008645D01*
X007110Y008645D01*
X006619Y007934D01*
X006608Y007495D01*
X005899Y007495D02*
X005309Y007463D01*
X005338Y007463D01*
X007110Y008645D02*
X007110Y008645D01*
X007474Y007463D02*
X008146Y007461D01*
X007503Y007463D02*
X007474Y007463D01*
X002877Y012089D02*
X002090Y012089D01*
X001696Y012483D01*
X001696Y013444D01*
X001689Y013452D01*
X002877Y012089D02*
X004178Y013390D01*
X004194Y013390D01*
X004768Y013390D01*
X005535Y014156D01*
X005535Y015059D01*
X005514Y015079D01*
X005671Y015079D01*
X006814Y016223D01*
X008980Y016223D01*
X009669Y016912D01*
X012031Y016912D01*
X013606Y015337D01*
X013606Y014747D01*
X014295Y014058D01*
X014803Y014058D01*
X014803Y014373D02*
X014801Y014374D01*
X014418Y014374D01*
X013933Y014859D01*
X013933Y015451D01*
X012177Y017208D01*
X009472Y017208D01*
X008783Y016519D01*
X002385Y016519D01*
X001689Y015822D01*
X001689Y015452D01*
X002689Y015452D02*
X004434Y015452D01*
X004806Y015079D01*
X004194Y013390D02*
X004236Y013348D01*
X011933Y017897D02*
X014511Y015318D01*
X014803Y015318D01*
X015200Y015318D01*
X015377Y015141D01*
X015377Y012975D01*
X015181Y012778D01*
X014822Y012778D01*
X014803Y012798D01*
X013960Y012798D01*
X013862Y012780D01*
X014492Y009432D02*
X020791Y009432D01*
X021186Y009826D01*
X021185Y010908D01*
X020952Y011147D01*
X020850Y011145D01*
X020236Y011145D01*
X019921Y011145D02*
X019921Y011613D01*
X020200Y011893D01*
X020200Y014156D01*
X020397Y014353D01*
X020925Y014353D01*
X020944Y014373D01*
X020944Y014688D02*
X023704Y014688D01*
X022326Y013113D02*
X023055Y012385D01*
X023055Y008841D01*
X018549Y007589D02*
X017958Y007562D01*
X017937Y007562D01*
X020944Y013113D02*
X022326Y013113D01*
X014803Y016578D02*
X014039Y016578D01*
X010850Y019767D01*
X007700Y019767D01*
X007110Y020357D01*
X007110Y020627D01*
X007078Y020658D01*
X007787Y020658D02*
X007787Y021440D01*
X007897Y021440D01*
X015165Y021048D02*
X015181Y021032D01*
D30*
X026106Y015023D02*
X026106Y013861D01*
X026303Y013664D01*
X026303Y013585D01*
X026381Y013506D01*
X029157Y013506D01*
X029157Y011066D01*
X030067Y011066D02*
X031991Y011066D01*
X032011Y011086D01*
X032227Y011086D01*
X032996Y010318D01*
X032996Y004034D01*
X033031Y003999D01*
X026106Y015023D02*
X026126Y015042D01*
X030284Y017143D02*
X031486Y017143D01*
X031716Y016912D01*
X031972Y016912D01*
X032011Y016952D01*
X034318Y016952D01*
X034472Y016798D01*
X034472Y017798D02*
X032149Y017798D01*
X032011Y017660D01*
X031994Y017643D01*
X030284Y017643D01*
M02*
