M48
;Layer_Color=9474304
;FILE_FORMAT=2:5
INCH,LZ
;TYPE=PLATED
T1F00S00C0.02756
T2F00S00C0.03150
T3F00S00C0.12598
;TYPE=NON_PLATED
T4F00S00C0.03150
%
T01
X0094488Y0015748
X0102362
X0110236
X011811
X0140157
X0148031
X0155905
X0163779
X0185827
X0193701
X0201575
X0209449
X0231496
X023937
X0247244
X0255118
X0277165
X0285039
X0292913
X0300787
X0322835
X0330709
X0338583
X0346457
Y0114173
X0338583
X0330709
X0322835
X0300787
X0292913
X0285039
X0277165
X0255118
X0247244
X023937
X0231496
X0209449
X0201575
X0193701
Y0212598
X0201575
X0209449
X0231496
X023937
X0247244
X0255118
X0277165
X0285039
X0292913
X0300787
X0322835
X0330709
X0338583
X0346457
X0185827
X0163779
X0155905
X0148031
X0140157
X011811
X0110236
X0102362
X0094488
Y0114173
X0102362
X0110236
X011811
X0140157
X0148031
X0155905
X0163779
X0185827
Y0311024
X0163779
X0155905
X0148031
X0140157
X011811
X0110236
X0102362
X0094488
X0193701
X0201575
X0209449
X0231496
X023937
X0247244
X0255118
X0277165
X0285039
X0292913
X0300787
X0322835
X0330709
X0338583
X0346457
T02
X001378Y004315
Y005315
X0041181Y0015748
X0051181
X0064803
X0074803
X0131614Y0069803
X0141614
X0151614
X0161614
X0328583Y0069803
X0338583
X0348583
X0379921Y005315
Y004315
X0348583Y0079803
Y0168228
Y0178228
X0379921Y0151575
Y0141575
X0338583Y0168228
X0328583
Y0178228
X0338583
Y0079803
X0328583
X0161614Y0079803
X0151614
X0141614
X0131614
Y0168228
X0141614
X0151614
X0161614
Y0178228
X0151614
X0141614
X0131614
X0074803Y0212598
X0064803
X0051181
X0041181
Y0114173
X0051181
X0064803
X0074803
X001378Y0141575
Y0151575
Y024
Y025
Y0338425
Y0348425
X0041181Y0311024
X0051181
X0064803
X0074803
X0131614Y0276654
Y0266654
X0141614
X0151614
X0161614
Y0276654
X0151614
X0141614
Y0365079
X0151614
X0161614
Y0375079
X0151614
X0141614
X0131614
Y0365079
X0328583Y0365079
Y0375079
X0338583
Y0365079
Y0276654
X0328583
Y0266653
X0338583
X0348583
Y0276654
X0379921Y025
Y024
Y0338425
Y0348425
X0348583Y0365079
Y0375079
T03
X0019685Y0019685
X0374016
Y011811
Y0216535
X019685Y0177165
Y007874
X0019685Y011811
Y0216535
Y0314961
X019685Y0275591
Y0374016
X0374016Y0314961
T04
X0011614Y0069803
X0021614
X0031614
X0041614
X0051614
X0061614
X0071614
X0081614
X0091614
X0101614
X0111614
X0121614
Y0079803
X0111614
X0101614
X0091614
X0081614
X0071614
X0061614
X0051614
X0041614
Y0168228
X0051614
X0061614
X0071614
X0081614
X0091614
X0101614
X0111614
X0121614
Y0178228
X0111614
X0101614
X0091614
X0081614
X0071614
X0061614
X0051614
X0041614
X0031614
Y0168228
X0021614
X0011614
Y0178228
X0021614
Y0079803
X0031614
X0011614
Y0266654
X0021614
X0031614
Y0276654
X0021614
X0011614
Y0365079
X0021614
X0031614
Y0375079
X0021614
X0011614
X0041614
Y0365079
X0051614
X0061614
X0071614
X0081614
X0091614
X0101614
X0111614
X0121614
Y0375079
X0111614
X0101614
X0091614
X0081614
X0071614
X0061614
X0051614
Y0276654
Y0266654
X0061614
X0071614
X0081614
X0091614
X0101614
X0111614
X0121614
Y0276654
X0111614
X0101614
X0091614
X0081614
X0071614
X0061614
X0041614
Y0266654
M30
