G04 Layer_Color=65535*
%FSLAX25Y25*%
%MOIN*%
G70*
G01*
G75*
%ADD10C,0.00787*%
%ADD17C,0.01000*%
D10*
X35276Y21654D02*
X57087D01*
X35276Y12992D02*
Y21654D01*
Y12992D02*
X38425Y9843D01*
X57087D01*
Y21654D01*
X58898D02*
X80709D01*
X58898Y12992D02*
Y21654D01*
Y12992D02*
X62047Y9843D01*
X80709D01*
Y21654D01*
X322559Y63898D02*
Y85709D01*
X351339D01*
X354488Y82559D01*
Y63898D02*
Y82559D01*
X322559Y63898D02*
X354488D01*
X374016Y59055D02*
X385827D01*
Y40394D02*
Y59055D01*
X382677Y37244D02*
X385827Y40394D01*
X374016Y37244D02*
X382677D01*
X374016D02*
Y59055D01*
X7874D02*
X19685D01*
Y40394D02*
Y59055D01*
X16535Y37244D02*
X19685Y40394D01*
X7874Y37244D02*
X16535D01*
X7874D02*
Y59055D01*
X35276Y120079D02*
X57087D01*
X35276Y111417D02*
Y120079D01*
Y111417D02*
X38425Y108268D01*
X57087D01*
Y120079D01*
X58898D02*
X80709D01*
X58898Y111417D02*
Y120079D01*
Y111417D02*
X62047Y108268D01*
X80709D01*
Y120079D01*
X322559Y162323D02*
Y184134D01*
X351339D01*
X354488Y180984D01*
Y162323D02*
Y180984D01*
X322559Y162323D02*
X354488D01*
X374016Y157480D02*
X385827D01*
Y138819D02*
Y157480D01*
X382677Y135669D02*
X385827Y138819D01*
X374016Y135669D02*
X382677D01*
X374016D02*
Y157480D01*
X7874D02*
X19685D01*
Y138819D02*
Y157480D01*
X16535Y135669D02*
X19685Y138819D01*
X7874Y135669D02*
X16535D01*
X7874D02*
Y157480D01*
X35276Y218504D02*
X57087D01*
X35276Y209842D02*
Y218504D01*
Y209842D02*
X38425Y206693D01*
X57087D01*
Y218504D01*
X58898D02*
X80709D01*
X58898Y209842D02*
Y218504D01*
Y209842D02*
X62047Y206693D01*
X80709D01*
Y218504D01*
X322559Y260748D02*
Y282559D01*
X351339D01*
X354488Y279410D01*
Y260748D02*
Y279410D01*
X322559Y260748D02*
X354488D01*
X374016Y255906D02*
X385827D01*
Y237244D02*
Y255906D01*
X382677Y234095D02*
X385827Y237244D01*
X374016Y234095D02*
X382677D01*
X374016D02*
Y255906D01*
X7874D02*
X19685D01*
Y237244D02*
Y255906D01*
X16535Y234095D02*
X19685Y237244D01*
X7874Y234095D02*
X16535D01*
X7874D02*
Y255906D01*
X35276Y316929D02*
X57087D01*
X35276Y308268D02*
Y316929D01*
Y308268D02*
X38425Y305118D01*
X57087D01*
Y316929D01*
X58898D02*
X80709D01*
X58898Y308268D02*
Y316929D01*
Y308268D02*
X62047Y305118D01*
X80709D01*
Y316929D01*
X322559Y359173D02*
Y380984D01*
X351339D01*
X354488Y377835D01*
Y359173D02*
Y377835D01*
X322559Y359173D02*
X354488D01*
X374016Y354331D02*
X385827D01*
Y335669D02*
Y354331D01*
X382677Y332520D02*
X385827Y335669D01*
X374016Y332520D02*
X382677D01*
X374016D02*
Y354331D01*
X7874D02*
X19685D01*
Y335669D02*
Y354331D01*
X16535Y332520D02*
X19685Y335669D01*
X7874Y332520D02*
X16535D01*
X7874D02*
Y354331D01*
D17*
X362266Y76864D02*
X360267D01*
X361267D01*
Y71866D01*
X360267Y70866D01*
X359267D01*
X358268Y71866D01*
X364266Y70866D02*
X366265D01*
X365265D01*
Y76864D01*
X364266Y75864D01*
X369264D02*
X370264Y76864D01*
X372263D01*
X373263Y75864D01*
Y71866D01*
X372263Y70866D01*
X370264D01*
X369264Y71866D01*
Y75864D01*
X47640Y23622D02*
X53150D01*
Y26377D01*
X52231Y27295D01*
X48558D01*
X47640Y26377D01*
Y23622D01*
X53150Y29132D02*
X47640D01*
X49476Y30969D01*
X47640Y32805D01*
X53150D01*
X47640Y34642D02*
X53150Y38315D01*
X47640D02*
X53150Y34642D01*
X54068Y40152D02*
Y43826D01*
X47640Y45662D02*
Y47499D01*
Y46580D01*
X53150D01*
Y45662D01*
Y47499D01*
Y50254D02*
X47640D01*
X53150Y53927D01*
X47640D01*
X71262Y23622D02*
X76772D01*
Y26377D01*
X75853Y27295D01*
X72180D01*
X71262Y26377D01*
Y23622D01*
X76772Y29132D02*
X71262D01*
X73098Y30969D01*
X71262Y32805D01*
X76772D01*
X71262Y34642D02*
X76772Y38315D01*
X71262D02*
X76772Y34642D01*
X77690Y40152D02*
Y43826D01*
X71262Y48417D02*
Y46580D01*
X72180Y45662D01*
X75853D01*
X76772Y46580D01*
Y48417D01*
X75853Y49336D01*
X72180D01*
X71262Y48417D01*
Y51172D02*
X75853D01*
X76772Y52091D01*
Y53927D01*
X75853Y54846D01*
X71262D01*
Y56682D02*
Y60356D01*
Y58519D01*
X76772D01*
X312992Y29132D02*
Y23622D01*
Y25459D01*
X316666Y29132D01*
X313911Y26377D01*
X316666Y23622D01*
X318502D02*
Y27295D01*
X320339Y29132D01*
X322176Y27295D01*
Y23622D01*
Y26377D01*
X318502D01*
X324012Y23622D02*
Y29132D01*
X327685Y23622D01*
Y29132D01*
X329522Y23622D02*
Y27295D01*
X331359Y29132D01*
X333196Y27295D01*
Y23622D01*
Y26377D01*
X329522D01*
X335032Y29132D02*
Y23622D01*
X338706D01*
X340542Y22704D02*
X344216D01*
X346052Y23622D02*
X347889D01*
X346971D01*
Y29132D01*
X346052Y28214D01*
X267717Y29132D02*
Y23622D01*
Y25459D01*
X271390Y29132D01*
X268635Y26377D01*
X271390Y23622D01*
X273227D02*
Y27295D01*
X275063Y29132D01*
X276900Y27295D01*
Y23622D01*
Y26377D01*
X273227D01*
X278737Y23622D02*
Y29132D01*
X282410Y23622D01*
Y29132D01*
X284247Y23622D02*
Y27295D01*
X286083Y29132D01*
X287920Y27295D01*
Y23622D01*
Y26377D01*
X284247D01*
X289757Y29132D02*
Y23622D01*
X293430D01*
X295267Y22704D02*
X298940D01*
X304450Y23622D02*
X300777D01*
X304450Y27295D01*
Y28214D01*
X303532Y29132D01*
X301695D01*
X300777Y28214D01*
X222441Y29132D02*
Y23622D01*
Y25459D01*
X226114Y29132D01*
X223359Y26377D01*
X226114Y23622D01*
X227951D02*
Y27295D01*
X229788Y29132D01*
X231624Y27295D01*
Y23622D01*
Y26377D01*
X227951D01*
X233461Y23622D02*
Y29132D01*
X237134Y23622D01*
Y29132D01*
X238971Y23622D02*
Y27295D01*
X240808Y29132D01*
X242644Y27295D01*
Y23622D01*
Y26377D01*
X238971D01*
X244481Y29132D02*
Y23622D01*
X248154D01*
X249991Y22704D02*
X253664D01*
X255501Y28214D02*
X256419Y29132D01*
X258256D01*
X259174Y28214D01*
Y27295D01*
X258256Y26377D01*
X257338D01*
X258256D01*
X259174Y25459D01*
Y24540D01*
X258256Y23622D01*
X256419D01*
X255501Y24540D01*
X177165Y29132D02*
Y23622D01*
Y25459D01*
X180839Y29132D01*
X178084Y26377D01*
X180839Y23622D01*
X182675D02*
Y27295D01*
X184512Y29132D01*
X186349Y27295D01*
Y23622D01*
Y26377D01*
X182675D01*
X188185Y23622D02*
Y29132D01*
X191859Y23622D01*
Y29132D01*
X193695Y23622D02*
Y27295D01*
X195532Y29132D01*
X197369Y27295D01*
Y23622D01*
Y26377D01*
X193695D01*
X199206Y29132D02*
Y23622D01*
X202879D01*
X204715Y22704D02*
X208389D01*
X212981Y23622D02*
Y29132D01*
X210226Y26377D01*
X213899D01*
X131890Y29132D02*
Y23622D01*
Y25459D01*
X135563Y29132D01*
X132808Y26377D01*
X135563Y23622D01*
X137400D02*
Y27295D01*
X139236Y29132D01*
X141073Y27295D01*
Y23622D01*
Y26377D01*
X137400D01*
X142910Y23622D02*
Y29132D01*
X146583Y23622D01*
Y29132D01*
X148420Y23622D02*
Y27295D01*
X150257Y29132D01*
X152093Y27295D01*
Y23622D01*
Y26377D01*
X148420D01*
X153930Y29132D02*
Y23622D01*
X157603D01*
X159440Y22704D02*
X163113D01*
X168623Y29132D02*
X164950D01*
Y26377D01*
X166787Y27295D01*
X167705D01*
X168623Y26377D01*
Y24540D01*
X167705Y23622D01*
X165868D01*
X164950Y24540D01*
X86614Y29132D02*
Y23622D01*
Y25459D01*
X90288Y29132D01*
X87533Y26377D01*
X90288Y23622D01*
X92124D02*
Y27295D01*
X93961Y29132D01*
X95798Y27295D01*
Y23622D01*
Y26377D01*
X92124D01*
X97634Y23622D02*
Y29132D01*
X101308Y23622D01*
Y29132D01*
X103144Y23622D02*
Y27295D01*
X104981Y29132D01*
X106818Y27295D01*
Y23622D01*
Y26377D01*
X103144D01*
X108654Y29132D02*
Y23622D01*
X112328D01*
X114164Y22704D02*
X117838D01*
X123348Y29132D02*
X121511Y28214D01*
X119674Y26377D01*
Y24540D01*
X120593Y23622D01*
X122429D01*
X123348Y24540D01*
Y25459D01*
X122429Y26377D01*
X119674D01*
X169291Y51274D02*
Y45276D01*
X172290D01*
X173290Y46275D01*
Y47275D01*
X172290Y48275D01*
X169291D01*
X172290D01*
X173290Y49274D01*
Y50274D01*
X172290Y51274D01*
X169291D01*
X178288D02*
X176289D01*
X175289Y50274D01*
Y46275D01*
X176289Y45276D01*
X178288D01*
X179288Y46275D01*
Y50274D01*
X178288Y51274D01*
X181288D02*
Y45276D01*
Y47275D01*
X185286Y51274D01*
X182287Y48275D01*
X185286Y45276D01*
X191284Y50274D02*
X190285Y51274D01*
X188285D01*
X187285Y50274D01*
Y49274D01*
X188285Y48275D01*
X190285D01*
X191284Y47275D01*
Y46275D01*
X190285Y45276D01*
X188285D01*
X187285Y46275D01*
X193284Y51274D02*
Y45276D01*
Y47275D01*
X197282Y51274D01*
X194283Y48275D01*
X197282Y45276D01*
X202281Y51274D02*
X200281D01*
X199282Y50274D01*
Y46275D01*
X200281Y45276D01*
X202281D01*
X203280Y46275D01*
Y50274D01*
X202281Y51274D01*
X205280Y45276D02*
Y51274D01*
X208279D01*
X209278Y50274D01*
Y48275D01*
X208279Y47275D01*
X205280D01*
X207279D02*
X209278Y45276D01*
X211278Y51274D02*
X215277D01*
X213277D01*
Y45276D01*
X223274Y51274D02*
Y45276D01*
X227273D01*
X229272Y51274D02*
Y50274D01*
X231271Y48275D01*
X233271Y50274D01*
Y51274D01*
X231271Y48275D02*
Y45276D01*
X239269Y50274D02*
X238269Y51274D01*
X236270D01*
X235270Y50274D01*
Y49274D01*
X236270Y48275D01*
X238269D01*
X239269Y47275D01*
Y46275D01*
X238269Y45276D01*
X236270D01*
X235270Y46275D01*
X241268Y45276D02*
Y51274D01*
X244267D01*
X245267Y50274D01*
Y48275D01*
X244267Y47275D01*
X241268D01*
X243267D02*
X245267Y45276D01*
X251265Y51274D02*
X247266D01*
Y45276D01*
X251265D01*
X247266Y48275D02*
X249266D01*
X253264Y51274D02*
Y45276D01*
Y47275D01*
X257263Y51274D01*
X254264Y48275D01*
X257263Y45276D01*
X259262Y51274D02*
Y45276D01*
X263261D01*
X265260D02*
Y49274D01*
X267260Y51274D01*
X269259Y49274D01*
Y45276D01*
Y48275D01*
X265260D01*
X271258Y45276D02*
Y51274D01*
X273258Y49274D01*
X275257Y51274D01*
Y45276D01*
X281255Y51274D02*
X277256D01*
Y45276D01*
X281255D01*
X277256Y48275D02*
X279256D01*
X283255Y45276D02*
Y51274D01*
X287253Y45276D01*
Y51274D01*
X23622Y45368D02*
Y41370D01*
X25621Y39370D01*
X27621Y41370D01*
Y45368D01*
X29620Y39370D02*
Y43369D01*
X31620Y45368D01*
X33619Y43369D01*
Y39370D01*
Y42369D01*
X29620D01*
X35618Y39370D02*
Y43369D01*
X37618Y45368D01*
X39617Y43369D01*
Y39370D01*
Y42369D01*
X35618D01*
X27621Y56179D02*
X26621Y57179D01*
X24622D01*
X23622Y56179D01*
Y52181D01*
X24622Y51181D01*
X26621D01*
X27621Y52181D01*
Y54180D01*
X25621D01*
X29620Y51181D02*
Y57179D01*
X33619Y51181D01*
Y57179D01*
X35618D02*
Y51181D01*
X38617D01*
X39617Y52181D01*
Y56179D01*
X38617Y57179D01*
X35618D01*
X358330Y56179D02*
X357330Y57179D01*
X355330D01*
X354331Y56179D01*
Y52181D01*
X355330Y51181D01*
X357330D01*
X358330Y52181D01*
Y54180D01*
X356330D01*
X360329Y51181D02*
Y57179D01*
X364328Y51181D01*
Y57179D01*
X366327D02*
Y51181D01*
X369326D01*
X370326Y52181D01*
Y56179D01*
X369326Y57179D01*
X366327D01*
X354331Y45368D02*
Y41370D01*
X356330Y39370D01*
X358330Y41370D01*
Y45368D01*
X360329Y39370D02*
Y43369D01*
X362328Y45368D01*
X364328Y43369D01*
Y39370D01*
Y42369D01*
X360329D01*
X366327Y39370D02*
Y43369D01*
X368326Y45368D01*
X370326Y43369D01*
Y39370D01*
Y42369D01*
X366327D01*
X271654Y76770D02*
X272966D01*
X272309D01*
Y72835D01*
X271654D01*
X272966D01*
X274933Y76770D02*
Y72835D01*
X276901D01*
X277557Y73491D01*
Y76114D01*
X276901Y76770D01*
X274933D01*
X285429Y76114D02*
X284773Y76770D01*
X283461D01*
X282805Y76114D01*
Y73491D01*
X283461Y72835D01*
X284773D01*
X285429Y73491D01*
X288708Y76770D02*
X287397D01*
X286740Y76114D01*
Y73491D01*
X287397Y72835D01*
X288708D01*
X289364Y73491D01*
Y76114D01*
X288708Y76770D01*
X290676Y72835D02*
Y76770D01*
X293300Y72835D01*
Y76770D01*
X294612Y72835D02*
Y76770D01*
X297236Y72835D01*
Y76770D01*
X301172D02*
X298548D01*
Y72835D01*
X301172D01*
X298548Y74803D02*
X299860D01*
X305107Y76114D02*
X304451Y76770D01*
X303139D01*
X302484Y76114D01*
Y73491D01*
X303139Y72835D01*
X304451D01*
X305107Y73491D01*
X306419Y76770D02*
X309043D01*
X307731D01*
Y72835D01*
X312323Y76770D02*
X311011D01*
X310355Y76114D01*
Y73491D01*
X311011Y72835D01*
X312323D01*
X312979Y73491D01*
Y76114D01*
X312323Y76770D01*
X314291Y72835D02*
Y76770D01*
X316259D01*
X316915Y76114D01*
Y74803D01*
X316259Y74147D01*
X314291D01*
X315603D02*
X316915Y72835D01*
X362266Y175289D02*
X360267D01*
X361267D01*
Y170291D01*
X360267Y169291D01*
X359267D01*
X358268Y170291D01*
X364266Y169291D02*
X366265D01*
X365265D01*
Y175289D01*
X364266Y174290D01*
X369264D02*
X370264Y175289D01*
X372263D01*
X373263Y174290D01*
Y170291D01*
X372263Y169291D01*
X370264D01*
X369264Y170291D01*
Y174290D01*
X47640Y122047D02*
X53150D01*
Y124802D01*
X52231Y125721D01*
X48558D01*
X47640Y124802D01*
Y122047D01*
X53150Y127557D02*
X47640D01*
X49476Y129394D01*
X47640Y131231D01*
X53150D01*
X47640Y133067D02*
X53150Y136741D01*
X47640D02*
X53150Y133067D01*
X54068Y138577D02*
Y142251D01*
X47640Y144087D02*
Y145924D01*
Y145006D01*
X53150D01*
Y144087D01*
Y145924D01*
Y148679D02*
X47640D01*
X53150Y152352D01*
X47640D01*
X71262Y122047D02*
X76772D01*
Y124802D01*
X75853Y125721D01*
X72180D01*
X71262Y124802D01*
Y122047D01*
X76772Y127557D02*
X71262D01*
X73098Y129394D01*
X71262Y131231D01*
X76772D01*
X71262Y133067D02*
X76772Y136741D01*
X71262D02*
X76772Y133067D01*
X77690Y138577D02*
Y142251D01*
X71262Y146842D02*
Y145006D01*
X72180Y144087D01*
X75853D01*
X76772Y145006D01*
Y146842D01*
X75853Y147761D01*
X72180D01*
X71262Y146842D01*
Y149597D02*
X75853D01*
X76772Y150516D01*
Y152352D01*
X75853Y153271D01*
X71262D01*
Y155107D02*
Y158781D01*
Y156944D01*
X76772D01*
X312992Y127557D02*
Y122047D01*
Y123884D01*
X316666Y127557D01*
X313911Y124802D01*
X316666Y122047D01*
X318502D02*
Y125721D01*
X320339Y127557D01*
X322176Y125721D01*
Y122047D01*
Y124802D01*
X318502D01*
X324012Y122047D02*
Y127557D01*
X327685Y122047D01*
Y127557D01*
X329522Y122047D02*
Y125721D01*
X331359Y127557D01*
X333196Y125721D01*
Y122047D01*
Y124802D01*
X329522D01*
X335032Y127557D02*
Y122047D01*
X338706D01*
X340542Y121129D02*
X344216D01*
X346052Y122047D02*
X347889D01*
X346971D01*
Y127557D01*
X346052Y126639D01*
X267717Y127557D02*
Y122047D01*
Y123884D01*
X271390Y127557D01*
X268635Y124802D01*
X271390Y122047D01*
X273227D02*
Y125721D01*
X275063Y127557D01*
X276900Y125721D01*
Y122047D01*
Y124802D01*
X273227D01*
X278737Y122047D02*
Y127557D01*
X282410Y122047D01*
Y127557D01*
X284247Y122047D02*
Y125721D01*
X286083Y127557D01*
X287920Y125721D01*
Y122047D01*
Y124802D01*
X284247D01*
X289757Y127557D02*
Y122047D01*
X293430D01*
X295267Y121129D02*
X298940D01*
X304450Y122047D02*
X300777D01*
X304450Y125721D01*
Y126639D01*
X303532Y127557D01*
X301695D01*
X300777Y126639D01*
X222441Y127557D02*
Y122047D01*
Y123884D01*
X226114Y127557D01*
X223359Y124802D01*
X226114Y122047D01*
X227951D02*
Y125721D01*
X229788Y127557D01*
X231624Y125721D01*
Y122047D01*
Y124802D01*
X227951D01*
X233461Y122047D02*
Y127557D01*
X237134Y122047D01*
Y127557D01*
X238971Y122047D02*
Y125721D01*
X240808Y127557D01*
X242644Y125721D01*
Y122047D01*
Y124802D01*
X238971D01*
X244481Y127557D02*
Y122047D01*
X248154D01*
X249991Y121129D02*
X253664D01*
X255501Y126639D02*
X256419Y127557D01*
X258256D01*
X259174Y126639D01*
Y125721D01*
X258256Y124802D01*
X257338D01*
X258256D01*
X259174Y123884D01*
Y122966D01*
X258256Y122047D01*
X256419D01*
X255501Y122966D01*
X177165Y127557D02*
Y122047D01*
Y123884D01*
X180839Y127557D01*
X178084Y124802D01*
X180839Y122047D01*
X182675D02*
Y125721D01*
X184512Y127557D01*
X186349Y125721D01*
Y122047D01*
Y124802D01*
X182675D01*
X188185Y122047D02*
Y127557D01*
X191859Y122047D01*
Y127557D01*
X193695Y122047D02*
Y125721D01*
X195532Y127557D01*
X197369Y125721D01*
Y122047D01*
Y124802D01*
X193695D01*
X199206Y127557D02*
Y122047D01*
X202879D01*
X204715Y121129D02*
X208389D01*
X212981Y122047D02*
Y127557D01*
X210226Y124802D01*
X213899D01*
X131890Y127557D02*
Y122047D01*
Y123884D01*
X135563Y127557D01*
X132808Y124802D01*
X135563Y122047D01*
X137400D02*
Y125721D01*
X139236Y127557D01*
X141073Y125721D01*
Y122047D01*
Y124802D01*
X137400D01*
X142910Y122047D02*
Y127557D01*
X146583Y122047D01*
Y127557D01*
X148420Y122047D02*
Y125721D01*
X150257Y127557D01*
X152093Y125721D01*
Y122047D01*
Y124802D01*
X148420D01*
X153930Y127557D02*
Y122047D01*
X157603D01*
X159440Y121129D02*
X163113D01*
X168623Y127557D02*
X164950D01*
Y124802D01*
X166787Y125721D01*
X167705D01*
X168623Y124802D01*
Y122966D01*
X167705Y122047D01*
X165868D01*
X164950Y122966D01*
X86614Y127557D02*
Y122047D01*
Y123884D01*
X90288Y127557D01*
X87533Y124802D01*
X90288Y122047D01*
X92124D02*
Y125721D01*
X93961Y127557D01*
X95798Y125721D01*
Y122047D01*
Y124802D01*
X92124D01*
X97634Y122047D02*
Y127557D01*
X101308Y122047D01*
Y127557D01*
X103144Y122047D02*
Y125721D01*
X104981Y127557D01*
X106818Y125721D01*
Y122047D01*
Y124802D01*
X103144D01*
X108654Y127557D02*
Y122047D01*
X112328D01*
X114164Y121129D02*
X117838D01*
X123348Y127557D02*
X121511Y126639D01*
X119674Y124802D01*
Y122966D01*
X120593Y122047D01*
X122429D01*
X123348Y122966D01*
Y123884D01*
X122429Y124802D01*
X119674D01*
X169291Y149699D02*
Y143701D01*
X172290D01*
X173290Y144701D01*
Y145700D01*
X172290Y146700D01*
X169291D01*
X172290D01*
X173290Y147699D01*
Y148699D01*
X172290Y149699D01*
X169291D01*
X178288D02*
X176289D01*
X175289Y148699D01*
Y144701D01*
X176289Y143701D01*
X178288D01*
X179288Y144701D01*
Y148699D01*
X178288Y149699D01*
X181288D02*
Y143701D01*
Y145700D01*
X185286Y149699D01*
X182287Y146700D01*
X185286Y143701D01*
X191284Y148699D02*
X190285Y149699D01*
X188285D01*
X187285Y148699D01*
Y147699D01*
X188285Y146700D01*
X190285D01*
X191284Y145700D01*
Y144701D01*
X190285Y143701D01*
X188285D01*
X187285Y144701D01*
X193284Y149699D02*
Y143701D01*
Y145700D01*
X197282Y149699D01*
X194283Y146700D01*
X197282Y143701D01*
X202281Y149699D02*
X200281D01*
X199282Y148699D01*
Y144701D01*
X200281Y143701D01*
X202281D01*
X203280Y144701D01*
Y148699D01*
X202281Y149699D01*
X205280Y143701D02*
Y149699D01*
X208279D01*
X209278Y148699D01*
Y146700D01*
X208279Y145700D01*
X205280D01*
X207279D02*
X209278Y143701D01*
X211278Y149699D02*
X215277D01*
X213277D01*
Y143701D01*
X223274Y149699D02*
Y143701D01*
X227273D01*
X229272Y149699D02*
Y148699D01*
X231271Y146700D01*
X233271Y148699D01*
Y149699D01*
X231271Y146700D02*
Y143701D01*
X239269Y148699D02*
X238269Y149699D01*
X236270D01*
X235270Y148699D01*
Y147699D01*
X236270Y146700D01*
X238269D01*
X239269Y145700D01*
Y144701D01*
X238269Y143701D01*
X236270D01*
X235270Y144701D01*
X241268Y143701D02*
Y149699D01*
X244267D01*
X245267Y148699D01*
Y146700D01*
X244267Y145700D01*
X241268D01*
X243267D02*
X245267Y143701D01*
X251265Y149699D02*
X247266D01*
Y143701D01*
X251265D01*
X247266Y146700D02*
X249266D01*
X253264Y149699D02*
Y143701D01*
Y145700D01*
X257263Y149699D01*
X254264Y146700D01*
X257263Y143701D01*
X259262Y149699D02*
Y143701D01*
X263261D01*
X265260D02*
Y147699D01*
X267260Y149699D01*
X269259Y147699D01*
Y143701D01*
Y146700D01*
X265260D01*
X271258Y143701D02*
Y149699D01*
X273258Y147699D01*
X275257Y149699D01*
Y143701D01*
X281255Y149699D02*
X277256D01*
Y143701D01*
X281255D01*
X277256Y146700D02*
X279256D01*
X283255Y143701D02*
Y149699D01*
X287253Y143701D01*
Y149699D01*
X23622Y143793D02*
Y139795D01*
X25621Y137795D01*
X27621Y139795D01*
Y143793D01*
X29620Y137795D02*
Y141794D01*
X31620Y143793D01*
X33619Y141794D01*
Y137795D01*
Y140794D01*
X29620D01*
X35618Y137795D02*
Y141794D01*
X37618Y143793D01*
X39617Y141794D01*
Y137795D01*
Y140794D01*
X35618D01*
X27621Y154605D02*
X26621Y155604D01*
X24622D01*
X23622Y154605D01*
Y150606D01*
X24622Y149606D01*
X26621D01*
X27621Y150606D01*
Y152605D01*
X25621D01*
X29620Y149606D02*
Y155604D01*
X33619Y149606D01*
Y155604D01*
X35618D02*
Y149606D01*
X38617D01*
X39617Y150606D01*
Y154605D01*
X38617Y155604D01*
X35618D01*
X358330Y154605D02*
X357330Y155604D01*
X355330D01*
X354331Y154605D01*
Y150606D01*
X355330Y149606D01*
X357330D01*
X358330Y150606D01*
Y152605D01*
X356330D01*
X360329Y149606D02*
Y155604D01*
X364328Y149606D01*
Y155604D01*
X366327D02*
Y149606D01*
X369326D01*
X370326Y150606D01*
Y154605D01*
X369326Y155604D01*
X366327D01*
X354331Y143793D02*
Y139795D01*
X356330Y137795D01*
X358330Y139795D01*
Y143793D01*
X360329Y137795D02*
Y141794D01*
X362328Y143793D01*
X364328Y141794D01*
Y137795D01*
Y140794D01*
X360329D01*
X366327Y137795D02*
Y141794D01*
X368326Y143793D01*
X370326Y141794D01*
Y137795D01*
Y140794D01*
X366327D01*
X271654Y175196D02*
X272966D01*
X272309D01*
Y171260D01*
X271654D01*
X272966D01*
X274933Y175196D02*
Y171260D01*
X276901D01*
X277557Y171916D01*
Y174540D01*
X276901Y175196D01*
X274933D01*
X285429Y174540D02*
X284773Y175196D01*
X283461D01*
X282805Y174540D01*
Y171916D01*
X283461Y171260D01*
X284773D01*
X285429Y171916D01*
X288708Y175196D02*
X287397D01*
X286740Y174540D01*
Y171916D01*
X287397Y171260D01*
X288708D01*
X289364Y171916D01*
Y174540D01*
X288708Y175196D01*
X290676Y171260D02*
Y175196D01*
X293300Y171260D01*
Y175196D01*
X294612Y171260D02*
Y175196D01*
X297236Y171260D01*
Y175196D01*
X301172D02*
X298548D01*
Y171260D01*
X301172D01*
X298548Y173228D02*
X299860D01*
X305107Y174540D02*
X304451Y175196D01*
X303139D01*
X302484Y174540D01*
Y171916D01*
X303139Y171260D01*
X304451D01*
X305107Y171916D01*
X306419Y175196D02*
X309043D01*
X307731D01*
Y171260D01*
X312323Y175196D02*
X311011D01*
X310355Y174540D01*
Y171916D01*
X311011Y171260D01*
X312323D01*
X312979Y171916D01*
Y174540D01*
X312323Y175196D01*
X314291Y171260D02*
Y175196D01*
X316259D01*
X316915Y174540D01*
Y173228D01*
X316259Y172572D01*
X314291D01*
X315603D02*
X316915Y171260D01*
X362266Y273715D02*
X360267D01*
X361267D01*
Y268716D01*
X360267Y267717D01*
X359267D01*
X358268Y268716D01*
X364266Y267717D02*
X366265D01*
X365265D01*
Y273715D01*
X364266Y272715D01*
X369264D02*
X370264Y273715D01*
X372263D01*
X373263Y272715D01*
Y268716D01*
X372263Y267717D01*
X370264D01*
X369264Y268716D01*
Y272715D01*
X47640Y220473D02*
X53150D01*
Y223228D01*
X52231Y224146D01*
X48558D01*
X47640Y223228D01*
Y220473D01*
X53150Y225982D02*
X47640D01*
X49476Y227819D01*
X47640Y229656D01*
X53150D01*
X47640Y231492D02*
X53150Y235166D01*
X47640D02*
X53150Y231492D01*
X54068Y237003D02*
Y240676D01*
X47640Y242513D02*
Y244349D01*
Y243431D01*
X53150D01*
Y242513D01*
Y244349D01*
Y247104D02*
X47640D01*
X53150Y250778D01*
X47640D01*
X71262Y220473D02*
X76772D01*
Y223228D01*
X75853Y224146D01*
X72180D01*
X71262Y223228D01*
Y220473D01*
X76772Y225982D02*
X71262D01*
X73098Y227819D01*
X71262Y229656D01*
X76772D01*
X71262Y231492D02*
X76772Y235166D01*
X71262D02*
X76772Y231492D01*
X77690Y237003D02*
Y240676D01*
X71262Y245268D02*
Y243431D01*
X72180Y242513D01*
X75853D01*
X76772Y243431D01*
Y245268D01*
X75853Y246186D01*
X72180D01*
X71262Y245268D01*
Y248023D02*
X75853D01*
X76772Y248941D01*
Y250778D01*
X75853Y251696D01*
X71262D01*
Y253533D02*
Y257206D01*
Y255369D01*
X76772D01*
X312992Y225982D02*
Y220472D01*
Y222309D01*
X316666Y225982D01*
X313911Y223228D01*
X316666Y220472D01*
X318502D02*
Y224146D01*
X320339Y225982D01*
X322176Y224146D01*
Y220472D01*
Y223228D01*
X318502D01*
X324012Y220472D02*
Y225982D01*
X327685Y220472D01*
Y225982D01*
X329522Y220472D02*
Y224146D01*
X331359Y225982D01*
X333196Y224146D01*
Y220472D01*
Y223228D01*
X329522D01*
X335032Y225982D02*
Y220472D01*
X338706D01*
X340542Y219554D02*
X344216D01*
X346052Y220472D02*
X347889D01*
X346971D01*
Y225982D01*
X346052Y225064D01*
X267717Y225982D02*
Y220472D01*
Y222309D01*
X271390Y225982D01*
X268635Y223228D01*
X271390Y220472D01*
X273227D02*
Y224146D01*
X275063Y225982D01*
X276900Y224146D01*
Y220472D01*
Y223228D01*
X273227D01*
X278737Y220472D02*
Y225982D01*
X282410Y220472D01*
Y225982D01*
X284247Y220472D02*
Y224146D01*
X286083Y225982D01*
X287920Y224146D01*
Y220472D01*
Y223228D01*
X284247D01*
X289757Y225982D02*
Y220472D01*
X293430D01*
X295267Y219554D02*
X298940D01*
X304450Y220472D02*
X300777D01*
X304450Y224146D01*
Y225064D01*
X303532Y225982D01*
X301695D01*
X300777Y225064D01*
X222441Y225982D02*
Y220472D01*
Y222309D01*
X226114Y225982D01*
X223359Y223228D01*
X226114Y220472D01*
X227951D02*
Y224146D01*
X229788Y225982D01*
X231624Y224146D01*
Y220472D01*
Y223228D01*
X227951D01*
X233461Y220472D02*
Y225982D01*
X237134Y220472D01*
Y225982D01*
X238971Y220472D02*
Y224146D01*
X240808Y225982D01*
X242644Y224146D01*
Y220472D01*
Y223228D01*
X238971D01*
X244481Y225982D02*
Y220472D01*
X248154D01*
X249991Y219554D02*
X253664D01*
X255501Y225064D02*
X256419Y225982D01*
X258256D01*
X259174Y225064D01*
Y224146D01*
X258256Y223228D01*
X257338D01*
X258256D01*
X259174Y222309D01*
Y221391D01*
X258256Y220472D01*
X256419D01*
X255501Y221391D01*
X177165Y225982D02*
Y220472D01*
Y222309D01*
X180839Y225982D01*
X178084Y223228D01*
X180839Y220472D01*
X182675D02*
Y224146D01*
X184512Y225982D01*
X186349Y224146D01*
Y220472D01*
Y223228D01*
X182675D01*
X188185Y220472D02*
Y225982D01*
X191859Y220472D01*
Y225982D01*
X193695Y220472D02*
Y224146D01*
X195532Y225982D01*
X197369Y224146D01*
Y220472D01*
Y223228D01*
X193695D01*
X199206Y225982D02*
Y220472D01*
X202879D01*
X204715Y219554D02*
X208389D01*
X212981Y220472D02*
Y225982D01*
X210226Y223228D01*
X213899D01*
X131890Y225982D02*
Y220472D01*
Y222309D01*
X135563Y225982D01*
X132808Y223228D01*
X135563Y220472D01*
X137400D02*
Y224146D01*
X139236Y225982D01*
X141073Y224146D01*
Y220472D01*
Y223228D01*
X137400D01*
X142910Y220472D02*
Y225982D01*
X146583Y220472D01*
Y225982D01*
X148420Y220472D02*
Y224146D01*
X150257Y225982D01*
X152093Y224146D01*
Y220472D01*
Y223228D01*
X148420D01*
X153930Y225982D02*
Y220472D01*
X157603D01*
X159440Y219554D02*
X163113D01*
X168623Y225982D02*
X164950D01*
Y223228D01*
X166787Y224146D01*
X167705D01*
X168623Y223228D01*
Y221391D01*
X167705Y220472D01*
X165868D01*
X164950Y221391D01*
X86614Y225982D02*
Y220472D01*
Y222309D01*
X90288Y225982D01*
X87533Y223228D01*
X90288Y220472D01*
X92124D02*
Y224146D01*
X93961Y225982D01*
X95798Y224146D01*
Y220472D01*
Y223228D01*
X92124D01*
X97634Y220472D02*
Y225982D01*
X101308Y220472D01*
Y225982D01*
X103144Y220472D02*
Y224146D01*
X104981Y225982D01*
X106818Y224146D01*
Y220472D01*
Y223228D01*
X103144D01*
X108654Y225982D02*
Y220472D01*
X112328D01*
X114164Y219554D02*
X117838D01*
X123348Y225982D02*
X121511Y225064D01*
X119674Y223228D01*
Y221391D01*
X120593Y220472D01*
X122429D01*
X123348Y221391D01*
Y222309D01*
X122429Y223228D01*
X119674D01*
X169291Y248124D02*
Y242126D01*
X172290D01*
X173290Y243126D01*
Y244125D01*
X172290Y245125D01*
X169291D01*
X172290D01*
X173290Y246125D01*
Y247124D01*
X172290Y248124D01*
X169291D01*
X178288D02*
X176289D01*
X175289Y247124D01*
Y243126D01*
X176289Y242126D01*
X178288D01*
X179288Y243126D01*
Y247124D01*
X178288Y248124D01*
X181288D02*
Y242126D01*
Y244125D01*
X185286Y248124D01*
X182287Y245125D01*
X185286Y242126D01*
X191284Y247124D02*
X190285Y248124D01*
X188285D01*
X187285Y247124D01*
Y246125D01*
X188285Y245125D01*
X190285D01*
X191284Y244125D01*
Y243126D01*
X190285Y242126D01*
X188285D01*
X187285Y243126D01*
X193284Y248124D02*
Y242126D01*
Y244125D01*
X197282Y248124D01*
X194283Y245125D01*
X197282Y242126D01*
X202281Y248124D02*
X200281D01*
X199282Y247124D01*
Y243126D01*
X200281Y242126D01*
X202281D01*
X203280Y243126D01*
Y247124D01*
X202281Y248124D01*
X205280Y242126D02*
Y248124D01*
X208279D01*
X209278Y247124D01*
Y245125D01*
X208279Y244125D01*
X205280D01*
X207279D02*
X209278Y242126D01*
X211278Y248124D02*
X215277D01*
X213277D01*
Y242126D01*
X223274Y248124D02*
Y242126D01*
X227273D01*
X229272Y248124D02*
Y247124D01*
X231271Y245125D01*
X233271Y247124D01*
Y248124D01*
X231271Y245125D02*
Y242126D01*
X239269Y247124D02*
X238269Y248124D01*
X236270D01*
X235270Y247124D01*
Y246125D01*
X236270Y245125D01*
X238269D01*
X239269Y244125D01*
Y243126D01*
X238269Y242126D01*
X236270D01*
X235270Y243126D01*
X241268Y242126D02*
Y248124D01*
X244267D01*
X245267Y247124D01*
Y245125D01*
X244267Y244125D01*
X241268D01*
X243267D02*
X245267Y242126D01*
X251265Y248124D02*
X247266D01*
Y242126D01*
X251265D01*
X247266Y245125D02*
X249266D01*
X253264Y248124D02*
Y242126D01*
Y244125D01*
X257263Y248124D01*
X254264Y245125D01*
X257263Y242126D01*
X259262Y248124D02*
Y242126D01*
X263261D01*
X265260D02*
Y246125D01*
X267260Y248124D01*
X269259Y246125D01*
Y242126D01*
Y245125D01*
X265260D01*
X271258Y242126D02*
Y248124D01*
X273258Y246125D01*
X275257Y248124D01*
Y242126D01*
X281255Y248124D02*
X277256D01*
Y242126D01*
X281255D01*
X277256Y245125D02*
X279256D01*
X283255Y242126D02*
Y248124D01*
X287253Y242126D01*
Y248124D01*
X23622Y242219D02*
Y238220D01*
X25621Y236221D01*
X27621Y238220D01*
Y242219D01*
X29620Y236221D02*
Y240219D01*
X31620Y242219D01*
X33619Y240219D01*
Y236221D01*
Y239220D01*
X29620D01*
X35618Y236221D02*
Y240219D01*
X37618Y242219D01*
X39617Y240219D01*
Y236221D01*
Y239220D01*
X35618D01*
X27621Y253030D02*
X26621Y254030D01*
X24622D01*
X23622Y253030D01*
Y249031D01*
X24622Y248032D01*
X26621D01*
X27621Y249031D01*
Y251031D01*
X25621D01*
X29620Y248032D02*
Y254030D01*
X33619Y248032D01*
Y254030D01*
X35618D02*
Y248032D01*
X38617D01*
X39617Y249031D01*
Y253030D01*
X38617Y254030D01*
X35618D01*
X358330Y253030D02*
X357330Y254030D01*
X355330D01*
X354331Y253030D01*
Y249031D01*
X355330Y248032D01*
X357330D01*
X358330Y249031D01*
Y251031D01*
X356330D01*
X360329Y248032D02*
Y254030D01*
X364328Y248032D01*
Y254030D01*
X366327D02*
Y248032D01*
X369326D01*
X370326Y249031D01*
Y253030D01*
X369326Y254030D01*
X366327D01*
X354331Y242219D02*
Y238220D01*
X356330Y236221D01*
X358330Y238220D01*
Y242219D01*
X360329Y236221D02*
Y240219D01*
X362328Y242219D01*
X364328Y240219D01*
Y236221D01*
Y239220D01*
X360329D01*
X366327Y236221D02*
Y240219D01*
X368326Y242219D01*
X370326Y240219D01*
Y236221D01*
Y239220D01*
X366327D01*
X271654Y273621D02*
X272966D01*
X272309D01*
Y269685D01*
X271654D01*
X272966D01*
X274933Y273621D02*
Y269685D01*
X276901D01*
X277557Y270341D01*
Y272965D01*
X276901Y273621D01*
X274933D01*
X285429Y272965D02*
X284773Y273621D01*
X283461D01*
X282805Y272965D01*
Y270341D01*
X283461Y269685D01*
X284773D01*
X285429Y270341D01*
X288708Y273621D02*
X287397D01*
X286740Y272965D01*
Y270341D01*
X287397Y269685D01*
X288708D01*
X289364Y270341D01*
Y272965D01*
X288708Y273621D01*
X290676Y269685D02*
Y273621D01*
X293300Y269685D01*
Y273621D01*
X294612Y269685D02*
Y273621D01*
X297236Y269685D01*
Y273621D01*
X301172D02*
X298548D01*
Y269685D01*
X301172D01*
X298548Y271653D02*
X299860D01*
X305107Y272965D02*
X304451Y273621D01*
X303139D01*
X302484Y272965D01*
Y270341D01*
X303139Y269685D01*
X304451D01*
X305107Y270341D01*
X306419Y273621D02*
X309043D01*
X307731D01*
Y269685D01*
X312323Y273621D02*
X311011D01*
X310355Y272965D01*
Y270341D01*
X311011Y269685D01*
X312323D01*
X312979Y270341D01*
Y272965D01*
X312323Y273621D01*
X314291Y269685D02*
Y273621D01*
X316259D01*
X316915Y272965D01*
Y271653D01*
X316259Y270997D01*
X314291D01*
X315603D02*
X316915Y269685D01*
X362266Y372140D02*
X360267D01*
X361267D01*
Y367141D01*
X360267Y366142D01*
X359267D01*
X358268Y367141D01*
X364266Y366142D02*
X366265D01*
X365265D01*
Y372140D01*
X364266Y371140D01*
X369264D02*
X370264Y372140D01*
X372263D01*
X373263Y371140D01*
Y367141D01*
X372263Y366142D01*
X370264D01*
X369264Y367141D01*
Y371140D01*
X47640Y318898D02*
X53150D01*
Y321653D01*
X52231Y322571D01*
X48558D01*
X47640Y321653D01*
Y318898D01*
X53150Y324408D02*
X47640D01*
X49476Y326244D01*
X47640Y328081D01*
X53150D01*
X47640Y329918D02*
X53150Y333591D01*
X47640D02*
X53150Y329918D01*
X54068Y335428D02*
Y339101D01*
X47640Y340938D02*
Y342775D01*
Y341856D01*
X53150D01*
Y340938D01*
Y342775D01*
Y345530D02*
X47640D01*
X53150Y349203D01*
X47640D01*
X71262Y318898D02*
X76772D01*
Y321653D01*
X75853Y322571D01*
X72180D01*
X71262Y321653D01*
Y318898D01*
X76772Y324408D02*
X71262D01*
X73098Y326244D01*
X71262Y328081D01*
X76772D01*
X71262Y329918D02*
X76772Y333591D01*
X71262D02*
X76772Y329918D01*
X77690Y335428D02*
Y339101D01*
X71262Y343693D02*
Y341856D01*
X72180Y340938D01*
X75853D01*
X76772Y341856D01*
Y343693D01*
X75853Y344611D01*
X72180D01*
X71262Y343693D01*
Y346448D02*
X75853D01*
X76772Y347366D01*
Y349203D01*
X75853Y350121D01*
X71262D01*
Y351958D02*
Y355631D01*
Y353795D01*
X76772D01*
X312992Y324408D02*
Y318898D01*
Y320734D01*
X316666Y324408D01*
X313911Y321653D01*
X316666Y318898D01*
X318502D02*
Y322571D01*
X320339Y324408D01*
X322176Y322571D01*
Y318898D01*
Y321653D01*
X318502D01*
X324012Y318898D02*
Y324408D01*
X327685Y318898D01*
Y324408D01*
X329522Y318898D02*
Y322571D01*
X331359Y324408D01*
X333196Y322571D01*
Y318898D01*
Y321653D01*
X329522D01*
X335032Y324408D02*
Y318898D01*
X338706D01*
X340542Y317979D02*
X344216D01*
X346052Y318898D02*
X347889D01*
X346971D01*
Y324408D01*
X346052Y323489D01*
X267717Y324408D02*
Y318898D01*
Y320734D01*
X271390Y324408D01*
X268635Y321653D01*
X271390Y318898D01*
X273227D02*
Y322571D01*
X275063Y324408D01*
X276900Y322571D01*
Y318898D01*
Y321653D01*
X273227D01*
X278737Y318898D02*
Y324408D01*
X282410Y318898D01*
Y324408D01*
X284247Y318898D02*
Y322571D01*
X286083Y324408D01*
X287920Y322571D01*
Y318898D01*
Y321653D01*
X284247D01*
X289757Y324408D02*
Y318898D01*
X293430D01*
X295267Y317979D02*
X298940D01*
X304450Y318898D02*
X300777D01*
X304450Y322571D01*
Y323489D01*
X303532Y324408D01*
X301695D01*
X300777Y323489D01*
X222441Y324408D02*
Y318898D01*
Y320734D01*
X226114Y324408D01*
X223359Y321653D01*
X226114Y318898D01*
X227951D02*
Y322571D01*
X229788Y324408D01*
X231624Y322571D01*
Y318898D01*
Y321653D01*
X227951D01*
X233461Y318898D02*
Y324408D01*
X237134Y318898D01*
Y324408D01*
X238971Y318898D02*
Y322571D01*
X240808Y324408D01*
X242644Y322571D01*
Y318898D01*
Y321653D01*
X238971D01*
X244481Y324408D02*
Y318898D01*
X248154D01*
X249991Y317979D02*
X253664D01*
X255501Y323489D02*
X256419Y324408D01*
X258256D01*
X259174Y323489D01*
Y322571D01*
X258256Y321653D01*
X257338D01*
X258256D01*
X259174Y320734D01*
Y319816D01*
X258256Y318898D01*
X256419D01*
X255501Y319816D01*
X177165Y324408D02*
Y318898D01*
Y320734D01*
X180839Y324408D01*
X178084Y321653D01*
X180839Y318898D01*
X182675D02*
Y322571D01*
X184512Y324408D01*
X186349Y322571D01*
Y318898D01*
Y321653D01*
X182675D01*
X188185Y318898D02*
Y324408D01*
X191859Y318898D01*
Y324408D01*
X193695Y318898D02*
Y322571D01*
X195532Y324408D01*
X197369Y322571D01*
Y318898D01*
Y321653D01*
X193695D01*
X199206Y324408D02*
Y318898D01*
X202879D01*
X204715Y317979D02*
X208389D01*
X212981Y318898D02*
Y324408D01*
X210226Y321653D01*
X213899D01*
X131890Y324408D02*
Y318898D01*
Y320734D01*
X135563Y324408D01*
X132808Y321653D01*
X135563Y318898D01*
X137400D02*
Y322571D01*
X139236Y324408D01*
X141073Y322571D01*
Y318898D01*
Y321653D01*
X137400D01*
X142910Y318898D02*
Y324408D01*
X146583Y318898D01*
Y324408D01*
X148420Y318898D02*
Y322571D01*
X150257Y324408D01*
X152093Y322571D01*
Y318898D01*
Y321653D01*
X148420D01*
X153930Y324408D02*
Y318898D01*
X157603D01*
X159440Y317979D02*
X163113D01*
X168623Y324408D02*
X164950D01*
Y321653D01*
X166787Y322571D01*
X167705D01*
X168623Y321653D01*
Y319816D01*
X167705Y318898D01*
X165868D01*
X164950Y319816D01*
X86614Y324408D02*
Y318898D01*
Y320734D01*
X90288Y324408D01*
X87533Y321653D01*
X90288Y318898D01*
X92124D02*
Y322571D01*
X93961Y324408D01*
X95798Y322571D01*
Y318898D01*
Y321653D01*
X92124D01*
X97634Y318898D02*
Y324408D01*
X101308Y318898D01*
Y324408D01*
X103144Y318898D02*
Y322571D01*
X104981Y324408D01*
X106818Y322571D01*
Y318898D01*
Y321653D01*
X103144D01*
X108654Y324408D02*
Y318898D01*
X112328D01*
X114164Y317979D02*
X117838D01*
X123348Y324408D02*
X121511Y323489D01*
X119674Y321653D01*
Y319816D01*
X120593Y318898D01*
X122429D01*
X123348Y319816D01*
Y320734D01*
X122429Y321653D01*
X119674D01*
X169291Y346549D02*
Y340551D01*
X172290D01*
X173290Y341551D01*
Y342550D01*
X172290Y343550D01*
X169291D01*
X172290D01*
X173290Y344550D01*
Y345550D01*
X172290Y346549D01*
X169291D01*
X178288D02*
X176289D01*
X175289Y345550D01*
Y341551D01*
X176289Y340551D01*
X178288D01*
X179288Y341551D01*
Y345550D01*
X178288Y346549D01*
X181288D02*
Y340551D01*
Y342550D01*
X185286Y346549D01*
X182287Y343550D01*
X185286Y340551D01*
X191284Y345550D02*
X190285Y346549D01*
X188285D01*
X187285Y345550D01*
Y344550D01*
X188285Y343550D01*
X190285D01*
X191284Y342550D01*
Y341551D01*
X190285Y340551D01*
X188285D01*
X187285Y341551D01*
X193284Y346549D02*
Y340551D01*
Y342550D01*
X197282Y346549D01*
X194283Y343550D01*
X197282Y340551D01*
X202281Y346549D02*
X200281D01*
X199282Y345550D01*
Y341551D01*
X200281Y340551D01*
X202281D01*
X203280Y341551D01*
Y345550D01*
X202281Y346549D01*
X205280Y340551D02*
Y346549D01*
X208279D01*
X209278Y345550D01*
Y343550D01*
X208279Y342550D01*
X205280D01*
X207279D02*
X209278Y340551D01*
X211278Y346549D02*
X215277D01*
X213277D01*
Y340551D01*
X223274Y346549D02*
Y340551D01*
X227273D01*
X229272Y346549D02*
Y345550D01*
X231271Y343550D01*
X233271Y345550D01*
Y346549D01*
X231271Y343550D02*
Y340551D01*
X239269Y345550D02*
X238269Y346549D01*
X236270D01*
X235270Y345550D01*
Y344550D01*
X236270Y343550D01*
X238269D01*
X239269Y342550D01*
Y341551D01*
X238269Y340551D01*
X236270D01*
X235270Y341551D01*
X241268Y340551D02*
Y346549D01*
X244267D01*
X245267Y345550D01*
Y343550D01*
X244267Y342550D01*
X241268D01*
X243267D02*
X245267Y340551D01*
X251265Y346549D02*
X247266D01*
Y340551D01*
X251265D01*
X247266Y343550D02*
X249266D01*
X253264Y346549D02*
Y340551D01*
Y342550D01*
X257263Y346549D01*
X254264Y343550D01*
X257263Y340551D01*
X259262Y346549D02*
Y340551D01*
X263261D01*
X265260D02*
Y344550D01*
X267260Y346549D01*
X269259Y344550D01*
Y340551D01*
Y343550D01*
X265260D01*
X271258Y340551D02*
Y346549D01*
X273258Y344550D01*
X275257Y346549D01*
Y340551D01*
X281255Y346549D02*
X277256D01*
Y340551D01*
X281255D01*
X277256Y343550D02*
X279256D01*
X283255Y340551D02*
Y346549D01*
X287253Y340551D01*
Y346549D01*
X23622Y340644D02*
Y336645D01*
X25621Y334646D01*
X27621Y336645D01*
Y340644D01*
X29620Y334646D02*
Y338644D01*
X31620Y340644D01*
X33619Y338644D01*
Y334646D01*
Y337645D01*
X29620D01*
X35618Y334646D02*
Y338644D01*
X37618Y340644D01*
X39617Y338644D01*
Y334646D01*
Y337645D01*
X35618D01*
X27621Y351455D02*
X26621Y352455D01*
X24622D01*
X23622Y351455D01*
Y347456D01*
X24622Y346457D01*
X26621D01*
X27621Y347456D01*
Y349456D01*
X25621D01*
X29620Y346457D02*
Y352455D01*
X33619Y346457D01*
Y352455D01*
X35618D02*
Y346457D01*
X38617D01*
X39617Y347456D01*
Y351455D01*
X38617Y352455D01*
X35618D01*
X358330Y351455D02*
X357330Y352455D01*
X355330D01*
X354331Y351455D01*
Y347456D01*
X355330Y346457D01*
X357330D01*
X358330Y347456D01*
Y349456D01*
X356330D01*
X360329Y346457D02*
Y352455D01*
X364328Y346457D01*
Y352455D01*
X366327D02*
Y346457D01*
X369326D01*
X370326Y347456D01*
Y351455D01*
X369326Y352455D01*
X366327D01*
X354331Y340644D02*
Y336645D01*
X356330Y334646D01*
X358330Y336645D01*
Y340644D01*
X360329Y334646D02*
Y338644D01*
X362328Y340644D01*
X364328Y338644D01*
Y334646D01*
Y337645D01*
X360329D01*
X366327Y334646D02*
Y338644D01*
X368326Y340644D01*
X370326Y338644D01*
Y334646D01*
Y337645D01*
X366327D01*
X271654Y372046D02*
X272966D01*
X272309D01*
Y368110D01*
X271654D01*
X272966D01*
X274933Y372046D02*
Y368110D01*
X276901D01*
X277557Y368766D01*
Y371390D01*
X276901Y372046D01*
X274933D01*
X285429Y371390D02*
X284773Y372046D01*
X283461D01*
X282805Y371390D01*
Y368766D01*
X283461Y368110D01*
X284773D01*
X285429Y368766D01*
X288708Y372046D02*
X287397D01*
X286740Y371390D01*
Y368766D01*
X287397Y368110D01*
X288708D01*
X289364Y368766D01*
Y371390D01*
X288708Y372046D01*
X290676Y368110D02*
Y372046D01*
X293300Y368110D01*
Y372046D01*
X294612Y368110D02*
Y372046D01*
X297236Y368110D01*
Y372046D01*
X301172D02*
X298548D01*
Y368110D01*
X301172D01*
X298548Y370078D02*
X299860D01*
X305107Y371390D02*
X304451Y372046D01*
X303139D01*
X302484Y371390D01*
Y368766D01*
X303139Y368110D01*
X304451D01*
X305107Y368766D01*
X306419Y372046D02*
X309043D01*
X307731D01*
Y368110D01*
X312323Y372046D02*
X311011D01*
X310355Y371390D01*
Y368766D01*
X311011Y368110D01*
X312323D01*
X312979Y368766D01*
Y371390D01*
X312323Y372046D01*
X314291Y368110D02*
Y372046D01*
X316259D01*
X316915Y371390D01*
Y370078D01*
X316259Y369422D01*
X314291D01*
X315603D02*
X316915Y368110D01*
M02*
