G04 Layer_Color=16711935*
%FSLAX25Y25*%
%MOIN*%
G70*
G01*
G75*
%ADD18C,0.24422*%
%ADD19C,0.08674*%
%ADD20C,0.07887*%
%ADD21R,0.07887X0.07887*%
%ADD22R,0.07887X0.07887*%
D18*
X196850Y78740D02*
D03*
X374016Y19685D02*
D03*
X19685D02*
D03*
X196850Y177165D02*
D03*
X374016Y118110D02*
D03*
X19685D02*
D03*
X196850Y275591D02*
D03*
X374016Y216535D02*
D03*
X19685D02*
D03*
X196850Y374016D02*
D03*
X374016Y314961D02*
D03*
X19685D02*
D03*
D19*
X121299Y15748D02*
D03*
X111299D02*
D03*
X101299D02*
D03*
X91299D02*
D03*
X166575D02*
D03*
X156575D02*
D03*
X146575D02*
D03*
X136575D02*
D03*
X211850D02*
D03*
X201850D02*
D03*
X191850D02*
D03*
X181850D02*
D03*
X257126D02*
D03*
X247126D02*
D03*
X237126D02*
D03*
X227126D02*
D03*
X302402D02*
D03*
X292402D02*
D03*
X282402D02*
D03*
X272402D02*
D03*
X347677D02*
D03*
X337677D02*
D03*
X327677D02*
D03*
X317677D02*
D03*
X121299Y114173D02*
D03*
X111299D02*
D03*
X101299D02*
D03*
X91299D02*
D03*
X166575D02*
D03*
X156575D02*
D03*
X146575D02*
D03*
X136575D02*
D03*
X211850D02*
D03*
X201850D02*
D03*
X191850D02*
D03*
X181850D02*
D03*
X257126D02*
D03*
X247126D02*
D03*
X237126D02*
D03*
X227126D02*
D03*
X302402D02*
D03*
X292402D02*
D03*
X282402D02*
D03*
X272402D02*
D03*
X347677D02*
D03*
X337677D02*
D03*
X327677D02*
D03*
X317677D02*
D03*
X121299Y212598D02*
D03*
X111299D02*
D03*
X101299D02*
D03*
X91299D02*
D03*
X166575D02*
D03*
X156575D02*
D03*
X146575D02*
D03*
X136575D02*
D03*
X211850D02*
D03*
X201850D02*
D03*
X191850D02*
D03*
X181850D02*
D03*
X257126D02*
D03*
X247126D02*
D03*
X237126D02*
D03*
X227126D02*
D03*
X302402D02*
D03*
X292402D02*
D03*
X282402D02*
D03*
X272402D02*
D03*
X347677D02*
D03*
X337677D02*
D03*
X327677D02*
D03*
X317677D02*
D03*
X121299Y311024D02*
D03*
X111299D02*
D03*
X101299D02*
D03*
X91299D02*
D03*
X166575D02*
D03*
X156575D02*
D03*
X146575D02*
D03*
X136575D02*
D03*
X211850D02*
D03*
X201850D02*
D03*
X191850D02*
D03*
X181850D02*
D03*
X257126D02*
D03*
X247126D02*
D03*
X237126D02*
D03*
X227126D02*
D03*
X302402D02*
D03*
X292402D02*
D03*
X282402D02*
D03*
X272402D02*
D03*
X347677D02*
D03*
X337677D02*
D03*
X327677D02*
D03*
X317677D02*
D03*
D20*
X51181Y15748D02*
D03*
X74803D02*
D03*
X151614Y69803D02*
D03*
X141614D02*
D03*
X131614D02*
D03*
X121614D02*
D03*
X111614D02*
D03*
X101614D02*
D03*
X91614D02*
D03*
X81614D02*
D03*
X71614D02*
D03*
X61614D02*
D03*
X51614D02*
D03*
X41614D02*
D03*
X31614D02*
D03*
X21614D02*
D03*
X11614D02*
D03*
X161614Y79803D02*
D03*
X151614D02*
D03*
X141614D02*
D03*
X131614D02*
D03*
X121614D02*
D03*
X111614D02*
D03*
X101614D02*
D03*
X91614D02*
D03*
X81614D02*
D03*
X71614D02*
D03*
X61614D02*
D03*
X51614D02*
D03*
X41614D02*
D03*
X31614D02*
D03*
X21614D02*
D03*
X11614D02*
D03*
X328583Y69803D02*
D03*
Y79803D02*
D03*
X338583Y69803D02*
D03*
X348583D02*
D03*
X338583Y79803D02*
D03*
X379921Y53150D02*
D03*
X13780D02*
D03*
X51181Y114173D02*
D03*
X74803D02*
D03*
X151614Y168228D02*
D03*
X141614D02*
D03*
X131614D02*
D03*
X121614D02*
D03*
X111614D02*
D03*
X101614D02*
D03*
X91614D02*
D03*
X81614D02*
D03*
X71614D02*
D03*
X61614D02*
D03*
X51614D02*
D03*
X41614D02*
D03*
X31614D02*
D03*
X21614D02*
D03*
X11614D02*
D03*
X161614Y178228D02*
D03*
X151614D02*
D03*
X141614D02*
D03*
X131614D02*
D03*
X121614D02*
D03*
X111614D02*
D03*
X101614D02*
D03*
X91614D02*
D03*
X81614D02*
D03*
X71614D02*
D03*
X61614D02*
D03*
X51614D02*
D03*
X41614D02*
D03*
X31614D02*
D03*
X21614D02*
D03*
X11614D02*
D03*
X328583Y168228D02*
D03*
Y178228D02*
D03*
X338583Y168228D02*
D03*
X348583D02*
D03*
X338583Y178228D02*
D03*
X379921Y151575D02*
D03*
X13780D02*
D03*
X51181Y212598D02*
D03*
X74803D02*
D03*
X151614Y266654D02*
D03*
X141614D02*
D03*
X131614D02*
D03*
X121614D02*
D03*
X111614D02*
D03*
X101614D02*
D03*
X91614D02*
D03*
X81614D02*
D03*
X71614D02*
D03*
X61614D02*
D03*
X51614D02*
D03*
X41614D02*
D03*
X31614D02*
D03*
X21614D02*
D03*
X11614D02*
D03*
X161614Y276654D02*
D03*
X151614D02*
D03*
X141614D02*
D03*
X131614D02*
D03*
X121614D02*
D03*
X111614D02*
D03*
X101614D02*
D03*
X91614D02*
D03*
X81614D02*
D03*
X71614D02*
D03*
X61614D02*
D03*
X51614D02*
D03*
X41614D02*
D03*
X31614D02*
D03*
X21614D02*
D03*
X11614D02*
D03*
X328583Y266653D02*
D03*
Y276654D02*
D03*
X338583Y266653D02*
D03*
X348583D02*
D03*
X338583Y276654D02*
D03*
X379921Y250000D02*
D03*
X13780D02*
D03*
X51181Y311024D02*
D03*
X74803D02*
D03*
X151614Y365079D02*
D03*
X141614D02*
D03*
X131614D02*
D03*
X121614D02*
D03*
X111614D02*
D03*
X101614D02*
D03*
X91614D02*
D03*
X81614D02*
D03*
X71614D02*
D03*
X61614D02*
D03*
X51614D02*
D03*
X41614D02*
D03*
X31614D02*
D03*
X21614D02*
D03*
X11614D02*
D03*
X161614Y375079D02*
D03*
X151614D02*
D03*
X141614D02*
D03*
X131614D02*
D03*
X121614D02*
D03*
X111614D02*
D03*
X101614D02*
D03*
X91614D02*
D03*
X81614D02*
D03*
X71614D02*
D03*
X61614D02*
D03*
X51614D02*
D03*
X41614D02*
D03*
X31614D02*
D03*
X21614D02*
D03*
X11614D02*
D03*
X328583Y365079D02*
D03*
Y375079D02*
D03*
X338583Y365079D02*
D03*
X348583D02*
D03*
X338583Y375079D02*
D03*
X379921Y348425D02*
D03*
X13780D02*
D03*
D21*
X41181Y15748D02*
D03*
X64803D02*
D03*
X161614Y69803D02*
D03*
X348583Y79803D02*
D03*
X41181Y114173D02*
D03*
X64803D02*
D03*
X161614Y168228D02*
D03*
X348583Y178228D02*
D03*
X41181Y212598D02*
D03*
X64803D02*
D03*
X161614Y266654D02*
D03*
X348583Y276654D02*
D03*
X41181Y311024D02*
D03*
X64803D02*
D03*
X161614Y365079D02*
D03*
X348583Y375079D02*
D03*
D22*
X379921Y43150D02*
D03*
X13780D02*
D03*
X379921Y141575D02*
D03*
X13780D02*
D03*
X379921Y240000D02*
D03*
X13780D02*
D03*
X379921Y338425D02*
D03*
X13780D02*
D03*
M02*
