G04 Layer_Color=16711935*
%FSLAX25Y25*%
%MOIN*%
G70*
G01*
G75*
%ADD24R,0.04737X0.04343*%
%ADD25R,0.06312X0.03162*%
%ADD26R,0.07887X0.03162*%
%ADD27C,0.07887*%
%ADD28R,0.07887X0.07887*%
%ADD29R,0.07887X0.07887*%
%ADD30C,0.24422*%
%ADD31C,0.05800*%
G36*
X129383Y82878D02*
X129435Y82867D01*
X129484Y82851D01*
X129531Y82828D01*
X129575Y82798D01*
X129614Y82764D01*
X132173Y80205D01*
X132208Y80165D01*
X132237Y80122D01*
X132260Y80075D01*
X132277Y80025D01*
X132287Y79974D01*
X132291Y79921D01*
Y77559D01*
X132287Y77507D01*
X132277Y77455D01*
X132260Y77406D01*
X132237Y77359D01*
X132208Y77315D01*
X132173Y77276D01*
X129614Y74717D01*
X129575Y74682D01*
X129531Y74653D01*
X129484Y74630D01*
X129435Y74613D01*
X129383Y74603D01*
X129331Y74599D01*
X121850D01*
X121798Y74603D01*
X121747Y74613D01*
X121697Y74630D01*
X121650Y74653D01*
X121606Y74682D01*
X121567Y74717D01*
X119008Y77276D01*
X118973Y77315D01*
X118944Y77359D01*
X118921Y77406D01*
X118904Y77455D01*
X118894Y77507D01*
X118891Y77559D01*
Y79921D01*
X118894Y79974D01*
X118904Y80025D01*
X118921Y80075D01*
X118944Y80122D01*
X118973Y80165D01*
X119008Y80205D01*
X121567Y82764D01*
X121606Y82798D01*
X121650Y82828D01*
X121697Y82851D01*
X121747Y82867D01*
X121798Y82878D01*
X121850Y82881D01*
X129331D01*
X129383Y82878D01*
D02*
G37*
G36*
X50643Y110437D02*
X50694Y110427D01*
X50744Y110410D01*
X50791Y110387D01*
X50835Y110357D01*
X50874Y110323D01*
X53433Y107764D01*
X53468Y107724D01*
X53497Y107681D01*
X53520Y107634D01*
X53537Y107584D01*
X53547Y107533D01*
X53550Y107480D01*
Y105118D01*
X53547Y105066D01*
X53537Y105014D01*
X53520Y104965D01*
X53497Y104918D01*
X53468Y104874D01*
X53433Y104835D01*
X50874Y102276D01*
X50835Y102241D01*
X50791Y102212D01*
X50744Y102189D01*
X50694Y102172D01*
X50643Y102162D01*
X50591Y102158D01*
X43110D01*
X43058Y102162D01*
X43007Y102172D01*
X42957Y102189D01*
X42910Y102212D01*
X42866Y102241D01*
X42827Y102276D01*
X40268Y104835D01*
X40233Y104874D01*
X40204Y104918D01*
X40181Y104965D01*
X40164Y105014D01*
X40154Y105066D01*
X40150Y105118D01*
Y107480D01*
X40154Y107533D01*
X40164Y107584D01*
X40181Y107634D01*
X40204Y107681D01*
X40233Y107724D01*
X40268Y107764D01*
X42827Y110323D01*
X42866Y110357D01*
X42910Y110387D01*
X42957Y110410D01*
X43007Y110427D01*
X43058Y110437D01*
X43110Y110440D01*
X50591D01*
X50643Y110437D01*
D02*
G37*
G36*
Y82878D02*
X50694Y82867D01*
X50744Y82851D01*
X50791Y82828D01*
X50835Y82798D01*
X50874Y82764D01*
X53433Y80205D01*
X53468Y80165D01*
X53497Y80122D01*
X53520Y80075D01*
X53537Y80025D01*
X53547Y79974D01*
X53550Y79921D01*
Y77559D01*
X53547Y77507D01*
X53537Y77455D01*
X53520Y77406D01*
X53497Y77359D01*
X53468Y77315D01*
X53433Y77276D01*
X50874Y74717D01*
X50835Y74682D01*
X50791Y74653D01*
X50744Y74630D01*
X50694Y74613D01*
X50643Y74603D01*
X50591Y74599D01*
X43110D01*
X43058Y74603D01*
X43007Y74613D01*
X42957Y74630D01*
X42910Y74653D01*
X42866Y74682D01*
X42827Y74717D01*
X40268Y77276D01*
X40233Y77315D01*
X40204Y77359D01*
X40181Y77406D01*
X40164Y77455D01*
X40154Y77507D01*
X40150Y77559D01*
Y79921D01*
X40154Y79974D01*
X40164Y80025D01*
X40181Y80075D01*
X40204Y80122D01*
X40233Y80165D01*
X40268Y80205D01*
X42827Y82764D01*
X42866Y82798D01*
X42910Y82828D01*
X42957Y82851D01*
X43007Y82867D01*
X43058Y82878D01*
X43110Y82881D01*
X50591D01*
X50643Y82878D01*
D02*
G37*
G36*
X90013D02*
X90064Y82867D01*
X90114Y82851D01*
X90161Y82828D01*
X90205Y82798D01*
X90244Y82764D01*
X92803Y80205D01*
X92838Y80165D01*
X92867Y80122D01*
X92890Y80075D01*
X92907Y80025D01*
X92917Y79974D01*
X92921Y79921D01*
Y77559D01*
X92917Y77507D01*
X92907Y77455D01*
X92890Y77406D01*
X92867Y77359D01*
X92838Y77315D01*
X92803Y77276D01*
X90244Y74717D01*
X90205Y74682D01*
X90161Y74653D01*
X90114Y74630D01*
X90064Y74613D01*
X90013Y74603D01*
X89961Y74599D01*
X82480D01*
X82428Y74603D01*
X82377Y74613D01*
X82327Y74630D01*
X82280Y74653D01*
X82236Y74682D01*
X82197Y74717D01*
X79638Y77276D01*
X79603Y77315D01*
X79574Y77359D01*
X79551Y77406D01*
X79534Y77455D01*
X79524Y77507D01*
X79520Y77559D01*
Y79921D01*
X79524Y79974D01*
X79534Y80025D01*
X79551Y80075D01*
X79574Y80122D01*
X79603Y80165D01*
X79638Y80205D01*
X82197Y82764D01*
X82236Y82798D01*
X82280Y82828D01*
X82327Y82851D01*
X82377Y82867D01*
X82428Y82878D01*
X82480Y82881D01*
X89961D01*
X90013Y82878D01*
D02*
G37*
G36*
Y110437D02*
X90064Y110427D01*
X90114Y110410D01*
X90161Y110387D01*
X90205Y110357D01*
X90244Y110323D01*
X92803Y107764D01*
X92838Y107724D01*
X92867Y107681D01*
X92890Y107634D01*
X92907Y107584D01*
X92917Y107533D01*
X92921Y107480D01*
Y105118D01*
X92917Y105066D01*
X92907Y105014D01*
X92890Y104965D01*
X92867Y104918D01*
X92838Y104874D01*
X92803Y104835D01*
X90244Y102276D01*
X90205Y102241D01*
X90161Y102212D01*
X90114Y102189D01*
X90064Y102172D01*
X90013Y102162D01*
X89961Y102158D01*
X82480D01*
X82428Y102162D01*
X82377Y102172D01*
X82327Y102189D01*
X82280Y102212D01*
X82236Y102241D01*
X82197Y102276D01*
X79638Y104835D01*
X79603Y104874D01*
X79574Y104918D01*
X79551Y104965D01*
X79534Y105014D01*
X79524Y105066D01*
X79520Y105118D01*
Y107480D01*
X79524Y107533D01*
X79534Y107584D01*
X79551Y107634D01*
X79574Y107681D01*
X79603Y107724D01*
X79638Y107764D01*
X82197Y110323D01*
X82236Y110357D01*
X82280Y110387D01*
X82327Y110410D01*
X82377Y110427D01*
X82428Y110437D01*
X82480Y110440D01*
X89961D01*
X90013Y110437D01*
D02*
G37*
G36*
Y137996D02*
X90064Y137986D01*
X90114Y137969D01*
X90161Y137946D01*
X90205Y137917D01*
X90244Y137882D01*
X92803Y135323D01*
X92838Y135283D01*
X92867Y135240D01*
X92890Y135193D01*
X92907Y135143D01*
X92917Y135092D01*
X92921Y135039D01*
Y132677D01*
X92917Y132625D01*
X92907Y132573D01*
X92890Y132524D01*
X92867Y132477D01*
X92838Y132433D01*
X92803Y132394D01*
X90244Y129835D01*
X90205Y129800D01*
X90161Y129771D01*
X90114Y129748D01*
X90064Y129731D01*
X90013Y129721D01*
X89961Y129717D01*
X82480D01*
X82428Y129721D01*
X82377Y129731D01*
X82327Y129748D01*
X82280Y129771D01*
X82236Y129800D01*
X82197Y129835D01*
X79638Y132394D01*
X79603Y132433D01*
X79574Y132477D01*
X79551Y132524D01*
X79534Y132573D01*
X79524Y132625D01*
X79520Y132677D01*
Y135039D01*
X79524Y135092D01*
X79534Y135143D01*
X79551Y135193D01*
X79574Y135240D01*
X79603Y135283D01*
X79638Y135323D01*
X82197Y137882D01*
X82236Y137917D01*
X82280Y137946D01*
X82327Y137969D01*
X82377Y137986D01*
X82428Y137996D01*
X82480Y137999D01*
X89961D01*
X90013Y137996D01*
D02*
G37*
G36*
X129383D02*
X129435Y137986D01*
X129484Y137969D01*
X129531Y137946D01*
X129575Y137917D01*
X129614Y137882D01*
X132173Y135323D01*
X132208Y135283D01*
X132237Y135240D01*
X132260Y135193D01*
X132277Y135143D01*
X132287Y135092D01*
X132291Y135039D01*
Y132677D01*
X132287Y132625D01*
X132277Y132573D01*
X132260Y132524D01*
X132237Y132477D01*
X132208Y132433D01*
X132173Y132394D01*
X129614Y129835D01*
X129575Y129800D01*
X129531Y129771D01*
X129484Y129748D01*
X129435Y129731D01*
X129383Y129721D01*
X129331Y129717D01*
X121850D01*
X121798Y129721D01*
X121747Y129731D01*
X121697Y129748D01*
X121650Y129771D01*
X121606Y129800D01*
X121567Y129835D01*
X119008Y132394D01*
X118973Y132433D01*
X118944Y132477D01*
X118921Y132524D01*
X118904Y132573D01*
X118894Y132625D01*
X118891Y132677D01*
Y135039D01*
X118894Y135092D01*
X118904Y135143D01*
X118921Y135193D01*
X118944Y135240D01*
X118973Y135283D01*
X119008Y135323D01*
X121567Y137882D01*
X121606Y137917D01*
X121650Y137946D01*
X121697Y137969D01*
X121747Y137986D01*
X121798Y137996D01*
X121850Y137999D01*
X129331D01*
X129383Y137996D01*
D02*
G37*
G36*
X129425Y110437D02*
X129477Y110427D01*
X129526Y110410D01*
X129574Y110387D01*
X129617Y110357D01*
X129657Y110323D01*
X132216Y107764D01*
X132250Y107724D01*
X132279Y107681D01*
X132302Y107634D01*
X132319Y107584D01*
X132330Y107533D01*
X132333Y107480D01*
Y105118D01*
X132330Y105066D01*
X132319Y105014D01*
X132302Y104965D01*
X132279Y104918D01*
X132250Y104874D01*
X132216Y104835D01*
X129657Y102276D01*
X129617Y102241D01*
X129574Y102212D01*
X129526Y102189D01*
X129477Y102172D01*
X129425Y102162D01*
X129373Y102158D01*
X121893D01*
X121841Y102162D01*
X121789Y102172D01*
X121739Y102189D01*
X121692Y102212D01*
X121649Y102241D01*
X121609Y102276D01*
X119050Y104835D01*
X119016Y104874D01*
X118987Y104918D01*
X118963Y104965D01*
X118947Y105014D01*
X118936Y105066D01*
X118933Y105118D01*
Y107480D01*
X118936Y107533D01*
X118947Y107584D01*
X118963Y107634D01*
X118987Y107681D01*
X119016Y107724D01*
X119050Y107764D01*
X121609Y110323D01*
X121649Y110357D01*
X121692Y110387D01*
X121739Y110410D01*
X121789Y110427D01*
X121841Y110437D01*
X121893Y110440D01*
X129373D01*
X129425Y110437D01*
D02*
G37*
G36*
X50643Y137996D02*
X50694Y137986D01*
X50744Y137969D01*
X50791Y137946D01*
X50835Y137917D01*
X50874Y137882D01*
X53433Y135323D01*
X53468Y135283D01*
X53497Y135240D01*
X53520Y135193D01*
X53537Y135143D01*
X53547Y135092D01*
X53550Y135039D01*
Y132677D01*
X53547Y132625D01*
X53537Y132573D01*
X53520Y132524D01*
X53497Y132477D01*
X53468Y132433D01*
X53433Y132394D01*
X50874Y129835D01*
X50835Y129800D01*
X50791Y129771D01*
X50744Y129748D01*
X50694Y129731D01*
X50643Y129721D01*
X50591Y129717D01*
X43110D01*
X43058Y129721D01*
X43007Y129731D01*
X42957Y129748D01*
X42910Y129771D01*
X42866Y129800D01*
X42827Y129835D01*
X40268Y132394D01*
X40233Y132433D01*
X40204Y132477D01*
X40181Y132524D01*
X40164Y132573D01*
X40154Y132625D01*
X40150Y132677D01*
Y135039D01*
X40154Y135092D01*
X40164Y135143D01*
X40181Y135193D01*
X40204Y135240D01*
X40233Y135283D01*
X40268Y135323D01*
X42827Y137882D01*
X42866Y137917D01*
X42910Y137946D01*
X42957Y137969D01*
X43007Y137986D01*
X43058Y137996D01*
X43110Y137999D01*
X50591D01*
X50643Y137996D01*
D02*
G37*
D24*
X29134Y130709D02*
D03*
Y137008D02*
D03*
Y103150D02*
D03*
Y109449D02*
D03*
Y75590D02*
D03*
Y81890D02*
D03*
X68504Y130709D02*
D03*
Y137008D02*
D03*
Y103150D02*
D03*
Y109449D02*
D03*
Y75590D02*
D03*
Y81890D02*
D03*
X107874Y130709D02*
D03*
Y137008D02*
D03*
Y103150D02*
D03*
Y109449D02*
D03*
Y75590D02*
D03*
Y81890D02*
D03*
D25*
X114961Y84646D02*
D03*
Y72835D02*
D03*
X115003Y112205D02*
D03*
Y100394D02*
D03*
X114961Y139764D02*
D03*
Y127953D02*
D03*
X36220Y84646D02*
D03*
Y72835D02*
D03*
X75591Y84646D02*
D03*
Y72835D02*
D03*
Y112205D02*
D03*
Y100394D02*
D03*
Y139764D02*
D03*
Y127953D02*
D03*
X36220Y112205D02*
D03*
Y100394D02*
D03*
Y139764D02*
D03*
Y127953D02*
D03*
D26*
X115748Y78740D02*
D03*
X115790Y106299D02*
D03*
X115748Y133858D02*
D03*
X37008Y78740D02*
D03*
X76378D02*
D03*
Y106299D02*
D03*
Y133858D02*
D03*
X37008Y106299D02*
D03*
Y133858D02*
D03*
D27*
X7677Y20748D02*
D03*
X17677D02*
D03*
X27677D02*
D03*
X37677D02*
D03*
X47677D02*
D03*
X57677D02*
D03*
X67677D02*
D03*
X77677D02*
D03*
X87677D02*
D03*
X97677D02*
D03*
X107677D02*
D03*
X117677D02*
D03*
X127677D02*
D03*
X137677D02*
D03*
X147677D02*
D03*
X157677Y10748D02*
D03*
X147677D02*
D03*
X137677D02*
D03*
X127677D02*
D03*
X117677D02*
D03*
X107677D02*
D03*
X97677D02*
D03*
X87677D02*
D03*
X77677D02*
D03*
X67677D02*
D03*
X57677D02*
D03*
X47677D02*
D03*
X37677D02*
D03*
X27677D02*
D03*
X17677D02*
D03*
X7677D02*
D03*
X168228Y31299D02*
D03*
Y41299D02*
D03*
Y51299D02*
D03*
Y61299D02*
D03*
Y71299D02*
D03*
Y81299D02*
D03*
Y91299D02*
D03*
Y101299D02*
D03*
Y111299D02*
D03*
Y121299D02*
D03*
Y131299D02*
D03*
Y141299D02*
D03*
Y151299D02*
D03*
Y161299D02*
D03*
Y171299D02*
D03*
X178228Y181299D02*
D03*
Y171299D02*
D03*
Y161299D02*
D03*
Y151299D02*
D03*
Y141299D02*
D03*
Y131299D02*
D03*
Y121299D02*
D03*
Y111299D02*
D03*
Y101299D02*
D03*
Y91299D02*
D03*
Y81299D02*
D03*
Y71299D02*
D03*
Y61299D02*
D03*
Y51299D02*
D03*
Y41299D02*
D03*
Y31299D02*
D03*
D28*
X157677Y20748D02*
D03*
D29*
X168228Y181299D02*
D03*
D30*
X149606Y173228D02*
D03*
X15748Y39370D02*
D03*
X204724Y-9843D02*
D03*
X15748Y173228D02*
D03*
D31*
X150787Y133071D02*
D03*
X86221Y157480D02*
D03*
X40354Y161417D02*
D03*
Y153543D02*
D03*
X46850Y157480D02*
D03*
X59646Y161417D02*
D03*
Y153543D02*
D03*
X66142Y157480D02*
D03*
X105512D02*
D03*
X99016Y153543D02*
D03*
Y161417D02*
D03*
X125591Y157480D02*
D03*
X119095Y153543D02*
D03*
Y161417D02*
D03*
X79724D02*
D03*
Y153543D02*
D03*
M02*
