G04 Layer_Color=32896*
%FSLAX25Y25*%
%MOIN*%
G70*
G01*
G75*
%ADD13C,0.00787*%
%ADD22C,0.00984*%
%ADD23C,0.01000*%
G36*
X90563Y174146D02*
X90607Y174139D01*
X90680Y174110D01*
X90709Y174088D01*
X90731Y174074D01*
X90738Y174066D01*
X90745Y174059D01*
X90774Y174023D01*
X90796Y173986D01*
X90818Y173921D01*
X90825Y173884D01*
X90833Y173862D01*
Y173848D01*
Y173840D01*
Y173075D01*
X91161D01*
X91204Y173068D01*
X91248Y173060D01*
X91321Y173031D01*
X91365Y172995D01*
X91372Y172987D01*
X91379Y172980D01*
X91408Y172944D01*
X91430Y172907D01*
X91452Y172834D01*
X91460Y172805D01*
X91467Y172783D01*
Y172769D01*
Y172761D01*
X91460Y172710D01*
X91452Y172667D01*
X91423Y172594D01*
X91408Y172572D01*
X91394Y172550D01*
X91379Y172543D01*
Y172535D01*
X91343Y172506D01*
X91306Y172484D01*
X91233Y172462D01*
X91204Y172455D01*
X91183Y172448D01*
X90833D01*
Y170421D01*
X90818Y170283D01*
X90789Y170152D01*
X90745Y170042D01*
X90694Y169948D01*
X90643Y169867D01*
X90599Y169809D01*
X90570Y169773D01*
X90556Y169758D01*
X90446Y169670D01*
X90337Y169605D01*
X90220Y169554D01*
X90118Y169525D01*
X90031Y169503D01*
X89958Y169495D01*
X89929Y169488D01*
X89265D01*
X89119Y169503D01*
X88981Y169532D01*
X88864Y169576D01*
X88770Y169627D01*
X88689Y169678D01*
X88631Y169721D01*
X88602Y169751D01*
X88587Y169765D01*
X88500Y169875D01*
X88434Y169977D01*
X88383Y170071D01*
X88354Y170159D01*
X88332Y170232D01*
X88325Y170283D01*
X88318Y170319D01*
Y170334D01*
Y170385D01*
X88332Y170421D01*
X88361Y170494D01*
X88376Y170523D01*
X88390Y170545D01*
X88398Y170553D01*
X88405Y170560D01*
X88441Y170589D01*
X88478Y170618D01*
X88551Y170640D01*
X88580Y170647D01*
X88609Y170655D01*
X88631D01*
X88711Y170640D01*
X88777Y170611D01*
X88835Y170567D01*
X88879Y170523D01*
X88908Y170472D01*
X88937Y170429D01*
X88945Y170399D01*
X88952Y170385D01*
X88988Y170297D01*
X89039Y170232D01*
X89090Y170181D01*
X89149Y170152D01*
X89200Y170130D01*
X89236Y170122D01*
X89265Y170115D01*
X89892D01*
X89936Y170122D01*
X89980Y170130D01*
X90045Y170159D01*
X90074Y170174D01*
X90096Y170188D01*
X90104Y170203D01*
X90111D01*
X90140Y170239D01*
X90162Y170275D01*
X90191Y170348D01*
X90198Y170378D01*
X90206Y170399D01*
Y170414D01*
Y170421D01*
Y172448D01*
X88945D01*
X88901Y172455D01*
X88857Y172462D01*
X88791Y172492D01*
X88762Y172506D01*
X88740Y172521D01*
X88733Y172535D01*
X88726D01*
X88697Y172572D01*
X88668Y172608D01*
X88646Y172681D01*
X88638Y172718D01*
X88631Y172740D01*
Y172754D01*
Y172761D01*
X88638Y172805D01*
X88646Y172849D01*
X88675Y172915D01*
X88697Y172944D01*
X88711Y172966D01*
X88718Y172973D01*
X88726Y172980D01*
X88762Y173009D01*
X88799Y173038D01*
X88872Y173060D01*
X88901Y173068D01*
X88923Y173075D01*
X90206D01*
Y173840D01*
X90213Y173884D01*
X90220Y173928D01*
X90257Y173993D01*
X90279Y174023D01*
X90293Y174044D01*
X90300Y174052D01*
X90308Y174059D01*
X90344Y174088D01*
X90381Y174117D01*
X90446Y174139D01*
X90475Y174146D01*
X90497Y174154D01*
X90519D01*
X90563Y174146D01*
D02*
G37*
G36*
X118790Y173068D02*
X118833Y173060D01*
X118906Y173031D01*
X118936Y173009D01*
X118957Y172995D01*
X118965Y172987D01*
X118972Y172980D01*
X119001Y172944D01*
X119023Y172907D01*
X119045Y172842D01*
X119052Y172805D01*
X119060Y172783D01*
Y172769D01*
Y172761D01*
Y172156D01*
X117988Y169714D01*
X117944Y169641D01*
X117893Y169583D01*
X117842Y169546D01*
X117791Y169517D01*
X117740Y169503D01*
X117703Y169495D01*
X117674Y169488D01*
X117266D01*
X117208Y169495D01*
X117149Y169525D01*
X117106Y169554D01*
X117062Y169597D01*
X117033Y169634D01*
X117011Y169670D01*
X116996Y169692D01*
X116989Y169700D01*
X115903Y172164D01*
Y172761D01*
X115910Y172805D01*
X115918Y172849D01*
X115947Y172922D01*
X115983Y172966D01*
X115990Y172973D01*
X115998Y172980D01*
X116034Y173009D01*
X116071Y173038D01*
X116144Y173060D01*
X116173Y173068D01*
X116194Y173075D01*
X116216D01*
X116267Y173068D01*
X116311Y173060D01*
X116384Y173031D01*
X116413Y173009D01*
X116435Y172995D01*
X116442Y172987D01*
X116450Y172980D01*
X116479Y172944D01*
X116501Y172907D01*
X116523Y172842D01*
X116530Y172805D01*
X116537Y172783D01*
Y172769D01*
Y172761D01*
Y172288D01*
X117485Y170144D01*
X118432Y172280D01*
Y172761D01*
X118440Y172805D01*
X118447Y172849D01*
X118476Y172922D01*
X118513Y172966D01*
X118520Y172973D01*
X118527Y172980D01*
X118564Y173009D01*
X118600Y173038D01*
X118673Y173060D01*
X118702Y173068D01*
X118724Y173075D01*
X118746D01*
X118790Y173068D01*
D02*
G37*
G36*
X123083D02*
X123127Y173060D01*
X123200Y173024D01*
X123229Y173002D01*
X123251Y172987D01*
X123258Y172980D01*
X123266Y172973D01*
X123295Y172936D01*
X123317Y172900D01*
X123339Y172827D01*
X123346Y172791D01*
X123353Y172769D01*
Y172754D01*
Y172747D01*
X123346Y172703D01*
X123339Y172659D01*
X123310Y172594D01*
X123295Y172565D01*
X123280Y172543D01*
X123266Y172535D01*
Y172528D01*
X123229Y172499D01*
X123193Y172477D01*
X123120Y172455D01*
X123083Y172448D01*
X123062Y172441D01*
X122398D01*
Y170115D01*
X123047D01*
X123091Y170108D01*
X123135Y170100D01*
X123200Y170071D01*
X123229Y170050D01*
X123251Y170035D01*
X123258Y170028D01*
X123266Y170020D01*
X123295Y169984D01*
X123317Y169948D01*
X123339Y169875D01*
X123346Y169845D01*
X123353Y169824D01*
Y169809D01*
Y169802D01*
X123346Y169758D01*
X123339Y169714D01*
X123310Y169641D01*
X123295Y169612D01*
X123280Y169590D01*
X123266Y169583D01*
Y169576D01*
X123229Y169546D01*
X123193Y169525D01*
X123120Y169503D01*
X123083Y169495D01*
X123062Y169488D01*
X121130D01*
X121079Y169495D01*
X121042Y169503D01*
X120969Y169532D01*
X120940Y169546D01*
X120918Y169561D01*
X120911Y169576D01*
X120904D01*
X120875Y169612D01*
X120845Y169649D01*
X120824Y169721D01*
X120816Y169758D01*
X120809Y169780D01*
Y169794D01*
Y169802D01*
X120816Y169845D01*
X120824Y169889D01*
X120860Y169955D01*
X120882Y169984D01*
X120897Y170006D01*
X120904Y170013D01*
X120911Y170020D01*
X120948Y170050D01*
X120984Y170079D01*
X121057Y170100D01*
X121093Y170108D01*
X121115Y170115D01*
X121764D01*
Y172754D01*
X121771Y172805D01*
X121779Y172842D01*
X121808Y172915D01*
X121830Y172944D01*
X121844Y172966D01*
X121852Y172973D01*
X121859Y172980D01*
X121895Y173009D01*
X121932Y173038D01*
X122005Y173060D01*
X122041Y173068D01*
X122063Y173075D01*
X123040D01*
X123083Y173068D01*
D02*
G37*
G36*
X132612Y174416D02*
X132655Y174409D01*
X132721Y174380D01*
X132750Y174358D01*
X132772Y174343D01*
X132779Y174336D01*
X132787Y174329D01*
X132816Y174292D01*
X132838Y174256D01*
X132859Y174183D01*
X132867Y174154D01*
X132874Y174132D01*
Y174117D01*
Y174110D01*
X132867Y174066D01*
X132859Y174023D01*
X132830Y173950D01*
X132816Y173921D01*
X132801Y173899D01*
X132787Y173891D01*
Y173884D01*
X132750Y173855D01*
X132714Y173833D01*
X132641Y173804D01*
X132604Y173797D01*
X132582Y173789D01*
X132232D01*
Y170122D01*
X132568D01*
X132612Y170115D01*
X132655Y170108D01*
X132721Y170071D01*
X132750Y170050D01*
X132772Y170035D01*
X132779Y170028D01*
X132787Y170020D01*
X132816Y169984D01*
X132838Y169948D01*
X132859Y169875D01*
X132867Y169838D01*
X132874Y169816D01*
Y169802D01*
Y169794D01*
X132867Y169751D01*
X132859Y169707D01*
X132830Y169641D01*
X132816Y169612D01*
X132801Y169590D01*
X132787Y169583D01*
Y169576D01*
X132750Y169546D01*
X132714Y169525D01*
X132641Y169503D01*
X132612Y169495D01*
X132590Y169488D01*
X131372D01*
X131270Y169495D01*
X131183Y169510D01*
X131095Y169532D01*
X131022Y169561D01*
X130964Y169583D01*
X130913Y169605D01*
X130884Y169619D01*
X130877Y169627D01*
X130796Y169685D01*
X130731Y169751D01*
X130665Y169816D01*
X130621Y169875D01*
X130585Y169933D01*
X130556Y169977D01*
X130541Y170006D01*
X130534Y170013D01*
X129914Y171245D01*
X129849Y171376D01*
X129805Y171508D01*
X129769Y171624D01*
X129747Y171726D01*
X129732Y171821D01*
X129725Y171887D01*
Y171930D01*
Y171938D01*
Y171945D01*
X129732Y172083D01*
X129754Y172207D01*
X129783Y172331D01*
X129812Y172433D01*
X129841Y172528D01*
X129870Y172594D01*
X129892Y172637D01*
X129900Y172645D01*
Y172652D01*
X130519Y173899D01*
X130563Y173979D01*
X130621Y174044D01*
X130672Y174110D01*
X130731Y174161D01*
X130782Y174205D01*
X130825Y174234D01*
X130855Y174256D01*
X130862Y174263D01*
X130949Y174314D01*
X131030Y174351D01*
X131110Y174380D01*
X131183Y174402D01*
X131241Y174416D01*
X131285Y174424D01*
X132568D01*
X132612Y174416D01*
D02*
G37*
G36*
X104990D02*
X105034Y174409D01*
X105106Y174380D01*
X105136Y174358D01*
X105157Y174343D01*
X105165Y174336D01*
X105172Y174329D01*
X105201Y174292D01*
X105223Y174256D01*
X105245Y174183D01*
X105252Y174146D01*
X105260Y174125D01*
Y174110D01*
Y174103D01*
Y169794D01*
X105252Y169751D01*
X105245Y169707D01*
X105216Y169634D01*
X105187Y169590D01*
X105172Y169583D01*
Y169576D01*
X105136Y169546D01*
X105099Y169525D01*
X105026Y169503D01*
X104990Y169495D01*
X104968Y169488D01*
X104946D01*
X104902Y169495D01*
X104859Y169503D01*
X104793Y169532D01*
X104764Y169546D01*
X104742Y169561D01*
X104735Y169576D01*
X104727D01*
X104698Y169612D01*
X104669Y169649D01*
X104647Y169721D01*
X104640Y169751D01*
X104633Y169773D01*
Y169787D01*
Y169794D01*
Y170742D01*
X104312Y171019D01*
X102635Y169568D01*
X102599Y169539D01*
X102562Y169525D01*
X102489Y169495D01*
X102453D01*
X102431Y169488D01*
X102409D01*
X102365Y169495D01*
X102322Y169503D01*
X102249Y169539D01*
X102205Y169568D01*
X102198Y169576D01*
X102190Y169583D01*
X102161Y169619D01*
X102132Y169663D01*
X102110Y169729D01*
X102103Y169758D01*
X102096Y169780D01*
Y169794D01*
Y169802D01*
X102103Y169845D01*
X102110Y169889D01*
X102147Y169955D01*
X102183Y169991D01*
X102190Y170006D01*
X102198D01*
X103823Y171427D01*
X102504Y172528D01*
X102467Y172565D01*
X102446Y172601D01*
X102416Y172674D01*
X102409Y172703D01*
X102402Y172732D01*
Y172747D01*
Y172754D01*
X102409Y172798D01*
X102416Y172842D01*
X102446Y172907D01*
X102467Y172936D01*
X102482Y172958D01*
X102489Y172966D01*
X102497Y172973D01*
X102533Y173009D01*
X102569Y173031D01*
X102635Y173060D01*
X102672Y173068D01*
X102693Y173075D01*
X102715D01*
X102766Y173068D01*
X102810Y173060D01*
X102883Y173031D01*
X102912Y173009D01*
X102927Y172995D01*
X102941Y172987D01*
X102949Y172980D01*
X104633Y171551D01*
Y174103D01*
X104640Y174154D01*
X104647Y174190D01*
X104676Y174263D01*
X104698Y174292D01*
X104713Y174314D01*
X104720Y174321D01*
X104727Y174329D01*
X104764Y174358D01*
X104800Y174387D01*
X104873Y174409D01*
X104902Y174416D01*
X104924Y174424D01*
X104946D01*
X104990Y174416D01*
D02*
G37*
G36*
X127990Y173068D02*
X128033Y173060D01*
X128106Y173031D01*
X128136Y173009D01*
X128157Y172995D01*
X128165Y172987D01*
X128172Y172980D01*
X128201Y172944D01*
X128223Y172907D01*
X128245Y172834D01*
X128252Y172798D01*
X128259Y172776D01*
Y172761D01*
Y172754D01*
Y169794D01*
X128252Y169751D01*
X128245Y169707D01*
X128216Y169634D01*
X128187Y169590D01*
X128172Y169583D01*
Y169576D01*
X128136Y169546D01*
X128099Y169525D01*
X128026Y169503D01*
X127990Y169495D01*
X127968Y169488D01*
X127946D01*
X127902Y169495D01*
X127858Y169503D01*
X127793Y169532D01*
X127764Y169546D01*
X127742Y169561D01*
X127735Y169576D01*
X127727D01*
X127698Y169612D01*
X127669Y169649D01*
X127647Y169721D01*
X127640Y169751D01*
X127632Y169773D01*
Y169787D01*
Y169794D01*
Y171544D01*
X126750Y172309D01*
X126692Y172353D01*
X126641Y172390D01*
X126590Y172412D01*
X126546Y172433D01*
X126517Y172441D01*
X126488Y172448D01*
X126058D01*
X126014Y172441D01*
X125970Y172433D01*
X125898Y172404D01*
X125854Y172368D01*
X125847Y172360D01*
X125839Y172353D01*
X125810Y172317D01*
X125781Y172280D01*
X125759Y172215D01*
X125752Y172178D01*
X125744Y172156D01*
Y172142D01*
Y172134D01*
Y171959D01*
X125737Y171916D01*
X125730Y171872D01*
X125701Y171799D01*
X125672Y171755D01*
X125657Y171748D01*
Y171741D01*
X125620Y171712D01*
X125584Y171690D01*
X125511Y171668D01*
X125475Y171661D01*
X125453Y171653D01*
X125431D01*
X125387Y171661D01*
X125344Y171668D01*
X125278Y171697D01*
X125249Y171712D01*
X125227Y171726D01*
X125220Y171741D01*
X125212D01*
X125183Y171777D01*
X125154Y171814D01*
X125132Y171887D01*
X125125Y171923D01*
X125118Y171945D01*
Y171959D01*
Y171967D01*
Y172134D01*
X125132Y172273D01*
X125161Y172404D01*
X125205Y172513D01*
X125256Y172608D01*
X125307Y172688D01*
X125351Y172747D01*
X125380Y172783D01*
X125394Y172798D01*
X125504Y172893D01*
X125613Y172958D01*
X125723Y173009D01*
X125832Y173038D01*
X125919Y173060D01*
X125992Y173068D01*
X126021Y173075D01*
X126510D01*
X126627Y173060D01*
X126736Y173031D01*
X126838Y172987D01*
X126933Y172944D01*
X127013Y172893D01*
X127078Y172849D01*
X127115Y172820D01*
X127122Y172805D01*
X127129D01*
X127632Y172375D01*
Y172754D01*
X127640Y172805D01*
X127647Y172842D01*
X127676Y172915D01*
X127698Y172944D01*
X127713Y172966D01*
X127720Y172973D01*
X127727Y172980D01*
X127764Y173009D01*
X127800Y173038D01*
X127873Y173060D01*
X127902Y173068D01*
X127924Y173075D01*
X127946D01*
X127990Y173068D01*
D02*
G37*
G36*
X122449Y174686D02*
X122493Y174679D01*
X122566Y174650D01*
X122595Y174628D01*
X122617Y174613D01*
X122624Y174606D01*
X122632Y174599D01*
X122661Y174562D01*
X122683Y174526D01*
X122705Y174460D01*
X122712Y174424D01*
X122719Y174402D01*
Y174387D01*
Y174380D01*
X122726Y174103D01*
Y174059D01*
X122719Y174023D01*
X122690Y173957D01*
X122661Y173906D01*
X122646Y173899D01*
Y173891D01*
X122610Y173862D01*
X122573Y173840D01*
X122500Y173811D01*
X122464Y173804D01*
X122442Y173797D01*
X122078D01*
X122034Y173804D01*
X121990Y173811D01*
X121924Y173840D01*
X121895Y173855D01*
X121873Y173870D01*
X121866Y173884D01*
X121859D01*
X121830Y173921D01*
X121800Y173957D01*
X121779Y174030D01*
X121771Y174066D01*
X121764Y174088D01*
Y174103D01*
Y174110D01*
Y174380D01*
X121771Y174424D01*
X121779Y174467D01*
X121808Y174540D01*
X121844Y174584D01*
X121852Y174591D01*
X121859Y174599D01*
X121895Y174628D01*
X121932Y174657D01*
X122005Y174679D01*
X122034Y174686D01*
X122056Y174693D01*
X122406D01*
X122449Y174686D01*
D02*
G37*
G36*
X95790Y173068D02*
X95833Y173060D01*
X95906Y173031D01*
X95936Y173009D01*
X95957Y172995D01*
X95965Y172987D01*
X95972Y172980D01*
X96001Y172944D01*
X96023Y172907D01*
X96045Y172834D01*
X96052Y172798D01*
X96060Y172776D01*
Y172761D01*
Y172754D01*
Y169794D01*
X96052Y169751D01*
X96045Y169707D01*
X96016Y169634D01*
X95987Y169590D01*
X95972Y169583D01*
Y169576D01*
X95936Y169546D01*
X95899Y169525D01*
X95826Y169503D01*
X95790Y169495D01*
X95768Y169488D01*
X95746D01*
X95702Y169495D01*
X95659Y169503D01*
X95593Y169532D01*
X95564Y169546D01*
X95542Y169561D01*
X95535Y169576D01*
X95527D01*
X95498Y169612D01*
X95469Y169649D01*
X95447Y169721D01*
X95440Y169751D01*
X95433Y169773D01*
Y169787D01*
Y169794D01*
Y171544D01*
X94551Y172309D01*
X94492Y172353D01*
X94441Y172390D01*
X94390Y172412D01*
X94346Y172433D01*
X94317Y172441D01*
X94288Y172448D01*
X93858D01*
X93814Y172441D01*
X93770Y172433D01*
X93698Y172404D01*
X93654Y172368D01*
X93647Y172360D01*
X93639Y172353D01*
X93610Y172317D01*
X93581Y172280D01*
X93559Y172215D01*
X93552Y172178D01*
X93545Y172156D01*
Y172142D01*
Y172134D01*
Y171959D01*
X93537Y171916D01*
X93530Y171872D01*
X93501Y171799D01*
X93472Y171755D01*
X93457Y171748D01*
Y171741D01*
X93420Y171712D01*
X93384Y171690D01*
X93311Y171668D01*
X93275Y171661D01*
X93253Y171653D01*
X93231D01*
X93187Y171661D01*
X93143Y171668D01*
X93078Y171697D01*
X93049Y171712D01*
X93027Y171726D01*
X93020Y171741D01*
X93012D01*
X92983Y171777D01*
X92954Y171814D01*
X92932Y171887D01*
X92925Y171923D01*
X92918Y171945D01*
Y171959D01*
Y171967D01*
Y172134D01*
X92932Y172273D01*
X92961Y172404D01*
X93005Y172513D01*
X93056Y172608D01*
X93107Y172688D01*
X93151Y172747D01*
X93180Y172783D01*
X93195Y172798D01*
X93304Y172893D01*
X93413Y172958D01*
X93523Y173009D01*
X93632Y173038D01*
X93719Y173060D01*
X93792Y173068D01*
X93822Y173075D01*
X94310D01*
X94427Y173060D01*
X94536Y173031D01*
X94638Y172987D01*
X94733Y172944D01*
X94813Y172893D01*
X94879Y172849D01*
X94915Y172820D01*
X94922Y172805D01*
X94930D01*
X95433Y172375D01*
Y172754D01*
X95440Y172805D01*
X95447Y172842D01*
X95476Y172915D01*
X95498Y172944D01*
X95513Y172966D01*
X95520Y172973D01*
X95527Y172980D01*
X95564Y173009D01*
X95600Y173038D01*
X95673Y173060D01*
X95702Y173068D01*
X95724Y173075D01*
X95746D01*
X95790Y173068D01*
D02*
G37*
G36*
X109590D02*
X109634Y173060D01*
X109706Y173031D01*
X109736Y173009D01*
X109757Y172995D01*
X109765Y172987D01*
X109772Y172980D01*
X109801Y172944D01*
X109823Y172907D01*
X109845Y172834D01*
X109852Y172798D01*
X109860Y172776D01*
Y172761D01*
Y172754D01*
Y169794D01*
X109852Y169751D01*
X109845Y169707D01*
X109816Y169634D01*
X109787Y169590D01*
X109772Y169583D01*
Y169576D01*
X109736Y169546D01*
X109699Y169525D01*
X109626Y169503D01*
X109590Y169495D01*
X109568Y169488D01*
X109546D01*
X109502Y169495D01*
X109458Y169503D01*
X109393Y169532D01*
X109364Y169546D01*
X109342Y169561D01*
X109335Y169576D01*
X109327D01*
X109298Y169612D01*
X109269Y169649D01*
X109247Y169721D01*
X109240Y169751D01*
X109232Y169773D01*
Y169787D01*
Y169794D01*
Y171544D01*
X108351Y172309D01*
X108292Y172353D01*
X108241Y172390D01*
X108190Y172412D01*
X108146Y172433D01*
X108117Y172441D01*
X108088Y172448D01*
X107658D01*
X107614Y172441D01*
X107570Y172433D01*
X107498Y172404D01*
X107454Y172368D01*
X107447Y172360D01*
X107439Y172353D01*
X107410Y172317D01*
X107381Y172280D01*
X107359Y172215D01*
X107352Y172178D01*
X107344Y172156D01*
Y172142D01*
Y172134D01*
Y171959D01*
X107337Y171916D01*
X107330Y171872D01*
X107301Y171799D01*
X107272Y171755D01*
X107257Y171748D01*
Y171741D01*
X107220Y171712D01*
X107184Y171690D01*
X107111Y171668D01*
X107075Y171661D01*
X107053Y171653D01*
X107031D01*
X106987Y171661D01*
X106944Y171668D01*
X106878Y171697D01*
X106849Y171712D01*
X106827Y171726D01*
X106820Y171741D01*
X106812D01*
X106783Y171777D01*
X106754Y171814D01*
X106732Y171887D01*
X106725Y171923D01*
X106718Y171945D01*
Y171959D01*
Y171967D01*
Y172134D01*
X106732Y172273D01*
X106761Y172404D01*
X106805Y172513D01*
X106856Y172608D01*
X106907Y172688D01*
X106951Y172747D01*
X106980Y172783D01*
X106994Y172798D01*
X107104Y172893D01*
X107213Y172958D01*
X107323Y173009D01*
X107432Y173038D01*
X107519Y173060D01*
X107592Y173068D01*
X107622Y173075D01*
X108110D01*
X108227Y173060D01*
X108336Y173031D01*
X108438Y172987D01*
X108533Y172944D01*
X108613Y172893D01*
X108678Y172849D01*
X108715Y172820D01*
X108722Y172805D01*
X108730D01*
X109232Y172375D01*
Y172754D01*
X109240Y172805D01*
X109247Y172842D01*
X109276Y172915D01*
X109298Y172944D01*
X109313Y172966D01*
X109320Y172973D01*
X109327Y172980D01*
X109364Y173009D01*
X109400Y173038D01*
X109473Y173060D01*
X109502Y173068D01*
X109524Y173075D01*
X109546D01*
X109590Y173068D01*
D02*
G37*
G36*
X73228Y169302D02*
X73221Y169258D01*
X73214Y169215D01*
X73185Y169142D01*
X73155Y169098D01*
X73141Y169091D01*
Y169083D01*
X73104Y169054D01*
X73068Y169033D01*
X72995Y169011D01*
X72966Y169003D01*
X72944Y168996D01*
X72922D01*
X72871Y169003D01*
X72835Y169011D01*
X72762Y169040D01*
X72733Y169054D01*
X72711Y169069D01*
X72703Y169083D01*
X72696D01*
X72660Y169120D01*
X72638Y169156D01*
X72609Y169229D01*
X72601Y169258D01*
X72594Y169280D01*
Y169295D01*
Y169302D01*
Y171686D01*
X72157D01*
X70691Y169156D01*
X70655Y169105D01*
X70604Y169062D01*
X70560Y169033D01*
X70517Y169018D01*
X70473Y169003D01*
X70436Y168996D01*
X70407D01*
X70363Y169003D01*
X70320Y169011D01*
X70254Y169040D01*
X70225Y169054D01*
X70203Y169069D01*
X70196Y169083D01*
X70188D01*
X70152Y169120D01*
X70130Y169156D01*
X70101Y169229D01*
X70094Y169258D01*
X70086Y169280D01*
Y169295D01*
Y169302D01*
X70094Y169375D01*
X70116Y169433D01*
X70145Y169477D01*
X70152Y169484D01*
Y169492D01*
X71420Y171686D01*
X71027D01*
X70888Y171701D01*
X70757Y171730D01*
X70648Y171774D01*
X70553Y171825D01*
X70473Y171868D01*
X70414Y171912D01*
X70378Y171941D01*
X70363Y171956D01*
X70269Y172065D01*
X70203Y172175D01*
X70152Y172291D01*
X70123Y172393D01*
X70101Y172488D01*
X70094Y172561D01*
X70086Y172590D01*
Y172612D01*
Y172619D01*
Y172626D01*
Y172984D01*
X70101Y173122D01*
X70130Y173253D01*
X70174Y173363D01*
X70225Y173458D01*
X70276Y173538D01*
X70320Y173596D01*
X70349Y173633D01*
X70363Y173647D01*
X70473Y173742D01*
X70582Y173815D01*
X70691Y173866D01*
X70801Y173895D01*
X70888Y173917D01*
X70961Y173924D01*
X70990Y173931D01*
X73228D01*
Y169302D01*
D02*
G37*
G36*
X49973Y173924D02*
X50017Y173917D01*
X50090Y173888D01*
X50134Y173851D01*
X50141Y173844D01*
X50148Y173837D01*
X50177Y173800D01*
X50199Y173764D01*
X50221Y173691D01*
X50228Y173662D01*
X50236Y173640D01*
Y173625D01*
Y173618D01*
X50228Y173574D01*
X50221Y173530D01*
X50192Y173458D01*
X50177Y173428D01*
X50163Y173407D01*
X50148Y173399D01*
Y173392D01*
X50112Y173363D01*
X50075Y173341D01*
X50002Y173319D01*
X49973Y173312D01*
X49951Y173304D01*
X48989D01*
Y169623D01*
X49944D01*
X49988Y169616D01*
X50032Y169608D01*
X50104Y169579D01*
X50148Y169543D01*
X50156Y169536D01*
X50163Y169528D01*
X50192Y169492D01*
X50214Y169455D01*
X50236Y169390D01*
X50243Y169361D01*
X50250Y169339D01*
Y169324D01*
Y169317D01*
X50243Y169273D01*
X50236Y169229D01*
X50207Y169156D01*
X50192Y169127D01*
X50177Y169105D01*
X50163Y169098D01*
Y169091D01*
X50126Y169062D01*
X50090Y169040D01*
X50017Y169011D01*
X49988Y169003D01*
X49966Y168996D01*
X47429D01*
X47385Y169003D01*
X47342Y169011D01*
X47269Y169040D01*
X47225Y169069D01*
X47218Y169083D01*
X47210D01*
X47181Y169120D01*
X47152Y169156D01*
X47130Y169229D01*
X47123Y169258D01*
X47116Y169280D01*
Y169295D01*
Y169302D01*
Y170921D01*
X47123Y170964D01*
X47130Y171008D01*
X47159Y171081D01*
X47196Y171125D01*
X47203Y171132D01*
X47210Y171139D01*
X47247Y171168D01*
X47283Y171198D01*
X47356Y171220D01*
X47385Y171227D01*
X47407Y171234D01*
X47429D01*
X47473Y171227D01*
X47517Y171220D01*
X47589Y171190D01*
X47619Y171168D01*
X47640Y171154D01*
X47648Y171147D01*
X47655Y171139D01*
X47684Y171103D01*
X47706Y171066D01*
X47728Y170993D01*
X47735Y170964D01*
X47743Y170942D01*
Y170928D01*
Y170921D01*
Y169623D01*
X48362D01*
Y173931D01*
X49929D01*
X49973Y173924D01*
D02*
G37*
G36*
X40547Y173939D02*
X40628Y173917D01*
X40700Y173888D01*
X40759Y173858D01*
X40810Y173822D01*
X40854Y173793D01*
X40875Y173771D01*
X40883Y173764D01*
X40941Y173691D01*
X40985Y173618D01*
X41014Y173552D01*
X41036Y173487D01*
X41050Y173428D01*
X41058Y173385D01*
Y173348D01*
Y173341D01*
Y169594D01*
X41050Y169506D01*
X41028Y169426D01*
X40999Y169353D01*
X40970Y169288D01*
X40941Y169237D01*
X40912Y169200D01*
X40890Y169178D01*
X40883Y169171D01*
X40817Y169113D01*
X40744Y169069D01*
X40671Y169040D01*
X40606Y169018D01*
X40547Y169003D01*
X40503Y168996D01*
X38513D01*
X38426Y169003D01*
X38346Y169025D01*
X38273Y169054D01*
X38207Y169083D01*
X38156Y169113D01*
X38120Y169142D01*
X38098Y169164D01*
X38091Y169171D01*
X38032Y169237D01*
X37988Y169309D01*
X37952Y169382D01*
X37930Y169448D01*
X37916Y169506D01*
X37908Y169550D01*
Y169587D01*
Y169594D01*
Y173341D01*
X37916Y173428D01*
X37938Y173509D01*
X37967Y173582D01*
X37996Y173640D01*
X38032Y173691D01*
X38061Y173735D01*
X38083Y173756D01*
X38091Y173764D01*
X38156Y173822D01*
X38229Y173866D01*
X38302Y173902D01*
X38360Y173924D01*
X38419Y173939D01*
X38462Y173946D01*
X40460D01*
X40547Y173939D01*
D02*
G37*
G36*
X67601Y172575D02*
X67703Y172554D01*
X67805Y172517D01*
X67885Y172481D01*
X67958Y172437D01*
X68009Y172408D01*
X68038Y172379D01*
X68052Y172371D01*
X68315Y172167D01*
X68366Y172124D01*
X68417Y172065D01*
X68490Y171963D01*
X68519Y171912D01*
X68541Y171876D01*
X68548Y171846D01*
X68555Y171839D01*
X68585Y171766D01*
X68607Y171701D01*
X68621Y171642D01*
X68628Y171599D01*
X68636Y171562D01*
X68643Y171533D01*
Y171518D01*
Y171511D01*
Y170082D01*
X68636Y170024D01*
X68628Y169958D01*
X68614Y169900D01*
X68599Y169849D01*
X68585Y169798D01*
X68577Y169762D01*
X68563Y169740D01*
Y169732D01*
X68526Y169667D01*
X68490Y169608D01*
X68453Y169565D01*
X68417Y169521D01*
X68388Y169492D01*
X68366Y169470D01*
X68351Y169455D01*
X68344Y169448D01*
X68067Y169208D01*
X68031Y169178D01*
X67987Y169149D01*
X67899Y169105D01*
X67863Y169083D01*
X67826Y169076D01*
X67805Y169062D01*
X67797D01*
X67666Y169025D01*
X67608Y169011D01*
X67557Y169003D01*
X67513D01*
X67484Y168996D01*
X65807D01*
X65763Y169003D01*
X65720Y169011D01*
X65654Y169040D01*
X65625Y169054D01*
X65603Y169069D01*
X65596Y169083D01*
X65588D01*
X65559Y169120D01*
X65530Y169156D01*
X65508Y169229D01*
X65501Y169266D01*
X65494Y169288D01*
Y169302D01*
Y169309D01*
X65501Y169353D01*
X65508Y169397D01*
X65537Y169463D01*
X65559Y169492D01*
X65574Y169514D01*
X65581Y169521D01*
X65588Y169528D01*
X65625Y169557D01*
X65661Y169587D01*
X65734Y169608D01*
X65763Y169616D01*
X65785Y169623D01*
X67411D01*
X67462Y169630D01*
X67513Y169638D01*
X67601Y169681D01*
X67637Y169696D01*
X67666Y169718D01*
X67688Y169725D01*
X67695Y169732D01*
X67878Y169885D01*
X67921Y169929D01*
X67950Y169973D01*
X67980Y170017D01*
X67994Y170060D01*
X68001Y170097D01*
X68009Y170126D01*
Y170148D01*
Y170155D01*
Y170337D01*
X65807D01*
X65763Y170345D01*
X65720Y170352D01*
X65654Y170381D01*
X65625Y170396D01*
X65603Y170410D01*
X65596Y170425D01*
X65588D01*
X65559Y170461D01*
X65530Y170498D01*
X65508Y170571D01*
X65501Y170600D01*
X65494Y170622D01*
Y170636D01*
Y170644D01*
Y171402D01*
X65501Y171562D01*
X65530Y171701D01*
X65574Y171817D01*
X65618Y171912D01*
X65669Y171985D01*
X65705Y172036D01*
X65734Y172073D01*
X65749Y172080D01*
X65982Y172306D01*
X66091Y172400D01*
X66201Y172466D01*
X66310Y172517D01*
X66405Y172546D01*
X66485Y172568D01*
X66551Y172575D01*
X66594Y172583D01*
X67484D01*
X67601Y172575D01*
D02*
G37*
G36*
X63773D02*
X63817Y172568D01*
X63890Y172539D01*
X63919Y172517D01*
X63941Y172503D01*
X63948Y172495D01*
X63955Y172488D01*
X63985Y172451D01*
X64007Y172415D01*
X64028Y172350D01*
X64036Y172313D01*
X64043Y172291D01*
Y172277D01*
Y172269D01*
Y171664D01*
X62971Y169222D01*
X62928Y169149D01*
X62876Y169091D01*
X62826Y169054D01*
X62774Y169025D01*
X62723Y169011D01*
X62687Y169003D01*
X62658Y168996D01*
X62250D01*
X62191Y169003D01*
X62133Y169033D01*
X62089Y169062D01*
X62046Y169105D01*
X62016Y169142D01*
X61994Y169178D01*
X61980Y169200D01*
X61973Y169208D01*
X60886Y171671D01*
Y172269D01*
X60894Y172313D01*
X60901Y172357D01*
X60930Y172430D01*
X60967Y172473D01*
X60974Y172481D01*
X60981Y172488D01*
X61018Y172517D01*
X61054Y172546D01*
X61127Y172568D01*
X61156Y172575D01*
X61178Y172583D01*
X61200D01*
X61251Y172575D01*
X61295Y172568D01*
X61367Y172539D01*
X61397Y172517D01*
X61419Y172503D01*
X61426Y172495D01*
X61433Y172488D01*
X61462Y172451D01*
X61484Y172415D01*
X61506Y172350D01*
X61513Y172313D01*
X61521Y172291D01*
Y172277D01*
Y172269D01*
Y171795D01*
X62468Y169652D01*
X63416Y171788D01*
Y172269D01*
X63423Y172313D01*
X63431Y172357D01*
X63460Y172430D01*
X63496Y172473D01*
X63503Y172481D01*
X63511Y172488D01*
X63547Y172517D01*
X63584Y172546D01*
X63657Y172568D01*
X63686Y172575D01*
X63708Y172583D01*
X63730D01*
X63773Y172575D01*
D02*
G37*
G36*
X99537Y173068D02*
X99617Y173060D01*
X99770Y173017D01*
X99916Y172958D01*
X100033Y172893D01*
X100135Y172827D01*
X100215Y172769D01*
X100244Y172747D01*
X100266Y172725D01*
X100273Y172718D01*
X100280Y172710D01*
X100346Y172645D01*
X100404Y172572D01*
X100455Y172506D01*
X100499Y172433D01*
X100565Y172309D01*
X100609Y172186D01*
X100638Y172083D01*
X100652Y172011D01*
X100660Y171981D01*
Y171959D01*
Y171945D01*
Y171938D01*
Y170618D01*
X100652Y170545D01*
X100645Y170465D01*
X100601Y170326D01*
X100536Y170195D01*
X100463Y170079D01*
X100397Y169984D01*
X100331Y169911D01*
X100310Y169882D01*
X100288Y169860D01*
X100280Y169853D01*
X100273Y169845D01*
X100200Y169780D01*
X100127Y169729D01*
X100054Y169678D01*
X99981Y169641D01*
X99843Y169576D01*
X99719Y169532D01*
X99610Y169510D01*
X99566Y169503D01*
X99530Y169495D01*
X99500Y169488D01*
X98728D01*
X98647Y169495D01*
X98575Y169503D01*
X98422Y169546D01*
X98283Y169597D01*
X98159Y169663D01*
X98057Y169729D01*
X97977Y169787D01*
X97948Y169809D01*
X97926Y169824D01*
X97918Y169831D01*
X97911Y169838D01*
X97838Y169904D01*
X97780Y169977D01*
X97722Y170042D01*
X97678Y170108D01*
X97605Y170239D01*
X97561Y170363D01*
X97532Y170465D01*
X97518Y170545D01*
X97510Y170574D01*
Y170596D01*
Y170611D01*
Y170618D01*
Y171938D01*
X97518Y172018D01*
X97525Y172098D01*
X97576Y172244D01*
X97634Y172375D01*
X97707Y172492D01*
X97787Y172586D01*
X97846Y172659D01*
X97875Y172688D01*
X97897Y172710D01*
X97904Y172718D01*
X97911Y172725D01*
X97984Y172791D01*
X98057Y172842D01*
X98130Y172893D01*
X98203Y172929D01*
X98341Y172995D01*
X98465Y173031D01*
X98575Y173060D01*
X98655Y173068D01*
X98684Y173075D01*
X99457D01*
X99537Y173068D01*
D02*
G37*
G36*
X113417D02*
X113519Y173046D01*
X113621Y173009D01*
X113701Y172973D01*
X113774Y172929D01*
X113825Y172900D01*
X113854Y172871D01*
X113869Y172863D01*
X114131Y172659D01*
X114182Y172616D01*
X114234Y172557D01*
X114306Y172455D01*
X114336Y172404D01*
X114357Y172368D01*
X114365Y172339D01*
X114372Y172331D01*
X114401Y172258D01*
X114423Y172193D01*
X114438Y172134D01*
X114445Y172091D01*
X114452Y172054D01*
X114460Y172025D01*
Y172011D01*
Y172003D01*
Y170574D01*
X114452Y170516D01*
X114445Y170450D01*
X114430Y170392D01*
X114416Y170341D01*
X114401Y170290D01*
X114394Y170254D01*
X114379Y170232D01*
Y170224D01*
X114343Y170159D01*
X114306Y170100D01*
X114270Y170057D01*
X114234Y170013D01*
X114204Y169984D01*
X114182Y169962D01*
X114168Y169948D01*
X114161Y169940D01*
X113884Y169700D01*
X113847Y169670D01*
X113803Y169641D01*
X113716Y169597D01*
X113679Y169576D01*
X113643Y169568D01*
X113621Y169554D01*
X113614D01*
X113483Y169517D01*
X113424Y169503D01*
X113373Y169495D01*
X113330D01*
X113300Y169488D01*
X111624D01*
X111580Y169495D01*
X111536Y169503D01*
X111471Y169532D01*
X111441Y169546D01*
X111420Y169561D01*
X111412Y169576D01*
X111405D01*
X111376Y169612D01*
X111347Y169649D01*
X111325Y169721D01*
X111318Y169758D01*
X111310Y169780D01*
Y169794D01*
Y169802D01*
X111318Y169845D01*
X111325Y169889D01*
X111354Y169955D01*
X111376Y169984D01*
X111390Y170006D01*
X111398Y170013D01*
X111405Y170020D01*
X111441Y170050D01*
X111478Y170079D01*
X111551Y170100D01*
X111580Y170108D01*
X111602Y170115D01*
X113227D01*
X113278Y170122D01*
X113330Y170130D01*
X113417Y170174D01*
X113453Y170188D01*
X113483Y170210D01*
X113505Y170217D01*
X113512Y170224D01*
X113694Y170378D01*
X113738Y170421D01*
X113767Y170465D01*
X113796Y170509D01*
X113811Y170553D01*
X113818Y170589D01*
X113825Y170618D01*
Y170640D01*
Y170647D01*
Y170829D01*
X111624D01*
X111580Y170837D01*
X111536Y170844D01*
X111471Y170873D01*
X111441Y170888D01*
X111420Y170902D01*
X111412Y170917D01*
X111405D01*
X111376Y170954D01*
X111347Y170990D01*
X111325Y171063D01*
X111318Y171092D01*
X111310Y171114D01*
Y171128D01*
Y171136D01*
Y171894D01*
X111318Y172054D01*
X111347Y172193D01*
X111390Y172309D01*
X111434Y172404D01*
X111485Y172477D01*
X111522Y172528D01*
X111551Y172565D01*
X111565Y172572D01*
X111799Y172798D01*
X111908Y172893D01*
X112017Y172958D01*
X112127Y173009D01*
X112222Y173038D01*
X112302Y173060D01*
X112367Y173068D01*
X112411Y173075D01*
X113300D01*
X113417Y173068D01*
D02*
G37*
G36*
X44440Y170964D02*
X44484Y170957D01*
X44557Y170928D01*
X44586Y170906D01*
X44608Y170891D01*
X44615Y170884D01*
X44622Y170877D01*
X44651Y170840D01*
X44673Y170804D01*
X44695Y170731D01*
X44703Y170702D01*
X44710Y170680D01*
Y170666D01*
Y170658D01*
Y170111D01*
X44703Y170068D01*
X44695Y170024D01*
X44666Y169958D01*
X44651Y169929D01*
X44637Y169907D01*
X44622Y169900D01*
Y169893D01*
X44586Y169864D01*
X44550Y169842D01*
X44477Y169820D01*
X44447Y169813D01*
X44426Y169805D01*
X43762D01*
X43718Y169813D01*
X43675Y169820D01*
X43602Y169856D01*
X43558Y169885D01*
X43551Y169893D01*
X43543Y169900D01*
X43514Y169937D01*
X43485Y169973D01*
X43463Y170046D01*
X43456Y170075D01*
X43449Y170097D01*
Y170111D01*
Y170119D01*
Y170658D01*
X43456Y170702D01*
X43463Y170746D01*
X43492Y170811D01*
X43514Y170840D01*
X43529Y170862D01*
X43536Y170870D01*
X43543Y170877D01*
X43580Y170906D01*
X43616Y170935D01*
X43689Y170957D01*
X43718Y170964D01*
X43740Y170972D01*
X44396D01*
X44440Y170964D01*
D02*
G37*
G36*
X58240D02*
X58284Y170957D01*
X58357Y170928D01*
X58386Y170906D01*
X58408Y170891D01*
X58415Y170884D01*
X58422Y170877D01*
X58451Y170840D01*
X58473Y170804D01*
X58495Y170731D01*
X58503Y170702D01*
X58510Y170680D01*
Y170666D01*
Y170658D01*
Y170111D01*
X58503Y170068D01*
X58495Y170024D01*
X58466Y169958D01*
X58451Y169929D01*
X58437Y169907D01*
X58422Y169900D01*
Y169893D01*
X58386Y169864D01*
X58350Y169842D01*
X58277Y169820D01*
X58247Y169813D01*
X58226Y169805D01*
X57562D01*
X57518Y169813D01*
X57475Y169820D01*
X57402Y169856D01*
X57358Y169885D01*
X57351Y169893D01*
X57343Y169900D01*
X57314Y169937D01*
X57285Y169973D01*
X57263Y170046D01*
X57256Y170075D01*
X57249Y170097D01*
Y170111D01*
Y170119D01*
Y170658D01*
X57256Y170702D01*
X57263Y170746D01*
X57292Y170811D01*
X57314Y170840D01*
X57329Y170862D01*
X57336Y170870D01*
X57343Y170877D01*
X57380Y170906D01*
X57416Y170935D01*
X57489Y170957D01*
X57518Y170964D01*
X57540Y170972D01*
X58196D01*
X58240Y170964D01*
D02*
G37*
G36*
X112982Y180457D02*
X113026Y180449D01*
X113099Y180420D01*
X113128Y180398D01*
X113150Y180384D01*
X113157Y180377D01*
X113164Y180369D01*
X113193Y180333D01*
X113215Y180296D01*
X113244Y180224D01*
X113252Y180194D01*
X113259Y180173D01*
Y180158D01*
Y180151D01*
Y179669D01*
X114105Y177781D01*
X114323D01*
X115140Y179677D01*
Y180143D01*
X115147Y180187D01*
X115154Y180231D01*
X115191Y180304D01*
X115227Y180347D01*
X115235Y180355D01*
X115242Y180362D01*
X115278Y180391D01*
X115315Y180420D01*
X115388Y180442D01*
X115424Y180449D01*
X115446Y180457D01*
X115468D01*
X115512Y180449D01*
X115555Y180442D01*
X115621Y180413D01*
X115665Y180377D01*
X115672Y180369D01*
X115679Y180362D01*
X115708Y180325D01*
X115730Y180289D01*
X115752Y180224D01*
X115759Y180187D01*
X115767Y180165D01*
Y180151D01*
Y180143D01*
Y179538D01*
X114834Y177366D01*
X114790Y177293D01*
X114746Y177242D01*
X114695Y177198D01*
X114644Y177176D01*
X114600Y177162D01*
X114564Y177154D01*
X114535Y177147D01*
X114374D01*
X114804Y176148D01*
X115519D01*
X115563Y176134D01*
X115636Y176105D01*
X115679Y176075D01*
X115687Y176068D01*
X115694Y176061D01*
X115723Y176024D01*
X115745Y175988D01*
X115767Y175922D01*
X115774Y175886D01*
X115781Y175864D01*
Y175849D01*
Y175842D01*
X115774Y175798D01*
X115767Y175755D01*
X115738Y175682D01*
X115708Y175638D01*
X115694Y175631D01*
Y175624D01*
X115657Y175594D01*
X115621Y175573D01*
X115548Y175543D01*
X115519Y175536D01*
X115497Y175529D01*
X114608D01*
X114535Y175536D01*
X114469Y175558D01*
X114418Y175594D01*
X114382Y175631D01*
X114345Y175667D01*
X114323Y175704D01*
X114316Y175725D01*
X114309Y175733D01*
X112625Y179538D01*
Y180151D01*
X112632Y180194D01*
X112639Y180238D01*
X112669Y180304D01*
X112690Y180333D01*
X112705Y180355D01*
X112712Y180362D01*
X112720Y180369D01*
X112756Y180398D01*
X112792Y180428D01*
X112865Y180449D01*
X112894Y180457D01*
X112916Y180464D01*
X112938D01*
X112982Y180457D01*
D02*
G37*
G36*
X120104Y181798D02*
X120148Y181791D01*
X120221Y181762D01*
X120250Y181740D01*
X120272Y181725D01*
X120279Y181718D01*
X120287Y181711D01*
X120316Y181674D01*
X120338Y181638D01*
X120359Y181565D01*
X120367Y181536D01*
X120374Y181514D01*
Y181499D01*
Y181492D01*
Y176870D01*
X117545D01*
X117494Y176877D01*
X117458Y176885D01*
X117385Y176914D01*
X117356Y176928D01*
X117334Y176943D01*
X117327Y176958D01*
X117320D01*
X117290Y176994D01*
X117261Y177031D01*
X117239Y177103D01*
X117232Y177140D01*
X117225Y177162D01*
Y177176D01*
Y177183D01*
X117232Y177227D01*
X117239Y177271D01*
X117269Y177337D01*
X117290Y177366D01*
X117305Y177388D01*
X117312Y177395D01*
X117320Y177402D01*
X117356Y177431D01*
X117392Y177461D01*
X117465Y177482D01*
X117502Y177490D01*
X117524Y177497D01*
X119747D01*
Y181492D01*
X119754Y181536D01*
X119762Y181579D01*
X119791Y181645D01*
X119813Y181674D01*
X119827Y181696D01*
X119835Y181703D01*
X119842Y181711D01*
X119878Y181740D01*
X119915Y181769D01*
X119988Y181791D01*
X120017Y181798D01*
X120039Y181805D01*
X120061D01*
X120104Y181798D01*
D02*
G37*
G36*
X55712D02*
X55756Y181791D01*
X55828Y181762D01*
X55872Y181725D01*
X55879Y181718D01*
X55887Y181711D01*
X55916Y181674D01*
X55938Y181638D01*
X55960Y181565D01*
X55967Y181536D01*
X55974Y181514D01*
Y181499D01*
Y181492D01*
X55967Y181448D01*
X55960Y181404D01*
X55930Y181332D01*
X55916Y181302D01*
X55901Y181281D01*
X55887Y181273D01*
Y181266D01*
X55850Y181237D01*
X55814Y181215D01*
X55741Y181193D01*
X55712Y181186D01*
X55690Y181178D01*
X54728D01*
Y177497D01*
X55683D01*
X55726Y177490D01*
X55770Y177482D01*
X55843Y177453D01*
X55887Y177417D01*
X55894Y177410D01*
X55901Y177402D01*
X55930Y177366D01*
X55952Y177329D01*
X55974Y177264D01*
X55981Y177235D01*
X55989Y177213D01*
Y177198D01*
Y177191D01*
X55981Y177147D01*
X55974Y177103D01*
X55945Y177031D01*
X55930Y177001D01*
X55916Y176979D01*
X55901Y176972D01*
Y176965D01*
X55865Y176936D01*
X55828Y176914D01*
X55756Y176885D01*
X55726Y176877D01*
X55704Y176870D01*
X53167D01*
X53124Y176877D01*
X53080Y176885D01*
X53007Y176914D01*
X52963Y176943D01*
X52956Y176958D01*
X52949D01*
X52920Y176994D01*
X52890Y177031D01*
X52869Y177103D01*
X52861Y177132D01*
X52854Y177154D01*
Y177169D01*
Y177176D01*
Y178795D01*
X52861Y178838D01*
X52869Y178882D01*
X52898Y178955D01*
X52934Y178999D01*
X52942Y179006D01*
X52949Y179013D01*
X52985Y179042D01*
X53022Y179072D01*
X53095Y179094D01*
X53124Y179101D01*
X53146Y179108D01*
X53167D01*
X53211Y179101D01*
X53255Y179094D01*
X53328Y179064D01*
X53357Y179042D01*
X53379Y179028D01*
X53386Y179021D01*
X53394Y179013D01*
X53423Y178977D01*
X53444Y178940D01*
X53466Y178867D01*
X53474Y178838D01*
X53481Y178816D01*
Y178802D01*
Y178795D01*
Y177497D01*
X54101D01*
Y181805D01*
X55668D01*
X55712Y181798D01*
D02*
G37*
G36*
X100939Y180449D02*
X101041Y180428D01*
X101143Y180391D01*
X101223Y180355D01*
X101296Y180311D01*
X101347Y180282D01*
X101376Y180253D01*
X101391Y180245D01*
X101653Y180041D01*
X101704Y179998D01*
X101755Y179939D01*
X101828Y179837D01*
X101857Y179786D01*
X101879Y179750D01*
X101887Y179720D01*
X101894Y179713D01*
X101923Y179640D01*
X101945Y179575D01*
X101960Y179516D01*
X101967Y179473D01*
X101974Y179436D01*
X101981Y179407D01*
Y179392D01*
Y179385D01*
Y177956D01*
X101974Y177898D01*
X101967Y177832D01*
X101952Y177774D01*
X101938Y177723D01*
X101923Y177672D01*
X101916Y177636D01*
X101901Y177614D01*
Y177606D01*
X101865Y177541D01*
X101828Y177482D01*
X101792Y177439D01*
X101755Y177395D01*
X101726Y177366D01*
X101704Y177344D01*
X101690Y177329D01*
X101682Y177322D01*
X101405Y177082D01*
X101369Y177052D01*
X101325Y177023D01*
X101238Y176979D01*
X101201Y176958D01*
X101165Y176950D01*
X101143Y176936D01*
X101136D01*
X101005Y176899D01*
X100946Y176885D01*
X100895Y176877D01*
X100851D01*
X100822Y176870D01*
X99146D01*
X99102Y176877D01*
X99058Y176885D01*
X98992Y176914D01*
X98963Y176928D01*
X98941Y176943D01*
X98934Y176958D01*
X98927D01*
X98898Y176994D01*
X98869Y177031D01*
X98847Y177103D01*
X98839Y177140D01*
X98832Y177162D01*
Y177176D01*
Y177183D01*
X98839Y177227D01*
X98847Y177271D01*
X98876Y177337D01*
X98898Y177366D01*
X98912Y177388D01*
X98920Y177395D01*
X98927Y177402D01*
X98963Y177431D01*
X99000Y177461D01*
X99073Y177482D01*
X99102Y177490D01*
X99124Y177497D01*
X100749D01*
X100800Y177504D01*
X100851Y177512D01*
X100939Y177555D01*
X100975Y177570D01*
X101005Y177592D01*
X101026Y177599D01*
X101034Y177606D01*
X101216Y177760D01*
X101260Y177803D01*
X101289Y177847D01*
X101318Y177891D01*
X101332Y177934D01*
X101340Y177971D01*
X101347Y178000D01*
Y178022D01*
Y178029D01*
Y178211D01*
X99146D01*
X99102Y178219D01*
X99058Y178226D01*
X98992Y178255D01*
X98963Y178270D01*
X98941Y178284D01*
X98934Y178299D01*
X98927D01*
X98898Y178335D01*
X98869Y178372D01*
X98847Y178445D01*
X98839Y178474D01*
X98832Y178496D01*
Y178510D01*
Y178518D01*
Y179276D01*
X98839Y179436D01*
X98869Y179575D01*
X98912Y179691D01*
X98956Y179786D01*
X99007Y179859D01*
X99044Y179910D01*
X99073Y179946D01*
X99087Y179954D01*
X99321Y180180D01*
X99430Y180274D01*
X99539Y180340D01*
X99649Y180391D01*
X99743Y180420D01*
X99823Y180442D01*
X99889Y180449D01*
X99933Y180457D01*
X100822D01*
X100939Y180449D01*
D02*
G37*
G36*
X110431D02*
X110540Y180420D01*
X110642Y180377D01*
X110722Y180333D01*
X110788Y180289D01*
X110839Y180245D01*
X110875Y180216D01*
X110882Y180209D01*
X110955Y180114D01*
X111014Y180012D01*
X111050Y179917D01*
X111079Y179823D01*
X111094Y179742D01*
X111101Y179684D01*
X111108Y179640D01*
Y179633D01*
Y179626D01*
X111101Y179545D01*
X111087Y179473D01*
X111072Y179400D01*
X111043Y179341D01*
X111021Y179283D01*
X111006Y179247D01*
X110992Y179218D01*
X110985Y179210D01*
X110933Y179137D01*
X110868Y179079D01*
X110810Y179021D01*
X110751Y178977D01*
X110693Y178940D01*
X110649Y178919D01*
X110620Y178904D01*
X110613Y178897D01*
X108929Y178146D01*
X108856Y178102D01*
X108805Y178058D01*
X108768Y178007D01*
X108747Y177956D01*
X108725Y177913D01*
X108717Y177876D01*
Y177847D01*
Y177840D01*
X108725Y177789D01*
X108732Y177745D01*
X108761Y177665D01*
X108783Y177636D01*
X108798Y177621D01*
X108805Y177606D01*
X108812Y177599D01*
X108849Y177563D01*
X108885Y177541D01*
X108965Y177512D01*
X108994Y177504D01*
X109023Y177497D01*
X110212D01*
X110299Y177504D01*
X110379Y177519D01*
X110445Y177541D01*
X110503Y177563D01*
X110547Y177585D01*
X110576Y177606D01*
X110598Y177621D01*
X110605Y177628D01*
X110656Y177672D01*
X110700Y177708D01*
X110744Y177730D01*
X110780Y177752D01*
X110817Y177760D01*
X110839Y177767D01*
X110861D01*
X110912Y177760D01*
X110955Y177752D01*
X111028Y177716D01*
X111057Y177694D01*
X111079Y177679D01*
X111087Y177672D01*
X111094Y177665D01*
X111123Y177628D01*
X111145Y177592D01*
X111167Y177519D01*
X111174Y177490D01*
X111181Y177468D01*
Y177453D01*
Y177446D01*
X111167Y177380D01*
X111138Y177307D01*
X111094Y177249D01*
X111043Y177191D01*
X110992Y177140D01*
X110948Y177103D01*
X110919Y177074D01*
X110904Y177067D01*
X110795Y177001D01*
X110693Y176950D01*
X110591Y176921D01*
X110496Y176892D01*
X110416Y176877D01*
X110350Y176870D01*
X109031D01*
X108900Y176885D01*
X108783Y176914D01*
X108674Y176958D01*
X108579Y177009D01*
X108499Y177060D01*
X108440Y177103D01*
X108404Y177132D01*
X108389Y177147D01*
X108294Y177256D01*
X108222Y177373D01*
X108171Y177482D01*
X108134Y177592D01*
X108112Y177687D01*
X108105Y177760D01*
X108098Y177789D01*
Y177811D01*
Y177818D01*
Y177825D01*
X108105Y177934D01*
X108127Y178036D01*
X108149Y178131D01*
X108178Y178211D01*
X108214Y178277D01*
X108236Y178328D01*
X108258Y178357D01*
X108265Y178372D01*
X108331Y178459D01*
X108397Y178532D01*
X108469Y178591D01*
X108535Y178642D01*
X108593Y178678D01*
X108637Y178707D01*
X108666Y178722D01*
X108681Y178729D01*
X110343Y179473D01*
X110387Y179495D01*
X110416Y179524D01*
X110445Y179553D01*
X110460Y179589D01*
X110474Y179633D01*
Y179648D01*
Y179655D01*
X110467Y179713D01*
X110445Y179757D01*
X110409Y179786D01*
X110372Y179808D01*
X110336Y179823D01*
X110299Y179830D01*
X108856D01*
X108805Y179823D01*
X108754Y179808D01*
X108674Y179764D01*
X108644Y179735D01*
X108623Y179713D01*
X108608Y179699D01*
X108601Y179691D01*
X108550Y179648D01*
X108506Y179618D01*
X108455Y179589D01*
X108418Y179575D01*
X108382Y179567D01*
X108353Y179560D01*
X108324D01*
X108280Y179567D01*
X108244Y179575D01*
X108178Y179604D01*
X108134Y179626D01*
X108127Y179640D01*
X108119D01*
X108083Y179677D01*
X108061Y179713D01*
X108032Y179786D01*
X108025Y179815D01*
X108018Y179844D01*
Y179859D01*
Y179866D01*
X108032Y179939D01*
X108061Y180005D01*
X108098Y180070D01*
X108149Y180129D01*
X108200Y180180D01*
X108236Y180216D01*
X108265Y180245D01*
X108280Y180253D01*
X108375Y180318D01*
X108477Y180369D01*
X108579Y180406D01*
X108674Y180435D01*
X108754Y180449D01*
X108812Y180457D01*
X110307D01*
X110431Y180449D01*
D02*
G37*
G36*
X74112D02*
X74155Y180442D01*
X74228Y180413D01*
X74257Y180391D01*
X74279Y180377D01*
X74287Y180369D01*
X74294Y180362D01*
X74323Y180325D01*
X74345Y180289D01*
X74367Y180216D01*
X74374Y180180D01*
X74381Y180158D01*
Y180143D01*
Y180136D01*
Y177176D01*
X74374Y177132D01*
X74367Y177089D01*
X74338Y177023D01*
X74323Y176994D01*
X74309Y176972D01*
X74294Y176965D01*
Y176958D01*
X74257Y176928D01*
X74221Y176907D01*
X74148Y176885D01*
X74112Y176877D01*
X74090Y176870D01*
X74068D01*
X74024Y176877D01*
X73980Y176885D01*
X73915Y176914D01*
X73886Y176928D01*
X73864Y176943D01*
X73857Y176958D01*
X73849D01*
X73820Y176994D01*
X73791Y177031D01*
X73769Y177103D01*
X73762Y177132D01*
X73755Y177154D01*
Y177169D01*
Y177176D01*
Y179174D01*
X72901Y179720D01*
X72843Y179757D01*
X72785Y179786D01*
X72734Y179801D01*
X72690Y179815D01*
X72646Y179823D01*
X72617Y179830D01*
X72238D01*
X72187Y179815D01*
X72100Y179779D01*
X72041Y179728D01*
X71998Y179669D01*
X71968Y179604D01*
X71954Y179553D01*
X71947Y179516D01*
Y179509D01*
Y179502D01*
X71845Y177176D01*
X71837Y177125D01*
X71830Y177082D01*
X71794Y177009D01*
X71764Y176965D01*
X71757Y176958D01*
X71750Y176950D01*
X71713Y176921D01*
X71677Y176907D01*
X71604Y176877D01*
X71575D01*
X71553Y176870D01*
X71531D01*
X71487Y176877D01*
X71443Y176885D01*
X71378Y176914D01*
X71349Y176928D01*
X71327Y176943D01*
X71320Y176958D01*
X71312D01*
X71283Y176994D01*
X71254Y177031D01*
X71232Y177103D01*
X71225Y177132D01*
X71218Y177154D01*
Y177169D01*
Y177176D01*
X71312Y179538D01*
X71334Y179677D01*
X71363Y179801D01*
X71414Y179910D01*
X71465Y180005D01*
X71516Y180085D01*
X71560Y180143D01*
X71589Y180173D01*
X71604Y180187D01*
X71706Y180274D01*
X71815Y180340D01*
X71925Y180391D01*
X72027Y180420D01*
X72114Y180442D01*
X72180Y180449D01*
X72209Y180457D01*
X72537D01*
X72668Y180449D01*
X72792Y180428D01*
X72901Y180398D01*
X72996Y180369D01*
X73076Y180333D01*
X73135Y180304D01*
X73171Y180282D01*
X73186Y180274D01*
X73755Y179932D01*
Y180136D01*
X73762Y180187D01*
X73769Y180224D01*
X73798Y180296D01*
X73820Y180325D01*
X73835Y180347D01*
X73842Y180355D01*
X73849Y180362D01*
X73886Y180391D01*
X73922Y180420D01*
X73995Y180442D01*
X74024Y180449D01*
X74046Y180457D01*
X74068D01*
X74112Y180449D01*
D02*
G37*
G36*
X83385D02*
X83428Y180442D01*
X83501Y180413D01*
X83530Y180391D01*
X83552Y180377D01*
X83560Y180369D01*
X83567Y180362D01*
X83596Y180325D01*
X83618Y180289D01*
X83640Y180224D01*
X83647Y180187D01*
X83654Y180165D01*
Y180151D01*
Y180143D01*
Y177176D01*
X83647Y177132D01*
X83640Y177089D01*
X83603Y177023D01*
X83589Y176994D01*
X83574Y176972D01*
X83567Y176965D01*
X83560Y176958D01*
X83523Y176928D01*
X83487Y176907D01*
X83414Y176885D01*
X83377Y176877D01*
X83355Y176870D01*
X83333D01*
X83290Y176877D01*
X83246Y176885D01*
X83180Y176914D01*
X83137Y176943D01*
X83129Y176958D01*
X83122D01*
X83093Y176994D01*
X83064Y177031D01*
X83042Y177103D01*
X83035Y177132D01*
X83027Y177154D01*
Y177169D01*
Y177176D01*
Y179392D01*
X82583Y179771D01*
X82539Y179801D01*
X82495Y179815D01*
X82466Y179823D01*
X82459D01*
X82415Y179815D01*
X82379Y179801D01*
X82357Y179771D01*
X82335Y179742D01*
X82328Y179713D01*
X82320Y179684D01*
Y179669D01*
Y179662D01*
Y177176D01*
X82313Y177132D01*
X82306Y177089D01*
X82276Y177016D01*
X82247Y176972D01*
X82233Y176965D01*
Y176958D01*
X82196Y176928D01*
X82160Y176907D01*
X82087Y176885D01*
X82051Y176877D01*
X82029Y176870D01*
X82007D01*
X81963Y176877D01*
X81919Y176885D01*
X81854Y176914D01*
X81824Y176928D01*
X81803Y176943D01*
X81795Y176958D01*
X81788D01*
X81759Y176994D01*
X81730Y177031D01*
X81708Y177096D01*
X81701Y177125D01*
X81693Y177147D01*
Y177162D01*
Y177169D01*
Y179451D01*
X81322Y179764D01*
X81270Y179801D01*
X81227Y179815D01*
X81198Y179823D01*
X81190D01*
X81154Y179815D01*
X81117Y179793D01*
X81095Y179757D01*
X81081Y179720D01*
X81066Y179684D01*
Y179648D01*
X81059Y179626D01*
Y179618D01*
X80986Y177176D01*
X80979Y177132D01*
X80972Y177089D01*
X80935Y177023D01*
X80920Y176994D01*
X80906Y176972D01*
X80899Y176965D01*
X80891Y176958D01*
X80855Y176928D01*
X80818Y176907D01*
X80746Y176885D01*
X80709Y176877D01*
X80687Y176870D01*
X80665D01*
X80622Y176877D01*
X80578Y176885D01*
X80512Y176914D01*
X80483Y176928D01*
X80461Y176943D01*
X80454Y176958D01*
X80447D01*
X80418Y176994D01*
X80388Y177031D01*
X80366Y177103D01*
X80359Y177132D01*
X80352Y177154D01*
Y177169D01*
Y177176D01*
X80439Y179720D01*
X80454Y179837D01*
X80483Y179939D01*
X80520Y180027D01*
X80563Y180107D01*
X80607Y180165D01*
X80636Y180209D01*
X80665Y180238D01*
X80673Y180245D01*
X80753Y180318D01*
X80840Y180369D01*
X80928Y180406D01*
X81001Y180428D01*
X81074Y180449D01*
X81125Y180457D01*
X81241D01*
X81307Y180442D01*
X81431Y180406D01*
X81540Y180355D01*
X81635Y180296D01*
X81715Y180231D01*
X81781Y180180D01*
X81817Y180143D01*
X81824Y180136D01*
X81832Y180129D01*
X81875Y180187D01*
X81927Y180238D01*
X82029Y180318D01*
X82131Y180377D01*
X82233Y180413D01*
X82320Y180442D01*
X82386Y180449D01*
X82415Y180457D01*
X82451D01*
X82568Y180449D01*
X82677Y180420D01*
X82772Y180377D01*
X82860Y180333D01*
X82933Y180289D01*
X82984Y180245D01*
X83013Y180216D01*
X83027Y180209D01*
X83056Y180289D01*
X83100Y180355D01*
X83159Y180398D01*
X83210Y180428D01*
X83261Y180442D01*
X83304Y180457D01*
X83341D01*
X83385Y180449D01*
D02*
G37*
G36*
X97112Y181798D02*
X97155Y181791D01*
X97228Y181762D01*
X97257Y181740D01*
X97279Y181725D01*
X97287Y181718D01*
X97294Y181711D01*
X97323Y181674D01*
X97345Y181638D01*
X97367Y181565D01*
X97374Y181528D01*
X97381Y181507D01*
Y181492D01*
Y181485D01*
Y177176D01*
X97374Y177132D01*
X97367Y177089D01*
X97338Y177016D01*
X97308Y176972D01*
X97294Y176965D01*
Y176958D01*
X97257Y176928D01*
X97221Y176907D01*
X97148Y176885D01*
X97112Y176877D01*
X97090Y176870D01*
X97068D01*
X97024Y176877D01*
X96980Y176885D01*
X96915Y176914D01*
X96886Y176928D01*
X96864Y176943D01*
X96856Y176958D01*
X96849D01*
X96820Y176994D01*
X96791Y177031D01*
X96769Y177103D01*
X96762Y177132D01*
X96754Y177154D01*
Y177169D01*
Y177176D01*
Y178124D01*
X96434Y178401D01*
X94757Y176950D01*
X94721Y176921D01*
X94684Y176907D01*
X94611Y176877D01*
X94575D01*
X94553Y176870D01*
X94531D01*
X94487Y176877D01*
X94444Y176885D01*
X94371Y176921D01*
X94327Y176950D01*
X94320Y176958D01*
X94312Y176965D01*
X94283Y177001D01*
X94254Y177045D01*
X94232Y177111D01*
X94225Y177140D01*
X94217Y177162D01*
Y177176D01*
Y177183D01*
X94225Y177227D01*
X94232Y177271D01*
X94269Y177337D01*
X94305Y177373D01*
X94312Y177388D01*
X94320D01*
X95945Y178809D01*
X94626Y179910D01*
X94589Y179946D01*
X94567Y179983D01*
X94538Y180056D01*
X94531Y180085D01*
X94524Y180114D01*
Y180129D01*
Y180136D01*
X94531Y180180D01*
X94538Y180224D01*
X94567Y180289D01*
X94589Y180318D01*
X94604Y180340D01*
X94611Y180347D01*
X94618Y180355D01*
X94655Y180391D01*
X94691Y180413D01*
X94757Y180442D01*
X94793Y180449D01*
X94815Y180457D01*
X94837D01*
X94888Y180449D01*
X94932Y180442D01*
X95005Y180413D01*
X95034Y180391D01*
X95049Y180377D01*
X95063Y180369D01*
X95070Y180362D01*
X96754Y178933D01*
Y181485D01*
X96762Y181536D01*
X96769Y181572D01*
X96798Y181645D01*
X96820Y181674D01*
X96835Y181696D01*
X96842Y181703D01*
X96849Y181711D01*
X96886Y181740D01*
X96922Y181769D01*
X96995Y181791D01*
X97024Y181798D01*
X97046Y181805D01*
X97068D01*
X97112Y181798D01*
D02*
G37*
G36*
X106312Y180449D02*
X106355Y180442D01*
X106428Y180413D01*
X106457Y180391D01*
X106479Y180377D01*
X106487Y180369D01*
X106494Y180362D01*
X106523Y180325D01*
X106545Y180289D01*
X106567Y180216D01*
X106574Y180180D01*
X106581Y180158D01*
Y180143D01*
Y180136D01*
Y177176D01*
X106574Y177132D01*
X106567Y177089D01*
X106538Y177016D01*
X106508Y176972D01*
X106494Y176965D01*
Y176958D01*
X106457Y176928D01*
X106421Y176907D01*
X106348Y176885D01*
X106312Y176877D01*
X106290Y176870D01*
X106268D01*
X106224Y176877D01*
X106180Y176885D01*
X106115Y176914D01*
X106086Y176928D01*
X106064Y176943D01*
X106056Y176958D01*
X106049D01*
X106020Y176994D01*
X105991Y177031D01*
X105969Y177103D01*
X105962Y177132D01*
X105954Y177154D01*
Y177169D01*
Y177176D01*
Y178926D01*
X105072Y179691D01*
X105014Y179735D01*
X104963Y179771D01*
X104912Y179793D01*
X104868Y179815D01*
X104839Y179823D01*
X104810Y179830D01*
X104380D01*
X104336Y179823D01*
X104292Y179815D01*
X104219Y179786D01*
X104176Y179750D01*
X104168Y179742D01*
X104161Y179735D01*
X104132Y179699D01*
X104103Y179662D01*
X104081Y179596D01*
X104074Y179560D01*
X104066Y179538D01*
Y179524D01*
Y179516D01*
Y179341D01*
X104059Y179298D01*
X104052Y179254D01*
X104023Y179181D01*
X103993Y179137D01*
X103979Y179130D01*
Y179123D01*
X103942Y179094D01*
X103906Y179072D01*
X103833Y179050D01*
X103797Y179042D01*
X103775Y179035D01*
X103753D01*
X103709Y179042D01*
X103665Y179050D01*
X103600Y179079D01*
X103571Y179094D01*
X103549Y179108D01*
X103541Y179123D01*
X103534D01*
X103505Y179159D01*
X103476Y179196D01*
X103454Y179269D01*
X103447Y179305D01*
X103439Y179327D01*
Y179341D01*
Y179349D01*
Y179516D01*
X103454Y179655D01*
X103483Y179786D01*
X103527Y179895D01*
X103578Y179990D01*
X103629Y180070D01*
X103673Y180129D01*
X103702Y180165D01*
X103716Y180180D01*
X103826Y180274D01*
X103935Y180340D01*
X104044Y180391D01*
X104154Y180420D01*
X104241Y180442D01*
X104314Y180449D01*
X104343Y180457D01*
X104832D01*
X104948Y180442D01*
X105058Y180413D01*
X105160Y180369D01*
X105255Y180325D01*
X105335Y180274D01*
X105400Y180231D01*
X105437Y180202D01*
X105444Y180187D01*
X105451D01*
X105954Y179757D01*
Y180136D01*
X105962Y180187D01*
X105969Y180224D01*
X105998Y180296D01*
X106020Y180325D01*
X106035Y180347D01*
X106042Y180355D01*
X106049Y180362D01*
X106086Y180391D01*
X106122Y180420D01*
X106195Y180442D01*
X106224Y180449D01*
X106246Y180457D01*
X106268D01*
X106312Y180449D01*
D02*
G37*
G36*
X64955Y181798D02*
X64999Y181791D01*
X65072Y181762D01*
X65116Y181725D01*
X65123Y181718D01*
X65130Y181711D01*
X65160Y181674D01*
X65181Y181638D01*
X65203Y181565D01*
X65211Y181536D01*
X65218Y181514D01*
Y181499D01*
Y181492D01*
X65211Y181448D01*
X65203Y181404D01*
X65174Y181332D01*
X65160Y181302D01*
X65145Y181281D01*
X65130Y181273D01*
Y181266D01*
X65094Y181237D01*
X65057Y181215D01*
X64985Y181193D01*
X64955Y181186D01*
X64934Y181178D01*
X62666D01*
Y179662D01*
X64576D01*
X64671Y179655D01*
X64751Y179633D01*
X64824Y179604D01*
X64890Y179567D01*
X64941Y179531D01*
X64985Y179502D01*
X65007Y179480D01*
X65014Y179473D01*
X65072Y179400D01*
X65116Y179327D01*
X65152Y179247D01*
X65174Y179181D01*
X65189Y179115D01*
X65196Y179072D01*
Y179042D01*
Y179028D01*
Y176870D01*
X62346D01*
X62302Y176877D01*
X62258Y176885D01*
X62192Y176914D01*
X62163Y176928D01*
X62142Y176943D01*
X62134Y176958D01*
X62127D01*
X62098Y176994D01*
X62069Y177031D01*
X62047Y177103D01*
X62039Y177140D01*
X62032Y177162D01*
Y177176D01*
Y177183D01*
X62039Y177227D01*
X62047Y177271D01*
X62076Y177337D01*
X62098Y177366D01*
X62112Y177388D01*
X62120Y177395D01*
X62127Y177402D01*
X62163Y177431D01*
X62200Y177461D01*
X62273Y177482D01*
X62302Y177490D01*
X62324Y177497D01*
X64569D01*
Y179028D01*
X62666D01*
X62572Y179035D01*
X62491Y179057D01*
X62411Y179086D01*
X62346Y179123D01*
X62295Y179152D01*
X62258Y179181D01*
X62229Y179203D01*
X62222Y179210D01*
X62156Y179283D01*
X62112Y179356D01*
X62076Y179429D01*
X62054Y179502D01*
X62039Y179560D01*
X62032Y179611D01*
Y179640D01*
Y179655D01*
Y181178D01*
X62039Y181273D01*
X62061Y181353D01*
X62090Y181426D01*
X62127Y181492D01*
X62163Y181543D01*
X62192Y181587D01*
X62214Y181609D01*
X62222Y181616D01*
X62295Y181682D01*
X62367Y181725D01*
X62448Y181762D01*
X62513Y181783D01*
X62579Y181798D01*
X62623Y181805D01*
X64912D01*
X64955Y181798D01*
D02*
G37*
G36*
X87292Y180449D02*
X87336Y180442D01*
X87409Y180413D01*
X87438Y180391D01*
X87460Y180377D01*
X87467Y180369D01*
X87474Y180362D01*
X87503Y180325D01*
X87525Y180289D01*
X87547Y180216D01*
X87554Y180187D01*
X87562Y180165D01*
Y180151D01*
Y180143D01*
X87554Y180099D01*
X87547Y180056D01*
X87518Y179983D01*
X87503Y179954D01*
X87489Y179932D01*
X87474Y179925D01*
Y179917D01*
X87438Y179888D01*
X87401Y179866D01*
X87328Y179844D01*
X87292Y179837D01*
X87270Y179830D01*
X86060D01*
X86009Y179823D01*
X85972Y179815D01*
X85900Y179786D01*
X85870Y179764D01*
X85849Y179750D01*
X85841Y179742D01*
X85834Y179735D01*
X85805Y179699D01*
X85776Y179662D01*
X85754Y179596D01*
X85747Y179560D01*
X85739Y179538D01*
Y179524D01*
Y179516D01*
X85732Y179072D01*
X85798Y179086D01*
X85856Y179101D01*
X85907Y179108D01*
X85951Y179115D01*
X85980Y179123D01*
X87256D01*
X87394Y179108D01*
X87525Y179079D01*
X87635Y179035D01*
X87729Y178984D01*
X87810Y178933D01*
X87868Y178889D01*
X87904Y178860D01*
X87919Y178846D01*
X88014Y178736D01*
X88079Y178627D01*
X88130Y178510D01*
X88160Y178408D01*
X88181Y178314D01*
X88189Y178241D01*
X88196Y178211D01*
Y178190D01*
Y178182D01*
Y178175D01*
Y177811D01*
X88181Y177672D01*
X88152Y177541D01*
X88108Y177424D01*
X88057Y177329D01*
X88014Y177249D01*
X87970Y177191D01*
X87941Y177154D01*
X87926Y177140D01*
X87817Y177052D01*
X87708Y176987D01*
X87591Y176936D01*
X87489Y176907D01*
X87394Y176885D01*
X87321Y176877D01*
X87292Y176870D01*
X86191D01*
X85659Y177183D01*
X85652Y177140D01*
X85645Y177096D01*
X85615Y177023D01*
X85601Y176994D01*
X85586Y176972D01*
X85572Y176965D01*
Y176958D01*
X85535Y176928D01*
X85491Y176907D01*
X85418Y176885D01*
X85389Y176877D01*
X85360Y176870D01*
X85338D01*
X85295Y176877D01*
X85251Y176885D01*
X85185Y176914D01*
X85156Y176928D01*
X85134Y176943D01*
X85127Y176958D01*
X85120D01*
X85090Y176994D01*
X85061Y177031D01*
X85039Y177103D01*
X85032Y177132D01*
X85025Y177154D01*
Y177169D01*
Y177176D01*
X85105Y179516D01*
X85120Y179655D01*
X85156Y179786D01*
X85207Y179903D01*
X85258Y179998D01*
X85309Y180070D01*
X85353Y180129D01*
X85382Y180165D01*
X85397Y180180D01*
X85506Y180274D01*
X85615Y180340D01*
X85725Y180391D01*
X85827Y180420D01*
X85922Y180442D01*
X85994Y180449D01*
X86023Y180457D01*
X87248D01*
X87292Y180449D01*
D02*
G37*
G36*
X77939D02*
X78041Y180428D01*
X78143Y180391D01*
X78223Y180355D01*
X78296Y180311D01*
X78347Y180282D01*
X78376Y180253D01*
X78391Y180245D01*
X78653Y180041D01*
X78704Y179998D01*
X78755Y179939D01*
X78828Y179837D01*
X78857Y179786D01*
X78879Y179750D01*
X78887Y179720D01*
X78894Y179713D01*
X78923Y179640D01*
X78945Y179575D01*
X78960Y179516D01*
X78967Y179473D01*
X78974Y179436D01*
X78981Y179407D01*
Y179392D01*
Y179385D01*
Y177956D01*
X78974Y177898D01*
X78967Y177832D01*
X78952Y177774D01*
X78938Y177723D01*
X78923Y177672D01*
X78916Y177636D01*
X78901Y177614D01*
Y177606D01*
X78865Y177541D01*
X78828Y177482D01*
X78792Y177439D01*
X78755Y177395D01*
X78726Y177366D01*
X78704Y177344D01*
X78690Y177329D01*
X78683Y177322D01*
X78405Y177082D01*
X78369Y177052D01*
X78325Y177023D01*
X78238Y176979D01*
X78201Y176958D01*
X78165Y176950D01*
X78143Y176936D01*
X78136D01*
X78004Y176899D01*
X77946Y176885D01*
X77895Y176877D01*
X77851D01*
X77822Y176870D01*
X76146D01*
X76102Y176877D01*
X76058Y176885D01*
X75993Y176914D01*
X75963Y176928D01*
X75941Y176943D01*
X75934Y176958D01*
X75927D01*
X75898Y176994D01*
X75869Y177031D01*
X75847Y177103D01*
X75839Y177140D01*
X75832Y177162D01*
Y177176D01*
Y177183D01*
X75839Y177227D01*
X75847Y177271D01*
X75876Y177337D01*
X75898Y177366D01*
X75912Y177388D01*
X75920Y177395D01*
X75927Y177402D01*
X75963Y177431D01*
X76000Y177461D01*
X76073Y177482D01*
X76102Y177490D01*
X76124Y177497D01*
X77749D01*
X77800Y177504D01*
X77851Y177512D01*
X77939Y177555D01*
X77975Y177570D01*
X78004Y177592D01*
X78026Y177599D01*
X78034Y177606D01*
X78216Y177760D01*
X78260Y177803D01*
X78289Y177847D01*
X78318Y177891D01*
X78333Y177934D01*
X78340Y177971D01*
X78347Y178000D01*
Y178022D01*
Y178029D01*
Y178211D01*
X76146D01*
X76102Y178219D01*
X76058Y178226D01*
X75993Y178255D01*
X75963Y178270D01*
X75941Y178284D01*
X75934Y178299D01*
X75927D01*
X75898Y178335D01*
X75869Y178372D01*
X75847Y178445D01*
X75839Y178474D01*
X75832Y178496D01*
Y178510D01*
Y178518D01*
Y179276D01*
X75839Y179436D01*
X75869Y179575D01*
X75912Y179691D01*
X75956Y179786D01*
X76007Y179859D01*
X76043Y179910D01*
X76073Y179946D01*
X76087Y179954D01*
X76321Y180180D01*
X76430Y180274D01*
X76539Y180340D01*
X76649Y180391D01*
X76743Y180420D01*
X76824Y180442D01*
X76889Y180449D01*
X76933Y180457D01*
X77822D01*
X77939Y180449D01*
D02*
G37*
G36*
X50674Y179028D02*
X48794D01*
Y177497D01*
X50237D01*
X50295Y177504D01*
X50346Y177519D01*
X50375Y177533D01*
X50390Y177541D01*
X50805Y177716D01*
X50893Y177752D01*
X50959Y177767D01*
X51002Y177774D01*
X51017D01*
X51061Y177767D01*
X51104Y177760D01*
X51170Y177730D01*
X51214Y177694D01*
X51221Y177687D01*
X51228Y177679D01*
X51257Y177643D01*
X51272Y177606D01*
X51301Y177533D01*
Y177497D01*
X51309Y177475D01*
Y177461D01*
Y177453D01*
X51301Y177380D01*
X51279Y177315D01*
X51250Y177264D01*
X51214Y177220D01*
X51185Y177191D01*
X51156Y177169D01*
X51134Y177162D01*
X51126Y177154D01*
X50652Y176958D01*
X50572Y176928D01*
X50492Y176907D01*
X50427Y176892D01*
X50361Y176885D01*
X50310Y176877D01*
X50273Y176870D01*
X48794D01*
X48699Y176877D01*
X48619Y176899D01*
X48546Y176928D01*
X48480Y176965D01*
X48429Y176994D01*
X48385Y177023D01*
X48363Y177045D01*
X48356Y177052D01*
X48291Y177125D01*
X48247Y177198D01*
X48210Y177271D01*
X48188Y177337D01*
X48174Y177402D01*
X48167Y177446D01*
Y177475D01*
Y177490D01*
Y179028D01*
X48174Y179115D01*
X48196Y179203D01*
X48225Y179276D01*
X48261Y179341D01*
X48298Y179392D01*
X48327Y179429D01*
X48349Y179458D01*
X48356Y179465D01*
X48429Y179531D01*
X48502Y179575D01*
X48575Y179611D01*
X48640Y179633D01*
X48706Y179648D01*
X48750Y179655D01*
X50040D01*
Y181178D01*
X48480D01*
X48436Y181186D01*
X48393Y181193D01*
X48320Y181222D01*
X48276Y181251D01*
X48269Y181266D01*
X48261D01*
X48232Y181302D01*
X48203Y181339D01*
X48181Y181412D01*
X48174Y181448D01*
X48167Y181470D01*
Y181485D01*
Y181492D01*
X48174Y181536D01*
X48181Y181579D01*
X48210Y181645D01*
X48232Y181674D01*
X48247Y181696D01*
X48254Y181703D01*
X48261Y181711D01*
X48298Y181740D01*
X48334Y181769D01*
X48407Y181791D01*
X48436Y181798D01*
X48458Y181805D01*
X50674D01*
Y179028D01*
D02*
G37*
G36*
X60086Y181813D02*
X60166Y181791D01*
X60239Y181762D01*
X60297Y181732D01*
X60348Y181696D01*
X60392Y181667D01*
X60414Y181645D01*
X60421Y181638D01*
X60479Y181565D01*
X60523Y181492D01*
X60552Y181426D01*
X60574Y181361D01*
X60589Y181302D01*
X60596Y181259D01*
Y181222D01*
Y181215D01*
Y177468D01*
X60589Y177380D01*
X60567Y177300D01*
X60538Y177227D01*
X60509Y177162D01*
X60479Y177111D01*
X60450Y177074D01*
X60428Y177052D01*
X60421Y177045D01*
X60355Y176987D01*
X60283Y176943D01*
X60210Y176914D01*
X60144Y176892D01*
X60086Y176877D01*
X60042Y176870D01*
X58052D01*
X57964Y176877D01*
X57884Y176899D01*
X57811Y176928D01*
X57746Y176958D01*
X57695Y176987D01*
X57658Y177016D01*
X57636Y177038D01*
X57629Y177045D01*
X57571Y177111D01*
X57527Y177183D01*
X57490Y177256D01*
X57469Y177322D01*
X57454Y177380D01*
X57447Y177424D01*
Y177461D01*
Y177468D01*
Y181215D01*
X57454Y181302D01*
X57476Y181383D01*
X57505Y181456D01*
X57534Y181514D01*
X57571Y181565D01*
X57600Y181609D01*
X57622Y181630D01*
X57629Y181638D01*
X57695Y181696D01*
X57767Y181740D01*
X57840Y181776D01*
X57899Y181798D01*
X57957Y181813D01*
X58001Y181820D01*
X59998D01*
X60086Y181813D01*
D02*
G37*
G36*
X92191Y181798D02*
X92235Y181791D01*
X92308Y181762D01*
X92351Y181725D01*
X92359Y181718D01*
X92366Y181711D01*
X92395Y181674D01*
X92417Y181638D01*
X92439Y181565D01*
X92446Y181536D01*
X92453Y181514D01*
Y181499D01*
Y181492D01*
X92446Y181448D01*
X92439Y181404D01*
X92410Y181332D01*
X92395Y181302D01*
X92380Y181281D01*
X92366Y181273D01*
Y181266D01*
X92329Y181237D01*
X92293Y181215D01*
X92220Y181193D01*
X92191Y181186D01*
X92169Y181178D01*
X91520D01*
Y177504D01*
X92147D01*
X92191Y177497D01*
X92235Y177490D01*
X92308Y177461D01*
X92351Y177424D01*
X92359Y177417D01*
X92366Y177410D01*
X92395Y177373D01*
X92417Y177337D01*
X92439Y177264D01*
X92446Y177235D01*
X92453Y177213D01*
Y177198D01*
Y177191D01*
X92446Y177147D01*
X92439Y177103D01*
X92410Y177031D01*
X92395Y177001D01*
X92380Y176979D01*
X92366Y176972D01*
Y176965D01*
X92329Y176936D01*
X92293Y176914D01*
X92220Y176885D01*
X92184Y176877D01*
X92162Y176870D01*
X90244D01*
X90201Y176877D01*
X90157Y176885D01*
X90091Y176921D01*
X90062Y176936D01*
X90040Y176950D01*
X90033Y176958D01*
X90026Y176965D01*
X89997Y177001D01*
X89967Y177038D01*
X89946Y177111D01*
X89938Y177147D01*
X89931Y177169D01*
Y177183D01*
Y177191D01*
X89938Y177235D01*
X89946Y177278D01*
X89975Y177344D01*
X89997Y177373D01*
X90011Y177395D01*
X90018Y177402D01*
X90026Y177410D01*
X90062Y177439D01*
X90099Y177468D01*
X90172Y177490D01*
X90208Y177497D01*
X90230Y177504D01*
X90886D01*
Y181492D01*
X90893Y181536D01*
X90900Y181579D01*
X90930Y181645D01*
X90952Y181674D01*
X90966Y181696D01*
X90974Y181703D01*
X90981Y181711D01*
X91017Y181740D01*
X91054Y181769D01*
X91127Y181791D01*
X91156Y181798D01*
X91178Y181805D01*
X92147D01*
X92191Y181798D01*
D02*
G37*
%LPC*%
G36*
X131606Y173789D02*
X131409D01*
X131328Y173782D01*
X131263Y173760D01*
X131205Y173731D01*
X131161Y173695D01*
X131124Y173658D01*
X131103Y173629D01*
X131088Y173607D01*
X131081Y173600D01*
X130447Y172331D01*
X130417Y172266D01*
X130388Y172193D01*
X130374Y172127D01*
X130366Y172069D01*
X130359Y172018D01*
X130352Y171981D01*
Y171952D01*
Y171945D01*
X130359Y171879D01*
X130366Y171814D01*
X130388Y171741D01*
X130410Y171675D01*
X130432Y171624D01*
X130447Y171580D01*
X130461Y171544D01*
X130468Y171537D01*
X131088Y170319D01*
X131132Y170254D01*
X131175Y170203D01*
X131227Y170166D01*
X131278Y170144D01*
X131321Y170130D01*
X131358Y170115D01*
X131394D01*
X131606Y170122D01*
Y173789D01*
D02*
G37*
G36*
X72594Y173297D02*
X71027D01*
X70983Y173290D01*
X70939Y173283D01*
X70866Y173253D01*
X70823Y173217D01*
X70815Y173210D01*
X70808Y173202D01*
X70779Y173166D01*
X70750Y173129D01*
X70728Y173064D01*
X70721Y173027D01*
X70713Y173006D01*
Y172991D01*
Y172984D01*
Y172619D01*
X70721Y172575D01*
X70728Y172532D01*
X70757Y172459D01*
X70793Y172415D01*
X70801Y172408D01*
X70808Y172400D01*
X70845Y172371D01*
X70881Y172350D01*
X70947Y172328D01*
X70983Y172320D01*
X71005Y172313D01*
X72594D01*
Y173297D01*
D02*
G37*
G36*
X40431Y173312D02*
X38528D01*
Y169623D01*
X40431D01*
Y173312D01*
D02*
G37*
G36*
X67462Y171949D02*
X66660D01*
X66616Y171941D01*
X66573Y171934D01*
X66492Y171890D01*
X66456Y171868D01*
X66427Y171854D01*
X66412Y171839D01*
X66405Y171832D01*
X66223Y171671D01*
X66186Y171635D01*
X66157Y171591D01*
X66142Y171548D01*
X66128Y171504D01*
X66121Y171460D01*
X66113Y171431D01*
Y171409D01*
Y171402D01*
Y170972D01*
X68009D01*
Y171453D01*
X68001Y171504D01*
X67987Y171555D01*
X67950Y171628D01*
X67928Y171657D01*
X67907Y171679D01*
X67899Y171686D01*
X67892Y171693D01*
X67710Y171846D01*
X67659Y171883D01*
X67615Y171905D01*
X67528Y171934D01*
X67491Y171941D01*
X67462Y171949D01*
D02*
G37*
G36*
X99413Y172448D02*
X98735D01*
X98677Y172441D01*
X98626Y172433D01*
X98545Y172404D01*
X98516Y172382D01*
X98494Y172368D01*
X98480Y172360D01*
X98472Y172353D01*
X98254Y172178D01*
X98217Y172142D01*
X98188Y172098D01*
X98166Y172054D01*
X98152Y172011D01*
X98145Y171967D01*
X98137Y171930D01*
Y171908D01*
Y171901D01*
Y170640D01*
X98145Y170582D01*
X98152Y170531D01*
X98174Y170494D01*
X98195Y170458D01*
X98217Y170429D01*
X98232Y170407D01*
X98247Y170399D01*
X98254Y170392D01*
X98443Y170224D01*
X98494Y170188D01*
X98545Y170159D01*
X98596Y170144D01*
X98640Y170130D01*
X98677Y170122D01*
X98706Y170115D01*
X99457D01*
X99551Y170122D01*
X99617Y170152D01*
X99661Y170174D01*
X99668Y170181D01*
X99675D01*
X99909Y170378D01*
X99945Y170421D01*
X99974Y170465D01*
X99996Y170509D01*
X100011Y170553D01*
X100018Y170589D01*
X100025Y170618D01*
Y170640D01*
Y170647D01*
Y171908D01*
X100018Y171967D01*
X100011Y172018D01*
X99989Y172062D01*
X99967Y172098D01*
X99952Y172127D01*
X99931Y172149D01*
X99923Y172156D01*
X99916Y172164D01*
X99704Y172346D01*
X99654Y172382D01*
X99603Y172404D01*
X99493Y172433D01*
X99449Y172441D01*
X99413Y172448D01*
D02*
G37*
G36*
X113278Y172441D02*
X112477D01*
X112433Y172433D01*
X112389Y172426D01*
X112309Y172382D01*
X112273Y172360D01*
X112243Y172346D01*
X112229Y172331D01*
X112222Y172324D01*
X112039Y172164D01*
X112003Y172127D01*
X111974Y172083D01*
X111959Y172040D01*
X111944Y171996D01*
X111937Y171952D01*
X111930Y171923D01*
Y171901D01*
Y171894D01*
Y171464D01*
X113825D01*
Y171945D01*
X113818Y171996D01*
X113803Y172047D01*
X113767Y172120D01*
X113745Y172149D01*
X113723Y172171D01*
X113716Y172178D01*
X113709Y172186D01*
X113526Y172339D01*
X113475Y172375D01*
X113432Y172397D01*
X113344Y172426D01*
X113308Y172433D01*
X113278Y172441D01*
D02*
G37*
G36*
X100800Y179823D02*
X99998D01*
X99955Y179815D01*
X99911Y179808D01*
X99831Y179764D01*
X99794Y179742D01*
X99765Y179728D01*
X99751Y179713D01*
X99743Y179706D01*
X99561Y179545D01*
X99525Y179509D01*
X99496Y179465D01*
X99481Y179422D01*
X99466Y179378D01*
X99459Y179334D01*
X99452Y179305D01*
Y179283D01*
Y179276D01*
Y178846D01*
X101347D01*
Y179327D01*
X101340Y179378D01*
X101325Y179429D01*
X101289Y179502D01*
X101267Y179531D01*
X101245Y179553D01*
X101238Y179560D01*
X101231Y179567D01*
X101048Y179720D01*
X100997Y179757D01*
X100953Y179779D01*
X100866Y179808D01*
X100830Y179815D01*
X100800Y179823D01*
D02*
G37*
G36*
X87277Y178481D02*
X86016D01*
X85972Y178474D01*
X85929Y178467D01*
X85856Y178437D01*
X85812Y178401D01*
X85805Y178394D01*
X85798Y178386D01*
X85768Y178350D01*
X85747Y178314D01*
X85717Y178248D01*
X85710Y178211D01*
X85703Y178190D01*
Y178175D01*
Y178168D01*
X85688Y177905D01*
X86366Y177512D01*
X87256D01*
X87299Y177519D01*
X87343Y177526D01*
X87409Y177555D01*
X87438Y177570D01*
X87460Y177585D01*
X87467Y177599D01*
X87474D01*
X87503Y177636D01*
X87525Y177672D01*
X87547Y177745D01*
X87554Y177774D01*
X87562Y177796D01*
Y177811D01*
Y177818D01*
Y178168D01*
X87554Y178211D01*
X87547Y178255D01*
X87518Y178328D01*
X87489Y178372D01*
X87474Y178379D01*
Y178386D01*
X87438Y178416D01*
X87401Y178445D01*
X87328Y178467D01*
X87299Y178474D01*
X87277Y178481D01*
D02*
G37*
G36*
X77800Y179823D02*
X76999D01*
X76955Y179815D01*
X76911Y179808D01*
X76831Y179764D01*
X76794Y179742D01*
X76765Y179728D01*
X76751Y179713D01*
X76743Y179706D01*
X76561Y179545D01*
X76525Y179509D01*
X76495Y179465D01*
X76481Y179422D01*
X76466Y179378D01*
X76459Y179334D01*
X76452Y179305D01*
Y179283D01*
Y179276D01*
Y178846D01*
X78347D01*
Y179327D01*
X78340Y179378D01*
X78325Y179429D01*
X78289Y179502D01*
X78267Y179531D01*
X78245Y179553D01*
X78238Y179560D01*
X78231Y179567D01*
X78048Y179720D01*
X77997Y179757D01*
X77953Y179779D01*
X77866Y179808D01*
X77830Y179815D01*
X77800Y179823D01*
D02*
G37*
G36*
X59969Y181186D02*
X58066D01*
Y177497D01*
X59969D01*
Y181186D01*
D02*
G37*
%LPD*%
D13*
X117018Y69685D02*
X127254D01*
Y73425D01*
X117018Y87795D02*
X127254D01*
Y84055D02*
Y87795D01*
X117060Y97244D02*
X127296D01*
Y100984D01*
X117060Y115354D02*
X127296D01*
Y111614D02*
Y115354D01*
X117018Y124803D02*
X127254D01*
Y128543D01*
X117018Y142913D02*
X127254D01*
Y139173D02*
Y142913D01*
X77648Y124803D02*
X87884D01*
Y128543D01*
X77648Y142913D02*
X87884D01*
Y139173D02*
Y142913D01*
X77648Y97244D02*
X87884D01*
Y100984D01*
X77648Y115354D02*
X87884D01*
Y111614D02*
Y115354D01*
X77648Y69685D02*
X87884D01*
Y73425D01*
X77648Y87795D02*
X87884D01*
Y84055D02*
Y87795D01*
X38278Y69685D02*
X48514D01*
Y73425D01*
X38278Y87795D02*
X48514D01*
Y84055D02*
Y87795D01*
X38278Y97244D02*
X48514D01*
Y100984D01*
X38278Y115354D02*
X48514D01*
Y111614D02*
Y115354D01*
X38278Y124803D02*
X48514D01*
Y128543D01*
X38278Y142913D02*
X48514D01*
Y139173D02*
Y142913D01*
X30709Y133661D02*
Y134055D01*
X27559Y133661D02*
Y134055D01*
X30709Y106103D02*
Y106496D01*
X27559Y106103D02*
Y106496D01*
X30709Y78543D02*
Y78937D01*
X27559Y78543D02*
Y78937D01*
X109449Y78543D02*
Y78937D01*
X106299Y78543D02*
Y78937D01*
X109449Y106103D02*
Y106496D01*
X106299Y106103D02*
Y106496D01*
X109449Y133661D02*
Y134055D01*
X106299Y133661D02*
Y134055D01*
X70079Y78543D02*
Y78937D01*
X66929Y78543D02*
Y78937D01*
X70079Y106103D02*
Y106496D01*
X66929Y106103D02*
Y106496D01*
X70079Y133661D02*
Y134055D01*
X66929Y133661D02*
Y134055D01*
D22*
X114951Y69488D02*
G03*
X114951Y69488I-492J0D01*
G01*
X114993Y97047D02*
G03*
X114993Y97047I-492J0D01*
G01*
X114951Y124606D02*
G03*
X114951Y124606I-492J0D01*
G01*
X75581D02*
G03*
X75581Y124606I-492J0D01*
G01*
Y97047D02*
G03*
X75581Y97047I-492J0D01*
G01*
Y69488D02*
G03*
X75581Y69488I-492J0D01*
G01*
X36211D02*
G03*
X36211Y69488I-492J0D01*
G01*
Y97047D02*
G03*
X36211Y97047I-492J0D01*
G01*
Y124606D02*
G03*
X36211Y124606I-492J0D01*
G01*
D23*
X140241Y139195D02*
X136242D01*
X135242Y140194D01*
Y142194D01*
X136242Y143193D01*
X140241D01*
X141240Y142194D01*
Y140194D01*
X139241Y141194D02*
X141240Y139195D01*
Y140194D02*
X140241Y139195D01*
X141240Y137195D02*
Y135196D01*
Y136196D01*
X135242D01*
X136242Y137195D01*
X138241Y132197D02*
Y128198D01*
X141240Y126199D02*
Y124199D01*
Y125199D01*
X135242D01*
X136242Y126199D01*
X140241Y111553D02*
X136242D01*
X135242Y112552D01*
Y114551D01*
X136242Y115551D01*
X140241D01*
X141240Y114551D01*
Y112552D01*
X139241Y113552D02*
X141240Y111553D01*
Y112552D02*
X140241Y111553D01*
X141240Y109553D02*
Y107554D01*
Y108553D01*
X135242D01*
X136242Y109553D01*
X138241Y104555D02*
Y100556D01*
X141240Y94558D02*
Y98557D01*
X137241Y94558D01*
X136242D01*
X135242Y95558D01*
Y97557D01*
X136242Y98557D01*
X140241Y83797D02*
X136242D01*
X135242Y84796D01*
Y86796D01*
X136242Y87795D01*
X140241D01*
X141240Y86796D01*
Y84796D01*
X139241Y85796D02*
X141240Y83797D01*
Y84796D02*
X140241Y83797D01*
X141240Y81797D02*
Y79798D01*
Y80797D01*
X135242D01*
X136242Y81797D01*
X138241Y76799D02*
Y72800D01*
X136242Y70801D02*
X135242Y69801D01*
Y67802D01*
X136242Y66802D01*
X137241D01*
X138241Y67802D01*
Y68801D01*
Y67802D01*
X139241Y66802D01*
X140241D01*
X141240Y67802D01*
Y69801D01*
X140241Y70801D01*
X101363Y139195D02*
X97364D01*
X96364Y140194D01*
Y142193D01*
X97364Y143193D01*
X101363D01*
X102362Y142193D01*
Y140194D01*
X100363Y141194D02*
X102362Y139195D01*
Y140194D02*
X101363Y139195D01*
X102362Y133196D02*
Y137195D01*
X98364Y133196D01*
X97364D01*
X96364Y134196D01*
Y136196D01*
X97364Y137195D01*
X99363Y131197D02*
Y127198D01*
X102362Y125199D02*
Y123200D01*
Y124199D01*
X96364D01*
X97364Y125199D01*
X101363Y111553D02*
X97364D01*
X96364Y112552D01*
Y114551D01*
X97364Y115551D01*
X101363D01*
X102362Y114551D01*
Y112552D01*
X100363Y113552D02*
X102362Y111553D01*
Y112552D02*
X101363Y111553D01*
X102362Y105554D02*
Y109553D01*
X98364Y105554D01*
X97364D01*
X96364Y106554D01*
Y108553D01*
X97364Y109553D01*
X99363Y103555D02*
Y99556D01*
X102362Y93558D02*
Y97557D01*
X98364Y93558D01*
X97364D01*
X96364Y94558D01*
Y96557D01*
X97364Y97557D01*
X101363Y83797D02*
X97364D01*
X96364Y84796D01*
Y86796D01*
X97364Y87795D01*
X101363D01*
X102362Y86796D01*
Y84796D01*
X100363Y85796D02*
X102362Y83797D01*
Y84796D02*
X101363Y83797D01*
X102362Y77798D02*
Y81797D01*
X98364Y77798D01*
X97364D01*
X96364Y78798D01*
Y80797D01*
X97364Y81797D01*
X99363Y75799D02*
Y71800D01*
X97364Y69801D02*
X96364Y68801D01*
Y66802D01*
X97364Y65802D01*
X98364D01*
X99363Y66802D01*
Y67802D01*
Y66802D01*
X100363Y65802D01*
X101363D01*
X102362Y66802D01*
Y68801D01*
X101363Y69801D01*
X62386Y139195D02*
X58388D01*
X57388Y140194D01*
Y142194D01*
X58388Y143193D01*
X62386D01*
X63386Y142194D01*
Y140194D01*
X61387Y141194D02*
X63386Y139195D01*
Y140194D02*
X62386Y139195D01*
X58388Y137195D02*
X57388Y136196D01*
Y134196D01*
X58388Y133196D01*
X59387D01*
X60387Y134196D01*
Y135196D01*
Y134196D01*
X61387Y133196D01*
X62386D01*
X63386Y134196D01*
Y136196D01*
X62386Y137195D01*
X60387Y131197D02*
Y127198D01*
X63386Y125199D02*
Y123200D01*
Y124199D01*
X57388D01*
X58388Y125199D01*
X62386Y111553D02*
X58388D01*
X57388Y112552D01*
Y114551D01*
X58388Y115551D01*
X62386D01*
X63386Y114551D01*
Y112552D01*
X61387Y113552D02*
X63386Y111553D01*
Y112552D02*
X62386Y111553D01*
X58388Y109553D02*
X57388Y108553D01*
Y106554D01*
X58388Y105554D01*
X59387D01*
X60387Y106554D01*
Y107554D01*
Y106554D01*
X61387Y105554D01*
X62386D01*
X63386Y106554D01*
Y108553D01*
X62386Y109553D01*
X60387Y103555D02*
Y99556D01*
X63386Y93558D02*
Y97557D01*
X59387Y93558D01*
X58388D01*
X57388Y94558D01*
Y96557D01*
X58388Y97557D01*
X62386Y83797D02*
X58388D01*
X57388Y84796D01*
Y86796D01*
X58388Y87795D01*
X62386D01*
X63386Y86796D01*
Y84796D01*
X61387Y85796D02*
X63386Y83797D01*
Y84796D02*
X62386Y83797D01*
X58388Y81797D02*
X57388Y80797D01*
Y78798D01*
X58388Y77798D01*
X59387D01*
X60387Y78798D01*
Y79798D01*
Y78798D01*
X61387Y77798D01*
X62386D01*
X63386Y78798D01*
Y80797D01*
X62386Y81797D01*
X60387Y75799D02*
Y71800D01*
X58388Y69801D02*
X57388Y68801D01*
Y66802D01*
X58388Y65802D01*
X59387D01*
X60387Y66802D01*
Y67802D01*
Y66802D01*
X61387Y65802D01*
X62386D01*
X63386Y66802D01*
Y68801D01*
X62386Y69801D01*
X13878Y139469D02*
X7880D01*
Y136469D01*
X8880Y135470D01*
X10879D01*
X11879Y136469D01*
Y139469D01*
Y137469D02*
X13878Y135470D01*
X7880Y133470D02*
Y129472D01*
X8880D01*
X12878Y133470D01*
X13878D01*
Y111516D02*
X7880D01*
Y108517D01*
X8880Y107517D01*
X10879D01*
X11879Y108517D01*
Y111516D01*
Y109516D02*
X13878Y107517D01*
X8880Y105518D02*
X7880Y104518D01*
Y102519D01*
X8880Y101519D01*
X9879D01*
X10879Y102519D01*
X11879Y101519D01*
X12878D01*
X13878Y102519D01*
Y104518D01*
X12878Y105518D01*
X11879D01*
X10879Y104518D01*
X9879Y105518D01*
X8880D01*
X10879Y104518D02*
Y102519D01*
X13878Y83957D02*
X7880D01*
Y80958D01*
X8880Y79958D01*
X10879D01*
X11879Y80958D01*
Y83957D01*
Y81957D02*
X13878Y79958D01*
X12878Y77959D02*
X13878Y76959D01*
Y74960D01*
X12878Y73960D01*
X8880D01*
X7880Y74960D01*
Y76959D01*
X8880Y77959D01*
X9879D01*
X10879Y76959D01*
Y73960D01*
M02*
