G04 Layer_Color=65535*
%FSLAX25Y25*%
%MOIN*%
G70*
G01*
G75*
%ADD13C,0.00787*%
%ADD22C,0.00984*%
%ADD23C,0.01000*%
D13*
X59055Y133661D02*
Y134055D01*
X55905Y133661D02*
Y134055D01*
X59055Y106102D02*
Y106496D01*
X55905Y106102D02*
Y106496D01*
X59055Y78543D02*
Y78937D01*
X55905Y78543D02*
Y78937D01*
X98425Y133661D02*
Y134055D01*
X95276Y133661D02*
Y134055D01*
X98425Y106102D02*
Y106496D01*
X95276Y106102D02*
Y106496D01*
X98425Y78543D02*
Y78937D01*
X95276Y78543D02*
Y78937D01*
X137795Y133661D02*
Y134055D01*
X134646Y133661D02*
Y134055D01*
X137795Y106102D02*
Y106496D01*
X134646Y106102D02*
Y106496D01*
X137795Y78543D02*
Y78937D01*
X134646Y78543D02*
Y78937D01*
X38100Y84055D02*
Y87795D01*
X48337D01*
X38100Y69685D02*
Y73425D01*
Y69685D02*
X48337D01*
X77470Y84055D02*
Y87795D01*
X87707D01*
X77470Y69685D02*
Y73425D01*
Y69685D02*
X87707D01*
X116841Y84055D02*
Y87795D01*
X127077D01*
X116841Y69685D02*
Y73425D01*
Y69685D02*
X127077D01*
X38100Y111614D02*
Y115354D01*
X48337D01*
X38100Y97244D02*
Y100984D01*
Y97244D02*
X48337D01*
X77470Y111614D02*
Y115354D01*
X87707D01*
X77470Y97244D02*
Y100984D01*
Y97244D02*
X87707D01*
X116841Y111614D02*
Y115354D01*
X127077D01*
X116841Y97244D02*
Y100984D01*
Y97244D02*
X127077D01*
X38100Y139173D02*
Y142913D01*
X48337D01*
X38100Y124803D02*
Y128543D01*
Y124803D02*
X48337D01*
X77470Y139173D02*
Y142913D01*
X87707D01*
X77470Y124803D02*
Y128543D01*
Y124803D02*
X87707D01*
X116841Y139173D02*
Y142913D01*
X127077D01*
X116841Y124803D02*
Y128543D01*
Y124803D02*
X127077D01*
D22*
X51388Y69488D02*
G03*
X51388Y69488I-492J0D01*
G01*
X90758D02*
G03*
X90758Y69488I-492J0D01*
G01*
X130128D02*
G03*
X130128Y69488I-492J0D01*
G01*
X51388Y97047D02*
G03*
X51388Y97047I-492J0D01*
G01*
X90758D02*
G03*
X90758Y97047I-492J0D01*
G01*
X130128D02*
G03*
X130128Y97047I-492J0D01*
G01*
X51388Y124606D02*
G03*
X51388Y124606I-492J0D01*
G01*
X90758D02*
G03*
X90758Y124606I-492J0D01*
G01*
X130128D02*
G03*
X130128Y124606I-492J0D01*
G01*
D23*
X2677Y5512D02*
X159921D01*
X162677Y2756D01*
Y-2362D02*
Y2756D01*
X2677Y-2362D02*
X162677D01*
X2677D02*
Y5512D01*
X183465Y26299D02*
Y183543D01*
X186221Y186299D01*
X191339D01*
Y26299D02*
Y186299D01*
X183465Y26299D02*
X191339D01*
X37423Y92913D02*
Y96911D01*
X36423Y97911D01*
X34424D01*
X33424Y96911D01*
Y92913D01*
X34424Y91913D01*
X36423D01*
X35424Y93912D02*
X37423Y91913D01*
X36423D02*
X37423Y92913D01*
X39422Y91913D02*
X41422D01*
X40422D01*
Y97911D01*
X39422Y96911D01*
X48419Y97911D02*
X46420Y96911D01*
X44421Y94912D01*
Y92913D01*
X45420Y91913D01*
X47420D01*
X48419Y92913D01*
Y93912D01*
X47420Y94912D01*
X44421D01*
X76734Y92913D02*
Y96911D01*
X75734Y97911D01*
X73735D01*
X72735Y96911D01*
Y92913D01*
X73735Y91913D01*
X75734D01*
X74735Y93912D02*
X76734Y91913D01*
X75734D02*
X76734Y92913D01*
X78733Y91913D02*
X80733D01*
X79733D01*
Y97911D01*
X78733Y96911D01*
X83732D02*
X84731Y97911D01*
X86731D01*
X87730Y96911D01*
Y95912D01*
X86731Y94912D01*
X85731D01*
X86731D01*
X87730Y93912D01*
Y92913D01*
X86731Y91913D01*
X84731D01*
X83732Y92913D01*
X116145D02*
Y96911D01*
X115145Y97911D01*
X113146D01*
X112146Y96911D01*
Y92913D01*
X113146Y91913D01*
X115145D01*
X114146Y93912D02*
X116145Y91913D01*
X115145D02*
X116145Y92913D01*
X118144Y91913D02*
X120144D01*
X119144D01*
Y97911D01*
X118144Y96911D01*
X123143D02*
X124143Y97911D01*
X126142D01*
X127141Y96911D01*
Y92913D01*
X126142Y91913D01*
X124143D01*
X123143Y92913D01*
Y96911D01*
X55450Y87713D02*
Y93711D01*
X58449D01*
X59448Y92711D01*
Y90712D01*
X58449Y89712D01*
X55450D01*
X57449D02*
X59448Y87713D01*
X61448D02*
X63447D01*
X62447D01*
Y93711D01*
X61448Y92711D01*
X70445Y93711D02*
X68445Y92711D01*
X66446Y90712D01*
Y88712D01*
X67446Y87713D01*
X69445D01*
X70445Y88712D01*
Y89712D01*
X69445Y90712D01*
X66446D01*
X94750Y87713D02*
Y93711D01*
X97749D01*
X98748Y92711D01*
Y90712D01*
X97749Y89712D01*
X94750D01*
X96749D02*
X98748Y87713D01*
X100748D02*
X102747D01*
X101747D01*
Y93711D01*
X100748Y92711D01*
X105746D02*
X106746Y93711D01*
X108745D01*
X109745Y92711D01*
Y91711D01*
X108745Y90712D01*
X107745D01*
X108745D01*
X109745Y89712D01*
Y88712D01*
X108745Y87713D01*
X106746D01*
X105746Y88712D01*
X134150Y87713D02*
Y93711D01*
X137149D01*
X138148Y92711D01*
Y90712D01*
X137149Y89712D01*
X134150D01*
X136149D02*
X138148Y87713D01*
X140148D02*
X142147D01*
X141147D01*
Y93711D01*
X140148Y92711D01*
X145146D02*
X146146Y93711D01*
X148145D01*
X149145Y92711D01*
Y88712D01*
X148145Y87713D01*
X146146D01*
X145146Y88712D01*
Y92711D01*
X37360Y120475D02*
Y124474D01*
X36360Y125474D01*
X34361D01*
X33361Y124474D01*
Y120475D01*
X34361Y119476D01*
X36360D01*
X35361Y121475D02*
X37360Y119476D01*
X36360D02*
X37360Y120475D01*
X39359Y119476D02*
X41359D01*
X40359D01*
Y125474D01*
X39359Y124474D01*
X44358Y125474D02*
X48356D01*
Y124474D01*
X44358Y120475D01*
Y119476D01*
X76771Y120475D02*
Y124474D01*
X75771Y125474D01*
X73772D01*
X72772Y124474D01*
Y120475D01*
X73772Y119476D01*
X75771D01*
X74771Y121475D02*
X76771Y119476D01*
X75771D02*
X76771Y120475D01*
X78770Y119476D02*
X80770D01*
X79770D01*
Y125474D01*
X78770Y124474D01*
X86768Y119476D02*
Y125474D01*
X83769Y122475D01*
X87767D01*
X116082Y120475D02*
Y124474D01*
X115082Y125474D01*
X113083D01*
X112083Y124474D01*
Y120475D01*
X113083Y119476D01*
X115082D01*
X114083Y121475D02*
X116082Y119476D01*
X115082D02*
X116082Y120475D01*
X118081Y119476D02*
X120081D01*
X119081D01*
Y125474D01*
X118081Y124474D01*
X123080Y119476D02*
X125079D01*
X124079D01*
Y125474D01*
X123080Y124474D01*
X55450Y115313D02*
Y121311D01*
X58449D01*
X59448Y120311D01*
Y118312D01*
X58449Y117312D01*
X55450D01*
X57449D02*
X59448Y115313D01*
X61448D02*
X63447D01*
X62447D01*
Y121311D01*
X61448Y120311D01*
X66446Y121311D02*
X70445D01*
Y120311D01*
X66446Y116312D01*
Y115313D01*
X94750D02*
Y121311D01*
X97749D01*
X98748Y120311D01*
Y118312D01*
X97749Y117312D01*
X94750D01*
X96749D02*
X98748Y115313D01*
X100748D02*
X102747D01*
X101747D01*
Y121311D01*
X100748Y120311D01*
X108745Y115313D02*
Y121311D01*
X105746Y118312D01*
X109745D01*
X134150Y115313D02*
Y121311D01*
X137149D01*
X138148Y120311D01*
Y118312D01*
X137149Y117312D01*
X134150D01*
X136149D02*
X138148Y115313D01*
X140148D02*
X142147D01*
X141147D01*
Y121311D01*
X140148Y120311D01*
X145146Y115313D02*
X147145D01*
X146146D01*
Y121311D01*
X145146Y120311D01*
X37423Y148002D02*
Y152000D01*
X36423Y153000D01*
X34424D01*
X33424Y152000D01*
Y148002D01*
X34424Y147002D01*
X36423D01*
X35423Y149001D02*
X37423Y147002D01*
X36423D02*
X37423Y148002D01*
X39422Y147002D02*
X41421D01*
X40422D01*
Y153000D01*
X39422Y152000D01*
X44420D02*
X45420Y153000D01*
X47420D01*
X48419Y152000D01*
Y151000D01*
X47420Y150001D01*
X48419Y149001D01*
Y148002D01*
X47420Y147002D01*
X45420D01*
X44420Y148002D01*
Y149001D01*
X45420Y150001D01*
X44420Y151000D01*
Y152000D01*
X45420Y150001D02*
X47420D01*
X76771Y148002D02*
Y152000D01*
X75771Y153000D01*
X73772D01*
X72772Y152000D01*
Y148002D01*
X73772Y147002D01*
X75771D01*
X74771Y149001D02*
X76771Y147002D01*
X75771D02*
X76771Y148002D01*
X78770Y147002D02*
X80769D01*
X79770D01*
Y153000D01*
X78770Y152000D01*
X87767Y153000D02*
X83768D01*
Y150001D01*
X85768Y151000D01*
X86768D01*
X87767Y150001D01*
Y148002D01*
X86768Y147002D01*
X84768D01*
X83768Y148002D01*
X116082D02*
Y152000D01*
X115082Y153000D01*
X113083D01*
X112083Y152000D01*
Y148002D01*
X113083Y147002D01*
X115082D01*
X114082Y149001D02*
X116082Y147002D01*
X115082D02*
X116082Y148002D01*
X118081Y147002D02*
X120080D01*
X119081D01*
Y153000D01*
X118081Y152000D01*
X127078Y147002D02*
X123079D01*
X127078Y151000D01*
Y152000D01*
X126078Y153000D01*
X124079D01*
X123079Y152000D01*
X55450Y142813D02*
Y148811D01*
X58449D01*
X59448Y147811D01*
Y145812D01*
X58449Y144812D01*
X55450D01*
X57449D02*
X59448Y142813D01*
X61448D02*
X63447D01*
X62447D01*
Y148811D01*
X61448Y147811D01*
X66446D02*
X67446Y148811D01*
X69445D01*
X70445Y147811D01*
Y146811D01*
X69445Y145812D01*
X70445Y144812D01*
Y143812D01*
X69445Y142813D01*
X67446D01*
X66446Y143812D01*
Y144812D01*
X67446Y145812D01*
X66446Y146811D01*
Y147811D01*
X67446Y145812D02*
X69445D01*
X94750Y142813D02*
Y148811D01*
X97749D01*
X98748Y147811D01*
Y145812D01*
X97749Y144812D01*
X94750D01*
X96749D02*
X98748Y142813D01*
X100748D02*
X102747D01*
X101747D01*
Y148811D01*
X100748Y147811D01*
X109745Y148811D02*
X105746D01*
Y145812D01*
X107745Y146811D01*
X108745D01*
X109745Y145812D01*
Y143812D01*
X108745Y142813D01*
X106746D01*
X105746Y143812D01*
X134150Y142813D02*
Y148811D01*
X137149D01*
X138148Y147811D01*
Y145812D01*
X137149Y144812D01*
X134150D01*
X136149D02*
X138148Y142813D01*
X140148D02*
X142147D01*
X141147D01*
Y148811D01*
X140148Y147811D01*
X149145Y142813D02*
X145146D01*
X149145Y146811D01*
Y147811D01*
X148145Y148811D01*
X146146D01*
X145146Y147811D01*
X35495Y33557D02*
X33495D01*
X34495D01*
Y28559D01*
X33495Y27559D01*
X32496D01*
X31496Y28559D01*
X41493Y27559D02*
X37494D01*
X41493Y31558D01*
Y32557D01*
X40493Y33557D01*
X38494D01*
X37494Y32557D01*
X149668Y155604D02*
X147669D01*
X148668D01*
Y150606D01*
X147669Y149606D01*
X146669D01*
X145669Y150606D01*
X151667Y149606D02*
X153667D01*
X152667D01*
Y155604D01*
X151667Y154605D01*
X39370Y175289D02*
Y169291D01*
X43369D01*
X45368Y175289D02*
Y174290D01*
X47368Y172290D01*
X49367Y174290D01*
Y175289D01*
X47368Y172290D02*
Y169291D01*
X55365Y174290D02*
X54365Y175289D01*
X52366D01*
X51366Y174290D01*
Y173290D01*
X52366Y172290D01*
X54365D01*
X55365Y171291D01*
Y170291D01*
X54365Y169291D01*
X52366D01*
X51366Y170291D01*
X57364Y169291D02*
Y175289D01*
X60363D01*
X61363Y174290D01*
Y172290D01*
X60363Y171291D01*
X57364D01*
X59364D02*
X61363Y169291D01*
X67361Y175289D02*
X63362D01*
Y169291D01*
X67361D01*
X63362Y172290D02*
X65362D01*
X69360Y175289D02*
Y169291D01*
Y171291D01*
X73359Y175289D01*
X70360Y172290D01*
X73359Y169291D01*
X75358Y175289D02*
Y169291D01*
X79357D01*
X81357D02*
Y173290D01*
X83356Y175289D01*
X85355Y173290D01*
Y169291D01*
Y172290D01*
X81357D01*
X87355Y169291D02*
Y175289D01*
X89354Y173290D01*
X91353Y175289D01*
Y169291D01*
X97351Y175289D02*
X93353D01*
Y169291D01*
X97351D01*
X93353Y172290D02*
X95352D01*
X99351Y169291D02*
Y175289D01*
X103349Y169291D01*
Y175289D01*
X39370Y183163D02*
Y177165D01*
X42369D01*
X43369Y178165D01*
Y182164D01*
X42369Y183163D01*
X39370D01*
X45368Y177165D02*
Y183163D01*
X48367D01*
X49367Y182164D01*
Y180164D01*
X48367Y179165D01*
X45368D01*
X47368D02*
X49367Y177165D01*
X51366Y183163D02*
X53365D01*
X52366D01*
Y177165D01*
X51366D01*
X53365D01*
X56365Y183163D02*
Y179165D01*
X58364Y177165D01*
X60363Y179165D01*
Y183163D01*
X66361D02*
X62363D01*
Y177165D01*
X66361D01*
X62363Y180164D02*
X64362D01*
X68361Y177165D02*
Y183163D01*
X71360D01*
X72359Y182164D01*
Y180164D01*
X71360Y179165D01*
X68361D01*
X70360D02*
X72359Y177165D01*
X74359Y183163D02*
Y177165D01*
Y179165D01*
X78357Y183163D01*
X75358Y180164D01*
X78357Y177165D01*
X83356Y183163D02*
X81357D01*
X80357Y182164D01*
Y178165D01*
X81357Y177165D01*
X83356D01*
X84355Y178165D01*
Y182164D01*
X83356Y183163D01*
X86355Y177165D02*
Y183163D01*
X89354D01*
X90354Y182164D01*
Y180164D01*
X89354Y179165D01*
X86355D01*
X88354D02*
X90354Y177165D01*
X92353Y183163D02*
X96352D01*
X94352D01*
Y177165D01*
M02*
