G04 Layer_Physical_Order=2*
G04 Layer_Color=16711680*
%FSLAX25Y25*%
%MOIN*%
G70*
G01*
G75*
%ADD10R,0.03937X0.03543*%
%ADD11R,0.05512X0.02362*%
%ADD12R,0.07087X0.02362*%
%ADD13C,0.00787*%
%ADD14C,0.03937*%
%ADD15C,0.01575*%
%ADD16C,0.02362*%
%ADD17C,0.07087*%
%ADD18R,0.07087X0.07087*%
%ADD19R,0.07087X0.07087*%
%ADD20C,0.23622*%
%ADD21C,0.05000*%
G36*
X131890Y79921D02*
Y77559D01*
X129331Y75000D01*
X121850D01*
X119291Y77559D01*
Y79921D01*
X121850Y82480D01*
X129331D01*
X131890Y79921D01*
D02*
G37*
G36*
X53150Y107480D02*
Y105118D01*
X50591Y102559D01*
X43110D01*
X40551Y105118D01*
Y107480D01*
X43110Y110039D01*
X50591D01*
X53150Y107480D01*
D02*
G37*
G36*
Y79921D02*
Y77559D01*
X50591Y75000D01*
X43110D01*
X40551Y77559D01*
Y79921D01*
X43110Y82480D01*
X50591D01*
X53150Y79921D01*
D02*
G37*
G36*
X92520D02*
Y77559D01*
X89961Y75000D01*
X82480D01*
X79921Y77559D01*
Y79921D01*
X82480Y82480D01*
X89961D01*
X92520Y79921D01*
D02*
G37*
G36*
Y107480D02*
Y105118D01*
X89961Y102559D01*
X82480D01*
X79921Y105118D01*
Y107480D01*
X82480Y110039D01*
X89961D01*
X92520Y107480D01*
D02*
G37*
G36*
Y135039D02*
Y132677D01*
X89961Y130118D01*
X82480D01*
X79921Y132677D01*
Y135039D01*
X82480Y137598D01*
X89961D01*
X92520Y135039D01*
D02*
G37*
G36*
X131890D02*
Y132677D01*
X129331Y130118D01*
X121850D01*
X119291Y132677D01*
Y135039D01*
X121850Y137598D01*
X129331D01*
X131890Y135039D01*
D02*
G37*
G36*
X131932Y107480D02*
Y105118D01*
X129373Y102559D01*
X121893D01*
X119334Y105118D01*
Y107480D01*
X121893Y110039D01*
X129373D01*
X131932Y107480D01*
D02*
G37*
G36*
X53150Y135039D02*
Y132677D01*
X50591Y130118D01*
X43110D01*
X40551Y132677D01*
Y135039D01*
X43110Y137598D01*
X50591D01*
X53150Y135039D01*
D02*
G37*
D10*
X29134Y130709D02*
D03*
Y137008D02*
D03*
Y103150D02*
D03*
Y109449D02*
D03*
Y75590D02*
D03*
Y81890D02*
D03*
X68504Y130709D02*
D03*
Y137008D02*
D03*
Y103150D02*
D03*
Y109449D02*
D03*
Y75590D02*
D03*
Y81890D02*
D03*
X107874Y130709D02*
D03*
Y137008D02*
D03*
Y103150D02*
D03*
Y109449D02*
D03*
Y75590D02*
D03*
Y81890D02*
D03*
D11*
X114961Y84646D02*
D03*
Y72835D02*
D03*
X115003Y112205D02*
D03*
Y100394D02*
D03*
X114961Y139764D02*
D03*
Y127953D02*
D03*
X36220Y84646D02*
D03*
Y72835D02*
D03*
X75591Y84646D02*
D03*
Y72835D02*
D03*
Y112205D02*
D03*
Y100394D02*
D03*
Y139764D02*
D03*
Y127953D02*
D03*
X36220Y112205D02*
D03*
Y100394D02*
D03*
Y139764D02*
D03*
Y127953D02*
D03*
D12*
X115748Y78740D02*
D03*
X115790Y106299D02*
D03*
X115748Y133858D02*
D03*
X37008Y78740D02*
D03*
X76378D02*
D03*
Y106299D02*
D03*
Y133858D02*
D03*
X37008Y106299D02*
D03*
Y133858D02*
D03*
D13*
X73264Y173980D02*
X77552Y178268D01*
X122407D01*
X149376Y151299D01*
X168228D01*
X70293Y173014D02*
X76965Y179685D01*
X122994D01*
X146380Y156299D01*
X173228D01*
X178228Y161299D01*
X144290Y160394D02*
X168228D01*
X66142Y157480D02*
Y170866D01*
X76378Y181102D01*
X123581D01*
X144290Y160394D01*
X168228D02*
Y161299D01*
X150787Y128740D02*
X168228Y111299D01*
X150787Y128740D02*
Y133071D01*
X149153Y105052D02*
Y129372D01*
X124983Y153543D02*
X149153Y129372D01*
X147736Y104465D02*
Y128785D01*
X127939Y148583D02*
X147736Y128785D01*
X146319Y103878D02*
Y128198D01*
X127352Y147165D02*
X146319Y128198D01*
X144902Y85780D02*
Y127611D01*
X126765Y145748D02*
X144902Y127611D01*
X143484Y85193D02*
Y127024D01*
X126178Y144331D02*
X143484Y127024D01*
X142067Y84606D02*
Y126437D01*
X125591Y142913D02*
X142067Y126437D01*
X119095Y153543D02*
X124983D01*
X117162Y157480D02*
X125591D01*
X114705Y155023D02*
X117162Y157480D01*
X114705Y151187D02*
Y155023D01*
Y151187D02*
X117309Y148583D01*
X127939D01*
X113287Y155610D02*
X119095Y161417D01*
X113287Y150600D02*
Y155610D01*
Y150600D02*
X116722Y147165D01*
X127352D01*
X74783Y163464D02*
X79095Y167776D01*
X104209D01*
X111870Y160114D01*
Y150013D02*
Y160114D01*
Y150013D02*
X116135Y145748D01*
X126765D01*
X76201Y162877D02*
X79682Y166358D01*
X103621D01*
X110453Y159527D01*
Y149426D02*
Y159527D01*
Y149426D02*
X115548Y144331D01*
X126178D01*
X79724Y161417D02*
X83248Y164941D01*
X103034D01*
X109035Y158940D01*
Y148839D02*
Y158940D01*
Y148839D02*
X114961Y142913D01*
X125591D01*
X105512Y157480D02*
X105610Y157382D01*
Y139272D02*
Y157382D01*
X99016Y161417D02*
X101181Y159252D01*
Y156361D02*
Y159252D01*
Y156361D02*
X104193Y153349D01*
Y113130D02*
Y153349D01*
X99016Y153543D02*
X102776Y149784D01*
Y86988D02*
Y149784D01*
X36489Y153543D02*
X40354D01*
X27559Y144613D02*
X36489Y153543D01*
X27559Y138583D02*
Y144613D01*
X38422Y157480D02*
X46850D01*
X26142Y145200D02*
X38422Y157480D01*
X26142Y112441D02*
Y145200D01*
X24724Y145787D02*
X40354Y161417D01*
X24724Y86299D02*
Y145787D01*
X27559Y138583D02*
X29134Y137008D01*
X66142Y157480D02*
X66142Y157480D01*
X66142Y139370D02*
Y157480D01*
X59646Y161417D02*
X62205Y158858D01*
Y156434D02*
Y158858D01*
Y156434D02*
X64682Y153957D01*
X64724Y113091D02*
Y153957D01*
X64682D02*
X64724D01*
X76201Y159232D02*
X77953Y157480D01*
X86221D01*
X59646Y153543D02*
X63307Y149882D01*
Y87087D02*
Y149882D01*
X152906Y101299D02*
X168228D01*
X149153Y105052D02*
X152906Y101299D01*
X155941Y96260D02*
X173189D01*
X147736Y104465D02*
X155941Y96260D01*
X158898Y91299D02*
X168228D01*
X146319Y103878D02*
X158898Y91299D01*
X173189Y96260D02*
X178228Y101299D01*
X76201Y159232D02*
Y162877D01*
X74783Y158484D02*
Y163464D01*
X142067Y84606D02*
X155374Y71299D01*
X143484Y85193D02*
X152398Y76279D01*
X144902Y85780D02*
X149383Y81299D01*
X168228D01*
X74783Y158484D02*
X79724Y153543D01*
X152398Y76279D02*
X173209D01*
X178228Y81299D01*
X155374Y71299D02*
X168228D01*
X24724Y86299D02*
X29134Y81890D01*
X26142Y112441D02*
X29134Y109449D01*
X66142Y139370D02*
X68504Y137008D01*
X64724Y113091D02*
X68366Y109449D01*
X68504D01*
X63307Y87087D02*
X68504Y81890D01*
X105610Y139272D02*
X107874Y137008D01*
X104193Y113130D02*
X107874Y109449D01*
X102776Y86988D02*
X107874Y81890D01*
D14*
X128839Y133268D02*
X139075Y123031D01*
Y47033D02*
Y123031D01*
X134508Y45142D02*
Y100236D01*
Y45142D02*
X152657Y26992D01*
X129921Y43270D02*
X147677Y25514D01*
X129921Y43270D02*
Y77953D01*
X128937Y78937D02*
X129921Y77953D01*
X125689Y78937D02*
X128937D01*
X99783Y66949D02*
X137677Y29055D01*
X68859Y50765D02*
X83674D01*
X51181Y68443D02*
X68859Y50765D01*
X85566Y55332D02*
X112677Y28221D01*
X70751Y55332D02*
X85566D01*
X55748Y70335D02*
X70751Y55332D01*
X87458Y59899D02*
X117677Y29679D01*
X72643Y59899D02*
X87458D01*
X60315Y72226D02*
X72643Y59899D01*
X90650Y63165D02*
X127677Y26138D01*
X90650Y63165D02*
Y77559D01*
X95217Y65057D02*
X132677Y27597D01*
X95217Y65057D02*
Y99764D01*
X99783Y66949D02*
Y122854D01*
X139075Y47033D02*
X157677Y28431D01*
Y20748D02*
Y28431D01*
X128150Y106595D02*
X134508Y100236D01*
X147677Y20748D02*
Y25514D01*
X137677Y20748D02*
Y29055D01*
X127677Y20748D02*
Y26138D01*
X117677Y20748D02*
Y29679D01*
X107677Y20748D02*
Y26762D01*
X83674Y50765D02*
X107677Y26762D01*
X60315Y72226D02*
Y122658D01*
X55748Y70335D02*
Y99961D01*
X48917Y134055D02*
X60315Y122658D01*
X48327Y134055D02*
X48917D01*
X49213Y106496D02*
X55748Y99961D01*
X47835Y106496D02*
X49213D01*
X51181Y68443D02*
Y78543D01*
X88484Y134153D02*
X99783Y122854D01*
X86713Y134153D02*
X88484D01*
X88878Y106102D02*
X95217Y99764D01*
X86811Y106102D02*
X88878D01*
X89862Y78347D02*
X90650Y77559D01*
X87795Y78347D02*
X89862D01*
X87303Y78839D02*
X87795Y78347D01*
X127067Y106595D02*
X128150D01*
D15*
X132677Y15748D02*
Y27597D01*
X112677Y15748D02*
Y28221D01*
Y15748D02*
X117677Y10748D01*
X132677Y15748D02*
X137677Y10748D01*
X152657Y15768D02*
X157677Y10748D01*
X152657Y15768D02*
Y26772D01*
D16*
X29134Y130709D02*
X31890Y127953D01*
X36220D01*
X29134Y103150D02*
X31890Y100394D01*
X36220D01*
X29134Y75590D02*
X31890Y72835D01*
X36220D01*
X68504Y75590D02*
X71260Y72835D01*
X75591D01*
X68504Y103150D02*
X71260Y100394D01*
X75591D01*
X68504Y130709D02*
X71260Y127953D01*
X75591D01*
X107874Y130709D02*
X110630Y127953D01*
X114961D01*
X107874Y103150D02*
X110630Y100394D01*
X115003D01*
X107874Y75590D02*
X110630Y72835D01*
X114961D01*
D17*
X7677Y20748D02*
D03*
X17677D02*
D03*
X27677D02*
D03*
X37677D02*
D03*
X47677D02*
D03*
X57677D02*
D03*
X67677D02*
D03*
X77677D02*
D03*
X87677D02*
D03*
X97677D02*
D03*
X107677D02*
D03*
X117677D02*
D03*
X127677D02*
D03*
X137677D02*
D03*
X147677D02*
D03*
X157677Y10748D02*
D03*
X147677D02*
D03*
X137677D02*
D03*
X127677D02*
D03*
X117677D02*
D03*
X107677D02*
D03*
X97677D02*
D03*
X87677D02*
D03*
X77677D02*
D03*
X67677D02*
D03*
X57677D02*
D03*
X47677D02*
D03*
X37677D02*
D03*
X27677D02*
D03*
X17677D02*
D03*
X7677D02*
D03*
X168228Y31299D02*
D03*
Y41299D02*
D03*
Y51299D02*
D03*
Y61299D02*
D03*
Y71299D02*
D03*
Y81299D02*
D03*
Y91299D02*
D03*
Y101299D02*
D03*
Y111299D02*
D03*
Y121299D02*
D03*
Y131299D02*
D03*
Y141299D02*
D03*
Y151299D02*
D03*
Y161299D02*
D03*
Y171299D02*
D03*
X178228Y181299D02*
D03*
Y171299D02*
D03*
Y161299D02*
D03*
Y151299D02*
D03*
Y141299D02*
D03*
Y131299D02*
D03*
Y121299D02*
D03*
Y111299D02*
D03*
Y101299D02*
D03*
Y91299D02*
D03*
Y81299D02*
D03*
Y71299D02*
D03*
Y61299D02*
D03*
Y51299D02*
D03*
Y41299D02*
D03*
Y31299D02*
D03*
D18*
X157677Y20748D02*
D03*
D19*
X168228Y181299D02*
D03*
D20*
X149606Y173228D02*
D03*
X15748Y39370D02*
D03*
X204724Y-9843D02*
D03*
X15748Y173228D02*
D03*
D21*
X150787Y133071D02*
D03*
X86221Y157480D02*
D03*
X40354Y161417D02*
D03*
Y153543D02*
D03*
X46850Y157480D02*
D03*
X59646Y161417D02*
D03*
Y153543D02*
D03*
X66142Y157480D02*
D03*
X105512D02*
D03*
X99016Y153543D02*
D03*
Y161417D02*
D03*
X125591Y157480D02*
D03*
X119095Y153543D02*
D03*
Y161417D02*
D03*
X79724D02*
D03*
Y153543D02*
D03*
M02*
