G04 Layer_Physical_Order=1*
G04 Layer_Color=255*
%FSLAX25Y25*%
%MOIN*%
G70*
G01*
G75*
%ADD10R,0.03937X0.03543*%
%ADD11R,0.05512X0.02362*%
%ADD12R,0.07087X0.02362*%
%ADD13C,0.00787*%
%ADD14C,0.03937*%
%ADD15C,0.01575*%
%ADD16C,0.02362*%
%ADD17C,0.07087*%
%ADD18R,0.07087X0.07087*%
%ADD19R,0.07087X0.07087*%
%ADD20C,0.23622*%
%ADD21C,0.05000*%
G36*
X132354Y132047D02*
X133346Y130815D01*
X132558Y129799D01*
X129134D01*
X128956Y129764D01*
X125748D01*
Y126142D01*
X128956D01*
X129134Y126106D01*
X133465D01*
X134171Y126247D01*
X134770Y126647D01*
X136430Y128307D01*
X138819D01*
Y130876D01*
X140274Y131479D01*
X142263Y129489D01*
Y120473D01*
X142263Y120473D01*
X142343Y120073D01*
X142569Y119735D01*
X161742Y100561D01*
X161742Y100561D01*
X162081Y100335D01*
X162480Y100256D01*
X162480Y100256D01*
X164157D01*
X164163Y100210D01*
X164583Y99195D01*
X164977Y98682D01*
X164574Y97479D01*
X164274Y97107D01*
X150039D01*
X138819Y108326D01*
Y111851D01*
X134465D01*
X133622Y111851D01*
X132890Y113122D01*
Y113272D01*
X131265Y111648D01*
X130152Y112762D01*
X131776Y114386D01*
X126492D01*
X128116Y112762D01*
X127002Y111648D01*
X125378Y113272D01*
Y110041D01*
X124252Y108940D01*
X122698Y110494D01*
X122490Y110633D01*
X122244Y110682D01*
X122244Y110682D01*
X114764D01*
X114518Y110633D01*
X114310Y110494D01*
X111751Y107935D01*
X111611Y107726D01*
X111563Y107480D01*
X111563Y107480D01*
Y105525D01*
X109215Y103178D01*
X107641Y103830D01*
Y121552D01*
X115564Y129476D01*
X122244D01*
X122490Y129525D01*
X122698Y129664D01*
X125082Y132047D01*
X132354Y132047D01*
D02*
G37*
G36*
Y104488D02*
X133346Y103256D01*
X132558Y102240D01*
X129134D01*
X128956Y102205D01*
X125748D01*
Y98583D01*
X128956D01*
X129134Y98547D01*
X133465D01*
X134171Y98688D01*
X134770Y99088D01*
X136430Y100748D01*
X138819D01*
Y103317D01*
X140274Y103920D01*
X148868Y95325D01*
X148868Y95325D01*
X149207Y95099D01*
X149606Y95019D01*
X149606Y95019D01*
X163838D01*
X164614Y93445D01*
X164583Y93404D01*
X164163Y92389D01*
X164019Y91299D01*
X164163Y90210D01*
X164583Y89195D01*
X164611Y89158D01*
X159961Y84508D01*
X137795D01*
X137795Y84508D01*
X137396Y84429D01*
X137190Y84291D01*
X133622Y84291D01*
X132890Y85563D01*
Y85713D01*
X131265Y84089D01*
X130152Y85202D01*
X131776Y86827D01*
X126492D01*
X128116Y85202D01*
X127002Y84089D01*
X125378Y85713D01*
Y82482D01*
X124252Y81381D01*
X122698Y82935D01*
X122490Y83074D01*
X122244Y83123D01*
X122244Y83123D01*
X114764D01*
X114518Y83074D01*
X114310Y82935D01*
X113663Y82287D01*
X112208Y82890D01*
Y98757D01*
X115367Y101917D01*
X122244D01*
X122490Y101966D01*
X122698Y102105D01*
X125082Y104488D01*
X132354Y104488D01*
D02*
G37*
G36*
X46063Y107480D02*
Y105118D01*
X43504Y102559D01*
X36024D01*
X33465Y105118D01*
Y107480D01*
X36024Y110039D01*
X43504D01*
X46063Y107480D01*
D02*
G37*
G36*
X124803D02*
Y105118D01*
X122244Y102559D01*
X114764D01*
X112205Y105118D01*
Y107480D01*
X114764Y110039D01*
X122244D01*
X124803Y107480D01*
D02*
G37*
G36*
X85433D02*
Y105118D01*
X82874Y102559D01*
X75394D01*
X72835Y105118D01*
Y107480D01*
X75394Y110039D01*
X82874D01*
X85433Y107480D01*
D02*
G37*
G36*
Y79921D02*
Y77559D01*
X82874Y75000D01*
X75394D01*
X72835Y77559D01*
Y79921D01*
X75394Y82480D01*
X82874D01*
X85433Y79921D01*
D02*
G37*
G36*
X46063D02*
Y77559D01*
X43504Y75000D01*
X36024D01*
X33465Y77559D01*
Y79921D01*
X36024Y82480D01*
X43504D01*
X46063Y79921D01*
D02*
G37*
G36*
X124803D02*
Y77559D01*
X122244Y75000D01*
X114764D01*
X112205Y77559D01*
Y79921D01*
X114764Y82480D01*
X122244D01*
X124803Y79921D01*
D02*
G37*
G36*
X92984Y104488D02*
X93976Y103256D01*
X93188Y102240D01*
X89764D01*
X89586Y102205D01*
X86378D01*
Y98583D01*
X89586D01*
X89764Y98547D01*
X94095D01*
X94801Y98688D01*
X95400Y99088D01*
X97060Y100748D01*
X99409D01*
X99449Y100748D01*
X100984Y100652D01*
Y87499D01*
X97776Y84291D01*
X94252Y84291D01*
X93520Y85563D01*
Y85713D01*
X91896Y84089D01*
X90782Y85202D01*
X92406Y86827D01*
X87121D01*
X88746Y85202D01*
X87632Y84089D01*
X86008Y85713D01*
Y82482D01*
X84882Y81381D01*
X83328Y82935D01*
X83120Y83074D01*
X82874Y83123D01*
X82874Y83123D01*
X75394D01*
X75148Y83074D01*
X74940Y82935D01*
X74312Y82307D01*
X72857Y82910D01*
Y97104D01*
X77671Y101917D01*
X82874D01*
X83120Y101966D01*
X83328Y102105D01*
X85711Y104488D01*
X92984Y104488D01*
D02*
G37*
G36*
X53614D02*
X54606Y103256D01*
X53818Y102240D01*
X50394D01*
X50215Y102205D01*
X47008D01*
Y98583D01*
X50215D01*
X50394Y98547D01*
X54725D01*
X55431Y98688D01*
X56030Y99088D01*
X57690Y100748D01*
X59803D01*
X60079Y100748D01*
X61378Y100082D01*
Y87263D01*
X58406Y84291D01*
X54882Y84291D01*
X54150Y85563D01*
Y85713D01*
X52525Y84089D01*
X51412Y85202D01*
X53036Y86827D01*
X47752D01*
X49376Y85202D01*
X48262Y84089D01*
X46638Y85713D01*
Y82482D01*
X45512Y81381D01*
X43958Y82935D01*
X43750Y83074D01*
X43504Y83123D01*
X43504Y83123D01*
X36024D01*
X35778Y83074D01*
X35570Y82935D01*
X34883Y82248D01*
X33428Y82851D01*
Y98816D01*
X36529Y101917D01*
X43504D01*
X43750Y101966D01*
X43958Y102105D01*
X46341Y104488D01*
X53614Y104488D01*
D02*
G37*
G36*
Y132047D02*
X54606Y130815D01*
X53818Y129799D01*
X50394D01*
X50215Y129764D01*
X47008D01*
Y126142D01*
X50215D01*
X50394Y126106D01*
X54725D01*
X55431Y126247D01*
X56030Y126647D01*
X57690Y128307D01*
X59960D01*
Y113405D01*
X58406Y111851D01*
X54882Y111851D01*
X54150Y113122D01*
Y113272D01*
X52525Y111648D01*
X51412Y112762D01*
X53036Y114386D01*
X47752D01*
X49376Y112762D01*
X48262Y111648D01*
X46638Y113272D01*
Y110041D01*
X45512Y108940D01*
X43958Y110494D01*
X43750Y110633D01*
X43504Y110682D01*
X43504Y110682D01*
X36024D01*
X35778Y110633D01*
X35570Y110494D01*
X33011Y107935D01*
X32871Y107726D01*
X32822Y107480D01*
X32822Y107480D01*
Y105623D01*
X30377Y103178D01*
X28802Y103830D01*
Y121651D01*
X36627Y129476D01*
X43504D01*
X43750Y129525D01*
X43958Y129664D01*
X46341Y132047D01*
X53614Y132047D01*
D02*
G37*
G36*
X85433Y135039D02*
Y132677D01*
X82874Y130118D01*
X75394D01*
X72835Y132677D01*
Y135039D01*
X75394Y137599D01*
X82874D01*
X85433Y135039D01*
D02*
G37*
G36*
X46063D02*
Y132677D01*
X43504Y130118D01*
X36024D01*
X33465Y132677D01*
Y135039D01*
X36024Y137599D01*
X43504D01*
X46063Y135039D01*
D02*
G37*
G36*
X188976Y188976D02*
Y-0D01*
X0D01*
X0Y0D01*
Y14791D01*
X217Y14955D01*
X1575Y15375D01*
X4060Y12889D01*
X4032Y12853D01*
X3611Y11838D01*
X3468Y10748D01*
X3611Y9659D01*
X4032Y8643D01*
X4701Y7772D01*
X5573Y7103D01*
X6588Y6682D01*
X7677Y6539D01*
X8767Y6682D01*
X9782Y7103D01*
X10654Y7772D01*
X11323Y8643D01*
X11743Y9659D01*
X11886Y10748D01*
X11743Y11838D01*
X11323Y12853D01*
X10654Y13724D01*
X9782Y14393D01*
X8767Y14814D01*
X7677Y14957D01*
X6588Y14814D01*
X5573Y14393D01*
X5536Y14365D01*
X3883Y16018D01*
X3962Y16354D01*
X5421Y17032D01*
X5737Y17035D01*
X6588Y16682D01*
X7677Y16539D01*
X8767Y16682D01*
X9782Y17103D01*
X10654Y17772D01*
X11323Y18643D01*
X11743Y19659D01*
X11886Y20748D01*
X11743Y21838D01*
X11323Y22853D01*
X10654Y23724D01*
X9782Y24393D01*
X8767Y24814D01*
X7677Y24957D01*
X6588Y24814D01*
X5573Y24393D01*
X4701Y23724D01*
X4587Y23576D01*
X3012Y24111D01*
Y33492D01*
X4587Y33806D01*
X4629Y33705D01*
X5652Y32035D01*
X6924Y30546D01*
X8413Y29274D01*
X10083Y28251D01*
X11892Y27502D01*
X13796Y27044D01*
X15748Y26891D01*
X17700Y27044D01*
X19604Y27502D01*
X21414Y28251D01*
X22356Y26981D01*
X21703Y26329D01*
X21477Y25990D01*
X21397Y25591D01*
X21397Y25591D01*
Y25139D01*
X19823Y24362D01*
X19782Y24393D01*
X18767Y24814D01*
X17677Y24957D01*
X16588Y24814D01*
X15573Y24393D01*
X14701Y23724D01*
X14032Y22853D01*
X13611Y21838D01*
X13468Y20748D01*
X13611Y19659D01*
X14032Y18643D01*
X14701Y17772D01*
X15573Y17103D01*
X16588Y16682D01*
X17677Y16539D01*
X18767Y16682D01*
X20242Y15757D01*
X18985Y14724D01*
X18767Y14814D01*
X17677Y14957D01*
X16588Y14814D01*
X15573Y14393D01*
X14701Y13724D01*
X14032Y12853D01*
X13611Y11838D01*
X13468Y10748D01*
X13611Y9659D01*
X14032Y8643D01*
X14701Y7772D01*
X15573Y7103D01*
X16588Y6682D01*
X17677Y6539D01*
X18767Y6682D01*
X19782Y7103D01*
X20654Y7772D01*
X21323Y8643D01*
X21672Y9488D01*
X22139Y9633D01*
X22969Y9580D01*
X23300Y9445D01*
X23709Y8457D01*
X23954Y8138D01*
X27121Y11305D01*
X30288Y14472D01*
X29969Y14717D01*
X28981Y15126D01*
X28845Y15457D01*
X28792Y16287D01*
X28938Y16753D01*
X29782Y17103D01*
X30654Y17772D01*
X31323Y18643D01*
X31743Y19659D01*
X31827Y20296D01*
X32677Y20851D01*
X33527Y20296D01*
X33612Y19659D01*
X34032Y18643D01*
X34701Y17772D01*
X35573Y17103D01*
X36588Y16682D01*
X37677Y16539D01*
X38767Y16682D01*
X39782Y17103D01*
X40654Y17772D01*
X41323Y18643D01*
X41743Y19659D01*
X41886Y20748D01*
X41743Y21838D01*
X41323Y22853D01*
X40654Y23724D01*
X39782Y24393D01*
X38767Y24814D01*
X38277Y24878D01*
X35298Y27857D01*
Y46457D01*
X35209Y47135D01*
X34947Y47767D01*
X34530Y48310D01*
X12464Y70377D01*
Y135529D01*
X53448Y176513D01*
X65652D01*
X66304Y174938D01*
X58849Y167483D01*
X58622Y167145D01*
X58543Y166745D01*
X58543Y166745D01*
Y140523D01*
X57429Y139409D01*
X54882Y139409D01*
X54150Y140681D01*
Y140831D01*
X52525Y139207D01*
X51412Y140321D01*
X53036Y141945D01*
X47752D01*
X49376Y140321D01*
X48262Y139207D01*
X46638Y140831D01*
Y137600D01*
X45512Y136499D01*
X43958Y138053D01*
X43750Y138192D01*
X43504Y138241D01*
X43504Y138241D01*
X36024D01*
X35778Y138192D01*
X35570Y138053D01*
X33011Y135494D01*
X32871Y135285D01*
X32822Y135039D01*
X32822Y135039D01*
Y133084D01*
X24328Y124590D01*
X23911Y124047D01*
X23650Y123415D01*
X23560Y122736D01*
Y67323D01*
X23650Y66645D01*
X23911Y66013D01*
X24328Y65470D01*
X45056Y44741D01*
Y23997D01*
X44701Y23724D01*
X44032Y22853D01*
X43611Y21838D01*
X43468Y20748D01*
X43611Y19659D01*
X44032Y18643D01*
X44701Y17772D01*
X45573Y17103D01*
X46417Y16753D01*
X46562Y16287D01*
X46509Y15457D01*
X46374Y15126D01*
X45386Y14717D01*
X45067Y14472D01*
X48234Y11305D01*
X51401Y8138D01*
X51646Y8457D01*
X52055Y9445D01*
X52386Y9580D01*
X53216Y9633D01*
X53682Y9488D01*
X54032Y8643D01*
X54701Y7772D01*
X55573Y7103D01*
X56588Y6682D01*
X57677Y6539D01*
X58767Y6682D01*
X59782Y7103D01*
X60654Y7772D01*
X61323Y8643D01*
X61672Y9488D01*
X62138Y9633D01*
X62969Y9580D01*
X63300Y9445D01*
X63709Y8457D01*
X63954Y8138D01*
X66564Y10748D01*
X63954Y13358D01*
X63709Y13039D01*
X63300Y12052D01*
X62969Y11916D01*
X62138Y11863D01*
X61672Y12008D01*
X61323Y12853D01*
X60654Y13724D01*
X59782Y14393D01*
X58767Y14814D01*
X57677Y14957D01*
X56588Y14814D01*
X56027Y14581D01*
X54968Y15638D01*
X55604Y17018D01*
X55697Y17051D01*
X56588Y16682D01*
X57677Y16539D01*
X58767Y16682D01*
X59782Y17103D01*
X60654Y17772D01*
X61323Y18643D01*
X61660Y19458D01*
X62382Y19823D01*
X63387Y20082D01*
X63576Y19928D01*
X63612Y19659D01*
X64032Y18643D01*
X64701Y17772D01*
X65573Y17103D01*
X66417Y16753D01*
X66562Y16287D01*
X66509Y15457D01*
X66374Y15126D01*
X65386Y14717D01*
X65067Y14472D01*
X68234Y11305D01*
X71401Y8138D01*
X71646Y8457D01*
X72055Y9445D01*
X72386Y9580D01*
X73216Y9633D01*
X73682Y9488D01*
X74032Y8643D01*
X74701Y7772D01*
X75573Y7103D01*
X76588Y6682D01*
X77677Y6539D01*
X78767Y6682D01*
X79782Y7103D01*
X80654Y7772D01*
X81323Y8643D01*
X81672Y9488D01*
X82139Y9633D01*
X82969Y9580D01*
X83299Y9445D01*
X83709Y8457D01*
X83953Y8138D01*
X86564Y10748D01*
X83953Y13358D01*
X83709Y13039D01*
X83299Y12052D01*
X82969Y11916D01*
X82139Y11863D01*
X81672Y12008D01*
X81323Y12853D01*
X80654Y13724D01*
X79782Y14393D01*
X78767Y14814D01*
X77677Y14957D01*
X76588Y14814D01*
X76026Y14581D01*
X74968Y15638D01*
X75604Y17018D01*
X75697Y17051D01*
X76588Y16682D01*
X77677Y16539D01*
X78767Y16682D01*
X79782Y17103D01*
X80654Y17772D01*
X81323Y18643D01*
X81743Y19659D01*
X81887Y20748D01*
X81743Y21838D01*
X81323Y22853D01*
X80654Y23724D01*
X80298Y23997D01*
Y26262D01*
X80209Y26940D01*
X79947Y27572D01*
X79531Y28115D01*
X77424Y30222D01*
Y74358D01*
X82874D01*
X83120Y74407D01*
X83328Y74546D01*
X85711Y76929D01*
X92984Y76929D01*
X93976Y75697D01*
X93188Y74681D01*
X89764D01*
X89586Y74646D01*
X86378D01*
Y71024D01*
X89586D01*
X89764Y70988D01*
X94095D01*
X94801Y71129D01*
X95400Y71529D01*
X97060Y73189D01*
X99449D01*
Y77913D01*
X99449Y77992D01*
Y79488D01*
X99449Y79567D01*
Y83012D01*
X100944Y84507D01*
X102399Y83905D01*
Y44651D01*
X85824Y28076D01*
X85408Y27533D01*
X85146Y26901D01*
X85056Y26223D01*
Y23997D01*
X84701Y23724D01*
X84032Y22853D01*
X83612Y21838D01*
X83468Y20748D01*
X83612Y19659D01*
X84032Y18643D01*
X84701Y17772D01*
X85573Y17103D01*
X86417Y16753D01*
X86563Y16287D01*
X86509Y15457D01*
X86374Y15126D01*
X85386Y14717D01*
X85067Y14472D01*
X88234Y11305D01*
X91401Y8138D01*
X91646Y8457D01*
X92055Y9445D01*
X92386Y9580D01*
X93216Y9633D01*
X93682Y9488D01*
X94032Y8643D01*
X94701Y7772D01*
X95573Y7103D01*
X96588Y6682D01*
X97677Y6539D01*
X98767Y6682D01*
X99782Y7103D01*
X100654Y7772D01*
X101323Y8643D01*
X101672Y9488D01*
X102138Y9633D01*
X102969Y9580D01*
X103299Y9445D01*
X103709Y8457D01*
X103954Y8138D01*
X106564Y10748D01*
X103954Y13358D01*
X103709Y13039D01*
X103299Y12052D01*
X102969Y11916D01*
X102138Y11863D01*
X101672Y12008D01*
X101323Y12853D01*
X100654Y13724D01*
X99782Y14393D01*
X98767Y14814D01*
X97677Y14957D01*
X96588Y14814D01*
X96226Y14664D01*
X95111Y15781D01*
X95645Y17001D01*
X95736Y17035D01*
X96588Y16682D01*
X97677Y16539D01*
X98767Y16682D01*
X99782Y17103D01*
X100654Y17772D01*
X101323Y18643D01*
X101743Y19659D01*
X101886Y20748D01*
X101743Y21838D01*
X101323Y22853D01*
X101212Y22997D01*
X116026Y37812D01*
X116443Y38355D01*
X116705Y38987D01*
X116794Y39665D01*
Y74358D01*
X122244D01*
X122490Y74407D01*
X122698Y74546D01*
X125082Y76929D01*
X132354Y76929D01*
X133346Y75697D01*
X132558Y74681D01*
X129134D01*
X128956Y74646D01*
X125748D01*
Y71024D01*
X128956D01*
X129134Y70988D01*
X133465D01*
X134171Y71129D01*
X134770Y71529D01*
X136430Y73189D01*
X138819D01*
Y77913D01*
X138819Y77992D01*
Y79488D01*
X138819Y79567D01*
Y82421D01*
X160394D01*
X160394Y82421D01*
X160793Y82500D01*
X161132Y82727D01*
X166087Y87682D01*
X166124Y87654D01*
X167139Y87234D01*
X168228Y87090D01*
X169318Y87234D01*
X170333Y87654D01*
X171205Y88323D01*
X171874Y89195D01*
X172294Y90210D01*
X172438Y91299D01*
X172294Y92389D01*
X173220Y93864D01*
X174253Y92607D01*
X174163Y92389D01*
X174019Y91299D01*
X174163Y90210D01*
X174583Y89195D01*
X175252Y88323D01*
X176124Y87654D01*
X176968Y87304D01*
X177114Y86838D01*
X177060Y86008D01*
X176925Y85677D01*
X175937Y85268D01*
X175618Y85023D01*
X178228Y82413D01*
X180839Y85023D01*
X180520Y85268D01*
X179532Y85677D01*
X179396Y86008D01*
X179343Y86838D01*
X179489Y87304D01*
X180333Y87654D01*
X181205Y88323D01*
X181874Y89195D01*
X182294Y90210D01*
X182438Y91299D01*
X182294Y92389D01*
X181874Y93404D01*
X181205Y94276D01*
X180333Y94945D01*
X179489Y95294D01*
X179343Y95761D01*
X179396Y96591D01*
X179532Y96922D01*
X180520Y97331D01*
X180839Y97575D01*
X177672Y100742D01*
X174505Y103910D01*
X174260Y103591D01*
X173851Y102603D01*
X173520Y102467D01*
X172690Y102414D01*
X172223Y102560D01*
X171874Y103404D01*
X171205Y104276D01*
X170333Y104945D01*
X169318Y105365D01*
X168228Y105508D01*
X167139Y105365D01*
X166124Y104945D01*
X165252Y104276D01*
X164583Y103404D01*
X164316Y102758D01*
X162954Y102580D01*
X162623Y102632D01*
X144351Y120905D01*
Y129921D01*
X144271Y130321D01*
X144045Y130659D01*
X144045Y130659D01*
X138819Y135886D01*
Y139409D01*
X134465D01*
X133622Y139409D01*
X132890Y140681D01*
Y140831D01*
X131265Y139207D01*
X130152Y140321D01*
X131776Y141945D01*
X126492D01*
X128116Y140321D01*
X127002Y139207D01*
X125378Y140831D01*
Y137600D01*
X124252Y136499D01*
X122698Y138053D01*
X122490Y138192D01*
X122244Y138241D01*
X122244Y138241D01*
X114764D01*
X114518Y138192D01*
X114310Y138053D01*
X112715Y138684D01*
X112610Y139480D01*
X118149Y145019D01*
X147206D01*
X159783Y132442D01*
Y118701D01*
X159783Y118701D01*
X159863Y118301D01*
X160089Y117963D01*
X164611Y113441D01*
X164583Y113404D01*
X164163Y112389D01*
X164019Y111299D01*
X164163Y110210D01*
X164583Y109195D01*
X165252Y108323D01*
X166124Y107654D01*
X167139Y107234D01*
X168228Y107090D01*
X169318Y107234D01*
X170333Y107654D01*
X171205Y108323D01*
X171874Y109195D01*
X172294Y110210D01*
X172438Y111299D01*
X172294Y112389D01*
X171918Y113296D01*
X172119Y113774D01*
X172794Y114791D01*
X173258Y114793D01*
X174611Y113441D01*
X174583Y113404D01*
X174163Y112389D01*
X174019Y111299D01*
X174163Y110210D01*
X174583Y109195D01*
X175252Y108323D01*
X176124Y107654D01*
X176968Y107304D01*
X177114Y106838D01*
X177060Y106008D01*
X176925Y105677D01*
X175937Y105268D01*
X175618Y105023D01*
X178228Y102413D01*
X180839Y105023D01*
X180520Y105268D01*
X179532Y105677D01*
X179396Y106008D01*
X179343Y106838D01*
X179489Y107304D01*
X180333Y107654D01*
X181205Y108323D01*
X181874Y109195D01*
X182294Y110210D01*
X182438Y111299D01*
X182294Y112389D01*
X181874Y113404D01*
X181205Y114276D01*
X180333Y114945D01*
X179489Y115294D01*
X179343Y115761D01*
X179396Y116591D01*
X179532Y116922D01*
X180520Y117331D01*
X180839Y117576D01*
X177672Y120742D01*
X174505Y123909D01*
X174260Y123591D01*
X173851Y122603D01*
X173520Y122467D01*
X172690Y122414D01*
X172223Y122560D01*
X171874Y123404D01*
X171205Y124276D01*
X170333Y124945D01*
X169318Y125365D01*
X168228Y125508D01*
X167139Y125365D01*
X166713Y125189D01*
X165376Y126013D01*
X165236Y126213D01*
X165264Y126548D01*
X166762Y127390D01*
X167139Y127234D01*
X168228Y127090D01*
X169318Y127234D01*
X170333Y127654D01*
X171205Y128323D01*
X171874Y129195D01*
X172294Y130210D01*
X172438Y131299D01*
X172294Y132389D01*
X172286Y132407D01*
X173184Y134152D01*
X173282Y134168D01*
X173303Y134155D01*
X174373Y132897D01*
X174163Y132389D01*
X174019Y131299D01*
X174163Y130210D01*
X174583Y129195D01*
X175252Y128323D01*
X176124Y127654D01*
X176968Y127304D01*
X177114Y126838D01*
X177060Y126008D01*
X176925Y125677D01*
X175937Y125268D01*
X175618Y125023D01*
X178228Y122413D01*
X180839Y125023D01*
X180520Y125268D01*
X179532Y125677D01*
X179396Y126008D01*
X179343Y126838D01*
X179489Y127304D01*
X180333Y127654D01*
X181205Y128323D01*
X181874Y129195D01*
X182294Y130210D01*
X182438Y131299D01*
X182294Y132389D01*
X181874Y133404D01*
X181205Y134276D01*
X180333Y134945D01*
X179489Y135294D01*
X179343Y135761D01*
X179396Y136591D01*
X179532Y136922D01*
X180520Y137331D01*
X180839Y137575D01*
X177672Y140743D01*
X174505Y143910D01*
X174260Y143591D01*
X173851Y142603D01*
X173520Y142467D01*
X172690Y142414D01*
X172223Y142560D01*
X171874Y143404D01*
X171205Y144276D01*
X170333Y144945D01*
X169318Y145365D01*
X168228Y145509D01*
X167139Y145365D01*
X166124Y144945D01*
X165252Y144276D01*
X164583Y143404D01*
X164287Y142690D01*
X163060Y142535D01*
X162602Y142596D01*
X152701Y152497D01*
X153354Y154072D01*
X161749D01*
X164078Y151744D01*
X164019Y151299D01*
X164163Y150210D01*
X164583Y149195D01*
X165252Y148323D01*
X166124Y147654D01*
X167139Y147233D01*
X168228Y147090D01*
X169318Y147233D01*
X170333Y147654D01*
X171205Y148323D01*
X171874Y149195D01*
X172294Y150210D01*
X172438Y151299D01*
X172294Y152389D01*
X171874Y153404D01*
X171205Y154276D01*
X170333Y154945D01*
X169318Y155365D01*
X169263Y155372D01*
X169058Y155611D01*
X169194Y156461D01*
X169551Y157330D01*
X170333Y157654D01*
X171205Y158323D01*
X171874Y159195D01*
X172223Y160039D01*
X172690Y160185D01*
X173520Y160131D01*
X173851Y159996D01*
X174260Y159008D01*
X174505Y158689D01*
X177672Y161856D01*
X180839Y165023D01*
X180520Y165268D01*
X179532Y165677D01*
X179396Y166008D01*
X179343Y166838D01*
X179489Y167304D01*
X180333Y167654D01*
X181205Y168323D01*
X181874Y169195D01*
X182294Y170210D01*
X182438Y171299D01*
X182294Y172389D01*
X181874Y173404D01*
X181205Y174276D01*
X180333Y174945D01*
X179318Y175365D01*
X178228Y175508D01*
X177139Y175365D01*
X176124Y174945D01*
X175252Y174276D01*
X174583Y173404D01*
X174163Y172389D01*
X174019Y171299D01*
X174163Y170210D01*
X174520Y169347D01*
X173975Y168732D01*
X173332Y168242D01*
X173135Y168279D01*
X172996Y168379D01*
X172228Y170049D01*
X172294Y170210D01*
X172438Y171299D01*
X172294Y172389D01*
X171874Y173404D01*
X171205Y174276D01*
X170333Y174945D01*
X169318Y175365D01*
X168228Y175508D01*
X167139Y175365D01*
X166124Y174945D01*
X165252Y174276D01*
X164583Y173404D01*
X164163Y172389D01*
X164019Y171299D01*
X164163Y170210D01*
X164583Y169195D01*
X164841Y168859D01*
X164142Y167284D01*
X163091D01*
X162691Y167204D01*
X162353Y166978D01*
X162206Y167022D01*
X161276Y168891D01*
X161475Y169372D01*
X161932Y171276D01*
X162086Y173228D01*
X161932Y175181D01*
X161475Y177085D01*
X160726Y178894D01*
X159702Y180564D01*
X158431Y182053D01*
X156942Y183325D01*
X155272Y184348D01*
X155171Y184389D01*
X155484Y185964D01*
X164866D01*
X165400Y184389D01*
X165252Y184276D01*
X164583Y183404D01*
X164163Y182389D01*
X164019Y181299D01*
X164163Y180210D01*
X164583Y179195D01*
X165252Y178323D01*
X166124Y177654D01*
X167139Y177234D01*
X168228Y177090D01*
X169318Y177234D01*
X170333Y177654D01*
X171205Y178323D01*
X171874Y179195D01*
X172294Y180210D01*
X172438Y181299D01*
X172294Y182389D01*
X171942Y183239D01*
X171944Y183555D01*
X172623Y185015D01*
X172959Y185093D01*
X174611Y183440D01*
X174583Y183404D01*
X174163Y182389D01*
X174019Y181299D01*
X174163Y180210D01*
X174583Y179195D01*
X175252Y178323D01*
X176124Y177654D01*
X177139Y177234D01*
X178228Y177090D01*
X179318Y177234D01*
X180333Y177654D01*
X181205Y178323D01*
X181874Y179195D01*
X182294Y180210D01*
X182438Y181299D01*
X182294Y182389D01*
X181874Y183404D01*
X181205Y184276D01*
X180333Y184945D01*
X179318Y185365D01*
X178228Y185509D01*
X177139Y185365D01*
X176124Y184945D01*
X176087Y184916D01*
X173602Y187402D01*
X174022Y188760D01*
X174185Y188977D01*
X188976D01*
X188976Y188976D01*
D02*
G37*
G36*
X124803Y135039D02*
Y132677D01*
X122244Y130118D01*
X114764D01*
X112205Y132677D01*
Y135039D01*
X114764Y137599D01*
X122244D01*
X124803Y135039D01*
D02*
G37*
G36*
X80593Y169864D02*
X77215Y166486D01*
X76989Y166147D01*
X76909Y165748D01*
X76909Y165748D01*
Y141339D01*
X76909Y141339D01*
X76989Y140939D01*
X77215Y140601D01*
X78120Y139696D01*
X77517Y138241D01*
X75394D01*
X75148Y138192D01*
X74940Y138053D01*
X72381Y135494D01*
X72241Y135285D01*
X72193Y135039D01*
X72193Y135039D01*
Y132677D01*
X72241Y132431D01*
X72381Y132223D01*
X72890Y131714D01*
X65040Y123864D01*
X63465Y124517D01*
Y165139D01*
X69645Y171319D01*
X79990D01*
X80593Y169864D01*
D02*
G37*
G36*
X135445Y149979D02*
X134843Y148524D01*
X117130D01*
X116730Y148445D01*
X116392Y148218D01*
X116392Y148218D01*
X109026Y140853D01*
X108800Y140514D01*
X108720Y140115D01*
X108720Y140115D01*
Y134606D01*
X99872Y125758D01*
X99646Y125419D01*
X99567Y125020D01*
X99567Y125020D01*
Y113641D01*
X97776Y111851D01*
X94252Y111851D01*
X93520Y113122D01*
Y113272D01*
X91896Y111648D01*
X90782Y112762D01*
X92406Y114386D01*
X87121D01*
X88746Y112762D01*
X87632Y111648D01*
X86008Y113272D01*
Y110041D01*
X84882Y108940D01*
X83328Y110494D01*
X83120Y110633D01*
X82874Y110682D01*
X82874Y110682D01*
X75394D01*
X75148Y110633D01*
X74940Y110494D01*
X72381Y107935D01*
X72241Y107726D01*
X72193Y107480D01*
X72193Y107480D01*
Y105118D01*
X72241Y104872D01*
X72381Y104664D01*
X72693Y104352D01*
X69865Y101524D01*
X68290Y102176D01*
Y119702D01*
X78064Y129476D01*
X82874D01*
X83120Y129525D01*
X83328Y129664D01*
X85711Y132047D01*
X92984Y132047D01*
X93976Y130815D01*
X93188Y129799D01*
X89764D01*
X89586Y129764D01*
X86378D01*
Y126142D01*
X89586D01*
X89764Y126106D01*
X94095D01*
X94801Y126247D01*
X95400Y126647D01*
X97060Y128307D01*
X99449D01*
Y133032D01*
X99449Y133110D01*
Y134606D01*
X99449Y134685D01*
Y139409D01*
X94252D01*
X93520Y140681D01*
Y140831D01*
X91896Y139207D01*
X90782Y140321D01*
X92406Y141945D01*
X87121D01*
X88746Y140321D01*
X87632Y139207D01*
X86008Y140831D01*
Y140299D01*
X85523Y140098D01*
X84433Y139823D01*
X84258Y139941D01*
X83858Y140020D01*
X83858Y140020D01*
X80747D01*
X78996Y141771D01*
Y165316D01*
X83582Y169901D01*
X115523D01*
X135445Y149979D01*
D02*
G37*
%LPC*%
G36*
X37677Y14957D02*
X36588Y14814D01*
X35573Y14393D01*
X34701Y13724D01*
X34032Y12853D01*
X33682Y12008D01*
X33216Y11863D01*
X32386Y11916D01*
X32055Y12052D01*
X31646Y13039D01*
X31401Y13358D01*
X28791Y10748D01*
X31401Y8138D01*
X31646Y8457D01*
X32055Y9445D01*
X32386Y9580D01*
X33216Y9633D01*
X33682Y9488D01*
X34032Y8643D01*
X34701Y7772D01*
X35573Y7103D01*
X36588Y6682D01*
X37677Y6539D01*
X38767Y6682D01*
X39782Y7103D01*
X40654Y7772D01*
X41323Y8643D01*
X41672Y9488D01*
X42138Y9633D01*
X42969Y9580D01*
X43299Y9445D01*
X43709Y8457D01*
X43953Y8138D01*
X46564Y10748D01*
X43953Y13358D01*
X43709Y13039D01*
X43299Y12052D01*
X42969Y11916D01*
X42138Y11863D01*
X41672Y12008D01*
X41323Y12853D01*
X40654Y13724D01*
X39782Y14393D01*
X38767Y14814D01*
X37677Y14957D01*
D02*
G37*
G36*
X117677D02*
X116588Y14814D01*
X115573Y14393D01*
X114701Y13724D01*
X114032Y12853D01*
X113682Y12008D01*
X113216Y11863D01*
X112386Y11916D01*
X112055Y12052D01*
X111646Y13039D01*
X111401Y13358D01*
X108791Y10748D01*
X111401Y8138D01*
X111646Y8457D01*
X112055Y9445D01*
X112386Y9580D01*
X113216Y9633D01*
X113682Y9488D01*
X114032Y8643D01*
X114701Y7772D01*
X115573Y7103D01*
X116588Y6682D01*
X117677Y6539D01*
X118767Y6682D01*
X119782Y7103D01*
X120654Y7772D01*
X121323Y8643D01*
X121672Y9488D01*
X122139Y9633D01*
X122969Y9580D01*
X123300Y9445D01*
X123709Y8457D01*
X123953Y8138D01*
X126564Y10748D01*
X123953Y13358D01*
X123709Y13039D01*
X123300Y12052D01*
X122969Y11916D01*
X122139Y11863D01*
X121672Y12008D01*
X121323Y12853D01*
X120654Y13724D01*
X119782Y14393D01*
X118767Y14814D01*
X117677Y14957D01*
D02*
G37*
G36*
X147677Y24957D02*
X146588Y24814D01*
X145573Y24393D01*
X144701Y23724D01*
X144032Y22853D01*
X143612Y21838D01*
X143468Y20748D01*
X143612Y19659D01*
X144032Y18643D01*
X144701Y17772D01*
X145573Y17103D01*
X146417Y16753D01*
X146563Y16287D01*
X146509Y15457D01*
X146374Y15126D01*
X145386Y14717D01*
X145067Y14472D01*
X147677Y11862D01*
X150287Y14472D01*
X149969Y14717D01*
X148981Y15126D01*
X148845Y15457D01*
X148792Y16287D01*
X148938Y16753D01*
X149782Y17103D01*
X150654Y17772D01*
X151323Y18643D01*
X151743Y19659D01*
X151886Y20748D01*
X151743Y21838D01*
X151323Y22853D01*
X150654Y23724D01*
X149782Y24393D01*
X148767Y24814D01*
X147677Y24957D01*
D02*
G37*
G36*
X161851Y24921D02*
X153504D01*
Y16575D01*
X161851D01*
Y24921D01*
D02*
G37*
G36*
X117677Y24957D02*
X116588Y24814D01*
X115573Y24393D01*
X114701Y23724D01*
X114032Y22853D01*
X113611Y21838D01*
X113468Y20748D01*
X113611Y19659D01*
X114032Y18643D01*
X114701Y17772D01*
X115573Y17103D01*
X116588Y16682D01*
X117677Y16539D01*
X118767Y16682D01*
X119782Y17103D01*
X120654Y17772D01*
X121323Y18643D01*
X121743Y19659D01*
X121887Y20748D01*
X121743Y21838D01*
X121323Y22853D01*
X120654Y23724D01*
X119782Y24393D01*
X118767Y24814D01*
X117677Y24957D01*
D02*
G37*
G36*
X137677D02*
X136588Y24814D01*
X135573Y24393D01*
X134701Y23724D01*
X134032Y22853D01*
X133612Y21838D01*
X133468Y20748D01*
X133612Y19659D01*
X134032Y18643D01*
X134701Y17772D01*
X135573Y17103D01*
X136588Y16682D01*
X137677Y16539D01*
X138767Y16682D01*
X139782Y17103D01*
X140654Y17772D01*
X141323Y18643D01*
X141743Y19659D01*
X141886Y20748D01*
X141743Y21838D01*
X141323Y22853D01*
X140654Y23724D01*
X139782Y24393D01*
X138767Y24814D01*
X137677Y24957D01*
D02*
G37*
G36*
Y14957D02*
X136588Y14814D01*
X135573Y14393D01*
X134701Y13724D01*
X134032Y12853D01*
X133682Y12008D01*
X133216Y11863D01*
X132386Y11916D01*
X132055Y12052D01*
X131646Y13039D01*
X131401Y13358D01*
X128791Y10748D01*
X131401Y8138D01*
X131646Y8457D01*
X132055Y9445D01*
X132386Y9580D01*
X133216Y9633D01*
X133682Y9488D01*
X134032Y8643D01*
X134701Y7772D01*
X135573Y7103D01*
X136588Y6682D01*
X137677Y6539D01*
X138767Y6682D01*
X139782Y7103D01*
X140654Y7772D01*
X141323Y8643D01*
X141672Y9488D01*
X142139Y9633D01*
X142969Y9580D01*
X143299Y9445D01*
X143709Y8457D01*
X143954Y8138D01*
X146564Y10748D01*
X143954Y13358D01*
X143709Y13039D01*
X143299Y12052D01*
X142969Y11916D01*
X142139Y11863D01*
X141672Y12008D01*
X141323Y12853D01*
X140654Y13724D01*
X139782Y14393D01*
X138767Y14814D01*
X137677Y14957D01*
D02*
G37*
G36*
X157677D02*
X156588Y14814D01*
X155573Y14393D01*
X154701Y13724D01*
X154032Y12853D01*
X153682Y12008D01*
X153216Y11863D01*
X152386Y11916D01*
X152055Y12052D01*
X151646Y13039D01*
X151401Y13358D01*
X148791Y10748D01*
X151401Y8138D01*
X151646Y8457D01*
X152055Y9445D01*
X152386Y9580D01*
X153216Y9633D01*
X153682Y9488D01*
X154032Y8643D01*
X154701Y7772D01*
X155573Y7103D01*
X156588Y6682D01*
X157677Y6539D01*
X158767Y6682D01*
X159782Y7103D01*
X160654Y7772D01*
X161323Y8643D01*
X161743Y9659D01*
X161887Y10748D01*
X161743Y11838D01*
X161323Y12853D01*
X160654Y13724D01*
X159782Y14393D01*
X158767Y14814D01*
X157677Y14957D01*
D02*
G37*
G36*
X127677Y24957D02*
X126588Y24814D01*
X125573Y24393D01*
X124701Y23724D01*
X124032Y22853D01*
X123611Y21838D01*
X123468Y20748D01*
X123611Y19659D01*
X124032Y18643D01*
X124701Y17772D01*
X125573Y17103D01*
X126417Y16753D01*
X126562Y16287D01*
X126509Y15457D01*
X126374Y15126D01*
X125386Y14717D01*
X125067Y14472D01*
X127677Y11862D01*
X130288Y14472D01*
X129969Y14717D01*
X128981Y15126D01*
X128845Y15457D01*
X128792Y16287D01*
X128938Y16753D01*
X129782Y17103D01*
X130654Y17772D01*
X131323Y18643D01*
X131743Y19659D01*
X131886Y20748D01*
X131743Y21838D01*
X131323Y22853D01*
X130654Y23724D01*
X129782Y24393D01*
X128767Y24814D01*
X127677Y24957D01*
D02*
G37*
G36*
X67677Y9635D02*
X65067Y7024D01*
X65386Y6780D01*
X66491Y6322D01*
X67677Y6166D01*
X68863Y6322D01*
X69968Y6780D01*
X70288Y7024D01*
X67677Y9635D01*
D02*
G37*
G36*
X127677D02*
X125067Y7024D01*
X125386Y6780D01*
X126491Y6322D01*
X127677Y6166D01*
X128863Y6322D01*
X129969Y6780D01*
X130288Y7024D01*
X127677Y9635D01*
D02*
G37*
G36*
X87677D02*
X85067Y7024D01*
X85386Y6780D01*
X86491Y6322D01*
X87677Y6166D01*
X88863Y6322D01*
X89969Y6780D01*
X90288Y7024D01*
X87677Y9635D01*
D02*
G37*
G36*
X107677D02*
X105067Y7024D01*
X105386Y6780D01*
X106491Y6322D01*
X107677Y6166D01*
X108863Y6322D01*
X109968Y6780D01*
X110287Y7024D01*
X107677Y9635D01*
D02*
G37*
G36*
X27677D02*
X25067Y7024D01*
X25386Y6780D01*
X26491Y6322D01*
X27677Y6166D01*
X28863Y6322D01*
X29969Y6780D01*
X30288Y7024D01*
X27677Y9635D01*
D02*
G37*
G36*
X107677Y24957D02*
X106588Y24814D01*
X105573Y24393D01*
X104701Y23724D01*
X104032Y22853D01*
X103612Y21838D01*
X103468Y20748D01*
X103612Y19659D01*
X104032Y18643D01*
X104701Y17772D01*
X105573Y17103D01*
X106417Y16753D01*
X106562Y16287D01*
X106509Y15457D01*
X106374Y15126D01*
X105386Y14717D01*
X105067Y14472D01*
X107677Y11862D01*
X110287Y14472D01*
X109968Y14717D01*
X108981Y15126D01*
X108845Y15457D01*
X108792Y16287D01*
X108938Y16753D01*
X109782Y17103D01*
X110654Y17772D01*
X111323Y18643D01*
X111743Y19659D01*
X111887Y20748D01*
X111743Y21838D01*
X111323Y22853D01*
X110654Y23724D01*
X109782Y24393D01*
X108767Y24814D01*
X107677Y24957D01*
D02*
G37*
G36*
X147677Y9635D02*
X145067Y7024D01*
X145386Y6780D01*
X146491Y6322D01*
X147677Y6166D01*
X148863Y6322D01*
X149969Y6780D01*
X150287Y7024D01*
X147677Y9635D01*
D02*
G37*
G36*
X47677D02*
X45067Y7024D01*
X45386Y6780D01*
X46491Y6322D01*
X47677Y6166D01*
X48863Y6322D01*
X49968Y6780D01*
X50287Y7024D01*
X47677Y9635D01*
D02*
G37*
G36*
X181952Y83910D02*
X179342Y81299D01*
X181952Y78689D01*
X182197Y79008D01*
X182655Y80113D01*
X182811Y81299D01*
X182655Y82485D01*
X182197Y83591D01*
X181952Y83910D01*
D02*
G37*
G36*
Y103910D02*
X179342Y101299D01*
X181952Y98689D01*
X182197Y99008D01*
X182655Y100113D01*
X182811Y101299D01*
X182655Y102485D01*
X182197Y103591D01*
X181952Y103910D01*
D02*
G37*
G36*
X168228Y75508D02*
X167139Y75365D01*
X166124Y74945D01*
X165252Y74276D01*
X164583Y73404D01*
X164163Y72389D01*
X164019Y71299D01*
X164163Y70210D01*
X164583Y69195D01*
X165252Y68323D01*
X166124Y67654D01*
X167139Y67234D01*
X168228Y67090D01*
X169318Y67234D01*
X170333Y67654D01*
X171205Y68323D01*
X171874Y69195D01*
X172294Y70210D01*
X172438Y71299D01*
X172294Y72389D01*
X171874Y73404D01*
X171205Y74276D01*
X170333Y74945D01*
X169318Y75365D01*
X168228Y75508D01*
D02*
G37*
G36*
Y85509D02*
X167139Y85365D01*
X166124Y84945D01*
X165252Y84276D01*
X164583Y83404D01*
X164163Y82389D01*
X164019Y81299D01*
X164163Y80210D01*
X164583Y79195D01*
X165252Y78323D01*
X166124Y77654D01*
X167139Y77233D01*
X168228Y77090D01*
X169318Y77233D01*
X170333Y77654D01*
X171205Y78323D01*
X171874Y79195D01*
X172223Y80039D01*
X172690Y80185D01*
X173520Y80131D01*
X173851Y79996D01*
X174260Y79008D01*
X174505Y78689D01*
X177115Y81299D01*
X174505Y83910D01*
X174260Y83591D01*
X173851Y82603D01*
X173520Y82467D01*
X172690Y82414D01*
X172223Y82560D01*
X171874Y83404D01*
X171205Y84276D01*
X170333Y84945D01*
X169318Y85365D01*
X168228Y85509D01*
D02*
G37*
G36*
X178228Y160186D02*
X175618Y157576D01*
X175937Y157331D01*
X176925Y156922D01*
X177060Y156591D01*
X177114Y155761D01*
X176968Y155294D01*
X176124Y154945D01*
X175252Y154276D01*
X174583Y153404D01*
X174163Y152389D01*
X174019Y151299D01*
X174163Y150210D01*
X174583Y149195D01*
X175252Y148323D01*
X176124Y147654D01*
X176968Y147304D01*
X177114Y146838D01*
X177060Y146008D01*
X176925Y145677D01*
X175937Y145268D01*
X175618Y145023D01*
X178228Y142413D01*
X180839Y145023D01*
X180520Y145268D01*
X179532Y145677D01*
X179396Y146008D01*
X179343Y146838D01*
X179489Y147304D01*
X180333Y147654D01*
X181205Y148323D01*
X181874Y149195D01*
X182294Y150210D01*
X182438Y151299D01*
X182294Y152389D01*
X181874Y153404D01*
X181205Y154276D01*
X180333Y154945D01*
X179489Y155294D01*
X179343Y155761D01*
X179396Y156591D01*
X179532Y156922D01*
X180520Y157331D01*
X180839Y157576D01*
X178228Y160186D01*
D02*
G37*
G36*
X181952Y163909D02*
X179342Y161299D01*
X181952Y158689D01*
X182197Y159008D01*
X182655Y160113D01*
X182811Y161299D01*
X182655Y162485D01*
X182197Y163591D01*
X181952Y163909D01*
D02*
G37*
G36*
Y123909D02*
X179342Y121299D01*
X181952Y118689D01*
X182197Y119008D01*
X182655Y120113D01*
X182811Y121299D01*
X182655Y122485D01*
X182197Y123591D01*
X181952Y123909D01*
D02*
G37*
G36*
Y143910D02*
X179342Y141299D01*
X181952Y138689D01*
X182197Y139008D01*
X182655Y140113D01*
X182811Y141299D01*
X182655Y142485D01*
X182197Y143591D01*
X181952Y143910D01*
D02*
G37*
G36*
X178228Y80186D02*
X175618Y77575D01*
X175937Y77331D01*
X176925Y76922D01*
X177060Y76591D01*
X177114Y75761D01*
X176968Y75294D01*
X176124Y74945D01*
X175252Y74276D01*
X174583Y73404D01*
X174163Y72389D01*
X174019Y71299D01*
X174163Y70210D01*
X174583Y69195D01*
X175252Y68323D01*
X176124Y67654D01*
X176968Y67304D01*
X177114Y66838D01*
X177060Y66008D01*
X176925Y65677D01*
X175937Y65268D01*
X175618Y65023D01*
X178228Y62413D01*
X180839Y65023D01*
X180520Y65268D01*
X179532Y65677D01*
X179396Y66008D01*
X179343Y66838D01*
X179489Y67304D01*
X180333Y67654D01*
X181205Y68323D01*
X181874Y69195D01*
X182294Y70210D01*
X182438Y71299D01*
X182294Y72389D01*
X181874Y73404D01*
X181205Y74276D01*
X180333Y74945D01*
X179489Y75294D01*
X179343Y75761D01*
X179396Y76591D01*
X179532Y76922D01*
X180520Y77331D01*
X180839Y77575D01*
X178228Y80186D01*
D02*
G37*
G36*
X168228Y45509D02*
X167139Y45365D01*
X166124Y44945D01*
X165252Y44276D01*
X164583Y43404D01*
X164163Y42389D01*
X164019Y41299D01*
X164163Y40210D01*
X164583Y39195D01*
X165252Y38323D01*
X166124Y37654D01*
X167139Y37233D01*
X168228Y37090D01*
X169318Y37233D01*
X170333Y37654D01*
X171205Y38323D01*
X171874Y39195D01*
X172223Y40039D01*
X172690Y40185D01*
X173520Y40131D01*
X173851Y39996D01*
X174260Y39008D01*
X174505Y38689D01*
X177115Y41299D01*
X174505Y43910D01*
X174260Y43591D01*
X173851Y42603D01*
X173520Y42467D01*
X172690Y42414D01*
X172223Y42560D01*
X171874Y43404D01*
X171205Y44276D01*
X170333Y44945D01*
X169318Y45365D01*
X168228Y45509D01*
D02*
G37*
G36*
X181952Y43910D02*
X179342Y41299D01*
X181952Y38689D01*
X182197Y39008D01*
X182655Y40113D01*
X182811Y41299D01*
X182655Y42485D01*
X182197Y43591D01*
X181952Y43910D01*
D02*
G37*
G36*
X178228Y40186D02*
X175618Y37576D01*
X175937Y37331D01*
X176925Y36922D01*
X177060Y36591D01*
X177114Y35761D01*
X176968Y35294D01*
X176124Y34945D01*
X175252Y34276D01*
X174583Y33404D01*
X174163Y32389D01*
X174019Y31299D01*
X174163Y30210D01*
X174583Y29195D01*
X175252Y28323D01*
X176124Y27654D01*
X177139Y27233D01*
X178228Y27090D01*
X179318Y27233D01*
X180333Y27654D01*
X181205Y28323D01*
X181874Y29195D01*
X182294Y30210D01*
X182438Y31299D01*
X182294Y32389D01*
X181874Y33404D01*
X181205Y34276D01*
X180333Y34945D01*
X179489Y35294D01*
X179343Y35761D01*
X179396Y36591D01*
X179532Y36922D01*
X180520Y37331D01*
X180839Y37576D01*
X178228Y40186D01*
D02*
G37*
G36*
X172402Y35473D02*
X164055D01*
Y27126D01*
X172402D01*
Y35473D01*
D02*
G37*
G36*
X168228Y65509D02*
X167139Y65365D01*
X166124Y64945D01*
X165252Y64276D01*
X164583Y63404D01*
X164163Y62389D01*
X164019Y61299D01*
X164163Y60210D01*
X164583Y59195D01*
X165252Y58323D01*
X166124Y57654D01*
X167139Y57234D01*
X168228Y57090D01*
X169318Y57234D01*
X170333Y57654D01*
X171205Y58323D01*
X171874Y59195D01*
X172223Y60039D01*
X172690Y60185D01*
X173520Y60131D01*
X173851Y59996D01*
X174260Y59008D01*
X174505Y58689D01*
X177115Y61299D01*
X174505Y63910D01*
X174260Y63591D01*
X173851Y62603D01*
X173520Y62467D01*
X172690Y62414D01*
X172223Y62560D01*
X171874Y63404D01*
X171205Y64276D01*
X170333Y64945D01*
X169318Y65365D01*
X168228Y65509D01*
D02*
G37*
G36*
X181952Y63910D02*
X179342Y61299D01*
X181952Y58689D01*
X182197Y59008D01*
X182655Y60113D01*
X182811Y61299D01*
X182655Y62485D01*
X182197Y63591D01*
X181952Y63910D01*
D02*
G37*
G36*
X178228Y60186D02*
X175618Y57576D01*
X175937Y57331D01*
X176925Y56922D01*
X177060Y56591D01*
X177114Y55761D01*
X176968Y55294D01*
X176124Y54945D01*
X175252Y54276D01*
X174583Y53404D01*
X174163Y52389D01*
X174019Y51299D01*
X174163Y50210D01*
X174583Y49195D01*
X175252Y48323D01*
X176124Y47654D01*
X176968Y47304D01*
X177114Y46838D01*
X177060Y46008D01*
X176925Y45677D01*
X175937Y45268D01*
X175618Y45023D01*
X178228Y42413D01*
X180839Y45023D01*
X180520Y45268D01*
X179532Y45677D01*
X179396Y46008D01*
X179343Y46838D01*
X179489Y47304D01*
X180333Y47654D01*
X181205Y48323D01*
X181874Y49195D01*
X182294Y50210D01*
X182438Y51299D01*
X182294Y52389D01*
X181874Y53404D01*
X181205Y54276D01*
X180333Y54945D01*
X179489Y55294D01*
X179343Y55761D01*
X179396Y56591D01*
X179532Y56922D01*
X180520Y57331D01*
X180839Y57576D01*
X178228Y60186D01*
D02*
G37*
G36*
X168228Y55509D02*
X167139Y55365D01*
X166124Y54945D01*
X165252Y54276D01*
X164583Y53404D01*
X164163Y52389D01*
X164019Y51299D01*
X164163Y50210D01*
X164583Y49195D01*
X165252Y48323D01*
X166124Y47654D01*
X167139Y47234D01*
X168228Y47090D01*
X169318Y47234D01*
X170333Y47654D01*
X171205Y48323D01*
X171874Y49195D01*
X172294Y50210D01*
X172438Y51299D01*
X172294Y52389D01*
X171874Y53404D01*
X171205Y54276D01*
X170333Y54945D01*
X169318Y55365D01*
X168228Y55509D01*
D02*
G37*
%LPD*%
D10*
X136221Y81890D02*
D03*
Y75591D02*
D03*
Y109449D02*
D03*
Y103150D02*
D03*
Y137008D02*
D03*
Y130709D02*
D03*
X57480Y109449D02*
D03*
Y103150D02*
D03*
Y81890D02*
D03*
Y75591D02*
D03*
X96851Y81890D02*
D03*
Y75591D02*
D03*
Y109449D02*
D03*
Y103150D02*
D03*
Y137008D02*
D03*
Y130709D02*
D03*
X57480Y137008D02*
D03*
Y130709D02*
D03*
D11*
X129134Y127953D02*
D03*
Y139764D02*
D03*
Y100394D02*
D03*
Y112205D02*
D03*
Y72835D02*
D03*
Y84646D02*
D03*
X89764Y72835D02*
D03*
Y84646D02*
D03*
Y100394D02*
D03*
Y112205D02*
D03*
Y127953D02*
D03*
Y139764D02*
D03*
X50394Y127953D02*
D03*
Y139764D02*
D03*
Y100394D02*
D03*
Y112205D02*
D03*
Y72835D02*
D03*
Y84646D02*
D03*
D12*
X128347Y133858D02*
D03*
Y106299D02*
D03*
Y78740D02*
D03*
X88977D02*
D03*
Y106299D02*
D03*
Y133858D02*
D03*
X49606D02*
D03*
Y106299D02*
D03*
Y78740D02*
D03*
D13*
X77953Y141339D02*
Y165748D01*
Y141339D02*
X80315Y138977D01*
X77953Y165748D02*
X83150Y170945D01*
X115955D01*
X69213Y172362D02*
X116542D01*
X68626Y173780D02*
X117130D01*
X68039Y175197D02*
X117717D01*
X116542Y172362D02*
X138590Y150315D01*
X115955Y170945D02*
X138003Y148898D01*
X117130Y173780D02*
X139177Y151732D01*
X117717Y175197D02*
X139764Y153150D01*
X120669Y183071D02*
X143347Y160394D01*
X50788Y183071D02*
X120669D01*
X48524Y187008D02*
X172520D01*
X58268Y137008D02*
X59587Y138327D01*
X57480Y109449D02*
X61004Y112972D01*
X57480Y81890D02*
X62421Y86831D01*
Y165571D02*
X69213Y172362D01*
X62421Y86831D02*
Y165571D01*
X61004Y166158D02*
X68626Y173780D01*
X61004Y112972D02*
Y166158D01*
X59587Y166745D02*
X68039Y175197D01*
X59587Y138327D02*
Y166745D01*
X138003Y148898D02*
X148812D01*
X138590Y150315D02*
X149399D01*
X139177Y151732D02*
X149986D01*
X139764Y153150D02*
X150573D01*
X117130Y147480D02*
X148225D01*
X109764Y134173D02*
Y140115D01*
X117130Y147480D01*
X117717Y146063D02*
X147638D01*
X111181Y139528D02*
X117717Y146063D01*
X111181Y133586D02*
Y139528D01*
X80315Y138977D02*
X83858D01*
X85827Y137008D01*
X96851D01*
X102028Y87067D02*
Y124433D01*
X100610Y125020D02*
X109764Y134173D01*
X102028Y124433D02*
X111181Y133586D01*
X100610Y113209D02*
Y125020D01*
X162480Y101299D02*
X168228D01*
X143307Y120473D02*
X162480Y101299D01*
X143307Y120473D02*
Y129921D01*
X160394Y83465D02*
X168228Y91299D01*
X137795Y83465D02*
X160394D01*
X136221Y81890D02*
X137795Y83465D01*
X165158Y116732D02*
X172795D01*
X162244Y119646D02*
X165158Y116732D01*
X162244Y119646D02*
Y133461D01*
X160827Y118701D02*
X168228Y111299D01*
X160827Y118701D02*
Y132874D01*
X163662Y125387D02*
X167749Y121299D01*
X149399Y150315D02*
X168228Y131486D01*
Y131299D02*
Y131486D01*
X149986Y151732D02*
X165498Y136221D01*
X150573Y153150D02*
X162424Y141299D01*
X163662Y125387D02*
Y134048D01*
X148812Y148898D02*
X163662Y134048D01*
X147638Y146063D02*
X160827Y132874D01*
X148225Y147480D02*
X162244Y133461D01*
X162424Y141299D02*
X168228D01*
X165498Y136221D02*
X173307D01*
X172795Y116732D02*
X178228Y111299D01*
X167749Y121299D02*
X168228D01*
X28583Y31732D02*
Y44686D01*
X5906Y67364D02*
X28583Y44686D01*
X1969Y16457D02*
Y140453D01*
Y16457D02*
X7677Y10748D01*
X1969Y140453D02*
X48524Y187008D01*
X5906Y138189D02*
X50788Y183071D01*
X5906Y67364D02*
Y138189D01*
X172520Y187008D02*
X178228Y181299D01*
X173169Y166240D02*
X178228Y171299D01*
X163091Y166240D02*
X173169D01*
X157244Y160394D02*
X163091Y166240D01*
X143347Y160394D02*
X157244D01*
X22441Y25591D02*
X28583Y31732D01*
X22441Y15512D02*
Y25591D01*
X17677Y10748D02*
X22441Y15512D01*
X173307Y136221D02*
X178228Y131299D01*
X136221Y137008D02*
X143307Y129921D01*
X136221Y109449D02*
X149606Y96063D01*
X173465D01*
X178228Y91299D01*
X96851Y81890D02*
X102028Y87067D01*
X96851Y109449D02*
X100610Y113209D01*
X57480Y137008D02*
X58268D01*
D14*
X52362Y179134D02*
X118898D01*
X141339Y156693D01*
X65669Y120788D02*
X78740Y133858D01*
X65669Y22756D02*
Y120788D01*
X70236Y98189D02*
X78740Y106693D01*
X70236Y27244D02*
Y98189D01*
X9843Y136614D02*
X52362Y179134D01*
X9843Y69291D02*
Y136614D01*
Y69291D02*
X32677Y46457D01*
X141339Y156693D02*
X162835D01*
X32677Y26772D02*
Y46457D01*
X27677Y21772D02*
X32677Y26772D01*
X27677Y20748D02*
Y21772D01*
X37677Y20748D02*
Y21772D01*
X32677Y26772D02*
X37677Y21772D01*
X162835Y156693D02*
X167441Y161299D01*
X168228D01*
X162835Y156693D02*
X168228Y151299D01*
X37303Y133858D02*
X39370D01*
X37205Y106299D02*
X39370D01*
X115945Y106201D02*
X118209D01*
X87677Y20748D02*
Y26223D01*
X97677Y20748D02*
Y23169D01*
X114173Y39665D01*
Y78839D01*
X118504D01*
X87677Y26223D02*
X105020Y43565D01*
Y122638D01*
X115453Y133071D01*
X109587Y41673D02*
Y99843D01*
X115945Y106201D01*
X92717Y24803D02*
X109587Y41673D01*
X70236Y27244D02*
X72677Y24803D01*
X77677Y20748D02*
Y26262D01*
X74803Y29136D02*
X77677Y26262D01*
X74803Y29136D02*
Y77658D01*
X65669Y22756D02*
X67677Y20748D01*
X35433Y78740D02*
X39370D01*
X30807Y99902D02*
X37205Y106299D01*
X26181Y122736D02*
X37303Y133858D01*
X26181Y67323D02*
Y122736D01*
Y67323D02*
X47677Y45827D01*
Y20748D02*
Y45827D01*
X30807Y69156D02*
Y99902D01*
X35433Y70988D02*
Y78740D01*
Y70988D02*
X57677Y48744D01*
X30807Y69156D02*
X52677Y47286D01*
Y24803D02*
Y47286D01*
X57677Y20748D02*
Y48744D01*
D15*
X72677Y15748D02*
X77677Y10748D01*
X52677Y15748D02*
Y24803D01*
Y15748D02*
X57677Y10748D01*
X92717Y15709D02*
Y24803D01*
Y15709D02*
X97677Y10748D01*
X72677Y15748D02*
Y24803D01*
D16*
X50394Y72835D02*
X54725D01*
X57480Y75591D01*
X50394Y100394D02*
X54725D01*
X57480Y103150D01*
X50394Y127953D02*
X54725D01*
X57480Y130709D01*
X89764Y127953D02*
X94095D01*
X96851Y130709D01*
X89764Y100394D02*
X94095D01*
X96851Y103150D01*
X89764Y72835D02*
X94095D01*
X96851Y75591D01*
X129134Y72835D02*
X133465D01*
X136221Y75591D01*
X129134Y100394D02*
X133465D01*
X136221Y103150D01*
X129134Y127953D02*
X133465D01*
X136221Y130709D01*
D17*
X7677Y10748D02*
D03*
X17677D02*
D03*
X27677D02*
D03*
X37677D02*
D03*
X47677D02*
D03*
X57677D02*
D03*
X67677D02*
D03*
X77677D02*
D03*
X87677D02*
D03*
X97677D02*
D03*
X107677D02*
D03*
X117677D02*
D03*
X127677D02*
D03*
X137677D02*
D03*
X147677D02*
D03*
X157677D02*
D03*
X147677Y20748D02*
D03*
X137677D02*
D03*
X127677D02*
D03*
X117677D02*
D03*
X107677D02*
D03*
X97677D02*
D03*
X87677D02*
D03*
X77677D02*
D03*
X67677D02*
D03*
X57677D02*
D03*
X47677D02*
D03*
X37677D02*
D03*
X27677D02*
D03*
X17677D02*
D03*
X7677D02*
D03*
X178228Y181299D02*
D03*
Y171299D02*
D03*
Y161299D02*
D03*
Y151299D02*
D03*
Y141299D02*
D03*
Y131299D02*
D03*
Y121299D02*
D03*
Y111299D02*
D03*
Y101299D02*
D03*
Y91299D02*
D03*
Y81299D02*
D03*
Y71299D02*
D03*
Y61299D02*
D03*
Y51299D02*
D03*
Y41299D02*
D03*
Y31299D02*
D03*
X168228Y181299D02*
D03*
Y171299D02*
D03*
Y161299D02*
D03*
Y151299D02*
D03*
Y141299D02*
D03*
Y131299D02*
D03*
Y121299D02*
D03*
Y111299D02*
D03*
Y101299D02*
D03*
Y91299D02*
D03*
Y81299D02*
D03*
Y71299D02*
D03*
Y61299D02*
D03*
Y51299D02*
D03*
Y41299D02*
D03*
D18*
X157677Y20748D02*
D03*
D19*
X168228Y31299D02*
D03*
D20*
X15748Y173228D02*
D03*
Y39370D02*
D03*
X149606Y173228D02*
D03*
D21*
X99410Y163386D02*
D03*
X82677Y163780D02*
D03*
X116142D02*
D03*
X65945D02*
D03*
X82284Y65354D02*
D03*
X158268Y100394D02*
D03*
X158661Y92520D02*
D03*
X122047Y120079D02*
D03*
X82677D02*
D03*
X43307D02*
D03*
Y92520D02*
D03*
X82677D02*
D03*
X122047D02*
D03*
X83858Y36221D02*
D03*
X122441Y59449D02*
D03*
X17323Y133071D02*
D03*
X18110Y103543D02*
D03*
X16929Y77953D02*
D03*
X40158Y36221D02*
D03*
X156299Y74410D02*
D03*
X154725Y55512D02*
D03*
X159055Y112205D02*
D03*
X121654Y140945D02*
D03*
X82677Y142520D02*
D03*
X49213Y144882D02*
D03*
Y163780D02*
D03*
X175295Y12106D02*
D03*
M02*
