G04 Layer_Color=8388736*
%FSLAX25Y25*%
%MOIN*%
G70*
G01*
G75*
%ADD24R,0.04737X0.04343*%
%ADD25R,0.06312X0.03162*%
%ADD26R,0.07887X0.03162*%
%ADD27C,0.07887*%
%ADD28R,0.07887X0.07887*%
%ADD29R,0.07887X0.07887*%
%ADD30C,0.24422*%
%ADD31C,0.05800*%
G36*
X122296Y82878D02*
X122348Y82867D01*
X122397Y82851D01*
X122444Y82828D01*
X122488Y82798D01*
X122528Y82764D01*
X125087Y80205D01*
X125121Y80165D01*
X125150Y80122D01*
X125173Y80075D01*
X125190Y80025D01*
X125201Y79974D01*
X125204Y79921D01*
Y77559D01*
X125201Y77507D01*
X125190Y77455D01*
X125173Y77406D01*
X125150Y77359D01*
X125121Y77315D01*
X125087Y77276D01*
X122528Y74717D01*
X122488Y74682D01*
X122444Y74653D01*
X122397Y74630D01*
X122348Y74613D01*
X122296Y74603D01*
X122244Y74599D01*
X114764D01*
X114711Y74603D01*
X114660Y74613D01*
X114610Y74630D01*
X114563Y74653D01*
X114520Y74682D01*
X114480Y74717D01*
X111921Y77276D01*
X111887Y77315D01*
X111858Y77359D01*
X111834Y77406D01*
X111818Y77455D01*
X111807Y77507D01*
X111804Y77559D01*
Y79921D01*
X111807Y79974D01*
X111818Y80025D01*
X111834Y80075D01*
X111858Y80122D01*
X111887Y80165D01*
X111921Y80205D01*
X114480Y82764D01*
X114520Y82798D01*
X114563Y82828D01*
X114610Y82851D01*
X114660Y82867D01*
X114711Y82878D01*
X114764Y82881D01*
X122244D01*
X122296Y82878D01*
D02*
G37*
G36*
X43556Y110437D02*
X43608Y110427D01*
X43657Y110410D01*
X43704Y110387D01*
X43748Y110357D01*
X43787Y110323D01*
X46346Y107764D01*
X46381Y107724D01*
X46410Y107681D01*
X46433Y107634D01*
X46450Y107584D01*
X46460Y107533D01*
X46464Y107480D01*
Y105118D01*
X46460Y105066D01*
X46450Y105014D01*
X46433Y104965D01*
X46410Y104918D01*
X46381Y104874D01*
X46346Y104835D01*
X43787Y102276D01*
X43748Y102241D01*
X43704Y102212D01*
X43657Y102189D01*
X43608Y102172D01*
X43556Y102162D01*
X43504Y102158D01*
X36024D01*
X35971Y102162D01*
X35920Y102172D01*
X35870Y102189D01*
X35823Y102212D01*
X35780Y102241D01*
X35740Y102276D01*
X33181Y104835D01*
X33147Y104874D01*
X33117Y104918D01*
X33094Y104965D01*
X33077Y105014D01*
X33067Y105066D01*
X33064Y105118D01*
Y107480D01*
X33067Y107533D01*
X33077Y107584D01*
X33094Y107634D01*
X33117Y107681D01*
X33147Y107724D01*
X33181Y107764D01*
X35740Y110323D01*
X35780Y110357D01*
X35823Y110387D01*
X35870Y110410D01*
X35920Y110427D01*
X35971Y110437D01*
X36024Y110440D01*
X43504D01*
X43556Y110437D01*
D02*
G37*
G36*
Y82878D02*
X43608Y82867D01*
X43657Y82851D01*
X43704Y82828D01*
X43748Y82798D01*
X43787Y82764D01*
X46346Y80205D01*
X46381Y80165D01*
X46410Y80122D01*
X46433Y80075D01*
X46450Y80025D01*
X46460Y79974D01*
X46464Y79921D01*
Y77559D01*
X46460Y77507D01*
X46450Y77455D01*
X46433Y77406D01*
X46410Y77359D01*
X46381Y77315D01*
X46346Y77276D01*
X43787Y74717D01*
X43748Y74682D01*
X43704Y74653D01*
X43657Y74630D01*
X43608Y74613D01*
X43556Y74603D01*
X43504Y74599D01*
X36024D01*
X35971Y74603D01*
X35920Y74613D01*
X35870Y74630D01*
X35823Y74653D01*
X35780Y74682D01*
X35740Y74717D01*
X33181Y77276D01*
X33147Y77315D01*
X33117Y77359D01*
X33094Y77406D01*
X33077Y77455D01*
X33067Y77507D01*
X33064Y77559D01*
Y79921D01*
X33067Y79974D01*
X33077Y80025D01*
X33094Y80075D01*
X33117Y80122D01*
X33147Y80165D01*
X33181Y80205D01*
X35740Y82764D01*
X35780Y82798D01*
X35823Y82828D01*
X35870Y82851D01*
X35920Y82867D01*
X35971Y82878D01*
X36024Y82881D01*
X43504D01*
X43556Y82878D01*
D02*
G37*
G36*
X82926D02*
X82978Y82867D01*
X83027Y82851D01*
X83074Y82828D01*
X83118Y82798D01*
X83157Y82764D01*
X85716Y80205D01*
X85751Y80165D01*
X85780Y80122D01*
X85803Y80075D01*
X85820Y80025D01*
X85830Y79974D01*
X85834Y79921D01*
Y77559D01*
X85830Y77507D01*
X85820Y77455D01*
X85803Y77406D01*
X85780Y77359D01*
X85751Y77315D01*
X85716Y77276D01*
X83157Y74717D01*
X83118Y74682D01*
X83074Y74653D01*
X83027Y74630D01*
X82978Y74613D01*
X82926Y74603D01*
X82874Y74599D01*
X75394D01*
X75341Y74603D01*
X75290Y74613D01*
X75240Y74630D01*
X75193Y74653D01*
X75150Y74682D01*
X75110Y74717D01*
X72551Y77276D01*
X72517Y77315D01*
X72487Y77359D01*
X72464Y77406D01*
X72448Y77455D01*
X72437Y77507D01*
X72434Y77559D01*
Y79921D01*
X72437Y79974D01*
X72448Y80025D01*
X72464Y80075D01*
X72487Y80122D01*
X72517Y80165D01*
X72551Y80205D01*
X75110Y82764D01*
X75150Y82798D01*
X75193Y82828D01*
X75240Y82851D01*
X75290Y82867D01*
X75341Y82878D01*
X75394Y82881D01*
X82874D01*
X82926Y82878D01*
D02*
G37*
G36*
Y110437D02*
X82978Y110427D01*
X83027Y110410D01*
X83074Y110387D01*
X83118Y110357D01*
X83157Y110323D01*
X85716Y107764D01*
X85751Y107724D01*
X85780Y107681D01*
X85803Y107634D01*
X85820Y107584D01*
X85830Y107533D01*
X85834Y107480D01*
Y105118D01*
X85830Y105066D01*
X85820Y105014D01*
X85803Y104965D01*
X85780Y104918D01*
X85751Y104874D01*
X85716Y104835D01*
X83157Y102276D01*
X83118Y102241D01*
X83074Y102212D01*
X83027Y102189D01*
X82978Y102172D01*
X82926Y102162D01*
X82874Y102158D01*
X75394D01*
X75341Y102162D01*
X75290Y102172D01*
X75240Y102189D01*
X75193Y102212D01*
X75150Y102241D01*
X75110Y102276D01*
X72551Y104835D01*
X72517Y104874D01*
X72487Y104918D01*
X72464Y104965D01*
X72448Y105014D01*
X72437Y105066D01*
X72434Y105118D01*
Y107480D01*
X72437Y107533D01*
X72448Y107584D01*
X72464Y107634D01*
X72487Y107681D01*
X72517Y107724D01*
X72551Y107764D01*
X75110Y110323D01*
X75150Y110357D01*
X75193Y110387D01*
X75240Y110410D01*
X75290Y110427D01*
X75341Y110437D01*
X75394Y110440D01*
X82874D01*
X82926Y110437D01*
D02*
G37*
G36*
Y137996D02*
X82978Y137986D01*
X83027Y137969D01*
X83074Y137946D01*
X83118Y137917D01*
X83157Y137882D01*
X85716Y135323D01*
X85751Y135283D01*
X85780Y135240D01*
X85803Y135193D01*
X85820Y135143D01*
X85830Y135092D01*
X85834Y135039D01*
Y132677D01*
X85830Y132625D01*
X85820Y132573D01*
X85803Y132524D01*
X85780Y132477D01*
X85751Y132433D01*
X85716Y132394D01*
X83157Y129835D01*
X83118Y129800D01*
X83074Y129771D01*
X83027Y129748D01*
X82978Y129731D01*
X82926Y129721D01*
X82874Y129717D01*
X75394D01*
X75341Y129721D01*
X75290Y129731D01*
X75240Y129748D01*
X75193Y129771D01*
X75150Y129800D01*
X75110Y129835D01*
X72551Y132394D01*
X72517Y132433D01*
X72487Y132477D01*
X72464Y132524D01*
X72448Y132573D01*
X72437Y132625D01*
X72434Y132677D01*
Y135039D01*
X72437Y135092D01*
X72448Y135143D01*
X72464Y135193D01*
X72487Y135240D01*
X72517Y135283D01*
X72551Y135323D01*
X75110Y137882D01*
X75150Y137917D01*
X75193Y137946D01*
X75240Y137969D01*
X75290Y137986D01*
X75341Y137996D01*
X75394Y137999D01*
X82874D01*
X82926Y137996D01*
D02*
G37*
G36*
X122296D02*
X122348Y137986D01*
X122397Y137969D01*
X122444Y137946D01*
X122488Y137917D01*
X122528Y137882D01*
X125087Y135323D01*
X125121Y135283D01*
X125150Y135240D01*
X125173Y135193D01*
X125190Y135143D01*
X125201Y135092D01*
X125204Y135039D01*
Y132677D01*
X125201Y132625D01*
X125190Y132573D01*
X125173Y132524D01*
X125150Y132477D01*
X125121Y132433D01*
X125087Y132394D01*
X122528Y129835D01*
X122488Y129800D01*
X122444Y129771D01*
X122397Y129748D01*
X122348Y129731D01*
X122296Y129721D01*
X122244Y129717D01*
X114764D01*
X114711Y129721D01*
X114660Y129731D01*
X114610Y129748D01*
X114563Y129771D01*
X114520Y129800D01*
X114480Y129835D01*
X111921Y132394D01*
X111887Y132433D01*
X111858Y132477D01*
X111834Y132524D01*
X111818Y132573D01*
X111807Y132625D01*
X111804Y132677D01*
Y135039D01*
X111807Y135092D01*
X111818Y135143D01*
X111834Y135193D01*
X111858Y135240D01*
X111887Y135283D01*
X111921Y135323D01*
X114480Y137882D01*
X114520Y137917D01*
X114563Y137946D01*
X114610Y137969D01*
X114660Y137986D01*
X114711Y137996D01*
X114764Y137999D01*
X122244D01*
X122296Y137996D01*
D02*
G37*
G36*
Y110437D02*
X122348Y110427D01*
X122397Y110410D01*
X122444Y110387D01*
X122488Y110357D01*
X122528Y110323D01*
X125087Y107764D01*
X125121Y107724D01*
X125150Y107681D01*
X125173Y107634D01*
X125190Y107584D01*
X125201Y107533D01*
X125204Y107480D01*
Y105118D01*
X125201Y105066D01*
X125190Y105014D01*
X125173Y104965D01*
X125150Y104918D01*
X125121Y104874D01*
X125087Y104835D01*
X122528Y102276D01*
X122488Y102241D01*
X122444Y102212D01*
X122397Y102189D01*
X122348Y102172D01*
X122296Y102162D01*
X122244Y102158D01*
X114764D01*
X114711Y102162D01*
X114660Y102172D01*
X114610Y102189D01*
X114563Y102212D01*
X114520Y102241D01*
X114480Y102276D01*
X111921Y104835D01*
X111887Y104874D01*
X111858Y104918D01*
X111834Y104965D01*
X111818Y105014D01*
X111807Y105066D01*
X111804Y105118D01*
Y107480D01*
X111807Y107533D01*
X111818Y107584D01*
X111834Y107634D01*
X111858Y107681D01*
X111887Y107724D01*
X111921Y107764D01*
X114480Y110323D01*
X114520Y110357D01*
X114563Y110387D01*
X114610Y110410D01*
X114660Y110427D01*
X114711Y110437D01*
X114764Y110440D01*
X122244D01*
X122296Y110437D01*
D02*
G37*
G36*
X43556Y137996D02*
X43608Y137986D01*
X43657Y137969D01*
X43704Y137946D01*
X43748Y137917D01*
X43787Y137882D01*
X46346Y135323D01*
X46381Y135283D01*
X46410Y135240D01*
X46433Y135193D01*
X46450Y135143D01*
X46460Y135092D01*
X46464Y135039D01*
Y132677D01*
X46460Y132625D01*
X46450Y132573D01*
X46433Y132524D01*
X46410Y132477D01*
X46381Y132433D01*
X46346Y132394D01*
X43787Y129835D01*
X43748Y129800D01*
X43704Y129771D01*
X43657Y129748D01*
X43608Y129731D01*
X43556Y129721D01*
X43504Y129717D01*
X36024D01*
X35971Y129721D01*
X35920Y129731D01*
X35870Y129748D01*
X35823Y129771D01*
X35780Y129800D01*
X35740Y129835D01*
X33181Y132394D01*
X33147Y132433D01*
X33117Y132477D01*
X33094Y132524D01*
X33077Y132573D01*
X33067Y132625D01*
X33064Y132677D01*
Y135039D01*
X33067Y135092D01*
X33077Y135143D01*
X33094Y135193D01*
X33117Y135240D01*
X33147Y135283D01*
X33181Y135323D01*
X35740Y137882D01*
X35780Y137917D01*
X35823Y137946D01*
X35870Y137969D01*
X35920Y137986D01*
X35971Y137996D01*
X36024Y137999D01*
X43504D01*
X43556Y137996D01*
D02*
G37*
D24*
X57480Y130709D02*
D03*
Y137008D02*
D03*
Y103150D02*
D03*
Y109449D02*
D03*
Y75590D02*
D03*
Y81890D02*
D03*
X96850Y130709D02*
D03*
Y137008D02*
D03*
Y103150D02*
D03*
Y109449D02*
D03*
Y75590D02*
D03*
Y81890D02*
D03*
X136221Y130709D02*
D03*
Y137008D02*
D03*
Y103150D02*
D03*
Y109449D02*
D03*
Y75590D02*
D03*
Y81890D02*
D03*
D25*
X50394Y84646D02*
D03*
Y72835D02*
D03*
X89764Y84646D02*
D03*
Y72835D02*
D03*
X129134Y84646D02*
D03*
Y72835D02*
D03*
X50394Y112205D02*
D03*
Y100394D02*
D03*
X89764Y112205D02*
D03*
Y100394D02*
D03*
X129134Y112205D02*
D03*
Y100394D02*
D03*
X50394Y139764D02*
D03*
Y127953D02*
D03*
X89764Y139764D02*
D03*
Y127953D02*
D03*
X129134Y139764D02*
D03*
Y127953D02*
D03*
D26*
X49606Y78740D02*
D03*
X88976D02*
D03*
X128347D02*
D03*
X49606Y106299D02*
D03*
X88976D02*
D03*
X128347D02*
D03*
X49606Y133858D02*
D03*
X88976D02*
D03*
X128347D02*
D03*
D27*
X7677Y20748D02*
D03*
X17677D02*
D03*
X27677D02*
D03*
X37677D02*
D03*
X47677D02*
D03*
X57677D02*
D03*
X67677D02*
D03*
X77677D02*
D03*
X87677D02*
D03*
X97677D02*
D03*
X107677D02*
D03*
X117677D02*
D03*
X127677D02*
D03*
X137677D02*
D03*
X147677D02*
D03*
X157677Y10748D02*
D03*
X147677D02*
D03*
X137677D02*
D03*
X127677D02*
D03*
X117677D02*
D03*
X107677D02*
D03*
X97677D02*
D03*
X87677D02*
D03*
X77677D02*
D03*
X67677D02*
D03*
X57677D02*
D03*
X47677D02*
D03*
X37677D02*
D03*
X27677D02*
D03*
X17677D02*
D03*
X7677D02*
D03*
X168228Y31299D02*
D03*
Y41299D02*
D03*
Y51299D02*
D03*
Y61299D02*
D03*
Y71299D02*
D03*
Y81299D02*
D03*
Y91299D02*
D03*
Y101299D02*
D03*
Y111299D02*
D03*
Y121299D02*
D03*
Y131299D02*
D03*
Y141299D02*
D03*
Y151299D02*
D03*
Y161299D02*
D03*
Y171299D02*
D03*
X178228Y181299D02*
D03*
Y171299D02*
D03*
Y161299D02*
D03*
Y151299D02*
D03*
Y141299D02*
D03*
Y131299D02*
D03*
Y121299D02*
D03*
Y111299D02*
D03*
Y101299D02*
D03*
Y91299D02*
D03*
Y81299D02*
D03*
Y71299D02*
D03*
Y61299D02*
D03*
Y51299D02*
D03*
Y41299D02*
D03*
Y31299D02*
D03*
D28*
X157677Y20748D02*
D03*
D29*
X168228Y181299D02*
D03*
D30*
X149606Y173228D02*
D03*
X15748Y39370D02*
D03*
X204724Y-9843D02*
D03*
X15748Y173228D02*
D03*
D31*
X150787Y133071D02*
D03*
X86221Y157480D02*
D03*
X40354Y161417D02*
D03*
Y153543D02*
D03*
X46850Y157480D02*
D03*
X59646Y161417D02*
D03*
Y153543D02*
D03*
X66142Y157480D02*
D03*
X105512D02*
D03*
X99016Y153543D02*
D03*
Y161417D02*
D03*
X125591Y157480D02*
D03*
X119095Y153543D02*
D03*
Y161417D02*
D03*
X79724D02*
D03*
Y153543D02*
D03*
M02*
