G04 Layer_Color=32896*
%FSLAX25Y25*%
%MOIN*%
G70*
G01*
G75*
%ADD13C,0.00787*%
%ADD22C,0.00984*%
%ADD23C,0.01000*%
G36*
X102736Y164284D02*
X102781Y164277D01*
X102847Y164244D01*
X102873Y164225D01*
X102893Y164205D01*
X102906Y164198D01*
X102913Y164192D01*
X102939Y164159D01*
X102959Y164120D01*
X102985Y164047D01*
X102991Y164015D01*
X102998Y163988D01*
Y163975D01*
Y163969D01*
Y159659D01*
X102991Y159613D01*
X102985Y159567D01*
X102952Y159501D01*
X102939Y159475D01*
X102926Y159455D01*
X102919Y159442D01*
X102913Y159436D01*
X102873Y159409D01*
X102841Y159390D01*
X102768Y159363D01*
X102736Y159357D01*
X102709Y159350D01*
X102690D01*
X102644Y159357D01*
X102598Y159363D01*
X102526Y159396D01*
X102499Y159409D01*
X102480Y159423D01*
X102473Y159429D01*
X102467Y159436D01*
X102434Y159475D01*
X102414Y159508D01*
X102388Y159580D01*
X102381Y159613D01*
X102375Y159639D01*
Y159652D01*
Y159659D01*
Y160603D01*
X102053Y160879D01*
X100381Y159436D01*
X100341Y159409D01*
X100302Y159390D01*
X100223Y159363D01*
X100197Y159357D01*
X100171Y159350D01*
X100151D01*
X100105Y159357D01*
X100059Y159363D01*
X99987Y159403D01*
X99961Y159416D01*
X99941Y159436D01*
X99935Y159442D01*
X99928Y159449D01*
X99895Y159488D01*
X99875Y159528D01*
X99849Y159593D01*
X99843Y159626D01*
X99836Y159646D01*
Y159659D01*
Y159665D01*
X99843Y159711D01*
X99849Y159750D01*
X99882Y159816D01*
X99902Y159836D01*
X99921Y159855D01*
X99928Y159862D01*
X99935Y159869D01*
X101561Y161286D01*
X100236Y162394D01*
X100203Y162427D01*
X100177Y162466D01*
X100164Y162506D01*
X100151Y162539D01*
X100144Y162571D01*
X100138Y162598D01*
Y162611D01*
Y162617D01*
X100144Y162663D01*
X100151Y162709D01*
X100184Y162781D01*
X100203Y162808D01*
X100217Y162827D01*
X100223Y162834D01*
X100230Y162840D01*
X100262Y162873D01*
X100302Y162899D01*
X100341Y162912D01*
X100374Y162926D01*
X100407Y162932D01*
X100433Y162939D01*
X100453D01*
X100499Y162932D01*
X100545Y162926D01*
X100617Y162893D01*
X100649Y162873D01*
X100669Y162860D01*
X100682Y162853D01*
X100689Y162847D01*
X102375Y161417D01*
Y163969D01*
X102381Y164015D01*
X102388Y164060D01*
X102421Y164133D01*
X102440Y164159D01*
X102453Y164179D01*
X102460Y164185D01*
X102467Y164192D01*
X102499Y164225D01*
X102539Y164251D01*
X102578Y164264D01*
X102611Y164277D01*
X102644Y164284D01*
X102670Y164290D01*
X102690D01*
X102736Y164284D01*
D02*
G37*
G36*
X111933Y162932D02*
X111979Y162926D01*
X112044Y162893D01*
X112071Y162873D01*
X112090Y162853D01*
X112103Y162847D01*
X112110Y162840D01*
X112136Y162808D01*
X112156Y162768D01*
X112182Y162696D01*
X112189Y162663D01*
X112195Y162637D01*
Y162624D01*
Y162617D01*
Y159659D01*
X112189Y159613D01*
X112182Y159567D01*
X112149Y159501D01*
X112136Y159475D01*
X112123Y159455D01*
X112116Y159442D01*
X112110Y159436D01*
X112071Y159409D01*
X112038Y159390D01*
X111966Y159363D01*
X111933Y159357D01*
X111907Y159350D01*
X111887D01*
X111841Y159357D01*
X111802Y159363D01*
X111729Y159396D01*
X111703Y159409D01*
X111683Y159423D01*
X111677Y159429D01*
X111670Y159436D01*
X111637Y159475D01*
X111611Y159508D01*
X111598Y159547D01*
X111585Y159580D01*
X111579Y159613D01*
X111572Y159639D01*
Y159652D01*
Y159659D01*
Y161410D01*
X110686Y162178D01*
X110627Y162224D01*
X110575Y162257D01*
X110522Y162283D01*
X110483Y162296D01*
X110450Y162309D01*
X110417Y162315D01*
X109991D01*
X109945Y162309D01*
X109899Y162302D01*
X109827Y162270D01*
X109801Y162250D01*
X109781Y162237D01*
X109774Y162230D01*
X109768Y162224D01*
X109735Y162191D01*
X109715Y162152D01*
X109689Y162079D01*
X109683Y162047D01*
X109676Y162020D01*
Y162007D01*
Y162001D01*
Y161823D01*
X109669Y161778D01*
X109663Y161732D01*
X109630Y161666D01*
X109617Y161640D01*
X109604Y161620D01*
X109597Y161607D01*
X109591Y161600D01*
X109551Y161574D01*
X109519Y161555D01*
X109447Y161528D01*
X109414Y161522D01*
X109387Y161515D01*
X109368D01*
X109322Y161522D01*
X109276Y161528D01*
X109204Y161561D01*
X109177Y161581D01*
X109158Y161594D01*
X109151Y161600D01*
X109145Y161607D01*
X109112Y161646D01*
X109092Y161679D01*
X109066Y161751D01*
X109059Y161784D01*
X109053Y161810D01*
Y161823D01*
Y161830D01*
Y162001D01*
X109066Y162138D01*
X109099Y162270D01*
X109138Y162381D01*
X109191Y162479D01*
X109243Y162558D01*
X109283Y162617D01*
X109315Y162650D01*
X109328Y162663D01*
X109433Y162755D01*
X109545Y162821D01*
X109656Y162873D01*
X109761Y162906D01*
X109853Y162926D01*
X109925Y162932D01*
X109952Y162939D01*
X110450D01*
X110562Y162926D01*
X110673Y162899D01*
X110778Y162853D01*
X110870Y162808D01*
X110949Y162755D01*
X111014Y162709D01*
X111054Y162683D01*
X111060Y162670D01*
X111067D01*
X111572Y162237D01*
Y162617D01*
X111579Y162663D01*
X111585Y162709D01*
X111618Y162781D01*
X111637Y162808D01*
X111651Y162827D01*
X111657Y162834D01*
X111664Y162840D01*
X111697Y162873D01*
X111736Y162899D01*
X111775Y162912D01*
X111808Y162926D01*
X111841Y162932D01*
X111867Y162939D01*
X111887D01*
X111933Y162932D01*
D02*
G37*
G36*
X125722Y164284D02*
X125761Y164277D01*
X125833Y164244D01*
X125860Y164225D01*
X125873Y164205D01*
X125886Y164198D01*
X125892Y164192D01*
X125925Y164159D01*
X125945Y164120D01*
X125971Y164047D01*
X125978Y164021D01*
X125984Y163995D01*
Y163982D01*
Y163975D01*
Y159350D01*
X123150D01*
X123104Y159357D01*
X123058Y159363D01*
X122986Y159396D01*
X122960Y159409D01*
X122940Y159423D01*
X122934Y159429D01*
X122927Y159436D01*
X122895Y159475D01*
X122868Y159508D01*
X122855Y159547D01*
X122842Y159580D01*
X122835Y159613D01*
X122829Y159639D01*
Y159652D01*
Y159659D01*
X122835Y159705D01*
X122842Y159750D01*
X122875Y159823D01*
X122895Y159849D01*
X122914Y159869D01*
X122921Y159875D01*
X122927Y159882D01*
X122960Y159915D01*
X123000Y159934D01*
X123072Y159960D01*
X123104Y159967D01*
X123131Y159974D01*
X125361D01*
Y163975D01*
X125368Y164021D01*
X125374Y164060D01*
X125407Y164133D01*
X125427Y164159D01*
X125446Y164179D01*
X125453Y164185D01*
X125459Y164192D01*
X125492Y164225D01*
X125532Y164251D01*
X125571Y164264D01*
X125604Y164277D01*
X125630Y164284D01*
X125656Y164290D01*
X125676D01*
X125722Y164284D01*
D02*
G37*
G36*
X61342D02*
X61388Y164277D01*
X61453Y164244D01*
X61480Y164225D01*
X61500Y164211D01*
X61513Y164205D01*
X61519Y164198D01*
X61545Y164165D01*
X61565Y164126D01*
X61591Y164054D01*
X61598Y164021D01*
X61604Y163995D01*
Y163982D01*
Y163975D01*
X61598Y163929D01*
X61591Y163883D01*
X61559Y163818D01*
X61545Y163792D01*
X61532Y163772D01*
X61526Y163759D01*
X61519Y163752D01*
X61480Y163726D01*
X61447Y163706D01*
X61375Y163680D01*
X61342Y163673D01*
X61316Y163667D01*
X60351D01*
Y159974D01*
X61309D01*
X61355Y159967D01*
X61401Y159960D01*
X61467Y159928D01*
X61493Y159908D01*
X61513Y159895D01*
X61526Y159888D01*
X61532Y159882D01*
X61559Y159849D01*
X61578Y159810D01*
X61604Y159737D01*
X61611Y159711D01*
X61617Y159685D01*
Y159672D01*
Y159665D01*
X61611Y159619D01*
X61604Y159573D01*
X61572Y159508D01*
X61559Y159482D01*
X61545Y159462D01*
X61539Y159449D01*
X61532Y159442D01*
X61493Y159409D01*
X61460Y159390D01*
X61388Y159363D01*
X61355Y159357D01*
X61329Y159350D01*
X58797D01*
X58751Y159357D01*
X58705Y159363D01*
X58633Y159396D01*
X58606Y159409D01*
X58587Y159423D01*
X58580Y159429D01*
X58574Y159436D01*
X58541Y159475D01*
X58521Y159508D01*
X58495Y159580D01*
X58488Y159613D01*
X58482Y159639D01*
Y159652D01*
Y159659D01*
Y161273D01*
X58488Y161318D01*
X58495Y161364D01*
X58528Y161436D01*
X58548Y161463D01*
X58561Y161482D01*
X58567Y161489D01*
X58574Y161495D01*
X58606Y161528D01*
X58646Y161548D01*
X58718Y161574D01*
X58751Y161581D01*
X58777Y161587D01*
X58797D01*
X58843Y161581D01*
X58889Y161574D01*
X58954Y161541D01*
X58980Y161522D01*
X59000Y161502D01*
X59013Y161495D01*
X59020Y161489D01*
X59046Y161456D01*
X59066Y161417D01*
X59092Y161345D01*
X59099Y161318D01*
X59105Y161292D01*
Y161279D01*
Y161273D01*
Y159974D01*
X59728D01*
Y164290D01*
X61296D01*
X61342Y164284D01*
D02*
G37*
G36*
X79743Y162932D02*
X79789Y162926D01*
X79854Y162893D01*
X79881Y162873D01*
X79900Y162853D01*
X79913Y162847D01*
X79920Y162840D01*
X79946Y162808D01*
X79966Y162768D01*
X79992Y162696D01*
X79999Y162663D01*
X80005Y162637D01*
Y162624D01*
Y162617D01*
Y159659D01*
X79999Y159613D01*
X79992Y159573D01*
X79959Y159501D01*
X79940Y159475D01*
X79927Y159462D01*
X79920Y159449D01*
X79913Y159442D01*
X79881Y159409D01*
X79841Y159390D01*
X79769Y159363D01*
X79743Y159357D01*
X79717Y159350D01*
X79697D01*
X79651Y159357D01*
X79612Y159363D01*
X79539Y159396D01*
X79513Y159416D01*
X79493Y159429D01*
X79487Y159436D01*
X79480Y159442D01*
X79448Y159475D01*
X79421Y159514D01*
X79408Y159554D01*
X79395Y159587D01*
X79389Y159613D01*
X79382Y159639D01*
Y159652D01*
Y159659D01*
Y161653D01*
X78529Y162204D01*
X78470Y162243D01*
X78411Y162270D01*
X78359Y162289D01*
X78313Y162302D01*
X78273Y162309D01*
X78247Y162315D01*
X77913D01*
X77854Y162309D01*
X77801Y162302D01*
X77755Y162283D01*
X77716Y162263D01*
X77657Y162211D01*
X77611Y162152D01*
X77585Y162092D01*
X77571Y162040D01*
X77565Y162001D01*
Y161994D01*
Y161987D01*
X77466Y159659D01*
X77460Y159606D01*
X77453Y159560D01*
X77440Y159521D01*
X77421Y159488D01*
X77401Y159462D01*
X77388Y159442D01*
X77381Y159436D01*
X77375Y159429D01*
X77342Y159403D01*
X77302Y159383D01*
X77230Y159363D01*
X77204Y159357D01*
X77178Y159350D01*
X77158D01*
X77112Y159357D01*
X77066Y159363D01*
X76994Y159396D01*
X76968Y159416D01*
X76948Y159429D01*
X76942Y159436D01*
X76935Y159442D01*
X76902Y159475D01*
X76883Y159514D01*
X76856Y159587D01*
X76850Y159613D01*
X76843Y159639D01*
Y159652D01*
Y159659D01*
X76935Y162020D01*
X76955Y162158D01*
X76988Y162283D01*
X77040Y162394D01*
X77093Y162493D01*
X77145Y162565D01*
X77184Y162624D01*
X77217Y162657D01*
X77230Y162670D01*
X77335Y162762D01*
X77447Y162827D01*
X77552Y162873D01*
X77650Y162906D01*
X77742Y162926D01*
X77808Y162932D01*
X77834Y162939D01*
X78162D01*
X78293Y162932D01*
X78418Y162912D01*
X78523Y162880D01*
X78621Y162847D01*
X78700Y162814D01*
X78759Y162781D01*
X78798Y162762D01*
X78805Y162755D01*
X78811D01*
X79382Y162414D01*
Y162617D01*
X79389Y162663D01*
X79395Y162709D01*
X79428Y162781D01*
X79448Y162808D01*
X79467Y162827D01*
X79474Y162834D01*
X79480Y162840D01*
X79513Y162873D01*
X79553Y162899D01*
X79592Y162912D01*
X79625Y162926D01*
X79651Y162932D01*
X79677Y162939D01*
X79697D01*
X79743Y162932D01*
D02*
G37*
G36*
X111428Y153182D02*
X111539Y153155D01*
X111637Y153116D01*
X111723Y153070D01*
X111788Y153024D01*
X111841Y152985D01*
X111867Y152959D01*
X111880Y152945D01*
X111959Y152854D01*
X112011Y152755D01*
X112051Y152657D01*
X112084Y152565D01*
X112097Y152486D01*
X112103Y152427D01*
X112110Y152401D01*
Y152381D01*
Y152375D01*
Y152368D01*
X112103Y152289D01*
X112090Y152211D01*
X112071Y152138D01*
X112044Y152079D01*
X112025Y152027D01*
X112005Y151981D01*
X111992Y151955D01*
X111985Y151948D01*
X111933Y151876D01*
X111874Y151817D01*
X111808Y151765D01*
X111749Y151719D01*
X111697Y151686D01*
X111651Y151660D01*
X111624Y151646D01*
X111611Y151640D01*
X109932Y150885D01*
X109860Y150846D01*
X109807Y150794D01*
X109774Y150748D01*
X109748Y150695D01*
X109735Y150649D01*
X109722Y150610D01*
Y150584D01*
Y150577D01*
X109729Y150525D01*
X109735Y150479D01*
X109768Y150407D01*
X109788Y150374D01*
X109807Y150354D01*
X109814Y150341D01*
X109820Y150335D01*
X109853Y150302D01*
X109893Y150275D01*
X109932Y150256D01*
X109971Y150243D01*
X110004Y150236D01*
X110024Y150230D01*
X111211D01*
X111303Y150236D01*
X111382Y150249D01*
X111447Y150269D01*
X111506Y150295D01*
X111546Y150321D01*
X111579Y150341D01*
X111598Y150354D01*
X111605Y150361D01*
X111657Y150407D01*
X111703Y150439D01*
X111749Y150466D01*
X111782Y150479D01*
X111815Y150492D01*
X111841Y150498D01*
X111861D01*
X111913Y150492D01*
X111959Y150485D01*
X111998Y150466D01*
X112031Y150452D01*
X112057Y150433D01*
X112077Y150413D01*
X112090Y150407D01*
X112097Y150400D01*
X112123Y150367D01*
X112143Y150328D01*
X112169Y150256D01*
X112176Y150230D01*
X112182Y150203D01*
Y150190D01*
Y150184D01*
X112169Y150118D01*
X112136Y150046D01*
X112097Y149980D01*
X112044Y149928D01*
X111992Y149875D01*
X111952Y149836D01*
X111920Y149810D01*
X111907Y149803D01*
X111802Y149738D01*
X111690Y149692D01*
X111592Y149652D01*
X111493Y149633D01*
X111415Y149619D01*
X111349Y149613D01*
X111329Y149606D01*
X110030D01*
X109899Y149619D01*
X109774Y149652D01*
X109669Y149692D01*
X109571Y149744D01*
X109492Y149796D01*
X109440Y149836D01*
X109401Y149869D01*
X109387Y149882D01*
X109335Y149934D01*
X109289Y149993D01*
X109223Y150105D01*
X109171Y150223D01*
X109132Y150328D01*
X109112Y150420D01*
X109105Y150498D01*
X109099Y150525D01*
Y150544D01*
Y150557D01*
Y150564D01*
X109105Y150676D01*
X109125Y150774D01*
X109151Y150872D01*
X109177Y150951D01*
X109210Y151017D01*
X109237Y151069D01*
X109256Y151095D01*
X109263Y151109D01*
X109328Y151194D01*
X109394Y151272D01*
X109466Y151332D01*
X109532Y151384D01*
X109591Y151423D01*
X109637Y151450D01*
X109663Y151463D01*
X109676Y151469D01*
X111342Y152211D01*
X111388Y152237D01*
X111421Y152263D01*
X111447Y152296D01*
X111460Y152322D01*
X111474Y152355D01*
X111480Y152375D01*
Y152388D01*
Y152394D01*
X111474Y152453D01*
X111447Y152499D01*
X111415Y152525D01*
X111375Y152552D01*
X111342Y152565D01*
X111310Y152571D01*
X109860D01*
X109807Y152565D01*
X109761Y152552D01*
X109683Y152506D01*
X109650Y152480D01*
X109624Y152453D01*
X109610Y152440D01*
X109604Y152434D01*
X109558Y152388D01*
X109505Y152355D01*
X109460Y152335D01*
X109420Y152322D01*
X109381Y152309D01*
X109355Y152303D01*
X109328D01*
X109283Y152309D01*
X109243Y152316D01*
X109177Y152348D01*
X109151Y152362D01*
X109132Y152375D01*
X109125Y152381D01*
X109118Y152388D01*
X109086Y152420D01*
X109059Y152460D01*
X109046Y152493D01*
X109033Y152525D01*
X109027Y152558D01*
X109020Y152585D01*
Y152598D01*
Y152604D01*
X109033Y152676D01*
X109059Y152742D01*
X109105Y152808D01*
X109151Y152867D01*
X109197Y152919D01*
X109243Y152959D01*
X109269Y152985D01*
X109283Y152991D01*
X109381Y153057D01*
X109479Y153109D01*
X109584Y153142D01*
X109676Y153168D01*
X109755Y153182D01*
X109814Y153195D01*
X111303D01*
X111428Y153182D01*
D02*
G37*
G36*
X120257Y153188D02*
X120336Y153182D01*
X120487Y153136D01*
X120631Y153077D01*
X120749Y153011D01*
X120854Y152945D01*
X120894Y152912D01*
X120933Y152886D01*
X120959Y152860D01*
X120979Y152840D01*
X120992Y152834D01*
X120999Y152827D01*
X121064Y152762D01*
X121123Y152690D01*
X121176Y152624D01*
X121215Y152558D01*
X121255Y152493D01*
X121287Y152427D01*
X121333Y152309D01*
X121359Y152211D01*
X121366Y152165D01*
X121373Y152132D01*
X121379Y152099D01*
Y152079D01*
Y152066D01*
Y152060D01*
Y150735D01*
X121373Y150663D01*
X121359Y150584D01*
X121346Y150512D01*
X121320Y150446D01*
X121255Y150315D01*
X121182Y150197D01*
X121117Y150105D01*
X121084Y150066D01*
X121051Y150033D01*
X121025Y150006D01*
X121012Y149987D01*
X120999Y149974D01*
X120992Y149967D01*
X120920Y149901D01*
X120841Y149849D01*
X120769Y149803D01*
X120697Y149757D01*
X120559Y149692D01*
X120434Y149652D01*
X120329Y149626D01*
X120284Y149619D01*
X120244Y149613D01*
X120211Y149606D01*
X119437D01*
X119359Y149613D01*
X119280Y149619D01*
X119136Y149659D01*
X118998Y149718D01*
X118873Y149783D01*
X118768Y149849D01*
X118729Y149882D01*
X118690Y149908D01*
X118663Y149928D01*
X118644Y149947D01*
X118631Y149954D01*
X118624Y149960D01*
X118552Y150026D01*
X118493Y150098D01*
X118440Y150164D01*
X118394Y150230D01*
X118355Y150295D01*
X118322Y150361D01*
X118276Y150479D01*
X118244Y150584D01*
X118237Y150630D01*
X118230Y150663D01*
X118224Y150695D01*
Y150715D01*
Y150728D01*
Y150735D01*
Y152060D01*
X118230Y152138D01*
X118244Y152217D01*
X118263Y152289D01*
X118283Y152362D01*
X118348Y152493D01*
X118421Y152611D01*
X118499Y152709D01*
X118532Y152749D01*
X118558Y152781D01*
X118585Y152808D01*
X118604Y152827D01*
X118617Y152834D01*
X118624Y152840D01*
X118696Y152906D01*
X118775Y152959D01*
X118847Y153004D01*
X118919Y153050D01*
X119057Y153109D01*
X119175Y153155D01*
X119287Y153175D01*
X119326Y153188D01*
X119365D01*
X119398Y153195D01*
X120172D01*
X120257Y153188D01*
D02*
G37*
G36*
X89006Y162932D02*
X89051Y162926D01*
X89117Y162893D01*
X89143Y162873D01*
X89163Y162860D01*
X89176Y162853D01*
X89183Y162847D01*
X89215Y162814D01*
X89235Y162775D01*
X89261Y162703D01*
X89268Y162670D01*
X89275Y162644D01*
Y162630D01*
Y162624D01*
Y159659D01*
X89268Y159613D01*
X89261Y159573D01*
X89229Y159501D01*
X89209Y159475D01*
X89196Y159462D01*
X89189Y159449D01*
X89183Y159442D01*
X89143Y159409D01*
X89110Y159390D01*
X89038Y159363D01*
X89006Y159357D01*
X88979Y159350D01*
X88960D01*
X88914Y159357D01*
X88874Y159363D01*
X88802Y159396D01*
X88776Y159416D01*
X88756Y159429D01*
X88750Y159436D01*
X88743Y159442D01*
X88710Y159475D01*
X88691Y159514D01*
X88664Y159587D01*
X88658Y159613D01*
X88651Y159639D01*
Y159652D01*
Y159659D01*
Y161876D01*
X88205Y162257D01*
X88166Y162289D01*
X88120Y162302D01*
X88094Y162309D01*
X88081D01*
X88035Y162302D01*
X88002Y162283D01*
X87976Y162257D01*
X87963Y162230D01*
X87949Y162197D01*
X87943Y162171D01*
Y162152D01*
Y162145D01*
Y159659D01*
X87936Y159613D01*
X87930Y159567D01*
X87897Y159501D01*
X87877Y159475D01*
X87864Y159455D01*
X87858Y159442D01*
X87851Y159436D01*
X87818Y159409D01*
X87779Y159390D01*
X87707Y159363D01*
X87680Y159357D01*
X87654Y159350D01*
X87634D01*
X87589Y159357D01*
X87543Y159363D01*
X87471Y159396D01*
X87444Y159409D01*
X87425Y159423D01*
X87418Y159429D01*
X87411Y159436D01*
X87379Y159468D01*
X87359Y159508D01*
X87333Y159580D01*
X87326Y159606D01*
X87320Y159633D01*
Y159646D01*
Y159652D01*
Y161935D01*
X86946Y162250D01*
X86893Y162283D01*
X86854Y162302D01*
X86828Y162309D01*
X86814D01*
X86775Y162302D01*
X86742Y162276D01*
X86723Y162243D01*
X86703Y162211D01*
X86696Y162171D01*
X86690Y162138D01*
X86683Y162112D01*
Y162106D01*
X86611Y159659D01*
X86605Y159613D01*
X86598Y159573D01*
X86565Y159501D01*
X86545Y159475D01*
X86532Y159462D01*
X86526Y159449D01*
X86519Y159442D01*
X86480Y159409D01*
X86447Y159390D01*
X86375Y159363D01*
X86342Y159357D01*
X86316Y159350D01*
X86296D01*
X86250Y159357D01*
X86211Y159363D01*
X86139Y159396D01*
X86113Y159416D01*
X86093Y159429D01*
X86086Y159436D01*
X86080Y159442D01*
X86047Y159475D01*
X86021Y159514D01*
X86008Y159554D01*
X85994Y159587D01*
X85988Y159613D01*
X85981Y159639D01*
Y159652D01*
Y159659D01*
X86067Y162204D01*
X86080Y162322D01*
X86113Y162420D01*
X86152Y162512D01*
X86191Y162584D01*
X86231Y162650D01*
X86270Y162689D01*
X86296Y162722D01*
X86303Y162729D01*
X86382Y162801D01*
X86467Y162853D01*
X86552Y162886D01*
X86631Y162912D01*
X86696Y162926D01*
X86755Y162939D01*
X86801D01*
X86867Y162932D01*
X86933Y162926D01*
X87057Y162886D01*
X87169Y162840D01*
X87267Y162781D01*
X87346Y162722D01*
X87405Y162670D01*
X87444Y162630D01*
X87451Y162624D01*
X87457Y162617D01*
X87503Y162676D01*
X87556Y162722D01*
X87602Y162768D01*
X87654Y162801D01*
X87759Y162860D01*
X87858Y162899D01*
X87943Y162919D01*
X88008Y162932D01*
X88035Y162939D01*
X88074D01*
X88192Y162926D01*
X88297Y162899D01*
X88396Y162860D01*
X88481Y162814D01*
X88553Y162768D01*
X88605Y162729D01*
X88638Y162703D01*
X88651Y162689D01*
X88684Y162775D01*
X88730Y162834D01*
X88776Y162880D01*
X88828Y162906D01*
X88881Y162926D01*
X88920Y162932D01*
X88946Y162939D01*
X88960D01*
X89006Y162932D01*
D02*
G37*
G36*
X101863Y153188D02*
X101942Y153182D01*
X102093Y153136D01*
X102237Y153077D01*
X102355Y153011D01*
X102460Y152945D01*
X102499Y152912D01*
X102539Y152886D01*
X102565Y152860D01*
X102585Y152840D01*
X102598Y152834D01*
X102604Y152827D01*
X102670Y152762D01*
X102729Y152690D01*
X102781Y152624D01*
X102821Y152558D01*
X102860Y152493D01*
X102893Y152427D01*
X102939Y152309D01*
X102965Y152211D01*
X102972Y152165D01*
X102978Y152132D01*
X102985Y152099D01*
Y152079D01*
Y152066D01*
Y152060D01*
Y150735D01*
X102978Y150663D01*
X102965Y150584D01*
X102952Y150512D01*
X102926Y150446D01*
X102860Y150315D01*
X102788Y150197D01*
X102723Y150105D01*
X102690Y150066D01*
X102657Y150033D01*
X102631Y150006D01*
X102618Y149987D01*
X102604Y149974D01*
X102598Y149967D01*
X102526Y149901D01*
X102447Y149849D01*
X102375Y149803D01*
X102303Y149757D01*
X102165Y149692D01*
X102040Y149652D01*
X101935Y149626D01*
X101889Y149619D01*
X101850Y149613D01*
X101817Y149606D01*
X101043D01*
X100964Y149613D01*
X100886Y149619D01*
X100741Y149659D01*
X100604Y149718D01*
X100479Y149783D01*
X100374Y149849D01*
X100335Y149882D01*
X100295Y149908D01*
X100269Y149928D01*
X100249Y149947D01*
X100236Y149954D01*
X100230Y149960D01*
X100157Y150026D01*
X100099Y150098D01*
X100046Y150164D01*
X100000Y150230D01*
X99961Y150295D01*
X99928Y150361D01*
X99882Y150479D01*
X99849Y150584D01*
X99843Y150630D01*
X99836Y150663D01*
X99830Y150695D01*
Y150715D01*
Y150728D01*
Y150735D01*
Y152060D01*
X99836Y152138D01*
X99849Y152217D01*
X99869Y152289D01*
X99889Y152362D01*
X99954Y152493D01*
X100026Y152611D01*
X100105Y152709D01*
X100138Y152749D01*
X100164Y152781D01*
X100190Y152808D01*
X100210Y152827D01*
X100223Y152834D01*
X100230Y152840D01*
X100302Y152906D01*
X100381Y152959D01*
X100453Y153004D01*
X100525Y153050D01*
X100663Y153109D01*
X100781Y153155D01*
X100892Y153175D01*
X100932Y153188D01*
X100971D01*
X101004Y153195D01*
X101778D01*
X101863Y153188D01*
D02*
G37*
G36*
X65704Y164284D02*
X65790Y164264D01*
X65855Y164231D01*
X65921Y164198D01*
X65967Y164165D01*
X66006Y164133D01*
X66032Y164113D01*
X66039Y164106D01*
X66098Y164041D01*
X66144Y163969D01*
X66170Y163897D01*
X66196Y163831D01*
X66210Y163772D01*
X66216Y163726D01*
Y163700D01*
Y163687D01*
Y159947D01*
X66210Y159855D01*
X66190Y159777D01*
X66164Y159705D01*
X66131Y159639D01*
X66098Y159593D01*
X66072Y159554D01*
X66052Y159528D01*
X66045Y159521D01*
X65973Y159462D01*
X65901Y159423D01*
X65836Y159390D01*
X65763Y159370D01*
X65704Y159357D01*
X65658Y159350D01*
X63671D01*
X63579Y159357D01*
X63500Y159377D01*
X63428Y159403D01*
X63362Y159436D01*
X63317Y159468D01*
X63277Y159495D01*
X63251Y159514D01*
X63244Y159521D01*
X63185Y159593D01*
X63139Y159665D01*
X63113Y159731D01*
X63087Y159803D01*
X63074Y159862D01*
X63067Y159908D01*
Y159934D01*
Y159947D01*
Y163687D01*
X63074Y163772D01*
X63094Y163857D01*
X63126Y163929D01*
X63153Y163988D01*
X63185Y164041D01*
X63218Y164074D01*
X63238Y164100D01*
X63244Y164106D01*
X63310Y164165D01*
X63382Y164211D01*
X63454Y164244D01*
X63520Y164270D01*
X63579Y164284D01*
X63625Y164290D01*
X65619D01*
X65704Y164284D01*
D02*
G37*
G36*
X70572D02*
X70618Y164277D01*
X70683Y164244D01*
X70710Y164225D01*
X70729Y164211D01*
X70742Y164205D01*
X70749Y164198D01*
X70775Y164165D01*
X70795Y164126D01*
X70821Y164054D01*
X70828Y164021D01*
X70834Y163995D01*
Y163982D01*
Y163975D01*
X70828Y163929D01*
X70821Y163883D01*
X70788Y163818D01*
X70775Y163792D01*
X70762Y163772D01*
X70756Y163759D01*
X70749Y163752D01*
X70710Y163726D01*
X70677Y163706D01*
X70605Y163680D01*
X70572Y163673D01*
X70546Y163667D01*
X68283D01*
Y162145D01*
X70191D01*
X70283Y162138D01*
X70369Y162119D01*
X70441Y162086D01*
X70506Y162053D01*
X70559Y162014D01*
X70598Y161987D01*
X70624Y161961D01*
X70631Y161955D01*
X70690Y161882D01*
X70736Y161810D01*
X70769Y161732D01*
X70788Y161666D01*
X70802Y161600D01*
X70815Y161555D01*
Y161522D01*
Y161509D01*
Y159350D01*
X67968D01*
X67922Y159357D01*
X67882Y159363D01*
X67810Y159396D01*
X67784Y159409D01*
X67764Y159423D01*
X67758Y159429D01*
X67751Y159436D01*
X67718Y159475D01*
X67692Y159508D01*
X67679Y159547D01*
X67666Y159580D01*
X67659Y159613D01*
X67653Y159639D01*
Y159652D01*
Y159659D01*
X67659Y159705D01*
X67666Y159750D01*
X67699Y159823D01*
X67718Y159849D01*
X67738Y159869D01*
X67745Y159875D01*
X67751Y159882D01*
X67784Y159915D01*
X67823Y159934D01*
X67896Y159960D01*
X67922Y159967D01*
X67948Y159974D01*
X70191D01*
Y161515D01*
X68289D01*
X68197Y161522D01*
X68105Y161541D01*
X68033Y161574D01*
X67968Y161607D01*
X67915Y161640D01*
X67876Y161673D01*
X67849Y161692D01*
X67843Y161699D01*
X67777Y161771D01*
X67731Y161843D01*
X67699Y161922D01*
X67679Y161994D01*
X67659Y162053D01*
X67653Y162099D01*
Y162132D01*
Y162145D01*
Y163660D01*
X67659Y163752D01*
X67679Y163837D01*
X67712Y163910D01*
X67745Y163975D01*
X67784Y164028D01*
X67810Y164067D01*
X67836Y164093D01*
X67843Y164100D01*
X67915Y164165D01*
X67987Y164211D01*
X68066Y164244D01*
X68132Y164264D01*
X68197Y164284D01*
X68243Y164290D01*
X70526D01*
X70572Y164284D01*
D02*
G37*
G36*
X118604Y162939D02*
X118650Y162932D01*
X118716Y162899D01*
X118742Y162880D01*
X118762Y162860D01*
X118775Y162853D01*
X118781Y162847D01*
X118814Y162814D01*
X118834Y162775D01*
X118860Y162703D01*
X118867Y162676D01*
X118873Y162650D01*
Y162637D01*
Y162630D01*
Y162152D01*
X119720Y160256D01*
X119936D01*
X120756Y162158D01*
Y162624D01*
X120763Y162670D01*
X120769Y162716D01*
X120802Y162788D01*
X120821Y162814D01*
X120841Y162834D01*
X120848Y162840D01*
X120854Y162847D01*
X120887Y162880D01*
X120926Y162899D01*
X120999Y162926D01*
X121031Y162932D01*
X121058Y162939D01*
X121077D01*
X121123Y162932D01*
X121163Y162926D01*
X121235Y162893D01*
X121261Y162873D01*
X121274Y162860D01*
X121287Y162853D01*
X121294Y162847D01*
X121320Y162814D01*
X121340Y162775D01*
X121366Y162703D01*
X121373Y162670D01*
X121379Y162644D01*
Y162630D01*
Y162624D01*
Y162020D01*
X120448Y159842D01*
X120408Y159770D01*
X120362Y159718D01*
X120310Y159678D01*
X120264Y159652D01*
X120218Y159639D01*
X120179Y159633D01*
X120152Y159626D01*
X119988D01*
X120421Y158635D01*
X121084D01*
X121130Y158629D01*
X121176Y158622D01*
X121241Y158596D01*
X121268Y158576D01*
X121287Y158563D01*
X121300Y158557D01*
X121307Y158550D01*
X121333Y158517D01*
X121353Y158478D01*
X121379Y158406D01*
X121386Y158373D01*
X121392Y158347D01*
Y158334D01*
Y158327D01*
X121386Y158281D01*
X121379Y158235D01*
X121346Y158170D01*
X121333Y158143D01*
X121320Y158124D01*
X121314Y158110D01*
X121307Y158104D01*
X121268Y158071D01*
X121235Y158052D01*
X121163Y158025D01*
X121130Y158019D01*
X121104Y158012D01*
X120218D01*
X120146Y158019D01*
X120080Y158045D01*
X120034Y158078D01*
X119988Y158117D01*
X119962Y158157D01*
X119936Y158189D01*
X119929Y158215D01*
X119923Y158222D01*
X118244Y162020D01*
Y162630D01*
X118250Y162676D01*
X118257Y162716D01*
X118289Y162788D01*
X118309Y162814D01*
X118329Y162834D01*
X118335Y162840D01*
X118342Y162847D01*
X118375Y162880D01*
X118414Y162906D01*
X118453Y162919D01*
X118486Y162932D01*
X118512Y162939D01*
X118539Y162945D01*
X118558D01*
X118604Y162939D01*
D02*
G37*
G36*
X56310Y161509D02*
X54415D01*
Y159974D01*
X55864D01*
X55923Y159980D01*
X55969Y159993D01*
X56009Y160006D01*
X56015Y160013D01*
X56022D01*
X56435Y160190D01*
X56520Y160223D01*
X56586Y160243D01*
X56612Y160249D01*
X56652D01*
X56691Y160243D01*
X56730Y160236D01*
X56796Y160203D01*
X56822Y160184D01*
X56842Y160170D01*
X56848Y160164D01*
X56855Y160157D01*
X56881Y160125D01*
X56901Y160085D01*
X56927Y160013D01*
X56934Y159980D01*
X56940Y159954D01*
Y159941D01*
Y159934D01*
X56934Y159862D01*
X56914Y159797D01*
X56881Y159744D01*
X56848Y159705D01*
X56816Y159678D01*
X56783Y159652D01*
X56763Y159646D01*
X56757Y159639D01*
X56278Y159442D01*
X56199Y159409D01*
X56120Y159390D01*
X56055Y159370D01*
X55996Y159363D01*
X55943Y159357D01*
X55904Y159350D01*
X54421D01*
X54329Y159357D01*
X54244Y159377D01*
X54172Y159409D01*
X54106Y159442D01*
X54054Y159475D01*
X54014Y159508D01*
X53988Y159528D01*
X53982Y159534D01*
X53916Y159606D01*
X53870Y159678D01*
X53837Y159757D01*
X53818Y159823D01*
X53798Y159882D01*
X53791Y159934D01*
Y159960D01*
Y159974D01*
Y161502D01*
X53798Y161594D01*
X53818Y161679D01*
X53851Y161751D01*
X53883Y161817D01*
X53923Y161869D01*
X53949Y161909D01*
X53975Y161935D01*
X53982Y161942D01*
X54054Y162007D01*
X54126Y162053D01*
X54198Y162086D01*
X54270Y162106D01*
X54329Y162125D01*
X54375Y162132D01*
X55681D01*
Y163667D01*
X54106D01*
X54060Y163673D01*
X54014Y163680D01*
X53942Y163713D01*
X53916Y163726D01*
X53896Y163739D01*
X53890Y163746D01*
X53883Y163752D01*
X53851Y163792D01*
X53831Y163824D01*
X53805Y163897D01*
X53798Y163929D01*
X53791Y163955D01*
Y163969D01*
Y163975D01*
X53798Y164021D01*
X53805Y164060D01*
X53837Y164133D01*
X53857Y164159D01*
X53877Y164179D01*
X53883Y164185D01*
X53890Y164192D01*
X53923Y164225D01*
X53962Y164251D01*
X54001Y164264D01*
X54034Y164277D01*
X54060Y164284D01*
X54087Y164290D01*
X56310D01*
Y161509D01*
D02*
G37*
G36*
X83554Y162932D02*
X83666Y162906D01*
X83764Y162873D01*
X83843Y162834D01*
X83915Y162794D01*
X83967Y162762D01*
X84000Y162735D01*
X84013Y162729D01*
X84269Y162525D01*
X84322Y162479D01*
X84368Y162427D01*
X84413Y162368D01*
X84446Y162315D01*
X84473Y162270D01*
X84492Y162230D01*
X84505Y162204D01*
X84512Y162197D01*
X84545Y162125D01*
X84564Y162060D01*
X84584Y162007D01*
X84591Y161955D01*
X84597Y161922D01*
X84604Y161889D01*
Y161876D01*
Y161869D01*
Y160439D01*
X84597Y160380D01*
X84591Y160321D01*
X84578Y160262D01*
X84558Y160210D01*
X84545Y160157D01*
X84532Y160125D01*
X84525Y160098D01*
X84518Y160092D01*
X84486Y160026D01*
X84446Y159967D01*
X84413Y159921D01*
X84381Y159882D01*
X84348Y159849D01*
X84322Y159823D01*
X84309Y159810D01*
X84302Y159803D01*
X84020Y159560D01*
X83987Y159534D01*
X83941Y159508D01*
X83856Y159462D01*
X83817Y159442D01*
X83784Y159429D01*
X83764Y159416D01*
X83758D01*
X83626Y159377D01*
X83567Y159363D01*
X83515Y159357D01*
X83469D01*
X83436Y159350D01*
X81763D01*
X81717Y159357D01*
X81678Y159363D01*
X81606Y159396D01*
X81580Y159416D01*
X81560Y159429D01*
X81553Y159436D01*
X81547Y159442D01*
X81514Y159475D01*
X81488Y159514D01*
X81475Y159554D01*
X81462Y159587D01*
X81455Y159613D01*
X81448Y159639D01*
Y159652D01*
Y159659D01*
X81455Y159705D01*
X81462Y159750D01*
X81494Y159823D01*
X81514Y159849D01*
X81534Y159869D01*
X81540Y159875D01*
X81547Y159882D01*
X81580Y159915D01*
X81619Y159934D01*
X81691Y159960D01*
X81717Y159967D01*
X81744Y159974D01*
X83377D01*
X83429Y159980D01*
X83476Y159993D01*
X83567Y160033D01*
X83607Y160052D01*
X83633Y160065D01*
X83653Y160079D01*
X83659Y160085D01*
X83836Y160243D01*
X83882Y160289D01*
X83915Y160334D01*
X83941Y160374D01*
X83954Y160420D01*
X83967Y160459D01*
X83974Y160485D01*
Y160505D01*
Y160512D01*
Y160702D01*
X81763D01*
X81717Y160708D01*
X81678Y160715D01*
X81606Y160748D01*
X81580Y160767D01*
X81560Y160781D01*
X81553Y160787D01*
X81547Y160794D01*
X81514Y160826D01*
X81488Y160866D01*
X81475Y160905D01*
X81462Y160938D01*
X81455Y160964D01*
X81448Y160990D01*
Y161003D01*
Y161010D01*
Y161765D01*
X81462Y161922D01*
X81488Y162060D01*
X81527Y162178D01*
X81573Y162270D01*
X81625Y162342D01*
X81665Y162401D01*
X81691Y162427D01*
X81704Y162440D01*
X81940Y162663D01*
X82052Y162755D01*
X82164Y162821D01*
X82268Y162873D01*
X82360Y162906D01*
X82446Y162926D01*
X82505Y162932D01*
X82531Y162939D01*
X83443D01*
X83554Y162932D01*
D02*
G37*
G36*
X106547D02*
X106658Y162906D01*
X106757Y162873D01*
X106836Y162834D01*
X106908Y162794D01*
X106960Y162762D01*
X106993Y162735D01*
X107006Y162729D01*
X107262Y162525D01*
X107315Y162479D01*
X107360Y162427D01*
X107406Y162368D01*
X107439Y162315D01*
X107465Y162270D01*
X107485Y162230D01*
X107498Y162204D01*
X107505Y162197D01*
X107537Y162125D01*
X107557Y162060D01*
X107577Y162007D01*
X107583Y161955D01*
X107590Y161922D01*
X107597Y161889D01*
Y161876D01*
Y161869D01*
Y160439D01*
X107590Y160380D01*
X107583Y160321D01*
X107570Y160262D01*
X107551Y160210D01*
X107537Y160157D01*
X107524Y160125D01*
X107518Y160098D01*
X107511Y160092D01*
X107478Y160026D01*
X107439Y159967D01*
X107406Y159921D01*
X107373Y159882D01*
X107341Y159849D01*
X107315Y159823D01*
X107301Y159810D01*
X107295Y159803D01*
X107013Y159560D01*
X106980Y159534D01*
X106934Y159508D01*
X106849Y159462D01*
X106809Y159442D01*
X106777Y159429D01*
X106757Y159416D01*
X106750D01*
X106619Y159377D01*
X106560Y159363D01*
X106508Y159357D01*
X106462D01*
X106429Y159350D01*
X104756D01*
X104710Y159357D01*
X104671Y159363D01*
X104599Y159396D01*
X104572Y159416D01*
X104553Y159429D01*
X104546Y159436D01*
X104540Y159442D01*
X104507Y159475D01*
X104481Y159514D01*
X104467Y159554D01*
X104454Y159587D01*
X104448Y159613D01*
X104441Y159639D01*
Y159652D01*
Y159659D01*
X104448Y159705D01*
X104454Y159750D01*
X104487Y159823D01*
X104507Y159849D01*
X104526Y159869D01*
X104533Y159875D01*
X104540Y159882D01*
X104572Y159915D01*
X104612Y159934D01*
X104684Y159960D01*
X104710Y159967D01*
X104736Y159974D01*
X106370D01*
X106422Y159980D01*
X106468Y159993D01*
X106560Y160033D01*
X106599Y160052D01*
X106626Y160065D01*
X106645Y160079D01*
X106652Y160085D01*
X106829Y160243D01*
X106875Y160289D01*
X106908Y160334D01*
X106934Y160374D01*
X106947Y160420D01*
X106960Y160459D01*
X106967Y160485D01*
Y160505D01*
Y160512D01*
Y160702D01*
X104756D01*
X104710Y160708D01*
X104671Y160715D01*
X104599Y160748D01*
X104572Y160767D01*
X104553Y160781D01*
X104546Y160787D01*
X104540Y160794D01*
X104507Y160826D01*
X104481Y160866D01*
X104467Y160905D01*
X104454Y160938D01*
X104448Y160964D01*
X104441Y160990D01*
Y161003D01*
Y161010D01*
Y161765D01*
X104454Y161922D01*
X104481Y162060D01*
X104520Y162178D01*
X104566Y162270D01*
X104618Y162342D01*
X104658Y162401D01*
X104684Y162427D01*
X104697Y162440D01*
X104933Y162663D01*
X105045Y162755D01*
X105156Y162821D01*
X105261Y162873D01*
X105353Y162906D01*
X105438Y162926D01*
X105497Y162932D01*
X105524Y162939D01*
X106435D01*
X106547Y162932D01*
D02*
G37*
G36*
X116039Y162926D02*
X116151Y162899D01*
X116249Y162860D01*
X116334Y162814D01*
X116400Y162768D01*
X116453Y162729D01*
X116479Y162703D01*
X116492Y162689D01*
X116571Y162598D01*
X116623Y162499D01*
X116663Y162401D01*
X116695Y162309D01*
X116708Y162230D01*
X116715Y162171D01*
X116721Y162145D01*
Y162125D01*
Y162119D01*
Y162112D01*
X116715Y162033D01*
X116702Y161955D01*
X116682Y161882D01*
X116656Y161823D01*
X116636Y161771D01*
X116617Y161725D01*
X116603Y161699D01*
X116597Y161692D01*
X116544Y161620D01*
X116485Y161561D01*
X116420Y161509D01*
X116361Y161463D01*
X116308Y161430D01*
X116262Y161404D01*
X116236Y161391D01*
X116223Y161384D01*
X114544Y160630D01*
X114471Y160590D01*
X114419Y160538D01*
X114386Y160492D01*
X114360Y160439D01*
X114347Y160393D01*
X114334Y160354D01*
Y160328D01*
Y160321D01*
X114340Y160269D01*
X114347Y160223D01*
X114380Y160151D01*
X114399Y160118D01*
X114419Y160098D01*
X114426Y160085D01*
X114432Y160079D01*
X114465Y160046D01*
X114504Y160020D01*
X114544Y160000D01*
X114583Y159987D01*
X114616Y159980D01*
X114635Y159974D01*
X115823D01*
X115915Y159980D01*
X115993Y159993D01*
X116059Y160013D01*
X116118Y160039D01*
X116157Y160065D01*
X116190Y160085D01*
X116210Y160098D01*
X116216Y160105D01*
X116269Y160151D01*
X116315Y160184D01*
X116361Y160210D01*
X116393Y160223D01*
X116426Y160236D01*
X116453Y160243D01*
X116472D01*
X116525Y160236D01*
X116571Y160229D01*
X116610Y160210D01*
X116643Y160197D01*
X116669Y160177D01*
X116689Y160157D01*
X116702Y160151D01*
X116708Y160144D01*
X116735Y160111D01*
X116754Y160072D01*
X116781Y160000D01*
X116787Y159974D01*
X116794Y159947D01*
Y159934D01*
Y159928D01*
X116781Y159862D01*
X116748Y159790D01*
X116708Y159724D01*
X116656Y159672D01*
X116603Y159619D01*
X116564Y159580D01*
X116531Y159554D01*
X116518Y159547D01*
X116413Y159482D01*
X116302Y159436D01*
X116203Y159396D01*
X116105Y159377D01*
X116026Y159363D01*
X115961Y159357D01*
X115941Y159350D01*
X114642D01*
X114511Y159363D01*
X114386Y159396D01*
X114281Y159436D01*
X114183Y159488D01*
X114104Y159541D01*
X114052Y159580D01*
X114012Y159613D01*
X113999Y159626D01*
X113947Y159678D01*
X113901Y159737D01*
X113835Y159849D01*
X113783Y159967D01*
X113743Y160072D01*
X113724Y160164D01*
X113717Y160243D01*
X113710Y160269D01*
Y160289D01*
Y160302D01*
Y160308D01*
X113717Y160420D01*
X113737Y160518D01*
X113763Y160617D01*
X113789Y160695D01*
X113822Y160761D01*
X113848Y160813D01*
X113868Y160839D01*
X113874Y160853D01*
X113940Y160938D01*
X114006Y161017D01*
X114078Y161076D01*
X114144Y161128D01*
X114202Y161168D01*
X114248Y161194D01*
X114275Y161207D01*
X114288Y161213D01*
X115954Y161955D01*
X116000Y161981D01*
X116033Y162007D01*
X116059Y162040D01*
X116072Y162066D01*
X116085Y162099D01*
X116092Y162119D01*
Y162132D01*
Y162138D01*
X116085Y162197D01*
X116059Y162243D01*
X116026Y162270D01*
X115987Y162296D01*
X115954Y162309D01*
X115921Y162315D01*
X114471D01*
X114419Y162309D01*
X114373Y162296D01*
X114294Y162250D01*
X114261Y162224D01*
X114235Y162197D01*
X114222Y162184D01*
X114216Y162178D01*
X114170Y162132D01*
X114117Y162099D01*
X114071Y162079D01*
X114032Y162066D01*
X113993Y162053D01*
X113966Y162047D01*
X113940D01*
X113894Y162053D01*
X113855Y162060D01*
X113789Y162092D01*
X113763Y162106D01*
X113743Y162119D01*
X113737Y162125D01*
X113730Y162132D01*
X113697Y162165D01*
X113671Y162204D01*
X113658Y162237D01*
X113645Y162270D01*
X113638Y162302D01*
X113632Y162329D01*
Y162342D01*
Y162348D01*
X113645Y162420D01*
X113671Y162486D01*
X113717Y162552D01*
X113763Y162611D01*
X113809Y162663D01*
X113855Y162703D01*
X113881Y162729D01*
X113894Y162735D01*
X113993Y162801D01*
X114091Y162853D01*
X114196Y162886D01*
X114288Y162912D01*
X114366Y162926D01*
X114426Y162939D01*
X115915D01*
X116039Y162926D01*
D02*
G37*
G36*
X92915Y162932D02*
X92961Y162926D01*
X93027Y162893D01*
X93053Y162873D01*
X93073Y162860D01*
X93086Y162853D01*
X93092Y162847D01*
X93119Y162814D01*
X93138Y162775D01*
X93165Y162703D01*
X93171Y162670D01*
X93178Y162644D01*
Y162630D01*
Y162624D01*
X93171Y162578D01*
X93165Y162539D01*
X93132Y162466D01*
X93112Y162440D01*
X93099Y162427D01*
X93092Y162414D01*
X93086Y162407D01*
X93053Y162374D01*
X93014Y162355D01*
X92941Y162329D01*
X92915Y162322D01*
X92889Y162315D01*
X91669D01*
X91623Y162309D01*
X91577Y162302D01*
X91505Y162270D01*
X91479Y162250D01*
X91459Y162237D01*
X91452Y162230D01*
X91446Y162224D01*
X91413Y162191D01*
X91393Y162152D01*
X91367Y162079D01*
X91361Y162047D01*
X91354Y162020D01*
Y162007D01*
Y162001D01*
X91347Y161555D01*
X91413Y161574D01*
X91472Y161587D01*
X91525Y161594D01*
X91564Y161600D01*
X91597Y161607D01*
X92935D01*
X93007Y161594D01*
X93132Y161561D01*
X93250Y161515D01*
X93342Y161469D01*
X93427Y161417D01*
X93479Y161371D01*
X93519Y161338D01*
X93525Y161331D01*
X93532Y161325D01*
X93624Y161220D01*
X93689Y161102D01*
X93742Y160990D01*
X93775Y160885D01*
X93794Y160794D01*
X93801Y160721D01*
X93807Y160695D01*
Y160676D01*
Y160662D01*
Y160656D01*
Y160295D01*
X93794Y160151D01*
X93761Y160026D01*
X93722Y159908D01*
X93670Y159816D01*
X93617Y159731D01*
X93578Y159678D01*
X93545Y159639D01*
X93532Y159626D01*
X93427Y159534D01*
X93309Y159468D01*
X93197Y159416D01*
X93092Y159383D01*
X93001Y159363D01*
X92928Y159357D01*
X92902Y159350D01*
X91807D01*
X91275Y159665D01*
X91269Y159619D01*
X91262Y159573D01*
X91229Y159508D01*
X91210Y159482D01*
X91197Y159462D01*
X91190Y159449D01*
X91184Y159442D01*
X91144Y159409D01*
X91111Y159390D01*
X91039Y159363D01*
X91006Y159357D01*
X90980Y159350D01*
X90960D01*
X90914Y159357D01*
X90875Y159363D01*
X90803Y159396D01*
X90777Y159409D01*
X90757Y159423D01*
X90750Y159429D01*
X90744Y159436D01*
X90711Y159475D01*
X90685Y159508D01*
X90672Y159547D01*
X90659Y159580D01*
X90652Y159613D01*
X90645Y159639D01*
Y159652D01*
Y159659D01*
X90724Y162001D01*
X90737Y162145D01*
X90777Y162270D01*
X90823Y162381D01*
X90875Y162479D01*
X90928Y162558D01*
X90967Y162617D01*
X91000Y162650D01*
X91013Y162663D01*
X91118Y162755D01*
X91229Y162821D01*
X91341Y162873D01*
X91446Y162906D01*
X91538Y162926D01*
X91610Y162932D01*
X91636Y162939D01*
X92869D01*
X92915Y162932D01*
D02*
G37*
G36*
X97809Y164284D02*
X97855Y164277D01*
X97921Y164244D01*
X97947Y164225D01*
X97966Y164211D01*
X97980Y164205D01*
X97986Y164198D01*
X98012Y164165D01*
X98032Y164126D01*
X98058Y164054D01*
X98065Y164021D01*
X98071Y163995D01*
Y163982D01*
Y163975D01*
X98065Y163929D01*
X98058Y163883D01*
X98026Y163818D01*
X98012Y163792D01*
X97999Y163772D01*
X97993Y163759D01*
X97986Y163752D01*
X97947Y163726D01*
X97914Y163706D01*
X97842Y163680D01*
X97809Y163673D01*
X97783Y163667D01*
X97133D01*
Y159980D01*
X97763D01*
X97809Y159974D01*
X97855Y159967D01*
X97921Y159934D01*
X97947Y159915D01*
X97966Y159895D01*
X97980Y159888D01*
X97986Y159882D01*
X98012Y159849D01*
X98032Y159810D01*
X98058Y159737D01*
X98065Y159711D01*
X98071Y159685D01*
Y159672D01*
Y159665D01*
X98065Y159619D01*
X98058Y159573D01*
X98026Y159508D01*
X98012Y159482D01*
X97999Y159462D01*
X97993Y159449D01*
X97986Y159442D01*
X97947Y159409D01*
X97914Y159390D01*
X97842Y159363D01*
X97809Y159357D01*
X97783Y159350D01*
X95867D01*
X95821Y159357D01*
X95776Y159363D01*
X95703Y159396D01*
X95677Y159416D01*
X95657Y159429D01*
X95651Y159436D01*
X95644Y159442D01*
X95612Y159482D01*
X95592Y159514D01*
X95565Y159587D01*
X95559Y159619D01*
X95552Y159646D01*
Y159659D01*
Y159665D01*
X95559Y159711D01*
X95565Y159750D01*
X95598Y159823D01*
X95618Y159849D01*
X95638Y159869D01*
X95644Y159875D01*
X95651Y159882D01*
X95684Y159915D01*
X95723Y159941D01*
X95762Y159954D01*
X95795Y159967D01*
X95821Y159974D01*
X95848Y159980D01*
X96504D01*
Y163975D01*
X96510Y164021D01*
X96517Y164060D01*
X96549Y164133D01*
X96569Y164159D01*
X96589Y164179D01*
X96596Y164185D01*
X96602Y164192D01*
X96635Y164225D01*
X96674Y164251D01*
X96714Y164264D01*
X96746Y164277D01*
X96773Y164284D01*
X96799Y164290D01*
X97763D01*
X97809Y164284D01*
D02*
G37*
G36*
X125984Y149606D02*
X124082D01*
X123983Y149613D01*
X123892Y149619D01*
X123728Y149665D01*
X123577Y149724D01*
X123445Y149790D01*
X123387Y149823D01*
X123341Y149856D01*
X123295Y149888D01*
X123262Y149915D01*
X123236Y149941D01*
X123216Y149960D01*
X123203Y149967D01*
X123196Y149974D01*
X123131Y150046D01*
X123072Y150118D01*
X123026Y150190D01*
X122986Y150269D01*
X122921Y150413D01*
X122875Y150557D01*
X122849Y150676D01*
X122842Y150728D01*
X122835Y150774D01*
X122829Y150807D01*
Y150840D01*
Y150853D01*
Y150859D01*
Y151135D01*
X122835Y151233D01*
X122849Y151332D01*
X122868Y151423D01*
X122895Y151515D01*
X122967Y151673D01*
X123039Y151811D01*
X123085Y151869D01*
X123117Y151922D01*
X123157Y151968D01*
X123190Y152007D01*
X123216Y152040D01*
X123236Y152060D01*
X123249Y152073D01*
X123255Y152079D01*
X123183Y152152D01*
X123117Y152230D01*
X123058Y152309D01*
X123006Y152388D01*
X122967Y152473D01*
X122934Y152552D01*
X122881Y152696D01*
X122862Y152768D01*
X122849Y152827D01*
X122842Y152886D01*
X122835Y152932D01*
X122829Y152972D01*
Y152998D01*
Y153017D01*
Y153024D01*
Y153287D01*
X122835Y153385D01*
X122842Y153477D01*
X122888Y153641D01*
X122947Y153792D01*
X123013Y153923D01*
X123045Y153982D01*
X123078Y154028D01*
X123111Y154074D01*
X123137Y154106D01*
X123163Y154133D01*
X123183Y154152D01*
X123190Y154165D01*
X123196Y154172D01*
X123268Y154238D01*
X123341Y154297D01*
X123413Y154343D01*
X123492Y154388D01*
X123564Y154428D01*
X123636Y154454D01*
X123774Y154500D01*
X123898Y154526D01*
X123951Y154533D01*
X123997Y154539D01*
X124029Y154546D01*
X125984D01*
Y149606D01*
D02*
G37*
G36*
X126378Y143911D02*
X126371Y143865D01*
X126365Y143819D01*
X126332Y143753D01*
X126319Y143727D01*
X126306Y143707D01*
X126299Y143694D01*
X126293Y143688D01*
X126253Y143661D01*
X126221Y143642D01*
X126148Y143615D01*
X126116Y143609D01*
X126089Y143602D01*
X126070D01*
X126024Y143609D01*
X125978Y143615D01*
X125906Y143648D01*
X125879Y143661D01*
X125860Y143675D01*
X125853Y143681D01*
X125847Y143688D01*
X125814Y143727D01*
X125788Y143760D01*
X125774Y143799D01*
X125761Y143832D01*
X125755Y143865D01*
X125748Y143891D01*
Y143904D01*
Y143911D01*
Y146299D01*
X125302D01*
X123833Y143766D01*
X123793Y143714D01*
X123747Y143675D01*
X123702Y143642D01*
X123655Y143622D01*
X123616Y143609D01*
X123583Y143602D01*
X123551D01*
X123505Y143609D01*
X123465Y143615D01*
X123393Y143648D01*
X123367Y143661D01*
X123347Y143675D01*
X123334Y143681D01*
X123328Y143688D01*
X123295Y143727D01*
X123268Y143760D01*
X123255Y143799D01*
X123242Y143832D01*
X123236Y143865D01*
X123229Y143891D01*
Y143904D01*
Y143911D01*
X123242Y143976D01*
X123262Y144042D01*
X123275Y144068D01*
X123282Y144081D01*
X123295Y144094D01*
Y144101D01*
X124567Y146299D01*
X124167D01*
X124030Y146312D01*
X123898Y146344D01*
X123787Y146384D01*
X123688Y146436D01*
X123610Y146489D01*
X123551Y146528D01*
X123518Y146561D01*
X123505Y146574D01*
X123413Y146679D01*
X123347Y146797D01*
X123295Y146902D01*
X123262Y147007D01*
X123242Y147099D01*
X123236Y147171D01*
X123229Y147197D01*
Y147217D01*
Y147230D01*
Y147237D01*
Y147597D01*
Y147670D01*
X123242Y147735D01*
X123275Y147866D01*
X123321Y147978D01*
X123367Y148076D01*
X123419Y148155D01*
X123465Y148214D01*
X123498Y148247D01*
X123505Y148260D01*
X123511D01*
X123564Y148312D01*
X123616Y148352D01*
X123728Y148424D01*
X123839Y148476D01*
X123944Y148509D01*
X124030Y148529D01*
X124102Y148536D01*
X124128Y148542D01*
X126378D01*
Y143911D01*
D02*
G37*
G36*
X103129Y148536D02*
X103175Y148529D01*
X103241Y148496D01*
X103267Y148476D01*
X103287Y148463D01*
X103300Y148457D01*
X103306Y148450D01*
X103333Y148417D01*
X103352Y148378D01*
X103379Y148306D01*
X103385Y148273D01*
X103392Y148247D01*
Y148234D01*
Y148227D01*
X103385Y148181D01*
X103379Y148135D01*
X103346Y148070D01*
X103333Y148044D01*
X103320Y148024D01*
X103313Y148011D01*
X103306Y148004D01*
X103267Y147978D01*
X103234Y147958D01*
X103162Y147932D01*
X103129Y147925D01*
X103103Y147919D01*
X102139D01*
Y144226D01*
X103096D01*
X103142Y144219D01*
X103188Y144212D01*
X103254Y144180D01*
X103280Y144160D01*
X103300Y144147D01*
X103313Y144140D01*
X103320Y144134D01*
X103346Y144101D01*
X103366Y144062D01*
X103392Y143989D01*
X103398Y143963D01*
X103405Y143937D01*
Y143924D01*
Y143917D01*
X103398Y143871D01*
X103392Y143825D01*
X103359Y143760D01*
X103346Y143734D01*
X103333Y143714D01*
X103326Y143701D01*
X103320Y143694D01*
X103280Y143661D01*
X103247Y143642D01*
X103175Y143615D01*
X103142Y143609D01*
X103116Y143602D01*
X100584D01*
X100538Y143609D01*
X100492Y143615D01*
X100420Y143648D01*
X100394Y143661D01*
X100374Y143675D01*
X100368Y143681D01*
X100361Y143688D01*
X100328Y143727D01*
X100309Y143760D01*
X100282Y143832D01*
X100276Y143865D01*
X100269Y143891D01*
Y143904D01*
Y143911D01*
Y145524D01*
X100276Y145570D01*
X100282Y145616D01*
X100315Y145688D01*
X100335Y145715D01*
X100348Y145734D01*
X100354Y145741D01*
X100361Y145747D01*
X100394Y145780D01*
X100433Y145800D01*
X100505Y145826D01*
X100538Y145833D01*
X100564Y145839D01*
X100584D01*
X100630Y145833D01*
X100676Y145826D01*
X100742Y145793D01*
X100768Y145774D01*
X100787Y145754D01*
X100801Y145747D01*
X100807Y145741D01*
X100833Y145708D01*
X100853Y145669D01*
X100879Y145597D01*
X100886Y145570D01*
X100892Y145544D01*
Y145531D01*
Y145524D01*
Y144226D01*
X101515D01*
Y148542D01*
X103083D01*
X103129Y148536D01*
D02*
G37*
G36*
X116931Y147184D02*
X116978Y147178D01*
X117043Y147145D01*
X117069Y147125D01*
X117089Y147112D01*
X117102Y147105D01*
X117109Y147099D01*
X117135Y147066D01*
X117155Y147027D01*
X117181Y146955D01*
X117187Y146922D01*
X117194Y146896D01*
Y146882D01*
Y146876D01*
Y146272D01*
X116118Y143825D01*
X116079Y143753D01*
X116026Y143694D01*
X115974Y143655D01*
X115921Y143629D01*
X115875Y143615D01*
X115836Y143609D01*
X115810Y143602D01*
X115403D01*
X115344Y143609D01*
X115285Y143635D01*
X115239Y143668D01*
X115200Y143714D01*
X115167Y143753D01*
X115147Y143786D01*
X115134Y143812D01*
X115128Y143819D01*
X114039Y146279D01*
Y146876D01*
X114045Y146922D01*
X114052Y146968D01*
X114084Y147040D01*
X114104Y147066D01*
X114117Y147086D01*
X114124Y147092D01*
X114130Y147099D01*
X114163Y147132D01*
X114203Y147151D01*
X114275Y147178D01*
X114307Y147184D01*
X114334Y147191D01*
X114354D01*
X114399Y147184D01*
X114445Y147178D01*
X114511Y147145D01*
X114537Y147125D01*
X114557Y147112D01*
X114570Y147105D01*
X114576Y147099D01*
X114609Y147066D01*
X114629Y147027D01*
X114655Y146955D01*
X114662Y146922D01*
X114668Y146896D01*
Y146882D01*
Y146876D01*
X114675Y146404D01*
X115620Y144258D01*
X116571Y146397D01*
Y146876D01*
X116577Y146922D01*
X116584Y146968D01*
X116617Y147040D01*
X116636Y147066D01*
X116649Y147086D01*
X116656Y147092D01*
X116663Y147099D01*
X116695Y147132D01*
X116735Y147151D01*
X116807Y147178D01*
X116840Y147184D01*
X116866Y147191D01*
X116886D01*
X116931Y147184D01*
D02*
G37*
G36*
X120743D02*
X120854Y147158D01*
X120953Y147125D01*
X121031Y147086D01*
X121104Y147046D01*
X121156Y147014D01*
X121189Y146987D01*
X121202Y146981D01*
X121458Y146777D01*
X121510Y146731D01*
X121556Y146679D01*
X121602Y146620D01*
X121635Y146567D01*
X121661Y146522D01*
X121681Y146482D01*
X121694Y146456D01*
X121701Y146449D01*
X121733Y146377D01*
X121753Y146312D01*
X121773Y146259D01*
X121779Y146207D01*
X121786Y146174D01*
X121792Y146141D01*
Y146128D01*
Y146121D01*
Y144691D01*
X121786Y144632D01*
X121779Y144573D01*
X121766Y144514D01*
X121747Y144462D01*
X121733Y144409D01*
X121720Y144376D01*
X121714Y144350D01*
X121707Y144344D01*
X121674Y144278D01*
X121635Y144219D01*
X121602Y144173D01*
X121570Y144134D01*
X121537Y144101D01*
X121510Y144075D01*
X121497Y144062D01*
X121491Y144055D01*
X121209Y143812D01*
X121176Y143786D01*
X121130Y143760D01*
X121045Y143714D01*
X121005Y143694D01*
X120973Y143681D01*
X120953Y143668D01*
X120946D01*
X120815Y143629D01*
X120756Y143615D01*
X120703Y143609D01*
X120658D01*
X120625Y143602D01*
X118952D01*
X118906Y143609D01*
X118867Y143615D01*
X118795Y143648D01*
X118768Y143668D01*
X118749Y143681D01*
X118742Y143688D01*
X118736Y143694D01*
X118703Y143727D01*
X118676Y143766D01*
X118663Y143806D01*
X118650Y143839D01*
X118644Y143865D01*
X118637Y143891D01*
Y143904D01*
Y143911D01*
X118644Y143957D01*
X118650Y144002D01*
X118683Y144075D01*
X118703Y144101D01*
X118722Y144121D01*
X118729Y144127D01*
X118736Y144134D01*
X118768Y144167D01*
X118808Y144186D01*
X118880Y144212D01*
X118906Y144219D01*
X118932Y144226D01*
X120566D01*
X120618Y144232D01*
X120664Y144245D01*
X120756Y144285D01*
X120795Y144304D01*
X120822Y144317D01*
X120841Y144331D01*
X120848Y144337D01*
X121025Y144494D01*
X121071Y144540D01*
X121104Y144586D01*
X121130Y144626D01*
X121143Y144672D01*
X121156Y144711D01*
X121163Y144737D01*
Y144757D01*
Y144764D01*
Y144954D01*
X118952D01*
X118906Y144960D01*
X118867Y144967D01*
X118795Y145000D01*
X118768Y145019D01*
X118749Y145032D01*
X118742Y145039D01*
X118736Y145046D01*
X118703Y145078D01*
X118676Y145118D01*
X118663Y145157D01*
X118650Y145190D01*
X118644Y145216D01*
X118637Y145242D01*
Y145255D01*
Y145262D01*
Y146016D01*
X118650Y146174D01*
X118676Y146312D01*
X118716Y146430D01*
X118762Y146522D01*
X118814Y146594D01*
X118854Y146653D01*
X118880Y146679D01*
X118893Y146692D01*
X119129Y146915D01*
X119241Y147007D01*
X119352Y147073D01*
X119457Y147125D01*
X119549Y147158D01*
X119634Y147178D01*
X119693Y147184D01*
X119720Y147191D01*
X120631D01*
X120743Y147184D01*
D02*
G37*
G36*
X93696Y148536D02*
X93781Y148516D01*
X93847Y148483D01*
X93913Y148450D01*
X93958Y148417D01*
X93998Y148385D01*
X94024Y148365D01*
X94031Y148358D01*
X94090Y148293D01*
X94136Y148221D01*
X94162Y148148D01*
X94188Y148083D01*
X94201Y148024D01*
X94208Y147978D01*
Y147952D01*
Y147939D01*
Y144199D01*
X94201Y144107D01*
X94182Y144029D01*
X94155Y143957D01*
X94122Y143891D01*
X94090Y143845D01*
X94063Y143806D01*
X94044Y143780D01*
X94037Y143773D01*
X93965Y143714D01*
X93893Y143675D01*
X93827Y143642D01*
X93755Y143622D01*
X93696Y143609D01*
X93650Y143602D01*
X91662D01*
X91571Y143609D01*
X91492Y143629D01*
X91420Y143655D01*
X91354Y143688D01*
X91308Y143720D01*
X91269Y143747D01*
X91243Y143766D01*
X91236Y143773D01*
X91177Y143845D01*
X91131Y143917D01*
X91105Y143983D01*
X91079Y144055D01*
X91066Y144114D01*
X91059Y144160D01*
Y144186D01*
Y144199D01*
Y147939D01*
X91066Y148024D01*
X91085Y148109D01*
X91118Y148181D01*
X91144Y148240D01*
X91177Y148293D01*
X91210Y148326D01*
X91229Y148352D01*
X91236Y148358D01*
X91302Y148417D01*
X91374Y148463D01*
X91446Y148496D01*
X91511Y148522D01*
X91571Y148536D01*
X91616Y148542D01*
X93611D01*
X93696Y148536D01*
D02*
G37*
G36*
X98124Y153188D02*
X98170Y153182D01*
X98235Y153149D01*
X98262Y153129D01*
X98281Y153109D01*
X98295Y153103D01*
X98301Y153096D01*
X98327Y153063D01*
X98347Y153024D01*
X98373Y152952D01*
X98380Y152919D01*
X98386Y152893D01*
Y152880D01*
Y152873D01*
Y149915D01*
X98380Y149869D01*
X98373Y149823D01*
X98340Y149757D01*
X98327Y149731D01*
X98314Y149711D01*
X98308Y149698D01*
X98301Y149692D01*
X98262Y149665D01*
X98229Y149646D01*
X98157Y149619D01*
X98124Y149613D01*
X98098Y149606D01*
X98078D01*
X98032Y149613D01*
X97993Y149619D01*
X97921Y149652D01*
X97894Y149665D01*
X97875Y149679D01*
X97868Y149685D01*
X97861Y149692D01*
X97829Y149731D01*
X97803Y149764D01*
X97789Y149803D01*
X97776Y149836D01*
X97770Y149869D01*
X97763Y149895D01*
Y149908D01*
Y149915D01*
Y151666D01*
X96877Y152434D01*
X96819Y152480D01*
X96766Y152512D01*
X96714Y152539D01*
X96674Y152552D01*
X96641Y152565D01*
X96609Y152571D01*
X96182D01*
X96136Y152565D01*
X96090Y152558D01*
X96018Y152525D01*
X95992Y152506D01*
X95972Y152493D01*
X95966Y152486D01*
X95959Y152480D01*
X95926Y152447D01*
X95907Y152407D01*
X95880Y152335D01*
X95874Y152303D01*
X95867Y152276D01*
Y152263D01*
Y152257D01*
Y152079D01*
X95861Y152033D01*
X95854Y151988D01*
X95821Y151922D01*
X95808Y151896D01*
X95795Y151876D01*
X95789Y151863D01*
X95782Y151856D01*
X95743Y151830D01*
X95710Y151811D01*
X95638Y151784D01*
X95605Y151778D01*
X95579Y151771D01*
X95559D01*
X95513Y151778D01*
X95467Y151784D01*
X95395Y151817D01*
X95369Y151837D01*
X95349Y151850D01*
X95342Y151856D01*
X95336Y151863D01*
X95303Y151902D01*
X95284Y151935D01*
X95257Y152007D01*
X95251Y152040D01*
X95244Y152066D01*
Y152079D01*
Y152086D01*
Y152257D01*
X95257Y152394D01*
X95290Y152525D01*
X95329Y152637D01*
X95382Y152735D01*
X95434Y152814D01*
X95474Y152873D01*
X95507Y152906D01*
X95520Y152919D01*
X95625Y153011D01*
X95736Y153077D01*
X95848Y153129D01*
X95953Y153162D01*
X96044Y153182D01*
X96117Y153188D01*
X96143Y153195D01*
X96641D01*
X96753Y153182D01*
X96864Y153155D01*
X96969Y153109D01*
X97061Y153063D01*
X97140Y153011D01*
X97206Y152965D01*
X97245Y152939D01*
X97251Y152926D01*
X97258D01*
X97763Y152493D01*
Y152873D01*
X97770Y152919D01*
X97776Y152965D01*
X97809Y153037D01*
X97829Y153063D01*
X97842Y153083D01*
X97848Y153090D01*
X97855Y153096D01*
X97888Y153129D01*
X97927Y153155D01*
X97966Y153168D01*
X97999Y153182D01*
X98032Y153188D01*
X98058Y153195D01*
X98078D01*
X98124Y153188D01*
D02*
G37*
G36*
X97593Y145564D02*
X97639Y145557D01*
X97704Y145524D01*
X97730Y145505D01*
X97750Y145492D01*
X97763Y145485D01*
X97770Y145478D01*
X97803Y145446D01*
X97822Y145406D01*
X97848Y145334D01*
X97855Y145301D01*
X97862Y145275D01*
Y145262D01*
Y145255D01*
Y144718D01*
X97855Y144672D01*
X97848Y144632D01*
X97816Y144560D01*
X97803Y144534D01*
X97790Y144521D01*
X97783Y144508D01*
X97776Y144501D01*
X97737Y144468D01*
X97704Y144449D01*
X97632Y144422D01*
X97599Y144416D01*
X97573Y144409D01*
X96910D01*
X96864Y144416D01*
X96819Y144422D01*
X96746Y144455D01*
X96720Y144475D01*
X96701Y144488D01*
X96694Y144494D01*
X96687Y144501D01*
X96655Y144540D01*
X96635Y144573D01*
X96609Y144645D01*
X96602Y144678D01*
X96596Y144704D01*
Y144718D01*
Y144724D01*
Y145255D01*
X96602Y145301D01*
X96609Y145347D01*
X96641Y145420D01*
X96661Y145446D01*
X96681Y145465D01*
X96687Y145472D01*
X96694Y145478D01*
X96727Y145511D01*
X96766Y145531D01*
X96838Y145557D01*
X96864Y145564D01*
X96891Y145570D01*
X97547D01*
X97593Y145564D01*
D02*
G37*
G36*
X111388D02*
X111434Y145557D01*
X111500Y145524D01*
X111526Y145505D01*
X111546Y145492D01*
X111559Y145485D01*
X111565Y145478D01*
X111598Y145446D01*
X111618Y145406D01*
X111644Y145334D01*
X111651Y145301D01*
X111657Y145275D01*
Y145262D01*
Y145255D01*
Y144718D01*
X111651Y144672D01*
X111644Y144632D01*
X111611Y144560D01*
X111598Y144534D01*
X111585Y144521D01*
X111579Y144508D01*
X111572Y144501D01*
X111533Y144468D01*
X111500Y144449D01*
X111428Y144422D01*
X111395Y144416D01*
X111369Y144409D01*
X110706D01*
X110660Y144416D01*
X110614Y144422D01*
X110542Y144455D01*
X110516Y144475D01*
X110496Y144488D01*
X110490Y144494D01*
X110483Y144501D01*
X110450Y144540D01*
X110431Y144573D01*
X110404Y144645D01*
X110398Y144678D01*
X110391Y144704D01*
Y144718D01*
Y144724D01*
Y145255D01*
X110398Y145301D01*
X110404Y145347D01*
X110437Y145420D01*
X110457Y145446D01*
X110477Y145465D01*
X110483Y145472D01*
X110490Y145478D01*
X110522Y145511D01*
X110562Y145531D01*
X110634Y145557D01*
X110660Y145564D01*
X110686Y145570D01*
X111342D01*
X111388Y145564D01*
D02*
G37*
G36*
X92896Y154264D02*
X92941Y154257D01*
X93007Y154225D01*
X93033Y154205D01*
X93053Y154192D01*
X93066Y154185D01*
X93073Y154179D01*
X93099Y154146D01*
X93119Y154106D01*
X93145Y154034D01*
X93151Y154001D01*
X93158Y153975D01*
Y153962D01*
Y153956D01*
Y153195D01*
X93486D01*
X93532Y153188D01*
X93571Y153182D01*
X93643Y153149D01*
X93670Y153129D01*
X93683Y153116D01*
X93696Y153109D01*
X93703Y153103D01*
X93729Y153070D01*
X93748Y153031D01*
X93775Y152959D01*
X93781Y152926D01*
X93788Y152899D01*
Y152886D01*
Y152880D01*
X93781Y152834D01*
X93775Y152788D01*
X93742Y152722D01*
X93729Y152696D01*
X93716Y152676D01*
X93709Y152663D01*
X93703Y152657D01*
X93663Y152630D01*
X93630Y152611D01*
X93558Y152585D01*
X93525Y152578D01*
X93499Y152571D01*
X93158D01*
Y150538D01*
X93145Y150400D01*
X93112Y150269D01*
X93073Y150157D01*
X93020Y150059D01*
X92968Y149980D01*
X92928Y149928D01*
X92896Y149888D01*
X92883Y149875D01*
X92778Y149783D01*
X92659Y149718D01*
X92554Y149672D01*
X92449Y149639D01*
X92358Y149619D01*
X92286Y149613D01*
X92259Y149606D01*
X91590D01*
X91446Y149619D01*
X91315Y149652D01*
X91197Y149692D01*
X91098Y149744D01*
X91019Y149796D01*
X90960Y149836D01*
X90928Y149869D01*
X90914Y149882D01*
X90823Y149987D01*
X90757Y150092D01*
X90711Y150184D01*
X90678Y150269D01*
X90659Y150341D01*
X90652Y150400D01*
X90645Y150433D01*
Y150446D01*
X90652Y150498D01*
X90659Y150538D01*
X90691Y150610D01*
X90711Y150636D01*
X90724Y150663D01*
X90731Y150669D01*
X90737Y150676D01*
X90770Y150708D01*
X90810Y150728D01*
X90882Y150754D01*
X90914Y150761D01*
X90934Y150767D01*
X90960D01*
X91039Y150754D01*
X91105Y150728D01*
X91164Y150682D01*
X91203Y150636D01*
X91236Y150584D01*
X91256Y150538D01*
X91269Y150512D01*
X91275Y150498D01*
X91315Y150407D01*
X91361Y150341D01*
X91413Y150295D01*
X91472Y150262D01*
X91525Y150243D01*
X91571Y150236D01*
X91597Y150230D01*
X92220D01*
X92266Y150236D01*
X92312Y150243D01*
X92377Y150275D01*
X92404Y150295D01*
X92423Y150308D01*
X92436Y150315D01*
X92443Y150321D01*
X92476Y150354D01*
X92496Y150393D01*
X92522Y150466D01*
X92528Y150492D01*
X92535Y150518D01*
Y150531D01*
Y150538D01*
Y152571D01*
X91269D01*
X91223Y152578D01*
X91184Y152585D01*
X91111Y152617D01*
X91085Y152630D01*
X91065Y152644D01*
X91059Y152650D01*
X91052Y152657D01*
X91019Y152696D01*
X90993Y152729D01*
X90980Y152768D01*
X90967Y152801D01*
X90960Y152834D01*
X90954Y152860D01*
Y152873D01*
Y152880D01*
X90960Y152926D01*
X90967Y152965D01*
X91000Y153037D01*
X91019Y153063D01*
X91039Y153083D01*
X91046Y153090D01*
X91052Y153096D01*
X91085Y153129D01*
X91124Y153155D01*
X91164Y153168D01*
X91197Y153182D01*
X91223Y153188D01*
X91249Y153195D01*
X92535D01*
Y153956D01*
X92541Y154001D01*
X92548Y154041D01*
X92581Y154113D01*
X92600Y154139D01*
X92620Y154159D01*
X92627Y154165D01*
X92633Y154172D01*
X92666Y154205D01*
X92705Y154231D01*
X92745Y154244D01*
X92778Y154257D01*
X92804Y154264D01*
X92830Y154271D01*
X92850D01*
X92896Y154264D01*
D02*
G37*
G36*
X107321Y154539D02*
X107367Y154533D01*
X107433Y154500D01*
X107459Y154480D01*
X107478Y154461D01*
X107492Y154454D01*
X107498Y154448D01*
X107524Y154415D01*
X107544Y154375D01*
X107570Y154303D01*
X107577Y154271D01*
X107583Y154244D01*
Y154231D01*
Y154225D01*
Y149915D01*
X107577Y149869D01*
X107570Y149823D01*
X107537Y149757D01*
X107524Y149731D01*
X107511Y149711D01*
X107505Y149698D01*
X107498Y149692D01*
X107459Y149665D01*
X107426Y149646D01*
X107354Y149619D01*
X107321Y149613D01*
X107295Y149606D01*
X107275D01*
X107229Y149613D01*
X107183Y149619D01*
X107111Y149652D01*
X107085Y149665D01*
X107065Y149679D01*
X107059Y149685D01*
X107052Y149692D01*
X107019Y149731D01*
X107000Y149764D01*
X106973Y149836D01*
X106967Y149869D01*
X106960Y149895D01*
Y149908D01*
Y149915D01*
Y150859D01*
X106639Y151135D01*
X104966Y149692D01*
X104927Y149665D01*
X104887Y149646D01*
X104809Y149619D01*
X104782Y149613D01*
X104756Y149606D01*
X104736D01*
X104691Y149613D01*
X104645Y149619D01*
X104572Y149659D01*
X104546Y149672D01*
X104526Y149692D01*
X104520Y149698D01*
X104513Y149705D01*
X104481Y149744D01*
X104461Y149783D01*
X104435Y149849D01*
X104428Y149882D01*
X104421Y149901D01*
Y149915D01*
Y149921D01*
X104428Y149967D01*
X104435Y150006D01*
X104467Y150072D01*
X104487Y150092D01*
X104507Y150111D01*
X104513Y150118D01*
X104520Y150125D01*
X106147Y151541D01*
X104822Y152650D01*
X104789Y152683D01*
X104763Y152722D01*
X104750Y152762D01*
X104736Y152795D01*
X104730Y152827D01*
X104723Y152854D01*
Y152867D01*
Y152873D01*
X104730Y152919D01*
X104736Y152965D01*
X104769Y153037D01*
X104789Y153063D01*
X104802Y153083D01*
X104809Y153090D01*
X104815Y153096D01*
X104848Y153129D01*
X104887Y153155D01*
X104927Y153168D01*
X104959Y153182D01*
X104992Y153188D01*
X105018Y153195D01*
X105038D01*
X105084Y153188D01*
X105130Y153182D01*
X105202Y153149D01*
X105235Y153129D01*
X105255Y153116D01*
X105268Y153109D01*
X105274Y153103D01*
X106960Y151673D01*
Y154225D01*
X106967Y154271D01*
X106973Y154316D01*
X107006Y154388D01*
X107026Y154415D01*
X107039Y154435D01*
X107045Y154441D01*
X107052Y154448D01*
X107085Y154480D01*
X107124Y154507D01*
X107164Y154520D01*
X107196Y154533D01*
X107229Y154539D01*
X107255Y154546D01*
X107275D01*
X107321Y154539D01*
D02*
G37*
G36*
X116518D02*
X116564Y154533D01*
X116630Y154500D01*
X116656Y154480D01*
X116676Y154461D01*
X116689Y154454D01*
X116695Y154448D01*
X116721Y154415D01*
X116741Y154375D01*
X116768Y154303D01*
X116774Y154271D01*
X116781Y154244D01*
Y154231D01*
Y154225D01*
Y149915D01*
X116774Y149869D01*
X116768Y149823D01*
X116735Y149757D01*
X116721Y149731D01*
X116708Y149711D01*
X116702Y149698D01*
X116695Y149692D01*
X116656Y149665D01*
X116623Y149646D01*
X116551Y149619D01*
X116518Y149613D01*
X116492Y149606D01*
X116472D01*
X116426Y149613D01*
X116380Y149619D01*
X116308Y149652D01*
X116282Y149665D01*
X116262Y149679D01*
X116256Y149685D01*
X116249Y149692D01*
X116216Y149731D01*
X116197Y149764D01*
X116171Y149836D01*
X116164Y149869D01*
X116157Y149895D01*
Y149908D01*
Y149915D01*
Y150859D01*
X115836Y151135D01*
X114163Y149692D01*
X114124Y149665D01*
X114084Y149646D01*
X114006Y149619D01*
X113979Y149613D01*
X113953Y149606D01*
X113934D01*
X113888Y149613D01*
X113842Y149619D01*
X113769Y149659D01*
X113743Y149672D01*
X113724Y149692D01*
X113717Y149698D01*
X113710Y149705D01*
X113678Y149744D01*
X113658Y149783D01*
X113632Y149849D01*
X113625Y149882D01*
X113619Y149901D01*
Y149915D01*
Y149921D01*
X113625Y149967D01*
X113632Y150006D01*
X113665Y150072D01*
X113684Y150092D01*
X113704Y150111D01*
X113710Y150118D01*
X113717Y150125D01*
X115344Y151541D01*
X114019Y152650D01*
X113986Y152683D01*
X113960Y152722D01*
X113947Y152762D01*
X113934Y152795D01*
X113927Y152827D01*
X113920Y152854D01*
Y152867D01*
Y152873D01*
X113927Y152919D01*
X113934Y152965D01*
X113966Y153037D01*
X113986Y153063D01*
X113999Y153083D01*
X114006Y153090D01*
X114012Y153096D01*
X114045Y153129D01*
X114084Y153155D01*
X114124Y153168D01*
X114157Y153182D01*
X114189Y153188D01*
X114216Y153195D01*
X114235D01*
X114281Y153188D01*
X114327Y153182D01*
X114399Y153149D01*
X114432Y153129D01*
X114452Y153116D01*
X114465Y153109D01*
X114471Y153103D01*
X116157Y151673D01*
Y154225D01*
X116164Y154271D01*
X116171Y154316D01*
X116203Y154388D01*
X116223Y154415D01*
X116236Y154435D01*
X116243Y154441D01*
X116249Y154448D01*
X116282Y154480D01*
X116321Y154507D01*
X116361Y154520D01*
X116393Y154533D01*
X116426Y154539D01*
X116453Y154546D01*
X116472D01*
X116518Y154539D01*
D02*
G37*
%LPC*%
G36*
X125748Y147912D02*
X124167D01*
X124121Y147906D01*
X124075Y147899D01*
X124003Y147866D01*
X123977Y147847D01*
X123957Y147834D01*
X123951Y147827D01*
X123944Y147820D01*
X123911Y147788D01*
X123892Y147748D01*
X123865Y147676D01*
X123859Y147643D01*
X123852Y147617D01*
Y147604D01*
Y147597D01*
Y147230D01*
X123859Y147184D01*
X123865Y147138D01*
X123898Y147073D01*
X123918Y147046D01*
X123931Y147027D01*
X123938Y147014D01*
X123944Y147007D01*
X123977Y146981D01*
X124016Y146961D01*
X124089Y146935D01*
X124121Y146928D01*
X124148Y146922D01*
X125748D01*
Y147912D01*
D02*
G37*
G36*
X93585D02*
X91676D01*
Y144226D01*
X93585D01*
Y147912D01*
D02*
G37*
G36*
X120618Y146561D02*
X119805D01*
X119759Y146554D01*
X119720Y146541D01*
X119634Y146502D01*
X119602Y146482D01*
X119575Y146463D01*
X119555Y146449D01*
X119549Y146443D01*
X119365Y146285D01*
X119326Y146246D01*
X119300Y146200D01*
X119280Y146154D01*
X119267Y146115D01*
X119260Y146075D01*
X119254Y146043D01*
Y146023D01*
Y146016D01*
Y145583D01*
X121163D01*
Y146062D01*
X121156Y146115D01*
X121143Y146167D01*
X121123Y146207D01*
X121104Y146239D01*
X121084Y146266D01*
X121064Y146285D01*
X121051Y146299D01*
X121045Y146305D01*
X120861Y146456D01*
X120815Y146489D01*
X120769Y146515D01*
X120723Y146535D01*
X120677Y146548D01*
X120644Y146554D01*
X120618Y146561D01*
D02*
G37*
G36*
X125355Y151751D02*
X124095D01*
X124003Y151745D01*
X123918Y151725D01*
X123846Y151692D01*
X123780Y151660D01*
X123728Y151620D01*
X123688Y151594D01*
X123662Y151568D01*
X123655Y151561D01*
X123590Y151489D01*
X123544Y151417D01*
X123511Y151338D01*
X123492Y151272D01*
X123472Y151207D01*
X123465Y151161D01*
Y151128D01*
Y151115D01*
Y150859D01*
X123472Y150767D01*
X123492Y150682D01*
X123524Y150610D01*
X123557Y150544D01*
X123596Y150492D01*
X123623Y150452D01*
X123649Y150426D01*
X123655Y150420D01*
X123728Y150361D01*
X123800Y150315D01*
X123872Y150282D01*
X123944Y150262D01*
X124003Y150249D01*
X124049Y150236D01*
X125355D01*
Y151751D01*
D02*
G37*
G36*
Y153923D02*
X124088D01*
X123997Y153916D01*
X123911Y153896D01*
X123839Y153864D01*
X123774Y153831D01*
X123721Y153792D01*
X123682Y153765D01*
X123655Y153739D01*
X123649Y153733D01*
X123590Y153660D01*
X123544Y153588D01*
X123511Y153509D01*
X123485Y153444D01*
X123472Y153378D01*
X123465Y153332D01*
Y153300D01*
Y153287D01*
Y153031D01*
X123472Y152939D01*
X123492Y152854D01*
X123524Y152781D01*
X123557Y152716D01*
X123596Y152663D01*
X123623Y152624D01*
X123649Y152598D01*
X123655Y152591D01*
X123728Y152532D01*
X123800Y152486D01*
X123872Y152453D01*
X123937Y152434D01*
X123997Y152420D01*
X124049Y152407D01*
X125355D01*
Y153923D01*
D02*
G37*
G36*
X101732Y152571D02*
X101050D01*
X100997Y152565D01*
X100951Y152558D01*
X100905Y152539D01*
X100866Y152525D01*
X100840Y152506D01*
X100813Y152486D01*
X100800Y152480D01*
X100794Y152473D01*
X100571Y152303D01*
X100531Y152263D01*
X100505Y152224D01*
X100479Y152178D01*
X100466Y152132D01*
X100459Y152093D01*
X100453Y152060D01*
Y152033D01*
Y152027D01*
Y150761D01*
X100459Y150702D01*
X100472Y150656D01*
X100492Y150610D01*
X100512Y150577D01*
X100531Y150544D01*
X100551Y150525D01*
X100564Y150518D01*
X100571Y150512D01*
X100761Y150341D01*
X100813Y150302D01*
X100859Y150275D01*
X100912Y150256D01*
X100951Y150243D01*
X100991Y150236D01*
X101023Y150230D01*
X101778D01*
X101876Y150243D01*
X101909Y150249D01*
X101942Y150262D01*
X101968Y150275D01*
X101988Y150282D01*
X101994Y150295D01*
X102001D01*
X102237Y150492D01*
X102276Y150531D01*
X102303Y150577D01*
X102329Y150623D01*
X102342Y150669D01*
X102349Y150708D01*
X102355Y150741D01*
Y150761D01*
Y150767D01*
Y152033D01*
X102349Y152093D01*
X102336Y152138D01*
X102322Y152184D01*
X102296Y152217D01*
X102276Y152243D01*
X102263Y152263D01*
X102250Y152276D01*
X102244Y152283D01*
X102027Y152466D01*
X101981Y152499D01*
X101929Y152525D01*
X101876Y152545D01*
X101824Y152558D01*
X101771Y152565D01*
X101732Y152571D01*
D02*
G37*
G36*
X120126D02*
X119444D01*
X119392Y152565D01*
X119345Y152558D01*
X119300Y152539D01*
X119260Y152525D01*
X119234Y152506D01*
X119208Y152486D01*
X119195Y152480D01*
X119188Y152473D01*
X118965Y152303D01*
X118926Y152263D01*
X118900Y152224D01*
X118873Y152178D01*
X118860Y152132D01*
X118853Y152093D01*
X118847Y152060D01*
Y152033D01*
Y152027D01*
Y150761D01*
X118853Y150702D01*
X118867Y150656D01*
X118886Y150610D01*
X118906Y150577D01*
X118926Y150544D01*
X118945Y150525D01*
X118958Y150518D01*
X118965Y150512D01*
X119155Y150341D01*
X119208Y150302D01*
X119254Y150275D01*
X119306Y150256D01*
X119345Y150243D01*
X119385Y150236D01*
X119418Y150230D01*
X120172D01*
X120271Y150243D01*
X120303Y150249D01*
X120336Y150262D01*
X120362Y150275D01*
X120382Y150282D01*
X120389Y150295D01*
X120395D01*
X120631Y150492D01*
X120671Y150531D01*
X120697Y150577D01*
X120723Y150623D01*
X120736Y150669D01*
X120743Y150708D01*
X120749Y150741D01*
Y150761D01*
Y150767D01*
Y152033D01*
X120743Y152093D01*
X120730Y152138D01*
X120717Y152184D01*
X120690Y152217D01*
X120671Y152243D01*
X120658Y152263D01*
X120644Y152276D01*
X120638Y152283D01*
X120421Y152466D01*
X120376Y152499D01*
X120323Y152525D01*
X120271Y152545D01*
X120218Y152558D01*
X120166Y152565D01*
X120126Y152571D01*
D02*
G37*
G36*
X92889Y160971D02*
X91636D01*
X91590Y160964D01*
X91544Y160958D01*
X91479Y160925D01*
X91452Y160905D01*
X91433Y160892D01*
X91426Y160885D01*
X91420Y160879D01*
X91387Y160846D01*
X91367Y160807D01*
X91334Y160728D01*
X91328Y160695D01*
X91321Y160676D01*
Y160656D01*
Y160649D01*
X91302Y160387D01*
X91984Y159987D01*
X92869D01*
X92915Y159993D01*
X92955Y160000D01*
X93027Y160033D01*
X93053Y160052D01*
X93066Y160065D01*
X93079Y160072D01*
X93086Y160079D01*
X93119Y160118D01*
X93138Y160151D01*
X93165Y160223D01*
X93171Y160256D01*
X93178Y160282D01*
Y160295D01*
Y160302D01*
Y160649D01*
X93171Y160695D01*
X93165Y160741D01*
X93132Y160813D01*
X93119Y160839D01*
X93106Y160859D01*
X93099Y160866D01*
X93092Y160872D01*
X93053Y160905D01*
X93020Y160931D01*
X92981Y160944D01*
X92948Y160958D01*
X92915Y160964D01*
X92889Y160971D01*
D02*
G37*
G36*
X65593Y163660D02*
X63684D01*
Y159974D01*
X65593D01*
Y163660D01*
D02*
G37*
G36*
X106422Y162309D02*
X105609D01*
X105563Y162302D01*
X105524Y162289D01*
X105438Y162250D01*
X105405Y162230D01*
X105379Y162211D01*
X105360Y162197D01*
X105353Y162191D01*
X105169Y162033D01*
X105130Y161994D01*
X105104Y161948D01*
X105084Y161902D01*
X105071Y161863D01*
X105064Y161823D01*
X105058Y161791D01*
Y161771D01*
Y161765D01*
Y161331D01*
X106967D01*
Y161810D01*
X106960Y161863D01*
X106947Y161915D01*
X106927Y161955D01*
X106908Y161987D01*
X106888Y162014D01*
X106868Y162033D01*
X106855Y162047D01*
X106849Y162053D01*
X106665Y162204D01*
X106619Y162237D01*
X106573Y162263D01*
X106527Y162283D01*
X106481Y162296D01*
X106449Y162302D01*
X106422Y162309D01*
D02*
G37*
G36*
X83429D02*
X82616D01*
X82570Y162302D01*
X82531Y162289D01*
X82446Y162250D01*
X82413Y162230D01*
X82386Y162211D01*
X82367Y162197D01*
X82360Y162191D01*
X82177Y162033D01*
X82137Y161994D01*
X82111Y161948D01*
X82091Y161902D01*
X82078Y161863D01*
X82072Y161823D01*
X82065Y161791D01*
Y161771D01*
Y161765D01*
Y161331D01*
X83974D01*
Y161810D01*
X83967Y161863D01*
X83954Y161915D01*
X83935Y161955D01*
X83915Y161987D01*
X83895Y162014D01*
X83876Y162033D01*
X83863Y162047D01*
X83856Y162053D01*
X83672Y162204D01*
X83626Y162237D01*
X83580Y162263D01*
X83534Y162283D01*
X83489Y162296D01*
X83456Y162302D01*
X83429Y162309D01*
D02*
G37*
%LPD*%
D13*
X127254Y84055D02*
Y87795D01*
X117018D02*
X127254D01*
Y69685D02*
Y73425D01*
X117018Y69685D02*
X127254D01*
X127296Y111614D02*
Y115354D01*
X117060D02*
X127296D01*
Y97244D02*
Y100984D01*
X117060Y97244D02*
X127296D01*
X127254Y139173D02*
Y142913D01*
X117018D02*
X127254D01*
Y124803D02*
Y128543D01*
X117018Y124803D02*
X127254D01*
X27559Y133661D02*
Y134055D01*
X30709Y133661D02*
Y134055D01*
X27559Y106102D02*
Y106496D01*
X30709Y106102D02*
Y106496D01*
X27559Y78543D02*
Y78937D01*
X30709Y78543D02*
Y78937D01*
X66929Y133661D02*
Y134055D01*
X70079Y133661D02*
Y134055D01*
X66929Y106102D02*
Y106496D01*
X70079Y106102D02*
Y106496D01*
X66929Y78543D02*
Y78937D01*
X70079Y78543D02*
Y78937D01*
X106299Y133661D02*
Y134055D01*
X109449Y133661D02*
Y134055D01*
X106299Y106102D02*
Y106496D01*
X109449Y106102D02*
Y106496D01*
X106299Y78543D02*
Y78937D01*
X109449Y78543D02*
Y78937D01*
X48514Y84055D02*
Y87795D01*
X38278D02*
X48514D01*
Y69685D02*
Y73425D01*
X38278Y69685D02*
X48514D01*
X87884Y84055D02*
Y87795D01*
X77648D02*
X87884D01*
Y69685D02*
Y73425D01*
X77648Y69685D02*
X87884D01*
Y111614D02*
Y115354D01*
X77648D02*
X87884D01*
Y97244D02*
Y100984D01*
X77648Y97244D02*
X87884D01*
Y139173D02*
Y142913D01*
X77648D02*
X87884D01*
Y124803D02*
Y128543D01*
X77648Y124803D02*
X87884D01*
X48514Y111614D02*
Y115354D01*
X38278D02*
X48514D01*
Y97244D02*
Y100984D01*
X38278Y97244D02*
X48514D01*
Y139173D02*
Y142913D01*
X38278D02*
X48514D01*
Y124803D02*
Y128543D01*
X38278Y124803D02*
X48514D01*
D22*
X114951Y69488D02*
G03*
X114951Y69488I-492J0D01*
G01*
X114993Y97047D02*
G03*
X114993Y97047I-492J0D01*
G01*
X114951Y124606D02*
G03*
X114951Y124606I-492J0D01*
G01*
X36211Y69488D02*
G03*
X36211Y69488I-492J0D01*
G01*
X75581D02*
G03*
X75581Y69488I-492J0D01*
G01*
Y97047D02*
G03*
X75581Y97047I-492J0D01*
G01*
Y124606D02*
G03*
X75581Y124606I-492J0D01*
G01*
X36211Y97047D02*
G03*
X36211Y97047I-492J0D01*
G01*
Y124606D02*
G03*
X36211Y124606I-492J0D01*
G01*
D23*
X128008Y92894D02*
Y96893D01*
X129008Y97893D01*
X131008D01*
X132007Y96893D01*
Y92894D01*
X131008Y91895D01*
X129008D01*
X130008Y93894D02*
X128008Y91895D01*
X129008D02*
X128008Y92894D01*
X126009Y96893D02*
X125010Y97893D01*
X123010D01*
X122011Y96893D01*
Y95893D01*
X123010Y94893D01*
X124010D01*
X123010D01*
X122011Y93894D01*
Y92894D01*
X123010Y91895D01*
X125010D01*
X126009Y92894D01*
X128051Y120412D02*
Y124411D01*
X129051Y125411D01*
X131050D01*
X132050Y124411D01*
Y120412D01*
X131050Y119413D01*
X129051D01*
X130050Y121412D02*
X128051Y119413D01*
X129051D02*
X128051Y120412D01*
X122053Y119413D02*
X126051D01*
X122053Y123411D01*
Y124411D01*
X123053Y125411D01*
X125052D01*
X126051Y124411D01*
X128008Y148030D02*
Y152029D01*
X129008Y153029D01*
X131008D01*
X132007Y152029D01*
Y148030D01*
X131008Y147031D01*
X129008D01*
X130008Y149030D02*
X128008Y147031D01*
X129008D02*
X128008Y148030D01*
X126009Y147031D02*
X124010D01*
X125010D01*
Y153029D01*
X126009Y152029D01*
X31161Y142831D02*
Y148829D01*
X28162D01*
X27163Y147829D01*
Y145830D01*
X28162Y144830D01*
X31161D01*
X29162D02*
X27163Y142831D01*
X25163Y148829D02*
X21165D01*
Y147829D01*
X25163Y143830D01*
Y142831D01*
X31161Y115313D02*
Y121311D01*
X28162D01*
X27163Y120311D01*
Y118312D01*
X28162Y117312D01*
X31161D01*
X29162D02*
X27163Y115313D01*
X25163Y120311D02*
X24164Y121311D01*
X22164D01*
X21165Y120311D01*
Y119311D01*
X22164Y118312D01*
X21165Y117312D01*
Y116312D01*
X22164Y115313D01*
X24164D01*
X25163Y116312D01*
Y117312D01*
X24164Y118312D01*
X25163Y119311D01*
Y120311D01*
X24164Y118312D02*
X22164D01*
X31135Y87695D02*
Y93693D01*
X28136D01*
X27137Y92693D01*
Y90693D01*
X28136Y89694D01*
X31135D01*
X29136D02*
X27137Y87695D01*
X25137Y88694D02*
X24138Y87695D01*
X22138D01*
X21139Y88694D01*
Y92693D01*
X22138Y93693D01*
X24138D01*
X25137Y92693D01*
Y91693D01*
X24138Y90693D01*
X21139D01*
X70508Y142868D02*
Y148866D01*
X67509D01*
X66509Y147866D01*
Y145867D01*
X67509Y144867D01*
X70508D01*
X68508D02*
X66509Y142868D01*
X61511D02*
Y148866D01*
X64510Y145867D01*
X60511D01*
X70571Y115313D02*
Y121311D01*
X67572D01*
X66572Y120311D01*
Y118312D01*
X67572Y117312D01*
X70571D01*
X68572D02*
X66572Y115313D01*
X60574Y121311D02*
X64573D01*
Y118312D01*
X62573Y119311D01*
X61574D01*
X60574Y118312D01*
Y116312D01*
X61574Y115313D01*
X63573D01*
X64573Y116312D01*
X70508Y87721D02*
Y93718D01*
X67509D01*
X66509Y92719D01*
Y90719D01*
X67509Y89720D01*
X70508D01*
X68508D02*
X66509Y87721D01*
X60511Y93718D02*
X62511Y92719D01*
X64510Y90719D01*
Y88720D01*
X63510Y87721D01*
X61511D01*
X60511Y88720D01*
Y89720D01*
X61511Y90719D01*
X64510D01*
X109889Y142868D02*
Y148866D01*
X106890D01*
X105890Y147866D01*
Y145867D01*
X106890Y144867D01*
X109889D01*
X107890D02*
X105890Y142868D01*
X103891D02*
X101892D01*
X102891D01*
Y148866D01*
X103891Y147866D01*
X109937Y115313D02*
Y121311D01*
X106938D01*
X105938Y120311D01*
Y118312D01*
X106938Y117312D01*
X109937D01*
X107938D02*
X105938Y115313D01*
X99940D02*
X103939D01*
X99940Y119311D01*
Y120311D01*
X100940Y121311D01*
X102939D01*
X103939Y120311D01*
X109887Y87695D02*
Y93693D01*
X106888D01*
X105889Y92693D01*
Y90693D01*
X106888Y89694D01*
X109887D01*
X107888D02*
X105889Y87695D01*
X103889Y92693D02*
X102890Y93693D01*
X100890D01*
X99891Y92693D01*
Y91693D01*
X100890Y90693D01*
X101890D01*
X100890D01*
X99891Y89694D01*
Y88694D01*
X100890Y87695D01*
X102890D01*
X103889Y88694D01*
X49194Y92894D02*
Y96893D01*
X50193Y97893D01*
X52193D01*
X53193Y96893D01*
Y92894D01*
X52193Y91895D01*
X50193D01*
X51193Y93894D02*
X49194Y91895D01*
X50193D02*
X49194Y92894D01*
X47194D02*
X46195Y91895D01*
X44195D01*
X43196Y92894D01*
Y96893D01*
X44195Y97893D01*
X46195D01*
X47194Y96893D01*
Y95893D01*
X46195Y94894D01*
X43196D01*
X88605Y92894D02*
Y96893D01*
X89605Y97893D01*
X91604D01*
X92603Y96893D01*
Y92894D01*
X91604Y91895D01*
X89605D01*
X90604Y93894D02*
X88605Y91895D01*
X89605D02*
X88605Y92894D01*
X82607Y97893D02*
X84606Y96893D01*
X86605Y94894D01*
Y92894D01*
X85606Y91895D01*
X83606D01*
X82607Y92894D01*
Y93894D01*
X83606Y94894D01*
X86605D01*
X88605Y120486D02*
Y124485D01*
X89605Y125485D01*
X91604D01*
X92604Y124485D01*
Y120486D01*
X91604Y119487D01*
X89605D01*
X90604Y121486D02*
X88605Y119487D01*
X89605D02*
X88605Y120486D01*
X82607Y125485D02*
X86606D01*
Y122486D01*
X84606Y123486D01*
X83606D01*
X82607Y122486D01*
Y120486D01*
X83606Y119487D01*
X85606D01*
X86606Y120486D01*
X88605Y148042D02*
Y152040D01*
X89605Y153040D01*
X91604D01*
X92604Y152040D01*
Y148042D01*
X91604Y147042D01*
X89605D01*
X90604Y149041D02*
X88605Y147042D01*
X89605D02*
X88605Y148042D01*
X83607Y147042D02*
Y153040D01*
X86606Y150041D01*
X82607D01*
X49194Y120486D02*
Y124485D01*
X50194Y125485D01*
X52193D01*
X53193Y124485D01*
Y120486D01*
X52193Y119487D01*
X50194D01*
X51193Y121486D02*
X49194Y119487D01*
X50194D02*
X49194Y120486D01*
X47194Y124485D02*
X46195Y125485D01*
X44196D01*
X43196Y124485D01*
Y123486D01*
X44196Y122486D01*
X43196Y121486D01*
Y120486D01*
X44196Y119487D01*
X46195D01*
X47194Y120486D01*
Y121486D01*
X46195Y122486D01*
X47194Y123486D01*
Y124485D01*
X46195Y122486D02*
X44196D01*
X49194Y148042D02*
Y152040D01*
X50194Y153040D01*
X52193D01*
X53193Y152040D01*
Y148042D01*
X52193Y147042D01*
X50194D01*
X51193Y149041D02*
X49194Y147042D01*
X50194D02*
X49194Y148042D01*
X47195Y153040D02*
X43196D01*
Y152040D01*
X47195Y148042D01*
Y147042D01*
M02*
