G04 Layer_Physical_Order=2*
G04 Layer_Color=16711680*
%FSLAX25Y25*%
%MOIN*%
G70*
G01*
G75*
%ADD11O,0.07874X0.04213*%
%ADD12R,0.07874X0.04213*%
%ADD13R,0.05512X0.05512*%
%ADD14C,0.05512*%
G36*
X58071Y2098D02*
X56957Y984D01*
X984D01*
Y7233D01*
X2559Y8020D01*
X3903Y7463D01*
X5864Y6993D01*
X7874Y6834D01*
X9884Y6993D01*
X11845Y7463D01*
X13708Y8235D01*
X15427Y9289D01*
X16961Y10598D01*
X18270Y12132D01*
X19324Y13851D01*
X20096Y15714D01*
X20566Y17675D01*
X20725Y19685D01*
X20566Y21695D01*
X20096Y23656D01*
X19324Y25519D01*
X18270Y27239D01*
X16961Y28772D01*
X15427Y30081D01*
X13708Y31135D01*
X11845Y31907D01*
X9884Y32377D01*
X7874Y32536D01*
X5864Y32377D01*
X3903Y31907D01*
X2559Y31350D01*
X984Y32137D01*
Y37272D01*
X2098Y38386D01*
X58071D01*
X58071Y2098D01*
D02*
G37*
%LPC*%
G36*
X35219Y7374D02*
X31996D01*
Y4152D01*
X32476Y4215D01*
X33390Y4593D01*
X34175Y5195D01*
X34777Y5980D01*
X35155Y6893D01*
X35219Y7374D01*
D02*
G37*
G36*
X30996D02*
X27774D01*
X27837Y6893D01*
X28215Y5980D01*
X28817Y5195D01*
X29602Y4593D01*
X30516Y4215D01*
X30996Y4152D01*
Y7374D01*
D02*
G37*
G36*
X49075Y30318D02*
X45413D01*
X44603Y30211D01*
X43847Y29898D01*
X43198Y29401D01*
X42700Y28752D01*
X42387Y27996D01*
X42280Y27185D01*
X42322Y26866D01*
X42307Y25291D01*
X42307Y25291D01*
X42307Y25291D01*
Y22685D01*
X52181D01*
Y25291D01*
X52181Y25291D01*
X52166Y26866D01*
X52208Y27185D01*
X52101Y27996D01*
X51788Y28752D01*
X51290Y29401D01*
X50641Y29898D01*
X49886Y30211D01*
X49075Y30318D01*
D02*
G37*
G36*
X52181Y21685D02*
X42307D01*
Y19079D01*
X42307Y19079D01*
X42322Y17504D01*
X42280Y17185D01*
X42387Y16374D01*
X42700Y15619D01*
X43082Y14685D01*
X42700Y13752D01*
X42387Y12996D01*
X42280Y12185D01*
X42387Y11374D01*
X42700Y10618D01*
X43198Y9970D01*
X43847Y9472D01*
X44603Y9159D01*
X45413Y9052D01*
X49075D01*
X49886Y9159D01*
X50641Y9472D01*
X51290Y9970D01*
X51788Y10618D01*
X52101Y11374D01*
X52208Y12185D01*
X52101Y12996D01*
X51788Y13752D01*
X51407Y14685D01*
X51788Y15619D01*
X52101Y16374D01*
X52208Y17185D01*
X52166Y17504D01*
X52181Y19079D01*
X52181Y19079D01*
X52181Y19079D01*
Y21685D01*
D02*
G37*
G36*
X35252Y35252D02*
X27740D01*
Y27740D01*
X28106D01*
X28598Y26744D01*
X28713Y26165D01*
X28215Y25516D01*
X27837Y24602D01*
X27708Y23622D01*
X27837Y22642D01*
X28215Y21728D01*
X28817Y20943D01*
X29270Y20596D01*
X29415Y19913D01*
Y19457D01*
X29270Y18774D01*
X28817Y18427D01*
X28215Y17642D01*
X27837Y16728D01*
X27708Y15748D01*
X27837Y14767D01*
X28215Y13854D01*
X28817Y13069D01*
X29270Y12722D01*
X29415Y12039D01*
Y11583D01*
X29270Y10900D01*
X28817Y10553D01*
X28215Y9768D01*
X27837Y8855D01*
X27774Y8374D01*
X35219D01*
X35155Y8855D01*
X34777Y9768D01*
X34175Y10553D01*
X33722Y10900D01*
X33577Y11583D01*
Y12039D01*
X33722Y12722D01*
X34175Y13069D01*
X34777Y13854D01*
X35155Y14767D01*
X35284Y15748D01*
X35155Y16728D01*
X34777Y17642D01*
X34175Y18427D01*
X33722Y18774D01*
X33577Y19457D01*
Y19913D01*
X33722Y20596D01*
X34175Y20943D01*
X34777Y21728D01*
X35155Y22642D01*
X35284Y23622D01*
X35155Y24602D01*
X34777Y25516D01*
X34279Y26165D01*
X34394Y26744D01*
X34886Y27740D01*
X35252D01*
Y35252D01*
D02*
G37*
%LPD*%
D11*
X47244Y27185D02*
D03*
Y17185D02*
D03*
Y12185D02*
D03*
D12*
Y22185D02*
D03*
D13*
X31496Y31496D02*
D03*
D14*
Y23622D02*
D03*
Y15748D02*
D03*
Y7874D02*
D03*
M02*
