G04 Layer_Physical_Order=2*
G04 Layer_Color=16711680*
%FSLAX25Y25*%
%MOIN*%
G70*
G01*
G75*
%ADD11O,0.07874X0.04213*%
%ADD12R,0.07874X0.04213*%
%ADD13R,0.05512X0.05512*%
%ADD14C,0.05512*%
G36*
X58071Y2098D02*
X56957Y984D01*
X984D01*
Y7233D01*
X2559Y8020D01*
X3903Y7463D01*
X5864Y6993D01*
X7874Y6835D01*
X9884Y6993D01*
X11845Y7463D01*
X13708Y8235D01*
X15428Y9289D01*
X16961Y10598D01*
X18270Y12132D01*
X19324Y13851D01*
X20096Y15714D01*
X20567Y17675D01*
X20725Y19685D01*
X20567Y21695D01*
X20096Y23656D01*
X19324Y25519D01*
X18270Y27239D01*
X16961Y28772D01*
X15428Y30081D01*
X13708Y31135D01*
X11845Y31907D01*
X9884Y32377D01*
X7874Y32536D01*
X5864Y32377D01*
X3903Y31907D01*
X2559Y31350D01*
X984Y32137D01*
Y37272D01*
X2098Y38386D01*
X58071D01*
X58071Y2098D01*
D02*
G37*
%LPC*%
G36*
X35219Y7374D02*
X31996D01*
Y4152D01*
X32477Y4215D01*
X33390Y4593D01*
X34175Y5195D01*
X34777Y5980D01*
X35155Y6894D01*
X35219Y7374D01*
D02*
G37*
G36*
X30996D02*
X27774D01*
X27837Y6894D01*
X28215Y5980D01*
X28817Y5195D01*
X29602Y4593D01*
X30516Y4215D01*
X30996Y4152D01*
Y7374D01*
D02*
G37*
G36*
X49075Y30318D02*
X45413D01*
X44603Y30211D01*
X43847Y29898D01*
X43198Y29401D01*
X42700Y28752D01*
X42387Y27996D01*
X42280Y27185D01*
X42322Y26866D01*
X42307Y25291D01*
X42307Y25291D01*
X42307Y25291D01*
Y22685D01*
X52181D01*
Y25291D01*
X52181Y25291D01*
X52166Y26866D01*
X52208Y27185D01*
X52101Y27996D01*
X51788Y28752D01*
X51290Y29401D01*
X50641Y29898D01*
X49886Y30211D01*
X49075Y30318D01*
D02*
G37*
G36*
X52181Y21685D02*
X42307D01*
Y19079D01*
X42307Y19079D01*
X42322Y17504D01*
X42280Y17185D01*
X42387Y16374D01*
X42700Y15619D01*
X43082Y14685D01*
X42700Y13752D01*
X42387Y12996D01*
X42280Y12185D01*
X42387Y11374D01*
X42700Y10618D01*
X43198Y9970D01*
X43847Y9472D01*
X44603Y9159D01*
X45413Y9052D01*
X49075D01*
X49886Y9159D01*
X50641Y9472D01*
X51290Y9970D01*
X51788Y10618D01*
X52101Y11374D01*
X52208Y12185D01*
X52101Y12996D01*
X51788Y13752D01*
X51407Y14685D01*
X51788Y15619D01*
X52101Y16374D01*
X52208Y17185D01*
X52166Y17504D01*
X52181Y19079D01*
X52181Y19079D01*
X52181Y19079D01*
Y21685D01*
D02*
G37*
G36*
X35252Y35252D02*
X27740D01*
Y27740D01*
X28106D01*
X28598Y26744D01*
X28714Y26165D01*
X28215Y25516D01*
X27837Y24603D01*
X27708Y23622D01*
X27837Y22642D01*
X28215Y21728D01*
X28817Y20943D01*
X29270Y20596D01*
X29415Y19913D01*
Y19457D01*
X29270Y18774D01*
X28817Y18427D01*
X28215Y17642D01*
X27837Y16729D01*
X27708Y15748D01*
X27837Y14768D01*
X28215Y13854D01*
X28817Y13069D01*
X29270Y12722D01*
X29415Y12039D01*
Y11583D01*
X29270Y10900D01*
X28817Y10553D01*
X28215Y9768D01*
X27837Y8855D01*
X27774Y8374D01*
X35219D01*
X35155Y8855D01*
X34777Y9768D01*
X34175Y10553D01*
X33722Y10900D01*
X33577Y11583D01*
Y12039D01*
X33722Y12722D01*
X34175Y13069D01*
X34777Y13854D01*
X35155Y14768D01*
X35284Y15748D01*
X35155Y16729D01*
X34777Y17642D01*
X34175Y18427D01*
X33722Y18774D01*
X33577Y19457D01*
Y19913D01*
X33722Y20596D01*
X34175Y20943D01*
X34777Y21728D01*
X35155Y22642D01*
X35284Y23622D01*
X35155Y24603D01*
X34777Y25516D01*
X34279Y26165D01*
X34394Y26744D01*
X34886Y27740D01*
X35252D01*
Y35252D01*
D02*
G37*
%LPD*%
G36*
X124606Y2098D02*
X123493Y984D01*
X67520D01*
Y7233D01*
X69095Y8020D01*
X70438Y7463D01*
X72399Y6993D01*
X74410Y6835D01*
X76420Y6993D01*
X78381Y7463D01*
X80244Y8235D01*
X81963Y9289D01*
X83496Y10598D01*
X84806Y12132D01*
X85860Y13851D01*
X86631Y15714D01*
X87102Y17675D01*
X87260Y19685D01*
X87102Y21695D01*
X86631Y23656D01*
X85860Y25519D01*
X84806Y27239D01*
X83496Y28772D01*
X81963Y30081D01*
X80244Y31135D01*
X78381Y31907D01*
X76420Y32377D01*
X74410Y32536D01*
X72399Y32377D01*
X70438Y31907D01*
X69095Y31350D01*
X67520Y32137D01*
Y37272D01*
X68633Y38386D01*
X124606D01*
X124606Y2098D01*
D02*
G37*
%LPC*%
G36*
X101754Y7374D02*
X98532D01*
Y4152D01*
X99012Y4215D01*
X99926Y4593D01*
X100710Y5195D01*
X101312Y5980D01*
X101691Y6894D01*
X101754Y7374D01*
D02*
G37*
G36*
X97531D02*
X94309D01*
X94372Y6894D01*
X94751Y5980D01*
X95353Y5195D01*
X96137Y4593D01*
X97051Y4215D01*
X97531Y4152D01*
Y7374D01*
D02*
G37*
G36*
X115610Y30318D02*
X111949D01*
X111138Y30211D01*
X110382Y29898D01*
X109733Y29401D01*
X109236Y28752D01*
X108923Y27996D01*
X108816Y27185D01*
X108858Y26866D01*
X108843Y25291D01*
X108843Y25291D01*
X108843Y25291D01*
Y22685D01*
X118717D01*
Y25291D01*
X118717Y25291D01*
X118701Y26866D01*
X118743Y27185D01*
X118637Y27996D01*
X118324Y28752D01*
X117826Y29401D01*
X117177Y29898D01*
X116421Y30211D01*
X115610Y30318D01*
D02*
G37*
G36*
X118717Y21685D02*
X108843D01*
Y19079D01*
X108843Y19079D01*
X108858Y17504D01*
X108816Y17185D01*
X108923Y16374D01*
X109236Y15619D01*
X109617Y14685D01*
X109236Y13752D01*
X108923Y12996D01*
X108816Y12185D01*
X108923Y11374D01*
X109236Y10618D01*
X109733Y9970D01*
X110382Y9472D01*
X111138Y9159D01*
X111949Y9052D01*
X115610D01*
X116421Y9159D01*
X117177Y9472D01*
X117826Y9970D01*
X118324Y10618D01*
X118637Y11374D01*
X118743Y12185D01*
X118637Y12996D01*
X118324Y13752D01*
X117942Y14685D01*
X118324Y15619D01*
X118637Y16374D01*
X118743Y17185D01*
X118701Y17504D01*
X118717Y19079D01*
X118717Y19079D01*
X118717Y19079D01*
Y21685D01*
D02*
G37*
G36*
X101787Y35252D02*
X94276D01*
Y27740D01*
X94642D01*
X95134Y26744D01*
X95249Y26165D01*
X94751Y25516D01*
X94372Y24603D01*
X94243Y23622D01*
X94372Y22642D01*
X94751Y21728D01*
X95353Y20943D01*
X95806Y20596D01*
X95950Y19913D01*
Y19457D01*
X95806Y18774D01*
X95353Y18427D01*
X94751Y17642D01*
X94372Y16729D01*
X94243Y15748D01*
X94372Y14768D01*
X94751Y13854D01*
X95353Y13069D01*
X95806Y12722D01*
X95950Y12039D01*
Y11583D01*
X95806Y10900D01*
X95353Y10553D01*
X94751Y9768D01*
X94372Y8855D01*
X94309Y8374D01*
X101754D01*
X101691Y8855D01*
X101312Y9768D01*
X100710Y10553D01*
X100258Y10900D01*
X100113Y11583D01*
Y12039D01*
X100258Y12722D01*
X100710Y13069D01*
X101312Y13854D01*
X101691Y14768D01*
X101820Y15748D01*
X101691Y16729D01*
X101312Y17642D01*
X100710Y18427D01*
X100258Y18774D01*
X100113Y19457D01*
Y19913D01*
X100258Y20596D01*
X100710Y20943D01*
X101312Y21728D01*
X101691Y22642D01*
X101820Y23622D01*
X101691Y24603D01*
X101312Y25516D01*
X100814Y26165D01*
X100929Y26744D01*
X101421Y27740D01*
X101787D01*
Y35252D01*
D02*
G37*
%LPD*%
G36*
X191142Y2098D02*
X190028Y984D01*
X134055D01*
Y7233D01*
X135630Y8020D01*
X136974Y7463D01*
X138935Y6993D01*
X140945Y6835D01*
X142955Y6993D01*
X144916Y7463D01*
X146779Y8235D01*
X148498Y9289D01*
X150032Y10598D01*
X151341Y12132D01*
X152395Y13851D01*
X153167Y15714D01*
X153637Y17675D01*
X153796Y19685D01*
X153637Y21695D01*
X153167Y23656D01*
X152395Y25519D01*
X151341Y27239D01*
X150032Y28772D01*
X148498Y30081D01*
X146779Y31135D01*
X144916Y31907D01*
X142955Y32377D01*
X140945Y32536D01*
X138935Y32377D01*
X136974Y31907D01*
X135630Y31350D01*
X134055Y32137D01*
Y37272D01*
X135169Y38386D01*
X191142D01*
X191142Y2098D01*
D02*
G37*
%LPC*%
G36*
X168289Y7374D02*
X165067D01*
Y4152D01*
X165548Y4215D01*
X166461Y4593D01*
X167246Y5195D01*
X167848Y5980D01*
X168226Y6894D01*
X168289Y7374D01*
D02*
G37*
G36*
X164067D02*
X160845D01*
X160908Y6894D01*
X161286Y5980D01*
X161888Y5195D01*
X162673Y4593D01*
X163586Y4215D01*
X164067Y4152D01*
Y7374D01*
D02*
G37*
G36*
X182146Y30318D02*
X178484D01*
X177673Y30211D01*
X176918Y29898D01*
X176269Y29401D01*
X175771Y28752D01*
X175458Y27996D01*
X175351Y27185D01*
X175393Y26866D01*
X175378Y25291D01*
X175378Y25291D01*
X175378Y25291D01*
Y22685D01*
X185252D01*
Y25291D01*
X185252Y25291D01*
X185237Y26866D01*
X185279Y27185D01*
X185172Y27996D01*
X184859Y28752D01*
X184361Y29401D01*
X183712Y29898D01*
X182957Y30211D01*
X182146Y30318D01*
D02*
G37*
G36*
X185252Y21685D02*
X175378D01*
Y19079D01*
X175378Y19079D01*
X175393Y17504D01*
X175351Y17185D01*
X175458Y16374D01*
X175771Y15619D01*
X176153Y14685D01*
X175771Y13752D01*
X175458Y12996D01*
X175351Y12185D01*
X175458Y11374D01*
X175771Y10618D01*
X176269Y9970D01*
X176918Y9472D01*
X177673Y9159D01*
X178484Y9052D01*
X182146D01*
X182957Y9159D01*
X183712Y9472D01*
X184361Y9970D01*
X184859Y10618D01*
X185172Y11374D01*
X185279Y12185D01*
X185172Y12996D01*
X184859Y13752D01*
X184477Y14685D01*
X184859Y15619D01*
X185172Y16374D01*
X185279Y17185D01*
X185237Y17504D01*
X185252Y19079D01*
X185252Y19079D01*
X185252Y19079D01*
Y21685D01*
D02*
G37*
G36*
X168323Y35252D02*
X160811D01*
Y27740D01*
X161177D01*
X161669Y26744D01*
X161784Y26165D01*
X161286Y25516D01*
X160908Y24603D01*
X160779Y23622D01*
X160908Y22642D01*
X161286Y21728D01*
X161888Y20943D01*
X162341Y20596D01*
X162486Y19913D01*
Y19457D01*
X162341Y18774D01*
X161888Y18427D01*
X161286Y17642D01*
X160908Y16729D01*
X160779Y15748D01*
X160908Y14768D01*
X161286Y13854D01*
X161888Y13069D01*
X162341Y12722D01*
X162486Y12039D01*
Y11583D01*
X162341Y10900D01*
X161888Y10553D01*
X161286Y9768D01*
X160908Y8855D01*
X160845Y8374D01*
X168289D01*
X168226Y8855D01*
X167848Y9768D01*
X167246Y10553D01*
X166793Y10900D01*
X166648Y11583D01*
Y12039D01*
X166793Y12722D01*
X167246Y13069D01*
X167848Y13854D01*
X168226Y14768D01*
X168355Y15748D01*
X168226Y16729D01*
X167848Y17642D01*
X167246Y18427D01*
X166793Y18774D01*
X166648Y19457D01*
Y19913D01*
X166793Y20596D01*
X167246Y20943D01*
X167848Y21728D01*
X168226Y22642D01*
X168355Y23622D01*
X168226Y24603D01*
X167848Y25516D01*
X167350Y26165D01*
X167464Y26744D01*
X167957Y27740D01*
X168323D01*
Y35252D01*
D02*
G37*
%LPD*%
G36*
X257677Y2098D02*
X256564Y984D01*
X200591D01*
Y7233D01*
X202165Y8020D01*
X203509Y7463D01*
X205470Y6993D01*
X207480Y6835D01*
X209491Y6993D01*
X211451Y7463D01*
X213314Y8235D01*
X215034Y9289D01*
X216567Y10598D01*
X217877Y12132D01*
X218930Y13851D01*
X219702Y15714D01*
X220173Y17675D01*
X220331Y19685D01*
X220173Y21695D01*
X219702Y23656D01*
X218930Y25519D01*
X217877Y27239D01*
X216567Y28772D01*
X215034Y30081D01*
X213314Y31135D01*
X211451Y31907D01*
X209491Y32377D01*
X207480Y32536D01*
X205470Y32377D01*
X203509Y31907D01*
X202165Y31350D01*
X200591Y32137D01*
Y37272D01*
X201704Y38386D01*
X257677D01*
X257677Y2098D01*
D02*
G37*
%LPC*%
G36*
X234825Y7374D02*
X231602D01*
Y4152D01*
X232083Y4215D01*
X232997Y4593D01*
X233781Y5195D01*
X234383Y5980D01*
X234762Y6894D01*
X234825Y7374D01*
D02*
G37*
G36*
X230602D02*
X227380D01*
X227443Y6894D01*
X227822Y5980D01*
X228424Y5195D01*
X229208Y4593D01*
X230122Y4215D01*
X230602Y4152D01*
Y7374D01*
D02*
G37*
G36*
X248681Y30318D02*
X245020D01*
X244209Y30211D01*
X243453Y29898D01*
X242804Y29401D01*
X242306Y28752D01*
X241993Y27996D01*
X241887Y27185D01*
X241929Y26866D01*
X241913Y25291D01*
X241913Y25291D01*
X241913Y25291D01*
Y22685D01*
X251787D01*
Y25291D01*
X251787Y25291D01*
X251772Y26866D01*
X251814Y27185D01*
X251708Y27996D01*
X251395Y28752D01*
X250897Y29401D01*
X250248Y29898D01*
X249492Y30211D01*
X248681Y30318D01*
D02*
G37*
G36*
X251787Y21685D02*
X241913D01*
Y19079D01*
X241913Y19079D01*
X241929Y17504D01*
X241887Y17185D01*
X241993Y16374D01*
X242306Y15619D01*
X242688Y14685D01*
X242306Y13752D01*
X241993Y12996D01*
X241887Y12185D01*
X241993Y11374D01*
X242306Y10618D01*
X242804Y9970D01*
X243453Y9472D01*
X244209Y9159D01*
X245020Y9052D01*
X248681D01*
X249492Y9159D01*
X250248Y9472D01*
X250897Y9970D01*
X251395Y10618D01*
X251708Y11374D01*
X251814Y12185D01*
X251708Y12996D01*
X251395Y13752D01*
X251013Y14685D01*
X251395Y15619D01*
X251708Y16374D01*
X251814Y17185D01*
X251772Y17504D01*
X251787Y19079D01*
X251787Y19079D01*
X251787Y19079D01*
Y21685D01*
D02*
G37*
G36*
X234858Y35252D02*
X227346D01*
Y27740D01*
X227713D01*
X228205Y26744D01*
X228320Y26165D01*
X227822Y25516D01*
X227443Y24603D01*
X227314Y23622D01*
X227443Y22642D01*
X227822Y21728D01*
X228424Y20943D01*
X228876Y20596D01*
X229021Y19913D01*
Y19457D01*
X228876Y18774D01*
X228424Y18427D01*
X227822Y17642D01*
X227443Y16729D01*
X227314Y15748D01*
X227443Y14768D01*
X227822Y13854D01*
X228424Y13069D01*
X228876Y12722D01*
X229021Y12039D01*
Y11583D01*
X228876Y10900D01*
X228424Y10553D01*
X227822Y9768D01*
X227443Y8855D01*
X227380Y8374D01*
X234825D01*
X234762Y8855D01*
X234383Y9768D01*
X233781Y10553D01*
X233328Y10900D01*
X233184Y11583D01*
Y12039D01*
X233328Y12722D01*
X233781Y13069D01*
X234383Y13854D01*
X234762Y14768D01*
X234891Y15748D01*
X234762Y16729D01*
X234383Y17642D01*
X233781Y18427D01*
X233328Y18774D01*
X233184Y19457D01*
Y19913D01*
X233328Y20596D01*
X233781Y20943D01*
X234383Y21728D01*
X234762Y22642D01*
X234891Y23622D01*
X234762Y24603D01*
X234383Y25516D01*
X233885Y26165D01*
X234000Y26744D01*
X234492Y27740D01*
X234858D01*
Y35252D01*
D02*
G37*
%LPD*%
G36*
X324213Y2098D02*
X323099Y984D01*
X267126D01*
Y7233D01*
X268701Y8020D01*
X270045Y7463D01*
X272006Y6993D01*
X274016Y6835D01*
X276026Y6993D01*
X277987Y7463D01*
X279850Y8235D01*
X281569Y9289D01*
X283103Y10598D01*
X284412Y12132D01*
X285466Y13851D01*
X286238Y15714D01*
X286708Y17675D01*
X286866Y19685D01*
X286708Y21695D01*
X286238Y23656D01*
X285466Y25519D01*
X284412Y27239D01*
X283103Y28772D01*
X281569Y30081D01*
X279850Y31135D01*
X277987Y31907D01*
X276026Y32377D01*
X274016Y32536D01*
X272006Y32377D01*
X270045Y31907D01*
X268701Y31350D01*
X267126Y32137D01*
Y37272D01*
X268240Y38386D01*
X324213D01*
X324213Y2098D01*
D02*
G37*
%LPC*%
G36*
X301360Y7374D02*
X298138D01*
Y4152D01*
X298618Y4215D01*
X299532Y4593D01*
X300317Y5195D01*
X300919Y5980D01*
X301297Y6894D01*
X301360Y7374D01*
D02*
G37*
G36*
X297138D02*
X293915D01*
X293979Y6894D01*
X294357Y5980D01*
X294959Y5195D01*
X295744Y4593D01*
X296657Y4215D01*
X297138Y4152D01*
Y7374D01*
D02*
G37*
G36*
X315217Y30318D02*
X311555D01*
X310744Y30211D01*
X309989Y29898D01*
X309340Y29401D01*
X308842Y28752D01*
X308529Y27996D01*
X308422Y27185D01*
X308464Y26866D01*
X308449Y25291D01*
X308449Y25291D01*
X308449Y25291D01*
Y22685D01*
X318323D01*
Y25291D01*
X318323Y25291D01*
X318308Y26866D01*
X318350Y27185D01*
X318243Y27996D01*
X317930Y28752D01*
X317432Y29401D01*
X316783Y29898D01*
X316027Y30211D01*
X315217Y30318D01*
D02*
G37*
G36*
X318323Y21685D02*
X308449D01*
Y19079D01*
X308449Y19079D01*
X308464Y17504D01*
X308422Y17185D01*
X308529Y16374D01*
X308842Y15619D01*
X309223Y14685D01*
X308842Y13752D01*
X308529Y12996D01*
X308422Y12185D01*
X308529Y11374D01*
X308842Y10618D01*
X309340Y9970D01*
X309989Y9472D01*
X310744Y9159D01*
X311555Y9052D01*
X315217D01*
X316027Y9159D01*
X316783Y9472D01*
X317432Y9970D01*
X317930Y10618D01*
X318243Y11374D01*
X318350Y12185D01*
X318243Y12996D01*
X317930Y13752D01*
X317548Y14685D01*
X317930Y15619D01*
X318243Y16374D01*
X318350Y17185D01*
X318308Y17504D01*
X318323Y19079D01*
X318323Y19079D01*
X318323Y19079D01*
Y21685D01*
D02*
G37*
G36*
X301394Y35252D02*
X293882D01*
Y27740D01*
X294248D01*
X294740Y26744D01*
X294855Y26165D01*
X294357Y25516D01*
X293979Y24603D01*
X293849Y23622D01*
X293979Y22642D01*
X294357Y21728D01*
X294959Y20943D01*
X295412Y20596D01*
X295556Y19913D01*
Y19457D01*
X295412Y18774D01*
X294959Y18427D01*
X294357Y17642D01*
X293979Y16729D01*
X293849Y15748D01*
X293979Y14768D01*
X294357Y13854D01*
X294959Y13069D01*
X295412Y12722D01*
X295556Y12039D01*
Y11583D01*
X295412Y10900D01*
X294959Y10553D01*
X294357Y9768D01*
X293979Y8855D01*
X293915Y8374D01*
X301360D01*
X301297Y8855D01*
X300919Y9768D01*
X300317Y10553D01*
X299864Y10900D01*
X299719Y11583D01*
Y12039D01*
X299864Y12722D01*
X300317Y13069D01*
X300919Y13854D01*
X301297Y14768D01*
X301426Y15748D01*
X301297Y16729D01*
X300919Y17642D01*
X300317Y18427D01*
X299864Y18774D01*
X299719Y19457D01*
Y19913D01*
X299864Y20596D01*
X300317Y20943D01*
X300919Y21728D01*
X301297Y22642D01*
X301426Y23622D01*
X301297Y24603D01*
X300919Y25516D01*
X300420Y26165D01*
X300535Y26744D01*
X301028Y27740D01*
X301394D01*
Y35252D01*
D02*
G37*
%LPD*%
G36*
X390748Y2098D02*
X389634Y984D01*
X333661D01*
Y7233D01*
X335236Y8020D01*
X336580Y7463D01*
X338541Y6993D01*
X340551Y6835D01*
X342562Y6993D01*
X344522Y7463D01*
X346385Y8235D01*
X348105Y9289D01*
X349638Y10598D01*
X350948Y12132D01*
X352001Y13851D01*
X352773Y15714D01*
X353244Y17675D01*
X353402Y19685D01*
X353244Y21695D01*
X352773Y23656D01*
X352001Y25519D01*
X350948Y27239D01*
X349638Y28772D01*
X348105Y30081D01*
X346385Y31135D01*
X344522Y31907D01*
X342562Y32377D01*
X340551Y32536D01*
X338541Y32377D01*
X336580Y31907D01*
X335236Y31350D01*
X333661Y32137D01*
Y37272D01*
X334775Y38386D01*
X390748D01*
X390748Y2098D01*
D02*
G37*
%LPC*%
G36*
X367896Y7374D02*
X364673D01*
Y4152D01*
X365154Y4215D01*
X366067Y4593D01*
X366852Y5195D01*
X367454Y5980D01*
X367832Y6894D01*
X367896Y7374D01*
D02*
G37*
G36*
X363673D02*
X360451D01*
X360514Y6894D01*
X360893Y5980D01*
X361494Y5195D01*
X362279Y4593D01*
X363193Y4215D01*
X363673Y4152D01*
Y7374D01*
D02*
G37*
G36*
X381752Y30318D02*
X378091D01*
X377280Y30211D01*
X376524Y29898D01*
X375875Y29401D01*
X375377Y28752D01*
X375064Y27996D01*
X374957Y27185D01*
X374999Y26866D01*
X374984Y25291D01*
X374984Y25291D01*
X374984Y25291D01*
Y22685D01*
X384858D01*
Y25291D01*
X384858Y25291D01*
X384843Y26866D01*
X384885Y27185D01*
X384778Y27996D01*
X384465Y28752D01*
X383967Y29401D01*
X383319Y29898D01*
X382563Y30211D01*
X381752Y30318D01*
D02*
G37*
G36*
X384858Y21685D02*
X374984D01*
Y19079D01*
X374984Y19079D01*
X374999Y17504D01*
X374957Y17185D01*
X375064Y16374D01*
X375377Y15619D01*
X375759Y14685D01*
X375377Y13752D01*
X375064Y12996D01*
X374957Y12185D01*
X375064Y11374D01*
X375377Y10618D01*
X375875Y9970D01*
X376524Y9472D01*
X377280Y9159D01*
X378091Y9052D01*
X381752D01*
X382563Y9159D01*
X383319Y9472D01*
X383967Y9970D01*
X384465Y10618D01*
X384778Y11374D01*
X384885Y12185D01*
X384778Y12996D01*
X384465Y13752D01*
X384084Y14685D01*
X384465Y15619D01*
X384778Y16374D01*
X384885Y17185D01*
X384843Y17504D01*
X384858Y19079D01*
X384858Y19079D01*
X384858Y19079D01*
Y21685D01*
D02*
G37*
G36*
X367929Y35252D02*
X360417D01*
Y27740D01*
X360783D01*
X361276Y26744D01*
X361391Y26165D01*
X360893Y25516D01*
X360514Y24603D01*
X360385Y23622D01*
X360514Y22642D01*
X360893Y21728D01*
X361494Y20943D01*
X361947Y20596D01*
X362092Y19913D01*
Y19457D01*
X361947Y18774D01*
X361494Y18427D01*
X360893Y17642D01*
X360514Y16729D01*
X360385Y15748D01*
X360514Y14768D01*
X360893Y13854D01*
X361494Y13069D01*
X361947Y12722D01*
X362092Y12039D01*
Y11583D01*
X361947Y10900D01*
X361494Y10553D01*
X360893Y9768D01*
X360514Y8855D01*
X360451Y8374D01*
X367896D01*
X367832Y8855D01*
X367454Y9768D01*
X366852Y10553D01*
X366399Y10900D01*
X366255Y11583D01*
Y12039D01*
X366399Y12722D01*
X366852Y13069D01*
X367454Y13854D01*
X367832Y14768D01*
X367962Y15748D01*
X367832Y16729D01*
X367454Y17642D01*
X366852Y18427D01*
X366399Y18774D01*
X366255Y19457D01*
Y19913D01*
X366399Y20596D01*
X366852Y20943D01*
X367454Y21728D01*
X367832Y22642D01*
X367962Y23622D01*
X367832Y24603D01*
X367454Y25516D01*
X366956Y26165D01*
X367071Y26744D01*
X367563Y27740D01*
X367929D01*
Y35252D01*
D02*
G37*
%LPD*%
G36*
X58071Y48948D02*
X56957Y47835D01*
X984D01*
Y54084D01*
X2559Y54870D01*
X3903Y54314D01*
X5864Y53843D01*
X7874Y53685D01*
X9884Y53843D01*
X11845Y54314D01*
X13708Y55085D01*
X15428Y56139D01*
X16961Y57449D01*
X18270Y58982D01*
X19324Y60701D01*
X20096Y62564D01*
X20567Y64525D01*
X20725Y66536D01*
X20567Y68546D01*
X20096Y70507D01*
X19324Y72369D01*
X18270Y74089D01*
X16961Y75622D01*
X15428Y76932D01*
X13708Y77986D01*
X11845Y78757D01*
X9884Y79228D01*
X7874Y79386D01*
X5864Y79228D01*
X3903Y78757D01*
X2559Y78201D01*
X984Y78987D01*
Y84123D01*
X2098Y85236D01*
X58071D01*
X58071Y48948D01*
D02*
G37*
%LPC*%
G36*
X35219Y54224D02*
X31996D01*
Y51002D01*
X32477Y51065D01*
X33390Y51444D01*
X34175Y52046D01*
X34777Y52830D01*
X35155Y53744D01*
X35219Y54224D01*
D02*
G37*
G36*
X30996D02*
X27774D01*
X27837Y53744D01*
X28215Y52830D01*
X28817Y52046D01*
X29602Y51444D01*
X30516Y51065D01*
X30996Y51002D01*
Y54224D01*
D02*
G37*
G36*
X49075Y77169D02*
X45413D01*
X44603Y77062D01*
X43847Y76749D01*
X43198Y76251D01*
X42700Y75602D01*
X42387Y74846D01*
X42280Y74036D01*
X42322Y73717D01*
X42307Y72142D01*
X42307Y72142D01*
X42307Y72142D01*
Y69535D01*
X52181D01*
Y72142D01*
X52181Y72142D01*
X52166Y73717D01*
X52208Y74036D01*
X52101Y74846D01*
X51788Y75602D01*
X51290Y76251D01*
X50641Y76749D01*
X49886Y77062D01*
X49075Y77169D01*
D02*
G37*
G36*
X52181Y68536D02*
X42307D01*
Y65929D01*
X42307Y65929D01*
X42322Y64354D01*
X42280Y64035D01*
X42387Y63225D01*
X42700Y62469D01*
X43082Y61536D01*
X42700Y60602D01*
X42387Y59846D01*
X42280Y59035D01*
X42387Y58225D01*
X42700Y57469D01*
X43198Y56820D01*
X43847Y56322D01*
X44603Y56009D01*
X45413Y55902D01*
X49075D01*
X49886Y56009D01*
X50641Y56322D01*
X51290Y56820D01*
X51788Y57469D01*
X52101Y58225D01*
X52208Y59035D01*
X52101Y59846D01*
X51788Y60602D01*
X51407Y61536D01*
X51788Y62469D01*
X52101Y63225D01*
X52208Y64035D01*
X52166Y64354D01*
X52181Y65929D01*
X52181Y65929D01*
X52181Y65929D01*
Y68536D01*
D02*
G37*
G36*
X35252Y82102D02*
X27740D01*
Y74591D01*
X28106D01*
X28598Y73594D01*
X28714Y73016D01*
X28215Y72367D01*
X27837Y71453D01*
X27708Y70473D01*
X27837Y69492D01*
X28215Y68578D01*
X28817Y67794D01*
X29270Y67446D01*
X29415Y66763D01*
Y66308D01*
X29270Y65625D01*
X28817Y65277D01*
X28215Y64493D01*
X27837Y63579D01*
X27708Y62599D01*
X27837Y61618D01*
X28215Y60704D01*
X28817Y59920D01*
X29270Y59572D01*
X29415Y58889D01*
Y58434D01*
X29270Y57751D01*
X28817Y57403D01*
X28215Y56619D01*
X27837Y55705D01*
X27774Y55225D01*
X35219D01*
X35155Y55705D01*
X34777Y56619D01*
X34175Y57403D01*
X33722Y57751D01*
X33577Y58434D01*
Y58889D01*
X33722Y59572D01*
X34175Y59920D01*
X34777Y60704D01*
X35155Y61618D01*
X35284Y62599D01*
X35155Y63579D01*
X34777Y64493D01*
X34175Y65277D01*
X33722Y65625D01*
X33577Y66308D01*
Y66763D01*
X33722Y67446D01*
X34175Y67794D01*
X34777Y68578D01*
X35155Y69492D01*
X35284Y70473D01*
X35155Y71453D01*
X34777Y72367D01*
X34279Y73016D01*
X34394Y73594D01*
X34886Y74591D01*
X35252D01*
Y82102D01*
D02*
G37*
%LPD*%
G36*
X124606Y48948D02*
X123493Y47835D01*
X67520D01*
Y54084D01*
X69095Y54870D01*
X70438Y54314D01*
X72399Y53843D01*
X74410Y53685D01*
X76420Y53843D01*
X78381Y54314D01*
X80244Y55085D01*
X81963Y56139D01*
X83496Y57449D01*
X84806Y58982D01*
X85860Y60701D01*
X86631Y62564D01*
X87102Y64525D01*
X87260Y66536D01*
X87102Y68546D01*
X86631Y70507D01*
X85860Y72369D01*
X84806Y74089D01*
X83496Y75622D01*
X81963Y76932D01*
X80244Y77986D01*
X78381Y78757D01*
X76420Y79228D01*
X74410Y79386D01*
X72399Y79228D01*
X70438Y78757D01*
X69095Y78201D01*
X67520Y78987D01*
Y84123D01*
X68633Y85236D01*
X124606D01*
X124606Y48948D01*
D02*
G37*
%LPC*%
G36*
X101754Y54224D02*
X98532D01*
Y51002D01*
X99012Y51065D01*
X99926Y51444D01*
X100710Y52046D01*
X101312Y52830D01*
X101691Y53744D01*
X101754Y54224D01*
D02*
G37*
G36*
X97531D02*
X94309D01*
X94372Y53744D01*
X94751Y52830D01*
X95353Y52046D01*
X96137Y51444D01*
X97051Y51065D01*
X97531Y51002D01*
Y54224D01*
D02*
G37*
G36*
X115610Y77169D02*
X111949D01*
X111138Y77062D01*
X110382Y76749D01*
X109733Y76251D01*
X109236Y75602D01*
X108923Y74846D01*
X108816Y74036D01*
X108858Y73717D01*
X108843Y72142D01*
X108843Y72142D01*
X108843Y72142D01*
Y69535D01*
X118717D01*
Y72142D01*
X118717Y72142D01*
X118701Y73717D01*
X118743Y74036D01*
X118637Y74846D01*
X118324Y75602D01*
X117826Y76251D01*
X117177Y76749D01*
X116421Y77062D01*
X115610Y77169D01*
D02*
G37*
G36*
X118717Y68536D02*
X108843D01*
Y65929D01*
X108843Y65929D01*
X108858Y64354D01*
X108816Y64035D01*
X108923Y63225D01*
X109236Y62469D01*
X109617Y61536D01*
X109236Y60602D01*
X108923Y59846D01*
X108816Y59035D01*
X108923Y58225D01*
X109236Y57469D01*
X109733Y56820D01*
X110382Y56322D01*
X111138Y56009D01*
X111949Y55902D01*
X115610D01*
X116421Y56009D01*
X117177Y56322D01*
X117826Y56820D01*
X118324Y57469D01*
X118637Y58225D01*
X118743Y59035D01*
X118637Y59846D01*
X118324Y60602D01*
X117942Y61536D01*
X118324Y62469D01*
X118637Y63225D01*
X118743Y64035D01*
X118701Y64354D01*
X118717Y65929D01*
X118717Y65929D01*
X118717Y65929D01*
Y68536D01*
D02*
G37*
G36*
X101787Y82102D02*
X94276D01*
Y74591D01*
X94642D01*
X95134Y73594D01*
X95249Y73016D01*
X94751Y72367D01*
X94372Y71453D01*
X94243Y70473D01*
X94372Y69492D01*
X94751Y68578D01*
X95353Y67794D01*
X95806Y67446D01*
X95950Y66763D01*
Y66308D01*
X95806Y65625D01*
X95353Y65277D01*
X94751Y64493D01*
X94372Y63579D01*
X94243Y62599D01*
X94372Y61618D01*
X94751Y60704D01*
X95353Y59920D01*
X95806Y59572D01*
X95950Y58889D01*
Y58434D01*
X95806Y57751D01*
X95353Y57403D01*
X94751Y56619D01*
X94372Y55705D01*
X94309Y55225D01*
X101754D01*
X101691Y55705D01*
X101312Y56619D01*
X100710Y57403D01*
X100258Y57751D01*
X100113Y58434D01*
Y58889D01*
X100258Y59572D01*
X100710Y59920D01*
X101312Y60704D01*
X101691Y61618D01*
X101820Y62599D01*
X101691Y63579D01*
X101312Y64493D01*
X100710Y65277D01*
X100258Y65625D01*
X100113Y66308D01*
Y66763D01*
X100258Y67446D01*
X100710Y67794D01*
X101312Y68578D01*
X101691Y69492D01*
X101820Y70473D01*
X101691Y71453D01*
X101312Y72367D01*
X100814Y73016D01*
X100929Y73594D01*
X101421Y74591D01*
X101787D01*
Y82102D01*
D02*
G37*
%LPD*%
G36*
X191142Y48948D02*
X190028Y47835D01*
X134055D01*
Y54084D01*
X135630Y54870D01*
X136974Y54314D01*
X138935Y53843D01*
X140945Y53685D01*
X142955Y53843D01*
X144916Y54314D01*
X146779Y55085D01*
X148498Y56139D01*
X150032Y57449D01*
X151341Y58982D01*
X152395Y60701D01*
X153167Y62564D01*
X153637Y64525D01*
X153796Y66536D01*
X153637Y68546D01*
X153167Y70507D01*
X152395Y72369D01*
X151341Y74089D01*
X150032Y75622D01*
X148498Y76932D01*
X146779Y77986D01*
X144916Y78757D01*
X142955Y79228D01*
X140945Y79386D01*
X138935Y79228D01*
X136974Y78757D01*
X135630Y78201D01*
X134055Y78987D01*
Y84123D01*
X135169Y85236D01*
X191142D01*
X191142Y48948D01*
D02*
G37*
%LPC*%
G36*
X168289Y54224D02*
X165067D01*
Y51002D01*
X165548Y51065D01*
X166461Y51444D01*
X167246Y52046D01*
X167848Y52830D01*
X168226Y53744D01*
X168289Y54224D01*
D02*
G37*
G36*
X164067D02*
X160845D01*
X160908Y53744D01*
X161286Y52830D01*
X161888Y52046D01*
X162673Y51444D01*
X163586Y51065D01*
X164067Y51002D01*
Y54224D01*
D02*
G37*
G36*
X182146Y77169D02*
X178484D01*
X177673Y77062D01*
X176918Y76749D01*
X176269Y76251D01*
X175771Y75602D01*
X175458Y74846D01*
X175351Y74036D01*
X175393Y73717D01*
X175378Y72142D01*
X175378Y72142D01*
X175378Y72142D01*
Y69535D01*
X185252D01*
Y72142D01*
X185252Y72142D01*
X185237Y73717D01*
X185279Y74036D01*
X185172Y74846D01*
X184859Y75602D01*
X184361Y76251D01*
X183712Y76749D01*
X182957Y77062D01*
X182146Y77169D01*
D02*
G37*
G36*
X185252Y68536D02*
X175378D01*
Y65929D01*
X175378Y65929D01*
X175393Y64354D01*
X175351Y64035D01*
X175458Y63225D01*
X175771Y62469D01*
X176153Y61536D01*
X175771Y60602D01*
X175458Y59846D01*
X175351Y59035D01*
X175458Y58225D01*
X175771Y57469D01*
X176269Y56820D01*
X176918Y56322D01*
X177673Y56009D01*
X178484Y55902D01*
X182146D01*
X182957Y56009D01*
X183712Y56322D01*
X184361Y56820D01*
X184859Y57469D01*
X185172Y58225D01*
X185279Y59035D01*
X185172Y59846D01*
X184859Y60602D01*
X184477Y61536D01*
X184859Y62469D01*
X185172Y63225D01*
X185279Y64035D01*
X185237Y64354D01*
X185252Y65929D01*
X185252Y65929D01*
X185252Y65929D01*
Y68536D01*
D02*
G37*
G36*
X168323Y82102D02*
X160811D01*
Y74591D01*
X161177D01*
X161669Y73594D01*
X161784Y73016D01*
X161286Y72367D01*
X160908Y71453D01*
X160779Y70473D01*
X160908Y69492D01*
X161286Y68578D01*
X161888Y67794D01*
X162341Y67446D01*
X162486Y66763D01*
Y66308D01*
X162341Y65625D01*
X161888Y65277D01*
X161286Y64493D01*
X160908Y63579D01*
X160779Y62599D01*
X160908Y61618D01*
X161286Y60704D01*
X161888Y59920D01*
X162341Y59572D01*
X162486Y58889D01*
Y58434D01*
X162341Y57751D01*
X161888Y57403D01*
X161286Y56619D01*
X160908Y55705D01*
X160845Y55225D01*
X168289D01*
X168226Y55705D01*
X167848Y56619D01*
X167246Y57403D01*
X166793Y57751D01*
X166648Y58434D01*
Y58889D01*
X166793Y59572D01*
X167246Y59920D01*
X167848Y60704D01*
X168226Y61618D01*
X168355Y62599D01*
X168226Y63579D01*
X167848Y64493D01*
X167246Y65277D01*
X166793Y65625D01*
X166648Y66308D01*
Y66763D01*
X166793Y67446D01*
X167246Y67794D01*
X167848Y68578D01*
X168226Y69492D01*
X168355Y70473D01*
X168226Y71453D01*
X167848Y72367D01*
X167350Y73016D01*
X167464Y73594D01*
X167957Y74591D01*
X168323D01*
Y82102D01*
D02*
G37*
%LPD*%
G36*
X257677Y48948D02*
X256564Y47835D01*
X200591D01*
Y54084D01*
X202165Y54870D01*
X203509Y54314D01*
X205470Y53843D01*
X207480Y53685D01*
X209491Y53843D01*
X211451Y54314D01*
X213314Y55085D01*
X215034Y56139D01*
X216567Y57449D01*
X217877Y58982D01*
X218930Y60701D01*
X219702Y62564D01*
X220173Y64525D01*
X220331Y66536D01*
X220173Y68546D01*
X219702Y70507D01*
X218930Y72369D01*
X217877Y74089D01*
X216567Y75622D01*
X215034Y76932D01*
X213314Y77986D01*
X211451Y78757D01*
X209491Y79228D01*
X207480Y79386D01*
X205470Y79228D01*
X203509Y78757D01*
X202165Y78201D01*
X200591Y78987D01*
Y84123D01*
X201704Y85236D01*
X257677D01*
X257677Y48948D01*
D02*
G37*
%LPC*%
G36*
X234825Y54224D02*
X231602D01*
Y51002D01*
X232083Y51065D01*
X232997Y51444D01*
X233781Y52046D01*
X234383Y52830D01*
X234762Y53744D01*
X234825Y54224D01*
D02*
G37*
G36*
X230602D02*
X227380D01*
X227443Y53744D01*
X227822Y52830D01*
X228424Y52046D01*
X229208Y51444D01*
X230122Y51065D01*
X230602Y51002D01*
Y54224D01*
D02*
G37*
G36*
X248681Y77169D02*
X245020D01*
X244209Y77062D01*
X243453Y76749D01*
X242804Y76251D01*
X242306Y75602D01*
X241993Y74846D01*
X241887Y74036D01*
X241929Y73717D01*
X241913Y72142D01*
X241913Y72142D01*
X241913Y72142D01*
Y69535D01*
X251787D01*
Y72142D01*
X251787Y72142D01*
X251772Y73717D01*
X251814Y74036D01*
X251708Y74846D01*
X251395Y75602D01*
X250897Y76251D01*
X250248Y76749D01*
X249492Y77062D01*
X248681Y77169D01*
D02*
G37*
G36*
X251787Y68536D02*
X241913D01*
Y65929D01*
X241913Y65929D01*
X241929Y64354D01*
X241887Y64035D01*
X241993Y63225D01*
X242306Y62469D01*
X242688Y61536D01*
X242306Y60602D01*
X241993Y59846D01*
X241887Y59035D01*
X241993Y58225D01*
X242306Y57469D01*
X242804Y56820D01*
X243453Y56322D01*
X244209Y56009D01*
X245020Y55902D01*
X248681D01*
X249492Y56009D01*
X250248Y56322D01*
X250897Y56820D01*
X251395Y57469D01*
X251708Y58225D01*
X251814Y59035D01*
X251708Y59846D01*
X251395Y60602D01*
X251013Y61536D01*
X251395Y62469D01*
X251708Y63225D01*
X251814Y64035D01*
X251772Y64354D01*
X251787Y65929D01*
X251787Y65929D01*
X251787Y65929D01*
Y68536D01*
D02*
G37*
G36*
X234858Y82102D02*
X227346D01*
Y74591D01*
X227713D01*
X228205Y73594D01*
X228320Y73016D01*
X227822Y72367D01*
X227443Y71453D01*
X227314Y70473D01*
X227443Y69492D01*
X227822Y68578D01*
X228424Y67794D01*
X228876Y67446D01*
X229021Y66763D01*
Y66308D01*
X228876Y65625D01*
X228424Y65277D01*
X227822Y64493D01*
X227443Y63579D01*
X227314Y62599D01*
X227443Y61618D01*
X227822Y60704D01*
X228424Y59920D01*
X228876Y59572D01*
X229021Y58889D01*
Y58434D01*
X228876Y57751D01*
X228424Y57403D01*
X227822Y56619D01*
X227443Y55705D01*
X227380Y55225D01*
X234825D01*
X234762Y55705D01*
X234383Y56619D01*
X233781Y57403D01*
X233328Y57751D01*
X233184Y58434D01*
Y58889D01*
X233328Y59572D01*
X233781Y59920D01*
X234383Y60704D01*
X234762Y61618D01*
X234891Y62599D01*
X234762Y63579D01*
X234383Y64493D01*
X233781Y65277D01*
X233328Y65625D01*
X233184Y66308D01*
Y66763D01*
X233328Y67446D01*
X233781Y67794D01*
X234383Y68578D01*
X234762Y69492D01*
X234891Y70473D01*
X234762Y71453D01*
X234383Y72367D01*
X233885Y73016D01*
X234000Y73594D01*
X234492Y74591D01*
X234858D01*
Y82102D01*
D02*
G37*
%LPD*%
G36*
X324213Y48948D02*
X323099Y47835D01*
X267126D01*
Y54084D01*
X268701Y54870D01*
X270045Y54314D01*
X272006Y53843D01*
X274016Y53685D01*
X276026Y53843D01*
X277987Y54314D01*
X279850Y55085D01*
X281569Y56139D01*
X283103Y57449D01*
X284412Y58982D01*
X285466Y60701D01*
X286238Y62564D01*
X286708Y64525D01*
X286866Y66536D01*
X286708Y68546D01*
X286238Y70507D01*
X285466Y72369D01*
X284412Y74089D01*
X283103Y75622D01*
X281569Y76932D01*
X279850Y77986D01*
X277987Y78757D01*
X276026Y79228D01*
X274016Y79386D01*
X272006Y79228D01*
X270045Y78757D01*
X268701Y78201D01*
X267126Y78987D01*
Y84123D01*
X268240Y85236D01*
X324213D01*
X324213Y48948D01*
D02*
G37*
%LPC*%
G36*
X301360Y54224D02*
X298138D01*
Y51002D01*
X298618Y51065D01*
X299532Y51444D01*
X300317Y52046D01*
X300919Y52830D01*
X301297Y53744D01*
X301360Y54224D01*
D02*
G37*
G36*
X297138D02*
X293915D01*
X293979Y53744D01*
X294357Y52830D01*
X294959Y52046D01*
X295744Y51444D01*
X296657Y51065D01*
X297138Y51002D01*
Y54224D01*
D02*
G37*
G36*
X315217Y77169D02*
X311555D01*
X310744Y77062D01*
X309989Y76749D01*
X309340Y76251D01*
X308842Y75602D01*
X308529Y74846D01*
X308422Y74036D01*
X308464Y73717D01*
X308449Y72142D01*
X308449Y72142D01*
X308449Y72142D01*
Y69535D01*
X318323D01*
Y72142D01*
X318323Y72142D01*
X318308Y73717D01*
X318350Y74036D01*
X318243Y74846D01*
X317930Y75602D01*
X317432Y76251D01*
X316783Y76749D01*
X316027Y77062D01*
X315217Y77169D01*
D02*
G37*
G36*
X318323Y68536D02*
X308449D01*
Y65929D01*
X308449Y65929D01*
X308464Y64354D01*
X308422Y64035D01*
X308529Y63225D01*
X308842Y62469D01*
X309223Y61536D01*
X308842Y60602D01*
X308529Y59846D01*
X308422Y59035D01*
X308529Y58225D01*
X308842Y57469D01*
X309340Y56820D01*
X309989Y56322D01*
X310744Y56009D01*
X311555Y55902D01*
X315217D01*
X316027Y56009D01*
X316783Y56322D01*
X317432Y56820D01*
X317930Y57469D01*
X318243Y58225D01*
X318350Y59035D01*
X318243Y59846D01*
X317930Y60602D01*
X317548Y61536D01*
X317930Y62469D01*
X318243Y63225D01*
X318350Y64035D01*
X318308Y64354D01*
X318323Y65929D01*
X318323Y65929D01*
X318323Y65929D01*
Y68536D01*
D02*
G37*
G36*
X301394Y82102D02*
X293882D01*
Y74591D01*
X294248D01*
X294740Y73594D01*
X294855Y73016D01*
X294357Y72367D01*
X293979Y71453D01*
X293849Y70473D01*
X293979Y69492D01*
X294357Y68578D01*
X294959Y67794D01*
X295412Y67446D01*
X295556Y66763D01*
Y66308D01*
X295412Y65625D01*
X294959Y65277D01*
X294357Y64493D01*
X293979Y63579D01*
X293849Y62599D01*
X293979Y61618D01*
X294357Y60704D01*
X294959Y59920D01*
X295412Y59572D01*
X295556Y58889D01*
Y58434D01*
X295412Y57751D01*
X294959Y57403D01*
X294357Y56619D01*
X293979Y55705D01*
X293915Y55225D01*
X301360D01*
X301297Y55705D01*
X300919Y56619D01*
X300317Y57403D01*
X299864Y57751D01*
X299719Y58434D01*
Y58889D01*
X299864Y59572D01*
X300317Y59920D01*
X300919Y60704D01*
X301297Y61618D01*
X301426Y62599D01*
X301297Y63579D01*
X300919Y64493D01*
X300317Y65277D01*
X299864Y65625D01*
X299719Y66308D01*
Y66763D01*
X299864Y67446D01*
X300317Y67794D01*
X300919Y68578D01*
X301297Y69492D01*
X301426Y70473D01*
X301297Y71453D01*
X300919Y72367D01*
X300420Y73016D01*
X300535Y73594D01*
X301028Y74591D01*
X301394D01*
Y82102D01*
D02*
G37*
%LPD*%
G36*
X390748Y48948D02*
X389634Y47835D01*
X333661D01*
Y54084D01*
X335236Y54870D01*
X336580Y54314D01*
X338541Y53843D01*
X340551Y53685D01*
X342562Y53843D01*
X344522Y54314D01*
X346385Y55085D01*
X348105Y56139D01*
X349638Y57449D01*
X350948Y58982D01*
X352001Y60701D01*
X352773Y62564D01*
X353244Y64525D01*
X353402Y66536D01*
X353244Y68546D01*
X352773Y70507D01*
X352001Y72369D01*
X350948Y74089D01*
X349638Y75622D01*
X348105Y76932D01*
X346385Y77986D01*
X344522Y78757D01*
X342562Y79228D01*
X340551Y79386D01*
X338541Y79228D01*
X336580Y78757D01*
X335236Y78201D01*
X333661Y78987D01*
Y84123D01*
X334775Y85236D01*
X390748D01*
X390748Y48948D01*
D02*
G37*
%LPC*%
G36*
X367896Y54224D02*
X364673D01*
Y51002D01*
X365154Y51065D01*
X366067Y51444D01*
X366852Y52046D01*
X367454Y52830D01*
X367832Y53744D01*
X367896Y54224D01*
D02*
G37*
G36*
X363673D02*
X360451D01*
X360514Y53744D01*
X360893Y52830D01*
X361494Y52046D01*
X362279Y51444D01*
X363193Y51065D01*
X363673Y51002D01*
Y54224D01*
D02*
G37*
G36*
X381752Y77169D02*
X378091D01*
X377280Y77062D01*
X376524Y76749D01*
X375875Y76251D01*
X375377Y75602D01*
X375064Y74846D01*
X374957Y74036D01*
X374999Y73717D01*
X374984Y72142D01*
X374984Y72142D01*
X374984Y72142D01*
Y69535D01*
X384858D01*
Y72142D01*
X384858Y72142D01*
X384843Y73717D01*
X384885Y74036D01*
X384778Y74846D01*
X384465Y75602D01*
X383967Y76251D01*
X383319Y76749D01*
X382563Y77062D01*
X381752Y77169D01*
D02*
G37*
G36*
X384858Y68536D02*
X374984D01*
Y65929D01*
X374984Y65929D01*
X374999Y64354D01*
X374957Y64035D01*
X375064Y63225D01*
X375377Y62469D01*
X375759Y61536D01*
X375377Y60602D01*
X375064Y59846D01*
X374957Y59035D01*
X375064Y58225D01*
X375377Y57469D01*
X375875Y56820D01*
X376524Y56322D01*
X377280Y56009D01*
X378091Y55902D01*
X381752D01*
X382563Y56009D01*
X383319Y56322D01*
X383967Y56820D01*
X384465Y57469D01*
X384778Y58225D01*
X384885Y59035D01*
X384778Y59846D01*
X384465Y60602D01*
X384084Y61536D01*
X384465Y62469D01*
X384778Y63225D01*
X384885Y64035D01*
X384843Y64354D01*
X384858Y65929D01*
X384858Y65929D01*
X384858Y65929D01*
Y68536D01*
D02*
G37*
G36*
X367929Y82102D02*
X360417D01*
Y74591D01*
X360783D01*
X361276Y73594D01*
X361391Y73016D01*
X360893Y72367D01*
X360514Y71453D01*
X360385Y70473D01*
X360514Y69492D01*
X360893Y68578D01*
X361494Y67794D01*
X361947Y67446D01*
X362092Y66763D01*
Y66308D01*
X361947Y65625D01*
X361494Y65277D01*
X360893Y64493D01*
X360514Y63579D01*
X360385Y62599D01*
X360514Y61618D01*
X360893Y60704D01*
X361494Y59920D01*
X361947Y59572D01*
X362092Y58889D01*
Y58434D01*
X361947Y57751D01*
X361494Y57403D01*
X360893Y56619D01*
X360514Y55705D01*
X360451Y55225D01*
X367896D01*
X367832Y55705D01*
X367454Y56619D01*
X366852Y57403D01*
X366399Y57751D01*
X366255Y58434D01*
Y58889D01*
X366399Y59572D01*
X366852Y59920D01*
X367454Y60704D01*
X367832Y61618D01*
X367962Y62599D01*
X367832Y63579D01*
X367454Y64493D01*
X366852Y65277D01*
X366399Y65625D01*
X366255Y66308D01*
Y66763D01*
X366399Y67446D01*
X366852Y67794D01*
X367454Y68578D01*
X367832Y69492D01*
X367962Y70473D01*
X367832Y71453D01*
X367454Y72367D01*
X366956Y73016D01*
X367071Y73594D01*
X367563Y74591D01*
X367929D01*
Y82102D01*
D02*
G37*
%LPD*%
G36*
X58071Y95799D02*
X56957Y94685D01*
X984D01*
Y100934D01*
X2559Y101721D01*
X3903Y101164D01*
X5864Y100693D01*
X7874Y100535D01*
X9884Y100693D01*
X11845Y101164D01*
X13708Y101936D01*
X15428Y102989D01*
X16961Y104299D01*
X18270Y105833D01*
X19324Y107552D01*
X20096Y109415D01*
X20567Y111376D01*
X20725Y113386D01*
X20567Y115396D01*
X20096Y117357D01*
X19324Y119220D01*
X18270Y120939D01*
X16961Y122473D01*
X15428Y123782D01*
X13708Y124836D01*
X11845Y125608D01*
X9884Y126078D01*
X7874Y126236D01*
X5864Y126078D01*
X3903Y125608D01*
X2559Y125051D01*
X984Y125838D01*
Y130973D01*
X2098Y132087D01*
X58071D01*
X58071Y95799D01*
D02*
G37*
%LPC*%
G36*
X35219Y101075D02*
X31996D01*
Y97852D01*
X32477Y97916D01*
X33390Y98294D01*
X34175Y98896D01*
X34777Y99681D01*
X35155Y100594D01*
X35219Y101075D01*
D02*
G37*
G36*
X30996D02*
X27774D01*
X27837Y100594D01*
X28215Y99681D01*
X28817Y98896D01*
X29602Y98294D01*
X30516Y97916D01*
X30996Y97852D01*
Y101075D01*
D02*
G37*
G36*
X49075Y124019D02*
X45413D01*
X44603Y123912D01*
X43847Y123599D01*
X43198Y123101D01*
X42700Y122452D01*
X42387Y121697D01*
X42280Y120886D01*
X42322Y120567D01*
X42307Y118992D01*
X42307Y118992D01*
X42307Y118992D01*
Y116386D01*
X52181D01*
Y118992D01*
X52181Y118992D01*
X52166Y120567D01*
X52208Y120886D01*
X52101Y121697D01*
X51788Y122452D01*
X51290Y123101D01*
X50641Y123599D01*
X49886Y123912D01*
X49075Y124019D01*
D02*
G37*
G36*
X52181Y115386D02*
X42307D01*
Y112780D01*
X42307Y112780D01*
X42322Y111205D01*
X42280Y110886D01*
X42387Y110075D01*
X42700Y109319D01*
X43082Y108386D01*
X42700Y107452D01*
X42387Y106697D01*
X42280Y105886D01*
X42387Y105075D01*
X42700Y104319D01*
X43198Y103670D01*
X43847Y103173D01*
X44603Y102859D01*
X45413Y102753D01*
X49075D01*
X49886Y102859D01*
X50641Y103173D01*
X51290Y103670D01*
X51788Y104319D01*
X52101Y105075D01*
X52208Y105886D01*
X52101Y106697D01*
X51788Y107452D01*
X51407Y108386D01*
X51788Y109319D01*
X52101Y110075D01*
X52208Y110886D01*
X52166Y111205D01*
X52181Y112780D01*
X52181Y112780D01*
X52181Y112780D01*
Y115386D01*
D02*
G37*
G36*
X35252Y128953D02*
X27740D01*
Y121441D01*
X28106D01*
X28598Y120445D01*
X28714Y119866D01*
X28215Y119217D01*
X27837Y118303D01*
X27708Y117323D01*
X27837Y116342D01*
X28215Y115429D01*
X28817Y114644D01*
X29270Y114297D01*
X29415Y113613D01*
Y113158D01*
X29270Y112475D01*
X28817Y112128D01*
X28215Y111343D01*
X27837Y110429D01*
X27708Y109449D01*
X27837Y108468D01*
X28215Y107555D01*
X28817Y106770D01*
X29270Y106423D01*
X29415Y105739D01*
Y105284D01*
X29270Y104601D01*
X28817Y104254D01*
X28215Y103469D01*
X27837Y102555D01*
X27774Y102075D01*
X35219D01*
X35155Y102555D01*
X34777Y103469D01*
X34175Y104254D01*
X33722Y104601D01*
X33577Y105284D01*
Y105739D01*
X33722Y106423D01*
X34175Y106770D01*
X34777Y107555D01*
X35155Y108468D01*
X35284Y109449D01*
X35155Y110429D01*
X34777Y111343D01*
X34175Y112128D01*
X33722Y112475D01*
X33577Y113158D01*
Y113613D01*
X33722Y114297D01*
X34175Y114644D01*
X34777Y115429D01*
X35155Y116342D01*
X35284Y117323D01*
X35155Y118303D01*
X34777Y119217D01*
X34279Y119866D01*
X34394Y120445D01*
X34886Y121441D01*
X35252D01*
Y128953D01*
D02*
G37*
%LPD*%
G36*
X124606Y95799D02*
X123493Y94685D01*
X67520D01*
Y100934D01*
X69095Y101721D01*
X70438Y101164D01*
X72399Y100693D01*
X74410Y100535D01*
X76420Y100693D01*
X78381Y101164D01*
X80244Y101936D01*
X81963Y102989D01*
X83496Y104299D01*
X84806Y105833D01*
X85860Y107552D01*
X86631Y109415D01*
X87102Y111376D01*
X87260Y113386D01*
X87102Y115396D01*
X86631Y117357D01*
X85860Y119220D01*
X84806Y120939D01*
X83496Y122473D01*
X81963Y123782D01*
X80244Y124836D01*
X78381Y125608D01*
X76420Y126078D01*
X74410Y126236D01*
X72399Y126078D01*
X70438Y125608D01*
X69095Y125051D01*
X67520Y125838D01*
Y130973D01*
X68633Y132087D01*
X124606D01*
X124606Y95799D01*
D02*
G37*
%LPC*%
G36*
X101754Y101075D02*
X98532D01*
Y97852D01*
X99012Y97916D01*
X99926Y98294D01*
X100710Y98896D01*
X101312Y99681D01*
X101691Y100594D01*
X101754Y101075D01*
D02*
G37*
G36*
X97531D02*
X94309D01*
X94372Y100594D01*
X94751Y99681D01*
X95353Y98896D01*
X96137Y98294D01*
X97051Y97916D01*
X97531Y97852D01*
Y101075D01*
D02*
G37*
G36*
X115610Y124019D02*
X111949D01*
X111138Y123912D01*
X110382Y123599D01*
X109733Y123101D01*
X109236Y122452D01*
X108923Y121697D01*
X108816Y120886D01*
X108858Y120567D01*
X108843Y118992D01*
X108843Y118992D01*
X108843Y118992D01*
Y116386D01*
X118717D01*
Y118992D01*
X118717Y118992D01*
X118701Y120567D01*
X118743Y120886D01*
X118637Y121697D01*
X118324Y122452D01*
X117826Y123101D01*
X117177Y123599D01*
X116421Y123912D01*
X115610Y124019D01*
D02*
G37*
G36*
X118717Y115386D02*
X108843D01*
Y112780D01*
X108843Y112780D01*
X108858Y111205D01*
X108816Y110886D01*
X108923Y110075D01*
X109236Y109319D01*
X109617Y108386D01*
X109236Y107452D01*
X108923Y106697D01*
X108816Y105886D01*
X108923Y105075D01*
X109236Y104319D01*
X109733Y103670D01*
X110382Y103173D01*
X111138Y102859D01*
X111949Y102753D01*
X115610D01*
X116421Y102859D01*
X117177Y103173D01*
X117826Y103670D01*
X118324Y104319D01*
X118637Y105075D01*
X118743Y105886D01*
X118637Y106697D01*
X118324Y107452D01*
X117942Y108386D01*
X118324Y109319D01*
X118637Y110075D01*
X118743Y110886D01*
X118701Y111205D01*
X118717Y112780D01*
X118717Y112780D01*
X118717Y112780D01*
Y115386D01*
D02*
G37*
G36*
X101787Y128953D02*
X94276D01*
Y121441D01*
X94642D01*
X95134Y120445D01*
X95249Y119866D01*
X94751Y119217D01*
X94372Y118303D01*
X94243Y117323D01*
X94372Y116342D01*
X94751Y115429D01*
X95353Y114644D01*
X95806Y114297D01*
X95950Y113613D01*
Y113158D01*
X95806Y112475D01*
X95353Y112128D01*
X94751Y111343D01*
X94372Y110429D01*
X94243Y109449D01*
X94372Y108468D01*
X94751Y107555D01*
X95353Y106770D01*
X95806Y106423D01*
X95950Y105739D01*
Y105284D01*
X95806Y104601D01*
X95353Y104254D01*
X94751Y103469D01*
X94372Y102555D01*
X94309Y102075D01*
X101754D01*
X101691Y102555D01*
X101312Y103469D01*
X100710Y104254D01*
X100258Y104601D01*
X100113Y105284D01*
Y105739D01*
X100258Y106423D01*
X100710Y106770D01*
X101312Y107555D01*
X101691Y108468D01*
X101820Y109449D01*
X101691Y110429D01*
X101312Y111343D01*
X100710Y112128D01*
X100258Y112475D01*
X100113Y113158D01*
Y113613D01*
X100258Y114297D01*
X100710Y114644D01*
X101312Y115429D01*
X101691Y116342D01*
X101820Y117323D01*
X101691Y118303D01*
X101312Y119217D01*
X100814Y119866D01*
X100929Y120445D01*
X101421Y121441D01*
X101787D01*
Y128953D01*
D02*
G37*
%LPD*%
G36*
X191142Y95799D02*
X190028Y94685D01*
X134055D01*
Y100934D01*
X135630Y101721D01*
X136974Y101164D01*
X138935Y100693D01*
X140945Y100535D01*
X142955Y100693D01*
X144916Y101164D01*
X146779Y101936D01*
X148498Y102989D01*
X150032Y104299D01*
X151341Y105833D01*
X152395Y107552D01*
X153167Y109415D01*
X153637Y111376D01*
X153796Y113386D01*
X153637Y115396D01*
X153167Y117357D01*
X152395Y119220D01*
X151341Y120939D01*
X150032Y122473D01*
X148498Y123782D01*
X146779Y124836D01*
X144916Y125608D01*
X142955Y126078D01*
X140945Y126236D01*
X138935Y126078D01*
X136974Y125608D01*
X135630Y125051D01*
X134055Y125838D01*
Y130973D01*
X135169Y132087D01*
X191142D01*
X191142Y95799D01*
D02*
G37*
%LPC*%
G36*
X168289Y101075D02*
X165067D01*
Y97852D01*
X165548Y97916D01*
X166461Y98294D01*
X167246Y98896D01*
X167848Y99681D01*
X168226Y100594D01*
X168289Y101075D01*
D02*
G37*
G36*
X164067D02*
X160845D01*
X160908Y100594D01*
X161286Y99681D01*
X161888Y98896D01*
X162673Y98294D01*
X163586Y97916D01*
X164067Y97852D01*
Y101075D01*
D02*
G37*
G36*
X182146Y124019D02*
X178484D01*
X177673Y123912D01*
X176918Y123599D01*
X176269Y123101D01*
X175771Y122452D01*
X175458Y121697D01*
X175351Y120886D01*
X175393Y120567D01*
X175378Y118992D01*
X175378Y118992D01*
X175378Y118992D01*
Y116386D01*
X185252D01*
Y118992D01*
X185252Y118992D01*
X185237Y120567D01*
X185279Y120886D01*
X185172Y121697D01*
X184859Y122452D01*
X184361Y123101D01*
X183712Y123599D01*
X182957Y123912D01*
X182146Y124019D01*
D02*
G37*
G36*
X185252Y115386D02*
X175378D01*
Y112780D01*
X175378Y112780D01*
X175393Y111205D01*
X175351Y110886D01*
X175458Y110075D01*
X175771Y109319D01*
X176153Y108386D01*
X175771Y107452D01*
X175458Y106697D01*
X175351Y105886D01*
X175458Y105075D01*
X175771Y104319D01*
X176269Y103670D01*
X176918Y103173D01*
X177673Y102859D01*
X178484Y102753D01*
X182146D01*
X182957Y102859D01*
X183712Y103173D01*
X184361Y103670D01*
X184859Y104319D01*
X185172Y105075D01*
X185279Y105886D01*
X185172Y106697D01*
X184859Y107452D01*
X184477Y108386D01*
X184859Y109319D01*
X185172Y110075D01*
X185279Y110886D01*
X185237Y111205D01*
X185252Y112780D01*
X185252Y112780D01*
X185252Y112780D01*
Y115386D01*
D02*
G37*
G36*
X168323Y128953D02*
X160811D01*
Y121441D01*
X161177D01*
X161669Y120445D01*
X161784Y119866D01*
X161286Y119217D01*
X160908Y118303D01*
X160779Y117323D01*
X160908Y116342D01*
X161286Y115429D01*
X161888Y114644D01*
X162341Y114297D01*
X162486Y113613D01*
Y113158D01*
X162341Y112475D01*
X161888Y112128D01*
X161286Y111343D01*
X160908Y110429D01*
X160779Y109449D01*
X160908Y108468D01*
X161286Y107555D01*
X161888Y106770D01*
X162341Y106423D01*
X162486Y105739D01*
Y105284D01*
X162341Y104601D01*
X161888Y104254D01*
X161286Y103469D01*
X160908Y102555D01*
X160845Y102075D01*
X168289D01*
X168226Y102555D01*
X167848Y103469D01*
X167246Y104254D01*
X166793Y104601D01*
X166648Y105284D01*
Y105739D01*
X166793Y106423D01*
X167246Y106770D01*
X167848Y107555D01*
X168226Y108468D01*
X168355Y109449D01*
X168226Y110429D01*
X167848Y111343D01*
X167246Y112128D01*
X166793Y112475D01*
X166648Y113158D01*
Y113613D01*
X166793Y114297D01*
X167246Y114644D01*
X167848Y115429D01*
X168226Y116342D01*
X168355Y117323D01*
X168226Y118303D01*
X167848Y119217D01*
X167350Y119866D01*
X167464Y120445D01*
X167957Y121441D01*
X168323D01*
Y128953D01*
D02*
G37*
%LPD*%
G36*
X257677Y95799D02*
X256564Y94685D01*
X200591D01*
Y100934D01*
X202165Y101721D01*
X203509Y101164D01*
X205470Y100693D01*
X207480Y100535D01*
X209491Y100693D01*
X211451Y101164D01*
X213314Y101936D01*
X215034Y102989D01*
X216567Y104299D01*
X217877Y105833D01*
X218930Y107552D01*
X219702Y109415D01*
X220173Y111376D01*
X220331Y113386D01*
X220173Y115396D01*
X219702Y117357D01*
X218930Y119220D01*
X217877Y120939D01*
X216567Y122473D01*
X215034Y123782D01*
X213314Y124836D01*
X211451Y125608D01*
X209491Y126078D01*
X207480Y126236D01*
X205470Y126078D01*
X203509Y125608D01*
X202165Y125051D01*
X200591Y125838D01*
Y130973D01*
X201704Y132087D01*
X257677D01*
X257677Y95799D01*
D02*
G37*
%LPC*%
G36*
X234825Y101075D02*
X231602D01*
Y97852D01*
X232083Y97916D01*
X232997Y98294D01*
X233781Y98896D01*
X234383Y99681D01*
X234762Y100594D01*
X234825Y101075D01*
D02*
G37*
G36*
X230602D02*
X227380D01*
X227443Y100594D01*
X227822Y99681D01*
X228424Y98896D01*
X229208Y98294D01*
X230122Y97916D01*
X230602Y97852D01*
Y101075D01*
D02*
G37*
G36*
X248681Y124019D02*
X245020D01*
X244209Y123912D01*
X243453Y123599D01*
X242804Y123101D01*
X242306Y122452D01*
X241993Y121697D01*
X241887Y120886D01*
X241929Y120567D01*
X241913Y118992D01*
X241913Y118992D01*
X241913Y118992D01*
Y116386D01*
X251787D01*
Y118992D01*
X251787Y118992D01*
X251772Y120567D01*
X251814Y120886D01*
X251708Y121697D01*
X251395Y122452D01*
X250897Y123101D01*
X250248Y123599D01*
X249492Y123912D01*
X248681Y124019D01*
D02*
G37*
G36*
X251787Y115386D02*
X241913D01*
Y112780D01*
X241913Y112780D01*
X241929Y111205D01*
X241887Y110886D01*
X241993Y110075D01*
X242306Y109319D01*
X242688Y108386D01*
X242306Y107452D01*
X241993Y106697D01*
X241887Y105886D01*
X241993Y105075D01*
X242306Y104319D01*
X242804Y103670D01*
X243453Y103173D01*
X244209Y102859D01*
X245020Y102753D01*
X248681D01*
X249492Y102859D01*
X250248Y103173D01*
X250897Y103670D01*
X251395Y104319D01*
X251708Y105075D01*
X251814Y105886D01*
X251708Y106697D01*
X251395Y107452D01*
X251013Y108386D01*
X251395Y109319D01*
X251708Y110075D01*
X251814Y110886D01*
X251772Y111205D01*
X251787Y112780D01*
X251787Y112780D01*
X251787Y112780D01*
Y115386D01*
D02*
G37*
G36*
X234858Y128953D02*
X227346D01*
Y121441D01*
X227713D01*
X228205Y120445D01*
X228320Y119866D01*
X227822Y119217D01*
X227443Y118303D01*
X227314Y117323D01*
X227443Y116342D01*
X227822Y115429D01*
X228424Y114644D01*
X228876Y114297D01*
X229021Y113613D01*
Y113158D01*
X228876Y112475D01*
X228424Y112128D01*
X227822Y111343D01*
X227443Y110429D01*
X227314Y109449D01*
X227443Y108468D01*
X227822Y107555D01*
X228424Y106770D01*
X228876Y106423D01*
X229021Y105739D01*
Y105284D01*
X228876Y104601D01*
X228424Y104254D01*
X227822Y103469D01*
X227443Y102555D01*
X227380Y102075D01*
X234825D01*
X234762Y102555D01*
X234383Y103469D01*
X233781Y104254D01*
X233328Y104601D01*
X233184Y105284D01*
Y105739D01*
X233328Y106423D01*
X233781Y106770D01*
X234383Y107555D01*
X234762Y108468D01*
X234891Y109449D01*
X234762Y110429D01*
X234383Y111343D01*
X233781Y112128D01*
X233328Y112475D01*
X233184Y113158D01*
Y113613D01*
X233328Y114297D01*
X233781Y114644D01*
X234383Y115429D01*
X234762Y116342D01*
X234891Y117323D01*
X234762Y118303D01*
X234383Y119217D01*
X233885Y119866D01*
X234000Y120445D01*
X234492Y121441D01*
X234858D01*
Y128953D01*
D02*
G37*
%LPD*%
G36*
X324213Y95799D02*
X323099Y94685D01*
X267126D01*
Y100934D01*
X268701Y101721D01*
X270045Y101164D01*
X272006Y100693D01*
X274016Y100535D01*
X276026Y100693D01*
X277987Y101164D01*
X279850Y101936D01*
X281569Y102989D01*
X283103Y104299D01*
X284412Y105833D01*
X285466Y107552D01*
X286238Y109415D01*
X286708Y111376D01*
X286866Y113386D01*
X286708Y115396D01*
X286238Y117357D01*
X285466Y119220D01*
X284412Y120939D01*
X283103Y122473D01*
X281569Y123782D01*
X279850Y124836D01*
X277987Y125608D01*
X276026Y126078D01*
X274016Y126236D01*
X272006Y126078D01*
X270045Y125608D01*
X268701Y125051D01*
X267126Y125838D01*
Y130973D01*
X268240Y132087D01*
X324213D01*
X324213Y95799D01*
D02*
G37*
%LPC*%
G36*
X301360Y101075D02*
X298138D01*
Y97852D01*
X298618Y97916D01*
X299532Y98294D01*
X300317Y98896D01*
X300919Y99681D01*
X301297Y100594D01*
X301360Y101075D01*
D02*
G37*
G36*
X297138D02*
X293915D01*
X293979Y100594D01*
X294357Y99681D01*
X294959Y98896D01*
X295744Y98294D01*
X296657Y97916D01*
X297138Y97852D01*
Y101075D01*
D02*
G37*
G36*
X315217Y124019D02*
X311555D01*
X310744Y123912D01*
X309989Y123599D01*
X309340Y123101D01*
X308842Y122452D01*
X308529Y121697D01*
X308422Y120886D01*
X308464Y120567D01*
X308449Y118992D01*
X308449Y118992D01*
X308449Y118992D01*
Y116386D01*
X318323D01*
Y118992D01*
X318323Y118992D01*
X318308Y120567D01*
X318350Y120886D01*
X318243Y121697D01*
X317930Y122452D01*
X317432Y123101D01*
X316783Y123599D01*
X316027Y123912D01*
X315217Y124019D01*
D02*
G37*
G36*
X318323Y115386D02*
X308449D01*
Y112780D01*
X308449Y112780D01*
X308464Y111205D01*
X308422Y110886D01*
X308529Y110075D01*
X308842Y109319D01*
X309223Y108386D01*
X308842Y107452D01*
X308529Y106697D01*
X308422Y105886D01*
X308529Y105075D01*
X308842Y104319D01*
X309340Y103670D01*
X309989Y103173D01*
X310744Y102859D01*
X311555Y102753D01*
X315217D01*
X316027Y102859D01*
X316783Y103173D01*
X317432Y103670D01*
X317930Y104319D01*
X318243Y105075D01*
X318350Y105886D01*
X318243Y106697D01*
X317930Y107452D01*
X317548Y108386D01*
X317930Y109319D01*
X318243Y110075D01*
X318350Y110886D01*
X318308Y111205D01*
X318323Y112780D01*
X318323Y112780D01*
X318323Y112780D01*
Y115386D01*
D02*
G37*
G36*
X301394Y128953D02*
X293882D01*
Y121441D01*
X294248D01*
X294740Y120445D01*
X294855Y119866D01*
X294357Y119217D01*
X293979Y118303D01*
X293849Y117323D01*
X293979Y116342D01*
X294357Y115429D01*
X294959Y114644D01*
X295412Y114297D01*
X295556Y113613D01*
Y113158D01*
X295412Y112475D01*
X294959Y112128D01*
X294357Y111343D01*
X293979Y110429D01*
X293849Y109449D01*
X293979Y108468D01*
X294357Y107555D01*
X294959Y106770D01*
X295412Y106423D01*
X295556Y105739D01*
Y105284D01*
X295412Y104601D01*
X294959Y104254D01*
X294357Y103469D01*
X293979Y102555D01*
X293915Y102075D01*
X301360D01*
X301297Y102555D01*
X300919Y103469D01*
X300317Y104254D01*
X299864Y104601D01*
X299719Y105284D01*
Y105739D01*
X299864Y106423D01*
X300317Y106770D01*
X300919Y107555D01*
X301297Y108468D01*
X301426Y109449D01*
X301297Y110429D01*
X300919Y111343D01*
X300317Y112128D01*
X299864Y112475D01*
X299719Y113158D01*
Y113613D01*
X299864Y114297D01*
X300317Y114644D01*
X300919Y115429D01*
X301297Y116342D01*
X301426Y117323D01*
X301297Y118303D01*
X300919Y119217D01*
X300420Y119866D01*
X300535Y120445D01*
X301028Y121441D01*
X301394D01*
Y128953D01*
D02*
G37*
%LPD*%
G36*
X390748Y95799D02*
X389634Y94685D01*
X333661D01*
Y100934D01*
X335236Y101721D01*
X336580Y101164D01*
X338541Y100693D01*
X340551Y100535D01*
X342562Y100693D01*
X344522Y101164D01*
X346385Y101936D01*
X348105Y102989D01*
X349638Y104299D01*
X350948Y105833D01*
X352001Y107552D01*
X352773Y109415D01*
X353244Y111376D01*
X353402Y113386D01*
X353244Y115396D01*
X352773Y117357D01*
X352001Y119220D01*
X350948Y120939D01*
X349638Y122473D01*
X348105Y123782D01*
X346385Y124836D01*
X344522Y125608D01*
X342562Y126078D01*
X340551Y126236D01*
X338541Y126078D01*
X336580Y125608D01*
X335236Y125051D01*
X333661Y125838D01*
Y130973D01*
X334775Y132087D01*
X390748D01*
X390748Y95799D01*
D02*
G37*
%LPC*%
G36*
X367896Y101075D02*
X364673D01*
Y97852D01*
X365154Y97916D01*
X366067Y98294D01*
X366852Y98896D01*
X367454Y99681D01*
X367832Y100594D01*
X367896Y101075D01*
D02*
G37*
G36*
X363673D02*
X360451D01*
X360514Y100594D01*
X360893Y99681D01*
X361494Y98896D01*
X362279Y98294D01*
X363193Y97916D01*
X363673Y97852D01*
Y101075D01*
D02*
G37*
G36*
X381752Y124019D02*
X378091D01*
X377280Y123912D01*
X376524Y123599D01*
X375875Y123101D01*
X375377Y122452D01*
X375064Y121697D01*
X374957Y120886D01*
X374999Y120567D01*
X374984Y118992D01*
X374984Y118992D01*
X374984Y118992D01*
Y116386D01*
X384858D01*
Y118992D01*
X384858Y118992D01*
X384843Y120567D01*
X384885Y120886D01*
X384778Y121697D01*
X384465Y122452D01*
X383967Y123101D01*
X383319Y123599D01*
X382563Y123912D01*
X381752Y124019D01*
D02*
G37*
G36*
X384858Y115386D02*
X374984D01*
Y112780D01*
X374984Y112780D01*
X374999Y111205D01*
X374957Y110886D01*
X375064Y110075D01*
X375377Y109319D01*
X375759Y108386D01*
X375377Y107452D01*
X375064Y106697D01*
X374957Y105886D01*
X375064Y105075D01*
X375377Y104319D01*
X375875Y103670D01*
X376524Y103173D01*
X377280Y102859D01*
X378091Y102753D01*
X381752D01*
X382563Y102859D01*
X383319Y103173D01*
X383967Y103670D01*
X384465Y104319D01*
X384778Y105075D01*
X384885Y105886D01*
X384778Y106697D01*
X384465Y107452D01*
X384084Y108386D01*
X384465Y109319D01*
X384778Y110075D01*
X384885Y110886D01*
X384843Y111205D01*
X384858Y112780D01*
X384858Y112780D01*
X384858Y112780D01*
Y115386D01*
D02*
G37*
G36*
X367929Y128953D02*
X360417D01*
Y121441D01*
X360783D01*
X361276Y120445D01*
X361391Y119866D01*
X360893Y119217D01*
X360514Y118303D01*
X360385Y117323D01*
X360514Y116342D01*
X360893Y115429D01*
X361494Y114644D01*
X361947Y114297D01*
X362092Y113613D01*
Y113158D01*
X361947Y112475D01*
X361494Y112128D01*
X360893Y111343D01*
X360514Y110429D01*
X360385Y109449D01*
X360514Y108468D01*
X360893Y107555D01*
X361494Y106770D01*
X361947Y106423D01*
X362092Y105739D01*
Y105284D01*
X361947Y104601D01*
X361494Y104254D01*
X360893Y103469D01*
X360514Y102555D01*
X360451Y102075D01*
X367896D01*
X367832Y102555D01*
X367454Y103469D01*
X366852Y104254D01*
X366399Y104601D01*
X366255Y105284D01*
Y105739D01*
X366399Y106423D01*
X366852Y106770D01*
X367454Y107555D01*
X367832Y108468D01*
X367962Y109449D01*
X367832Y110429D01*
X367454Y111343D01*
X366852Y112128D01*
X366399Y112475D01*
X366255Y113158D01*
Y113613D01*
X366399Y114297D01*
X366852Y114644D01*
X367454Y115429D01*
X367832Y116342D01*
X367962Y117323D01*
X367832Y118303D01*
X367454Y119217D01*
X366956Y119866D01*
X367071Y120445D01*
X367563Y121441D01*
X367929D01*
Y128953D01*
D02*
G37*
%LPD*%
G36*
X58071Y142649D02*
X56957Y141535D01*
X984D01*
Y147784D01*
X2559Y148571D01*
X3903Y148015D01*
X5864Y147544D01*
X7874Y147386D01*
X9884Y147544D01*
X11845Y148015D01*
X13708Y148786D01*
X15428Y149840D01*
X16961Y151149D01*
X18270Y152683D01*
X19324Y154402D01*
X20096Y156265D01*
X20567Y158226D01*
X20725Y160236D01*
X20567Y162247D01*
X20096Y164207D01*
X19324Y166070D01*
X18270Y167790D01*
X16961Y169323D01*
X15428Y170633D01*
X13708Y171686D01*
X11845Y172458D01*
X9884Y172929D01*
X7874Y173087D01*
X5864Y172929D01*
X3903Y172458D01*
X2559Y171901D01*
X984Y172688D01*
Y177823D01*
X2098Y178937D01*
X58071D01*
X58071Y142649D01*
D02*
G37*
%LPC*%
G36*
X35219Y147925D02*
X31996D01*
Y144703D01*
X32477Y144766D01*
X33390Y145144D01*
X34175Y145747D01*
X34777Y146531D01*
X35155Y147445D01*
X35219Y147925D01*
D02*
G37*
G36*
X30996D02*
X27774D01*
X27837Y147445D01*
X28215Y146531D01*
X28817Y145747D01*
X29602Y145144D01*
X30516Y144766D01*
X30996Y144703D01*
Y147925D01*
D02*
G37*
G36*
X49075Y170869D02*
X45413D01*
X44603Y170763D01*
X43847Y170450D01*
X43198Y169952D01*
X42700Y169303D01*
X42387Y168547D01*
X42280Y167736D01*
X42322Y167417D01*
X42307Y165843D01*
X42307Y165843D01*
X42307Y165842D01*
Y163236D01*
X52181D01*
Y165843D01*
X52181Y165843D01*
X52166Y167417D01*
X52208Y167736D01*
X52101Y168547D01*
X51788Y169303D01*
X51290Y169952D01*
X50641Y170450D01*
X49886Y170763D01*
X49075Y170869D01*
D02*
G37*
G36*
X52181Y162236D02*
X42307D01*
Y159630D01*
X42307Y159630D01*
X42322Y158055D01*
X42280Y157736D01*
X42387Y156925D01*
X42700Y156170D01*
X43082Y155236D01*
X42700Y154303D01*
X42387Y153547D01*
X42280Y152736D01*
X42387Y151925D01*
X42700Y151170D01*
X43198Y150521D01*
X43847Y150023D01*
X44603Y149710D01*
X45413Y149603D01*
X49075D01*
X49886Y149710D01*
X50641Y150023D01*
X51290Y150521D01*
X51788Y151170D01*
X52101Y151925D01*
X52208Y152736D01*
X52101Y153547D01*
X51788Y154303D01*
X51407Y155236D01*
X51788Y156170D01*
X52101Y156925D01*
X52208Y157736D01*
X52166Y158055D01*
X52181Y159630D01*
X52181Y159630D01*
X52181Y159630D01*
Y162236D01*
D02*
G37*
G36*
X35252Y175803D02*
X27740D01*
Y168291D01*
X28106D01*
X28598Y167295D01*
X28714Y166717D01*
X28215Y166067D01*
X27837Y165154D01*
X27708Y164173D01*
X27837Y163193D01*
X28215Y162279D01*
X28817Y161495D01*
X29270Y161147D01*
X29415Y160464D01*
Y160009D01*
X29270Y159325D01*
X28817Y158978D01*
X28215Y158193D01*
X27837Y157280D01*
X27708Y156299D01*
X27837Y155319D01*
X28215Y154405D01*
X28817Y153621D01*
X29270Y153273D01*
X29415Y152590D01*
Y152135D01*
X29270Y151451D01*
X28817Y151104D01*
X28215Y150319D01*
X27837Y149406D01*
X27774Y148925D01*
X35219D01*
X35155Y149406D01*
X34777Y150319D01*
X34175Y151104D01*
X33722Y151451D01*
X33577Y152135D01*
Y152590D01*
X33722Y153273D01*
X34175Y153621D01*
X34777Y154405D01*
X35155Y155319D01*
X35284Y156299D01*
X35155Y157280D01*
X34777Y158193D01*
X34175Y158978D01*
X33722Y159325D01*
X33577Y160009D01*
Y160464D01*
X33722Y161147D01*
X34175Y161495D01*
X34777Y162279D01*
X35155Y163193D01*
X35284Y164173D01*
X35155Y165154D01*
X34777Y166067D01*
X34279Y166717D01*
X34394Y167295D01*
X34886Y168291D01*
X35252D01*
Y175803D01*
D02*
G37*
%LPD*%
G36*
X124606Y142649D02*
X123493Y141535D01*
X67520D01*
Y147784D01*
X69095Y148571D01*
X70438Y148015D01*
X72399Y147544D01*
X74410Y147386D01*
X76420Y147544D01*
X78381Y148015D01*
X80244Y148786D01*
X81963Y149840D01*
X83496Y151149D01*
X84806Y152683D01*
X85860Y154402D01*
X86631Y156265D01*
X87102Y158226D01*
X87260Y160236D01*
X87102Y162247D01*
X86631Y164207D01*
X85860Y166070D01*
X84806Y167790D01*
X83496Y169323D01*
X81963Y170633D01*
X80244Y171686D01*
X78381Y172458D01*
X76420Y172929D01*
X74410Y173087D01*
X72399Y172929D01*
X70438Y172458D01*
X69095Y171901D01*
X67520Y172688D01*
Y177823D01*
X68633Y178937D01*
X124606D01*
X124606Y142649D01*
D02*
G37*
%LPC*%
G36*
X101754Y147925D02*
X98532D01*
Y144703D01*
X99012Y144766D01*
X99926Y145144D01*
X100710Y145747D01*
X101312Y146531D01*
X101691Y147445D01*
X101754Y147925D01*
D02*
G37*
G36*
X97531D02*
X94309D01*
X94372Y147445D01*
X94751Y146531D01*
X95353Y145747D01*
X96137Y145144D01*
X97051Y144766D01*
X97531Y144703D01*
Y147925D01*
D02*
G37*
G36*
X115610Y170869D02*
X111949D01*
X111138Y170763D01*
X110382Y170450D01*
X109733Y169952D01*
X109236Y169303D01*
X108923Y168547D01*
X108816Y167736D01*
X108858Y167417D01*
X108843Y165843D01*
X108843Y165843D01*
X108843Y165842D01*
Y163236D01*
X118717D01*
Y165843D01*
X118717Y165843D01*
X118701Y167417D01*
X118743Y167736D01*
X118637Y168547D01*
X118324Y169303D01*
X117826Y169952D01*
X117177Y170450D01*
X116421Y170763D01*
X115610Y170869D01*
D02*
G37*
G36*
X118717Y162236D02*
X108843D01*
Y159630D01*
X108843Y159630D01*
X108858Y158055D01*
X108816Y157736D01*
X108923Y156925D01*
X109236Y156170D01*
X109617Y155236D01*
X109236Y154303D01*
X108923Y153547D01*
X108816Y152736D01*
X108923Y151925D01*
X109236Y151170D01*
X109733Y150521D01*
X110382Y150023D01*
X111138Y149710D01*
X111949Y149603D01*
X115610D01*
X116421Y149710D01*
X117177Y150023D01*
X117826Y150521D01*
X118324Y151170D01*
X118637Y151925D01*
X118743Y152736D01*
X118637Y153547D01*
X118324Y154303D01*
X117942Y155236D01*
X118324Y156170D01*
X118637Y156925D01*
X118743Y157736D01*
X118701Y158055D01*
X118717Y159630D01*
X118717Y159630D01*
X118717Y159630D01*
Y162236D01*
D02*
G37*
G36*
X101787Y175803D02*
X94276D01*
Y168291D01*
X94642D01*
X95134Y167295D01*
X95249Y166717D01*
X94751Y166067D01*
X94372Y165154D01*
X94243Y164173D01*
X94372Y163193D01*
X94751Y162279D01*
X95353Y161495D01*
X95806Y161147D01*
X95950Y160464D01*
Y160009D01*
X95806Y159325D01*
X95353Y158978D01*
X94751Y158193D01*
X94372Y157280D01*
X94243Y156299D01*
X94372Y155319D01*
X94751Y154405D01*
X95353Y153621D01*
X95806Y153273D01*
X95950Y152590D01*
Y152135D01*
X95806Y151451D01*
X95353Y151104D01*
X94751Y150319D01*
X94372Y149406D01*
X94309Y148925D01*
X101754D01*
X101691Y149406D01*
X101312Y150319D01*
X100710Y151104D01*
X100258Y151451D01*
X100113Y152135D01*
Y152590D01*
X100258Y153273D01*
X100710Y153621D01*
X101312Y154405D01*
X101691Y155319D01*
X101820Y156299D01*
X101691Y157280D01*
X101312Y158193D01*
X100710Y158978D01*
X100258Y159325D01*
X100113Y160009D01*
Y160464D01*
X100258Y161147D01*
X100710Y161495D01*
X101312Y162279D01*
X101691Y163193D01*
X101820Y164173D01*
X101691Y165154D01*
X101312Y166067D01*
X100814Y166717D01*
X100929Y167295D01*
X101421Y168291D01*
X101787D01*
Y175803D01*
D02*
G37*
%LPD*%
G36*
X191142Y142649D02*
X190028Y141535D01*
X134055D01*
Y147784D01*
X135630Y148571D01*
X136974Y148015D01*
X138935Y147544D01*
X140945Y147386D01*
X142955Y147544D01*
X144916Y148015D01*
X146779Y148786D01*
X148498Y149840D01*
X150032Y151149D01*
X151341Y152683D01*
X152395Y154402D01*
X153167Y156265D01*
X153637Y158226D01*
X153796Y160236D01*
X153637Y162247D01*
X153167Y164207D01*
X152395Y166070D01*
X151341Y167790D01*
X150032Y169323D01*
X148498Y170633D01*
X146779Y171686D01*
X144916Y172458D01*
X142955Y172929D01*
X140945Y173087D01*
X138935Y172929D01*
X136974Y172458D01*
X135630Y171901D01*
X134055Y172688D01*
Y177823D01*
X135169Y178937D01*
X191142D01*
X191142Y142649D01*
D02*
G37*
%LPC*%
G36*
X168289Y147925D02*
X165067D01*
Y144703D01*
X165548Y144766D01*
X166461Y145144D01*
X167246Y145747D01*
X167848Y146531D01*
X168226Y147445D01*
X168289Y147925D01*
D02*
G37*
G36*
X164067D02*
X160845D01*
X160908Y147445D01*
X161286Y146531D01*
X161888Y145747D01*
X162673Y145144D01*
X163586Y144766D01*
X164067Y144703D01*
Y147925D01*
D02*
G37*
G36*
X182146Y170869D02*
X178484D01*
X177673Y170763D01*
X176918Y170450D01*
X176269Y169952D01*
X175771Y169303D01*
X175458Y168547D01*
X175351Y167736D01*
X175393Y167417D01*
X175378Y165843D01*
X175378Y165843D01*
X175378Y165842D01*
Y163236D01*
X185252D01*
Y165843D01*
X185252Y165843D01*
X185237Y167417D01*
X185279Y167736D01*
X185172Y168547D01*
X184859Y169303D01*
X184361Y169952D01*
X183712Y170450D01*
X182957Y170763D01*
X182146Y170869D01*
D02*
G37*
G36*
X185252Y162236D02*
X175378D01*
Y159630D01*
X175378Y159630D01*
X175393Y158055D01*
X175351Y157736D01*
X175458Y156925D01*
X175771Y156170D01*
X176153Y155236D01*
X175771Y154303D01*
X175458Y153547D01*
X175351Y152736D01*
X175458Y151925D01*
X175771Y151170D01*
X176269Y150521D01*
X176918Y150023D01*
X177673Y149710D01*
X178484Y149603D01*
X182146D01*
X182957Y149710D01*
X183712Y150023D01*
X184361Y150521D01*
X184859Y151170D01*
X185172Y151925D01*
X185279Y152736D01*
X185172Y153547D01*
X184859Y154303D01*
X184477Y155236D01*
X184859Y156170D01*
X185172Y156925D01*
X185279Y157736D01*
X185237Y158055D01*
X185252Y159630D01*
X185252Y159630D01*
X185252Y159630D01*
Y162236D01*
D02*
G37*
G36*
X168323Y175803D02*
X160811D01*
Y168291D01*
X161177D01*
X161669Y167295D01*
X161784Y166717D01*
X161286Y166067D01*
X160908Y165154D01*
X160779Y164173D01*
X160908Y163193D01*
X161286Y162279D01*
X161888Y161495D01*
X162341Y161147D01*
X162486Y160464D01*
Y160009D01*
X162341Y159325D01*
X161888Y158978D01*
X161286Y158193D01*
X160908Y157280D01*
X160779Y156299D01*
X160908Y155319D01*
X161286Y154405D01*
X161888Y153621D01*
X162341Y153273D01*
X162486Y152590D01*
Y152135D01*
X162341Y151451D01*
X161888Y151104D01*
X161286Y150319D01*
X160908Y149406D01*
X160845Y148925D01*
X168289D01*
X168226Y149406D01*
X167848Y150319D01*
X167246Y151104D01*
X166793Y151451D01*
X166648Y152135D01*
Y152590D01*
X166793Y153273D01*
X167246Y153621D01*
X167848Y154405D01*
X168226Y155319D01*
X168355Y156299D01*
X168226Y157280D01*
X167848Y158193D01*
X167246Y158978D01*
X166793Y159325D01*
X166648Y160009D01*
Y160464D01*
X166793Y161147D01*
X167246Y161495D01*
X167848Y162279D01*
X168226Y163193D01*
X168355Y164173D01*
X168226Y165154D01*
X167848Y166067D01*
X167350Y166717D01*
X167464Y167295D01*
X167957Y168291D01*
X168323D01*
Y175803D01*
D02*
G37*
%LPD*%
G36*
X257677Y142649D02*
X256564Y141535D01*
X200591D01*
Y147784D01*
X202165Y148571D01*
X203509Y148015D01*
X205470Y147544D01*
X207480Y147386D01*
X209491Y147544D01*
X211451Y148015D01*
X213314Y148786D01*
X215034Y149840D01*
X216567Y151149D01*
X217877Y152683D01*
X218930Y154402D01*
X219702Y156265D01*
X220173Y158226D01*
X220331Y160236D01*
X220173Y162247D01*
X219702Y164207D01*
X218930Y166070D01*
X217877Y167790D01*
X216567Y169323D01*
X215034Y170633D01*
X213314Y171686D01*
X211451Y172458D01*
X209491Y172929D01*
X207480Y173087D01*
X205470Y172929D01*
X203509Y172458D01*
X202165Y171901D01*
X200591Y172688D01*
Y177823D01*
X201704Y178937D01*
X257677D01*
X257677Y142649D01*
D02*
G37*
%LPC*%
G36*
X234825Y147925D02*
X231602D01*
Y144703D01*
X232083Y144766D01*
X232997Y145144D01*
X233781Y145747D01*
X234383Y146531D01*
X234762Y147445D01*
X234825Y147925D01*
D02*
G37*
G36*
X230602D02*
X227380D01*
X227443Y147445D01*
X227822Y146531D01*
X228424Y145747D01*
X229208Y145144D01*
X230122Y144766D01*
X230602Y144703D01*
Y147925D01*
D02*
G37*
G36*
X248681Y170869D02*
X245020D01*
X244209Y170763D01*
X243453Y170450D01*
X242804Y169952D01*
X242306Y169303D01*
X241993Y168547D01*
X241887Y167736D01*
X241929Y167417D01*
X241913Y165843D01*
X241913Y165843D01*
X241913Y165842D01*
Y163236D01*
X251787D01*
Y165843D01*
X251787Y165843D01*
X251772Y167417D01*
X251814Y167736D01*
X251708Y168547D01*
X251395Y169303D01*
X250897Y169952D01*
X250248Y170450D01*
X249492Y170763D01*
X248681Y170869D01*
D02*
G37*
G36*
X251787Y162236D02*
X241913D01*
Y159630D01*
X241913Y159630D01*
X241929Y158055D01*
X241887Y157736D01*
X241993Y156925D01*
X242306Y156170D01*
X242688Y155236D01*
X242306Y154303D01*
X241993Y153547D01*
X241887Y152736D01*
X241993Y151925D01*
X242306Y151170D01*
X242804Y150521D01*
X243453Y150023D01*
X244209Y149710D01*
X245020Y149603D01*
X248681D01*
X249492Y149710D01*
X250248Y150023D01*
X250897Y150521D01*
X251395Y151170D01*
X251708Y151925D01*
X251814Y152736D01*
X251708Y153547D01*
X251395Y154303D01*
X251013Y155236D01*
X251395Y156170D01*
X251708Y156925D01*
X251814Y157736D01*
X251772Y158055D01*
X251787Y159630D01*
X251787Y159630D01*
X251787Y159630D01*
Y162236D01*
D02*
G37*
G36*
X234858Y175803D02*
X227346D01*
Y168291D01*
X227713D01*
X228205Y167295D01*
X228320Y166717D01*
X227822Y166067D01*
X227443Y165154D01*
X227314Y164173D01*
X227443Y163193D01*
X227822Y162279D01*
X228424Y161495D01*
X228876Y161147D01*
X229021Y160464D01*
Y160009D01*
X228876Y159325D01*
X228424Y158978D01*
X227822Y158193D01*
X227443Y157280D01*
X227314Y156299D01*
X227443Y155319D01*
X227822Y154405D01*
X228424Y153621D01*
X228876Y153273D01*
X229021Y152590D01*
Y152135D01*
X228876Y151451D01*
X228424Y151104D01*
X227822Y150319D01*
X227443Y149406D01*
X227380Y148925D01*
X234825D01*
X234762Y149406D01*
X234383Y150319D01*
X233781Y151104D01*
X233328Y151451D01*
X233184Y152135D01*
Y152590D01*
X233328Y153273D01*
X233781Y153621D01*
X234383Y154405D01*
X234762Y155319D01*
X234891Y156299D01*
X234762Y157280D01*
X234383Y158193D01*
X233781Y158978D01*
X233328Y159325D01*
X233184Y160009D01*
Y160464D01*
X233328Y161147D01*
X233781Y161495D01*
X234383Y162279D01*
X234762Y163193D01*
X234891Y164173D01*
X234762Y165154D01*
X234383Y166067D01*
X233885Y166717D01*
X234000Y167295D01*
X234492Y168291D01*
X234858D01*
Y175803D01*
D02*
G37*
%LPD*%
G36*
X324213Y142649D02*
X323099Y141535D01*
X267126D01*
Y147784D01*
X268701Y148571D01*
X270045Y148015D01*
X272006Y147544D01*
X274016Y147386D01*
X276026Y147544D01*
X277987Y148015D01*
X279850Y148786D01*
X281569Y149840D01*
X283103Y151149D01*
X284412Y152683D01*
X285466Y154402D01*
X286238Y156265D01*
X286708Y158226D01*
X286866Y160236D01*
X286708Y162247D01*
X286238Y164207D01*
X285466Y166070D01*
X284412Y167790D01*
X283103Y169323D01*
X281569Y170633D01*
X279850Y171686D01*
X277987Y172458D01*
X276026Y172929D01*
X274016Y173087D01*
X272006Y172929D01*
X270045Y172458D01*
X268701Y171901D01*
X267126Y172688D01*
Y177823D01*
X268240Y178937D01*
X324213D01*
X324213Y142649D01*
D02*
G37*
%LPC*%
G36*
X301360Y147925D02*
X298138D01*
Y144703D01*
X298618Y144766D01*
X299532Y145144D01*
X300317Y145747D01*
X300919Y146531D01*
X301297Y147445D01*
X301360Y147925D01*
D02*
G37*
G36*
X297138D02*
X293915D01*
X293979Y147445D01*
X294357Y146531D01*
X294959Y145747D01*
X295744Y145144D01*
X296657Y144766D01*
X297138Y144703D01*
Y147925D01*
D02*
G37*
G36*
X315217Y170869D02*
X311555D01*
X310744Y170763D01*
X309989Y170450D01*
X309340Y169952D01*
X308842Y169303D01*
X308529Y168547D01*
X308422Y167736D01*
X308464Y167417D01*
X308449Y165843D01*
X308449Y165843D01*
X308449Y165842D01*
Y163236D01*
X318323D01*
Y165843D01*
X318323Y165843D01*
X318308Y167417D01*
X318350Y167736D01*
X318243Y168547D01*
X317930Y169303D01*
X317432Y169952D01*
X316783Y170450D01*
X316027Y170763D01*
X315217Y170869D01*
D02*
G37*
G36*
X318323Y162236D02*
X308449D01*
Y159630D01*
X308449Y159630D01*
X308464Y158055D01*
X308422Y157736D01*
X308529Y156925D01*
X308842Y156170D01*
X309223Y155236D01*
X308842Y154303D01*
X308529Y153547D01*
X308422Y152736D01*
X308529Y151925D01*
X308842Y151170D01*
X309340Y150521D01*
X309989Y150023D01*
X310744Y149710D01*
X311555Y149603D01*
X315217D01*
X316027Y149710D01*
X316783Y150023D01*
X317432Y150521D01*
X317930Y151170D01*
X318243Y151925D01*
X318350Y152736D01*
X318243Y153547D01*
X317930Y154303D01*
X317548Y155236D01*
X317930Y156170D01*
X318243Y156925D01*
X318350Y157736D01*
X318308Y158055D01*
X318323Y159630D01*
X318323Y159630D01*
X318323Y159630D01*
Y162236D01*
D02*
G37*
G36*
X301394Y175803D02*
X293882D01*
Y168291D01*
X294248D01*
X294740Y167295D01*
X294855Y166717D01*
X294357Y166067D01*
X293979Y165154D01*
X293849Y164173D01*
X293979Y163193D01*
X294357Y162279D01*
X294959Y161495D01*
X295412Y161147D01*
X295556Y160464D01*
Y160009D01*
X295412Y159325D01*
X294959Y158978D01*
X294357Y158193D01*
X293979Y157280D01*
X293849Y156299D01*
X293979Y155319D01*
X294357Y154405D01*
X294959Y153621D01*
X295412Y153273D01*
X295556Y152590D01*
Y152135D01*
X295412Y151451D01*
X294959Y151104D01*
X294357Y150319D01*
X293979Y149406D01*
X293915Y148925D01*
X301360D01*
X301297Y149406D01*
X300919Y150319D01*
X300317Y151104D01*
X299864Y151451D01*
X299719Y152135D01*
Y152590D01*
X299864Y153273D01*
X300317Y153621D01*
X300919Y154405D01*
X301297Y155319D01*
X301426Y156299D01*
X301297Y157280D01*
X300919Y158193D01*
X300317Y158978D01*
X299864Y159325D01*
X299719Y160009D01*
Y160464D01*
X299864Y161147D01*
X300317Y161495D01*
X300919Y162279D01*
X301297Y163193D01*
X301426Y164173D01*
X301297Y165154D01*
X300919Y166067D01*
X300420Y166717D01*
X300535Y167295D01*
X301028Y168291D01*
X301394D01*
Y175803D01*
D02*
G37*
%LPD*%
G36*
X390748Y142649D02*
X389634Y141535D01*
X333661D01*
Y147784D01*
X335236Y148571D01*
X336580Y148015D01*
X338541Y147544D01*
X340551Y147386D01*
X342562Y147544D01*
X344522Y148015D01*
X346385Y148786D01*
X348105Y149840D01*
X349638Y151149D01*
X350948Y152683D01*
X352001Y154402D01*
X352773Y156265D01*
X353244Y158226D01*
X353402Y160236D01*
X353244Y162247D01*
X352773Y164207D01*
X352001Y166070D01*
X350948Y167790D01*
X349638Y169323D01*
X348105Y170633D01*
X346385Y171686D01*
X344522Y172458D01*
X342562Y172929D01*
X340551Y173087D01*
X338541Y172929D01*
X336580Y172458D01*
X335236Y171901D01*
X333661Y172688D01*
Y177823D01*
X334775Y178937D01*
X390748D01*
X390748Y142649D01*
D02*
G37*
%LPC*%
G36*
X367896Y147925D02*
X364673D01*
Y144703D01*
X365154Y144766D01*
X366067Y145144D01*
X366852Y145747D01*
X367454Y146531D01*
X367832Y147445D01*
X367896Y147925D01*
D02*
G37*
G36*
X363673D02*
X360451D01*
X360514Y147445D01*
X360893Y146531D01*
X361494Y145747D01*
X362279Y145144D01*
X363193Y144766D01*
X363673Y144703D01*
Y147925D01*
D02*
G37*
G36*
X381752Y170869D02*
X378091D01*
X377280Y170763D01*
X376524Y170450D01*
X375875Y169952D01*
X375377Y169303D01*
X375064Y168547D01*
X374957Y167736D01*
X374999Y167417D01*
X374984Y165843D01*
X374984Y165843D01*
X374984Y165842D01*
Y163236D01*
X384858D01*
Y165843D01*
X384858Y165843D01*
X384843Y167417D01*
X384885Y167736D01*
X384778Y168547D01*
X384465Y169303D01*
X383967Y169952D01*
X383319Y170450D01*
X382563Y170763D01*
X381752Y170869D01*
D02*
G37*
G36*
X384858Y162236D02*
X374984D01*
Y159630D01*
X374984Y159630D01*
X374999Y158055D01*
X374957Y157736D01*
X375064Y156925D01*
X375377Y156170D01*
X375759Y155236D01*
X375377Y154303D01*
X375064Y153547D01*
X374957Y152736D01*
X375064Y151925D01*
X375377Y151170D01*
X375875Y150521D01*
X376524Y150023D01*
X377280Y149710D01*
X378091Y149603D01*
X381752D01*
X382563Y149710D01*
X383319Y150023D01*
X383967Y150521D01*
X384465Y151170D01*
X384778Y151925D01*
X384885Y152736D01*
X384778Y153547D01*
X384465Y154303D01*
X384084Y155236D01*
X384465Y156170D01*
X384778Y156925D01*
X384885Y157736D01*
X384843Y158055D01*
X384858Y159630D01*
X384858Y159630D01*
X384858Y159630D01*
Y162236D01*
D02*
G37*
G36*
X367929Y175803D02*
X360417D01*
Y168291D01*
X360783D01*
X361276Y167295D01*
X361391Y166717D01*
X360893Y166067D01*
X360514Y165154D01*
X360385Y164173D01*
X360514Y163193D01*
X360893Y162279D01*
X361494Y161495D01*
X361947Y161147D01*
X362092Y160464D01*
Y160009D01*
X361947Y159325D01*
X361494Y158978D01*
X360893Y158193D01*
X360514Y157280D01*
X360385Y156299D01*
X360514Y155319D01*
X360893Y154405D01*
X361494Y153621D01*
X361947Y153273D01*
X362092Y152590D01*
Y152135D01*
X361947Y151451D01*
X361494Y151104D01*
X360893Y150319D01*
X360514Y149406D01*
X360451Y148925D01*
X367896D01*
X367832Y149406D01*
X367454Y150319D01*
X366852Y151104D01*
X366399Y151451D01*
X366255Y152135D01*
Y152590D01*
X366399Y153273D01*
X366852Y153621D01*
X367454Y154405D01*
X367832Y155319D01*
X367962Y156299D01*
X367832Y157280D01*
X367454Y158193D01*
X366852Y158978D01*
X366399Y159325D01*
X366255Y160009D01*
Y160464D01*
X366399Y161147D01*
X366852Y161495D01*
X367454Y162279D01*
X367832Y163193D01*
X367962Y164173D01*
X367832Y165154D01*
X367454Y166067D01*
X366956Y166717D01*
X367071Y167295D01*
X367563Y168291D01*
X367929D01*
Y175803D01*
D02*
G37*
%LPD*%
G36*
X58071Y189499D02*
X56957Y188386D01*
X984D01*
Y194635D01*
X2559Y195422D01*
X3903Y194865D01*
X5864Y194394D01*
X7874Y194236D01*
X9884Y194394D01*
X11845Y194865D01*
X13708Y195637D01*
X15428Y196690D01*
X16961Y198000D01*
X18270Y199533D01*
X19324Y201253D01*
X20096Y203116D01*
X20567Y205076D01*
X20725Y207087D01*
X20567Y209097D01*
X20096Y211058D01*
X19324Y212921D01*
X18270Y214640D01*
X16961Y216173D01*
X15428Y217483D01*
X13708Y218537D01*
X11845Y219308D01*
X9884Y219779D01*
X7874Y219937D01*
X5864Y219779D01*
X3903Y219308D01*
X2559Y218752D01*
X984Y219538D01*
Y224674D01*
X2098Y225787D01*
X58071D01*
X58071Y189499D01*
D02*
G37*
%LPC*%
G36*
X35219Y194776D02*
X31996D01*
Y191553D01*
X32477Y191616D01*
X33390Y191995D01*
X34175Y192597D01*
X34777Y193382D01*
X35155Y194295D01*
X35219Y194776D01*
D02*
G37*
G36*
X30996D02*
X27774D01*
X27837Y194295D01*
X28215Y193382D01*
X28817Y192597D01*
X29602Y191995D01*
X30516Y191616D01*
X30996Y191553D01*
Y194776D01*
D02*
G37*
G36*
X49075Y217720D02*
X45413D01*
X44603Y217613D01*
X43847Y217300D01*
X43198Y216802D01*
X42700Y216153D01*
X42387Y215398D01*
X42280Y214587D01*
X42322Y214268D01*
X42307Y212693D01*
X42307Y212693D01*
X42307Y212693D01*
Y210087D01*
X52181D01*
Y212693D01*
X52181Y212693D01*
X52166Y214268D01*
X52208Y214587D01*
X52101Y215398D01*
X51788Y216153D01*
X51290Y216802D01*
X50641Y217300D01*
X49886Y217613D01*
X49075Y217720D01*
D02*
G37*
G36*
X52181Y209087D02*
X42307D01*
Y206480D01*
X42307Y206480D01*
X42322Y204906D01*
X42280Y204587D01*
X42387Y203776D01*
X42700Y203020D01*
X43082Y202087D01*
X42700Y201153D01*
X42387Y200398D01*
X42280Y199587D01*
X42387Y198776D01*
X42700Y198020D01*
X43198Y197371D01*
X43847Y196873D01*
X44603Y196560D01*
X45413Y196453D01*
X49075D01*
X49886Y196560D01*
X50641Y196873D01*
X51290Y197371D01*
X51788Y198020D01*
X52101Y198776D01*
X52208Y199587D01*
X52101Y200398D01*
X51788Y201153D01*
X51407Y202087D01*
X51788Y203020D01*
X52101Y203776D01*
X52208Y204587D01*
X52166Y204906D01*
X52181Y206480D01*
X52181Y206480D01*
X52181Y206480D01*
Y209087D01*
D02*
G37*
G36*
X35252Y222654D02*
X27740D01*
Y215142D01*
X28106D01*
X28598Y214145D01*
X28714Y213567D01*
X28215Y212918D01*
X27837Y212004D01*
X27708Y211024D01*
X27837Y210043D01*
X28215Y209130D01*
X28817Y208345D01*
X29270Y207997D01*
X29415Y207314D01*
Y206859D01*
X29270Y206176D01*
X28817Y205828D01*
X28215Y205044D01*
X27837Y204130D01*
X27708Y203150D01*
X27837Y202169D01*
X28215Y201255D01*
X28817Y200471D01*
X29270Y200124D01*
X29415Y199440D01*
Y198985D01*
X29270Y198302D01*
X28817Y197954D01*
X28215Y197170D01*
X27837Y196256D01*
X27774Y195776D01*
X35219D01*
X35155Y196256D01*
X34777Y197170D01*
X34175Y197954D01*
X33722Y198302D01*
X33577Y198985D01*
Y199440D01*
X33722Y200124D01*
X34175Y200471D01*
X34777Y201255D01*
X35155Y202169D01*
X35284Y203150D01*
X35155Y204130D01*
X34777Y205044D01*
X34175Y205828D01*
X33722Y206176D01*
X33577Y206859D01*
Y207314D01*
X33722Y207997D01*
X34175Y208345D01*
X34777Y209130D01*
X35155Y210043D01*
X35284Y211024D01*
X35155Y212004D01*
X34777Y212918D01*
X34279Y213567D01*
X34394Y214145D01*
X34886Y215142D01*
X35252D01*
Y222654D01*
D02*
G37*
%LPD*%
G36*
X124606Y189499D02*
X123493Y188386D01*
X67520D01*
Y194635D01*
X69095Y195422D01*
X70438Y194865D01*
X72399Y194394D01*
X74410Y194236D01*
X76420Y194394D01*
X78381Y194865D01*
X80244Y195637D01*
X81963Y196690D01*
X83496Y198000D01*
X84806Y199533D01*
X85860Y201253D01*
X86631Y203116D01*
X87102Y205076D01*
X87260Y207087D01*
X87102Y209097D01*
X86631Y211058D01*
X85860Y212921D01*
X84806Y214640D01*
X83496Y216173D01*
X81963Y217483D01*
X80244Y218537D01*
X78381Y219308D01*
X76420Y219779D01*
X74410Y219937D01*
X72399Y219779D01*
X70438Y219308D01*
X69095Y218752D01*
X67520Y219538D01*
Y224674D01*
X68633Y225787D01*
X124606D01*
X124606Y189499D01*
D02*
G37*
%LPC*%
G36*
X101754Y194776D02*
X98532D01*
Y191553D01*
X99012Y191616D01*
X99926Y191995D01*
X100710Y192597D01*
X101312Y193382D01*
X101691Y194295D01*
X101754Y194776D01*
D02*
G37*
G36*
X97531D02*
X94309D01*
X94372Y194295D01*
X94751Y193382D01*
X95353Y192597D01*
X96137Y191995D01*
X97051Y191616D01*
X97531Y191553D01*
Y194776D01*
D02*
G37*
G36*
X115610Y217720D02*
X111949D01*
X111138Y217613D01*
X110382Y217300D01*
X109733Y216802D01*
X109236Y216153D01*
X108923Y215398D01*
X108816Y214587D01*
X108858Y214268D01*
X108843Y212693D01*
X108843Y212693D01*
X108843Y212693D01*
Y210087D01*
X118717D01*
Y212693D01*
X118717Y212693D01*
X118701Y214268D01*
X118743Y214587D01*
X118637Y215398D01*
X118324Y216153D01*
X117826Y216802D01*
X117177Y217300D01*
X116421Y217613D01*
X115610Y217720D01*
D02*
G37*
G36*
X118717Y209087D02*
X108843D01*
Y206480D01*
X108843Y206480D01*
X108858Y204906D01*
X108816Y204587D01*
X108923Y203776D01*
X109236Y203020D01*
X109617Y202087D01*
X109236Y201153D01*
X108923Y200398D01*
X108816Y199587D01*
X108923Y198776D01*
X109236Y198020D01*
X109733Y197371D01*
X110382Y196873D01*
X111138Y196560D01*
X111949Y196453D01*
X115610D01*
X116421Y196560D01*
X117177Y196873D01*
X117826Y197371D01*
X118324Y198020D01*
X118637Y198776D01*
X118743Y199587D01*
X118637Y200398D01*
X118324Y201153D01*
X117942Y202087D01*
X118324Y203020D01*
X118637Y203776D01*
X118743Y204587D01*
X118701Y204906D01*
X118717Y206480D01*
X118717Y206480D01*
X118717Y206480D01*
Y209087D01*
D02*
G37*
G36*
X101787Y222654D02*
X94276D01*
Y215142D01*
X94642D01*
X95134Y214145D01*
X95249Y213567D01*
X94751Y212918D01*
X94372Y212004D01*
X94243Y211024D01*
X94372Y210043D01*
X94751Y209130D01*
X95353Y208345D01*
X95806Y207997D01*
X95950Y207314D01*
Y206859D01*
X95806Y206176D01*
X95353Y205828D01*
X94751Y205044D01*
X94372Y204130D01*
X94243Y203150D01*
X94372Y202169D01*
X94751Y201255D01*
X95353Y200471D01*
X95806Y200124D01*
X95950Y199440D01*
Y198985D01*
X95806Y198302D01*
X95353Y197954D01*
X94751Y197170D01*
X94372Y196256D01*
X94309Y195776D01*
X101754D01*
X101691Y196256D01*
X101312Y197170D01*
X100710Y197954D01*
X100258Y198302D01*
X100113Y198985D01*
Y199440D01*
X100258Y200124D01*
X100710Y200471D01*
X101312Y201255D01*
X101691Y202169D01*
X101820Y203150D01*
X101691Y204130D01*
X101312Y205044D01*
X100710Y205828D01*
X100258Y206176D01*
X100113Y206859D01*
Y207314D01*
X100258Y207997D01*
X100710Y208345D01*
X101312Y209130D01*
X101691Y210043D01*
X101820Y211024D01*
X101691Y212004D01*
X101312Y212918D01*
X100814Y213567D01*
X100929Y214145D01*
X101421Y215142D01*
X101787D01*
Y222654D01*
D02*
G37*
%LPD*%
G36*
X191142Y189499D02*
X190028Y188386D01*
X134055D01*
Y194635D01*
X135630Y195422D01*
X136974Y194865D01*
X138935Y194394D01*
X140945Y194236D01*
X142955Y194394D01*
X144916Y194865D01*
X146779Y195637D01*
X148498Y196690D01*
X150032Y198000D01*
X151341Y199533D01*
X152395Y201253D01*
X153167Y203116D01*
X153637Y205076D01*
X153796Y207087D01*
X153637Y209097D01*
X153167Y211058D01*
X152395Y212921D01*
X151341Y214640D01*
X150032Y216173D01*
X148498Y217483D01*
X146779Y218537D01*
X144916Y219308D01*
X142955Y219779D01*
X140945Y219937D01*
X138935Y219779D01*
X136974Y219308D01*
X135630Y218752D01*
X134055Y219538D01*
Y224674D01*
X135169Y225787D01*
X191142D01*
X191142Y189499D01*
D02*
G37*
%LPC*%
G36*
X168289Y194776D02*
X165067D01*
Y191553D01*
X165548Y191616D01*
X166461Y191995D01*
X167246Y192597D01*
X167848Y193382D01*
X168226Y194295D01*
X168289Y194776D01*
D02*
G37*
G36*
X164067D02*
X160845D01*
X160908Y194295D01*
X161286Y193382D01*
X161888Y192597D01*
X162673Y191995D01*
X163586Y191616D01*
X164067Y191553D01*
Y194776D01*
D02*
G37*
G36*
X182146Y217720D02*
X178484D01*
X177673Y217613D01*
X176918Y217300D01*
X176269Y216802D01*
X175771Y216153D01*
X175458Y215398D01*
X175351Y214587D01*
X175393Y214268D01*
X175378Y212693D01*
X175378Y212693D01*
X175378Y212693D01*
Y210087D01*
X185252D01*
Y212693D01*
X185252Y212693D01*
X185237Y214268D01*
X185279Y214587D01*
X185172Y215398D01*
X184859Y216153D01*
X184361Y216802D01*
X183712Y217300D01*
X182957Y217613D01*
X182146Y217720D01*
D02*
G37*
G36*
X185252Y209087D02*
X175378D01*
Y206480D01*
X175378Y206480D01*
X175393Y204906D01*
X175351Y204587D01*
X175458Y203776D01*
X175771Y203020D01*
X176153Y202087D01*
X175771Y201153D01*
X175458Y200398D01*
X175351Y199587D01*
X175458Y198776D01*
X175771Y198020D01*
X176269Y197371D01*
X176918Y196873D01*
X177673Y196560D01*
X178484Y196453D01*
X182146D01*
X182957Y196560D01*
X183712Y196873D01*
X184361Y197371D01*
X184859Y198020D01*
X185172Y198776D01*
X185279Y199587D01*
X185172Y200398D01*
X184859Y201153D01*
X184477Y202087D01*
X184859Y203020D01*
X185172Y203776D01*
X185279Y204587D01*
X185237Y204906D01*
X185252Y206480D01*
X185252Y206480D01*
X185252Y206480D01*
Y209087D01*
D02*
G37*
G36*
X168323Y222654D02*
X160811D01*
Y215142D01*
X161177D01*
X161669Y214145D01*
X161784Y213567D01*
X161286Y212918D01*
X160908Y212004D01*
X160779Y211024D01*
X160908Y210043D01*
X161286Y209130D01*
X161888Y208345D01*
X162341Y207997D01*
X162486Y207314D01*
Y206859D01*
X162341Y206176D01*
X161888Y205828D01*
X161286Y205044D01*
X160908Y204130D01*
X160779Y203150D01*
X160908Y202169D01*
X161286Y201255D01*
X161888Y200471D01*
X162341Y200124D01*
X162486Y199440D01*
Y198985D01*
X162341Y198302D01*
X161888Y197954D01*
X161286Y197170D01*
X160908Y196256D01*
X160845Y195776D01*
X168289D01*
X168226Y196256D01*
X167848Y197170D01*
X167246Y197954D01*
X166793Y198302D01*
X166648Y198985D01*
Y199440D01*
X166793Y200124D01*
X167246Y200471D01*
X167848Y201255D01*
X168226Y202169D01*
X168355Y203150D01*
X168226Y204130D01*
X167848Y205044D01*
X167246Y205828D01*
X166793Y206176D01*
X166648Y206859D01*
Y207314D01*
X166793Y207997D01*
X167246Y208345D01*
X167848Y209130D01*
X168226Y210043D01*
X168355Y211024D01*
X168226Y212004D01*
X167848Y212918D01*
X167350Y213567D01*
X167464Y214145D01*
X167957Y215142D01*
X168323D01*
Y222654D01*
D02*
G37*
%LPD*%
G36*
X257677Y189499D02*
X256564Y188386D01*
X200591D01*
Y194635D01*
X202165Y195422D01*
X203509Y194865D01*
X205470Y194394D01*
X207480Y194236D01*
X209491Y194394D01*
X211451Y194865D01*
X213314Y195637D01*
X215034Y196690D01*
X216567Y198000D01*
X217877Y199533D01*
X218930Y201253D01*
X219702Y203116D01*
X220173Y205076D01*
X220331Y207087D01*
X220173Y209097D01*
X219702Y211058D01*
X218930Y212921D01*
X217877Y214640D01*
X216567Y216173D01*
X215034Y217483D01*
X213314Y218537D01*
X211451Y219308D01*
X209491Y219779D01*
X207480Y219937D01*
X205470Y219779D01*
X203509Y219308D01*
X202165Y218752D01*
X200591Y219538D01*
Y224674D01*
X201704Y225787D01*
X257677D01*
X257677Y189499D01*
D02*
G37*
%LPC*%
G36*
X234825Y194776D02*
X231602D01*
Y191553D01*
X232083Y191616D01*
X232997Y191995D01*
X233781Y192597D01*
X234383Y193382D01*
X234762Y194295D01*
X234825Y194776D01*
D02*
G37*
G36*
X230602D02*
X227380D01*
X227443Y194295D01*
X227822Y193382D01*
X228424Y192597D01*
X229208Y191995D01*
X230122Y191616D01*
X230602Y191553D01*
Y194776D01*
D02*
G37*
G36*
X248681Y217720D02*
X245020D01*
X244209Y217613D01*
X243453Y217300D01*
X242804Y216802D01*
X242306Y216153D01*
X241993Y215398D01*
X241887Y214587D01*
X241929Y214268D01*
X241913Y212693D01*
X241913Y212693D01*
X241913Y212693D01*
Y210087D01*
X251787D01*
Y212693D01*
X251787Y212693D01*
X251772Y214268D01*
X251814Y214587D01*
X251708Y215398D01*
X251395Y216153D01*
X250897Y216802D01*
X250248Y217300D01*
X249492Y217613D01*
X248681Y217720D01*
D02*
G37*
G36*
X251787Y209087D02*
X241913D01*
Y206480D01*
X241913Y206480D01*
X241929Y204906D01*
X241887Y204587D01*
X241993Y203776D01*
X242306Y203020D01*
X242688Y202087D01*
X242306Y201153D01*
X241993Y200398D01*
X241887Y199587D01*
X241993Y198776D01*
X242306Y198020D01*
X242804Y197371D01*
X243453Y196873D01*
X244209Y196560D01*
X245020Y196453D01*
X248681D01*
X249492Y196560D01*
X250248Y196873D01*
X250897Y197371D01*
X251395Y198020D01*
X251708Y198776D01*
X251814Y199587D01*
X251708Y200398D01*
X251395Y201153D01*
X251013Y202087D01*
X251395Y203020D01*
X251708Y203776D01*
X251814Y204587D01*
X251772Y204906D01*
X251787Y206480D01*
X251787Y206480D01*
X251787Y206480D01*
Y209087D01*
D02*
G37*
G36*
X234858Y222654D02*
X227346D01*
Y215142D01*
X227713D01*
X228205Y214145D01*
X228320Y213567D01*
X227822Y212918D01*
X227443Y212004D01*
X227314Y211024D01*
X227443Y210043D01*
X227822Y209130D01*
X228424Y208345D01*
X228876Y207997D01*
X229021Y207314D01*
Y206859D01*
X228876Y206176D01*
X228424Y205828D01*
X227822Y205044D01*
X227443Y204130D01*
X227314Y203150D01*
X227443Y202169D01*
X227822Y201255D01*
X228424Y200471D01*
X228876Y200124D01*
X229021Y199440D01*
Y198985D01*
X228876Y198302D01*
X228424Y197954D01*
X227822Y197170D01*
X227443Y196256D01*
X227380Y195776D01*
X234825D01*
X234762Y196256D01*
X234383Y197170D01*
X233781Y197954D01*
X233328Y198302D01*
X233184Y198985D01*
Y199440D01*
X233328Y200124D01*
X233781Y200471D01*
X234383Y201255D01*
X234762Y202169D01*
X234891Y203150D01*
X234762Y204130D01*
X234383Y205044D01*
X233781Y205828D01*
X233328Y206176D01*
X233184Y206859D01*
Y207314D01*
X233328Y207997D01*
X233781Y208345D01*
X234383Y209130D01*
X234762Y210043D01*
X234891Y211024D01*
X234762Y212004D01*
X234383Y212918D01*
X233885Y213567D01*
X234000Y214145D01*
X234492Y215142D01*
X234858D01*
Y222654D01*
D02*
G37*
%LPD*%
G36*
X324213Y189499D02*
X323099Y188386D01*
X267126D01*
Y194635D01*
X268701Y195422D01*
X270045Y194865D01*
X272006Y194394D01*
X274016Y194236D01*
X276026Y194394D01*
X277987Y194865D01*
X279850Y195637D01*
X281569Y196690D01*
X283103Y198000D01*
X284412Y199533D01*
X285466Y201253D01*
X286238Y203116D01*
X286708Y205076D01*
X286866Y207087D01*
X286708Y209097D01*
X286238Y211058D01*
X285466Y212921D01*
X284412Y214640D01*
X283103Y216173D01*
X281569Y217483D01*
X279850Y218537D01*
X277987Y219308D01*
X276026Y219779D01*
X274016Y219937D01*
X272006Y219779D01*
X270045Y219308D01*
X268701Y218752D01*
X267126Y219538D01*
Y224674D01*
X268240Y225787D01*
X324213D01*
X324213Y189499D01*
D02*
G37*
%LPC*%
G36*
X301360Y194776D02*
X298138D01*
Y191553D01*
X298618Y191616D01*
X299532Y191995D01*
X300317Y192597D01*
X300919Y193382D01*
X301297Y194295D01*
X301360Y194776D01*
D02*
G37*
G36*
X297138D02*
X293915D01*
X293979Y194295D01*
X294357Y193382D01*
X294959Y192597D01*
X295744Y191995D01*
X296657Y191616D01*
X297138Y191553D01*
Y194776D01*
D02*
G37*
G36*
X315217Y217720D02*
X311555D01*
X310744Y217613D01*
X309989Y217300D01*
X309340Y216802D01*
X308842Y216153D01*
X308529Y215398D01*
X308422Y214587D01*
X308464Y214268D01*
X308449Y212693D01*
X308449Y212693D01*
X308449Y212693D01*
Y210087D01*
X318323D01*
Y212693D01*
X318323Y212693D01*
X318308Y214268D01*
X318350Y214587D01*
X318243Y215398D01*
X317930Y216153D01*
X317432Y216802D01*
X316783Y217300D01*
X316027Y217613D01*
X315217Y217720D01*
D02*
G37*
G36*
X318323Y209087D02*
X308449D01*
Y206480D01*
X308449Y206480D01*
X308464Y204906D01*
X308422Y204587D01*
X308529Y203776D01*
X308842Y203020D01*
X309223Y202087D01*
X308842Y201153D01*
X308529Y200398D01*
X308422Y199587D01*
X308529Y198776D01*
X308842Y198020D01*
X309340Y197371D01*
X309989Y196873D01*
X310744Y196560D01*
X311555Y196453D01*
X315217D01*
X316027Y196560D01*
X316783Y196873D01*
X317432Y197371D01*
X317930Y198020D01*
X318243Y198776D01*
X318350Y199587D01*
X318243Y200398D01*
X317930Y201153D01*
X317548Y202087D01*
X317930Y203020D01*
X318243Y203776D01*
X318350Y204587D01*
X318308Y204906D01*
X318323Y206480D01*
X318323Y206480D01*
X318323Y206480D01*
Y209087D01*
D02*
G37*
G36*
X301394Y222654D02*
X293882D01*
Y215142D01*
X294248D01*
X294740Y214145D01*
X294855Y213567D01*
X294357Y212918D01*
X293979Y212004D01*
X293849Y211024D01*
X293979Y210043D01*
X294357Y209130D01*
X294959Y208345D01*
X295412Y207997D01*
X295556Y207314D01*
Y206859D01*
X295412Y206176D01*
X294959Y205828D01*
X294357Y205044D01*
X293979Y204130D01*
X293849Y203150D01*
X293979Y202169D01*
X294357Y201255D01*
X294959Y200471D01*
X295412Y200124D01*
X295556Y199440D01*
Y198985D01*
X295412Y198302D01*
X294959Y197954D01*
X294357Y197170D01*
X293979Y196256D01*
X293915Y195776D01*
X301360D01*
X301297Y196256D01*
X300919Y197170D01*
X300317Y197954D01*
X299864Y198302D01*
X299719Y198985D01*
Y199440D01*
X299864Y200124D01*
X300317Y200471D01*
X300919Y201255D01*
X301297Y202169D01*
X301426Y203150D01*
X301297Y204130D01*
X300919Y205044D01*
X300317Y205828D01*
X299864Y206176D01*
X299719Y206859D01*
Y207314D01*
X299864Y207997D01*
X300317Y208345D01*
X300919Y209130D01*
X301297Y210043D01*
X301426Y211024D01*
X301297Y212004D01*
X300919Y212918D01*
X300420Y213567D01*
X300535Y214145D01*
X301028Y215142D01*
X301394D01*
Y222654D01*
D02*
G37*
%LPD*%
G36*
X390748Y189499D02*
X389634Y188386D01*
X333661D01*
Y194635D01*
X335236Y195422D01*
X336580Y194865D01*
X338541Y194394D01*
X340551Y194236D01*
X342562Y194394D01*
X344522Y194865D01*
X346385Y195637D01*
X348105Y196690D01*
X349638Y198000D01*
X350948Y199533D01*
X352001Y201253D01*
X352773Y203116D01*
X353244Y205076D01*
X353402Y207087D01*
X353244Y209097D01*
X352773Y211058D01*
X352001Y212921D01*
X350948Y214640D01*
X349638Y216173D01*
X348105Y217483D01*
X346385Y218537D01*
X344522Y219308D01*
X342562Y219779D01*
X340551Y219937D01*
X338541Y219779D01*
X336580Y219308D01*
X335236Y218752D01*
X333661Y219538D01*
Y224674D01*
X334775Y225787D01*
X390748D01*
X390748Y189499D01*
D02*
G37*
%LPC*%
G36*
X367896Y194776D02*
X364673D01*
Y191553D01*
X365154Y191616D01*
X366067Y191995D01*
X366852Y192597D01*
X367454Y193382D01*
X367832Y194295D01*
X367896Y194776D01*
D02*
G37*
G36*
X363673D02*
X360451D01*
X360514Y194295D01*
X360893Y193382D01*
X361494Y192597D01*
X362279Y191995D01*
X363193Y191616D01*
X363673Y191553D01*
Y194776D01*
D02*
G37*
G36*
X381752Y217720D02*
X378091D01*
X377280Y217613D01*
X376524Y217300D01*
X375875Y216802D01*
X375377Y216153D01*
X375064Y215398D01*
X374957Y214587D01*
X374999Y214268D01*
X374984Y212693D01*
X374984Y212693D01*
X374984Y212693D01*
Y210087D01*
X384858D01*
Y212693D01*
X384858Y212693D01*
X384843Y214268D01*
X384885Y214587D01*
X384778Y215398D01*
X384465Y216153D01*
X383967Y216802D01*
X383319Y217300D01*
X382563Y217613D01*
X381752Y217720D01*
D02*
G37*
G36*
X384858Y209087D02*
X374984D01*
Y206480D01*
X374984Y206480D01*
X374999Y204906D01*
X374957Y204587D01*
X375064Y203776D01*
X375377Y203020D01*
X375759Y202087D01*
X375377Y201153D01*
X375064Y200398D01*
X374957Y199587D01*
X375064Y198776D01*
X375377Y198020D01*
X375875Y197371D01*
X376524Y196873D01*
X377280Y196560D01*
X378091Y196453D01*
X381752D01*
X382563Y196560D01*
X383319Y196873D01*
X383967Y197371D01*
X384465Y198020D01*
X384778Y198776D01*
X384885Y199587D01*
X384778Y200398D01*
X384465Y201153D01*
X384084Y202087D01*
X384465Y203020D01*
X384778Y203776D01*
X384885Y204587D01*
X384843Y204906D01*
X384858Y206480D01*
X384858Y206480D01*
X384858Y206480D01*
Y209087D01*
D02*
G37*
G36*
X367929Y222654D02*
X360417D01*
Y215142D01*
X360783D01*
X361276Y214145D01*
X361391Y213567D01*
X360893Y212918D01*
X360514Y212004D01*
X360385Y211024D01*
X360514Y210043D01*
X360893Y209130D01*
X361494Y208345D01*
X361947Y207997D01*
X362092Y207314D01*
Y206859D01*
X361947Y206176D01*
X361494Y205828D01*
X360893Y205044D01*
X360514Y204130D01*
X360385Y203150D01*
X360514Y202169D01*
X360893Y201255D01*
X361494Y200471D01*
X361947Y200124D01*
X362092Y199440D01*
Y198985D01*
X361947Y198302D01*
X361494Y197954D01*
X360893Y197170D01*
X360514Y196256D01*
X360451Y195776D01*
X367896D01*
X367832Y196256D01*
X367454Y197170D01*
X366852Y197954D01*
X366399Y198302D01*
X366255Y198985D01*
Y199440D01*
X366399Y200124D01*
X366852Y200471D01*
X367454Y201255D01*
X367832Y202169D01*
X367962Y203150D01*
X367832Y204130D01*
X367454Y205044D01*
X366852Y205828D01*
X366399Y206176D01*
X366255Y206859D01*
Y207314D01*
X366399Y207997D01*
X366852Y208345D01*
X367454Y209130D01*
X367832Y210043D01*
X367962Y211024D01*
X367832Y212004D01*
X367454Y212918D01*
X366956Y213567D01*
X367071Y214145D01*
X367563Y215142D01*
X367929D01*
Y222654D01*
D02*
G37*
%LPD*%
G36*
X58071Y236350D02*
X56957Y235236D01*
X984D01*
Y241485D01*
X2559Y242272D01*
X3903Y241715D01*
X5864Y241245D01*
X7874Y241086D01*
X9884Y241245D01*
X11845Y241715D01*
X13708Y242487D01*
X15428Y243541D01*
X16961Y244850D01*
X18270Y246384D01*
X19324Y248103D01*
X20096Y249966D01*
X20567Y251927D01*
X20725Y253937D01*
X20567Y255947D01*
X20096Y257908D01*
X19324Y259771D01*
X18270Y261491D01*
X16961Y263024D01*
X15428Y264333D01*
X13708Y265387D01*
X11845Y266159D01*
X9884Y266630D01*
X7874Y266788D01*
X5864Y266630D01*
X3903Y266159D01*
X2559Y265602D01*
X984Y266389D01*
Y271524D01*
X2098Y272638D01*
X58071D01*
X58071Y236350D01*
D02*
G37*
%LPC*%
G36*
X35219Y241626D02*
X31996D01*
Y238404D01*
X32477Y238467D01*
X33390Y238845D01*
X34175Y239447D01*
X34777Y240232D01*
X35155Y241145D01*
X35219Y241626D01*
D02*
G37*
G36*
X30996D02*
X27774D01*
X27837Y241145D01*
X28215Y240232D01*
X28817Y239447D01*
X29602Y238845D01*
X30516Y238467D01*
X30996Y238404D01*
Y241626D01*
D02*
G37*
G36*
X49075Y264570D02*
X45413D01*
X44603Y264463D01*
X43847Y264150D01*
X43198Y263652D01*
X42700Y263004D01*
X42387Y262248D01*
X42280Y261437D01*
X42322Y261118D01*
X42307Y259543D01*
X42307Y259543D01*
X42307Y259543D01*
Y256937D01*
X52181D01*
Y259543D01*
X52181Y259543D01*
X52166Y261118D01*
X52208Y261437D01*
X52101Y262248D01*
X51788Y263004D01*
X51290Y263652D01*
X50641Y264150D01*
X49886Y264463D01*
X49075Y264570D01*
D02*
G37*
G36*
X52181Y255937D02*
X42307D01*
Y253331D01*
X42307Y253331D01*
X42322Y251756D01*
X42280Y251437D01*
X42387Y250626D01*
X42700Y249870D01*
X43082Y248937D01*
X42700Y248004D01*
X42387Y247248D01*
X42280Y246437D01*
X42387Y245626D01*
X42700Y244870D01*
X43198Y244222D01*
X43847Y243724D01*
X44603Y243411D01*
X45413Y243304D01*
X49075D01*
X49886Y243411D01*
X50641Y243724D01*
X51290Y244222D01*
X51788Y244870D01*
X52101Y245626D01*
X52208Y246437D01*
X52101Y247248D01*
X51788Y248004D01*
X51407Y248937D01*
X51788Y249870D01*
X52101Y250626D01*
X52208Y251437D01*
X52166Y251756D01*
X52181Y253331D01*
X52181Y253331D01*
X52181Y253331D01*
Y255937D01*
D02*
G37*
G36*
X35252Y269504D02*
X27740D01*
Y261992D01*
X28106D01*
X28598Y260996D01*
X28714Y260417D01*
X28215Y259768D01*
X27837Y258855D01*
X27708Y257874D01*
X27837Y256894D01*
X28215Y255980D01*
X28817Y255195D01*
X29270Y254848D01*
X29415Y254165D01*
Y253709D01*
X29270Y253026D01*
X28817Y252679D01*
X28215Y251894D01*
X27837Y250980D01*
X27708Y250000D01*
X27837Y249020D01*
X28215Y248106D01*
X28817Y247321D01*
X29270Y246974D01*
X29415Y246291D01*
Y245835D01*
X29270Y245152D01*
X28817Y244805D01*
X28215Y244020D01*
X27837Y243107D01*
X27774Y242626D01*
X35219D01*
X35155Y243107D01*
X34777Y244020D01*
X34175Y244805D01*
X33722Y245152D01*
X33577Y245835D01*
Y246291D01*
X33722Y246974D01*
X34175Y247321D01*
X34777Y248106D01*
X35155Y249020D01*
X35284Y250000D01*
X35155Y250980D01*
X34777Y251894D01*
X34175Y252679D01*
X33722Y253026D01*
X33577Y253709D01*
Y254165D01*
X33722Y254848D01*
X34175Y255195D01*
X34777Y255980D01*
X35155Y256894D01*
X35284Y257874D01*
X35155Y258855D01*
X34777Y259768D01*
X34279Y260417D01*
X34394Y260996D01*
X34886Y261992D01*
X35252D01*
Y269504D01*
D02*
G37*
%LPD*%
G36*
X124606Y236350D02*
X123493Y235236D01*
X67520D01*
Y241485D01*
X69095Y242272D01*
X70438Y241715D01*
X72399Y241245D01*
X74410Y241086D01*
X76420Y241245D01*
X78381Y241715D01*
X80244Y242487D01*
X81963Y243541D01*
X83496Y244850D01*
X84806Y246384D01*
X85860Y248103D01*
X86631Y249966D01*
X87102Y251927D01*
X87260Y253937D01*
X87102Y255947D01*
X86631Y257908D01*
X85860Y259771D01*
X84806Y261491D01*
X83496Y263024D01*
X81963Y264333D01*
X80244Y265387D01*
X78381Y266159D01*
X76420Y266630D01*
X74410Y266788D01*
X72399Y266630D01*
X70438Y266159D01*
X69095Y265602D01*
X67520Y266389D01*
Y271524D01*
X68633Y272638D01*
X124606D01*
X124606Y236350D01*
D02*
G37*
%LPC*%
G36*
X101754Y241626D02*
X98532D01*
Y238404D01*
X99012Y238467D01*
X99926Y238845D01*
X100710Y239447D01*
X101312Y240232D01*
X101691Y241145D01*
X101754Y241626D01*
D02*
G37*
G36*
X97531D02*
X94309D01*
X94372Y241145D01*
X94751Y240232D01*
X95353Y239447D01*
X96137Y238845D01*
X97051Y238467D01*
X97531Y238404D01*
Y241626D01*
D02*
G37*
G36*
X115610Y264570D02*
X111949D01*
X111138Y264463D01*
X110382Y264150D01*
X109733Y263652D01*
X109236Y263004D01*
X108923Y262248D01*
X108816Y261437D01*
X108858Y261118D01*
X108843Y259543D01*
X108843Y259543D01*
X108843Y259543D01*
Y256937D01*
X118717D01*
Y259543D01*
X118717Y259543D01*
X118701Y261118D01*
X118743Y261437D01*
X118637Y262248D01*
X118324Y263004D01*
X117826Y263652D01*
X117177Y264150D01*
X116421Y264463D01*
X115610Y264570D01*
D02*
G37*
G36*
X118717Y255937D02*
X108843D01*
Y253331D01*
X108843Y253331D01*
X108858Y251756D01*
X108816Y251437D01*
X108923Y250626D01*
X109236Y249870D01*
X109617Y248937D01*
X109236Y248004D01*
X108923Y247248D01*
X108816Y246437D01*
X108923Y245626D01*
X109236Y244870D01*
X109733Y244222D01*
X110382Y243724D01*
X111138Y243411D01*
X111949Y243304D01*
X115610D01*
X116421Y243411D01*
X117177Y243724D01*
X117826Y244222D01*
X118324Y244870D01*
X118637Y245626D01*
X118743Y246437D01*
X118637Y247248D01*
X118324Y248004D01*
X117942Y248937D01*
X118324Y249870D01*
X118637Y250626D01*
X118743Y251437D01*
X118701Y251756D01*
X118717Y253331D01*
X118717Y253331D01*
X118717Y253331D01*
Y255937D01*
D02*
G37*
G36*
X101787Y269504D02*
X94276D01*
Y261992D01*
X94642D01*
X95134Y260996D01*
X95249Y260417D01*
X94751Y259768D01*
X94372Y258855D01*
X94243Y257874D01*
X94372Y256894D01*
X94751Y255980D01*
X95353Y255195D01*
X95806Y254848D01*
X95950Y254165D01*
Y253709D01*
X95806Y253026D01*
X95353Y252679D01*
X94751Y251894D01*
X94372Y250980D01*
X94243Y250000D01*
X94372Y249020D01*
X94751Y248106D01*
X95353Y247321D01*
X95806Y246974D01*
X95950Y246291D01*
Y245835D01*
X95806Y245152D01*
X95353Y244805D01*
X94751Y244020D01*
X94372Y243107D01*
X94309Y242626D01*
X101754D01*
X101691Y243107D01*
X101312Y244020D01*
X100710Y244805D01*
X100258Y245152D01*
X100113Y245835D01*
Y246291D01*
X100258Y246974D01*
X100710Y247321D01*
X101312Y248106D01*
X101691Y249020D01*
X101820Y250000D01*
X101691Y250980D01*
X101312Y251894D01*
X100710Y252679D01*
X100258Y253026D01*
X100113Y253709D01*
Y254165D01*
X100258Y254848D01*
X100710Y255195D01*
X101312Y255980D01*
X101691Y256894D01*
X101820Y257874D01*
X101691Y258855D01*
X101312Y259768D01*
X100814Y260417D01*
X100929Y260996D01*
X101421Y261992D01*
X101787D01*
Y269504D01*
D02*
G37*
%LPD*%
G36*
X191142Y236350D02*
X190028Y235236D01*
X134055D01*
Y241485D01*
X135630Y242272D01*
X136974Y241715D01*
X138935Y241245D01*
X140945Y241086D01*
X142955Y241245D01*
X144916Y241715D01*
X146779Y242487D01*
X148498Y243541D01*
X150032Y244850D01*
X151341Y246384D01*
X152395Y248103D01*
X153167Y249966D01*
X153637Y251927D01*
X153796Y253937D01*
X153637Y255947D01*
X153167Y257908D01*
X152395Y259771D01*
X151341Y261491D01*
X150032Y263024D01*
X148498Y264333D01*
X146779Y265387D01*
X144916Y266159D01*
X142955Y266630D01*
X140945Y266788D01*
X138935Y266630D01*
X136974Y266159D01*
X135630Y265602D01*
X134055Y266389D01*
Y271524D01*
X135169Y272638D01*
X191142D01*
X191142Y236350D01*
D02*
G37*
%LPC*%
G36*
X168289Y241626D02*
X165067D01*
Y238404D01*
X165548Y238467D01*
X166461Y238845D01*
X167246Y239447D01*
X167848Y240232D01*
X168226Y241145D01*
X168289Y241626D01*
D02*
G37*
G36*
X164067D02*
X160845D01*
X160908Y241145D01*
X161286Y240232D01*
X161888Y239447D01*
X162673Y238845D01*
X163586Y238467D01*
X164067Y238404D01*
Y241626D01*
D02*
G37*
G36*
X182146Y264570D02*
X178484D01*
X177673Y264463D01*
X176918Y264150D01*
X176269Y263652D01*
X175771Y263004D01*
X175458Y262248D01*
X175351Y261437D01*
X175393Y261118D01*
X175378Y259543D01*
X175378Y259543D01*
X175378Y259543D01*
Y256937D01*
X185252D01*
Y259543D01*
X185252Y259543D01*
X185237Y261118D01*
X185279Y261437D01*
X185172Y262248D01*
X184859Y263004D01*
X184361Y263652D01*
X183712Y264150D01*
X182957Y264463D01*
X182146Y264570D01*
D02*
G37*
G36*
X185252Y255937D02*
X175378D01*
Y253331D01*
X175378Y253331D01*
X175393Y251756D01*
X175351Y251437D01*
X175458Y250626D01*
X175771Y249870D01*
X176153Y248937D01*
X175771Y248004D01*
X175458Y247248D01*
X175351Y246437D01*
X175458Y245626D01*
X175771Y244870D01*
X176269Y244222D01*
X176918Y243724D01*
X177673Y243411D01*
X178484Y243304D01*
X182146D01*
X182957Y243411D01*
X183712Y243724D01*
X184361Y244222D01*
X184859Y244870D01*
X185172Y245626D01*
X185279Y246437D01*
X185172Y247248D01*
X184859Y248004D01*
X184477Y248937D01*
X184859Y249870D01*
X185172Y250626D01*
X185279Y251437D01*
X185237Y251756D01*
X185252Y253331D01*
X185252Y253331D01*
X185252Y253331D01*
Y255937D01*
D02*
G37*
G36*
X168323Y269504D02*
X160811D01*
Y261992D01*
X161177D01*
X161669Y260996D01*
X161784Y260417D01*
X161286Y259768D01*
X160908Y258855D01*
X160779Y257874D01*
X160908Y256894D01*
X161286Y255980D01*
X161888Y255195D01*
X162341Y254848D01*
X162486Y254165D01*
Y253709D01*
X162341Y253026D01*
X161888Y252679D01*
X161286Y251894D01*
X160908Y250980D01*
X160779Y250000D01*
X160908Y249020D01*
X161286Y248106D01*
X161888Y247321D01*
X162341Y246974D01*
X162486Y246291D01*
Y245835D01*
X162341Y245152D01*
X161888Y244805D01*
X161286Y244020D01*
X160908Y243107D01*
X160845Y242626D01*
X168289D01*
X168226Y243107D01*
X167848Y244020D01*
X167246Y244805D01*
X166793Y245152D01*
X166648Y245835D01*
Y246291D01*
X166793Y246974D01*
X167246Y247321D01*
X167848Y248106D01*
X168226Y249020D01*
X168355Y250000D01*
X168226Y250980D01*
X167848Y251894D01*
X167246Y252679D01*
X166793Y253026D01*
X166648Y253709D01*
Y254165D01*
X166793Y254848D01*
X167246Y255195D01*
X167848Y255980D01*
X168226Y256894D01*
X168355Y257874D01*
X168226Y258855D01*
X167848Y259768D01*
X167350Y260417D01*
X167464Y260996D01*
X167957Y261992D01*
X168323D01*
Y269504D01*
D02*
G37*
%LPD*%
G36*
X257677Y236350D02*
X256564Y235236D01*
X200591D01*
Y241485D01*
X202165Y242272D01*
X203509Y241715D01*
X205470Y241245D01*
X207480Y241086D01*
X209491Y241245D01*
X211451Y241715D01*
X213314Y242487D01*
X215034Y243541D01*
X216567Y244850D01*
X217877Y246384D01*
X218930Y248103D01*
X219702Y249966D01*
X220173Y251927D01*
X220331Y253937D01*
X220173Y255947D01*
X219702Y257908D01*
X218930Y259771D01*
X217877Y261491D01*
X216567Y263024D01*
X215034Y264333D01*
X213314Y265387D01*
X211451Y266159D01*
X209491Y266630D01*
X207480Y266788D01*
X205470Y266630D01*
X203509Y266159D01*
X202165Y265602D01*
X200591Y266389D01*
Y271524D01*
X201704Y272638D01*
X257677D01*
X257677Y236350D01*
D02*
G37*
%LPC*%
G36*
X234825Y241626D02*
X231602D01*
Y238404D01*
X232083Y238467D01*
X232997Y238845D01*
X233781Y239447D01*
X234383Y240232D01*
X234762Y241145D01*
X234825Y241626D01*
D02*
G37*
G36*
X230602D02*
X227380D01*
X227443Y241145D01*
X227822Y240232D01*
X228424Y239447D01*
X229208Y238845D01*
X230122Y238467D01*
X230602Y238404D01*
Y241626D01*
D02*
G37*
G36*
X248681Y264570D02*
X245020D01*
X244209Y264463D01*
X243453Y264150D01*
X242804Y263652D01*
X242306Y263004D01*
X241993Y262248D01*
X241887Y261437D01*
X241929Y261118D01*
X241913Y259543D01*
X241913Y259543D01*
X241913Y259543D01*
Y256937D01*
X251787D01*
Y259543D01*
X251787Y259543D01*
X251772Y261118D01*
X251814Y261437D01*
X251708Y262248D01*
X251395Y263004D01*
X250897Y263652D01*
X250248Y264150D01*
X249492Y264463D01*
X248681Y264570D01*
D02*
G37*
G36*
X251787Y255937D02*
X241913D01*
Y253331D01*
X241913Y253331D01*
X241929Y251756D01*
X241887Y251437D01*
X241993Y250626D01*
X242306Y249870D01*
X242688Y248937D01*
X242306Y248004D01*
X241993Y247248D01*
X241887Y246437D01*
X241993Y245626D01*
X242306Y244870D01*
X242804Y244222D01*
X243453Y243724D01*
X244209Y243411D01*
X245020Y243304D01*
X248681D01*
X249492Y243411D01*
X250248Y243724D01*
X250897Y244222D01*
X251395Y244870D01*
X251708Y245626D01*
X251814Y246437D01*
X251708Y247248D01*
X251395Y248004D01*
X251013Y248937D01*
X251395Y249870D01*
X251708Y250626D01*
X251814Y251437D01*
X251772Y251756D01*
X251787Y253331D01*
X251787Y253331D01*
X251787Y253331D01*
Y255937D01*
D02*
G37*
G36*
X234858Y269504D02*
X227346D01*
Y261992D01*
X227713D01*
X228205Y260996D01*
X228320Y260417D01*
X227822Y259768D01*
X227443Y258855D01*
X227314Y257874D01*
X227443Y256894D01*
X227822Y255980D01*
X228424Y255195D01*
X228876Y254848D01*
X229021Y254165D01*
Y253709D01*
X228876Y253026D01*
X228424Y252679D01*
X227822Y251894D01*
X227443Y250980D01*
X227314Y250000D01*
X227443Y249020D01*
X227822Y248106D01*
X228424Y247321D01*
X228876Y246974D01*
X229021Y246291D01*
Y245835D01*
X228876Y245152D01*
X228424Y244805D01*
X227822Y244020D01*
X227443Y243107D01*
X227380Y242626D01*
X234825D01*
X234762Y243107D01*
X234383Y244020D01*
X233781Y244805D01*
X233328Y245152D01*
X233184Y245835D01*
Y246291D01*
X233328Y246974D01*
X233781Y247321D01*
X234383Y248106D01*
X234762Y249020D01*
X234891Y250000D01*
X234762Y250980D01*
X234383Y251894D01*
X233781Y252679D01*
X233328Y253026D01*
X233184Y253709D01*
Y254165D01*
X233328Y254848D01*
X233781Y255195D01*
X234383Y255980D01*
X234762Y256894D01*
X234891Y257874D01*
X234762Y258855D01*
X234383Y259768D01*
X233885Y260417D01*
X234000Y260996D01*
X234492Y261992D01*
X234858D01*
Y269504D01*
D02*
G37*
%LPD*%
G36*
X324213Y236350D02*
X323099Y235236D01*
X267126D01*
Y241485D01*
X268701Y242272D01*
X270045Y241715D01*
X272006Y241245D01*
X274016Y241086D01*
X276026Y241245D01*
X277987Y241715D01*
X279850Y242487D01*
X281569Y243541D01*
X283103Y244850D01*
X284412Y246384D01*
X285466Y248103D01*
X286238Y249966D01*
X286708Y251927D01*
X286866Y253937D01*
X286708Y255947D01*
X286238Y257908D01*
X285466Y259771D01*
X284412Y261491D01*
X283103Y263024D01*
X281569Y264333D01*
X279850Y265387D01*
X277987Y266159D01*
X276026Y266630D01*
X274016Y266788D01*
X272006Y266630D01*
X270045Y266159D01*
X268701Y265602D01*
X267126Y266389D01*
Y271524D01*
X268240Y272638D01*
X324213D01*
X324213Y236350D01*
D02*
G37*
%LPC*%
G36*
X301360Y241626D02*
X298138D01*
Y238404D01*
X298618Y238467D01*
X299532Y238845D01*
X300317Y239447D01*
X300919Y240232D01*
X301297Y241145D01*
X301360Y241626D01*
D02*
G37*
G36*
X297138D02*
X293915D01*
X293979Y241145D01*
X294357Y240232D01*
X294959Y239447D01*
X295744Y238845D01*
X296657Y238467D01*
X297138Y238404D01*
Y241626D01*
D02*
G37*
G36*
X315217Y264570D02*
X311555D01*
X310744Y264463D01*
X309989Y264150D01*
X309340Y263652D01*
X308842Y263004D01*
X308529Y262248D01*
X308422Y261437D01*
X308464Y261118D01*
X308449Y259543D01*
X308449Y259543D01*
X308449Y259543D01*
Y256937D01*
X318323D01*
Y259543D01*
X318323Y259543D01*
X318308Y261118D01*
X318350Y261437D01*
X318243Y262248D01*
X317930Y263004D01*
X317432Y263652D01*
X316783Y264150D01*
X316027Y264463D01*
X315217Y264570D01*
D02*
G37*
G36*
X318323Y255937D02*
X308449D01*
Y253331D01*
X308449Y253331D01*
X308464Y251756D01*
X308422Y251437D01*
X308529Y250626D01*
X308842Y249870D01*
X309223Y248937D01*
X308842Y248004D01*
X308529Y247248D01*
X308422Y246437D01*
X308529Y245626D01*
X308842Y244870D01*
X309340Y244222D01*
X309989Y243724D01*
X310744Y243411D01*
X311555Y243304D01*
X315217D01*
X316027Y243411D01*
X316783Y243724D01*
X317432Y244222D01*
X317930Y244870D01*
X318243Y245626D01*
X318350Y246437D01*
X318243Y247248D01*
X317930Y248004D01*
X317548Y248937D01*
X317930Y249870D01*
X318243Y250626D01*
X318350Y251437D01*
X318308Y251756D01*
X318323Y253331D01*
X318323Y253331D01*
X318323Y253331D01*
Y255937D01*
D02*
G37*
G36*
X301394Y269504D02*
X293882D01*
Y261992D01*
X294248D01*
X294740Y260996D01*
X294855Y260417D01*
X294357Y259768D01*
X293979Y258855D01*
X293849Y257874D01*
X293979Y256894D01*
X294357Y255980D01*
X294959Y255195D01*
X295412Y254848D01*
X295556Y254165D01*
Y253709D01*
X295412Y253026D01*
X294959Y252679D01*
X294357Y251894D01*
X293979Y250980D01*
X293849Y250000D01*
X293979Y249020D01*
X294357Y248106D01*
X294959Y247321D01*
X295412Y246974D01*
X295556Y246291D01*
Y245835D01*
X295412Y245152D01*
X294959Y244805D01*
X294357Y244020D01*
X293979Y243107D01*
X293915Y242626D01*
X301360D01*
X301297Y243107D01*
X300919Y244020D01*
X300317Y244805D01*
X299864Y245152D01*
X299719Y245835D01*
Y246291D01*
X299864Y246974D01*
X300317Y247321D01*
X300919Y248106D01*
X301297Y249020D01*
X301426Y250000D01*
X301297Y250980D01*
X300919Y251894D01*
X300317Y252679D01*
X299864Y253026D01*
X299719Y253709D01*
Y254165D01*
X299864Y254848D01*
X300317Y255195D01*
X300919Y255980D01*
X301297Y256894D01*
X301426Y257874D01*
X301297Y258855D01*
X300919Y259768D01*
X300420Y260417D01*
X300535Y260996D01*
X301028Y261992D01*
X301394D01*
Y269504D01*
D02*
G37*
%LPD*%
G36*
X390748Y236350D02*
X389634Y235236D01*
X333661D01*
Y241485D01*
X335236Y242272D01*
X336580Y241715D01*
X338541Y241245D01*
X340551Y241086D01*
X342562Y241245D01*
X344522Y241715D01*
X346385Y242487D01*
X348105Y243541D01*
X349638Y244850D01*
X350948Y246384D01*
X352001Y248103D01*
X352773Y249966D01*
X353244Y251927D01*
X353402Y253937D01*
X353244Y255947D01*
X352773Y257908D01*
X352001Y259771D01*
X350948Y261491D01*
X349638Y263024D01*
X348105Y264333D01*
X346385Y265387D01*
X344522Y266159D01*
X342562Y266630D01*
X340551Y266788D01*
X338541Y266630D01*
X336580Y266159D01*
X335236Y265602D01*
X333661Y266389D01*
Y271524D01*
X334775Y272638D01*
X390748D01*
X390748Y236350D01*
D02*
G37*
%LPC*%
G36*
X367896Y241626D02*
X364673D01*
Y238404D01*
X365154Y238467D01*
X366067Y238845D01*
X366852Y239447D01*
X367454Y240232D01*
X367832Y241145D01*
X367896Y241626D01*
D02*
G37*
G36*
X363673D02*
X360451D01*
X360514Y241145D01*
X360893Y240232D01*
X361494Y239447D01*
X362279Y238845D01*
X363193Y238467D01*
X363673Y238404D01*
Y241626D01*
D02*
G37*
G36*
X381752Y264570D02*
X378091D01*
X377280Y264463D01*
X376524Y264150D01*
X375875Y263652D01*
X375377Y263004D01*
X375064Y262248D01*
X374957Y261437D01*
X374999Y261118D01*
X374984Y259543D01*
X374984Y259543D01*
X374984Y259543D01*
Y256937D01*
X384858D01*
Y259543D01*
X384858Y259543D01*
X384843Y261118D01*
X384885Y261437D01*
X384778Y262248D01*
X384465Y263004D01*
X383967Y263652D01*
X383319Y264150D01*
X382563Y264463D01*
X381752Y264570D01*
D02*
G37*
G36*
X384858Y255937D02*
X374984D01*
Y253331D01*
X374984Y253331D01*
X374999Y251756D01*
X374957Y251437D01*
X375064Y250626D01*
X375377Y249870D01*
X375759Y248937D01*
X375377Y248004D01*
X375064Y247248D01*
X374957Y246437D01*
X375064Y245626D01*
X375377Y244870D01*
X375875Y244222D01*
X376524Y243724D01*
X377280Y243411D01*
X378091Y243304D01*
X381752D01*
X382563Y243411D01*
X383319Y243724D01*
X383967Y244222D01*
X384465Y244870D01*
X384778Y245626D01*
X384885Y246437D01*
X384778Y247248D01*
X384465Y248004D01*
X384084Y248937D01*
X384465Y249870D01*
X384778Y250626D01*
X384885Y251437D01*
X384843Y251756D01*
X384858Y253331D01*
X384858Y253331D01*
X384858Y253331D01*
Y255937D01*
D02*
G37*
G36*
X367929Y269504D02*
X360417D01*
Y261992D01*
X360783D01*
X361276Y260996D01*
X361391Y260417D01*
X360893Y259768D01*
X360514Y258855D01*
X360385Y257874D01*
X360514Y256894D01*
X360893Y255980D01*
X361494Y255195D01*
X361947Y254848D01*
X362092Y254165D01*
Y253709D01*
X361947Y253026D01*
X361494Y252679D01*
X360893Y251894D01*
X360514Y250980D01*
X360385Y250000D01*
X360514Y249020D01*
X360893Y248106D01*
X361494Y247321D01*
X361947Y246974D01*
X362092Y246291D01*
Y245835D01*
X361947Y245152D01*
X361494Y244805D01*
X360893Y244020D01*
X360514Y243107D01*
X360451Y242626D01*
X367896D01*
X367832Y243107D01*
X367454Y244020D01*
X366852Y244805D01*
X366399Y245152D01*
X366255Y245835D01*
Y246291D01*
X366399Y246974D01*
X366852Y247321D01*
X367454Y248106D01*
X367832Y249020D01*
X367962Y250000D01*
X367832Y250980D01*
X367454Y251894D01*
X366852Y252679D01*
X366399Y253026D01*
X366255Y253709D01*
Y254165D01*
X366399Y254848D01*
X366852Y255195D01*
X367454Y255980D01*
X367832Y256894D01*
X367962Y257874D01*
X367832Y258855D01*
X367454Y259768D01*
X366956Y260417D01*
X367071Y260996D01*
X367563Y261992D01*
X367929D01*
Y269504D01*
D02*
G37*
%LPD*%
G36*
X58071Y283200D02*
X56957Y282087D01*
X984D01*
Y288336D01*
X2559Y289122D01*
X3903Y288566D01*
X5864Y288095D01*
X7874Y287937D01*
X9884Y288095D01*
X11845Y288566D01*
X13708Y289337D01*
X15428Y290391D01*
X16961Y291701D01*
X18270Y293234D01*
X19324Y294953D01*
X20096Y296816D01*
X20567Y298777D01*
X20725Y300787D01*
X20567Y302798D01*
X20096Y304759D01*
X19324Y306622D01*
X18270Y308341D01*
X16961Y309874D01*
X15428Y311184D01*
X13708Y312237D01*
X11845Y313009D01*
X9884Y313480D01*
X7874Y313638D01*
X5864Y313480D01*
X3903Y313009D01*
X2559Y312452D01*
X984Y313239D01*
Y318375D01*
X2098Y319488D01*
X58071D01*
X58071Y283200D01*
D02*
G37*
%LPC*%
G36*
X35219Y288476D02*
X31996D01*
Y285254D01*
X32477Y285317D01*
X33390Y285696D01*
X34175Y286298D01*
X34777Y287082D01*
X35155Y287996D01*
X35219Y288476D01*
D02*
G37*
G36*
X30996D02*
X27774D01*
X27837Y287996D01*
X28215Y287082D01*
X28817Y286298D01*
X29602Y285696D01*
X30516Y285317D01*
X30996Y285254D01*
Y288476D01*
D02*
G37*
G36*
X49075Y311420D02*
X45413D01*
X44603Y311314D01*
X43847Y311001D01*
X43198Y310503D01*
X42700Y309854D01*
X42387Y309098D01*
X42280Y308287D01*
X42322Y307968D01*
X42307Y306394D01*
X42307Y306394D01*
X42307Y306394D01*
Y303787D01*
X52181D01*
Y306394D01*
X52181Y306394D01*
X52166Y307968D01*
X52208Y308287D01*
X52101Y309098D01*
X51788Y309854D01*
X51290Y310503D01*
X50641Y311001D01*
X49886Y311314D01*
X49075Y311420D01*
D02*
G37*
G36*
X52181Y302787D02*
X42307D01*
Y300181D01*
X42307Y300181D01*
X42322Y298606D01*
X42280Y298287D01*
X42387Y297477D01*
X42700Y296721D01*
X43082Y295787D01*
X42700Y294854D01*
X42387Y294098D01*
X42280Y293287D01*
X42387Y292477D01*
X42700Y291721D01*
X43198Y291072D01*
X43847Y290574D01*
X44603Y290261D01*
X45413Y290154D01*
X49075D01*
X49886Y290261D01*
X50641Y290574D01*
X51290Y291072D01*
X51788Y291721D01*
X52101Y292477D01*
X52208Y293287D01*
X52101Y294098D01*
X51788Y294854D01*
X51407Y295787D01*
X51788Y296721D01*
X52101Y297477D01*
X52208Y298287D01*
X52166Y298606D01*
X52181Y300181D01*
X52181Y300181D01*
X52181Y300181D01*
Y302787D01*
D02*
G37*
G36*
X35252Y316354D02*
X27740D01*
Y308842D01*
X28106D01*
X28598Y307846D01*
X28714Y307268D01*
X28215Y306619D01*
X27837Y305705D01*
X27708Y304724D01*
X27837Y303744D01*
X28215Y302830D01*
X28817Y302046D01*
X29270Y301698D01*
X29415Y301015D01*
Y300560D01*
X29270Y299877D01*
X28817Y299529D01*
X28215Y298745D01*
X27837Y297831D01*
X27708Y296850D01*
X27837Y295870D01*
X28215Y294956D01*
X28817Y294172D01*
X29270Y293824D01*
X29415Y293141D01*
Y292686D01*
X29270Y292003D01*
X28817Y291655D01*
X28215Y290871D01*
X27837Y289957D01*
X27774Y289476D01*
X35219D01*
X35155Y289957D01*
X34777Y290871D01*
X34175Y291655D01*
X33722Y292003D01*
X33577Y292686D01*
Y293141D01*
X33722Y293824D01*
X34175Y294172D01*
X34777Y294956D01*
X35155Y295870D01*
X35284Y296850D01*
X35155Y297831D01*
X34777Y298745D01*
X34175Y299529D01*
X33722Y299877D01*
X33577Y300560D01*
Y301015D01*
X33722Y301698D01*
X34175Y302046D01*
X34777Y302830D01*
X35155Y303744D01*
X35284Y304724D01*
X35155Y305705D01*
X34777Y306619D01*
X34279Y307268D01*
X34394Y307846D01*
X34886Y308842D01*
X35252D01*
Y316354D01*
D02*
G37*
%LPD*%
G36*
X124606Y283200D02*
X123493Y282087D01*
X67520D01*
Y288336D01*
X69095Y289122D01*
X70438Y288566D01*
X72399Y288095D01*
X74410Y287937D01*
X76420Y288095D01*
X78381Y288566D01*
X80244Y289337D01*
X81963Y290391D01*
X83496Y291701D01*
X84806Y293234D01*
X85860Y294953D01*
X86631Y296816D01*
X87102Y298777D01*
X87260Y300787D01*
X87102Y302798D01*
X86631Y304759D01*
X85860Y306622D01*
X84806Y308341D01*
X83496Y309874D01*
X81963Y311184D01*
X80244Y312237D01*
X78381Y313009D01*
X76420Y313480D01*
X74410Y313638D01*
X72399Y313480D01*
X70438Y313009D01*
X69095Y312452D01*
X67520Y313239D01*
Y318375D01*
X68633Y319488D01*
X124606D01*
X124606Y283200D01*
D02*
G37*
%LPC*%
G36*
X101754Y288476D02*
X98532D01*
Y285254D01*
X99012Y285317D01*
X99926Y285696D01*
X100710Y286298D01*
X101312Y287082D01*
X101691Y287996D01*
X101754Y288476D01*
D02*
G37*
G36*
X97531D02*
X94309D01*
X94372Y287996D01*
X94751Y287082D01*
X95353Y286298D01*
X96137Y285696D01*
X97051Y285317D01*
X97531Y285254D01*
Y288476D01*
D02*
G37*
G36*
X115610Y311420D02*
X111949D01*
X111138Y311314D01*
X110382Y311001D01*
X109733Y310503D01*
X109236Y309854D01*
X108923Y309098D01*
X108816Y308287D01*
X108858Y307968D01*
X108843Y306394D01*
X108843Y306394D01*
X108843Y306394D01*
Y303787D01*
X118717D01*
Y306394D01*
X118717Y306394D01*
X118701Y307968D01*
X118743Y308287D01*
X118637Y309098D01*
X118324Y309854D01*
X117826Y310503D01*
X117177Y311001D01*
X116421Y311314D01*
X115610Y311420D01*
D02*
G37*
G36*
X118717Y302787D02*
X108843D01*
Y300181D01*
X108843Y300181D01*
X108858Y298606D01*
X108816Y298287D01*
X108923Y297477D01*
X109236Y296721D01*
X109617Y295787D01*
X109236Y294854D01*
X108923Y294098D01*
X108816Y293287D01*
X108923Y292477D01*
X109236Y291721D01*
X109733Y291072D01*
X110382Y290574D01*
X111138Y290261D01*
X111949Y290154D01*
X115610D01*
X116421Y290261D01*
X117177Y290574D01*
X117826Y291072D01*
X118324Y291721D01*
X118637Y292477D01*
X118743Y293287D01*
X118637Y294098D01*
X118324Y294854D01*
X117942Y295787D01*
X118324Y296721D01*
X118637Y297477D01*
X118743Y298287D01*
X118701Y298606D01*
X118717Y300181D01*
X118717Y300181D01*
X118717Y300181D01*
Y302787D01*
D02*
G37*
G36*
X101787Y316354D02*
X94276D01*
Y308842D01*
X94642D01*
X95134Y307846D01*
X95249Y307268D01*
X94751Y306619D01*
X94372Y305705D01*
X94243Y304724D01*
X94372Y303744D01*
X94751Y302830D01*
X95353Y302046D01*
X95806Y301698D01*
X95950Y301015D01*
Y300560D01*
X95806Y299877D01*
X95353Y299529D01*
X94751Y298745D01*
X94372Y297831D01*
X94243Y296850D01*
X94372Y295870D01*
X94751Y294956D01*
X95353Y294172D01*
X95806Y293824D01*
X95950Y293141D01*
Y292686D01*
X95806Y292003D01*
X95353Y291655D01*
X94751Y290871D01*
X94372Y289957D01*
X94309Y289476D01*
X101754D01*
X101691Y289957D01*
X101312Y290871D01*
X100710Y291655D01*
X100258Y292003D01*
X100113Y292686D01*
Y293141D01*
X100258Y293824D01*
X100710Y294172D01*
X101312Y294956D01*
X101691Y295870D01*
X101820Y296850D01*
X101691Y297831D01*
X101312Y298745D01*
X100710Y299529D01*
X100258Y299877D01*
X100113Y300560D01*
Y301015D01*
X100258Y301698D01*
X100710Y302046D01*
X101312Y302830D01*
X101691Y303744D01*
X101820Y304724D01*
X101691Y305705D01*
X101312Y306619D01*
X100814Y307268D01*
X100929Y307846D01*
X101421Y308842D01*
X101787D01*
Y316354D01*
D02*
G37*
%LPD*%
G36*
X191142Y283200D02*
X190028Y282087D01*
X134055D01*
Y288336D01*
X135630Y289122D01*
X136974Y288566D01*
X138935Y288095D01*
X140945Y287937D01*
X142955Y288095D01*
X144916Y288566D01*
X146779Y289337D01*
X148498Y290391D01*
X150032Y291701D01*
X151341Y293234D01*
X152395Y294953D01*
X153167Y296816D01*
X153637Y298777D01*
X153796Y300787D01*
X153637Y302798D01*
X153167Y304759D01*
X152395Y306622D01*
X151341Y308341D01*
X150032Y309874D01*
X148498Y311184D01*
X146779Y312237D01*
X144916Y313009D01*
X142955Y313480D01*
X140945Y313638D01*
X138935Y313480D01*
X136974Y313009D01*
X135630Y312452D01*
X134055Y313239D01*
Y318375D01*
X135169Y319488D01*
X191142D01*
X191142Y283200D01*
D02*
G37*
%LPC*%
G36*
X168289Y288476D02*
X165067D01*
Y285254D01*
X165548Y285317D01*
X166461Y285696D01*
X167246Y286298D01*
X167848Y287082D01*
X168226Y287996D01*
X168289Y288476D01*
D02*
G37*
G36*
X164067D02*
X160845D01*
X160908Y287996D01*
X161286Y287082D01*
X161888Y286298D01*
X162673Y285696D01*
X163586Y285317D01*
X164067Y285254D01*
Y288476D01*
D02*
G37*
G36*
X182146Y311420D02*
X178484D01*
X177673Y311314D01*
X176918Y311001D01*
X176269Y310503D01*
X175771Y309854D01*
X175458Y309098D01*
X175351Y308287D01*
X175393Y307968D01*
X175378Y306394D01*
X175378Y306394D01*
X175378Y306394D01*
Y303787D01*
X185252D01*
Y306394D01*
X185252Y306394D01*
X185237Y307968D01*
X185279Y308287D01*
X185172Y309098D01*
X184859Y309854D01*
X184361Y310503D01*
X183712Y311001D01*
X182957Y311314D01*
X182146Y311420D01*
D02*
G37*
G36*
X185252Y302787D02*
X175378D01*
Y300181D01*
X175378Y300181D01*
X175393Y298606D01*
X175351Y298287D01*
X175458Y297477D01*
X175771Y296721D01*
X176153Y295787D01*
X175771Y294854D01*
X175458Y294098D01*
X175351Y293287D01*
X175458Y292477D01*
X175771Y291721D01*
X176269Y291072D01*
X176918Y290574D01*
X177673Y290261D01*
X178484Y290154D01*
X182146D01*
X182957Y290261D01*
X183712Y290574D01*
X184361Y291072D01*
X184859Y291721D01*
X185172Y292477D01*
X185279Y293287D01*
X185172Y294098D01*
X184859Y294854D01*
X184477Y295787D01*
X184859Y296721D01*
X185172Y297477D01*
X185279Y298287D01*
X185237Y298606D01*
X185252Y300181D01*
X185252Y300181D01*
X185252Y300181D01*
Y302787D01*
D02*
G37*
G36*
X168323Y316354D02*
X160811D01*
Y308842D01*
X161177D01*
X161669Y307846D01*
X161784Y307268D01*
X161286Y306619D01*
X160908Y305705D01*
X160779Y304724D01*
X160908Y303744D01*
X161286Y302830D01*
X161888Y302046D01*
X162341Y301698D01*
X162486Y301015D01*
Y300560D01*
X162341Y299877D01*
X161888Y299529D01*
X161286Y298745D01*
X160908Y297831D01*
X160779Y296850D01*
X160908Y295870D01*
X161286Y294956D01*
X161888Y294172D01*
X162341Y293824D01*
X162486Y293141D01*
Y292686D01*
X162341Y292003D01*
X161888Y291655D01*
X161286Y290871D01*
X160908Y289957D01*
X160845Y289476D01*
X168289D01*
X168226Y289957D01*
X167848Y290871D01*
X167246Y291655D01*
X166793Y292003D01*
X166648Y292686D01*
Y293141D01*
X166793Y293824D01*
X167246Y294172D01*
X167848Y294956D01*
X168226Y295870D01*
X168355Y296850D01*
X168226Y297831D01*
X167848Y298745D01*
X167246Y299529D01*
X166793Y299877D01*
X166648Y300560D01*
Y301015D01*
X166793Y301698D01*
X167246Y302046D01*
X167848Y302830D01*
X168226Y303744D01*
X168355Y304724D01*
X168226Y305705D01*
X167848Y306619D01*
X167350Y307268D01*
X167464Y307846D01*
X167957Y308842D01*
X168323D01*
Y316354D01*
D02*
G37*
%LPD*%
G36*
X257677Y283200D02*
X256564Y282087D01*
X200591D01*
Y288336D01*
X202165Y289122D01*
X203509Y288566D01*
X205470Y288095D01*
X207480Y287937D01*
X209491Y288095D01*
X211451Y288566D01*
X213314Y289337D01*
X215034Y290391D01*
X216567Y291701D01*
X217877Y293234D01*
X218930Y294953D01*
X219702Y296816D01*
X220173Y298777D01*
X220331Y300787D01*
X220173Y302798D01*
X219702Y304759D01*
X218930Y306622D01*
X217877Y308341D01*
X216567Y309874D01*
X215034Y311184D01*
X213314Y312237D01*
X211451Y313009D01*
X209491Y313480D01*
X207480Y313638D01*
X205470Y313480D01*
X203509Y313009D01*
X202165Y312452D01*
X200591Y313239D01*
Y318375D01*
X201704Y319488D01*
X257677D01*
X257677Y283200D01*
D02*
G37*
%LPC*%
G36*
X234825Y288476D02*
X231602D01*
Y285254D01*
X232083Y285317D01*
X232997Y285696D01*
X233781Y286298D01*
X234383Y287082D01*
X234762Y287996D01*
X234825Y288476D01*
D02*
G37*
G36*
X230602D02*
X227380D01*
X227443Y287996D01*
X227822Y287082D01*
X228424Y286298D01*
X229208Y285696D01*
X230122Y285317D01*
X230602Y285254D01*
Y288476D01*
D02*
G37*
G36*
X248681Y311420D02*
X245020D01*
X244209Y311314D01*
X243453Y311001D01*
X242804Y310503D01*
X242306Y309854D01*
X241993Y309098D01*
X241887Y308287D01*
X241929Y307968D01*
X241913Y306394D01*
X241913Y306394D01*
X241913Y306394D01*
Y303787D01*
X251787D01*
Y306394D01*
X251787Y306394D01*
X251772Y307968D01*
X251814Y308287D01*
X251708Y309098D01*
X251395Y309854D01*
X250897Y310503D01*
X250248Y311001D01*
X249492Y311314D01*
X248681Y311420D01*
D02*
G37*
G36*
X251787Y302787D02*
X241913D01*
Y300181D01*
X241913Y300181D01*
X241929Y298606D01*
X241887Y298287D01*
X241993Y297477D01*
X242306Y296721D01*
X242688Y295787D01*
X242306Y294854D01*
X241993Y294098D01*
X241887Y293287D01*
X241993Y292477D01*
X242306Y291721D01*
X242804Y291072D01*
X243453Y290574D01*
X244209Y290261D01*
X245020Y290154D01*
X248681D01*
X249492Y290261D01*
X250248Y290574D01*
X250897Y291072D01*
X251395Y291721D01*
X251708Y292477D01*
X251814Y293287D01*
X251708Y294098D01*
X251395Y294854D01*
X251013Y295787D01*
X251395Y296721D01*
X251708Y297477D01*
X251814Y298287D01*
X251772Y298606D01*
X251787Y300181D01*
X251787Y300181D01*
X251787Y300181D01*
Y302787D01*
D02*
G37*
G36*
X234858Y316354D02*
X227346D01*
Y308842D01*
X227713D01*
X228205Y307846D01*
X228320Y307268D01*
X227822Y306619D01*
X227443Y305705D01*
X227314Y304724D01*
X227443Y303744D01*
X227822Y302830D01*
X228424Y302046D01*
X228876Y301698D01*
X229021Y301015D01*
Y300560D01*
X228876Y299877D01*
X228424Y299529D01*
X227822Y298745D01*
X227443Y297831D01*
X227314Y296850D01*
X227443Y295870D01*
X227822Y294956D01*
X228424Y294172D01*
X228876Y293824D01*
X229021Y293141D01*
Y292686D01*
X228876Y292003D01*
X228424Y291655D01*
X227822Y290871D01*
X227443Y289957D01*
X227380Y289476D01*
X234825D01*
X234762Y289957D01*
X234383Y290871D01*
X233781Y291655D01*
X233328Y292003D01*
X233184Y292686D01*
Y293141D01*
X233328Y293824D01*
X233781Y294172D01*
X234383Y294956D01*
X234762Y295870D01*
X234891Y296850D01*
X234762Y297831D01*
X234383Y298745D01*
X233781Y299529D01*
X233328Y299877D01*
X233184Y300560D01*
Y301015D01*
X233328Y301698D01*
X233781Y302046D01*
X234383Y302830D01*
X234762Y303744D01*
X234891Y304724D01*
X234762Y305705D01*
X234383Y306619D01*
X233885Y307268D01*
X234000Y307846D01*
X234492Y308842D01*
X234858D01*
Y316354D01*
D02*
G37*
%LPD*%
G36*
X324213Y283200D02*
X323099Y282087D01*
X267126D01*
Y288336D01*
X268701Y289122D01*
X270045Y288566D01*
X272006Y288095D01*
X274016Y287937D01*
X276026Y288095D01*
X277987Y288566D01*
X279850Y289337D01*
X281569Y290391D01*
X283103Y291701D01*
X284412Y293234D01*
X285466Y294953D01*
X286238Y296816D01*
X286708Y298777D01*
X286866Y300787D01*
X286708Y302798D01*
X286238Y304759D01*
X285466Y306622D01*
X284412Y308341D01*
X283103Y309874D01*
X281569Y311184D01*
X279850Y312237D01*
X277987Y313009D01*
X276026Y313480D01*
X274016Y313638D01*
X272006Y313480D01*
X270045Y313009D01*
X268701Y312452D01*
X267126Y313239D01*
Y318375D01*
X268240Y319488D01*
X324213D01*
X324213Y283200D01*
D02*
G37*
%LPC*%
G36*
X301360Y288476D02*
X298138D01*
Y285254D01*
X298618Y285317D01*
X299532Y285696D01*
X300317Y286298D01*
X300919Y287082D01*
X301297Y287996D01*
X301360Y288476D01*
D02*
G37*
G36*
X297138D02*
X293915D01*
X293979Y287996D01*
X294357Y287082D01*
X294959Y286298D01*
X295744Y285696D01*
X296657Y285317D01*
X297138Y285254D01*
Y288476D01*
D02*
G37*
G36*
X315217Y311420D02*
X311555D01*
X310744Y311314D01*
X309989Y311001D01*
X309340Y310503D01*
X308842Y309854D01*
X308529Y309098D01*
X308422Y308287D01*
X308464Y307968D01*
X308449Y306394D01*
X308449Y306394D01*
X308449Y306394D01*
Y303787D01*
X318323D01*
Y306394D01*
X318323Y306394D01*
X318308Y307968D01*
X318350Y308287D01*
X318243Y309098D01*
X317930Y309854D01*
X317432Y310503D01*
X316783Y311001D01*
X316027Y311314D01*
X315217Y311420D01*
D02*
G37*
G36*
X318323Y302787D02*
X308449D01*
Y300181D01*
X308449Y300181D01*
X308464Y298606D01*
X308422Y298287D01*
X308529Y297477D01*
X308842Y296721D01*
X309223Y295787D01*
X308842Y294854D01*
X308529Y294098D01*
X308422Y293287D01*
X308529Y292477D01*
X308842Y291721D01*
X309340Y291072D01*
X309989Y290574D01*
X310744Y290261D01*
X311555Y290154D01*
X315217D01*
X316027Y290261D01*
X316783Y290574D01*
X317432Y291072D01*
X317930Y291721D01*
X318243Y292477D01*
X318350Y293287D01*
X318243Y294098D01*
X317930Y294854D01*
X317548Y295787D01*
X317930Y296721D01*
X318243Y297477D01*
X318350Y298287D01*
X318308Y298606D01*
X318323Y300181D01*
X318323Y300181D01*
X318323Y300181D01*
Y302787D01*
D02*
G37*
G36*
X301394Y316354D02*
X293882D01*
Y308842D01*
X294248D01*
X294740Y307846D01*
X294855Y307268D01*
X294357Y306619D01*
X293979Y305705D01*
X293849Y304724D01*
X293979Y303744D01*
X294357Y302830D01*
X294959Y302046D01*
X295412Y301698D01*
X295556Y301015D01*
Y300560D01*
X295412Y299877D01*
X294959Y299529D01*
X294357Y298745D01*
X293979Y297831D01*
X293849Y296850D01*
X293979Y295870D01*
X294357Y294956D01*
X294959Y294172D01*
X295412Y293824D01*
X295556Y293141D01*
Y292686D01*
X295412Y292003D01*
X294959Y291655D01*
X294357Y290871D01*
X293979Y289957D01*
X293915Y289476D01*
X301360D01*
X301297Y289957D01*
X300919Y290871D01*
X300317Y291655D01*
X299864Y292003D01*
X299719Y292686D01*
Y293141D01*
X299864Y293824D01*
X300317Y294172D01*
X300919Y294956D01*
X301297Y295870D01*
X301426Y296850D01*
X301297Y297831D01*
X300919Y298745D01*
X300317Y299529D01*
X299864Y299877D01*
X299719Y300560D01*
Y301015D01*
X299864Y301698D01*
X300317Y302046D01*
X300919Y302830D01*
X301297Y303744D01*
X301426Y304724D01*
X301297Y305705D01*
X300919Y306619D01*
X300420Y307268D01*
X300535Y307846D01*
X301028Y308842D01*
X301394D01*
Y316354D01*
D02*
G37*
%LPD*%
G36*
X390748Y283200D02*
X389634Y282087D01*
X333661D01*
Y288336D01*
X335236Y289122D01*
X336580Y288566D01*
X338541Y288095D01*
X340551Y287937D01*
X342562Y288095D01*
X344522Y288566D01*
X346385Y289337D01*
X348105Y290391D01*
X349638Y291701D01*
X350948Y293234D01*
X352001Y294953D01*
X352773Y296816D01*
X353244Y298777D01*
X353402Y300787D01*
X353244Y302798D01*
X352773Y304759D01*
X352001Y306622D01*
X350948Y308341D01*
X349638Y309874D01*
X348105Y311184D01*
X346385Y312237D01*
X344522Y313009D01*
X342562Y313480D01*
X340551Y313638D01*
X338541Y313480D01*
X336580Y313009D01*
X335236Y312452D01*
X333661Y313239D01*
Y318375D01*
X334775Y319488D01*
X390748D01*
X390748Y283200D01*
D02*
G37*
%LPC*%
G36*
X367896Y288476D02*
X364673D01*
Y285254D01*
X365154Y285317D01*
X366067Y285696D01*
X366852Y286298D01*
X367454Y287082D01*
X367832Y287996D01*
X367896Y288476D01*
D02*
G37*
G36*
X363673D02*
X360451D01*
X360514Y287996D01*
X360893Y287082D01*
X361494Y286298D01*
X362279Y285696D01*
X363193Y285317D01*
X363673Y285254D01*
Y288476D01*
D02*
G37*
G36*
X381752Y311420D02*
X378091D01*
X377280Y311314D01*
X376524Y311001D01*
X375875Y310503D01*
X375377Y309854D01*
X375064Y309098D01*
X374957Y308287D01*
X374999Y307968D01*
X374984Y306394D01*
X374984Y306394D01*
X374984Y306394D01*
Y303787D01*
X384858D01*
Y306394D01*
X384858Y306394D01*
X384843Y307968D01*
X384885Y308287D01*
X384778Y309098D01*
X384465Y309854D01*
X383967Y310503D01*
X383319Y311001D01*
X382563Y311314D01*
X381752Y311420D01*
D02*
G37*
G36*
X384858Y302787D02*
X374984D01*
Y300181D01*
X374984Y300181D01*
X374999Y298606D01*
X374957Y298287D01*
X375064Y297477D01*
X375377Y296721D01*
X375759Y295787D01*
X375377Y294854D01*
X375064Y294098D01*
X374957Y293287D01*
X375064Y292477D01*
X375377Y291721D01*
X375875Y291072D01*
X376524Y290574D01*
X377280Y290261D01*
X378091Y290154D01*
X381752D01*
X382563Y290261D01*
X383319Y290574D01*
X383967Y291072D01*
X384465Y291721D01*
X384778Y292477D01*
X384885Y293287D01*
X384778Y294098D01*
X384465Y294854D01*
X384084Y295787D01*
X384465Y296721D01*
X384778Y297477D01*
X384885Y298287D01*
X384843Y298606D01*
X384858Y300181D01*
X384858Y300181D01*
X384858Y300181D01*
Y302787D01*
D02*
G37*
G36*
X367929Y316354D02*
X360417D01*
Y308842D01*
X360783D01*
X361276Y307846D01*
X361391Y307268D01*
X360893Y306619D01*
X360514Y305705D01*
X360385Y304724D01*
X360514Y303744D01*
X360893Y302830D01*
X361494Y302046D01*
X361947Y301698D01*
X362092Y301015D01*
Y300560D01*
X361947Y299877D01*
X361494Y299529D01*
X360893Y298745D01*
X360514Y297831D01*
X360385Y296850D01*
X360514Y295870D01*
X360893Y294956D01*
X361494Y294172D01*
X361947Y293824D01*
X362092Y293141D01*
Y292686D01*
X361947Y292003D01*
X361494Y291655D01*
X360893Y290871D01*
X360514Y289957D01*
X360451Y289476D01*
X367896D01*
X367832Y289957D01*
X367454Y290871D01*
X366852Y291655D01*
X366399Y292003D01*
X366255Y292686D01*
Y293141D01*
X366399Y293824D01*
X366852Y294172D01*
X367454Y294956D01*
X367832Y295870D01*
X367962Y296850D01*
X367832Y297831D01*
X367454Y298745D01*
X366852Y299529D01*
X366399Y299877D01*
X366255Y300560D01*
Y301015D01*
X366399Y301698D01*
X366852Y302046D01*
X367454Y302830D01*
X367832Y303744D01*
X367962Y304724D01*
X367832Y305705D01*
X367454Y306619D01*
X366956Y307268D01*
X367071Y307846D01*
X367563Y308842D01*
X367929D01*
Y316354D01*
D02*
G37*
%LPD*%
G36*
X58071Y330051D02*
X56957Y328937D01*
X984D01*
Y335186D01*
X2559Y335973D01*
X3903Y335416D01*
X5864Y334945D01*
X7874Y334787D01*
X9884Y334945D01*
X11845Y335416D01*
X13708Y336188D01*
X15428Y337241D01*
X16961Y338551D01*
X18270Y340084D01*
X19324Y341804D01*
X20096Y343667D01*
X20567Y345627D01*
X20725Y347638D01*
X20567Y349648D01*
X20096Y351609D01*
X19324Y353472D01*
X18270Y355191D01*
X16961Y356725D01*
X15428Y358034D01*
X13708Y359088D01*
X11845Y359859D01*
X9884Y360330D01*
X7874Y360489D01*
X5864Y360330D01*
X3903Y359859D01*
X2559Y359303D01*
X984Y360090D01*
Y365225D01*
X2098Y366339D01*
X58071D01*
X58071Y330051D01*
D02*
G37*
%LPC*%
G36*
X35219Y335327D02*
X31996D01*
Y332104D01*
X32477Y332168D01*
X33390Y332546D01*
X34175Y333148D01*
X34777Y333933D01*
X35155Y334846D01*
X35219Y335327D01*
D02*
G37*
G36*
X30996D02*
X27774D01*
X27837Y334846D01*
X28215Y333933D01*
X28817Y333148D01*
X29602Y332546D01*
X30516Y332168D01*
X30996Y332104D01*
Y335327D01*
D02*
G37*
G36*
X49075Y358271D02*
X45413D01*
X44603Y358164D01*
X43847Y357851D01*
X43198Y357353D01*
X42700Y356704D01*
X42387Y355949D01*
X42280Y355138D01*
X42322Y354819D01*
X42307Y353244D01*
X42307Y353244D01*
X42307Y353244D01*
Y350638D01*
X52181D01*
Y353244D01*
X52181Y353244D01*
X52166Y354819D01*
X52208Y355138D01*
X52101Y355949D01*
X51788Y356704D01*
X51290Y357353D01*
X50641Y357851D01*
X49886Y358164D01*
X49075Y358271D01*
D02*
G37*
G36*
X52181Y349638D02*
X42307D01*
Y347031D01*
X42307Y347031D01*
X42322Y345457D01*
X42280Y345138D01*
X42387Y344327D01*
X42700Y343571D01*
X43082Y342638D01*
X42700Y341704D01*
X42387Y340949D01*
X42280Y340138D01*
X42387Y339327D01*
X42700Y338571D01*
X43198Y337922D01*
X43847Y337424D01*
X44603Y337111D01*
X45413Y337005D01*
X49075D01*
X49886Y337111D01*
X50641Y337424D01*
X51290Y337922D01*
X51788Y338571D01*
X52101Y339327D01*
X52208Y340138D01*
X52101Y340949D01*
X51788Y341704D01*
X51407Y342638D01*
X51788Y343571D01*
X52101Y344327D01*
X52208Y345138D01*
X52166Y345457D01*
X52181Y347031D01*
X52181Y347031D01*
X52181Y347031D01*
Y349638D01*
D02*
G37*
G36*
X35252Y363205D02*
X27740D01*
Y355693D01*
X28106D01*
X28598Y354696D01*
X28714Y354118D01*
X28215Y353469D01*
X27837Y352555D01*
X27708Y351575D01*
X27837Y350594D01*
X28215Y349681D01*
X28817Y348896D01*
X29270Y348549D01*
X29415Y347866D01*
Y347410D01*
X29270Y346727D01*
X28817Y346380D01*
X28215Y345595D01*
X27837Y344681D01*
X27708Y343701D01*
X27837Y342720D01*
X28215Y341807D01*
X28817Y341022D01*
X29270Y340675D01*
X29415Y339991D01*
Y339536D01*
X29270Y338853D01*
X28817Y338506D01*
X28215Y337721D01*
X27837Y336807D01*
X27774Y336327D01*
X35219D01*
X35155Y336807D01*
X34777Y337721D01*
X34175Y338506D01*
X33722Y338853D01*
X33577Y339536D01*
Y339991D01*
X33722Y340675D01*
X34175Y341022D01*
X34777Y341807D01*
X35155Y342720D01*
X35284Y343701D01*
X35155Y344681D01*
X34777Y345595D01*
X34175Y346380D01*
X33722Y346727D01*
X33577Y347410D01*
Y347866D01*
X33722Y348549D01*
X34175Y348896D01*
X34777Y349681D01*
X35155Y350594D01*
X35284Y351575D01*
X35155Y352555D01*
X34777Y353469D01*
X34279Y354118D01*
X34394Y354696D01*
X34886Y355693D01*
X35252D01*
Y363205D01*
D02*
G37*
%LPD*%
G36*
X124606Y330051D02*
X123493Y328937D01*
X67520D01*
Y335186D01*
X69095Y335973D01*
X70438Y335416D01*
X72399Y334945D01*
X74410Y334787D01*
X76420Y334945D01*
X78381Y335416D01*
X80244Y336188D01*
X81963Y337241D01*
X83496Y338551D01*
X84806Y340084D01*
X85860Y341804D01*
X86631Y343667D01*
X87102Y345627D01*
X87260Y347638D01*
X87102Y349648D01*
X86631Y351609D01*
X85860Y353472D01*
X84806Y355191D01*
X83496Y356725D01*
X81963Y358034D01*
X80244Y359088D01*
X78381Y359859D01*
X76420Y360330D01*
X74410Y360489D01*
X72399Y360330D01*
X70438Y359859D01*
X69095Y359303D01*
X67520Y360090D01*
Y365225D01*
X68633Y366339D01*
X124606D01*
X124606Y330051D01*
D02*
G37*
%LPC*%
G36*
X101754Y335327D02*
X98532D01*
Y332104D01*
X99012Y332168D01*
X99926Y332546D01*
X100710Y333148D01*
X101312Y333933D01*
X101691Y334846D01*
X101754Y335327D01*
D02*
G37*
G36*
X97531D02*
X94309D01*
X94372Y334846D01*
X94751Y333933D01*
X95353Y333148D01*
X96137Y332546D01*
X97051Y332168D01*
X97531Y332104D01*
Y335327D01*
D02*
G37*
G36*
X115610Y358271D02*
X111949D01*
X111138Y358164D01*
X110382Y357851D01*
X109733Y357353D01*
X109236Y356704D01*
X108923Y355949D01*
X108816Y355138D01*
X108858Y354819D01*
X108843Y353244D01*
X108843Y353244D01*
X108843Y353244D01*
Y350638D01*
X118717D01*
Y353244D01*
X118717Y353244D01*
X118701Y354819D01*
X118743Y355138D01*
X118637Y355949D01*
X118324Y356704D01*
X117826Y357353D01*
X117177Y357851D01*
X116421Y358164D01*
X115610Y358271D01*
D02*
G37*
G36*
X118717Y349638D02*
X108843D01*
Y347031D01*
X108843Y347031D01*
X108858Y345457D01*
X108816Y345138D01*
X108923Y344327D01*
X109236Y343571D01*
X109617Y342638D01*
X109236Y341704D01*
X108923Y340949D01*
X108816Y340138D01*
X108923Y339327D01*
X109236Y338571D01*
X109733Y337922D01*
X110382Y337424D01*
X111138Y337111D01*
X111949Y337005D01*
X115610D01*
X116421Y337111D01*
X117177Y337424D01*
X117826Y337922D01*
X118324Y338571D01*
X118637Y339327D01*
X118743Y340138D01*
X118637Y340949D01*
X118324Y341704D01*
X117942Y342638D01*
X118324Y343571D01*
X118637Y344327D01*
X118743Y345138D01*
X118701Y345457D01*
X118717Y347031D01*
X118717Y347031D01*
X118717Y347031D01*
Y349638D01*
D02*
G37*
G36*
X101787Y363205D02*
X94276D01*
Y355693D01*
X94642D01*
X95134Y354696D01*
X95249Y354118D01*
X94751Y353469D01*
X94372Y352555D01*
X94243Y351575D01*
X94372Y350594D01*
X94751Y349681D01*
X95353Y348896D01*
X95806Y348549D01*
X95950Y347866D01*
Y347410D01*
X95806Y346727D01*
X95353Y346380D01*
X94751Y345595D01*
X94372Y344681D01*
X94243Y343701D01*
X94372Y342720D01*
X94751Y341807D01*
X95353Y341022D01*
X95806Y340675D01*
X95950Y339991D01*
Y339536D01*
X95806Y338853D01*
X95353Y338506D01*
X94751Y337721D01*
X94372Y336807D01*
X94309Y336327D01*
X101754D01*
X101691Y336807D01*
X101312Y337721D01*
X100710Y338506D01*
X100258Y338853D01*
X100113Y339536D01*
Y339991D01*
X100258Y340675D01*
X100710Y341022D01*
X101312Y341807D01*
X101691Y342720D01*
X101820Y343701D01*
X101691Y344681D01*
X101312Y345595D01*
X100710Y346380D01*
X100258Y346727D01*
X100113Y347410D01*
Y347866D01*
X100258Y348549D01*
X100710Y348896D01*
X101312Y349681D01*
X101691Y350594D01*
X101820Y351575D01*
X101691Y352555D01*
X101312Y353469D01*
X100814Y354118D01*
X100929Y354696D01*
X101421Y355693D01*
X101787D01*
Y363205D01*
D02*
G37*
%LPD*%
G36*
X191142Y330051D02*
X190028Y328937D01*
X134055D01*
Y335186D01*
X135630Y335973D01*
X136974Y335416D01*
X138935Y334945D01*
X140945Y334787D01*
X142955Y334945D01*
X144916Y335416D01*
X146779Y336188D01*
X148498Y337241D01*
X150032Y338551D01*
X151341Y340084D01*
X152395Y341804D01*
X153167Y343667D01*
X153637Y345627D01*
X153796Y347638D01*
X153637Y349648D01*
X153167Y351609D01*
X152395Y353472D01*
X151341Y355191D01*
X150032Y356725D01*
X148498Y358034D01*
X146779Y359088D01*
X144916Y359859D01*
X142955Y360330D01*
X140945Y360489D01*
X138935Y360330D01*
X136974Y359859D01*
X135630Y359303D01*
X134055Y360090D01*
Y365225D01*
X135169Y366339D01*
X191142D01*
X191142Y330051D01*
D02*
G37*
%LPC*%
G36*
X168289Y335327D02*
X165067D01*
Y332104D01*
X165548Y332168D01*
X166461Y332546D01*
X167246Y333148D01*
X167848Y333933D01*
X168226Y334846D01*
X168289Y335327D01*
D02*
G37*
G36*
X164067D02*
X160845D01*
X160908Y334846D01*
X161286Y333933D01*
X161888Y333148D01*
X162673Y332546D01*
X163586Y332168D01*
X164067Y332104D01*
Y335327D01*
D02*
G37*
G36*
X182146Y358271D02*
X178484D01*
X177673Y358164D01*
X176918Y357851D01*
X176269Y357353D01*
X175771Y356704D01*
X175458Y355949D01*
X175351Y355138D01*
X175393Y354819D01*
X175378Y353244D01*
X175378Y353244D01*
X175378Y353244D01*
Y350638D01*
X185252D01*
Y353244D01*
X185252Y353244D01*
X185237Y354819D01*
X185279Y355138D01*
X185172Y355949D01*
X184859Y356704D01*
X184361Y357353D01*
X183712Y357851D01*
X182957Y358164D01*
X182146Y358271D01*
D02*
G37*
G36*
X185252Y349638D02*
X175378D01*
Y347031D01*
X175378Y347031D01*
X175393Y345457D01*
X175351Y345138D01*
X175458Y344327D01*
X175771Y343571D01*
X176153Y342638D01*
X175771Y341704D01*
X175458Y340949D01*
X175351Y340138D01*
X175458Y339327D01*
X175771Y338571D01*
X176269Y337922D01*
X176918Y337424D01*
X177673Y337111D01*
X178484Y337005D01*
X182146D01*
X182957Y337111D01*
X183712Y337424D01*
X184361Y337922D01*
X184859Y338571D01*
X185172Y339327D01*
X185279Y340138D01*
X185172Y340949D01*
X184859Y341704D01*
X184477Y342638D01*
X184859Y343571D01*
X185172Y344327D01*
X185279Y345138D01*
X185237Y345457D01*
X185252Y347031D01*
X185252Y347031D01*
X185252Y347031D01*
Y349638D01*
D02*
G37*
G36*
X168323Y363205D02*
X160811D01*
Y355693D01*
X161177D01*
X161669Y354696D01*
X161784Y354118D01*
X161286Y353469D01*
X160908Y352555D01*
X160779Y351575D01*
X160908Y350594D01*
X161286Y349681D01*
X161888Y348896D01*
X162341Y348549D01*
X162486Y347866D01*
Y347410D01*
X162341Y346727D01*
X161888Y346380D01*
X161286Y345595D01*
X160908Y344681D01*
X160779Y343701D01*
X160908Y342720D01*
X161286Y341807D01*
X161888Y341022D01*
X162341Y340675D01*
X162486Y339991D01*
Y339536D01*
X162341Y338853D01*
X161888Y338506D01*
X161286Y337721D01*
X160908Y336807D01*
X160845Y336327D01*
X168289D01*
X168226Y336807D01*
X167848Y337721D01*
X167246Y338506D01*
X166793Y338853D01*
X166648Y339536D01*
Y339991D01*
X166793Y340675D01*
X167246Y341022D01*
X167848Y341807D01*
X168226Y342720D01*
X168355Y343701D01*
X168226Y344681D01*
X167848Y345595D01*
X167246Y346380D01*
X166793Y346727D01*
X166648Y347410D01*
Y347866D01*
X166793Y348549D01*
X167246Y348896D01*
X167848Y349681D01*
X168226Y350594D01*
X168355Y351575D01*
X168226Y352555D01*
X167848Y353469D01*
X167350Y354118D01*
X167464Y354696D01*
X167957Y355693D01*
X168323D01*
Y363205D01*
D02*
G37*
%LPD*%
G36*
X257677Y330051D02*
X256564Y328937D01*
X200591D01*
Y335186D01*
X202165Y335973D01*
X203509Y335416D01*
X205470Y334945D01*
X207480Y334787D01*
X209491Y334945D01*
X211451Y335416D01*
X213314Y336188D01*
X215034Y337241D01*
X216567Y338551D01*
X217877Y340084D01*
X218930Y341804D01*
X219702Y343667D01*
X220173Y345627D01*
X220331Y347638D01*
X220173Y349648D01*
X219702Y351609D01*
X218930Y353472D01*
X217877Y355191D01*
X216567Y356725D01*
X215034Y358034D01*
X213314Y359088D01*
X211451Y359859D01*
X209491Y360330D01*
X207480Y360489D01*
X205470Y360330D01*
X203509Y359859D01*
X202165Y359303D01*
X200591Y360090D01*
Y365225D01*
X201704Y366339D01*
X257677D01*
X257677Y330051D01*
D02*
G37*
%LPC*%
G36*
X234825Y335327D02*
X231602D01*
Y332104D01*
X232083Y332168D01*
X232997Y332546D01*
X233781Y333148D01*
X234383Y333933D01*
X234762Y334846D01*
X234825Y335327D01*
D02*
G37*
G36*
X230602D02*
X227380D01*
X227443Y334846D01*
X227822Y333933D01*
X228424Y333148D01*
X229208Y332546D01*
X230122Y332168D01*
X230602Y332104D01*
Y335327D01*
D02*
G37*
G36*
X248681Y358271D02*
X245020D01*
X244209Y358164D01*
X243453Y357851D01*
X242804Y357353D01*
X242306Y356704D01*
X241993Y355949D01*
X241887Y355138D01*
X241929Y354819D01*
X241913Y353244D01*
X241913Y353244D01*
X241913Y353244D01*
Y350638D01*
X251787D01*
Y353244D01*
X251787Y353244D01*
X251772Y354819D01*
X251814Y355138D01*
X251708Y355949D01*
X251395Y356704D01*
X250897Y357353D01*
X250248Y357851D01*
X249492Y358164D01*
X248681Y358271D01*
D02*
G37*
G36*
X251787Y349638D02*
X241913D01*
Y347031D01*
X241913Y347031D01*
X241929Y345457D01*
X241887Y345138D01*
X241993Y344327D01*
X242306Y343571D01*
X242688Y342638D01*
X242306Y341704D01*
X241993Y340949D01*
X241887Y340138D01*
X241993Y339327D01*
X242306Y338571D01*
X242804Y337922D01*
X243453Y337424D01*
X244209Y337111D01*
X245020Y337005D01*
X248681D01*
X249492Y337111D01*
X250248Y337424D01*
X250897Y337922D01*
X251395Y338571D01*
X251708Y339327D01*
X251814Y340138D01*
X251708Y340949D01*
X251395Y341704D01*
X251013Y342638D01*
X251395Y343571D01*
X251708Y344327D01*
X251814Y345138D01*
X251772Y345457D01*
X251787Y347031D01*
X251787Y347031D01*
X251787Y347031D01*
Y349638D01*
D02*
G37*
G36*
X234858Y363205D02*
X227346D01*
Y355693D01*
X227713D01*
X228205Y354696D01*
X228320Y354118D01*
X227822Y353469D01*
X227443Y352555D01*
X227314Y351575D01*
X227443Y350594D01*
X227822Y349681D01*
X228424Y348896D01*
X228876Y348549D01*
X229021Y347866D01*
Y347410D01*
X228876Y346727D01*
X228424Y346380D01*
X227822Y345595D01*
X227443Y344681D01*
X227314Y343701D01*
X227443Y342720D01*
X227822Y341807D01*
X228424Y341022D01*
X228876Y340675D01*
X229021Y339991D01*
Y339536D01*
X228876Y338853D01*
X228424Y338506D01*
X227822Y337721D01*
X227443Y336807D01*
X227380Y336327D01*
X234825D01*
X234762Y336807D01*
X234383Y337721D01*
X233781Y338506D01*
X233328Y338853D01*
X233184Y339536D01*
Y339991D01*
X233328Y340675D01*
X233781Y341022D01*
X234383Y341807D01*
X234762Y342720D01*
X234891Y343701D01*
X234762Y344681D01*
X234383Y345595D01*
X233781Y346380D01*
X233328Y346727D01*
X233184Y347410D01*
Y347866D01*
X233328Y348549D01*
X233781Y348896D01*
X234383Y349681D01*
X234762Y350594D01*
X234891Y351575D01*
X234762Y352555D01*
X234383Y353469D01*
X233885Y354118D01*
X234000Y354696D01*
X234492Y355693D01*
X234858D01*
Y363205D01*
D02*
G37*
%LPD*%
G36*
X324213Y330051D02*
X323099Y328937D01*
X267126D01*
Y335186D01*
X268701Y335973D01*
X270045Y335416D01*
X272006Y334945D01*
X274016Y334787D01*
X276026Y334945D01*
X277987Y335416D01*
X279850Y336188D01*
X281569Y337241D01*
X283103Y338551D01*
X284412Y340084D01*
X285466Y341804D01*
X286238Y343667D01*
X286708Y345627D01*
X286866Y347638D01*
X286708Y349648D01*
X286238Y351609D01*
X285466Y353472D01*
X284412Y355191D01*
X283103Y356725D01*
X281569Y358034D01*
X279850Y359088D01*
X277987Y359859D01*
X276026Y360330D01*
X274016Y360489D01*
X272006Y360330D01*
X270045Y359859D01*
X268701Y359303D01*
X267126Y360090D01*
Y365225D01*
X268240Y366339D01*
X324213D01*
X324213Y330051D01*
D02*
G37*
%LPC*%
G36*
X301360Y335327D02*
X298138D01*
Y332104D01*
X298618Y332168D01*
X299532Y332546D01*
X300317Y333148D01*
X300919Y333933D01*
X301297Y334846D01*
X301360Y335327D01*
D02*
G37*
G36*
X297138D02*
X293915D01*
X293979Y334846D01*
X294357Y333933D01*
X294959Y333148D01*
X295744Y332546D01*
X296657Y332168D01*
X297138Y332104D01*
Y335327D01*
D02*
G37*
G36*
X315217Y358271D02*
X311555D01*
X310744Y358164D01*
X309989Y357851D01*
X309340Y357353D01*
X308842Y356704D01*
X308529Y355949D01*
X308422Y355138D01*
X308464Y354819D01*
X308449Y353244D01*
X308449Y353244D01*
X308449Y353244D01*
Y350638D01*
X318323D01*
Y353244D01*
X318323Y353244D01*
X318308Y354819D01*
X318350Y355138D01*
X318243Y355949D01*
X317930Y356704D01*
X317432Y357353D01*
X316783Y357851D01*
X316027Y358164D01*
X315217Y358271D01*
D02*
G37*
G36*
X318323Y349638D02*
X308449D01*
Y347031D01*
X308449Y347031D01*
X308464Y345457D01*
X308422Y345138D01*
X308529Y344327D01*
X308842Y343571D01*
X309223Y342638D01*
X308842Y341704D01*
X308529Y340949D01*
X308422Y340138D01*
X308529Y339327D01*
X308842Y338571D01*
X309340Y337922D01*
X309989Y337424D01*
X310744Y337111D01*
X311555Y337005D01*
X315217D01*
X316027Y337111D01*
X316783Y337424D01*
X317432Y337922D01*
X317930Y338571D01*
X318243Y339327D01*
X318350Y340138D01*
X318243Y340949D01*
X317930Y341704D01*
X317548Y342638D01*
X317930Y343571D01*
X318243Y344327D01*
X318350Y345138D01*
X318308Y345457D01*
X318323Y347031D01*
X318323Y347031D01*
X318323Y347031D01*
Y349638D01*
D02*
G37*
G36*
X301394Y363205D02*
X293882D01*
Y355693D01*
X294248D01*
X294740Y354696D01*
X294855Y354118D01*
X294357Y353469D01*
X293979Y352555D01*
X293849Y351575D01*
X293979Y350594D01*
X294357Y349681D01*
X294959Y348896D01*
X295412Y348549D01*
X295556Y347866D01*
Y347410D01*
X295412Y346727D01*
X294959Y346380D01*
X294357Y345595D01*
X293979Y344681D01*
X293849Y343701D01*
X293979Y342720D01*
X294357Y341807D01*
X294959Y341022D01*
X295412Y340675D01*
X295556Y339991D01*
Y339536D01*
X295412Y338853D01*
X294959Y338506D01*
X294357Y337721D01*
X293979Y336807D01*
X293915Y336327D01*
X301360D01*
X301297Y336807D01*
X300919Y337721D01*
X300317Y338506D01*
X299864Y338853D01*
X299719Y339536D01*
Y339991D01*
X299864Y340675D01*
X300317Y341022D01*
X300919Y341807D01*
X301297Y342720D01*
X301426Y343701D01*
X301297Y344681D01*
X300919Y345595D01*
X300317Y346380D01*
X299864Y346727D01*
X299719Y347410D01*
Y347866D01*
X299864Y348549D01*
X300317Y348896D01*
X300919Y349681D01*
X301297Y350594D01*
X301426Y351575D01*
X301297Y352555D01*
X300919Y353469D01*
X300420Y354118D01*
X300535Y354696D01*
X301028Y355693D01*
X301394D01*
Y363205D01*
D02*
G37*
%LPD*%
G36*
X390748Y330051D02*
X389634Y328937D01*
X333661D01*
Y335186D01*
X335236Y335973D01*
X336580Y335416D01*
X338541Y334945D01*
X340551Y334787D01*
X342562Y334945D01*
X344522Y335416D01*
X346385Y336188D01*
X348105Y337241D01*
X349638Y338551D01*
X350948Y340084D01*
X352001Y341804D01*
X352773Y343667D01*
X353244Y345627D01*
X353402Y347638D01*
X353244Y349648D01*
X352773Y351609D01*
X352001Y353472D01*
X350948Y355191D01*
X349638Y356725D01*
X348105Y358034D01*
X346385Y359088D01*
X344522Y359859D01*
X342562Y360330D01*
X340551Y360489D01*
X338541Y360330D01*
X336580Y359859D01*
X335236Y359303D01*
X333661Y360090D01*
Y365225D01*
X334775Y366339D01*
X390748D01*
X390748Y330051D01*
D02*
G37*
%LPC*%
G36*
X367896Y335327D02*
X364673D01*
Y332104D01*
X365154Y332168D01*
X366067Y332546D01*
X366852Y333148D01*
X367454Y333933D01*
X367832Y334846D01*
X367896Y335327D01*
D02*
G37*
G36*
X363673D02*
X360451D01*
X360514Y334846D01*
X360893Y333933D01*
X361494Y333148D01*
X362279Y332546D01*
X363193Y332168D01*
X363673Y332104D01*
Y335327D01*
D02*
G37*
G36*
X381752Y358271D02*
X378091D01*
X377280Y358164D01*
X376524Y357851D01*
X375875Y357353D01*
X375377Y356704D01*
X375064Y355949D01*
X374957Y355138D01*
X374999Y354819D01*
X374984Y353244D01*
X374984Y353244D01*
X374984Y353244D01*
Y350638D01*
X384858D01*
Y353244D01*
X384858Y353244D01*
X384843Y354819D01*
X384885Y355138D01*
X384778Y355949D01*
X384465Y356704D01*
X383967Y357353D01*
X383319Y357851D01*
X382563Y358164D01*
X381752Y358271D01*
D02*
G37*
G36*
X384858Y349638D02*
X374984D01*
Y347031D01*
X374984Y347031D01*
X374999Y345457D01*
X374957Y345138D01*
X375064Y344327D01*
X375377Y343571D01*
X375759Y342638D01*
X375377Y341704D01*
X375064Y340949D01*
X374957Y340138D01*
X375064Y339327D01*
X375377Y338571D01*
X375875Y337922D01*
X376524Y337424D01*
X377280Y337111D01*
X378091Y337005D01*
X381752D01*
X382563Y337111D01*
X383319Y337424D01*
X383967Y337922D01*
X384465Y338571D01*
X384778Y339327D01*
X384885Y340138D01*
X384778Y340949D01*
X384465Y341704D01*
X384084Y342638D01*
X384465Y343571D01*
X384778Y344327D01*
X384885Y345138D01*
X384843Y345457D01*
X384858Y347031D01*
X384858Y347031D01*
X384858Y347031D01*
Y349638D01*
D02*
G37*
G36*
X367929Y363205D02*
X360417D01*
Y355693D01*
X360783D01*
X361276Y354696D01*
X361391Y354118D01*
X360893Y353469D01*
X360514Y352555D01*
X360385Y351575D01*
X360514Y350594D01*
X360893Y349681D01*
X361494Y348896D01*
X361947Y348549D01*
X362092Y347866D01*
Y347410D01*
X361947Y346727D01*
X361494Y346380D01*
X360893Y345595D01*
X360514Y344681D01*
X360385Y343701D01*
X360514Y342720D01*
X360893Y341807D01*
X361494Y341022D01*
X361947Y340675D01*
X362092Y339991D01*
Y339536D01*
X361947Y338853D01*
X361494Y338506D01*
X360893Y337721D01*
X360514Y336807D01*
X360451Y336327D01*
X367896D01*
X367832Y336807D01*
X367454Y337721D01*
X366852Y338506D01*
X366399Y338853D01*
X366255Y339536D01*
Y339991D01*
X366399Y340675D01*
X366852Y341022D01*
X367454Y341807D01*
X367832Y342720D01*
X367962Y343701D01*
X367832Y344681D01*
X367454Y345595D01*
X366852Y346380D01*
X366399Y346727D01*
X366255Y347410D01*
Y347866D01*
X366399Y348549D01*
X366852Y348896D01*
X367454Y349681D01*
X367832Y350594D01*
X367962Y351575D01*
X367832Y352555D01*
X367454Y353469D01*
X366956Y354118D01*
X367071Y354696D01*
X367563Y355693D01*
X367929D01*
Y363205D01*
D02*
G37*
%LPD*%
D11*
X47244Y27185D02*
D03*
Y17185D02*
D03*
Y12185D02*
D03*
X113780Y27185D02*
D03*
Y17185D02*
D03*
Y12185D02*
D03*
X180315Y27185D02*
D03*
Y17185D02*
D03*
Y12185D02*
D03*
X246850Y27185D02*
D03*
Y17185D02*
D03*
Y12185D02*
D03*
X313386Y27185D02*
D03*
Y17185D02*
D03*
Y12185D02*
D03*
X379921Y27185D02*
D03*
Y17185D02*
D03*
Y12185D02*
D03*
X47244Y74036D02*
D03*
Y64035D02*
D03*
Y59035D02*
D03*
X113780Y74036D02*
D03*
Y64035D02*
D03*
Y59035D02*
D03*
X180315Y74036D02*
D03*
Y64035D02*
D03*
Y59035D02*
D03*
X246850Y74036D02*
D03*
Y64035D02*
D03*
Y59035D02*
D03*
X313386Y74036D02*
D03*
Y64035D02*
D03*
Y59035D02*
D03*
X379921Y74036D02*
D03*
Y64035D02*
D03*
Y59035D02*
D03*
X47244Y120886D02*
D03*
Y110886D02*
D03*
Y105886D02*
D03*
X113780Y120886D02*
D03*
Y110886D02*
D03*
Y105886D02*
D03*
X180315Y120886D02*
D03*
Y110886D02*
D03*
Y105886D02*
D03*
X246850Y120886D02*
D03*
Y110886D02*
D03*
Y105886D02*
D03*
X313386Y120886D02*
D03*
Y110886D02*
D03*
Y105886D02*
D03*
X379921Y120886D02*
D03*
Y110886D02*
D03*
Y105886D02*
D03*
X47244Y167736D02*
D03*
Y157736D02*
D03*
Y152736D02*
D03*
X113780Y167736D02*
D03*
Y157736D02*
D03*
Y152736D02*
D03*
X180315Y167736D02*
D03*
Y157736D02*
D03*
Y152736D02*
D03*
X246850Y167736D02*
D03*
Y157736D02*
D03*
Y152736D02*
D03*
X313386Y167736D02*
D03*
Y157736D02*
D03*
Y152736D02*
D03*
X379921Y167736D02*
D03*
Y157736D02*
D03*
Y152736D02*
D03*
X47244Y214587D02*
D03*
Y204587D02*
D03*
Y199587D02*
D03*
X113780Y214587D02*
D03*
Y204587D02*
D03*
Y199587D02*
D03*
X180315Y214587D02*
D03*
Y204587D02*
D03*
Y199587D02*
D03*
X246850Y214587D02*
D03*
Y204587D02*
D03*
Y199587D02*
D03*
X313386Y214587D02*
D03*
Y204587D02*
D03*
Y199587D02*
D03*
X379921Y214587D02*
D03*
Y204587D02*
D03*
Y199587D02*
D03*
X47244Y261437D02*
D03*
Y251437D02*
D03*
Y246437D02*
D03*
X113780Y261437D02*
D03*
Y251437D02*
D03*
Y246437D02*
D03*
X180315Y261437D02*
D03*
Y251437D02*
D03*
Y246437D02*
D03*
X246850Y261437D02*
D03*
Y251437D02*
D03*
Y246437D02*
D03*
X313386Y261437D02*
D03*
Y251437D02*
D03*
Y246437D02*
D03*
X379921Y261437D02*
D03*
Y251437D02*
D03*
Y246437D02*
D03*
X47244Y308287D02*
D03*
Y298287D02*
D03*
Y293287D02*
D03*
X113780Y308287D02*
D03*
Y298287D02*
D03*
Y293287D02*
D03*
X180315Y308287D02*
D03*
Y298287D02*
D03*
Y293287D02*
D03*
X246850Y308287D02*
D03*
Y298287D02*
D03*
Y293287D02*
D03*
X313386Y308287D02*
D03*
Y298287D02*
D03*
Y293287D02*
D03*
X379921Y308287D02*
D03*
Y298287D02*
D03*
Y293287D02*
D03*
X47244Y355138D02*
D03*
Y345138D02*
D03*
Y340138D02*
D03*
X113780Y355138D02*
D03*
Y345138D02*
D03*
Y340138D02*
D03*
X180315Y355138D02*
D03*
Y345138D02*
D03*
Y340138D02*
D03*
X246850Y355138D02*
D03*
Y345138D02*
D03*
Y340138D02*
D03*
X313386Y355138D02*
D03*
Y345138D02*
D03*
Y340138D02*
D03*
X379921Y355138D02*
D03*
Y345138D02*
D03*
Y340138D02*
D03*
D12*
X47244Y22185D02*
D03*
X113780D02*
D03*
X180315D02*
D03*
X246850D02*
D03*
X313386D02*
D03*
X379921D02*
D03*
X47244Y69036D02*
D03*
X113780D02*
D03*
X180315D02*
D03*
X246850D02*
D03*
X313386D02*
D03*
X379921D02*
D03*
X47244Y115886D02*
D03*
X113780D02*
D03*
X180315D02*
D03*
X246850D02*
D03*
X313386D02*
D03*
X379921D02*
D03*
X47244Y162736D02*
D03*
X113780D02*
D03*
X180315D02*
D03*
X246850D02*
D03*
X313386D02*
D03*
X379921D02*
D03*
X47244Y209587D02*
D03*
X113780D02*
D03*
X180315D02*
D03*
X246850D02*
D03*
X313386D02*
D03*
X379921D02*
D03*
X47244Y256437D02*
D03*
X113780D02*
D03*
X180315D02*
D03*
X246850D02*
D03*
X313386D02*
D03*
X379921D02*
D03*
X47244Y303287D02*
D03*
X113780D02*
D03*
X180315D02*
D03*
X246850D02*
D03*
X313386D02*
D03*
X379921D02*
D03*
X47244Y350138D02*
D03*
X113780D02*
D03*
X180315D02*
D03*
X246850D02*
D03*
X313386D02*
D03*
X379921D02*
D03*
D13*
X31496Y31496D02*
D03*
X98032D02*
D03*
X164567D02*
D03*
X231102D02*
D03*
X297638D02*
D03*
X364173D02*
D03*
X31496Y78347D02*
D03*
X98032D02*
D03*
X164567D02*
D03*
X231102D02*
D03*
X297638D02*
D03*
X364173D02*
D03*
X31496Y125197D02*
D03*
X98032D02*
D03*
X164567D02*
D03*
X231102D02*
D03*
X297638D02*
D03*
X364173D02*
D03*
X31496Y172047D02*
D03*
X98032D02*
D03*
X164567D02*
D03*
X231102D02*
D03*
X297638D02*
D03*
X364173D02*
D03*
X31496Y218898D02*
D03*
X98032D02*
D03*
X164567D02*
D03*
X231102D02*
D03*
X297638D02*
D03*
X364173D02*
D03*
X31496Y265748D02*
D03*
X98032D02*
D03*
X164567D02*
D03*
X231102D02*
D03*
X297638D02*
D03*
X364173D02*
D03*
X31496Y312598D02*
D03*
X98032D02*
D03*
X164567D02*
D03*
X231102D02*
D03*
X297638D02*
D03*
X364173D02*
D03*
X31496Y359449D02*
D03*
X98032D02*
D03*
X164567D02*
D03*
X231102D02*
D03*
X297638D02*
D03*
X364173D02*
D03*
D14*
X31496Y23622D02*
D03*
Y15748D02*
D03*
Y7874D02*
D03*
X98032Y23622D02*
D03*
Y15748D02*
D03*
Y7874D02*
D03*
X164567Y23622D02*
D03*
Y15748D02*
D03*
Y7874D02*
D03*
X231102Y23622D02*
D03*
Y15748D02*
D03*
Y7874D02*
D03*
X297638Y23622D02*
D03*
Y15748D02*
D03*
Y7874D02*
D03*
X364173Y23622D02*
D03*
Y15748D02*
D03*
Y7874D02*
D03*
X31496Y70473D02*
D03*
Y62599D02*
D03*
Y54725D02*
D03*
X98032Y70473D02*
D03*
Y62599D02*
D03*
Y54725D02*
D03*
X164567Y70473D02*
D03*
Y62599D02*
D03*
Y54725D02*
D03*
X231102Y70473D02*
D03*
Y62599D02*
D03*
Y54725D02*
D03*
X297638Y70473D02*
D03*
Y62599D02*
D03*
Y54725D02*
D03*
X364173Y70473D02*
D03*
Y62599D02*
D03*
Y54725D02*
D03*
X31496Y117323D02*
D03*
Y109449D02*
D03*
Y101575D02*
D03*
X98032Y117323D02*
D03*
Y109449D02*
D03*
Y101575D02*
D03*
X164567Y117323D02*
D03*
Y109449D02*
D03*
Y101575D02*
D03*
X231102Y117323D02*
D03*
Y109449D02*
D03*
Y101575D02*
D03*
X297638Y117323D02*
D03*
Y109449D02*
D03*
Y101575D02*
D03*
X364173Y117323D02*
D03*
Y109449D02*
D03*
Y101575D02*
D03*
X31496Y164173D02*
D03*
Y156299D02*
D03*
Y148425D02*
D03*
X98032Y164173D02*
D03*
Y156299D02*
D03*
Y148425D02*
D03*
X164567Y164173D02*
D03*
Y156299D02*
D03*
Y148425D02*
D03*
X231102Y164173D02*
D03*
Y156299D02*
D03*
Y148425D02*
D03*
X297638Y164173D02*
D03*
Y156299D02*
D03*
Y148425D02*
D03*
X364173Y164173D02*
D03*
Y156299D02*
D03*
Y148425D02*
D03*
X31496Y211024D02*
D03*
Y203150D02*
D03*
Y195276D02*
D03*
X98032Y211024D02*
D03*
Y203150D02*
D03*
Y195276D02*
D03*
X164567Y211024D02*
D03*
Y203150D02*
D03*
Y195276D02*
D03*
X231102Y211024D02*
D03*
Y203150D02*
D03*
Y195276D02*
D03*
X297638Y211024D02*
D03*
Y203150D02*
D03*
Y195276D02*
D03*
X364173Y211024D02*
D03*
Y203150D02*
D03*
Y195276D02*
D03*
X31496Y257874D02*
D03*
Y250000D02*
D03*
Y242126D02*
D03*
X98032Y257874D02*
D03*
Y250000D02*
D03*
Y242126D02*
D03*
X164567Y257874D02*
D03*
Y250000D02*
D03*
Y242126D02*
D03*
X231102Y257874D02*
D03*
Y250000D02*
D03*
Y242126D02*
D03*
X297638Y257874D02*
D03*
Y250000D02*
D03*
Y242126D02*
D03*
X364173Y257874D02*
D03*
Y250000D02*
D03*
Y242126D02*
D03*
X31496Y304724D02*
D03*
Y296850D02*
D03*
Y288976D02*
D03*
X98032Y304724D02*
D03*
Y296850D02*
D03*
Y288976D02*
D03*
X164567Y304724D02*
D03*
Y296850D02*
D03*
Y288976D02*
D03*
X231102Y304724D02*
D03*
Y296850D02*
D03*
Y288976D02*
D03*
X297638Y304724D02*
D03*
Y296850D02*
D03*
Y288976D02*
D03*
X364173Y304724D02*
D03*
Y296850D02*
D03*
Y288976D02*
D03*
X31496Y351575D02*
D03*
Y343701D02*
D03*
Y335827D02*
D03*
X98032Y351575D02*
D03*
Y343701D02*
D03*
Y335827D02*
D03*
X164567Y351575D02*
D03*
Y343701D02*
D03*
Y335827D02*
D03*
X231102Y351575D02*
D03*
Y343701D02*
D03*
Y335827D02*
D03*
X297638Y351575D02*
D03*
Y343701D02*
D03*
Y335827D02*
D03*
X364173Y351575D02*
D03*
Y343701D02*
D03*
Y335827D02*
D03*
M02*
