G04 Layer_Color=8388736*
%FSLAX25Y25*%
%MOIN*%
G70*
G01*
G75*
%ADD10C,0.01000*%
%ADD20C,0.00787*%
D10*
X59947Y-32874D02*
X63946D01*
X65945Y-30875D01*
X63946Y-28875D01*
X59947D01*
X62946Y-26876D02*
Y-22877D01*
X60947Y-16879D02*
X59947Y-17879D01*
Y-19878D01*
X60947Y-20878D01*
X64945D01*
X65945Y-19878D01*
Y-17879D01*
X64945Y-16879D01*
X59947Y-14880D02*
X64945D01*
X65945Y-13880D01*
Y-11881D01*
X64945Y-10881D01*
X59947D01*
Y-8882D02*
Y-4883D01*
Y-6882D01*
X65945D01*
X126089Y-32087D02*
X130087D01*
X132087Y-30087D01*
X130087Y-28088D01*
X126089D01*
X129088Y-26089D02*
Y-22090D01*
X127088Y-16092D02*
X126089Y-17091D01*
Y-19091D01*
X127088Y-20090D01*
X131087D01*
X132087Y-19091D01*
Y-17091D01*
X131087Y-16092D01*
X126089Y-14092D02*
X131087D01*
X132087Y-13093D01*
Y-11093D01*
X131087Y-10094D01*
X126089D01*
Y-8094D02*
Y-4096D01*
Y-6095D01*
X132087D01*
X193214Y-32087D02*
X197213D01*
X199213Y-30087D01*
X197213Y-28088D01*
X193214D01*
X196214Y-26089D02*
Y-22090D01*
X194214Y-16092D02*
X193214Y-17091D01*
Y-19091D01*
X194214Y-20090D01*
X198213D01*
X199213Y-19091D01*
Y-17091D01*
X198213Y-16092D01*
X193214Y-14092D02*
X198213D01*
X199213Y-13093D01*
Y-11093D01*
X198213Y-10094D01*
X193214D01*
Y-8094D02*
Y-4096D01*
Y-6095D01*
X199213D01*
X259356Y-31299D02*
X263355D01*
X265354Y-29300D01*
X263355Y-27301D01*
X259356D01*
X262355Y-25301D02*
Y-21302D01*
X260356Y-15304D02*
X259356Y-16304D01*
Y-18303D01*
X260356Y-19303D01*
X264355D01*
X265354Y-18303D01*
Y-16304D01*
X264355Y-15304D01*
X259356Y-13305D02*
X264355D01*
X265354Y-12305D01*
Y-10306D01*
X264355Y-9306D01*
X259356D01*
Y-7307D02*
Y-3308D01*
Y-5308D01*
X265354D01*
X325892Y-31693D02*
X329890D01*
X331890Y-29694D01*
X329890Y-27694D01*
X325892D01*
X328891Y-25695D02*
Y-21696D01*
X326891Y-15698D02*
X325892Y-16698D01*
Y-18697D01*
X326891Y-19697D01*
X330890D01*
X331890Y-18697D01*
Y-16698D01*
X330890Y-15698D01*
X325892Y-13699D02*
X330890D01*
X331890Y-12699D01*
Y-10700D01*
X330890Y-9700D01*
X325892D01*
Y-7701D02*
Y-3702D01*
Y-5701D01*
X331890D01*
X399016Y46943D02*
Y42944D01*
X401015Y40945D01*
X403015Y42944D01*
Y46943D01*
X405014Y43944D02*
X409013D01*
X415011Y45943D02*
X414011Y46943D01*
X412011D01*
X411012Y45943D01*
Y41945D01*
X412011Y40945D01*
X414011D01*
X415011Y41945D01*
X417010Y46943D02*
Y41945D01*
X418010Y40945D01*
X420009D01*
X421009Y41945D01*
Y46943D01*
X423008D02*
X427007D01*
X425007D01*
Y40945D01*
X398425Y92612D02*
Y88613D01*
X400424Y86614D01*
X402424Y88613D01*
Y92612D01*
X404423Y89613D02*
X408422D01*
X414420Y91612D02*
X413420Y92612D01*
X411421D01*
X410421Y91612D01*
Y87614D01*
X411421Y86614D01*
X413420D01*
X414420Y87614D01*
X416419Y92612D02*
Y87614D01*
X417419Y86614D01*
X419418D01*
X420418Y87614D01*
Y92612D01*
X422417D02*
X426416D01*
X424417D01*
Y86614D01*
X398819Y139856D02*
Y135858D01*
X400818Y133858D01*
X402818Y135858D01*
Y139856D01*
X404817Y136857D02*
X408816D01*
X414814Y138857D02*
X413814Y139856D01*
X411815D01*
X410815Y138857D01*
Y134858D01*
X411815Y133858D01*
X413814D01*
X414814Y134858D01*
X416813Y139856D02*
Y134858D01*
X417813Y133858D01*
X419812D01*
X420812Y134858D01*
Y139856D01*
X422811D02*
X426810D01*
X424811D01*
Y133858D01*
X397835Y187297D02*
Y183299D01*
X399834Y181299D01*
X401833Y183299D01*
Y187297D01*
X403833Y184298D02*
X407831D01*
X413830Y186298D02*
X412830Y187297D01*
X410830D01*
X409831Y186298D01*
Y182299D01*
X410830Y181299D01*
X412830D01*
X413830Y182299D01*
X415829Y187297D02*
Y182299D01*
X416828Y181299D01*
X418828D01*
X419828Y182299D01*
Y187297D01*
X421827D02*
X425826D01*
X423826D01*
Y181299D01*
X398228Y232770D02*
Y228771D01*
X400228Y226772D01*
X402227Y228771D01*
Y232770D01*
X404226Y229771D02*
X408225D01*
X414223Y231770D02*
X413224Y232770D01*
X411224D01*
X410224Y231770D01*
Y227771D01*
X411224Y226772D01*
X413224D01*
X414223Y227771D01*
X416222Y232770D02*
Y227771D01*
X417222Y226772D01*
X419222D01*
X420221Y227771D01*
Y232770D01*
X422221D02*
X426219D01*
X424220D01*
Y226772D01*
X398425Y279817D02*
Y275818D01*
X400424Y273819D01*
X402424Y275818D01*
Y279817D01*
X404423Y276818D02*
X408422D01*
X414420Y278817D02*
X413420Y279817D01*
X411421D01*
X410421Y278817D01*
Y274819D01*
X411421Y273819D01*
X413420D01*
X414420Y274819D01*
X416419Y279817D02*
Y274819D01*
X417419Y273819D01*
X419418D01*
X420418Y274819D01*
Y279817D01*
X422417D02*
X426416D01*
X424417D01*
Y273819D01*
X398228Y326864D02*
Y322866D01*
X400228Y320866D01*
X402227Y322866D01*
Y326864D01*
X404226Y323865D02*
X408225D01*
X414223Y325865D02*
X413224Y326864D01*
X411224D01*
X410224Y325865D01*
Y321866D01*
X411224Y320866D01*
X413224D01*
X414223Y321866D01*
X416222Y326864D02*
Y321866D01*
X417222Y320866D01*
X419222D01*
X420221Y321866D01*
Y326864D01*
X422221D02*
X426219D01*
X424220D01*
Y320866D01*
D20*
X-0Y-0D02*
X391732D01*
Y367323D01*
X0D02*
X391732D01*
X0Y-0D02*
Y367323D01*
X62795Y0D02*
Y367323D01*
X129331Y0D02*
Y367323D01*
X195866Y-0D02*
X195866D01*
Y367323D01*
X262402Y0D02*
Y367323D01*
X328346Y0D02*
X328937D01*
Y367323D01*
X0Y43110D02*
X391732D01*
X0Y89961D02*
X391732D01*
X0Y136811D02*
X391732D01*
X0Y183661D02*
X391732D01*
X0Y230512D02*
X391732D01*
X0Y277362D02*
X391732D01*
X0Y324213D02*
X391732D01*
M02*
